<?xml version="1.0" encoding="UTF-8"?>
<svg id="_图层_1" data-name="图层 1" xmlns="http://www.w3.org/2000/svg" xmlns:xlink="http://www.w3.org/1999/xlink" viewBox="0 0 112.3 38.94">
  <defs>
    <style>
      .cls-1 {
        font-size: 19px;
      }

      .cls-1, .cls-2 {
        stroke-width: 2px;
      }

      .cls-3 {
        opacity: .18;
      }

      .cls-3, .cls-4, .cls-5 {
        fill: #fff;
      }

      .cls-6 {
        fill: #fdad00;
      }

      .cls-7 {
        fill: #fdd231;
      }

      .cls-8 {
        fill: #fdb300;
      }

      .cls-9 {
        filter: url(#drop-shadow-1);
      }

      .cls-2 {
        fill: url(#_未命名的渐变_77);
        stroke: #333;
        stroke-linejoin: round;
      }

      .cls-4 {
        font-family: A023-SounsoUndividedad, 'A023-Sounso Undividedad';
        stroke: #fff;
        stroke-miterlimit: 10;
      }

      .cls-10 {
        fill: #ea6c00;
      }

      .cls-5 {
        opacity: .22;
      }

      .cls-11 {
        fill: #feeeb7;
      }

      .cls-12 {
        font-size: 25.34px;
        letter-spacing: 0em;
      }
    </style>
    <linearGradient id="_未命名的渐变_77" data-name="未命名的渐变 77" x1="24.93" y1="51.39" x2="87.37" y2="-11.05" gradientUnits="userSpaceOnUse">
      <stop offset=".36" stop-color="#fdad00"/>
      <stop offset=".63" stop-color="#f7931e"/>
    </linearGradient>
    <filter id="drop-shadow-1" filterUnits="userSpaceOnUse">
      <feOffset dx="7" dy="7"/>
      <feGaussianBlur result="blur" stdDeviation="5"/>
      <feFlood flood-color="#000" flood-opacity=".4"/>
      <feComposite in2="blur" operator="in"/>
      <feComposite in="SourceGraphic"/>
    </filter>
  </defs>
  <rect class="cls-2" x="1" y="3.78" width="110.3" height="32.77" rx="15.54" ry="15.54"/>
  <text class="cls-4" transform="translate(43.59 28.04) scale(.87 1)"><tspan class="cls-1" x="0" y="0">LV</tspan><tspan class="cls-12" x="29.43" y="0">10</tspan></text>
  <polygon class="cls-5" points="75.59 35.56 61.59 4.86 56.59 4.86 70.59 35.56 75.59 35.56"/>
  <polygon class="cls-3" points="84.74 35.56 70.74 4.86 65.74 4.86 79.74 35.56 84.74 35.56"/>
  <g class="cls-9">
    <path class="cls-8" d="M8.42,1.15L19.29,0l10.87,1.15,8.42,11.3-19.29,22.47L0,12.45,8.42,1.15Z"/>
    <path class="cls-10" d="M7.81,12.56l11.48,22.47L0,12.56H7.81Z"/>
    <path class="cls-10" d="M30.77,12.56l-11.48,22.47L38.59,12.56h-7.81Z"/>
    <path class="cls-6" d="M7.81,12.56H30.77l-11.48,22.47L7.81,12.56Z"/>
    <path class="cls-7" d="M19.29,0L8.42,1.15l-.6,11.3L19.29,0Z"/>
    <path class="cls-7" d="M19.29,0l10.87,1.15,.6,11.3L19.29,0Z"/>
    <path class="cls-6" d="M38.59,12.56L30.17,1.25l.6,11.3h7.81Z"/>
    <path class="cls-6" d="M0,12.56L8.42,1.25l-.6,11.3H0Z"/>
    <path class="cls-11" d="M19.29,.1L7.81,12.56H30.77L19.29,.1Z"/>
  </g>
</svg>