<?xml version="1.0" encoding="UTF-8"?>
<svg id="_图层_1" data-name="图层 1" xmlns="http://www.w3.org/2000/svg" xmlns:xlink="http://www.w3.org/1999/xlink" viewBox="0 0 113.69 38.29">
  <defs>
    <style>
      .cls-1 {
        fill: url(#_未命名的渐变_62);
        stroke: #333;
        stroke-linejoin: round;
      }

      .cls-1, .cls-2 {
        stroke-width: 2px;
      }

      .cls-2 {
        font-size: 19px;
      }

      .cls-3 {
        opacity: .18;
      }

      .cls-3, .cls-4, .cls-5 {
        fill: #fff;
      }

      .cls-6 {
        font-size: 25.34px;
      }

      .cls-7 {
        fill: #00ad45;
      }

      .cls-8 {
        fill: #b3dcff;
      }

      .cls-4 {
        font-family: A023-SounsoUndividedad, 'A023-Sounso Undividedad';
        stroke: #fff;
        stroke-miterlimit: 10;
      }

      .cls-5 {
        opacity: .22;
      }

      .cls-9 {
        fill: #5ecc62;
      }
    </style>
    <linearGradient id="_未命名的渐变_62" data-name="未命名的渐变 62" x1="88.76" y1="-11.69" x2="26.33" y2="50.74" gradientUnits="userSpaceOnUse">
      <stop offset=".12" stop-color="#b3dcff"/>
      <stop offset=".6" stop-color="#009245"/>
    </linearGradient>
  </defs>
  <rect class="cls-1" x="2.39" y="3.14" width="110.3" height="32.77" rx="15.54" ry="15.54"/>
  <text class="cls-4" transform="translate(45.75 27.4)"><tspan class="cls-2" x="0" y="0">LV</tspan><tspan class="cls-6" x="29.43" y="0">8</tspan></text>
  <polygon class="cls-5" points="76.98 34.91 62.98 4.21 57.98 4.21 71.98 34.91 76.98 34.91"/>
  <polygon class="cls-3" points="86.13 34.91 72.13 4.21 67.13 4.21 81.13 34.91 86.13 34.91"/>
  <g>
    <path class="cls-8" d="M20.49,0C9.46,0,.83,14.53,0,26.8c3.46,6.22,11.81,8.59,20.49,8.59s17.03-2.34,20.48-8.59C40.16,14.53,31.52,0,20.49,0Z"/>
    <path class="cls-9" d="M33.26,15.26c-2.42-3.24-5.51-6.67-7.3-6.67s-6.79,9.17-9.12,9.17-3.49-4.17-6.31-4.16c-3.85,0-7.61,11.72-7.61,11.72,0,0,1.56,7.15,17.86,7.15s17.61-7.03,17.61-7.03c-1.18-3.65-2.91-7.09-5.13-10.19Z"/>
    <path d="M11.75,24.35c0-.42,.12-.84,.35-1.19,.23-.35,.55-.63,.93-.79,.38-.16,.79-.2,1.19-.12,.4,.08,.77,.29,1.06,.59,.29,.3,.49,.68,.57,1.09,.08,.41,.04,.84-.12,1.24-.16,.39-.42,.72-.76,.96-.34,.23-.74,.36-1.15,.36-.55,0-1.07-.23-1.46-.63-.39-.4-.6-.94-.6-1.51Zm13.34,0c0,.42,.12,.84,.35,1.19s.55,.63,.93,.79c.38,.16,.79,.2,1.19,.12s.77-.29,1.06-.59c.29-.3,.49-.68,.57-1.09,.08-.41,.04-.84-.12-1.24-.16-.39-.42-.72-.76-.96-.34-.23-.74-.36-1.15-.36-.27,0-.54,.06-.79,.16-.25,.11-.48,.27-.67,.46-.19,.2-.34,.43-.45,.69-.1,.26-.16,.54-.16,.82Zm-.37,3.13c.06-.15,.07-.32,.01-.48-.05-.16-.16-.28-.3-.36-.14-.08-.31-.1-.46-.05-.15,.04-.29,.14-.37,.28-.33,.53-.78,.95-1.32,1.24-.54,.28-1.14,.41-1.74,.38-.62,.01-1.23-.13-1.79-.42-.55-.29-1.03-.71-1.39-1.23-.09-.13-.23-.23-.39-.26-.16-.03-.32,0-.46,.08-.14,.09-.24,.22-.28,.38s-.03,.33,.04,.48c.47,.71,1.11,1.3,1.85,1.69s1.57,.6,2.41,.58c.83,.04,1.66-.16,2.4-.56,.74-.41,1.35-1.01,1.79-1.75Z"/>
    <path class="cls-7" d="M17.13,21.69c-2.53,0-3.83-2.58-4.54-4.18-.63-1.43-.75-3.71-2.54-3.77,.16-.07,.33-.11,.51-.11,2.82,0,4.01,4.16,6.31,4.16s7.31-9.2,9.09-9.2c.4,.02,.78,.14,1.13,.34-.18-.03-.36-.03-.53,.03-.17,.05-.33,.15-.46,.27-.57,.61-5.83,12.46-8.97,12.46Z"/>
  </g>
</svg>