<svg t="1741150116560" class="icon" viewBox="0 0 1024 1024" version="1.1" xmlns="http://www.w3.org/2000/svg" p-id="18568" width="200" height="200"><path d="M512 231.575273a729.774545 729.774545 0 0 1-109.882182 55.924363 482.059636 482.059636 0 0 1-126.417454 31.115637v239.848727c0 115.397818 167.773091 247.330909 236.299636 247.330909S748.299636 673.861818 748.299636 558.464V318.615273a476.555636 476.555636 0 0 1-126.033454-31.115637A719.127273 719.127273 0 0 1 512 231.575273z m176.046545 218.577454L496.244364 669.521455l-125.672728-105.89091 39.389091-45.288727L488.727273 586.426182l152.808727-175.255273z" fill="#4E8CEE" p-id="18569"></path><path d="M512 0a512 512 0 1 0 512 512A512 512 0 0 0 512 0z m0 866.443636c-103.563636 0-296.168727-157.533091-296.168727-306.804363V261.504h29.533091a415.499636 415.499636 0 0 0 134.295272-29.090909 584.448 584.448 0 0 0 114.606546-60.648727L512 157.533091l17.722182 12.602182a581.306182 581.306182 0 0 0 114.932363 62.231272 415.895273 415.895273 0 0 0 133.899637 28.753455h29.533091v296.948364C808.157091 708.910545 615.563636 866.443636 512 866.443636z" fill="#B4D1FF" p-id="18570"></path></svg>
