<svg t="1733458566173" class="icon" viewBox="0 0 1024 1024" version="1.1" xmlns="http://www.w3.org/2000/svg" p-id="4134" width="200" height="200"><path d="M223.470638 1019.951609c0-106.197391 61.628655-192.298569 137.645291-192.298569s137.645291 86.101178 137.645292 192.298569" fill="#DDDDDD" p-id="4135"></path><path d="M654.523062 679.040658c-123.05489 0-223.16755-127.455491-223.16755-284.12822 0-74.704958 22.893651-166.291706 59.750202-239.012952 44.710429-88.222535 102.744113-136.811323 163.417348-136.811323 223.175646 0 223.175646 263.364023 223.175646 375.824275-0.004048 156.66868-100.116708 284.12822-223.175646 284.12822z m0-599.226631c-80.583221 0-162.441686 183.327335-162.441686 315.098411 0 123.184439 72.871037 223.402356 162.441686 223.402356 89.574698 0 162.449783-100.217917 162.449782-223.402356 0-71.292164-3.092971-152.563612-26.01496-214.791429-25.217427-68.434-68.567597-100.306982-136.434822-100.306982z" fill="#666666" p-id="4136"></path><path d="M59.211225 666.255839s20.776342-13.145125 45.649656-7.023958c12.408318 3.056535 28.735479-16.942516 42.629556-13.50948l83.234918 20.573922c7.967233-94.748541 30.488432-183.060141 62.114462-269.436609 0 0-41.617459-10.29101-83.234918-20.569875-13.885981-3.437084-27.771962-6.866071-40.131699-9.914509-14.861643-8.635218-30.371029-3.906697-44.763058-12.558109-25.978525 84.477773-68.899565 160.490361-65.498917 312.438618 0.170032 7.517862 0 0 0 0z" fill="#DDDDDD" p-id="4137"></path><path d="M106.545011 346.724441c-33.018676 70.688954-0.635597 152.268079 72.312359 182.209978 72.956053 29.941899 108.051554-23.938136 141.066182-94.635186 33.018676-70.688954 51.446952-131.410769-21.509101-161.352669-72.952004-29.949996-158.854811 3.088922-191.86944 73.777877z" fill="#81C5E8" p-id="4138"></path><path d="M151.595506 429.518083c54.131035 18.076065 152.284273-2.153744 196.083814-112.933913 10.930655 31.617933-4.177939 72.749585-25.298395 117.97416-33.014628 70.688954-68.10608 124.573037-141.066182 94.639235-61.733913-25.342927-94.396331-87.659809-82.983917-149.065803 6.275006 22.007053 22.699328 39.180327 53.26468 49.386321z" fill="#69A0BD" p-id="4139"></path><path d="M47.564004 715.638112c1.874405 84.291547 67.130418 150.195303 145.738025 147.175203s97.958915-72.15852 96.08451-156.454115c-1.882502-84.299644-22.464521-70.656567-101.072128-67.636467-78.615703 3.003906-142.632909-7.400459-140.750407 76.915379z" fill="#81C5E8" p-id="4140"></path><path d="M132.402084 640.168008a141.734166 141.734166 0 0 0-0.170032 10.448897c1.874405 84.275354 67.12637 150.183158 145.742073 147.167107 0.259097-0.008097 0.510097-0.032387 0.773243-0.044532-12.80506 37.977955-38.597359 63.272302-85.449387 65.065739C114.694422 865.829367 49.438409 799.929659 47.564004 715.638112c-1.40884-63.033447 34.018629-73.122037 84.83808-75.470104z" fill="#69A0BD" p-id="4141"></path><path d="M737.616285 853.538452c-164.591381 48.576643-329.194908 48.576643-493.790337 0-52.669566-151.794418-52.669566-303.592884 0-455.387302 164.59543-48.576643 329.198956-48.576643 493.790337 0 52.677663 151.794418 52.677663 303.592884 0 455.387302z" fill="#527E94" p-id="4142"></path><path d="M760.32371 787.865454c-186.323144 57.932474-372.662481 57.932474-558.993722 0-59.62875-181.003558-59.62875-362.015213 0-543.022819 186.331241-57.924377 372.66653-57.924377 558.993722 0 59.62875 181.007607 59.62875 362.019261 0 543.022819z" fill="#69A0BD" p-id="4143"></path><path d="M652.56364 536.156749c0 147.871527-81.728916 232.385736-253.58311 232.385735-197.646493 0-218.216368-119.876904-218.216368-267.74843 0-147.871527 97.699818-267.74843 218.216368-267.748431s253.583111 155.239598 253.58311 303.111126z" fill="#81C5E8" p-id="4144"></path><path d="M755.975738 283.703139c-25.743718-154.288226-176.651538-257.667937-337.044738-230.899976-160.397248 26.759864-269.554013 173.534277-243.810295 327.822503 0 0 49.99358 93.975298 281.444137 55.353649 275.962616-46.050447 299.410896-152.276176 299.410896-152.276176z" opacity=".22" p-id="4145"></path><path d="M760.024129 235.122448c-25.743718-154.288226-176.651538-257.667937-337.044738-230.899976-160.397248 26.759864-269.554013 173.534277-243.810295 327.822503 0 0 49.99358 93.975298 281.444137 55.353649 275.962616-46.050447 299.410896-152.276176 299.410896-152.276176z" fill="#FFCC66" p-id="4146"></path><path d="M549.928834 9.869977c48.40661 37.694568 77.688622 86.566743 77.688622 140.0136 0 119.176532-145.288653 215.79543-324.51092 215.79543-36.018534 0-70.628228-3.963375-103.00321-11.169511 31.630078 25.039298 105.233874 58.794781 260.50181 32.889128 275.966664-46.050447 299.410896-152.272128 299.410896-152.272128-18.703566-112.140429-103.553791-197.32667-210.087198-225.256519z" fill="#D59758" opacity=".43" p-id="4147"></path><path d="M963.269547 675.559042s-23.812635-14.056013-52.438808-7.198039c-14.26653 3.424939-32.945805-18.096307-48.928852-14.254385l-95.78493 23.027248c-8.671653-102.553839-34.099597-197.994655-70.008824-291.261485l95.788978-23.019151 46.175947-11.09664c17.128742-9.481332 34.933565-4.501811 51.523871-13.991239 29.427754 91.250731 78.3728 173.190164 73.672618 337.793691-0.230758 8.141314 0 0 0 0z" fill="#DDDDDD" p-id="4148"></path><path d="M910.523062 329.907425c37.585261 76.267637-0.060726 164.907156-84.081031 197.990606-84.020305 33.071305-124.079133-24.978572-161.668444-101.246208-37.581213-76.267637-58.454717-141.871811 25.561541-174.951214 84.020305-33.075354 182.602673 1.939179 220.187934 78.206816z" fill="#81C5E8" p-id="4149"></path><path d="M810.71808 276.598213c26.917751 12.918415 41.164039 39.139843 31.848692 58.551878-9.327493 19.412034-32.196853 11.149269-59.122701-1.773195-26.905606-12.926512-47.661706-25.622266-38.334214-45.038349 9.327493-19.407986 38.702617-24.670894 65.608223-11.740334z" fill="#FFFFFF" opacity=".63" p-id="4150"></path><path d="M858.298819 419.984123c-62.32093 20.055729-175.032182-0.979711-224.807148-120.577276-12.728141 34.334403 4.424891 78.757397 28.468285 127.544556 37.581213 76.267637 77.64409 134.321562 161.672491 101.246209 71.089745-27.994623 108.962442-95.780881 96.16143-162.182589-7.331636 23.893603-26.302396 42.637653-61.495058 53.9691z" fill="#69A0BD" p-id="4151"></path><path d="M976.406575 728.945173c-2.603115 91.311457-77.947719 163.255412-168.29161 160.680635s-112.233542-77.279734-109.638523-168.595239c2.603115-91.327651 26.189041-76.729153 116.536981-74.150329 90.34794 2.562631 163.988171-9.274864 161.393152 82.064933z" fill="#81C5E8" p-id="4152"></path><path d="M879.273532 647.957112c0.170032 3.611165 0.255049 7.323539 0.137645 11.315253-2.595019 91.30336-77.939622 163.251364-168.295659 160.684684-0.295533-0.004048-0.591065-0.032387-0.890646-0.044532 14.525627 41.022345 44.038396 68.187048 97.890093 69.713291 90.343892 2.574777 165.70064-69.377275 168.29161-160.680635 1.939179-68.292306-38.730956-78.890994-97.133043-80.988061z" fill="#69A0BD" p-id="4153"></path><path d="M292.062526 149.320851h60.725863v97.691721h-60.725863zM423.412569 149.320851h60.725864v97.691721h-60.725864z" opacity=".33" p-id="4154"></path><path d="M490.664439 1024c0-106.197391 61.628655-192.298569 137.645291-192.298569s137.645291 86.101178 137.645292 192.298569" fill="#DDDDDD" p-id="4155"></path></svg>
