<svg t="1733286825999" class="icon" viewBox="0 0 1024 1024" version="1.1" xmlns="http://www.w3.org/2000/svg" p-id="27851" width="200" height="200"><path d="M349.658537 187.317073C435.874341 187.317073 505.756098 257.198829 505.756098 343.414634V499.512195H349.658537C263.442732 499.512195 193.560976 429.630439 193.560976 343.414634S263.442732 187.317073 349.658537 187.317073z" fill="#5B7DFE" p-id="27852"></path><path d="M673.442341 187.317073c86.203317 0 156.097561 69.881756 156.097561 156.097561S759.633171 499.512195 673.442341 499.512195h-156.097561V343.414634c0-86.215805 69.881756-156.097561 156.097561-156.097561z" fill="#FFB154" p-id="27853"></path><path d="M517.34478 510.763707h156.097561c86.203317 0 156.097561 69.894244 156.097561 156.097561 0 86.215805-69.894244 156.097561-156.097561 156.097561-86.215805 0-156.097561-69.881756-156.097561-156.097561v-156.097561z" fill="#00D5AC" p-id="27854"></path><path d="M349.658537 510.763707H505.756098v156.097561c0 86.215805-69.881756 156.097561-156.097561 156.097561S193.560976 753.077073 193.560976 666.861268c0-86.203317 69.881756-156.097561 156.097561-156.097561z" fill="#FF607C" p-id="27855"></path></svg>
