<svg t="1733416434686" class="icon" viewBox="0 0 1024 1024" version="1.1" xmlns="http://www.w3.org/2000/svg" p-id="29741" width="200" height="200"><path d="M512.009309 1023.999069a508.59241 508.59241 0 0 1-199.214364-40.233854 510.137718 510.137718 0 0 1-162.759998-109.735464 510.137718 510.137718 0 0 1-109.716845-162.741379 509.076483 509.076483 0 0 1-40.233855-199.214365 509.076483 509.076483 0 0 1 40.233855-199.214364 509.988773 509.988773 0 0 1 109.716845-162.741379A510.137718 510.137718 0 0 1 312.794945 40.3828 508.59241 508.59241 0 0 1 512.009309 0.148945a508.815828 508.815828 0 0 1 199.214364 40.233855 510.137718 510.137718 0 0 1 162.759998 109.735464 509.988773 509.988773 0 0 1 109.716846 162.741379 509.076483 509.076483 0 0 1 40.233854 199.214364 509.076483 509.076483 0 0 1-40.233854 199.214365 510.137718 510.137718 0 0 1-109.716846 162.741379 510.137718 510.137718 0 0 1-162.759998 109.735464A508.815828 508.815828 0 0 1 512.009309 1023.999069z m5.734395-814.99155a285.826067 285.826067 0 0 0-210.2177 85.643559 290.201336 290.201336 0 0 0-84.936068 211.893334 293.906351 293.906351 0 0 0 81.919925 214.872241 285.677122 285.677122 0 0 0 211.520972 82.999779 541.658271 541.658271 0 0 0 119.156255-12.008716v-42.821779a453.631588 453.631588 0 0 1-118.876983 14.70835 278.955965 278.955965 0 0 1-101.692416-17.705875 225.577686 225.577686 0 0 1-80.05811-53.099006 256.409367 256.409367 0 0 1-69.129246-186.330594 275.25095 275.25095 0 0 1 17.966529-100.817363 247.826393 247.826393 0 0 1 53.825115-82.683271 239.094474 239.094474 0 0 1 81.06349-55.240095 262.832634 262.832634 0 0 1 99.6258-18.413365 280.873636 280.873636 0 0 1 100.631182 16.961148 204.53916 204.53916 0 0 1 76.18553 50.864827c42.41218 44.962868 63.934778 107.315102 63.934779 185.343831a275.04615 275.04615 0 0 1-30.366227 136.545622h-85.829741V348.569283h-49.058864v19.027765a194.168842 194.168842 0 0 0-90.205009-25.078668 130.196827 130.196827 0 0 0-101.692417 46.936393 180.130745 180.130745 0 0 0-40.959962 122.35858 192.977279 192.977279 0 0 0 34.071241 120.887745 110.703608 110.703608 0 0 0 91.843408 43.771305 167.861375 167.861375 0 0 0 106.216631-46.433703l10.333081 43.734069h143.601906a296.196385 296.196385 0 0 0 53.750642-172.646243c0-88.641083-25.618595-160.265163-76.129676-212.880097s-119.826509-79.23891-206.512685-79.23891z m-17.333512 419.765146a75.589749 75.589749 0 0 1-64.884304-29.472555 149.727282 149.727282 0 0 1-21.61569-88.417665 140.771945 140.771945 0 0 1 26.195758-90.838027 89.497519 89.497519 0 0 1 72.983207-32.041862 193.628915 193.628915 0 0 1 79.834691 20.033146v183.351688a157.528293 157.528293 0 0 1-92.53228 37.366657z" fill="#48B596" p-id="29742"></path></svg>
