<svg t="1741685780511" class="icon" viewBox="0 0 1024 1024" version="1.1" xmlns="http://www.w3.org/2000/svg" p-id="7068" width="200" height="200"><path d="M434.56512 170.61888v682.496h-85.504v-682.496z" fill="#EEEEEE" p-id="7069"></path><path d="M519.81824 170.86976v682.496h-85.504v-682.496z" fill="#DDDDDD" p-id="7070"></path><path d="M605.07136 170.60864v682.496h-85.504v-682.496z" fill="#999999" p-id="7071"></path><path d="M690.32448 170.85952v682.496h-85.504v-682.496z" fill="#777777" p-id="7072"></path><path d="M775.68 295.936c-24.064-29.184-52.736-54.272-85.504-74.24v581.12c32.256-19.968 61.44-45.056 85.504-74.24V295.936z" fill="#555555" p-id="7073"></path><path d="M775.68 295.936v432.64c48.64-58.88 77.824-134.144 77.824-216.064s-29.184-157.696-77.824-216.576z" fill="#444444" p-id="7074"></path><path d="M512 85.504c-234.496 0-426.496 192-426.496 426.496s192 426.496 426.496 426.496 426.496-192 426.496-426.496-192-426.496-426.496-426.496z m0 768c-187.904 0-341.504-153.6-341.504-341.504s153.6-341.504 341.504-341.504 341.504 153.6 341.504 341.504-153.6 341.504-341.504 341.504z" fill="#333333" p-id="7075"></path></svg>
