<svg t="1733459147421" class="icon" viewBox="0 0 1024 1024" version="1.1" xmlns="http://www.w3.org/2000/svg" p-id="21619" width="200" height="200"><path d="M742.56 674.816l148.8 63.776a32 32 0 0 1 0 58.816l-328.96 140.992a128 128 0 0 1-100.8 0l-328.96-140.992a32 32 0 0 1 0-58.816l148.8-63.776 154.912 66.4a192 192 0 0 0 142.72 3.424l8.576-3.424 154.912-66.4z" fill="#3796FB" p-id="21620"></path><path d="M742.56 418.816l148.8 63.776a32 32 0 0 1 0 58.816l-328.96 140.992a128 128 0 0 1-100.8 0l-328.96-140.992a32 32 0 0 1 0-58.816l148.8-63.776 154.912 66.4a192 192 0 0 0 142.72 3.424l8.576-3.424 154.912-66.4z" fill="#11D6AF" p-id="21621"></path><path d="M461.568 85.6L132.608 226.592a32 32 0 0 0 0 58.816l328.96 140.992a128 128 0 0 0 100.864 0l328.96-140.992a32 32 0 0 0 0-58.816l-328.96-140.992a128 128 0 0 0-100.864 0z" fill="#3796FB" p-id="21622"></path></svg>
