<svg t="1742574097238" class="icon" viewBox="0 0 1024 1024" version="1.1" xmlns="http://www.w3.org/2000/svg" p-id="7182" width="200" height="200"><path d="M0 256v708.266667C0 996.266667 27.733333 1024 59.733333 1024h902.4c34.133333 0 59.733333-27.733333 59.733334-59.733333V256H0z" fill="#F3F3F3" p-id="7183"></path><path d="M0 59.733333V256h1024V59.733333C1024 27.733333 996.266667 0 964.266667 0H59.733333C27.733333 0 0 27.733333 0 59.733333z" fill="#8AD7F8" p-id="7184"></path><path d="M484.266667 128m-49.066667 0a49.066667 49.066667 0 1 0 98.133333 0 49.066667 49.066667 0 1 0-98.133333 0Z" fill="#FFFFFF" p-id="7185"></path><path d="M307.2 128m-49.066667 0a49.066667 49.066667 0 1 0 98.133334 0 49.066667 49.066667 0 1 0-98.133334 0Z" fill="#F3705A" p-id="7186"></path><path d="M132.266667 128m-49.066667 0a49.066667 49.066667 0 1 0 98.133333 0 49.066667 49.066667 0 1 0-98.133333 0Z" fill="#415A6B" p-id="7187"></path><path d="M836.266667 601.6H187.733333c-40.533333 0-72.533333-32-72.533333-72.533333s32-72.533333 72.533333-72.533334h646.4c40.533333 0 72.533333 32 72.533334 72.533334s-32 72.533333-70.4 72.533333z" fill="#415A6B" p-id="7188"></path><path d="M642.133333 601.6H187.733333c-40.533333 0-72.533333-32-72.533333-72.533333s32-72.533333 72.533333-72.533334h454.4c40.533333 0 72.533333 32 72.533334 72.533334s-32 72.533333-72.533334 72.533333z" fill="#FFD15C" p-id="7189"></path><path d="M185.6 819.2v-98.133333h21.333333v78.933333h42.666667v19.2h-64zM345.6 804.266667c-10.666667 10.666667-21.333333 14.933333-36.266667 14.933333s-27.733333-4.266667-36.266666-14.933333c-10.666667-10.666667-14.933333-21.333333-14.933334-36.266667s4.266667-25.6 14.933334-36.266667c10.666667-10.666667 21.333333-14.933333 36.266666-14.933333s27.733333 4.266667 36.266667 14.933333c10.666667 10.666667 14.933333 21.333333 14.933333 36.266667s-4.266667 27.733333-14.933333 36.266667z m-6.4-36.266667c0-8.533333-2.133333-17.066667-8.533333-23.466667-6.4-6.4-12.8-8.533333-21.333334-8.533333s-14.933333 2.133333-21.333333 8.533333c-6.4 6.4-8.533333 12.8-8.533333 23.466667 0 8.533333 2.133333 17.066667 8.533333 23.466667 6.4 6.4 12.8 8.533333 21.333333 8.533333s14.933333-2.133333 21.333334-8.533333c4.266667-6.4 8.533333-12.8 8.533333-23.466667zM448 819.2l-8.533333-21.333333h-40.533334l-8.533333 21.333333h-23.466667l42.666667-98.133333h21.333333l42.666667 98.133333H448z m-29.866667-70.4l-12.8 29.866667h25.6l-12.8-29.866667zM556.8 733.866667c8.533333 8.533333 14.933333 21.333333 14.933333 36.266666s-4.266667 27.733333-12.8 36.266667c-8.533333 8.533333-23.466667 12.8-42.666666 12.8h-34.133334v-98.133333h34.133334c19.2 0 32 4.266667 40.533333 12.8z m-14.933333 57.6c6.4-4.266667 8.533333-12.8 8.533333-21.333334 0-10.666667-2.133333-17.066667-8.533333-21.333333-6.4-4.266667-12.8-8.533333-25.6-8.533333h-12.8v59.733333h14.933333c10.666667 0 17.066667-4.266667 23.466667-8.533333zM590.933333 721.066667h21.333334v98.133333h-21.333334v-98.133333zM706.133333 721.066667h21.333334v98.133333h-21.333334l-46.933333-61.866667v61.866667h-21.333333v-98.133333h21.333333l49.066667 64v-64zM817.066667 768h21.333333v34.133333c-10.666667 10.666667-23.466667 17.066667-40.533333 17.066667-14.933333 0-27.733333-4.266667-36.266667-14.933333-10.666667-10.666667-14.933333-21.333333-14.933333-36.266667s4.266667-27.733333 14.933333-36.266667c10.666667-10.666667 21.333333-14.933333 36.266667-14.933333s25.6 4.266667 36.266666 14.933333l-10.666666 17.066667c-4.266667-4.266667-8.533333-6.4-12.8-8.533333-4.266667-2.133333-8.533333-2.133333-12.8-2.133334-8.533333 0-14.933333 2.133333-21.333334 8.533334-6.4 6.4-8.533333 12.8-8.533333 23.466666s2.133333 17.066667 8.533333 21.333334c6.4 6.4 12.8 8.533333 19.2 8.533333 8.533333 0 14.933333-2.133333 19.2-4.266667V768z" fill="#F3705A" p-id="7190"></path></svg>
