<svg t="1733418592324" class="icon" viewBox="0 0 1024 1024" version="1.1" xmlns="http://www.w3.org/2000/svg" p-id="58999" width="200" height="200"><path d="M510.577931 0.04352a37.944035 37.944035 0 0 1 32.271118 18.964337 38.571231 38.571231 0 0 1 0 37.928676 317.39154 317.39154 0 0 0 277.128161 473.102372 311.462624 311.462624 0 0 0 148.01553-36.963563 38.65571 38.65571 0 0 1 37.959396 0.931833 39.730902 39.730902 0 0 1 18.032504 33.202951c-3.793892 133.679637-58.820679 257.877106-154.66892 351.741362a505.852206 505.852206 0 0 1-356.843403 145.040832c-282.788279 0-512.456957-229.422919-512.456957-511.95264C0.01536 230.439232 228.718925 0.975353 510.577931 0z m417.33575 267.167276a20.072809 20.072809 0 0 1 20.249448 19.798891c0 29.634338 25.264451 54.384232 55.605343 54.384233a19.773292 19.773292 0 1 1 0 39.536343c-30.343452 0-55.605343 24.749894-55.605343 54.384232a20.254568 20.254568 0 0 1-40.498896 0c0-29.667617-25.264451-54.384232-55.605343-54.384232a19.773292 19.773292 0 1 1 0.03328-39.536343l1.927665-0.064h0.995833c29.025062-1.535988 52.681845-25.617728 52.681844-54.320233a20.072809 20.072809 0 0 1 20.249449-19.798891h-0.03328zM736.570476 0.04352a19.773292 19.773292 0 0 1 19.734892 19.711852 127.95808 127.95808 0 0 0 128.216638 128.255038 19.719532 19.719532 0 1 1 0 39.439064 127.95808 127.95808 0 0 0-128.216638 128.196159 19.734892 19.734892 0 0 1-39.469784 0 127.95808 127.95808 0 0 0-128.183359-128.255038 19.798892 19.798892 0 0 1-19.199856-15.103887 19.768172 19.768172 0 0 1 19.199856-24.319818A127.95808 127.95808 0 0 0 716.835584 19.745132a19.793772 19.793772 0 0 1 19.734892-19.711852z" fill="#222222" p-id="59000"></path></svg>
