<svg t="1740650615689" class="icon" viewBox="0 0 1024 1024" version="1.1" xmlns="http://www.w3.org/2000/svg" p-id="7146" width="200" height="200"><path d="M723.2 188.8a106.88 106.88 0 1 0 213.76 0 106.88 106.88 0 1 0-213.76 0z" fill="#08979C" opacity=".3" p-id="7147"></path><path d="M857.267 361.62a151.199 151.199 0 0 1-60.938 12.816c-83.881 0-151.88-67.999-151.88-151.88 0-21.688 4.624-42.276 12.816-60.938-6.093-0.517-12.217-0.937-18.437-0.937H301.307C180.644 160.676 81.92 259.395 81.92 380.058v337.515c0 120.663 98.724 219.387 219.387 219.387h337.515c120.663 0 219.387-98.724 219.387-219.387V380.058c-0.005-6.221-0.425-12.345-0.942-18.438zM703.32 460.908l-135.004 168.76a39.357 39.357 0 0 1-55.957 5.647l-104.146-86.784-109.91 137.39a39.286 39.286 0 0 1-30.777 14.777 39.24 39.24 0 0 1-24.57-8.622 39.388 39.388 0 0 1-6.15-55.353l135.01-168.76a39.404 39.404 0 0 1 26.792-14.582 39.552 39.552 0 0 1 29.164 8.935L531.917 549.1l109.91-137.39c13.58-16.973 38.355-19.723 55.348-6.155a39.388 39.388 0 0 1 6.144 55.353z" fill="#08979C" p-id="7148"></path></svg>
