<?xml version="1.0" standalone="no"?><!DOCTYPE svg PUBLIC "-//W3C//DTD SVG 1.1//EN" "http://www.w3.org/Graphics/SVG/1.1/DTD/svg11.dtd"><svg height="1024" node-id="1" sillyvg="true" template-height="1024" template-width="1024" version="1.1" viewBox="0 0 1024 1024" width="1024" xmlns="http://www.w3.org/2000/svg" xmlns:xlink="http://www.w3.org/1999/xlink"><defs node-id="82"></defs><path d="M 382.00 301.20 L 381.90 304.60 L 381.30 307.80 L 380.30 311.00 L 378.40 314.70 L 376.70 315.40 L 375.80 315.10 L 374.40 314.00 L 374.10 313.00 L 373.90 302.00 L 374.00 300.70 L 374.50 299.60 L 375.40 298.70 L 376.50 298.20 L 379.40 297.90 L 380.40 298.30 L 381.30 299.00 L 382.00 301.20 Z" fill="#fee09c" fill-rule="nonzero" node-id="86" stroke="none" target-height="17.5" target-width="8.100006" target-x="373.9" target-y="297.9"></path><path d="M 360.20 299.00 L 362.20 299.30 L 363.40 300.10 L 364.20 301.30 L 364.50 302.80 L 364.50 311.20 L 364.20 312.70 L 363.40 313.90 L 362.20 314.70 L 360.20 315.00 L 358.70 314.70 L 357.50 313.90 L 356.70 312.70 L 356.40 311.20 L 356.40 302.80 L 356.60 301.30 L 357.40 300.10 L 358.60 299.30 L 360.20 299.00 Z" fill="#fee09c" fill-rule="nonzero" node-id="88" stroke="none" target-height="16" target-width="8.100006" target-x="356.4" target-y="299"></path><path d="M 324.00 305.50 L 325.40 305.00 L 327.60 305.20 L 329.40 306.50 L 330.00 307.50 L 337.00 323.60 L 336.80 325.80 L 335.50 327.60 L 334.30 328.40 L 332.00 328.80 L 330.00 328.00 L 328.50 326.20 L 321.80 311.30 L 321.50 309.60 L 321.70 308.00 L 322.60 306.60 L 324.00 305.50 Z" fill="#f4c5a9" fill-rule="nonzero" node-id="90" stroke="none" target-height="23.799988" target-width="15.5" target-x="321.5" target-y="305"></path><path d="M 684.20 447.80 L 680.20 439.80 L 677.00 431.30 L 674.80 428.50 L 673.30 427.50 L 671.60 426.80 L 669.40 426.50 L 666.30 426.70 L 662.00 427.30 L 657.80 428.30 L 642.30 433.30 L 636.30 434.60 L 635.90 433.60 L 636.10 432.90 L 628.90 395.50 L 629.20 393.60 L 628.60 390.90 L 626.70 389.00 L 624.10 388.20 L 615.50 390.70 L 614.80 381.80 L 614.40 380.60 L 613.70 379.80 L 612.60 379.20 L 604.00 380.00 L 599.30 380.00 L 586.20 387.40 L 584.60 388.00 L 583.30 387.90 L 582.30 387.40 L 580.90 385.30 L 576.10 383.10 L 572.00 381.80 L 567.80 380.90 L 562.50 380.30 L 561.80 379.80 L 561.10 378.10 L 562.20 375.10 L 563.40 372.90 L 566.40 369.00 L 566.90 367.80 L 566.90 367.00 L 566.30 366.50 L 565.00 366.20 L 562.50 366.30 L 560.40 367.20 L 558.40 368.70 L 553.90 374.30 L 549.90 377.70 L 545.20 379.80 L 541.60 380.80 L 537.10 383.40 L 534.10 384.80 L 531.30 385.50 L 528.70 385.80 L 526.10 385.50 L 523.60 384.80 L 521.10 383.50 L 518.60 381.60 L 509.00 370.90 L 505.70 368.10 L 503.20 367.60 L 498.40 368.70 L 495.40 368.90 L 492.80 368.60 L 490.50 367.80 L 488.50 366.50 L 488.40 359.80 L 489.60 353.00 L 491.90 346.60 L 498.00 335.80 L 501.90 330.20 L 506.20 324.80 L 509.40 321.50 L 516.20 315.90 L 519.90 313.80 L 523.60 312.30 L 527.40 311.40 L 529.00 311.40 L 530.50 311.80 L 531.90 312.70 L 533.80 314.60 L 535.50 317.10 L 538.30 322.90 L 540.00 328.60 L 540.50 331.10 L 540.80 337.00 L 541.60 342.00 L 542.50 342.30 L 548.60 341.50 L 560.90 340.90 L 573.20 341.60 L 580.60 342.90 L 582.50 344.60 L 583.40 347.00 L 583.20 349.10 L 582.00 352.10 L 581.50 354.60 L 581.40 357.10 L 581.70 358.10 L 582.60 359.00 L 599.60 370.00 L 600.50 370.40 L 602.40 370.00 L 603.20 369.30 L 603.70 368.30 L 604.60 363.40 L 606.00 358.00 L 607.80 352.60 L 610.20 347.30 L 614.20 340.80 L 619.00 335.20 L 621.80 333.00 L 624.80 331.20 L 627.10 330.30 L 629.10 330.10 L 630.90 330.50 L 632.50 331.30 L 633.90 332.70 L 635.30 334.60 L 644.40 351.70 L 645.10 352.20 L 646.80 352.30 L 652.00 350.70 L 656.10 350.00 L 658.70 350.10 L 661.00 350.60 L 663.20 351.80 L 665.10 353.30 L 667.10 355.80 L 669.30 359.30 L 673.60 367.70 L 677.50 376.70 L 678.00 377.20 L 679.40 377.30 L 690.60 375.70 L 694.10 375.60 L 697.20 375.80 L 701.90 377.20 L 705.30 379.70 L 707.70 383.40 L 709.20 389.10 L 709.80 394.20 L 710.80 395.80 L 712.10 396.50 L 713.70 396.70 L 721.60 396.60 L 728.20 397.20 L 731.10 398.00 L 734.20 399.80 L 735.20 401.00 L 735.80 402.40 L 735.80 404.20 L 735.30 406.50 L 733.40 411.10 L 731.20 415.50 L 728.50 419.70 L 725.60 423.60 L 722.30 427.20 L 718.70 430.60 L 714.80 433.70 L 710.70 436.50 L 706.30 438.90 L 695.30 444.00 L 684.20 447.80 Z M 536.10 360.60 L 535.40 361.80 L 533.50 370.90 L 533.80 372.30 L 534.90 373.10 L 536.10 372.90 L 547.50 366.60 L 547.80 365.20 L 547.50 364.30 L 540.50 357.80 L 539.90 357.70 L 538.70 358.00 L 536.10 360.60 Z M 655.00 396.80 L 651.90 397.40 L 650.80 398.30 L 650.10 399.40 L 649.30 404.90 L 648.10 408.80 L 646.50 412.60 L 643.20 418.10 L 638.40 428.30 L 638.20 429.20 L 638.40 429.60 L 640.00 429.70 L 642.70 428.70 L 644.60 426.50 L 646.20 420.90 L 652.40 409.20 L 656.80 398.70 L 657.10 397.70 L 656.90 397.20 L 656.40 396.90 L 655.00 396.80 Z M 696.20 411.20 L 692.70 413.40 L 689.00 415.10 L 685.10 416.40 L 680.30 417.50 L 679.30 418.70 L 679.20 419.60 L 679.40 421.40 L 679.70 421.60 L 686.40 419.50 L 692.50 418.80 L 695.20 417.90 L 696.50 416.80 L 697.40 415.50 L 698.30 412.40 L 697.60 411.10 L 696.20 411.20 Z" fill="#fedc64" fill-rule="nonzero" node-id="92" stroke="none" target-height="136.4" target-width="247.4" target-x="488.4" target-y="311.4"></path><path d="M 316.50 336.20 L 313.10 334.70 L 310.10 332.80 L 307.30 330.50 L 305.00 327.70 L 303.10 324.60 L 301.60 321.10 L 301.10 318.40 L 302.00 315.90 L 304.00 314.10 L 305.80 313.40 L 307.20 313.50 L 308.40 314.00 L 309.70 315.30 L 319.50 335.00 L 319.50 335.80 L 319.00 336.40 L 316.50 336.20 Z" fill="#f4c5a9" fill-rule="nonzero" node-id="94" stroke="none" target-height="23" target-width="18.399994" target-x="301.1" target-y="313.4"></path><path d="M 476.20 364.40 L 473.20 363.40 L 471.50 363.40 L 468.10 364.50 L 466.10 365.80 L 465.20 366.70 L 464.70 367.90 L 464.70 369.20 L 465.10 370.40 L 467.50 372.70 L 468.80 374.60 L 469.70 376.70 L 470.10 379.50 L 469.40 380.40 L 464.90 381.50 L 460.80 383.10 L 456.80 385.00 L 452.90 387.40 L 451.10 387.70 L 447.70 389.00 L 437.90 395.00 L 423.00 405.40 L 420.10 405.40 L 414.60 406.40 L 412.10 407.50 L 409.70 408.90 L 405.80 411.90 L 404.00 412.60 L 402.00 412.80 L 394.20 410.80 L 388.60 408.80 L 383.40 406.10 L 378.40 403.00 L 373.70 399.50 L 369.40 395.50 L 365.40 391.00 L 361.90 386.20 L 357.60 378.50 L 357.00 375.90 L 356.80 373.20 L 357.20 370.60 L 358.10 368.10 L 359.50 365.70 L 361.30 363.60 L 363.10 361.90 L 367.10 359.80 L 371.50 358.80 L 374.90 358.60 L 387.40 359.60 L 391.70 357.10 L 401.10 349.60 L 406.90 346.30 L 409.90 345.10 L 412.90 344.30 L 419.20 343.60 L 428.00 344.00 L 435.20 345.10 L 436.00 344.80 L 441.90 341.10 L 445.00 339.60 L 448.30 338.40 L 451.70 337.60 L 454.90 337.40 L 457.00 337.70 L 458.80 338.40 L 460.50 339.50 L 464.10 343.00 L 467.30 346.80 L 470.20 350.90 L 472.60 355.20 L 474.60 359.70 L 476.20 364.40 Z" fill="#fedc64" fill-rule="nonzero" node-id="96" stroke="none" target-height="75.399994" target-width="119.400024" target-x="356.8" target-y="337.4"></path><path d="M 536.10 360.60 L 539.60 357.80 L 540.90 358.00 L 547.40 364.20 L 547.90 365.50 L 547.40 366.80 L 536.10 373.10 L 535.30 373.30 L 533.90 373.00 L 533.50 372.40 L 533.30 371.20 L 535.20 362.10 L 536.10 360.60 Z" fill="#ffc156" fill-rule="nonzero" node-id="98" stroke="none" target-height="15.5" target-width="14.600037" target-x="533.3" target-y="357.8"></path><path d="M 476.20 364.40 L 479.40 364.10 L 482.60 364.30 L 485.70 364.90 L 488.70 366.10 L 490.60 367.20 L 494.70 368.30 L 499.30 368.10 L 503.40 367.30 L 506.00 367.80 L 509.30 370.50 L 516.80 379.30 L 518.80 381.20 L 521.40 383.20 L 524.00 384.50 L 526.50 385.20 L 529.20 385.40 L 531.80 385.10 L 534.60 384.30 L 537.50 383.00 L 541.70 380.40 L 547.90 378.60 L 550.20 377.40 L 554.10 374.00 L 557.00 370.00 L 559.70 367.30 L 562.70 365.90 L 565.20 365.80 L 566.50 366.10 L 567.10 366.60 L 567.10 367.40 L 566.60 368.60 L 563.60 372.50 L 561.50 377.00 L 561.60 378.80 L 562.90 380.10 L 572.10 381.50 L 576.10 382.80 L 580.80 385.10 L 582.40 387.20 L 583.40 387.70 L 584.60 387.70 L 586.30 387.20 L 599.40 379.80 L 605.90 379.80 L 612.60 378.90 L 613.70 379.40 L 614.50 380.20 L 614.90 381.40 L 615.60 390.80 L 599.80 399.40 L 590.20 404.00 L 583.90 407.50 L 577.20 411.90 L 575.30 412.30 L 574.40 412.80 L 563.40 420.50 L 552.80 428.60 L 551.20 429.40 L 548.20 429.90 L 547.50 433.10 L 543.20 411.50 L 541.90 407.00 L 540.10 402.60 L 539.80 402.20 L 538.90 401.80 L 529.00 404.60 L 519.70 407.60 L 501.30 414.70 L 483.50 423.20 L 478.60 425.90 L 473.90 429.00 L 472.30 429.40 L 471.50 429.10 L 470.90 428.30 L 465.80 414.10 L 458.90 396.90 L 457.10 393.50 L 452.80 387.20 L 456.70 384.80 L 460.70 382.90 L 469.90 379.80 L 470.10 378.80 L 468.70 374.40 L 467.40 372.50 L 465.00 369.90 L 464.60 368.70 L 464.70 367.50 L 466.00 365.60 L 468.30 364.30 L 470.50 363.60 L 472.50 363.40 L 474.40 363.70 L 476.20 364.40 Z" fill="#feaf3a" fill-rule="nonzero" node-id="100" stroke="none" target-height="69.70001" target-width="162.79999" target-x="452.8" target-y="363.4"></path><path d="M 452.70 387.20 L 457.00 393.50 L 458.80 396.90 L 465.70 413.90 L 470.70 428.00 L 471.20 428.80 L 472.60 429.40 L 473.80 429.00 L 478.50 425.90 L 483.40 423.20 L 501.20 414.90 L 519.60 407.80 L 538.30 401.90 L 539.30 402.00 L 540.00 402.60 L 541.80 407.10 L 543.10 411.50 L 547.40 433.10 L 547.90 440.10 L 548.20 441.60 L 548.70 442.10 L 549.20 441.90 L 550.30 440.80 L 556.50 433.40 L 563.50 426.90 L 570.70 421.10 L 578.30 415.80 L 586.10 411.10 L 594.30 406.90 L 602.70 403.20 L 611.30 400.10 L 620.20 397.50 L 629.20 395.50 L 636.40 432.90 L 634.20 437.20 L 633.70 439.40 L 633.00 459.20 L 631.60 467.90 L 630.40 471.60 L 629.30 473.80 L 628.00 475.60 L 626.50 477.00 L 625.80 477.10 L 625.10 476.80 L 622.40 466.50 L 620.60 461.80 L 618.40 457.30 L 615.80 453.00 L 612.90 448.90 L 609.60 445.10 L 606.00 441.50 L 604.50 440.50 L 601.20 439.30 L 601.20 437.10 L 600.40 436.60 L 599.50 436.40 L 593.20 436.50 L 587.20 437.20 L 581.20 438.50 L 575.40 440.40 L 569.80 442.90 L 564.50 446.00 L 561.50 448.80 L 558.60 450.70 L 555.80 452.00 L 553.10 452.60 L 545.60 452.90 L 543.30 454.00 L 540.40 456.20 L 532.00 458.20 L 520.10 458.70 L 508.50 458.70 L 506.50 456.90 L 502.70 457.10 L 499.30 456.90 L 496.00 456.30 L 492.80 455.20 L 489.80 453.80 L 482.60 449.40 L 478.30 448.40 L 474.80 448.50 L 475.50 449.10 L 488.30 453.70 L 491.70 455.40 L 494.90 457.50 L 490.60 456.60 L 486.60 455.40 L 480.80 452.90 L 478.80 452.60 L 476.70 452.70 L 464.50 449.80 L 464.70 451.30 L 469.60 451.80 L 473.90 452.80 L 478.00 454.20 L 484.90 457.50 L 493.70 460.00 L 491.50 459.40 L 487.20 459.30 L 474.50 453.60 L 473.90 453.70 L 473.50 454.20 L 473.70 454.70 L 480.30 457.60 L 487.10 459.30 L 495.90 463.00 L 507.00 466.70 L 508.50 468.00 L 485.30 460.10 L 466.30 451.60 L 464.60 451.20 L 463.00 451.30 L 461.60 452.00 L 458.30 455.40 L 455.70 457.50 L 452.50 459.20 L 448.70 460.60 L 443.60 461.70 L 443.70 460.90 L 445.70 459.30 L 451.90 457.50 L 455.90 455.00 L 457.50 453.40 L 458.60 451.40 L 459.20 449.30 L 459.30 447.10 L 458.30 442.80 L 456.30 440.10 L 454.50 438.70 L 452.50 437.90 L 450.20 437.50 L 447.80 437.40 L 442.90 438.50 L 440.50 439.60 L 436.50 442.50 L 424.80 454.50 L 424.10 454.50 L 423.30 453.60 L 423.30 452.80 L 438.70 433.90 L 429.40 418.30 L 428.30 416.90 L 426.90 415.90 L 425.30 415.20 L 423.60 415.00 L 421.80 415.20 L 419.60 416.10 L 402.80 427.50 L 401.70 429.50 L 401.20 439.10 L 400.00 444.20 L 399.20 443.50 L 398.50 441.60 L 398.60 438.30 L 398.10 436.90 L 396.60 435.70 L 394.70 435.30 L 393.00 435.80 L 382.40 442.20 L 379.60 442.10 L 377.60 442.30 L 377.20 442.60 L 376.90 443.10 L 377.10 444.30 L 383.40 458.60 L 381.20 456.70 L 378.20 452.40 L 376.70 451.40 L 375.30 451.40 L 372.80 454.10 L 371.80 454.30 L 369.10 453.70 L 367.80 453.80 L 365.60 454.50 L 363.70 455.60 L 356.90 461.50 L 351.60 465.40 L 346.00 468.80 L 340.20 471.80 L 338.20 468.20 L 335.70 464.90 L 332.90 461.90 L 328.80 458.40 L 324.40 440.90 L 325.90 430.90 L 327.90 421.10 L 330.30 411.30 L 333.30 401.60 L 334.00 400.80 L 335.00 400.60 L 341.00 401.60 L 346.20 403.00 L 351.30 404.90 L 368.30 413.30 L 380.00 420.10 L 386.30 422.90 L 387.70 423.90 L 385.20 425.10 L 383.00 426.70 L 381.10 428.70 L 379.60 431.00 L 378.60 433.50 L 378.10 436.40 L 378.80 437.90 L 380.00 438.10 L 384.00 436.60 L 387.80 434.50 L 391.40 432.10 L 412.10 412.60 L 421.40 404.80 L 432.50 397.00 L 444.60 389.20 L 452.70 387.20 Z" fill="#3ab3b3" fill-rule="nonzero" node-id="102" stroke="none" target-height="89.899994" target-width="312.00003" target-x="324.4" target-y="387.2"></path><path d="M 629.30 395.60 L 620.30 397.60 L 611.40 400.20 L 602.80 403.30 L 594.40 407.00 L 586.20 411.20 L 578.40 415.90 L 570.80 421.20 L 563.60 427.00 L 556.60 433.60 L 549.30 442.00 L 548.80 442.20 L 548.30 441.70 L 548.00 440.20 L 547.50 433.20 L 548.30 429.80 L 551.20 429.60 L 552.00 429.20 L 559.90 423.00 L 574.40 412.80 L 575.30 412.30 L 577.10 411.90 L 586.00 406.10 L 599.80 399.40 L 615.60 390.80 L 623.00 388.40 L 625.20 388.40 L 626.90 389.10 L 628.10 389.90 L 628.90 391.00 L 629.50 393.70 L 629.30 395.60 Z" fill="#f1efbe" fill-rule="nonzero" node-id="104" stroke="none" target-height="53.80002" target-width="82" target-x="547.5" target-y="388.4"></path><path d="M 656.60 399.20 L 652.10 409.60 L 646.00 421.40 L 644.40 427.00 L 643.60 428.30 L 642.50 429.20 L 640.80 430.00 L 638.10 430.00 L 637.90 429.60 L 638.20 428.80 L 643.00 418.50 L 646.50 413.00 L 648.20 409.20 L 649.20 405.40 L 650.00 399.90 L 650.70 398.80 L 651.70 397.90 L 656.30 397.00 L 656.90 397.30 L 657.00 397.90 L 656.60 399.20 Z" fill="#ffa246" fill-rule="nonzero" node-id="106" stroke="none" target-height="33" target-width="19.099976" target-x="637.9" target-y="397"></path><path d="M 423.00 405.20 L 409.20 417.10 L 392.90 432.60 L 389.40 435.00 L 385.60 437.00 L 381.00 438.50 L 380.00 438.00 L 379.70 436.80 L 380.20 434.00 L 381.20 431.40 L 382.70 429.10 L 384.60 427.10 L 386.80 425.50 L 392.40 423.00 L 395.20 421.30 L 397.80 419.20 L 400.30 416.30 L 399.60 415.40 L 400.30 412.00 L 402.30 412.40 L 404.30 412.20 L 406.10 411.50 L 409.70 408.70 L 412.00 407.40 L 414.60 406.40 L 420.10 405.20 L 423.00 405.20 Z" fill="#ffecd2" fill-rule="nonzero" node-id="108" stroke="none" target-height="33.299988" target-width="43.299988" target-x="379.7" target-y="405.2"></path><path d="M 681.10 417.40 L 685.10 416.50 L 689.00 415.20 L 692.70 413.50 L 696.20 411.40 L 697.20 411.20 L 698.10 411.90 L 698.30 412.60 L 698.10 414.20 L 697.50 415.70 L 696.50 417.00 L 693.90 418.70 L 686.60 419.70 L 679.70 421.60 L 679.20 420.80 L 679.40 418.90 L 679.80 418.20 L 681.10 417.40 Z" fill="#ffc156" fill-rule="nonzero" node-id="110" stroke="none" target-height="10.399994" target-width="19.099976" target-x="679.2" target-y="411.2"></path><path d="M 399.20 415.50 L 399.80 416.40 L 399.70 416.70 L 397.40 419.20 L 394.80 421.30 L 392.00 423.10 L 388.90 424.40 L 387.50 423.40 L 389.40 422.90 L 394.10 418.90 L 399.20 415.50 Z" fill="#dbcaab" fill-rule="nonzero" node-id="112" stroke="none" target-height="8.899994" target-width="12.299988" target-x="387.5" target-y="415.5"></path><path d="M 438.30 434.70 L 435.20 434.60 L 432.30 434.00 L 429.50 432.80 L 425.90 430.60 L 424.80 430.40 L 418.20 431.00 L 411.60 432.10 L 404.60 432.10 L 403.50 431.60 L 403.20 430.40 L 403.40 429.00 L 403.90 427.80 L 419.50 417.00 L 421.20 416.10 L 422.80 415.80 L 424.50 415.90 L 426.10 416.40 L 427.60 417.30 L 428.80 418.70 L 438.30 434.70 Z" fill="#ffbca9" fill-rule="nonzero" node-id="114" stroke="none" target-height="18.900024" target-width="35.099976" target-x="403.2" target-y="415.8"></path><path d="M 684.20 447.80 L 687.60 456.70 L 688.10 457.50 L 689.60 458.10 L 714.30 450.20 L 726.50 446.90 L 728.00 446.70 L 729.40 447.00 L 730.60 447.80 L 731.50 449.10 L 734.30 457.10 L 736.10 465.40 L 739.50 490.60 L 737.20 492.90 L 735.80 495.30 L 734.00 496.40 L 733.30 497.50 L 733.30 498.90 L 733.80 500.40 L 737.20 507.20 L 737.30 508.00 L 736.90 508.40 L 736.10 508.40 L 731.90 506.80 L 725.60 503.20 L 727.20 500.20 L 729.10 497.50 L 731.40 495.10 L 731.90 494.20 L 731.90 493.20 L 731.40 491.90 L 729.60 490.10 L 728.10 483.80 L 726.90 481.90 L 713.90 471.80 L 695.70 471.10 L 694.70 469.70 L 693.30 468.70 L 692.50 468.50 L 692.00 468.90 L 691.90 469.70 L 692.60 476.40 L 691.80 477.40 L 690.70 477.60 L 684.70 474.30 L 682.20 472.40 L 677.60 467.70 L 674.90 465.70 L 672.00 464.00 L 665.90 461.30 L 655.10 457.00 L 641.30 449.70 L 638.70 447.80 L 637.10 445.00 L 636.80 443.10 L 637.00 434.60 L 645.60 432.40 L 658.50 428.30 L 662.70 427.40 L 670.10 426.50 L 672.40 426.80 L 674.10 427.40 L 676.80 429.70 L 678.80 433.80 L 680.90 439.80 L 684.20 447.80 Z" fill="#b56967" fill-rule="nonzero" node-id="116" stroke="none" target-height="81.899994" target-width="102.70001" target-x="636.8" target-y="426.5"></path><path d="M 404.00 427.70 L 403.30 430.30 L 403.70 431.50 L 404.70 432.00 L 411.70 432.00 L 418.30 430.90 L 424.90 430.30 L 427.10 431.00 L 429.60 432.70 L 432.40 433.90 L 435.30 434.50 L 438.40 434.60 L 423.00 453.70 L 423.00 454.50 L 424.20 455.40 L 438.10 441.60 L 442.60 439.20 L 445.00 438.40 L 449.90 438.10 L 452.20 438.50 L 454.20 439.40 L 456.00 440.70 L 457.10 442.00 L 458.60 445.40 L 459.00 447.80 L 458.90 450.10 L 458.30 452.20 L 457.20 454.10 L 455.60 455.70 L 451.60 458.20 L 445.30 460.00 L 443.40 461.60 L 443.10 462.40 L 448.40 461.40 L 452.20 460.10 L 455.30 458.40 L 458.00 456.20 L 461.40 452.50 L 462.90 451.90 L 464.40 451.80 L 485.20 460.80 L 507.90 468.70 L 508.20 468.60 L 508.10 468.40 L 505.80 466.90 L 498.70 464.90 L 492.70 462.60 L 486.80 460.00 L 490.10 460.10 L 493.30 460.70 L 484.50 458.10 L 477.60 454.90 L 473.50 453.50 L 469.20 452.50 L 464.40 452.00 L 464.10 451.60 L 464.20 450.50 L 476.30 453.40 L 484.70 457.60 L 493.70 460.50 L 500.00 463.30 L 502.00 463.30 L 503.80 462.70 L 504.20 462.30 L 503.80 461.90 L 497.90 460.40 L 489.30 455.20 L 484.00 453.30 L 485.10 453.00 L 486.20 453.10 L 489.20 454.90 L 495.50 457.30 L 498.80 458.00 L 506.50 458.30 L 507.90 459.80 L 531.40 459.30 L 539.80 457.30 L 542.00 455.50 L 545.00 454.00 L 547.40 453.60 L 552.30 453.70 L 554.70 453.20 L 559.30 451.10 L 563.90 447.10 L 569.50 446.80 L 575.00 446.10 L 587.70 442.90 L 591.60 442.60 L 593.60 442.80 L 591.90 445.60 L 591.80 448.60 L 592.40 450.10 L 593.40 451.40 L 594.40 452.30 L 596.30 453.20 L 597.00 454.70 L 597.00 455.80 L 592.90 459.70 L 591.70 461.60 L 590.80 463.80 L 590.40 465.70 L 590.50 467.40 L 591.00 469.20 L 591.90 470.80 L 593.10 472.10 L 597.90 475.40 L 600.60 478.40 L 601.40 480.70 L 601.00 483.00 L 600.40 484.00 L 598.00 485.60 L 587.80 488.00 L 586.50 488.80 L 584.70 491.40 L 581.90 497.10 L 579.90 499.50 L 578.90 503.70 L 578.60 504.50 L 578.20 504.60 L 574.50 502.40 L 571.40 501.00 L 568.20 500.00 L 564.80 499.40 L 561.20 499.20 L 560.20 499.40 L 558.80 500.50 L 557.20 500.50 L 556.10 499.80 L 555.50 497.80 L 555.20 497.70 L 548.00 499.10 L 546.00 497.90 L 544.80 497.70 L 542.40 497.90 L 541.30 498.40 L 540.80 499.00 L 540.80 499.90 L 541.30 501.00 L 548.20 507.50 L 559.40 516.60 L 565.20 520.70 L 560.60 526.30 L 558.70 529.40 L 557.10 532.70 L 556.80 534.50 L 557.60 536.90 L 559.70 539.80 L 561.20 540.90 L 563.40 541.20 L 564.00 541.60 L 564.80 543.30 L 564.70 544.20 L 547.30 565.90 L 547.70 563.70 L 547.50 561.60 L 547.20 560.90 L 546.10 560.90 L 543.60 562.00 L 541.50 562.30 L 540.50 562.30 L 539.30 561.80 L 507.20 540.70 L 503.40 537.70 L 499.60 535.40 L 495.90 533.80 L 492.30 532.70 L 488.60 532.10 L 484.90 532.10 L 479.20 533.80 L 473.00 537.40 L 468.70 537.50 L 465.50 537.10 L 462.50 536.10 L 459.20 534.40 L 458.90 534.00 L 458.50 530.80 L 457.80 528.80 L 456.40 526.50 L 454.60 526.00 L 445.00 527.50 L 443.80 528.40 L 441.90 530.60 L 438.20 535.70 L 436.90 537.10 L 434.50 538.30 L 425.20 539.40 L 390.30 547.40 L 387.00 549.00 L 383.90 551.20 L 382.70 553.10 L 382.10 555.40 L 381.10 557.60 L 379.70 559.60 L 377.20 561.50 L 376.50 561.00 L 376.30 559.10 L 379.30 554.20 L 380.30 549.90 L 380.30 547.70 L 379.80 544.90 L 379.00 544.30 L 377.50 544.40 L 377.10 545.10 L 376.80 547.60 L 376.10 549.10 L 375.00 550.50 L 373.60 551.60 L 372.10 552.30 L 368.00 552.80 L 365.90 553.50 L 363.80 554.60 L 361.00 556.80 L 358.40 559.50 L 356.20 562.50 L 353.00 567.90 L 345.90 576.60 L 343.20 581.00 L 342.30 585.10 L 342.00 585.40 L 338.90 586.00 L 336.40 585.90 L 334.00 585.40 L 331.60 584.50 L 329.50 583.10 L 327.60 581.20 L 330.40 582.20 L 334.90 584.90 L 337.20 584.90 L 338.20 584.50 L 339.70 583.00 L 341.60 578.50 L 344.80 572.50 L 345.50 570.20 L 345.80 568.00 L 345.70 565.80 L 345.20 563.80 L 344.20 561.90 L 341.50 559.50 L 338.70 557.60 L 335.50 555.90 L 331.30 554.50 L 329.30 554.80 L 326.60 556.70 L 324.50 559.90 L 323.90 563.40 L 324.10 565.40 L 326.00 570.10 L 326.40 572.30 L 326.30 576.80 L 325.80 579.00 L 316.50 572.80 L 315.80 565.00 L 316.00 557.20 L 318.90 539.70 L 319.60 541.10 L 320.50 542.20 L 321.00 542.40 L 321.40 542.00 L 321.80 540.60 L 321.70 536.70 L 320.80 529.60 L 321.50 522.20 L 323.20 510.60 L 324.00 506.20 L 325.40 502.00 L 327.00 497.90 L 331.60 489.90 L 331.40 489.40 L 330.50 489.40 L 321.40 503.10 L 319.90 504.00 L 318.30 503.80 L 313.50 498.00 L 311.10 495.70 L 306.50 492.30 L 305.00 490.40 L 304.00 488.10 L 303.50 485.70 L 306.60 479.70 L 307.90 475.30 L 309.70 464.90 L 309.40 463.80 L 308.80 462.90 L 307.80 462.20 L 306.00 461.50 L 304.10 461.30 L 302.10 461.60 L 300.00 462.30 L 297.60 463.70 L 294.90 465.80 L 301.90 455.00 L 303.20 453.80 L 304.90 453.10 L 307.00 452.80 L 316.00 454.20 L 322.70 455.70 L 323.90 455.10 L 324.30 454.50 L 323.00 456.00 L 323.10 457.50 L 340.30 471.60 L 346.10 468.70 L 351.70 465.30 L 357.00 461.40 L 363.70 455.50 L 365.70 454.30 L 367.90 453.60 L 369.10 453.50 L 371.30 454.20 L 372.30 454.20 L 373.20 453.80 L 374.80 451.70 L 375.80 451.40 L 376.70 451.50 L 378.20 452.50 L 381.20 456.80 L 383.30 458.50 L 376.90 443.90 L 377.30 442.50 L 379.40 442.20 L 382.30 442.30 L 392.10 436.50 L 393.50 436.00 L 394.90 436.10 L 396.20 436.70 L 397.10 437.70 L 397.50 438.80 L 397.80 442.70 L 398.30 443.90 L 398.80 444.60 L 399.20 444.50 L 400.10 440.60 L 400.50 437.40 L 400.80 429.90 L 401.20 428.80 L 404.00 427.70 Z M 504.20 502.30 L 497.20 502.20 L 490.10 503.60 L 483.20 506.30 L 478.20 509.00 L 473.40 512.20 L 468.90 515.60 L 464.30 520.10 L 464.20 521.90 L 464.70 522.90 L 466.00 524.20 L 467.40 525.00 L 469.00 525.50 L 470.00 525.60 L 471.20 525.30 L 483.40 519.10 L 490.90 516.10 L 498.80 514.50 L 508.30 514.30 L 509.20 514.00 L 510.20 512.90 L 510.40 511.90 L 509.30 506.40 L 507.10 503.60 L 505.70 502.70 L 504.20 502.30 Z M 539.40 529.80 L 538.50 526.50 L 536.30 523.80 L 533.00 521.80 L 531.10 521.20 L 526.90 520.70 L 522.80 521.50 L 519.40 523.40 L 517.00 526.10 L 516.20 527.70 L 515.60 531.20 L 516.50 534.60 L 518.70 537.30 L 520.20 538.40 L 523.90 539.90 L 528.10 540.30 L 532.20 539.50 L 535.70 537.60 L 538.10 534.80 L 538.90 533.20 L 539.40 529.80 Z M 399.20 535.60 L 389.60 538.70 L 388.60 538.70 L 385.10 537.00 L 383.10 537.30 L 382.40 538.20 L 382.40 538.90 L 382.70 539.60 L 384.50 541.30 L 384.00 543.20 L 384.20 544.70 L 384.80 545.30 L 386.10 545.40 L 387.00 544.40 L 430.90 535.50 L 431.80 535.20 L 432.50 534.00 L 431.30 530.90 L 429.80 530.00 L 428.90 530.00 L 418.20 530.90 L 408.50 531.20 L 405.70 531.70 L 403.00 532.90 L 402.70 530.60 L 402.00 529.50 L 400.20 529.20 L 398.40 530.30 L 397.00 530.70 L 395.50 530.60 L 393.00 529.10 L 391.80 526.30 L 390.70 525.10 L 389.40 524.30 L 387.80 524.00 L 386.60 524.20 L 385.60 525.00 L 384.00 527.20 L 383.20 529.10 L 383.10 530.90 L 383.50 532.70 L 384.50 534.60 L 386.30 536.50 L 387.40 537.00 L 391.50 537.40 L 394.20 537.10 L 399.20 535.60 Z M 372.20 537.70 L 380.00 539.40 L 380.60 538.70 L 380.70 537.30 L 379.90 535.10 L 377.10 532.50 L 374.10 530.50 L 370.70 528.90 L 367.00 527.90 L 365.30 528.20 L 349.20 544.70 L 348.20 546.10 L 348.00 547.30 L 348.70 548.70 L 350.20 550.00 L 351.60 550.70 L 353.10 550.80 L 354.60 550.30 L 359.70 545.10 L 363.80 541.60 L 368.40 538.60 L 370.30 537.70 L 372.20 537.70 Z" fill="#e2917e" fill-rule="nonzero" node-id="118" stroke="none" target-height="158.29999" target-width="306.50003" target-x="294.9" target-y="427.7"></path><path d="M 766.20 434.40 L 767.60 439.80 L 767.00 442.20 L 765.30 444.00 L 762.60 444.70 L 757.60 444.50 L 755.30 443.70 L 753.70 441.90 L 753.30 439.30 L 754.00 434.30 L 754.40 433.10 L 756.00 431.20 L 758.20 430.40 L 760.50 430.70 L 764.30 432.10 L 765.10 432.70 L 766.20 434.40 Z" fill="#fef2e1" fill-rule="nonzero" node-id="120" stroke="none" target-height="14.300018" target-width="14.299988" target-x="753.3" target-y="430.4"></path><path d="M 636.50 433.00 L 636.40 433.70 L 636.70 434.70 L 636.30 443.30 L 636.70 445.30 L 637.50 447.00 L 639.40 449.00 L 656.30 457.70 L 671.70 464.10 L 676.00 466.90 L 681.90 472.50 L 684.40 474.40 L 689.90 477.50 L 691.30 477.60 L 692.50 476.00 L 691.80 468.70 L 692.40 468.30 L 693.20 468.50 L 694.60 469.50 L 703.10 481.40 L 706.90 486.00 L 715.90 494.80 L 725.60 503.00 L 734.20 507.60 L 736.00 508.10 L 736.90 508.10 L 737.20 507.70 L 737.20 506.90 L 733.80 500.20 L 733.30 498.70 L 733.30 497.30 L 734.00 496.30 L 735.90 495.00 L 736.90 493.00 L 738.50 491.10 L 739.50 490.40 L 740.90 490.20 L 741.40 490.40 L 742.10 491.10 L 744.00 498.50 L 747.30 505.30 L 755.60 516.70 L 758.70 520.40 L 762.40 524.00 L 780.00 532.10 L 781.60 533.60 L 783.40 534.60 L 785.40 535.10 L 787.40 535.10 L 789.40 534.60 L 793.10 532.80 L 796.00 530.70 L 798.00 528.60 L 799.00 528.40 L 800.90 528.60 L 802.70 529.20 L 804.60 530.30 L 806.40 531.90 L 808.30 534.20 L 813.60 537.30 L 815.30 539.20 L 815.80 541.90 L 809.80 543.50 L 803.80 544.50 L 797.70 545.10 L 791.60 545.00 L 785.80 544.50 L 781.40 543.90 L 776.70 542.60 L 764.40 536.20 L 753.30 531.00 L 719.30 511.50 L 693.10 495.70 L 674.30 483.60 L 659.30 474.80 L 655.10 472.80 L 650.60 471.20 L 646.00 469.90 L 638.70 468.80 L 636.80 469.00 L 635.40 469.70 L 633.20 472.50 L 624.90 493.40 L 621.90 499.30 L 619.00 503.70 L 615.70 507.90 L 612.00 511.80 L 608.00 515.40 L 603.80 518.70 L 597.90 522.40 L 594.60 523.00 L 582.20 521.50 L 576.80 521.30 L 571.40 520.60 L 566.10 519.60 L 558.40 513.90 L 550.90 507.90 L 543.80 501.60 L 542.20 499.80 L 541.70 498.60 L 541.70 497.80 L 542.10 497.20 L 543.30 496.80 L 545.70 496.60 L 546.90 496.90 L 548.30 497.90 L 549.50 498.10 L 553.20 496.40 L 555.00 497.70 L 555.60 498.50 L 555.40 499.20 L 554.40 499.90 L 550.90 501.10 L 550.60 501.60 L 550.70 503.50 L 551.30 504.60 L 552.20 505.50 L 555.60 506.50 L 558.60 510.00 L 561.00 512.10 L 563.70 513.90 L 568.00 516.10 L 572.70 517.80 L 577.60 518.90 L 584.60 519.70 L 597.50 518.60 L 599.70 518.10 L 602.90 515.90 L 608.70 510.90 L 613.60 505.10 L 623.20 489.40 L 623.60 488.00 L 623.70 485.20 L 619.80 472.60 L 617.40 470.50 L 615.30 469.60 L 614.10 466.60 L 612.50 463.90 L 610.40 461.60 L 608.00 459.60 L 605.20 458.00 L 600.90 456.80 L 599.70 456.90 L 598.30 457.60 L 596.40 459.70 L 595.70 462.50 L 596.40 466.20 L 598.50 470.00 L 599.90 471.60 L 603.60 473.90 L 604.70 475.70 L 606.10 477.30 L 610.50 479.90 L 610.80 480.90 L 610.50 483.10 L 609.70 484.80 L 608.50 486.10 L 607.00 487.10 L 605.10 487.70 L 602.90 487.90 L 596.60 487.30 L 590.40 486.20 L 599.00 484.00 L 600.70 483.20 L 601.90 481.90 L 602.50 479.70 L 602.40 478.50 L 601.70 477.10 L 599.00 474.20 L 594.00 470.70 L 592.80 469.50 L 591.90 467.90 L 591.40 466.20 L 591.40 464.50 L 592.80 460.30 L 594.10 458.40 L 598.00 454.70 L 598.20 454.10 L 597.90 452.70 L 597.40 452.00 L 595.30 450.70 L 594.20 449.60 L 593.40 448.30 L 593.00 446.80 L 592.90 445.20 L 593.30 443.60 L 594.70 441.40 L 601.70 438.80 L 605.00 439.90 L 606.50 441.00 L 610.10 444.60 L 613.40 448.40 L 616.40 452.40 L 618.90 456.80 L 621.20 461.30 L 623.00 465.90 L 624.40 470.80 L 625.50 476.20 L 626.20 476.60 L 626.80 476.50 L 628.60 474.90 L 629.90 473.10 L 631.00 470.90 L 632.20 467.20 L 633.60 458.50 L 634.30 438.70 L 634.80 436.50 L 636.50 433.00 Z" fill="#7d434d" fill-rule="nonzero" node-id="122" stroke="none" target-height="112.099976" target-width="274.09998" target-x="541.7" target-y="433"></path><path d="M 601.00 439.70 L 594.30 442.30 L 592.30 442.10 L 588.40 442.40 L 581.10 444.40 L 575.70 445.50 L 564.60 446.60 L 570.00 443.50 L 575.60 441.00 L 581.40 439.10 L 587.30 437.80 L 593.40 437.10 L 599.60 437.00 L 601.30 437.70 L 601.40 438.60 L 601.00 439.70 Z" fill="#ffecd2" fill-rule="nonzero" node-id="124" stroke="none" target-height="9.600006" target-width="36.80005" target-x="564.6" target-y="437"></path><path d="M 341.70 471.80 L 324.90 458.40 L 324.40 457.50 L 324.40 456.50 L 325.10 454.80 L 324.60 451.30 L 324.60 447.90 L 325.00 444.50 L 325.80 441.10 L 329.90 457.40 L 330.40 458.40 L 337.20 464.90 L 339.70 468.20 L 341.70 471.80 Z" fill="#4c7068" fill-rule="nonzero" node-id="126" stroke="none" target-height="30.699982" target-width="17.300018" target-x="324.4" target-y="441.1"></path><path d="M 486.20 452.40 L 484.00 452.60 L 474.20 448.90 L 474.90 448.50 L 477.70 448.50 L 480.40 449.00 L 483.60 450.50 L 486.20 452.40 Z" fill="#469da7" fill-rule="nonzero" node-id="128" stroke="none" target-height="4.100006" target-width="12" target-x="474.2" target-y="448.5"></path><path d="M 476.40 453.10 L 477.90 452.90 L 480.90 453.40 L 486.30 455.80 L 490.30 457.00 L 494.60 457.90 L 498.20 460.00 L 504.10 461.50 L 504.50 461.90 L 504.10 462.30 L 502.30 462.90 L 499.90 462.70 L 494.00 460.10 L 485.10 457.20 L 476.40 453.10 Z" fill="#879e86" fill-rule="nonzero" node-id="130" stroke="none" target-height="10" target-width="28.100006" target-x="476.4" target-y="452.9"></path><path d="M 486.50 460.10 L 482.90 459.40 L 476.20 457.00 L 472.90 455.40 L 473.20 454.60 L 474.20 454.40 L 486.50 460.10 Z" fill="#da919e" fill-rule="nonzero" node-id="132" stroke="none" target-height="5.700012" target-width="13.600006" target-x="472.9" target-y="454.4"></path><path d="M 614.70 470.40 L 613.50 475.20 L 613.00 476.20 L 612.10 476.90 L 610.40 477.30 L 608.40 477.10 L 606.10 476.30 L 601.20 473.70 L 599.50 472.40 L 596.80 469.00 L 596.00 467.00 L 595.40 463.30 L 596.10 460.50 L 598.00 458.40 L 599.30 457.70 L 601.70 457.70 L 604.70 458.90 L 607.40 460.40 L 609.80 462.40 L 611.80 464.70 L 613.50 467.40 L 614.70 470.40 Z" fill="#ffa490" fill-rule="nonzero" node-id="134" stroke="none" target-height="19.599976" target-width="19.299988" target-x="595.4" target-y="457.7"></path><path d="M 304.30 486.00 L 303.80 489.80 L 303.10 490.70 L 302.10 491.00 L 297.30 491.00 L 296.10 491.50 L 285.90 499.70 L 285.00 501.20 L 284.50 502.70 L 284.70 506.00 L 286.60 510.30 L 288.20 512.70 L 294.30 520.20 L 296.70 523.70 L 298.60 527.40 L 300.70 529.90 L 303.60 531.20 L 317.30 533.60 L 318.30 533.50 L 318.70 532.60 L 319.10 521.40 L 320.60 510.60 L 321.10 509.70 L 321.80 509.40 L 323.00 509.60 L 323.20 515.60 L 321.30 530.20 L 322.40 539.20 L 322.00 542.60 L 321.60 543.00 L 321.00 542.80 L 319.40 540.30 L 317.50 538.60 L 300.80 534.50 L 298.50 532.90 L 290.60 520.80 L 283.00 510.40 L 281.60 508.10 L 280.70 505.70 L 280.20 503.20 L 280.40 498.00 L 282.30 491.00 L 284.00 486.70 L 287.40 479.80 L 291.20 473.10 L 295.50 466.60 L 298.20 464.50 L 300.60 463.10 L 302.70 462.40 L 304.70 462.10 L 306.60 462.30 L 308.40 463.00 L 309.90 464.60 L 310.10 466.80 L 308.00 478.40 L 307.20 480.50 L 304.30 486.00 Z" fill="#b14f59" fill-rule="nonzero" node-id="136" stroke="none" target-height="80.899994" target-width="43" target-x="280.2" target-y="462.1"></path><path d="M 815.80 542.50 L 818.30 541.00 L 822.60 537.60 L 834.80 525.60 L 836.80 522.80 L 838.50 519.80 L 839.90 516.00 L 841.00 515.90 L 842.50 517.30 L 843.90 517.60 L 845.20 517.40 L 846.00 516.90 L 846.40 516.20 L 846.30 515.20 L 848.00 525.70 L 849.00 536.30 L 849.50 547.00 L 849.40 557.60 L 845.80 558.20 L 845.00 559.00 L 843.60 565.10 L 838.20 581.80 L 836.50 585.00 L 834.40 588.00 L 833.40 588.90 L 831.10 589.60 L 829.30 589.30 L 828.80 588.90 L 828.40 587.70 L 828.40 580.00 L 828.20 578.90 L 827.60 578.30 L 825.50 578.20 L 824.30 579.50 L 821.00 588.60 L 818.10 593.30 L 815.20 595.60 L 812.50 596.80 L 807.40 599.90 L 801.60 604.40 L 798.00 606.80 L 778.40 616.50 L 762.30 623.90 L 746.10 630.80 L 732.50 635.60 L 727.90 636.80 L 726.70 636.70 L 724.80 635.60 L 724.30 634.60 L 724.30 625.20 L 723.70 616.60 L 722.50 608.00 L 721.20 601.70 L 719.50 595.40 L 715.20 583.30 L 714.70 582.80 L 713.70 582.90 L 713.00 585.50 L 713.00 587.30 L 715.70 594.90 L 717.50 601.40 L 719.10 608.70 L 720.20 616.10 L 721.60 633.20 L 721.40 635.60 L 720.90 637.20 L 719.90 638.40 L 718.40 639.30 L 711.20 641.50 L 702.50 644.90 L 683.60 650.90 L 682.20 651.40 L 678.90 653.60 L 677.50 653.90 L 676.60 653.70 L 676.00 653.00 L 675.70 651.70 L 676.40 642.70 L 676.50 636.20 L 676.20 629.60 L 675.20 623.10 L 673.40 616.40 L 668.80 603.40 L 665.70 593.00 L 664.20 589.20 L 660.30 582.30 L 658.90 581.10 L 658.10 580.90 L 659.20 586.20 L 661.90 592.00 L 666.00 604.00 L 669.90 620.30 L 671.50 628.70 L 672.60 635.60 L 672.70 640.10 L 672.40 644.50 L 671.60 648.90 L 670.00 653.60 L 668.50 654.50 L 664.90 655.60 L 659.60 658.50 L 657.40 659.40 L 650.50 661.40 L 638.30 666.10 L 633.10 667.70 L 616.90 671.50 L 590.40 678.70 L 571.80 682.20 L 557.50 685.30 L 554.10 685.20 L 552.80 683.80 L 552.70 682.80 L 555.10 675.80 L 555.50 673.50 L 555.60 671.20 L 555.20 669.30 L 554.60 667.70 L 561.80 655.20 L 570.90 642.70 L 577.70 631.80 L 580.60 626.10 L 583.10 620.50 L 584.70 615.30 L 585.40 611.80 L 585.60 608.80 L 585.30 606.10 L 584.50 603.40 L 583.30 601.10 L 581.60 599.00 L 579.50 597.30 L 577.20 596.10 L 570.20 594.00 L 566.10 592.40 L 557.70 587.60 L 553.80 585.00 L 550.60 582.10 L 548.80 579.80 L 547.50 577.40 L 546.70 574.70 L 546.40 572.70 L 547.00 567.80 L 547.90 564.80 L 565.30 543.10 L 565.40 542.20 L 565.00 540.90 L 564.30 540.30 L 561.80 539.80 L 559.00 537.40 L 557.50 534.00 L 557.40 532.80 L 557.70 531.60 L 559.30 528.30 L 561.20 525.20 L 565.80 519.60 L 573.70 521.10 L 585.70 521.70 L 589.30 522.50 L 595.50 522.90 L 599.10 521.60 L 603.50 518.70 L 607.70 515.40 L 611.60 511.80 L 615.30 507.90 L 618.60 503.70 L 621.60 499.30 L 624.70 493.40 L 632.80 473.00 L 635.10 470.30 L 636.60 469.60 L 638.50 469.20 L 641.20 469.30 L 645.80 470.20 L 654.80 473.10 L 659.20 475.10 L 674.30 483.80 L 698.40 499.40 L 708.20 505.00 L 719.20 511.80 L 732.70 519.20 L 753.20 531.10 L 777.70 543.30 L 781.50 544.20 L 785.80 544.80 L 797.70 545.50 L 803.80 545.00 L 809.90 544.00 L 815.80 542.50 Z M 676.50 514.70 L 668.60 506.30 L 666.70 505.20 L 664.50 505.20 L 662.60 506.30 L 656.50 512.80 L 655.50 514.90 L 655.20 517.20 L 655.50 519.50 L 656.70 522.30 L 659.50 525.30 L 662.10 527.20 L 663.50 527.70 L 665.80 528.00 L 668.10 527.80 L 670.20 526.90 L 672.20 525.50 L 676.80 520.90 L 677.60 519.50 L 677.80 517.90 L 677.50 516.30 L 676.50 514.70 Z M 711.30 530.10 L 709.70 529.00 L 708.00 528.40 L 706.30 528.30 L 704.60 528.60 L 703.00 529.40 L 701.50 530.60 L 698.40 535.90 L 697.60 537.80 L 697.50 539.80 L 697.80 541.70 L 698.60 543.60 L 701.00 547.20 L 702.30 548.60 L 703.80 549.50 L 705.50 550.00 L 707.30 550.10 L 709.00 549.70 L 710.90 548.90 L 715.60 545.10 L 717.00 543.70 L 717.80 542.20 L 718.30 540.50 L 718.20 538.70 L 717.80 537.00 L 716.10 534.30 L 711.30 530.10 Z M 571.60 568.60 L 575.20 560.60 L 580.10 554.10 L 581.70 549.80 L 582.10 545.10 L 581.70 542.30 L 580.60 539.60 L 579.90 539.20 L 579.00 539.10 L 576.40 540.50 L 569.50 547.20 L 557.60 557.10 L 556.50 559.50 L 554.50 560.10 L 553.30 563.70 L 551.40 566.30 L 550.70 567.90 L 550.30 570.80 L 550.40 573.70 L 551.10 576.50 L 552.20 579.00 L 554.60 581.50 L 556.10 582.30 L 557.80 582.80 L 559.80 582.80 L 562.20 582.30 L 564.90 580.80 L 566.20 579.50 L 567.80 577.20 L 571.60 568.60 Z M 750.10 545.90 L 748.60 545.50 L 747.10 545.70 L 745.80 546.40 L 744.60 548.10 L 744.10 551.00 L 744.10 553.70 L 744.70 556.30 L 745.80 558.50 L 746.80 559.80 L 749.50 561.40 L 751.10 561.60 L 752.90 561.40 L 755.10 560.60 L 757.50 558.80 L 758.60 556.10 L 758.20 553.20 L 757.50 551.30 L 756.40 549.70 L 754.90 548.20 L 752.80 546.90 L 750.10 545.90 Z M 833.80 554.00 L 834.70 553.80 L 835.60 553.10 L 836.30 551.90 L 836.70 550.20 L 836.70 548.40 L 836.40 547.10 L 835.70 546.10 L 834.80 545.60 L 833.80 545.80 L 832.90 546.60 L 831.90 549.40 L 832.20 552.40 L 832.90 553.50 L 833.80 554.00 Z M 581.90 594.50 L 581.00 595.60 L 581.00 596.30 L 581.60 597.40 L 585.10 598.40 L 588.20 598.60 L 591.20 598.30 L 594.20 597.40 L 602.90 593.20 L 611.00 587.80 L 618.00 581.30 L 621.10 577.60 L 623.80 573.60 L 631.60 559.10 L 631.70 558.30 L 631.40 557.40 L 630.90 556.90 L 629.90 556.90 L 623.50 568.50 L 620.80 572.20 L 617.20 576.50 L 613.20 580.40 L 609.00 584.00 L 604.50 587.40 L 599.70 590.40 L 596.70 591.80 L 593.70 592.70 L 590.50 593.10 L 587.20 593.00 L 584.30 593.50 L 581.90 594.50 Z M 794.20 561.00 L 792.70 559.90 L 791.20 559.30 L 789.60 559.10 L 787.90 559.30 L 786.40 559.90 L 784.90 561.00 L 781.00 565.00 L 779.90 566.40 L 779.30 568.10 L 779.20 569.80 L 779.40 571.40 L 780.10 573.00 L 781.20 574.30 L 786.80 578.10 L 789.90 579.20 L 792.90 578.80 L 795.40 576.90 L 799.50 572.10 L 800.10 570.50 L 800.20 568.90 L 799.30 565.80 L 798.30 564.40 L 794.20 561.00 Z" fill="#fe6048" fill-rule="nonzero" node-id="138" stroke="none" target-height="216.09998" target-width="303.09998" target-x="546.4" target-y="469.2"></path><path d="M 614.70 470.40 L 616.90 471.30 L 619.20 473.40 L 623.10 486.00 L 623.10 488.80 L 622.70 490.10 L 615.20 502.60 L 610.90 508.90 L 605.50 514.30 L 599.10 518.90 L 598.00 519.40 L 594.30 519.40 L 584.00 520.50 L 581.60 520.40 L 577.00 519.70 L 572.10 518.60 L 567.40 516.90 L 563.10 514.70 L 560.40 512.90 L 558.00 510.80 L 555.40 507.70 L 551.00 505.80 L 550.30 504.70 L 550.10 502.30 L 550.70 501.50 L 553.50 500.70 L 554.60 500.10 L 555.00 499.50 L 554.90 498.90 L 552.60 497.10 L 554.80 496.60 L 555.80 497.10 L 556.00 498.30 L 557.30 499.50 L 558.90 499.50 L 560.50 498.50 L 561.30 498.30 L 567.00 498.90 L 572.50 500.70 L 577.60 503.60 L 578.70 503.90 L 579.90 499.20 L 582.90 495.10 L 584.80 490.80 L 585.70 489.40 L 587.50 487.80 L 589.50 487.20 L 595.80 488.40 L 602.00 488.90 L 604.30 488.80 L 606.10 488.20 L 607.70 487.30 L 608.80 486.00 L 609.60 484.20 L 609.80 481.40 L 608.70 480.20 L 605.20 478.10 L 602.70 474.90 L 605.60 476.50 L 607.90 477.30 L 609.90 477.50 L 611.60 477.10 L 612.50 476.40 L 613.00 475.40 L 614.70 470.40 Z" fill="#df615d" fill-rule="nonzero" node-id="140" stroke="none" target-height="50.100006" target-width="73" target-x="550.1" target-y="470.4"></path><path d="M 725.00 503.50 L 715.30 495.30 L 706.30 486.50 L 695.00 471.40 L 713.10 472.00 L 727.10 483.10 L 728.60 489.10 L 729.80 491.30 L 730.70 492.20 L 731.20 493.50 L 731.20 494.50 L 726.60 500.40 L 725.00 503.50 Z" fill="#e37a7b" fill-rule="nonzero" node-id="142" stroke="none" target-height="32.100006" target-width="36.200012" target-x="695" target-y="471.4"></path><path d="M 791.30 534.10 L 789.40 535.10 L 787.40 535.60 L 785.30 535.60 L 783.30 535.10 L 781.50 534.10 L 780.00 532.70 L 777.80 526.40 L 776.20 520.00 L 774.90 511.90 L 773.60 509.10 L 772.60 508.00 L 770.60 506.70 L 768.60 505.80 L 766.30 505.40 L 764.00 505.50 L 761.80 506.10 L 751.30 512.10 L 748.90 509.10 L 745.10 502.50 L 742.50 495.40 L 741.50 491.20 L 740.50 490.80 L 744.20 488.60 L 751.90 484.60 L 779.10 473.70 L 781.40 473.30 L 783.60 473.30 L 786.50 474.00 L 787.40 475.50 L 788.80 481.50 L 789.80 487.60 L 790.30 493.80 L 791.30 534.10 Z" fill="#b56967" fill-rule="nonzero" node-id="144" stroke="none" target-height="62.299988" target-width="50.799988" target-x="740.5" target-y="473.3"></path><path d="M 304.30 486.00 L 304.90 489.30 L 306.60 492.20 L 312.70 497.00 L 315.80 500.10 L 318.40 503.50 L 319.90 504.40 L 321.50 504.20 L 322.20 503.50 L 331.30 489.60 L 332.00 489.40 L 332.40 490.30 L 329.90 494.00 L 327.80 497.90 L 326.20 502.00 L 324.90 506.30 L 324.00 510.70 L 323.50 515.20 L 323.30 509.20 L 321.60 509.10 L 321.00 509.70 L 319.50 521.10 L 319.00 532.00 L 318.40 533.00 L 317.40 533.20 L 303.70 530.80 L 300.70 529.50 L 299.60 528.40 L 295.60 521.50 L 293.80 518.90 L 288.20 512.30 L 286.60 509.90 L 284.80 505.70 L 284.60 502.40 L 285.10 500.80 L 286.00 499.30 L 296.20 491.10 L 297.40 490.60 L 302.20 490.60 L 303.20 490.30 L 303.90 489.40 L 304.30 486.00 Z" fill="#e37a7b" fill-rule="nonzero" node-id="146" stroke="none" target-height="47.200012" target-width="47.799988" target-x="284.6" target-y="486"></path><path d="M 846.20 514.70 L 845.80 516.30 L 843.80 517.10 L 842.80 517.10 L 842.10 516.70 L 840.90 515.40 L 840.00 515.50 L 836.70 522.30 L 834.70 525.10 L 821.90 537.50 L 815.70 542.00 L 815.70 540.70 L 814.50 538.30 L 813.50 537.40 L 808.20 534.30 L 813.80 529.10 L 816.20 526.10 L 818.30 522.80 L 819.30 519.40 L 820.00 518.20 L 824.00 514.20 L 827.70 509.80 L 831.10 508.90 L 833.60 507.70 L 835.50 506.20 L 836.70 504.50 L 837.50 502.40 L 837.80 500.00 L 839.80 499.10 L 840.80 499.10 L 841.80 499.50 L 842.80 500.40 L 845.20 507.90 L 846.20 514.70 Z" fill="#cf4847" fill-rule="nonzero" node-id="148" stroke="none" target-height="42.899994" target-width="38" target-x="808.2" target-y="499.1"></path><path d="M 838.10 500.80 L 837.80 503.30 L 837.00 505.30 L 835.80 507.00 L 833.90 508.50 L 831.40 509.70 L 828.00 510.60 L 830.00 507.70 L 832.30 505.00 L 835.00 502.70 L 838.10 500.80 Z" fill="#f4c5a9" fill-rule="nonzero" node-id="150" stroke="none" target-height="9.800018" target-width="10.099976" target-x="828" target-y="500.8"></path><path d="M 504.20 502.30 L 505.80 502.70 L 507.20 503.60 L 508.30 504.90 L 509.00 506.40 L 510.10 511.80 L 510.00 512.80 L 509.00 514.00 L 508.00 514.30 L 498.50 514.50 L 490.60 516.10 L 483.10 519.10 L 469.80 525.70 L 466.40 524.50 L 464.40 522.90 L 463.90 521.00 L 464.10 520.10 L 464.60 519.30 L 468.20 515.90 L 476.40 509.90 L 480.90 507.30 L 485.40 505.20 L 490.10 503.50 L 497.20 502.10 L 504.20 502.30 Z" fill="#2c0707" fill-rule="nonzero" node-id="152" stroke="none" target-height="23.600006" target-width="46.200012" target-x="463.9" target-y="502.1"></path><path d="M 676.50 514.70 L 677.60 516.60 L 677.60 518.80 L 677.10 519.70 L 671.70 525.30 L 669.70 526.70 L 667.60 527.60 L 665.30 527.80 L 663.00 527.50 L 660.20 526.20 L 657.30 523.40 L 655.90 521.40 L 655.00 519.30 L 654.80 517.00 L 655.10 514.70 L 656.40 511.90 L 663.00 505.40 L 665.10 504.80 L 667.20 505.40 L 676.50 514.70 Z" fill="#7d434d" fill-rule="nonzero" node-id="154" stroke="none" target-height="23" target-width="22.799988" target-x="654.8" target-y="504.8"></path><path d="M 780.10 532.70 L 771.30 528.80 L 762.40 524.50 L 758.70 521.00 L 751.80 512.10 L 762.20 506.10 L 764.40 505.50 L 766.70 505.30 L 769.00 505.70 L 771.10 506.60 L 773.10 508.00 L 774.90 510.50 L 775.40 511.90 L 777.10 523.20 L 777.90 526.40 L 780.10 532.70 Z" fill="#f88b79" fill-rule="nonzero" node-id="156" stroke="none" target-height="27.400024" target-width="28.299988" target-x="751.8" target-y="505.3"></path><g node-id="242"><path d="M 539.70 529.70 L 539.10 533.20 L 538.30 534.80 L 535.90 537.50 L 532.50 539.40 L 528.30 540.30 L 524.10 539.90 L 520.40 538.40 L 517.70 536.10 L 516.00 533.00 L 515.80 529.50 L 516.20 527.80 L 518.10 524.80 L 521.10 522.40 L 522.90 521.60 L 527.10 520.70 L 531.30 521.10 L 535.00 522.50 L 537.70 524.90 L 538.70 526.40 L 539.70 529.70 Z" fill="#c33935" fill-rule="nonzero" group-id="1" node-id="160" stroke="none" target-height="19.599976" target-width="23.900024" target-x="515.8" target-y="520.7"></path></g><path d="M 403.30 532.90 L 401.60 534.50 L 399.50 535.50 L 394.40 536.90 L 389.20 537.40 L 388.00 537.20 L 387.00 536.70 L 385.10 534.80 L 384.00 532.90 L 383.60 531.10 L 383.80 529.30 L 384.60 527.40 L 387.20 524.40 L 388.50 524.20 L 390.10 524.50 L 391.40 525.30 L 392.50 526.50 L 393.80 529.30 L 394.80 530.20 L 396.20 530.80 L 397.70 531.00 L 399.10 530.60 L 400.90 529.30 L 402.10 529.30 L 402.70 529.70 L 403.30 531.20 L 403.30 532.90 Z" fill="#e37a7b" fill-rule="nonzero" node-id="163" stroke="none" target-height="13.200012" target-width="19.699982" target-x="383.6" target-y="524.2"></path><path d="M 507.80 540.10 L 503.30 539.20 L 496.20 536.90 L 493.10 536.70 L 490.80 537.10 L 488.70 538.00 L 486.80 539.30 L 483.90 542.10 L 482.30 542.70 L 481.20 542.60 L 480.10 543.00 L 479.10 544.00 L 476.60 548.10 L 474.90 550.00 L 472.80 551.60 L 468.10 553.60 L 461.20 554.50 L 457.10 554.40 L 453.10 553.80 L 449.70 553.00 L 447.90 552.20 L 446.50 551.10 L 445.30 549.40 L 444.40 547.30 L 443.60 543.70 L 442.90 543.40 L 441.80 543.50 L 441.50 543.90 L 441.70 546.20 L 442.20 548.30 L 444.10 552.70 L 443.40 554.10 L 437.30 558.00 L 431.50 562.30 L 426.10 567.00 L 421.10 572.10 L 419.70 571.60 L 418.20 571.60 L 416.80 572.10 L 418.70 569.90 L 420.00 569.00 L 415.30 570.80 L 410.30 574.40 L 403.80 580.60 L 401.40 582.40 L 395.60 585.50 L 392.40 586.70 L 389.00 587.40 L 384.20 587.20 L 380.10 586.50 L 376.60 585.20 L 373.50 583.60 L 371.30 581.90 L 369.40 579.80 L 367.70 577.40 L 366.20 574.60 L 364.40 569.80 L 364.10 569.50 L 363.30 571.50 L 363.20 573.70 L 363.60 575.90 L 364.50 578.00 L 366.40 581.00 L 368.90 583.90 L 374.80 589.00 L 377.50 590.40 L 380.20 591.30 L 382.90 591.70 L 385.80 591.60 L 383.40 611.50 L 382.90 613.00 L 382.00 614.10 L 380.70 614.80 L 379.30 614.90 L 374.80 614.40 L 367.10 612.60 L 353.10 606.90 L 344.60 604.00 L 341.80 602.80 L 335.90 598.70 L 329.10 592.70 L 326.10 589.20 L 324.20 586.60 L 320.70 580.20 L 319.00 579.50 L 317.80 579.80 L 317.50 580.40 L 316.80 573.20 L 326.10 579.40 L 330.20 583.70 L 332.30 585.10 L 334.70 586.10 L 337.10 586.60 L 339.60 586.60 L 342.70 586.00 L 343.20 585.20 L 343.40 583.00 L 345.10 579.30 L 348.20 575.10 L 352.80 569.80 L 356.90 563.10 L 359.10 560.10 L 361.70 557.40 L 364.50 555.20 L 366.60 554.00 L 368.70 553.40 L 372.80 552.80 L 374.30 552.10 L 376.70 549.70 L 377.40 548.20 L 377.80 545.60 L 378.60 544.80 L 379.70 544.90 L 380.50 545.50 L 381.00 548.20 L 381.00 550.40 L 379.90 554.70 L 376.90 559.70 L 377.20 561.60 L 377.70 562.30 L 378.60 561.80 L 380.40 560.00 L 381.90 558.10 L 383.00 555.80 L 384.00 552.40 L 387.10 549.70 L 389.50 548.30 L 392.10 547.30 L 411.00 543.50 L 426.10 539.70 L 435.30 538.60 L 437.70 537.40 L 444.70 528.70 L 445.60 527.90 L 446.90 527.50 L 455.50 526.30 L 456.70 526.40 L 457.70 527.30 L 459.30 530.10 L 459.90 534.30 L 460.60 535.00 L 463.40 536.40 L 466.40 537.40 L 469.60 537.80 L 473.80 537.80 L 480.00 534.10 L 482.80 533.10 L 488.50 532.10 L 491.20 532.10 L 496.80 533.40 L 500.40 535.00 L 504.00 537.20 L 507.80 540.10 Z" fill="#ffa490" fill-rule="nonzero" node-id="165" stroke="none" target-height="88.60004" target-width="191" target-x="316.8" target-y="526.3"></path><path d="M 711.30 530.10 L 717.10 535.80 L 717.90 537.50 L 718.20 539.20 L 718.10 541.00 L 717.50 542.70 L 716.40 544.20 L 710.80 548.50 L 709.10 549.50 L 707.40 549.90 L 705.60 549.90 L 703.90 549.40 L 702.40 548.50 L 700.80 546.90 L 697.20 541.50 L 696.90 539.50 L 697.20 537.50 L 698.00 535.60 L 700.40 531.50 L 701.60 530.00 L 703.00 528.90 L 704.60 528.30 L 706.40 528.10 L 708.20 528.40 L 710.00 529.10 L 711.30 530.10 Z" fill="#7d434d" fill-rule="nonzero" node-id="167" stroke="none" target-height="21.800049" target-width="21.299988" target-x="696.9" target-y="528.1"></path><path d="M 372.20 537.70 L 370.40 537.70 L 368.60 538.20 L 365.10 540.30 L 361.80 542.80 L 358.80 545.60 L 355.00 549.90 L 353.60 550.50 L 352.10 550.50 L 350.50 549.90 L 348.80 548.40 L 348.20 547.50 L 348.10 546.60 L 348.50 545.60 L 365.00 528.60 L 366.00 528.10 L 367.20 527.90 L 370.90 528.90 L 374.30 530.50 L 376.40 531.80 L 380.10 535.10 L 380.80 536.20 L 381.10 537.30 L 380.40 539.30 L 379.40 539.50 L 372.20 537.70 Z" fill="#760906" fill-rule="nonzero" node-id="169" stroke="none" target-height="22.599976" target-width="33" target-x="348.1" target-y="527.9"></path><path d="M 399.20 535.60 L 401.40 534.80 L 403.00 533.00 L 404.80 532.00 L 406.60 531.50 L 418.10 531.00 L 428.90 530.10 L 430.60 530.50 L 431.80 532.00 L 432.50 534.40 L 431.80 535.50 L 387.00 544.70 L 386.00 545.70 L 384.80 545.60 L 384.10 544.50 L 384.50 541.60 L 382.70 539.90 L 382.40 539.30 L 382.40 538.60 L 383.10 537.50 L 385.70 537.40 L 388.40 539.00 L 389.60 539.00 L 399.20 535.60 Z" fill="#ffa490" fill-rule="nonzero" node-id="171" stroke="none" target-height="15.600037" target-width="50.100006" target-x="382.4" target-y="530.1"></path><path d="M 507.80 540.10 L 539.90 561.20 L 541.00 561.70 L 542.10 561.70 L 546.40 560.50 L 547.10 560.40 L 547.80 560.70 L 548.20 563.40 L 546.90 568.50 L 546.40 573.30 L 546.60 575.40 L 547.50 578.10 L 548.80 580.50 L 550.50 582.70 L 553.70 585.60 L 557.60 588.30 L 566.00 593.10 L 570.10 594.70 L 577.10 596.90 L 579.40 598.10 L 581.40 599.80 L 583.10 601.80 L 584.30 604.10 L 585.20 606.80 L 585.50 609.50 L 585.30 612.50 L 584.70 616.00 L 583.00 621.20 L 580.50 626.90 L 577.60 632.50 L 570.90 643.50 L 561.70 655.90 L 559.50 654.30 L 557.20 653.30 L 554.60 652.80 L 551.90 652.90 L 548.80 653.50 L 544.20 655.30 L 543.00 655.40 L 536.10 654.20 L 529.20 652.40 L 522.40 650.20 L 513.40 646.40 L 510.90 645.90 L 508.30 645.90 L 505.80 646.30 L 503.30 647.20 L 499.90 649.20 L 494.60 649.50 L 494.10 649.80 L 489.00 658.00 L 488.10 658.60 L 487.00 658.80 L 484.70 658.00 L 483.60 657.20 L 482.20 654.90 L 481.90 653.60 L 484.80 643.00 L 488.20 632.40 L 487.80 630.20 L 487.20 629.40 L 484.60 627.70 L 484.00 626.90 L 484.10 626.40 L 484.90 625.80 L 489.80 624.70 L 492.00 623.70 L 502.80 613.30 L 506.10 609.60 L 507.60 607.30 L 508.60 604.90 L 509.10 602.30 L 509.10 599.60 L 508.10 594.20 L 506.70 590.30 L 504.90 586.80 L 499.30 577.80 L 493.20 569.20 L 486.70 560.90 L 479.70 553.00 L 479.30 551.50 L 483.30 543.00 L 485.40 542.20 L 487.80 539.60 L 489.70 538.30 L 491.80 537.40 L 494.10 537.00 L 496.90 537.20 L 503.40 539.20 L 507.80 540.10 Z" fill="#ffd9bf" fill-rule="nonzero" node-id="173" stroke="none" target-height="121.79999" target-width="106.20001" target-x="479.3" target-y="537"></path><path d="M 569.60 573.40 L 567.70 577.10 L 565.80 579.50 L 564.10 581.10 L 562.40 582.00 L 559.90 582.50 L 557.90 582.50 L 556.20 582.10 L 553.40 580.30 L 552.30 578.90 L 551.20 576.40 L 550.60 573.50 L 550.50 570.60 L 551.40 566.00 L 553.50 563.40 L 554.60 559.90 L 556.70 559.20 L 557.80 556.90 L 571.50 545.40 L 576.60 540.20 L 578.10 539.20 L 580.10 538.90 L 581.40 540.40 L 582.30 544.80 L 582.20 547.20 L 581.30 551.70 L 579.10 555.70 L 575.20 560.40 L 574.40 562.00 L 569.60 573.40 Z" fill="#f88b79" fill-rule="nonzero" node-id="175" stroke="none" target-height="43.599976" target-width="31.799988" target-x="550.5" target-y="538.9"></path><path d="M 482.60 542.50 L 478.60 551.60 L 479.00 552.50 L 486.00 560.40 L 492.50 568.70 L 498.60 577.30 L 504.20 586.30 L 506.00 589.70 L 507.40 593.60 L 508.10 596.30 L 508.40 601.70 L 507.90 604.30 L 506.90 606.70 L 505.40 609.10 L 498.60 616.40 L 491.30 623.20 L 489.10 624.20 L 486.20 624.70 L 484.20 625.50 L 483.50 626.10 L 483.40 626.70 L 483.90 627.30 L 485.70 628.30 L 486.80 629.30 L 487.40 630.70 L 487.60 632.20 L 481.40 651.80 L 475.40 676.20 L 474.80 678.10 L 473.90 679.70 L 472.60 681.20 L 470.50 682.70 L 468.70 682.60 L 464.30 681.30 L 462.30 682.10 L 461.00 682.30 L 460.20 682.10 L 459.90 681.70 L 460.00 680.90 L 463.60 674.40 L 468.20 660.00 L 472.30 645.30 L 476.10 630.50 L 473.30 629.10 L 470.40 628.30 L 467.40 628.00 L 464.40 628.10 L 435.90 633.40 L 434.70 633.80 L 433.90 634.50 L 433.30 635.60 L 433.30 636.80 L 433.80 642.30 L 438.60 662.90 L 438.40 664.30 L 437.80 665.10 L 436.70 664.50 L 435.80 662.90 L 434.30 662.10 L 430.20 654.40 L 426.60 646.50 L 423.40 638.40 L 420.60 630.20 L 420.50 629.10 L 421.50 627.30 L 422.70 626.70 L 425.50 626.80 L 428.40 627.90 L 431.40 628.40 L 434.40 628.60 L 449.70 626.80 L 461.80 624.80 L 473.90 622.20 L 478.90 622.20 L 480.00 621.60 L 479.90 619.10 L 479.10 618.60 L 463.10 616.20 L 440.30 613.30 L 435.40 612.20 L 426.10 609.00 L 417.60 604.00 L 413.40 600.70 L 409.50 597.10 L 407.20 594.40 L 405.40 591.70 L 403.60 588.00 L 402.80 587.30 L 401.80 587.10 L 400.70 587.20 L 389.00 590.60 L 383.20 590.70 L 380.40 590.30 L 377.70 589.40 L 375.10 588.00 L 372.10 585.60 L 369.20 582.90 L 366.70 580.00 L 364.80 577.00 L 363.90 574.90 L 363.50 572.70 L 363.60 570.50 L 364.10 568.80 L 364.40 568.50 L 364.70 568.80 L 366.50 573.50 L 368.00 576.30 L 369.70 578.70 L 371.60 580.70 L 373.80 582.50 L 376.90 584.20 L 380.40 585.40 L 384.50 586.20 L 389.30 586.40 L 394.30 585.30 L 398.90 583.00 L 401.60 581.40 L 403.90 579.60 L 410.40 573.40 L 412.80 571.50 L 415.50 569.80 L 420.40 568.00 L 418.00 569.80 L 417.10 571.10 L 414.00 573.00 L 411.10 575.20 L 408.70 577.90 L 406.00 582.00 L 405.80 584.30 L 407.30 588.60 L 409.00 591.60 L 411.00 594.40 L 415.80 599.30 L 418.60 601.50 L 423.10 604.40 L 427.90 606.70 L 432.80 608.50 L 437.70 609.70 L 447.90 611.30 L 458.20 612.40 L 468.50 613.10 L 478.90 613.30 L 487.30 612.70 L 491.50 611.90 L 495.50 610.50 L 498.00 609.30 L 502.00 606.30 L 503.50 604.40 L 504.50 602.20 L 505.10 599.70 L 505.20 597.10 L 504.60 594.00 L 503.30 590.30 L 499.40 582.90 L 495.00 575.70 L 490.30 568.80 L 485.10 562.00 L 478.10 554.60 L 475.90 553.90 L 473.80 554.40 L 467.60 556.80 L 465.60 557.30 L 463.40 557.50 L 448.50 556.10 L 446.10 556.30 L 440.80 558.90 L 435.80 562.00 L 431.00 565.60 L 424.70 571.50 L 423.30 572.20 L 422.50 572.20 L 421.90 571.80 L 421.40 570.90 L 426.50 565.80 L 431.90 561.10 L 437.70 556.70 L 444.20 552.50 L 444.40 551.50 L 442.50 547.10 L 442.00 545.00 L 441.80 542.90 L 442.30 542.20 L 443.90 542.50 L 445.40 547.40 L 447.20 550.10 L 448.50 551.10 L 450.00 551.80 L 453.40 552.70 L 457.40 553.30 L 461.50 553.50 L 465.70 553.20 L 468.40 552.60 L 473.10 550.50 L 475.20 548.90 L 476.90 547.00 L 479.20 543.50 L 481.40 542.40 L 482.60 542.50 Z" fill="#fe6037" fill-rule="nonzero" node-id="177" stroke="none" target-height="140.5" target-width="144.9" target-x="363.5" target-y="542.2"></path><path d="M 750.10 545.90 L 752.90 547.10 L 754.90 548.50 L 756.50 549.90 L 757.50 551.40 L 758.20 553.10 L 758.60 556.00 L 757.50 558.70 L 755.10 560.50 L 753.00 561.30 L 751.20 561.50 L 749.60 561.30 L 748.20 560.70 L 745.90 558.40 L 744.70 556.20 L 744.10 553.60 L 744.10 550.90 L 745.20 547.00 L 746.30 545.90 L 747.60 545.40 L 749.20 545.40 L 750.10 545.90 Z" fill="#7d434d" fill-rule="nonzero" node-id="179" stroke="none" target-height="16.099976" target-width="14.5" target-x="744.1" target-y="545.4"></path><g node-id="243"><path d="M 834.90 545.60 L 835.70 546.00 L 836.40 547.10 L 836.70 550.20 L 835.60 553.10 L 834.70 554.00 L 833.80 554.10 L 833.00 553.70 L 832.30 552.70 L 832.00 549.60 L 833.10 546.60 L 834.00 545.80 L 834.90 545.60 Z" fill="#c33935" fill-rule="nonzero" group-id="2" node-id="183" stroke="none" target-height="8.5" target-width="4.700012" target-x="832" target-y="545.6"></path></g><path d="M 345.10 562.40 L 345.60 564.70 L 345.40 568.20 L 344.70 569.60 L 343.60 570.90 L 342.00 572.00 L 338.10 573.40 L 333.90 573.70 L 332.90 573.50 L 329.40 571.10 L 326.70 570.30 L 324.80 565.70 L 324.70 561.90 L 326.10 558.50 L 327.30 556.90 L 330.00 555.00 L 332.00 554.70 L 336.40 556.40 L 339.50 558.10 L 345.10 562.40 Z" fill="#c33935" fill-rule="nonzero" node-id="186" stroke="none" target-height="19" target-width="20.899994" target-x="324.7" target-y="554.7"></path><path d="M 417.00 571.80 L 418.40 571.30 L 419.90 571.30 L 421.30 571.80 L 421.80 572.70 L 422.40 573.10 L 423.30 573.10 L 424.60 572.40 L 430.90 566.50 L 435.70 562.90 L 440.70 559.80 L 446.00 557.20 L 447.70 556.90 L 456.30 557.90 L 463.30 558.40 L 465.40 558.30 L 473.60 555.30 L 475.80 554.80 L 477.00 555.00 L 478.00 555.50 L 481.70 559.10 L 490.20 569.50 L 494.90 576.50 L 499.30 583.70 L 503.20 591.20 L 504.50 594.90 L 505.00 597.90 L 505.00 600.50 L 504.30 603.00 L 503.30 605.20 L 501.80 607.10 L 497.80 610.10 L 495.30 611.30 L 491.40 612.60 L 487.10 613.50 L 478.80 614.20 L 468.40 614.00 L 458.10 613.30 L 447.80 612.20 L 437.60 610.60 L 432.70 609.40 L 427.80 607.60 L 423.00 605.30 L 418.50 602.40 L 413.10 597.90 L 408.80 592.50 L 407.20 589.50 L 406.00 586.40 L 405.80 585.30 L 406.10 583.00 L 406.50 581.80 L 408.70 578.60 L 411.20 575.80 L 413.90 573.60 L 417.00 571.80 Z" fill="#ffbca9" fill-rule="nonzero" node-id="188" stroke="none" target-height="59.400024" target-width="99.20001" target-x="405.8" target-y="554.8"></path><path d="M 581.90 594.50 L 584.20 593.60 L 590.00 593.60 L 593.20 593.20 L 596.30 592.30 L 599.20 590.90 L 605.10 587.10 L 610.60 582.80 L 617.30 576.30 L 620.30 572.70 L 623.00 569.10 L 629.40 557.40 L 629.90 557.10 L 630.90 557.70 L 631.40 559.00 L 623.20 573.90 L 620.50 577.80 L 617.40 581.50 L 610.30 588.10 L 606.40 591.00 L 598.00 595.80 L 590.80 598.70 L 587.70 599.00 L 584.70 598.70 L 581.70 597.90 L 580.70 597.00 L 580.50 595.50 L 581.90 594.50 Z" fill="#fb381a" fill-rule="nonzero" node-id="190" stroke="none" target-height="41.900024" target-width="50.900024" target-x="580.5" target-y="557.1"></path><path d="M 849.30 557.10 L 848.20 563.30 L 846.70 569.40 L 844.80 575.20 L 842.40 580.90 L 839.60 586.50 L 836.40 591.90 L 831.70 598.40 L 821.40 610.80 L 815.80 616.60 L 808.00 624.00 L 799.90 630.80 L 779.40 645.60 L 755.60 663.80 L 747.20 668.90 L 738.60 673.30 L 729.80 677.20 L 720.80 680.50 L 704.60 685.40 L 697.90 688.20 L 691.30 691.40 L 680.30 697.70 L 670.80 701.80 L 660.80 704.40 L 650.60 705.60 L 645.40 705.70 L 641.90 706.50 L 638.90 708.60 L 634.90 712.50 L 630.70 715.90 L 626.10 718.90 L 618.30 722.70 L 611.40 723.60 L 604.60 724.10 L 561.50 722.70 L 560.20 721.10 L 559.30 719.10 L 537.80 706.00 L 538.40 699.40 L 539.20 696.00 L 540.90 691.10 L 545.70 681.40 L 554.30 668.10 L 555.00 669.80 L 555.30 671.90 L 555.10 674.60 L 552.40 683.30 L 553.10 685.00 L 554.00 685.60 L 557.40 685.70 L 596.40 677.50 L 612.50 672.90 L 633.00 668.10 L 638.20 666.50 L 650.40 661.80 L 657.20 659.80 L 659.40 658.90 L 663.70 656.50 L 669.40 654.40 L 670.10 653.50 L 671.50 649.30 L 672.30 644.90 L 672.60 640.40 L 672.50 636.00 L 669.20 617.90 L 665.90 604.40 L 661.80 592.40 L 659.10 586.60 L 658.10 582.20 L 658.20 581.20 L 659.60 582.00 L 660.20 582.70 L 662.40 586.00 L 664.20 589.60 L 665.60 593.30 L 668.70 603.80 L 673.30 616.80 L 675.10 623.50 L 676.10 630.00 L 676.40 636.60 L 676.30 643.10 L 675.50 652.10 L 675.80 653.40 L 676.40 654.10 L 677.20 654.30 L 678.60 654.00 L 682.10 652.00 L 693.00 648.10 L 702.70 645.30 L 711.40 641.90 L 718.50 639.70 L 719.90 638.80 L 720.90 637.60 L 721.60 636.00 L 721.80 633.60 L 721.30 624.60 L 720.50 616.50 L 719.30 609.10 L 717.70 601.80 L 713.20 587.70 L 713.20 585.90 L 714.00 583.20 L 715.00 583.10 L 717.70 589.60 L 719.70 595.80 L 722.80 608.40 L 724.30 621.10 L 724.30 634.10 L 724.50 635.30 L 725.10 636.20 L 726.00 636.90 L 727.90 637.20 L 737.20 634.70 L 746.10 631.20 L 762.30 624.30 L 778.40 616.90 L 797.10 607.70 L 802.60 604.10 L 808.30 599.60 L 816.80 595.00 L 818.30 593.70 L 821.20 589.10 L 824.30 579.90 L 825.00 579.00 L 826.00 578.50 L 827.50 578.80 L 828.40 579.90 L 828.40 588.30 L 828.70 589.30 L 829.60 590.00 L 830.90 590.20 L 833.30 589.40 L 834.20 588.60 L 836.20 585.70 L 837.90 582.50 L 839.20 579.00 L 843.40 565.70 L 844.80 559.60 L 845.60 558.80 L 849.30 557.10 Z" fill="#ea372a" fill-rule="nonzero" node-id="192" stroke="none" target-height="167" target-width="311.5" target-x="537.8" target-y="557.1"></path><path d="M 794.20 561.00 L 798.00 564.60 L 799.10 566.00 L 799.70 567.40 L 800.00 569.10 L 799.80 570.70 L 799.20 572.30 L 798.20 573.70 L 793.90 578.10 L 790.90 579.20 L 787.90 579.00 L 781.90 575.20 L 780.50 573.90 L 779.60 572.50 L 779.10 570.90 L 779.00 569.30 L 779.40 567.70 L 780.90 565.10 L 784.70 561.00 L 786.20 560.00 L 787.80 559.40 L 791.20 559.40 L 792.80 560.00 L 794.20 561.00 Z" fill="#7d434d" fill-rule="nonzero" node-id="194" stroke="none" target-height="19.799988" target-width="21" target-x="779" target-y="559.4"></path><path d="M 345.10 562.40 L 346.20 564.60 L 346.70 566.90 L 346.60 569.50 L 345.90 572.30 L 340.50 583.70 L 339.70 584.60 L 337.60 585.60 L 335.20 585.50 L 331.00 582.80 L 328.20 581.90 L 326.00 579.50 L 326.80 575.10 L 326.20 570.60 L 328.90 571.40 L 332.00 573.50 L 333.40 574.00 L 335.60 574.00 L 339.70 573.10 L 343.30 571.10 L 344.60 569.70 L 345.30 568.30 L 345.70 566.60 L 345.60 564.70 L 345.10 562.40 Z" fill="#f46e66" fill-rule="nonzero" node-id="196" stroke="none" target-height="23.199951" target-width="20.700012" target-x="326" target-y="562.4"></path><path d="M 386.30 591.40 L 389.20 591.40 L 389.70 595.00 L 389.60 598.60 L 389.00 602.20 L 384.40 615.30 L 383.20 620.40 L 382.90 624.00 L 383.00 627.70 L 384.40 634.80 L 382.80 636.80 L 381.60 638.90 L 380.90 641.30 L 380.60 643.80 L 380.80 646.30 L 381.50 648.90 L 380.50 643.70 L 380.80 637.80 L 380.10 636.20 L 379.00 635.70 L 376.50 635.70 L 363.20 630.50 L 362.10 630.70 L 361.70 631.10 L 361.30 632.30 L 361.40 633.30 L 357.40 630.50 L 353.80 627.40 L 347.60 620.00 L 339.30 607.90 L 331.90 601.20 L 328.40 597.60 L 325.30 593.70 L 322.50 589.60 L 320.10 585.20 L 318.00 580.60 L 318.40 579.90 L 319.10 579.60 L 321.30 580.40 L 324.80 586.90 L 329.70 592.90 L 336.50 598.90 L 342.30 602.90 L 345.10 604.20 L 356.10 608.10 L 367.60 612.80 L 375.30 614.70 L 379.80 615.10 L 381.40 614.90 L 382.60 614.20 L 383.40 613.10 L 383.90 611.70 L 386.30 591.40 Z" fill="#f46e66" fill-rule="nonzero" node-id="198" stroke="none" target-height="69.30005" target-width="71.70001" target-x="318" target-y="579.6"></path><path d="M 425.60 627.40 L 426.90 625.60 L 427.00 624.50 L 426.80 623.50 L 426.00 622.60 L 420.70 620.10 L 415.00 618.70 L 409.20 618.80 L 400.60 619.80 L 391.90 620.40 L 383.10 620.50 L 384.30 615.50 L 385.90 610.50 L 389.00 602.10 L 389.60 598.50 L 389.60 594.90 L 389.10 591.50 L 400.80 588.10 L 401.90 587.90 L 402.80 588.20 L 403.60 588.80 L 407.40 595.30 L 409.60 598.00 L 413.40 601.70 L 417.70 605.00 L 422.10 607.80 L 426.20 609.90 L 435.50 613.10 L 440.40 614.20 L 463.60 617.10 L 479.20 619.50 L 480.10 620.20 L 480.20 622.10 L 479.70 623.00 L 474.00 623.10 L 461.90 625.70 L 449.80 627.70 L 434.50 629.20 L 431.50 628.90 L 425.60 627.40 Z" fill="#ffbca9" fill-rule="nonzero" node-id="200" stroke="none" target-height="41.299988" target-width="97.100006" target-x="383.1" target-y="587.9"></path><path d="M 260.00 624.70 L 257.80 625.30 L 255.60 625.30 L 251.20 623.80 L 247.30 621.30 L 245.40 619.60 L 244.20 617.90 L 243.50 616.30 L 243.20 614.50 L 243.50 612.70 L 244.20 610.80 L 247.00 606.90 L 251.20 603.50 L 255.30 601.70 L 258.30 601.60 L 260.40 602.30 L 261.90 603.30 L 262.90 604.60 L 263.60 606.20 L 264.20 610.20 L 263.30 616.80 L 261.40 622.90 L 260.90 624.10 L 260.00 624.70 Z" fill="#fda567" fill-rule="nonzero" node-id="202" stroke="none" target-height="23.700012" target-width="21.000015" target-x="243.2" target-y="601.6"></path><path d="M 425.60 627.40 L 423.40 627.40 L 421.50 628.20 L 420.50 630.00 L 420.50 631.00 L 423.30 639.20 L 426.50 647.30 L 430.10 655.20 L 434.20 662.90 L 434.70 665.10 L 434.60 667.20 L 434.10 669.30 L 432.70 672.50 L 432.80 676.40 L 432.50 678.30 L 431.70 679.70 L 430.60 680.80 L 428.90 681.60 L 427.40 681.70 L 424.50 680.50 L 421.50 678.00 L 419.60 674.70 L 418.60 671.30 L 417.70 670.20 L 416.30 669.50 L 413.90 669.60 L 411.30 671.20 L 409.40 671.90 L 407.40 672.10 L 405.40 671.80 L 399.60 663.70 L 384.30 634.70 L 382.90 627.60 L 382.80 623.90 L 383.10 620.30 L 396.20 620.10 L 409.20 618.60 L 415.00 618.60 L 420.70 619.90 L 426.50 622.70 L 427.00 623.70 L 426.90 625.30 L 425.60 627.40 Z" fill="#ffd9bf" fill-rule="nonzero" node-id="204" stroke="none" target-height="63.100037" target-width="51.900024" target-x="382.8" target-y="618.6"></path><path d="M 476.70 631.00 L 434.30 642.70 L 433.90 636.00 L 434.40 635.00 L 435.30 634.20 L 436.40 633.80 L 464.90 628.50 L 468.00 628.30 L 471.00 628.70 L 473.90 629.60 L 476.70 631.00 Z" fill="#fe7b59" fill-rule="nonzero" node-id="206" stroke="none" target-height="14.400024" target-width="42.80002" target-x="433.9" target-y="628.3"></path><path d="M 381.70 648.70 L 383.10 656.60 L 385.60 666.30 L 387.90 671.20 L 389.80 673.30 L 391.70 673.50 L 394.70 671.70 L 396.60 671.20 L 397.40 670.50 L 398.20 669.40 L 399.00 667.10 L 399.70 663.60 L 405.50 671.70 L 413.50 680.30 L 422.00 687.20 L 428.10 691.20 L 434.50 694.70 L 441.20 697.60 L 448.10 700.00 L 455.40 702.10 L 463.00 703.80 L 492.80 707.20 L 489.50 708.90 L 479.60 721.80 L 478.70 722.60 L 477.40 723.00 L 463.30 723.70 L 459.80 721.70 L 456.20 720.10 L 452.50 718.90 L 450.20 718.50 L 448.00 718.60 L 445.90 719.20 L 441.80 721.60 L 439.80 723.50 L 429.60 724.20 L 424.50 724.00 L 418.30 723.00 L 417.20 722.30 L 411.40 716.40 L 405.90 710.20 L 400.80 703.80 L 396.10 697.10 L 391.70 690.00 L 387.60 682.10 L 383.80 673.90 L 372.90 648.70 L 372.80 647.70 L 373.80 643.60 L 373.70 642.80 L 369.50 638.60 L 365.60 635.80 L 361.40 633.40 L 361.60 631.30 L 362.10 630.80 L 363.10 630.70 L 376.50 635.80 L 379.00 635.80 L 380.10 636.30 L 380.90 637.60 L 380.80 643.50 L 381.70 648.70 Z" fill="#ea372a" fill-rule="nonzero" node-id="208" stroke="none" target-height="93.5" target-width="131.4" target-x="361.4" target-y="630.7"></path><path d="M 476.70 631.00 L 472.90 645.80 L 468.80 660.50 L 464.20 674.90 L 460.60 681.40 L 460.40 682.20 L 460.70 682.60 L 462.90 682.60 L 465.00 681.70 L 469.30 683.10 L 470.50 683.20 L 471.70 682.90 L 474.50 680.30 L 475.40 678.60 L 476.00 676.70 L 482.00 652.30 L 482.20 655.10 L 483.60 657.20 L 485.80 658.50 L 488.00 658.50 L 488.90 658.00 L 489.60 657.10 L 494.30 649.70 L 495.10 649.40 L 499.50 649.30 L 503.00 647.20 L 505.40 646.30 L 508.00 645.90 L 510.60 645.90 L 513.10 646.40 L 522.20 650.30 L 528.90 652.50 L 535.70 654.20 L 542.70 655.40 L 543.90 655.30 L 548.40 653.60 L 551.40 652.90 L 554.10 652.80 L 556.70 653.20 L 559.10 654.20 L 561.40 655.90 L 554.20 668.40 L 548.30 677.10 L 543.00 686.50 L 540.70 691.40 L 539.10 696.40 L 538.30 699.70 L 537.70 706.30 L 524.20 707.00 L 512.90 708.20 L 506.10 708.40 L 499.20 708.20 L 466.40 704.70 L 455.00 702.40 L 447.70 700.30 L 440.80 697.80 L 434.10 694.90 L 427.70 691.40 L 421.60 687.50 L 417.30 684.20 L 409.00 676.50 L 405.10 672.00 L 409.10 672.00 L 411.00 671.40 L 414.20 669.70 L 416.60 669.90 L 418.10 671.30 L 420.10 676.60 L 422.60 679.60 L 426.60 681.90 L 428.60 681.80 L 430.40 680.90 L 431.60 679.70 L 432.40 678.30 L 432.60 676.40 L 432.40 672.70 L 433.80 669.50 L 434.30 667.40 L 434.30 665.30 L 433.90 663.10 L 435.40 664.10 L 436.30 665.50 L 437.80 669.00 L 439.60 672.20 L 441.90 675.10 L 444.50 677.60 L 447.50 679.80 L 451.50 681.90 L 453.10 681.70 L 455.50 679.30 L 455.60 678.80 L 455.30 678.50 L 449.30 677.00 L 444.50 674.50 L 442.40 672.90 L 440.70 671.00 L 439.40 668.80 L 438.70 666.40 L 438.50 663.60 L 433.70 643.00 L 476.70 631.00 Z" fill="#f4c5a9" fill-rule="nonzero" node-id="210" stroke="none" target-height="77.400024" target-width="156.30002" target-x="405.1" target-y="631"></path><path d="M 384.60 634.80 L 399.90 663.80 L 399.20 667.30 L 398.30 669.60 L 397.50 670.80 L 396.70 671.40 L 395.00 671.90 L 392.60 673.50 L 391.40 673.80 L 390.30 673.70 L 389.20 672.90 L 388.10 671.40 L 386.50 668.30 L 385.00 663.80 L 383.40 657.50 L 380.80 643.80 L 381.00 641.30 L 381.70 638.90 L 382.90 636.80 L 384.60 634.80 Z" fill="#fe8964" fill-rule="nonzero" node-id="212" stroke="none" target-height="39" target-width="19.100006" target-x="380.8" target-y="634.8"></path><path d="M 439.00 663.30 L 439.20 666.10 L 439.90 668.50 L 441.20 670.70 L 442.90 672.60 L 445.00 674.30 L 447.30 675.60 L 452.30 677.50 L 455.70 678.10 L 456.00 678.90 L 453.70 681.40 L 452.10 681.60 L 448.00 679.50 L 445.00 677.40 L 442.40 674.80 L 440.10 671.90 L 438.30 668.70 L 436.80 665.20 L 437.50 665.70 L 438.20 665.50 L 439.00 663.30 Z" fill="#ffb15c" fill-rule="nonzero" node-id="214" stroke="none" target-height="18.299988" target-width="19.200012" target-x="436.8" target-y="663.3"></path><path d="M 299.80 693.00 L 298.40 689.90 L 297.40 686.60 L 296.90 683.20 L 296.90 679.70 L 297.40 676.30 L 298.50 673.00 L 301.20 668.70 L 305.30 665.00 L 306.50 664.80 L 307.50 665.50 L 307.70 666.50 L 307.30 672.10 L 306.50 677.50 L 305.20 682.80 L 303.40 688.00 L 301.20 693.10 L 300.20 693.60 L 299.80 693.00 Z" fill="#879e86" fill-rule="nonzero" node-id="216" stroke="none" target-height="28.799988" target-width="10.800018" target-x="296.9" target-y="664.8"></path><path d="M 808.10 675.80 L 805.20 675.90 L 799.50 676.90 L 775.00 684.40 L 776.70 681.70 L 778.90 679.40 L 781.40 677.60 L 784.30 676.30 L 787.40 675.60 L 791.80 675.40 L 794.60 674.20 L 797.90 673.60 L 800.40 673.80 L 808.10 675.80 Z" fill="#f0d1cd" fill-rule="nonzero" node-id="218" stroke="none" target-height="10.800049" target-width="33.099976" target-x="775" target-y="673.6"></path><path d="M 808.10 675.80 L 814.40 676.50 L 820.20 677.70 L 825.70 679.20 L 830.70 681.20 L 835.50 683.50 L 840.00 686.30 L 844.20 689.50 L 848.10 693.10 L 854.30 699.90 L 865.70 714.20 L 870.90 721.60 L 871.20 723.40 L 870.90 725.00 L 829.00 724.80 L 825.60 721.40 L 822.60 717.80 L 820.00 713.90 L 817.70 709.70 L 812.80 697.70 L 806.10 682.80 L 804.50 680.70 L 802.80 679.30 L 800.90 678.40 L 798.90 677.90 L 796.60 678.00 L 800.50 676.80 L 804.30 676.00 L 808.10 675.80 Z" fill="#baa4ab" fill-rule="nonzero" node-id="220" stroke="none" target-height="49.200012" target-width="74.60004" target-x="796.6" target-y="675.8"></path><path d="M 829.00 724.70 L 758.30 725.20 L 756.60 724.60 L 755.70 723.00 L 755.90 721.60 L 774.80 684.50 L 796.60 677.80 L 798.90 677.70 L 800.90 678.20 L 802.80 679.10 L 804.50 680.50 L 806.10 682.60 L 807.60 685.50 L 817.70 709.50 L 819.90 713.70 L 822.50 717.60 L 825.50 721.30 L 829.00 724.70 Z" fill="#958a9c" fill-rule="nonzero" node-id="222" stroke="none" target-height="47.5" target-width="73.29999" target-x="755.7" target-y="677.7"></path><path d="M 268.10 683.70 L 267.90 683.20 L 268.70 682.20 L 269.80 681.40 L 273.30 680.60 L 277.90 680.90 L 281.60 682.00 L 286.30 683.90 L 290.20 686.00 L 293.30 688.30 L 296.40 691.70 L 297.90 695.00 L 298.00 696.40 L 297.60 697.60 L 297.10 697.80 L 268.10 683.70 Z" fill="#879e86" fill-rule="nonzero" node-id="224" stroke="none" target-height="17.200012" target-width="30.100006" target-x="267.9" target-y="680.6"></path><path d="M 739.80 700.90 L 734.20 700.50 L 728.70 699.60 L 723.40 698.10 L 715.90 695.40 L 712.80 695.20 L 708.70 695.40 L 703.30 696.30 L 709.80 692.00 L 715.50 689.20 L 718.30 688.40 L 722.00 688.20 L 723.70 688.60 L 726.50 689.90 L 730.00 692.20 L 734.40 695.80 L 739.80 700.90 Z" fill="#ead3be" fill-rule="nonzero" node-id="226" stroke="none" target-height="12.700012" target-width="36.5" target-x="703.3" target-y="688.2"></path><path d="M 739.80 700.90 L 743.10 703.20 L 746.00 706.00 L 748.50 709.30 L 750.50 713.00 L 752.30 717.30 L 753.90 723.10 L 753.10 724.80 L 752.30 725.30 L 746.70 726.00 L 728.90 726.10 L 693.30 725.50 L 675.50 724.80 L 673.60 724.40 L 673.80 722.20 L 674.20 721.20 L 679.60 714.10 L 683.40 709.80 L 688.70 705.00 L 703.10 696.40 L 707.50 695.50 L 713.90 695.20 L 716.20 695.50 L 723.30 698.10 L 728.60 699.50 L 734.10 700.50 L 739.80 700.90 Z" fill="#9998af" fill-rule="nonzero" node-id="228" stroke="none" target-height="30.899963" target-width="80.30005" target-x="673.6" target-y="695.2"></path><path d="M 463.20 723.50 L 455.30 725.00 L 451.30 725.10 L 447.30 724.90 L 439.50 723.30 L 441.50 721.40 L 445.60 719.00 L 447.70 718.40 L 449.90 718.30 L 456.20 719.90 L 459.80 721.50 L 463.20 723.50 Z" fill="#ffbca9" fill-rule="nonzero" node-id="230" stroke="none" target-height="6.799988" target-width="23.700012" target-x="439.5" target-y="718.3"></path><path d="M 559.30 719.20 L 560.20 721.20 L 561.50 722.80 L 539.90 724.00 L 529.20 724.40 L 481.20 724.70 L 480.50 724.40 L 480.20 723.70 L 480.40 722.50 L 481.10 721.40 L 482.30 721.10 L 499.80 720.60 L 533.80 720.70 L 552.90 720.00 L 558.00 720.80 L 558.90 720.30 L 559.30 719.20 Z" fill="#f0d1cd" fill-rule="nonzero" node-id="232" stroke="none" target-height="5.5" target-width="81.29999" target-x="480.2" target-y="719.2"></path><path d="M 674.90 720.10 L 673.70 722.00 L 673.70 724.20 L 671.80 723.80 L 658.50 724.50 L 645.20 724.60 L 631.90 724.00 L 618.60 722.80 L 621.50 721.40 L 674.90 720.10 Z" fill="#fbb2b1" fill-rule="nonzero" node-id="234" stroke="none" target-height="4.5" target-width="56.30005" target-x="618.6" target-y="720.1"></path><path d="M 154.30 721.30 L 208.00 720.80 L 209.20 721.20 L 209.70 722.20 L 209.30 723.40 L 208.30 723.90 L 154.60 724.40 L 153.40 724.00 L 152.90 723.00 L 153.10 721.80 L 154.30 721.30 Z" fill="#f0d1cd" fill-rule="nonzero" node-id="236" stroke="none" target-height="3.6000366" target-width="56.800003" target-x="152.9" target-y="720.8"></path><g node-id="244"><path d="M 811.70 411.30 L 811.80 416.50 L 810.50 421.10 L 808.00 424.80 L 806.40 426.20 L 804.50 427.20 L 802.40 427.80 L 800.20 427.90 L 798.10 427.60 L 796.10 426.90 L 792.50 424.30 L 789.70 420.40 L 788.10 415.50 L 787.90 410.30 L 789.20 405.70 L 791.70 402.00 L 793.40 400.60 L 795.30 399.60 L 797.30 399.00 L 799.50 398.90 L 801.60 399.20 L 803.70 399.90 L 807.30 402.50 L 810.10 406.40 L 811.70 411.30 Z" fill="#ffb15c" fill-rule="nonzero" group-id="3" node-id="240" stroke="none" target-height="29" target-width="23.899963" target-x="787.9" target-y="398.9"></path></g></svg>