<svg height="1024" node-id="1" sillyvg="true" template-height="1024" template-width="1024" version="1.1" viewBox="0 0 1024 1024" width="1024" xmlns="http://www.w3.org/2000/svg" xmlns:xlink="http://www.w3.org/1999/xlink"><defs node-id="65"></defs><path d="M 591.30 215.60 L 591.00 211.00 L 590.10 208.30 L 589.80 208.30 L 587.70 226.90 L 583.90 244.20 L 582.60 248.90 L 575.90 264.10 L 568.30 279.00 L 567.10 281.60 L 567.00 282.90 L 568.30 282.50 L 574.40 277.10 L 576.70 275.50 L 588.20 269.40 L 591.20 268.10 L 596.90 266.50 L 602.70 265.30 L 608.60 264.50 L 615.30 264.20 L 616.90 265.40 L 617.10 266.30 L 616.90 269.70 L 615.60 272.30 L 612.20 274.60 L 593.40 281.50 L 584.40 287.40 L 576.70 290.00 L 574.00 291.30 L 571.60 293.00 L 568.30 295.90 L 567.00 296.30 L 559.80 296.70 L 558.10 297.80 L 539.50 319.80 L 533.30 326.40 L 526.80 332.60 L 516.30 341.70 L 509.60 348.60 L 494.50 367.50 L 481.90 382.40 L 479.00 385.20 L 476.20 387.30 L 473.40 388.80 L 470.60 389.70 L 467.70 390.00 L 464.80 389.90 L 461.70 389.10 L 458.40 387.80 L 454.80 385.70 L 451.70 383.20 L 449.30 380.60 L 447.50 378.00 L 446.30 375.30 L 445.50 372.50 L 445.30 369.50 L 445.60 366.30 L 447.10 360.60 L 447.00 360.10 L 446.50 360.30 L 441.70 366.30 L 438.10 369.70 L 434.10 372.70 L 430.90 374.60 L 427.60 376.10 L 420.80 378.10 L 417.30 378.60 L 413.70 378.60 L 410.20 378.30 L 406.60 377.50 L 403.20 376.30 L 399.80 374.70 L 396.50 372.60 L 393.20 369.90 L 390.80 366.80 L 388.90 363.50 L 387.50 360.10 L 387.50 358.80 L 389.60 357.00 L 390.50 355.60 L 390.60 355.00 L 390.20 354.30 L 379.50 356.20 L 375.30 356.60 L 371.30 356.50 L 367.70 355.90 L 360.60 353.40 L 357.20 351.70 L 352.30 348.60 L 345.50 343.60 L 342.80 339.70 L 341.90 336.80 L 342.30 334.80 L 343.70 332.30 L 345.50 330.20 L 347.70 328.60 L 356.10 323.70 L 364.80 319.40 L 373.90 315.50 L 374.60 315.00 L 374.70 314.10 L 368.30 308.50 L 362.20 304.10 L 355.80 300.30 L 353.80 299.50 L 353.30 299.60 L 353.40 300.10 L 354.60 301.80 L 358.20 304.80 L 355.30 303.30 L 352.70 301.30 L 345.40 294.20 L 341.00 289.40 L 337.00 284.20 L 333.30 278.70 L 330.10 272.90 L 327.20 266.90 L 324.80 260.80 L 322.80 254.40 L 321.30 247.90 L 320.70 242.20 L 321.10 241.40 L 321.90 241.00 L 323.40 241.00 L 324.60 241.60 L 325.00 242.10 L 325.80 246.20 L 326.60 247.30 L 327.60 248.10 L 329.00 248.60 L 336.10 248.90 L 341.20 249.50 L 346.30 250.50 L 351.30 252.00 L 356.10 253.90 L 361.90 256.80 L 363.60 256.70 L 364.80 255.40 L 365.20 254.10 L 369.50 229.30 L 371.30 223.00 L 373.50 216.80 L 376.30 210.80 L 379.60 205.10 L 383.30 199.70 L 387.40 194.60 L 392.00 189.80 L 392.80 189.10 L 393.80 188.90 L 394.90 189.10 L 395.90 189.80 L 400.10 193.70 L 404.60 197.10 L 409.30 200.20 L 414.30 202.90 L 414.60 202.90 L 415.20 201.30 L 414.60 200.20 L 413.20 198.80 L 412.50 197.50 L 412.70 195.90 L 414.00 196.30 L 418.50 200.00 L 422.20 203.70 L 428.90 211.70 L 435.10 220.70 L 436.00 221.40 L 437.10 221.30 L 440.50 218.50 L 444.20 216.40 L 448.10 214.80 L 452.10 213.60 L 454.40 213.80 L 456.80 215.50 L 458.30 216.00 L 459.80 216.20 L 462.10 215.90 L 463.80 214.80 L 470.30 208.80 L 473.90 206.20 L 481.70 201.70 L 485.80 199.90 L 494.80 197.00 L 503.70 194.50 L 505.20 194.40 L 506.60 194.70 L 507.90 195.40 L 508.20 195.90 L 508.00 196.90 L 504.30 197.30 L 498.10 199.00 L 483.20 206.00 L 476.10 210.00 L 469.20 214.50 L 468.70 215.30 L 468.90 216.30 L 469.70 217.30 L 484.40 210.80 L 507.40 201.60 L 511.00 200.80 L 519.20 200.50 L 519.80 200.20 L 520.10 199.20 L 518.50 198.30 L 517.10 196.70 L 517.40 195.40 L 518.90 194.80 L 520.00 194.80 L 521.90 195.70 L 525.60 200.20 L 528.40 206.20 L 530.50 214.90 L 531.50 215.40 L 545.60 208.30 L 552.40 205.40 L 566.50 200.50 L 578.20 197.40 L 582.90 196.70 L 587.70 196.30 L 588.80 196.50 L 590.40 197.70 L 591.00 198.70 L 591.70 202.40 L 592.10 206.70 L 591.90 211.10 L 591.30 215.60 Z" fill="#c4d2ac" fill-rule="nonzero" node-id="69" stroke="none" target-height="201.1" target-width="296.39996" target-x="320.7" target-y="188.9"/><path d="M 591.30 215.60 L 590.00 227.60 L 588.80 233.40 L 586.50 242.00 L 583.80 250.50 L 577.30 267.10 L 576.80 269.20 L 577.50 269.80 L 578.30 269.70 L 585.60 266.60 L 591.70 264.50 L 598.00 262.80 L 604.40 261.60 L 610.80 261.00 L 618.90 261.10 L 621.30 262.20 L 622.80 264.10 L 623.20 265.40 L 623.10 268.20 L 620.40 274.40 L 617.80 278.70 L 616.70 277.50 L 615.70 277.10 L 614.80 277.10 L 614.00 277.50 L 613.10 278.50 L 611.00 282.40 L 609.40 284.40 L 599.50 296.10 L 591.70 304.60 L 585.70 310.60 L 576.70 317.90 L 572.00 321.00 L 562.10 326.10 L 546.10 332.10 L 530.30 338.60 L 528.70 338.60 L 528.20 338.30 L 527.90 337.40 L 528.50 335.60 L 536.80 327.90 L 538.70 324.20 L 542.60 320.80 L 544.40 318.80 L 545.40 317.00 L 545.80 315.50 L 545.70 314.10 L 545.20 312.70 L 558.00 297.50 L 559.10 296.70 L 560.40 296.30 L 566.90 296.00 L 568.20 295.60 L 571.50 292.70 L 573.90 291.00 L 576.60 289.70 L 584.10 287.10 L 586.50 285.80 L 593.30 281.10 L 612.10 274.30 L 615.50 272.00 L 616.50 270.80 L 617.00 269.40 L 617.20 267.90 L 617.00 266.30 L 616.80 265.30 L 615.50 264.10 L 608.30 264.20 L 602.50 264.90 L 596.70 266.20 L 591.10 267.80 L 588.10 269.20 L 576.50 275.30 L 574.30 276.80 L 568.20 282.30 L 566.80 282.80 L 566.90 281.30 L 575.70 263.90 L 582.50 248.60 L 584.00 244.00 L 587.60 226.90 L 589.70 208.30 L 590.00 208.30 L 590.60 209.60 L 591.30 215.60 Z" fill="#879e86" fill-rule="nonzero" node-id="71" stroke="none" target-height="130.3" target-width="95.29999" target-x="527.9" target-y="208.3"/><path d="M 617.80 278.40 L 602.00 300.10 L 591.00 310.30 L 585.30 315.00 L 574.70 322.60 L 564.70 328.10 L 556.80 331.70 L 532.10 341.40 L 529.10 342.40 L 519.30 345.00 L 517.10 346.10 L 514.90 347.80 L 512.50 350.30 L 497.50 370.80 L 489.60 380.30 L 485.70 384.50 L 481.60 388.20 L 477.80 390.90 L 475.20 392.30 L 472.70 393.10 L 470.50 393.40 L 466.40 393.20 L 462.60 392.60 L 459.10 391.60 L 456.00 390.20 L 453.10 388.40 L 450.40 386.30 L 447.90 383.70 L 445.70 380.70 L 443.50 377.10 L 441.60 372.90 L 440.80 372.30 L 439.20 372.60 L 437.00 374.90 L 432.00 378.80 L 429.20 380.30 L 423.30 382.40 L 417.10 383.30 L 413.90 383.30 L 409.90 382.70 L 406.00 381.70 L 402.30 380.20 L 398.70 378.40 L 395.40 376.20 L 392.30 373.70 L 389.50 370.90 L 384.10 363.20 L 383.50 362.90 L 372.70 361.60 L 363.10 359.20 L 353.70 355.40 L 351.10 354.00 L 346.60 350.30 L 342.60 345.50 L 340.90 342.60 L 339.70 339.60 L 339.40 337.50 L 339.50 335.60 L 340.10 333.60 L 341.70 330.80 L 343.60 328.40 L 348.40 324.40 L 368.30 312.80 L 368.90 312.20 L 368.90 311.60 L 368.30 311.00 L 356.00 301.90 L 354.30 300.30 L 353.10 298.50 L 353.10 298.00 L 353.60 297.90 L 360.50 301.60 L 365.10 304.70 L 369.60 308.10 L 373.90 311.90 L 374.50 313.10 L 373.60 314.00 L 360.30 320.10 L 353.70 323.50 L 347.40 327.10 L 344.30 329.90 L 342.00 333.30 L 341.50 335.10 L 342.40 338.40 L 343.60 340.40 L 345.20 342.20 L 347.10 343.70 L 356.90 350.00 L 360.30 351.70 L 367.40 354.20 L 371.00 354.80 L 375.00 355.00 L 379.20 354.70 L 390.10 352.80 L 390.50 353.40 L 389.90 354.80 L 387.50 356.80 L 387.10 357.90 L 388.20 361.30 L 391.00 366.20 L 392.90 368.40 L 396.20 371.10 L 399.50 373.20 L 402.90 374.80 L 406.30 376.00 L 409.90 376.70 L 413.40 377.10 L 417.00 377.00 L 420.50 376.60 L 425.10 375.40 L 429.50 373.60 L 433.80 371.20 L 437.80 368.20 L 441.40 364.70 L 446.60 358.60 L 445.30 364.80 L 445.00 368.10 L 445.30 371.10 L 446.00 374.00 L 447.20 376.70 L 449.00 379.30 L 451.40 381.80 L 454.50 384.20 L 457.70 386.10 L 460.70 387.50 L 463.50 388.30 L 466.20 388.70 L 468.80 388.60 L 471.30 388.10 L 473.80 387.10 L 476.40 385.60 L 479.00 383.60 L 481.60 380.90 L 494.30 366.10 L 509.30 347.10 L 516.00 340.30 L 526.40 331.20 L 532.90 325.00 L 539.10 318.40 L 545.00 311.50 L 545.60 313.00 L 545.60 314.60 L 545.00 316.30 L 542.20 319.70 L 538.50 322.90 L 536.60 326.40 L 528.30 334.10 L 527.60 335.00 L 528.00 336.80 L 528.50 337.20 L 529.40 337.40 L 545.90 330.60 L 561.90 324.60 L 571.90 319.50 L 576.50 316.40 L 586.00 308.60 L 592.90 301.70 L 600.20 293.70 L 609.20 282.90 L 611.90 278.70 L 613.00 277.60 L 614.00 277.00 L 615.90 276.90 L 617.80 278.40 Z" fill="#706e6d" fill-rule="nonzero" node-id="73" stroke="none" target-height="116.5" target-width="278.4" target-x="339.4" target-y="276.9"/><path d="M 350.30 297.70 L 352.60 300.20 L 355.30 302.20 L 358.30 303.70 L 368.70 311.40 L 369.30 312.00 L 369.30 312.60 L 368.70 313.20 L 348.80 324.80 L 346.20 326.60 L 344.00 328.80 L 342.10 331.30 L 340.50 334.00 L 339.90 336.00 L 339.80 337.90 L 340.10 340.00 L 341.30 343.00 L 345.10 348.60 L 349.20 352.70 L 354.10 355.80 L 363.30 359.40 L 372.90 361.90 L 383.70 363.30 L 384.90 364.10 L 390.10 371.30 L 392.80 374.10 L 395.90 376.70 L 399.20 378.80 L 402.70 380.70 L 406.40 382.10 L 410.30 383.10 L 421.00 384.80 L 431.80 386.10 L 435.70 387.20 L 439.30 388.80 L 443.50 391.10 L 458.20 400.80 L 460.90 401.90 L 463.70 402.50 L 470.60 402.90 L 477.50 402.80 L 484.30 402.10 L 491.10 401.00 L 490.50 401.60 L 490.80 402.50 L 494.00 404.80 L 496.40 407.50 L 510.80 412.90 L 511.70 413.60 L 517.80 421.50 L 535.60 429.30 L 551.20 439.70 L 566.20 451.00 L 564.40 455.30 L 563.40 459.50 L 562.90 463.60 L 563.10 467.50 L 563.80 471.40 L 565.20 475.30 L 567.30 479.30 L 570.10 483.40 L 572.20 485.80 L 574.60 487.80 L 577.20 489.40 L 580.00 490.70 L 583.20 491.70 L 587.60 492.50 L 591.80 492.80 L 599.70 492.40 L 603.60 491.70 L 610.30 489.20 L 613.30 487.50 L 616.10 485.50 L 618.40 483.20 L 620.40 480.70 L 622.00 478.00 L 623.10 475.00 L 623.70 471.80 L 623.90 468.40 L 623.50 464.70 L 622.60 461.10 L 621.00 457.30 L 618.70 453.10 L 615.60 448.60 L 622.10 454.20 L 629.40 458.50 L 637.30 461.50 L 645.70 462.90 L 651.90 493.30 L 646.40 492.60 L 640.80 492.40 L 635.30 492.70 L 629.80 493.40 L 624.30 494.60 L 614.50 497.50 L 610.40 499.20 L 606.60 501.50 L 603.10 504.30 L 599.60 508.30 L 597.50 513.10 L 596.60 518.30 L 596.70 522.10 L 598.10 529.40 L 599.40 532.90 L 601.00 536.30 L 605.30 542.40 L 607.90 545.10 L 611.50 547.90 L 615.30 550.10 L 619.50 551.80 L 623.80 553.00 L 628.10 553.80 L 637.10 554.10 L 641.40 553.60 L 645.60 552.80 L 649.80 551.40 L 653.70 549.70 L 657.40 547.60 L 660.80 545.00 L 663.90 542.10 L 669.50 535.20 L 671.50 531.70 L 672.90 528.20 L 673.70 524.70 L 674.00 521.10 L 673.70 517.60 L 673.00 514.00 L 671.70 510.20 L 669.70 506.10 L 667.10 501.90 L 664.00 495.80 L 662.00 493.00 L 661.00 492.30 L 659.90 492.00 L 658.70 492.10 L 659.00 485.60 L 673.00 492.40 L 674.10 493.10 L 676.00 495.10 L 686.20 499.00 L 699.40 505.20 L 702.30 506.20 L 704.60 506.60 L 706.50 506.50 L 708.00 506.10 L 709.30 505.20 L 709.90 511.10 L 710.00 516.90 L 709.80 522.70 L 708.10 534.30 L 705.00 545.50 L 697.90 564.30 L 698.20 564.90 L 698.60 565.00 L 702.30 564.80 L 703.30 565.30 L 704.00 566.20 L 697.90 566.70 L 696.50 567.70 L 673.90 588.80 L 672.60 590.40 L 671.70 592.20 L 671.10 595.00 L 671.70 595.30 L 680.40 588.60 L 688.60 582.80 L 697.30 577.40 L 706.30 572.50 L 707.40 571.50 L 708.70 568.90 L 710.60 570.60 L 712.10 572.60 L 713.20 574.90 L 716.40 582.70 L 719.10 590.60 L 721.50 598.60 L 723.40 606.70 L 725.00 614.90 L 726.10 623.10 L 726.90 631.40 L 727.20 639.80 L 725.80 639.30 L 724.20 639.20 L 722.70 639.50 L 720.30 641.10 L 715.20 643.20 L 709.30 646.50 L 706.90 647.50 L 698.70 649.30 L 689.90 650.20 L 687.50 651.20 L 685.60 652.60 L 684.10 654.40 L 683.00 656.40 L 682.30 658.80 L 682.10 663.90 L 682.60 666.70 L 683.80 670.10 L 688.60 681.80 L 689.90 687.50 L 690.00 690.50 L 686.80 693.00 L 685.50 694.70 L 680.00 697.80 L 676.90 699.10 L 673.70 699.80 L 671.60 699.90 L 667.60 699.20 L 666.50 698.40 L 665.80 697.10 L 662.80 686.40 L 661.70 679.00 L 658.50 664.40 L 656.40 657.20 L 651.20 643.30 L 648.20 637.40 L 644.70 631.90 L 641.00 626.60 L 636.80 621.60 L 632.40 617.00 L 627.60 612.60 L 622.50 608.70 L 617.20 605.00 L 611.60 601.80 L 605.80 598.90 L 599.80 596.50 L 593.50 594.50 L 584.70 591.80 L 575.80 589.60 L 566.90 587.90 L 557.90 586.50 L 548.90 585.60 L 506.60 583.20 L 510.60 581.20 L 514.20 578.70 L 521.70 571.70 L 525.80 567.30 L 529.40 562.40 L 532.60 557.20 L 535.30 551.70 L 538.30 543.40 L 538.50 540.70 L 538.30 538.10 L 537.50 535.60 L 536.20 533.20 L 534.50 531.10 L 530.30 527.30 L 525.80 523.90 L 521.10 521.00 L 516.10 518.60 L 512.70 515.60 L 509.40 513.40 L 506.20 511.80 L 503.00 510.80 L 499.80 510.40 L 496.50 510.60 L 490.80 508.20 L 487.70 507.50 L 484.60 507.30 L 482.80 507.90 L 481.10 511.10 L 479.50 513.40 L 475.30 517.40 L 470.00 520.10 L 467.50 520.90 L 465.50 521.00 L 464.10 520.80 L 461.60 519.20 L 459.50 515.70 L 457.30 510.80 L 454.80 507.40 L 451.90 505.80 L 450.20 505.50 L 447.90 505.70 L 442.00 507.40 L 439.30 508.90 L 436.80 510.90 L 434.70 513.30 L 433.10 516.00 L 431.00 522.00 L 429.90 524.00 L 428.70 525.50 L 427.10 526.60 L 425.10 527.40 L 422.40 527.80 L 420.50 527.20 L 418.40 524.20 L 417.20 521.70 L 416.40 519.10 L 415.90 515.40 L 414.80 514.30 L 413.60 514.10 L 407.80 517.10 L 397.80 523.40 L 388.30 530.80 L 383.90 534.90 L 381.80 535.40 L 381.00 536.30 L 380.70 538.70 L 380.00 538.50 L 367.70 526.70 L 354.50 516.60 L 345.80 509.40 L 343.60 507.00 L 337.50 498.30 L 336.90 498.00 L 332.80 497.20 L 330.50 495.60 L 337.10 493.40 L 342.10 491.30 L 345.10 489.70 L 348.90 486.70 L 351.90 483.00 L 354.20 479.50 L 355.90 476.10 L 357.10 472.80 L 357.70 469.50 L 357.90 466.30 L 357.60 463.10 L 356.90 459.90 L 355.70 456.60 L 353.90 453.30 L 351.60 449.80 L 348.60 446.20 L 347.20 445.00 L 343.20 442.80 L 339.60 441.70 L 334.90 440.80 L 329.70 440.40 L 325.00 440.70 L 320.70 441.40 L 316.80 442.70 L 313.20 444.50 L 309.90 446.80 L 306.90 449.70 L 303.00 454.20 L 300.10 458.40 L 298.10 462.40 L 296.80 466.10 L 296.10 469.70 L 296.10 473.20 L 296.60 476.60 L 297.80 480.10 L 299.60 483.50 L 302.10 487.10 L 305.50 490.80 L 311.40 495.70 L 311.30 496.20 L 310.30 497.10 L 307.50 498.50 L 307.50 499.90 L 306.50 499.30 L 303.60 499.70 L 293.50 496.10 L 290.50 494.40 L 287.00 493.10 L 283.20 492.30 L 278.80 492.00 L 273.80 492.20 L 268.20 493.10 L 272.10 455.30 L 272.10 453.80 L 271.70 452.90 L 271.10 452.30 L 270.10 452.10 L 268.50 452.30 L 266.30 454.20 L 264.00 458.30 L 261.90 464.20 L 260.30 470.20 L 259.30 476.40 L 258.80 482.70 L 258.70 488.90 L 259.20 495.20 L 257.90 497.20 L 256.70 498.40 L 255.20 499.00 L 253.10 499.00 L 252.40 498.30 L 252.00 496.10 L 250.30 494.50 L 248.40 493.30 L 246.30 492.50 L 242.50 492.00 L 241.10 491.60 L 238.30 489.20 L 237.50 489.00 L 235.90 489.50 L 235.30 490.10 L 235.30 491.30 L 235.00 491.30 L 231.60 490.90 L 225.10 489.40 L 221.90 488.30 L 219.40 486.60 L 218.20 486.80 L 216.60 488.50 L 216.20 487.10 L 215.90 481.60 L 214.00 481.60 L 213.50 489.20 L 212.90 491.80 L 210.80 496.90 L 209.40 499.20 L 204.00 506.10 L 197.10 515.80 L 193.60 519.10 L 191.50 520.30 L 198.00 502.40 L 200.10 498.30 L 202.70 494.60 L 208.50 488.00 L 211.00 484.70 L 213.10 481.10 L 214.90 477.40 L 217.80 465.60 L 218.70 459.60 L 219.10 453.60 L 220.40 453.20 L 222.70 451.50 L 219.70 468.20 L 220.20 469.30 L 221.50 469.70 L 222.10 469.40 L 226.40 454.80 L 230.90 441.00 L 235.70 428.00 L 240.80 415.70 L 246.10 404.20 L 251.60 393.40 L 257.30 383.20 L 263.20 373.60 L 269.10 365.10 L 275.80 356.60 L 283.20 348.10 L 291.30 339.70 L 300.30 331.30 L 310.20 322.90 L 321.00 314.50 L 332.80 306.10 L 334.80 306.40 L 336.30 306.10 L 337.50 305.40 L 338.50 304.20 L 339.20 302.20 L 339.60 299.30 L 343.80 298.80 L 349.30 299.10 L 350.10 298.60 L 350.30 297.70 Z M 406.80 491.50 L 407.50 490.50 L 407.60 489.20 L 406.50 484.70 L 405.40 482.30 L 404.30 480.70 L 403.30 479.80 L 402.00 479.60 L 401.30 480.80 L 401.30 482.00 L 402.30 486.40 L 404.80 490.40 L 405.70 491.30 L 406.80 491.50 Z M 510.60 483.70 L 510.00 482.50 L 508.80 481.90 L 508.10 482.10 L 507.20 483.00 L 507.00 483.70 L 507.60 484.90 L 508.10 485.30 L 509.50 485.50 L 510.60 484.70 L 510.90 484.00 L 510.60 483.70 Z" fill="#a7b9ac" fill-rule="nonzero" node-id="75" stroke="none" target-height="402.2" target-width="535.7" target-x="191.5" target-y="297.7"/><path d="M 340.10 299.80 L 339.70 302.60 L 339.00 304.50 L 338.10 305.70 L 336.90 306.50 L 335.30 306.80 L 333.30 306.60 L 324.40 310.30 L 315.80 314.60 L 307.50 319.30 L 299.60 324.60 L 292.00 330.30 L 284.80 336.50 L 278.00 343.20 L 271.70 350.30 L 265.80 357.80 L 265.70 355.00 L 265.30 354.60 L 264.00 354.80 L 260.60 356.60 L 259.40 356.40 L 222.30 327.40 L 222.10 325.10 L 220.30 322.80 L 221.10 321.70 L 221.70 321.30 L 222.30 321.40 L 243.30 334.90 L 254.40 343.30 L 262.20 350.90 L 263.70 351.70 L 264.60 351.70 L 265.80 350.90 L 272.90 343.10 L 280.40 335.70 L 288.40 328.80 L 296.70 322.30 L 305.30 316.30 L 314.30 310.90 L 323.60 305.90 L 333.30 301.50 L 340.10 299.80 Z" fill="#a5c9e0" fill-rule="nonzero" node-id="77" stroke="none" target-height="58" target-width="119.8" target-x="220.3" target-y="299.8"/><path d="M 602.00 300.10 L 626.70 315.90 L 627.70 316.80 L 628.70 319.20 L 628.80 320.40 L 628.00 323.10 L 628.30 324.30 L 636.00 331.60 L 642.70 338.80 L 648.90 346.40 L 654.80 354.30 L 660.10 362.50 L 665.00 371.10 L 669.50 379.90 L 678.90 402.90 L 683.90 416.80 L 688.40 430.80 L 692.60 445.70 L 693.80 446.00 L 694.80 445.30 L 695.00 444.90 L 694.60 443.20 L 694.80 442.30 L 700.50 459.60 L 709.40 505.10 L 707.90 505.90 L 705.90 506.30 L 703.40 506.10 L 700.20 505.20 L 689.40 500.20 L 676.10 495.00 L 673.10 492.30 L 659.10 485.50 L 658.00 473.40 L 656.90 467.40 L 655.30 461.40 L 653.40 455.70 L 651.10 450.10 L 650.20 448.40 L 649.20 447.30 L 648.20 446.60 L 647.00 446.40 L 644.50 447.00 L 643.60 447.90 L 643.00 449.10 L 643.00 450.40 L 645.10 462.90 L 636.70 461.50 L 628.70 458.50 L 621.40 454.20 L 611.60 445.60 L 607.70 443.20 L 603.50 441.20 L 599.10 439.80 L 594.50 439.00 L 589.90 438.70 L 586.30 439.00 L 579.60 440.50 L 576.40 441.80 L 573.40 443.50 L 570.60 445.50 L 568.00 448.00 L 565.60 451.00 L 555.70 443.50 L 545.50 436.30 L 535.00 429.30 L 526.90 425.50 L 517.30 421.50 L 510.40 412.80 L 495.80 407.50 L 492.70 404.20 L 489.80 402.20 L 490.10 401.20 L 490.50 401.00 L 483.70 402.10 L 476.80 402.80 L 469.90 402.90 L 463.10 402.50 L 460.20 401.90 L 457.50 400.80 L 447.00 393.80 L 438.70 388.80 L 435.90 387.60 L 430.00 385.90 L 413.70 383.70 L 420.00 383.40 L 426.10 381.90 L 431.80 379.20 L 436.80 375.30 L 439.00 373.00 L 440.20 372.60 L 441.00 373.20 L 443.30 378.20 L 445.70 382.00 L 448.30 385.30 L 451.20 388.00 L 454.30 390.10 L 457.70 391.80 L 461.40 393.10 L 465.50 393.80 L 470.00 394.10 L 472.20 393.80 L 474.70 393.00 L 477.30 391.60 L 481.10 388.90 L 485.20 385.20 L 489.10 381.00 L 496.90 371.50 L 512.00 351.00 L 514.40 348.40 L 516.60 346.80 L 521.10 344.90 L 528.60 343.10 L 531.60 342.10 L 548.10 335.80 L 556.30 332.40 L 569.30 326.20 L 578.90 320.10 L 585.10 315.30 L 591.00 310.40 L 602.00 300.10 Z" fill="#9bb9c4" fill-rule="nonzero" node-id="79" stroke="none" target-height="206.19998" target-width="295.7" target-x="413.7" target-y="300.1"/><path d="M 333.30 306.70 L 321.90 314.90 L 311.40 323.10 L 301.70 331.20 L 292.90 339.30 L 286.00 346.30 L 279.70 353.20 L 273.80 360.20 L 268.50 367.20 L 263.70 374.20 L 257.50 384.10 L 251.60 394.70 L 245.90 405.90 L 240.50 417.90 L 235.60 429.90 L 231.00 442.50 L 226.70 455.90 L 222.40 470.40 L 221.10 470.00 L 220.40 469.50 L 220.20 468.80 L 223.20 452.10 L 225.80 440.70 L 228.90 429.40 L 232.60 418.30 L 236.80 407.30 L 241.50 396.50 L 246.70 386.00 L 252.40 375.80 L 258.60 365.80 L 271.70 350.10 L 278.10 343.00 L 285.00 336.50 L 292.20 330.30 L 299.80 324.60 L 307.70 319.40 L 315.90 314.70 L 324.50 310.40 L 333.30 306.70 Z" fill="#f6f7f9" fill-rule="nonzero" node-id="81" stroke="none" target-height="163.69998" target-width="113.09999" target-x="220.2" target-y="306.7"/><path d="M 737.40 352.20 L 737.60 353.40 L 737.20 355.00 L 735.40 355.30 L 735.00 355.80 L 735.40 374.10 L 735.50 400.50 L 734.40 413.00 L 733.40 418.70 L 732.20 423.40 L 729.70 430.30 L 728.20 433.20 L 724.30 438.50 L 715.10 445.00 L 710.30 447.80 L 705.30 450.40 L 704.30 450.60 L 702.30 450.00 L 701.40 448.60 L 699.00 438.20 L 696.10 427.80 L 692.70 417.60 L 688.90 407.50 L 682.00 390.60 L 667.20 357.50 L 667.00 356.20 L 667.20 354.80 L 668.90 351.10 L 668.40 350.30 L 667.50 350.00 L 668.70 348.20 L 674.00 344.00 L 685.10 336.50 L 690.90 333.30 L 699.00 329.40 L 707.30 326.00 L 716.00 323.20 L 721.40 322.10 L 727.00 321.40 L 729.50 321.80 L 730.60 322.50 L 732.10 324.40 L 737.40 352.20 Z" fill="#8abbda" fill-rule="nonzero" node-id="83" stroke="none" target-height="129.20001" target-width="70.599976" target-x="667" target-y="321.4"/><path d="M 222.30 327.80 L 258.90 356.40 L 259.40 356.70 L 260.80 356.90 L 264.00 355.20 L 265.30 355.00 L 265.70 355.40 L 265.80 358.20 L 258.70 366.50 L 259.30 365.20 L 259.20 364.50 L 258.60 364.00 L 257.20 363.80 L 256.20 364.00 L 255.40 364.70 L 250.20 372.80 L 240.70 389.50 L 232.40 406.90 L 228.60 415.90 L 226.10 422.60 L 224.00 429.40 L 222.20 436.30 L 220.90 443.30 L 220.40 444.70 L 219.30 445.80 L 217.50 446.40 L 215.70 446.10 L 207.40 440.40 L 199.60 433.90 L 195.90 430.30 L 192.90 426.60 L 191.20 424.10 L 189.30 419.20 L 188.10 413.00 L 187.40 406.00 L 187.10 398.20 L 187.20 389.60 L 188.00 379.90 L 189.30 369.20 L 194.00 361.60 L 199.00 354.20 L 204.30 347.20 L 210.10 340.40 L 216.00 333.90 L 222.30 327.80 Z" fill="#56aac1" fill-rule="nonzero" node-id="85" stroke="none" target-height="118.600006" target-width="78.69998" target-x="187.1" target-y="327.8"/><path d="M 667.80 349.80 L 668.70 350.10 L 669.30 351.00 L 667.80 354.60 L 667.60 356.00 L 667.80 357.30 L 678.90 382.10 L 689.50 407.30 L 693.30 417.40 L 696.70 427.60 L 699.60 438.00 L 702.00 448.40 L 702.40 449.40 L 703.20 450.10 L 704.20 450.50 L 705.60 450.50 L 715.70 444.80 L 724.90 438.30 L 728.90 433.00 L 730.30 430.10 L 732.70 423.20 L 733.90 418.60 L 735.60 407.00 L 736.20 392.50 L 735.60 355.90 L 736.20 355.30 L 737.80 355.30 L 738.30 355.00 L 738.50 353.80 L 738.30 352.60 L 740.60 375.00 L 741.10 385.40 L 740.80 401.60 L 739.20 414.40 L 736.20 427.30 L 734.10 434.10 L 732.80 437.20 L 731.20 439.80 L 729.40 441.90 L 726.20 444.70 L 722.70 447.00 L 711.80 452.70 L 708.70 454.80 L 706.80 456.40 L 703.70 460.60 L 701.60 459.70 L 695.90 442.40 L 689.20 418.50 L 680.90 395.20 L 676.30 383.70 L 671.20 372.40 L 665.70 361.20 L 659.90 350.20 L 659.80 349.80 L 660.60 349.40 L 661.40 349.60 L 662.20 350.80 L 663.10 351.40 L 664.20 351.70 L 665.30 351.60 L 666.50 351.00 L 667.80 349.80 Z" fill="#677099" fill-rule="nonzero" node-id="87" stroke="none" target-height="111.20001" target-width="81.29999" target-x="659.8" target-y="349.4"/><path d="M 258.60 366.20 L 252.30 376.20 L 246.60 386.40 L 241.40 396.90 L 236.60 407.70 L 232.40 418.60 L 228.80 429.80 L 225.70 441.00 L 223.20 452.50 L 219.60 454.60 L 212.00 450.80 L 204.70 446.60 L 197.80 441.90 L 192.00 436.10 L 189.60 432.70 L 187.50 429.20 L 185.80 425.40 L 184.50 421.30 L 183.00 413.10 L 182.20 401.00 L 182.30 393.60 L 182.90 386.20 L 183.90 379.60 L 184.80 376.70 L 186.10 373.90 L 189.60 368.90 L 188.30 379.10 L 187.60 388.30 L 187.30 396.70 L 187.60 405.10 L 188.40 412.40 L 189.60 418.90 L 190.40 421.30 L 193.20 426.30 L 196.20 430.00 L 199.80 433.60 L 207.70 440.10 L 215.20 445.40 L 216.60 446.00 L 218.10 445.90 L 219.50 445.30 L 220.90 443.60 L 224.30 428.90 L 228.90 415.30 L 232.60 406.40 L 241.00 389.10 L 245.60 380.60 L 255.70 364.40 L 256.50 363.70 L 257.50 363.50 L 258.80 363.90 L 259.30 364.40 L 259.30 365.10 L 258.60 366.20 Z" fill="#4c6daa" fill-rule="nonzero" node-id="89" stroke="none" target-height="91.100006" target-width="77.09999" target-x="182.2" target-y="363.5"/><path d="M 614.80 448.00 L 618.00 452.60 L 620.30 456.80 L 621.80 460.70 L 622.70 464.20 L 623.10 468.00 L 623.00 471.50 L 622.40 474.70 L 621.20 477.60 L 619.60 480.40 L 617.70 482.90 L 615.30 485.20 L 612.50 487.20 L 606.30 490.30 L 598.90 492.00 L 595.00 492.40 L 586.80 491.90 L 582.40 491.10 L 577.50 489.30 L 573.00 486.50 L 569.30 482.80 L 566.50 478.70 L 564.40 474.70 L 563.00 470.80 L 562.30 466.80 L 562.10 462.80 L 562.50 458.80 L 563.60 454.60 L 565.40 450.40 L 567.80 447.40 L 570.40 444.90 L 573.20 442.90 L 576.20 441.20 L 582.70 438.90 L 589.60 438.10 L 594.30 438.40 L 598.90 439.20 L 603.30 440.60 L 607.50 442.60 L 611.40 445.00 L 614.80 448.00 Z M 614.20 473.90 L 613.70 472.30 L 612.70 470.90 L 611.10 469.50 L 606.80 467.60 L 601.00 466.60 L 594.30 466.80 L 587.70 468.10 L 582.30 470.40 L 578.50 473.20 L 577.20 474.80 L 576.50 476.50 L 576.40 478.10 L 576.90 479.70 L 577.90 481.10 L 579.50 482.50 L 583.80 484.40 L 589.60 485.40 L 596.30 485.20 L 602.90 483.90 L 608.40 481.60 L 612.20 478.80 L 613.40 477.20 L 614.10 475.50 L 614.20 473.90 Z" fill="#0b0e1e" fill-rule="nonzero" node-id="91" stroke="none" target-height="54.299988" target-width="61" target-x="562.1" target-y="438.1"/><path d="M 329.70 495.90 L 309.20 495.00 L 304.80 491.20 L 301.50 487.50 L 298.90 483.90 L 297.10 480.40 L 296.00 476.90 L 295.40 473.40 L 295.50 469.90 L 296.20 466.30 L 297.50 462.50 L 299.50 458.60 L 302.40 454.50 L 306.20 450.10 L 308.90 447.50 L 311.80 445.40 L 315.00 443.60 L 318.40 442.30 L 321.90 441.40 L 325.70 440.90 L 329.80 440.80 L 334.20 441.20 L 339.20 442.20 L 343.00 443.40 L 345.80 444.90 L 347.90 446.60 L 350.90 450.20 L 353.20 453.70 L 355.00 457.10 L 356.20 460.30 L 356.90 463.50 L 357.20 466.70 L 357.00 469.90 L 356.40 473.20 L 355.20 476.50 L 353.50 479.90 L 351.20 483.40 L 348.20 487.10 L 343.90 490.40 L 340.40 492.10 L 329.70 495.90 Z M 342.50 477.80 L 342.00 476.10 L 341.00 474.60 L 339.40 473.20 L 335.10 471.30 L 329.30 470.20 L 322.60 470.40 L 316.00 471.80 L 310.60 474.20 L 306.80 477.10 L 305.50 478.80 L 304.80 480.60 L 304.70 482.30 L 305.20 484.00 L 306.20 485.50 L 307.80 486.90 L 312.10 488.80 L 317.90 489.90 L 324.60 489.70 L 331.20 488.30 L 336.70 485.80 L 340.40 482.80 L 341.70 481.10 L 342.40 479.40 L 342.50 477.80 Z" fill="#0c0809" fill-rule="nonzero" node-id="93" stroke="none" target-height="55.100006" target-width="61.80002" target-x="295.4" target-y="440.8"/><path d="M 658.80 485.20 L 658.50 492.30 L 657.90 492.70 L 656.00 492.90 L 651.40 492.60 L 644.90 462.20 L 642.80 449.70 L 642.80 448.40 L 643.40 447.20 L 644.30 446.30 L 646.80 445.70 L 649.00 446.60 L 650.00 447.70 L 650.90 449.40 L 653.20 455.20 L 655.10 461.00 L 656.60 467.00 L 657.70 473.00 L 658.80 485.20 Z" fill="#0b0e1e" fill-rule="nonzero" node-id="95" stroke="none" target-height="47.19998" target-width="16" target-x="642.8" target-y="445.7"/><path d="M 267.80 493.80 L 265.70 494.90 L 263.40 495.60 L 261.10 495.80 L 258.90 495.60 L 258.30 489.30 L 258.30 483.10 L 258.80 476.90 L 259.90 470.80 L 261.50 464.70 L 264.90 456.20 L 266.00 454.60 L 268.20 452.70 L 269.80 452.50 L 270.80 452.70 L 271.40 453.30 L 271.80 454.20 L 271.80 455.70 L 267.80 493.80 Z" fill="#0c0809" fill-rule="nonzero" node-id="97" stroke="none" target-height="43.299988" target-width="13.5" target-x="258.3" target-y="452.5"/><path d="M 700.50 459.30 L 702.00 460.20 L 702.90 459.90 L 704.00 464.20 L 706.30 468.00 L 713.70 474.60 L 715.40 476.60 L 725.20 490.90 L 725.70 491.20 L 726.30 491.20 L 728.70 490.10 L 730.20 489.00 L 732.70 486.10 L 768.40 473.30 L 767.30 492.30 L 767.30 501.00 L 768.30 505.90 L 769.30 508.40 L 774.40 517.60 L 773.80 520.10 L 772.20 524.70 L 764.60 539.70 L 761.50 544.40 L 759.70 545.10 L 758.80 546.10 L 747.10 565.50 L 747.50 566.90 L 749.00 568.60 L 751.10 570.20 L 751.70 571.20 L 752.60 574.70 L 750.80 573.50 L 749.30 571.00 L 748.20 569.90 L 742.20 567.10 L 740.70 565.80 L 739.40 564.10 L 738.60 562.20 L 738.20 560.20 L 738.80 548.50 L 738.40 543.80 L 737.60 539.20 L 727.40 507.00 L 723.10 496.50 L 717.80 486.60 L 714.60 481.80 L 711.00 477.20 L 709.00 475.30 L 708.00 474.80 L 707.50 475.10 L 707.20 476.10 L 707.30 478.80 L 710.10 490.60 L 712.30 503.00 L 713.70 515.30 L 713.80 521.40 L 713.30 527.50 L 712.20 533.60 L 709.50 542.70 L 705.70 551.40 L 700.90 559.50 L 700.70 560.50 L 700.90 561.00 L 701.80 561.60 L 704.80 562.40 L 707.50 563.50 L 710.00 565.10 L 714.20 569.10 L 718.40 575.50 L 722.10 584.10 L 723.50 588.40 L 725.60 596.90 L 728.90 614.20 L 730.60 627.30 L 731.80 640.50 L 731.50 650.90 L 728.20 659.40 L 726.20 663.50 L 721.10 671.20 L 718.10 674.70 L 713.20 678.80 L 708.00 682.50 L 702.40 685.80 L 696.70 688.60 L 690.70 691.00 L 684.50 692.90 L 686.50 690.60 L 689.00 688.70 L 695.10 686.00 L 700.90 682.80 L 706.50 679.00 L 711.60 674.80 L 716.40 670.10 L 720.80 664.90 L 724.40 658.70 L 725.60 655.50 L 727.10 648.60 L 727.30 645.10 L 726.50 638.10 L 726.20 629.70 L 725.40 621.40 L 724.30 613.20 L 722.70 605.00 L 720.80 596.90 L 718.40 588.90 L 715.70 581.00 L 712.50 573.20 L 710.60 569.90 L 708.00 567.20 L 703.20 564.50 L 702.60 563.60 L 701.60 563.10 L 700.30 563.00 L 698.40 563.30 L 697.60 563.10 L 697.20 562.40 L 699.60 555.10 L 704.20 543.50 L 706.10 538.00 L 707.50 532.30 L 708.50 526.50 L 709.30 514.80 L 709.10 509.00 L 708.50 503.20 L 700.50 459.30 Z" fill="#478dbe" fill-rule="nonzero" node-id="99" stroke="none" target-height="233.60004" target-width="89.900024" target-x="684.5" target-y="459.3"/><g node-id="192"><path d="M 614.40 473.90 L 614.00 476.30 L 613.40 477.60 L 611.90 479.30 L 609.60 481.00 L 606.90 482.40 L 603.70 483.70 L 596.50 485.20 L 589.20 485.30 L 585.80 484.80 L 582.90 483.90 L 580.30 482.80 L 578.50 481.40 L 576.90 479.20 L 576.70 476.90 L 577.70 474.40 L 579.20 472.70 L 581.40 471.00 L 584.10 469.60 L 587.40 468.40 L 594.50 466.90 L 601.80 466.80 L 605.20 467.30 L 608.20 468.10 L 610.80 469.30 L 612.60 470.60 L 613.50 471.70 L 614.40 473.90 Z" fill="#185b84" fill-rule="nonzero" group-id="1" node-id="103" stroke="none" target-height="18.5" target-width="37.700012" target-x="576.7" target-y="466.8"/></g><path d="M 768.60 473.60 L 732.90 486.40 L 736.00 482.70 L 739.30 479.40 L 743.00 476.40 L 747.00 473.90 L 751.10 471.70 L 755.50 470.00 L 757.60 469.70 L 759.90 469.90 L 762.40 470.50 L 765.30 471.70 L 768.60 473.60 Z" fill="#a5c9e0" fill-rule="nonzero" node-id="106" stroke="none" target-height="16.699982" target-width="35.69995" target-x="732.9" target-y="469.7"/><g node-id="193"><path d="M 342.70 477.80 L 342.60 479.50 L 341.90 481.20 L 340.70 483.00 L 337.00 485.90 L 331.50 488.30 L 324.90 489.70 L 318.20 489.80 L 312.40 488.70 L 308.10 486.70 L 306.40 485.30 L 305.40 483.70 L 304.90 482.10 L 305.00 480.30 L 305.70 478.60 L 307.00 476.90 L 308.60 475.40 L 310.70 473.90 L 316.10 471.60 L 322.70 470.20 L 329.40 470.00 L 335.30 471.10 L 339.60 473.10 L 341.20 474.60 L 342.20 476.10 L 342.70 477.80 Z" fill="#185b84" fill-rule="nonzero" group-id="2" node-id="110" stroke="none" target-height="19.799988" target-width="37.80002" target-x="304.9" target-y="470"/></g><path d="M 735.30 530.70 L 736.60 539.10 L 737.40 547.40 L 737.40 551.00 L 736.80 554.40 L 735.60 557.80 L 731.10 567.60 L 730.30 568.40 L 729.00 568.80 L 728.20 569.40 L 727.50 570.60 L 723.90 589.30 L 720.70 580.60 L 718.70 576.40 L 714.60 570.00 L 710.40 566.00 L 707.90 564.40 L 705.20 563.30 L 701.60 562.30 L 701.30 562.00 L 701.00 560.70 L 706.10 552.20 L 710.60 541.30 L 712.60 534.50 L 713.70 528.40 L 714.20 522.30 L 714.10 516.20 L 712.70 503.90 L 710.50 491.50 L 707.90 480.20 L 707.60 477.50 L 707.80 476.20 L 708.20 475.80 L 708.80 475.80 L 709.80 476.50 L 711.70 478.40 L 715.00 482.70 L 720.90 492.30 L 723.50 497.30 L 727.80 507.80 L 735.30 530.70 Z" fill="#9bb9c4" fill-rule="nonzero" node-id="113" stroke="none" target-height="113.5" target-width="36.400024" target-x="701" target-y="475.8"/><g node-id="194"><path d="M 406.70 484.80 L 407.70 489.10 L 407.40 491.00 L 406.50 491.40 L 405.80 491.10 L 403.80 488.60 L 402.00 484.00 L 401.70 482.10 L 402.10 480.20 L 402.90 479.80 L 404.50 481.00 L 406.70 484.80 Z" fill="#89a479" fill-rule="nonzero" group-id="3" node-id="117" stroke="none" target-height="11.600006" target-width="6" target-x="401.7" target-y="479.8"/></g><path d="M 259.20 495.60 L 261.50 495.80 L 263.80 495.50 L 268.10 493.80 L 273.30 493.00 L 278.00 492.70 L 282.20 492.90 L 286.30 493.70 L 290.00 495.00 L 293.40 496.80 L 287.40 497.00 L 281.50 497.60 L 275.80 498.60 L 264.30 501.10 L 258.80 502.50 L 255.30 503.70 L 252.00 505.30 L 246.00 509.60 L 243.30 512.10 L 240.20 516.10 L 239.80 521.60 L 240.10 525.70 L 240.80 529.70 L 242.00 533.70 L 243.60 537.50 L 245.50 541.10 L 247.90 544.40 L 250.60 547.60 L 256.60 552.60 L 259.50 554.30 L 262.60 555.70 L 265.80 556.60 L 269.20 557.20 L 275.40 557.80 L 281.70 557.80 L 287.90 557.20 L 291.50 556.40 L 294.90 555.20 L 308.10 548.50 L 310.40 547.00 L 312.40 545.30 L 315.80 541.10 L 317.00 538.80 L 318.90 532.90 L 319.40 529.50 L 319.10 514.90 L 318.70 513.60 L 317.90 512.50 L 303.30 500.30 L 306.00 499.90 L 307.20 500.50 L 307.20 499.10 L 310.00 497.70 L 311.00 496.80 L 311.10 496.30 L 310.80 495.80 L 309.60 495.20 L 330.10 496.10 L 332.50 497.70 L 335.90 498.30 L 337.60 499.40 L 343.10 507.50 L 345.40 509.90 L 354.10 517.00 L 367.40 527.30 L 379.60 539.00 L 380.00 539.30 L 380.40 539.10 L 380.60 536.80 L 380.90 536.30 L 381.40 535.90 L 383.50 535.40 L 382.90 538.40 L 382.80 541.20 L 383.20 543.70 L 384.50 547.40 L 386.50 551.10 L 391.50 559.20 L 393.60 563.40 L 396.10 567.10 L 398.90 570.60 L 402.10 573.80 L 405.60 576.50 L 409.40 578.90 L 413.40 580.90 L 417.60 582.50 L 422.10 583.60 L 406.10 584.80 L 390.00 585.40 L 378.60 586.30 L 367.40 587.70 L 356.30 589.60 L 338.60 593.60 L 330.90 596.00 L 323.10 599.10 L 315.20 602.70 L 305.20 608.50 L 296.10 615.10 L 292.20 618.60 L 288.90 622.30 L 284.60 626.20 L 280.80 630.50 L 277.40 635.30 L 274.50 640.30 L 272.10 645.50 L 270.20 650.90 L 269.00 648.80 L 267.40 647.20 L 265.50 645.90 L 260.70 644.00 L 258.30 642.20 L 256.30 640.20 L 253.80 638.60 L 249.40 637.30 L 247.10 637.00 L 244.90 637.10 L 242.60 637.70 L 240.60 638.80 L 233.30 645.60 L 230.60 647.70 L 226.10 650.00 L 221.90 650.60 L 217.20 650.00 L 214.30 649.00 L 211.90 647.70 L 210.30 646.30 L 209.30 644.90 L 208.90 643.20 L 209.10 641.40 L 209.80 639.20 L 210.10 633.00 L 210.90 626.80 L 212.30 620.70 L 214.60 614.20 L 215.70 613.50 L 217.00 613.80 L 218.80 615.90 L 220.60 617.40 L 224.70 619.60 L 226.10 619.90 L 227.40 619.80 L 229.60 618.80 L 230.50 617.90 L 231.40 616.10 L 231.60 612.30 L 231.20 609.30 L 230.30 606.40 L 228.80 603.70 L 226.90 601.30 L 223.60 598.60 L 221.80 598.50 L 220.80 599.00 L 213.80 608.80 L 206.20 624.70 L 199.10 638.60 L 198.50 639.30 L 196.90 639.70 L 195.70 638.90 L 194.70 637.70 L 193.80 637.50 L 192.80 637.80 L 191.60 638.90 L 195.00 627.70 L 198.90 616.70 L 203.50 605.90 L 203.60 604.50 L 204.10 603.50 L 205.20 602.90 L 208.80 602.40 L 210.30 601.80 L 221.40 592.50 L 224.30 589.00 L 225.80 587.90 L 227.40 587.20 L 251.50 586.20 L 255.60 588.20 L 263.00 593.10 L 266.40 596.00 L 269.50 599.30 L 272.30 602.90 L 274.60 606.40 L 276.30 610.20 L 278.80 618.90 L 279.60 619.10 L 281.00 617.20 L 281.40 615.80 L 281.20 614.40 L 277.30 607.70 L 269.90 598.10 L 261.40 589.40 L 251.90 581.90 L 246.70 578.50 L 246.10 578.40 L 245.50 578.80 L 245.50 579.40 L 247.00 582.40 L 228.40 567.50 L 227.30 567.40 L 226.20 567.70 L 225.20 568.40 L 212.10 581.50 L 206.50 566.60 L 203.10 559.40 L 198.20 550.00 L 195.20 539.80 L 193.10 530.30 L 192.70 529.40 L 192.10 529.20 L 191.30 529.70 L 190.70 531.20 L 190.30 528.70 L 190.40 526.20 L 191.10 523.90 L 192.20 521.70 L 194.30 520.40 L 197.90 517.10 L 210.10 500.40 L 212.10 497.00 L 213.60 493.20 L 214.20 490.50 L 214.70 483.00 L 216.30 482.80 L 216.60 483.10 L 216.90 488.50 L 217.30 489.90 L 218.90 488.10 L 219.50 487.90 L 220.10 488.00 L 222.60 489.70 L 225.80 490.80 L 232.30 492.30 L 235.70 492.70 L 236.00 492.70 L 236.00 491.50 L 236.60 490.80 L 238.20 490.30 L 239.40 490.80 L 240.60 492.20 L 241.80 493.00 L 246.90 494.00 L 251.00 496.10 L 252.70 497.50 L 253.10 498.10 L 253.20 499.90 L 253.90 500.50 L 255.50 499.90 L 256.80 498.90 L 259.20 495.60 Z" fill="#b9bb88" fill-rule="nonzero" node-id="120" stroke="none" target-height="168.10004" target-width="231.8" target-x="190.3" target-y="482.8"/><path d="M 511.00 483.70 L 510.90 484.40 L 509.90 485.40 L 508.50 485.40 L 507.50 484.40 L 507.50 483.00 L 508.50 482.00 L 509.90 482.00 L 510.90 483.00 L 511.00 483.70 Z" fill="#6c906a" fill-rule="nonzero" node-id="122" stroke="none" target-height="3.399994" target-width="3.5" target-x="507.5" target-y="482"/><path d="M 651.40 492.60 L 656.20 492.70 L 658.00 492.40 L 658.60 492.10 L 658.50 491.70 L 660.80 491.90 L 661.80 492.60 L 663.80 495.40 L 666.90 501.50 L 665.80 508.20 L 664.80 518.30 L 663.30 524.70 L 662.10 527.70 L 659.80 531.30 L 657.10 534.40 L 654.20 537.00 L 650.90 539.20 L 647.40 540.90 L 643.70 542.20 L 639.90 543.00 L 636.00 543.30 L 632.00 543.30 L 628.10 542.70 L 624.30 541.70 L 620.60 540.30 L 617.00 538.50 L 613.70 536.20 L 610.60 533.40 L 608.80 531.00 L 607.50 528.40 L 606.70 525.60 L 606.20 519.60 L 606.60 516.50 L 607.30 513.50 L 608.50 510.50 L 612.60 504.20 L 614.80 499.20 L 615.90 497.70 L 618.70 495.30 L 623.80 493.70 L 629.20 492.60 L 634.70 491.90 L 640.30 491.60 L 645.80 491.90 L 651.40 492.60 Z" fill="#ffa490" fill-rule="nonzero" node-id="124" stroke="none" target-height="51.69998" target-width="60.700012" target-x="606.2" target-y="491.6"/><path d="M 618.40 495.60 L 616.50 497.00 L 615.00 498.80 L 611.50 506.10 L 608.20 510.80 L 607.00 513.60 L 606.30 516.70 L 605.90 519.80 L 606.40 525.90 L 607.20 528.70 L 608.50 531.30 L 610.30 533.70 L 613.40 536.50 L 616.70 538.80 L 620.30 540.70 L 624.00 542.10 L 627.80 543.10 L 631.70 543.60 L 635.70 543.70 L 639.60 543.40 L 643.40 542.50 L 647.10 541.30 L 650.60 539.60 L 653.90 537.40 L 656.80 534.70 L 659.50 531.60 L 661.80 528.00 L 663.00 524.80 L 664.50 518.50 L 665.50 508.90 L 666.60 501.80 L 669.20 506.00 L 671.20 510.10 L 672.50 513.90 L 673.20 517.50 L 673.50 521.00 L 673.20 524.60 L 672.40 528.10 L 671.00 531.60 L 669.00 535.10 L 663.30 542.00 L 660.10 544.90 L 656.70 547.50 L 652.90 549.60 L 649.00 551.40 L 644.90 552.70 L 640.70 553.50 L 636.50 554.00 L 627.60 553.60 L 623.30 552.90 L 619.00 551.70 L 614.80 549.90 L 611.00 547.70 L 607.40 545.00 L 604.80 542.30 L 602.50 539.40 L 600.50 536.20 L 598.90 532.80 L 597.60 529.30 L 596.20 522.00 L 596.30 515.50 L 597.80 510.50 L 600.70 506.10 L 605.40 501.70 L 608.40 499.60 L 611.60 497.90 L 614.90 496.60 L 618.40 495.60 Z" fill="#f88b79" fill-rule="nonzero" node-id="126" stroke="none" target-height="58.399994" target-width="77.29999" target-x="596.2" target-y="495.6"/><path d="M 293.10 496.80 L 303.20 500.40 L 318.40 513.10 L 319.00 515.00 L 319.30 520.50 L 319.30 526.00 L 318.60 533.10 L 317.80 536.40 L 315.60 541.20 L 314.10 543.40 L 310.30 547.10 L 308.00 548.60 L 294.80 555.30 L 291.40 556.50 L 287.80 557.30 L 281.60 557.90 L 275.30 557.90 L 269.10 557.30 L 263.50 556.10 L 258.20 553.80 L 255.80 552.30 L 250.50 547.70 L 247.80 544.50 L 245.40 541.20 L 243.50 537.60 L 241.90 533.80 L 240.70 529.80 L 240.00 525.80 L 239.70 521.70 L 240.10 516.20 L 243.20 512.20 L 245.80 509.70 L 251.90 505.40 L 255.20 503.80 L 262.70 501.60 L 279.90 497.90 L 284.30 497.30 L 293.10 496.80 Z M 286.00 505.70 L 277.70 508.60 L 269.70 511.90 L 259.50 516.80 L 257.40 518.40 L 253.60 522.30 L 252.10 524.60 L 251.20 526.90 L 250.80 529.20 L 251.20 533.70 L 253.10 538.10 L 256.10 541.90 L 259.00 544.20 L 262.20 546.10 L 268.50 548.20 L 275.10 548.70 L 281.60 547.90 L 287.80 545.60 L 294.40 542.00 L 297.60 539.60 L 300.50 536.80 L 303.10 533.70 L 305.30 530.40 L 307.20 526.70 L 308.10 523.70 L 308.50 521.00 L 308.40 518.60 L 307.90 516.30 L 306.90 514.10 L 305.40 512.10 L 303.40 510.20 L 300.70 508.30 L 298.60 506.90 L 296.30 505.90 L 293.80 505.30 L 288.60 505.20 L 286.00 505.70 Z" fill="#fe8964" fill-rule="nonzero" node-id="128" stroke="none" target-height="61.100037" target-width="79.59999" target-x="239.7" target-y="496.8"/><path d="M 286.00 505.70 L 288.60 505.10 L 293.80 505.20 L 298.80 506.80 L 301.20 508.10 L 304.20 510.30 L 306.40 512.60 L 307.90 514.90 L 308.70 517.40 L 309.00 520.10 L 308.70 523.10 L 307.70 526.50 L 305.80 530.10 L 303.60 533.50 L 301.00 536.60 L 298.00 539.40 L 294.80 541.80 L 288.30 545.40 L 285.30 546.70 L 278.90 548.20 L 272.30 548.30 L 265.90 547.00 L 260.50 544.80 L 256.60 541.80 L 253.60 538.00 L 251.70 533.60 L 251.30 529.00 L 251.70 526.70 L 252.60 524.40 L 254.10 522.10 L 255.80 520.00 L 260.00 516.70 L 267.90 512.70 L 273.80 510.20 L 286.00 505.70 Z" fill="#ffa490" fill-rule="nonzero" node-id="130" stroke="none" target-height="43.19998" target-width="57.699997" target-x="251.3" target-y="505.1"/><path d="M 495.80 510.50 L 502.00 529.00 L 502.70 530.00 L 503.60 530.70 L 504.70 531.00 L 506.30 530.60 L 509.30 527.60 L 511.60 524.90 L 515.40 518.60 L 520.40 521.10 L 528.30 526.10 L 533.80 531.10 L 535.50 533.20 L 536.80 535.60 L 537.60 538.10 L 537.80 540.70 L 537.60 543.40 L 534.60 551.70 L 531.90 557.10 L 528.70 562.20 L 525.10 567.00 L 521.00 571.60 L 516.60 575.80 L 518.50 571.10 L 519.50 567.20 L 519.80 564.00 L 519.60 561.20 L 518.90 559.10 L 517.90 557.30 L 516.60 555.60 L 514.70 554.20 L 497.50 546.40 L 482.30 540.30 L 477.10 538.70 L 467.20 536.50 L 455.20 535.30 L 445.80 535.20 L 441.40 535.60 L 437.40 536.30 L 432.20 538.10 L 426.80 538.50 L 420.50 539.60 L 415.90 541.20 L 411.60 543.40 L 406.20 546.80 L 400.90 550.70 L 396.00 554.90 L 391.40 559.50 L 386.20 551.40 L 383.70 546.40 L 382.70 541.50 L 382.80 538.70 L 383.40 535.70 L 387.80 531.60 L 397.20 524.20 L 402.10 520.90 L 412.60 515.20 L 413.50 515.00 L 414.90 515.60 L 415.60 517.30 L 415.90 520.20 L 416.70 522.80 L 417.90 525.30 L 420.00 528.30 L 421.90 528.90 L 424.60 528.40 L 426.70 527.60 L 428.20 526.50 L 429.50 525.00 L 430.50 523.00 L 432.60 517.30 L 434.10 514.60 L 436.20 512.30 L 438.50 510.30 L 441.30 508.80 L 447.50 507.00 L 449.80 506.90 L 451.50 507.10 L 454.50 508.80 L 456.90 512.20 L 459.10 517.10 L 461.20 520.50 L 463.60 522.10 L 465.10 522.40 L 467.00 522.20 L 469.50 521.50 L 474.80 518.80 L 479.00 514.80 L 482.80 508.90 L 485.90 508.20 L 489.80 508.30 L 492.80 509.10 L 495.80 510.50 Z" fill="#7a2433" fill-rule="nonzero" node-id="132" stroke="none" target-height="68.899994" target-width="155.09998" target-x="382.7" target-y="506.9"/><path d="M 515.40 518.50 L 511.60 524.50 L 506.80 530.10 L 505.80 530.70 L 504.60 530.90 L 503.50 530.50 L 502.60 529.80 L 502.00 528.90 L 495.80 510.50 L 498.90 510.30 L 502.00 510.70 L 505.20 511.70 L 508.40 513.20 L 511.80 515.50 L 515.40 518.50 Z" fill="#f0d1cd" fill-rule="nonzero" node-id="134" stroke="none" target-height="20.600037" target-width="19.600037" target-x="495.8" target-y="510.3"/><path d="M 774.90 517.90 L 778.10 520.90 L 780.30 523.70 L 781.60 526.30 L 782.30 528.70 L 782.50 530.90 L 782.10 533.20 L 781.10 535.50 L 771.60 547.70 L 766.30 556.00 L 765.60 557.40 L 764.60 562.40 L 763.30 565.90 L 761.70 569.10 L 758.70 573.10 L 757.50 573.70 L 756.10 573.90 L 753.40 572.80 L 751.30 570.60 L 749.40 569.20 L 747.70 567.30 L 747.30 565.60 L 759.00 546.50 L 759.80 545.60 L 761.80 544.80 L 764.80 539.90 L 772.70 525.10 L 774.30 520.40 L 774.90 517.90 Z" fill="#4c6daa" fill-rule="nonzero" node-id="136" stroke="none" target-height="56" target-width="35.200012" target-x="747.3" target-y="517.9"/><path d="M 211.30 580.70 L 206.80 576.40 L 202.90 571.80 L 199.50 567.00 L 196.70 561.80 L 194.30 556.30 L 192.50 550.50 L 191.20 544.30 L 190.40 537.60 L 190.20 530.40 L 190.80 528.90 L 191.50 528.60 L 192.30 528.80 L 196.00 543.60 L 197.60 548.60 L 205.70 565.80 L 211.30 580.70 Z" fill="#819765" fill-rule="nonzero" node-id="138" stroke="none" target-height="52.100037" target-width="21.100006" target-x="190.2" target-y="528.6"/><path d="M 735.30 530.70 L 737.00 535.10 L 738.30 539.60 L 739.10 544.30 L 739.50 549.10 L 739.40 553.90 L 738.90 561.00 L 739.30 563.00 L 740.10 564.90 L 741.30 566.50 L 742.90 567.80 L 748.20 570.30 L 749.40 571.20 L 751.50 574.20 L 753.30 575.40 L 753.90 577.40 L 756.40 579.70 L 756.90 580.90 L 757.00 583.40 L 757.40 584.50 L 757.90 585.40 L 760.50 588.00 L 761.80 590.10 L 762.60 592.50 L 763.10 596.50 L 763.60 597.70 L 768.80 604.20 L 770.50 607.30 L 771.80 610.60 L 775.20 621.40 L 778.10 632.30 L 780.70 643.30 L 781.30 648.20 L 781.30 650.60 L 780.70 655.00 L 780.30 655.70 L 779.90 655.80 L 779.30 655.30 L 776.70 651.10 L 775.50 648.60 L 774.70 646.00 L 773.80 637.60 L 771.40 629.30 L 769.90 626.70 L 768.00 624.50 L 765.90 622.60 L 762.50 620.70 L 760.70 621.00 L 760.10 621.60 L 753.60 629.10 L 746.70 636.50 L 743.80 639.00 L 740.70 641.00 L 738.10 642.10 L 736.10 642.60 L 734.40 642.50 L 733.00 641.90 L 732.40 633.10 L 730.40 615.60 L 728.10 602.60 L 725.30 589.80 L 729.10 570.30 L 729.60 569.70 L 732.00 568.80 L 732.50 568.10 L 737.00 558.30 L 738.20 554.90 L 738.80 551.50 L 738.80 547.90 L 736.60 539.20 L 735.30 530.70 Z" fill="#9998af" fill-rule="nonzero" node-id="140" stroke="none" target-height="125.099976" target-width="56" target-x="725.3" target-y="530.7"/><path d="M 516.60 575.40 L 511.60 579.70 L 505.90 582.80 L 489.10 584.10 L 472.30 584.90 L 455.60 585.00 L 438.80 584.50 L 422.00 583.40 L 417.50 582.30 L 413.20 580.70 L 409.20 578.70 L 405.40 576.20 L 402.00 573.40 L 398.80 570.30 L 395.90 566.80 L 393.50 563.10 L 391.40 559.00 L 401.00 550.20 L 406.20 546.30 L 414.50 541.40 L 420.60 539.20 L 425.30 538.30 L 432.20 537.60 L 437.40 535.80 L 441.40 535.10 L 445.80 534.70 L 455.20 534.80 L 467.20 536.00 L 477.20 538.20 L 482.30 539.80 L 497.50 545.80 L 514.70 553.70 L 516.60 555.10 L 517.90 556.80 L 518.90 558.60 L 519.60 560.80 L 519.80 563.50 L 519.50 566.80 L 518.40 570.70 L 516.60 575.40 Z" fill="#df615d" fill-rule="nonzero" node-id="142" stroke="none" target-height="50.299988" target-width="128.4" target-x="391.4" target-y="534.7"/><path d="M 768.00 553.40 L 768.60 555.10 L 769.80 556.50 L 776.40 560.90 L 777.80 562.20 L 778.70 563.80 L 787.60 586.50 L 788.70 587.60 L 791.50 588.80 L 792.60 589.60 L 792.70 591.20 L 789.40 600.50 L 787.90 606.70 L 787.90 609.60 L 788.20 610.80 L 788.90 611.70 L 789.90 612.30 L 791.90 612.20 L 802.40 607.90 L 807.60 606.50 L 813.60 605.40 L 814.70 606.10 L 815.00 606.70 L 816.30 610.90 L 816.50 616.70 L 816.10 620.40 L 812.40 635.60 L 817.10 645.70 L 817.40 647.20 L 816.80 648.70 L 812.80 653.60 L 809.30 658.70 L 806.10 664.00 L 803.20 669.50 L 800.70 675.20 L 798.60 681.10 L 798.60 682.40 L 802.40 687.50 L 803.60 689.60 L 804.60 691.80 L 804.70 693.60 L 801.80 697.70 L 793.40 706.40 L 790.90 709.60 L 788.80 713.20 L 788.60 714.50 L 789.40 717.30 L 789.50 718.70 L 789.00 720.20 L 788.00 721.80 L 784.10 725.30 L 779.70 727.80 L 774.80 729.10 L 772.10 729.30 L 773.50 728.00 L 774.00 727.00 L 774.10 726.10 L 772.90 724.30 L 770.60 723.00 L 769.90 721.80 L 770.30 719.70 L 772.90 713.80 L 774.80 707.70 L 776.10 701.60 L 776.80 695.30 L 776.80 689.10 L 776.20 682.10 L 773.00 676.30 L 771.40 669.60 L 770.00 658.90 L 769.60 657.60 L 768.50 656.80 L 767.50 656.60 L 766.40 656.80 L 765.10 657.80 L 762.60 662.00 L 760.90 663.70 L 759.20 664.70 L 757.30 665.20 L 755.30 665.20 L 753.10 664.60 L 749.90 663.10 L 741.70 657.30 L 736.80 654.50 L 731.50 652.10 L 731.80 641.70 L 733.20 642.30 L 734.80 642.40 L 736.90 642.00 L 739.50 640.80 L 742.60 638.80 L 745.50 636.30 L 752.40 628.90 L 759.50 620.70 L 760.30 620.30 L 761.20 620.30 L 764.70 622.40 L 766.90 624.30 L 768.70 626.60 L 770.20 629.10 L 772.60 637.40 L 773.50 645.80 L 774.30 648.80 L 775.50 651.30 L 778.00 655.00 L 778.90 655.70 L 779.50 654.70 L 780.00 649.60 L 779.50 643.10 L 776.90 632.10 L 770.60 610.40 L 767.70 604.00 L 762.10 596.80 L 761.30 591.50 L 760.70 589.90 L 759.30 587.80 L 756.70 585.20 L 756.20 584.30 L 755.50 580.70 L 755.00 579.50 L 752.70 577.10 L 752.30 576.10 L 751.80 572.80 L 750.60 570.70 L 752.70 572.90 L 753.90 573.60 L 755.40 574.00 L 756.50 573.90 L 758.40 573.00 L 761.10 569.10 L 762.80 565.80 L 764.00 562.40 L 765.60 556.10 L 768.00 553.40 Z" fill="#5c84c6" fill-rule="nonzero" node-id="144" stroke="none" target-height="175.89996" target-width="85.900024" target-x="731.5" target-y="553.4"/><path d="M 703.50 565.80 L 708.30 568.50 L 707.70 570.60 L 706.90 571.50 L 696.90 576.90 L 688.30 582.20 L 680.00 588.00 L 671.40 594.90 L 670.90 594.60 L 670.80 593.80 L 671.30 591.80 L 672.20 590.00 L 673.50 588.40 L 696.10 567.30 L 698.80 566.10 L 703.50 565.80 Z" fill="#ede4f0" fill-rule="nonzero" node-id="146" stroke="none" target-height="29.100037" target-width="37.5" target-x="670.8" target-y="565.8"/><path d="M 250.60 585.80 L 246.10 581.60 L 245.20 580.20 L 244.60 578.60 L 244.80 577.90 L 246.10 577.70 L 256.10 584.80 L 260.80 588.70 L 269.30 597.40 L 276.70 607.00 L 280.60 613.60 L 280.80 615.00 L 280.40 616.40 L 279.70 617.60 L 278.80 618.20 L 278.30 618.10 L 275.60 609.40 L 273.80 605.60 L 271.70 602.10 L 268.80 598.70 L 262.20 592.60 L 258.50 590.00 L 250.60 585.80 Z" fill="#819765" fill-rule="nonzero" node-id="148" stroke="none" target-height="40.5" target-width="36.19998" target-x="244.6" target-y="577.7"/><path d="M 505.90 582.80 L 548.20 585.20 L 557.30 586.10 L 566.30 587.50 L 575.20 589.30 L 584.00 591.50 L 599.10 596.10 L 605.10 598.50 L 610.90 601.40 L 616.50 604.60 L 621.80 608.30 L 626.90 612.20 L 631.70 616.60 L 636.10 621.20 L 640.30 626.20 L 644.00 631.50 L 647.50 637.00 L 650.50 642.90 L 649.90 646.30 L 651.00 650.90 L 650.50 652.10 L 649.00 653.00 L 648.30 654.10 L 649.00 660.90 L 649.00 667.00 L 648.80 668.50 L 647.60 671.00 L 645.30 672.80 L 643.90 673.20 L 643.50 673.10 L 643.30 672.60 L 644.40 671.40 L 642.40 670.50 L 640.90 670.50 L 637.90 672.70 L 635.00 676.20 L 633.90 676.70 L 631.50 676.60 L 628.30 675.20 L 615.80 676.50 L 608.30 676.40 L 606.50 676.80 L 600.20 680.30 L 595.30 681.60 L 592.60 681.60 L 590.00 681.20 L 587.50 680.40 L 577.40 675.00 L 568.70 671.60 L 567.90 670.30 L 566.40 668.90 L 545.90 663.40 L 543.60 663.40 L 542.10 662.30 L 541.00 660.00 L 539.90 658.90 L 538.40 658.20 L 532.70 656.80 L 526.90 654.80 L 523.90 654.10 L 512.90 652.40 L 504.30 650.70 L 501.60 651.90 L 499.60 651.10 L 494.50 650.90 L 488.60 651.20 L 483.00 650.80 L 469.70 648.10 L 457.00 644.40 L 448.20 642.40 L 447.80 642.40 L 447.30 643.60 L 446.70 644.00 L 445.80 643.90 L 442.50 641.60 L 439.00 640.00 L 430.50 638.90 L 420.40 638.40 L 415.10 636.80 L 408.70 638.10 L 401.40 638.40 L 397.80 639.80 L 396.00 640.00 L 344.20 639.10 L 335.20 638.60 L 326.20 637.60 L 317.30 636.10 L 307.80 634.20 L 306.60 634.50 L 304.30 636.50 L 302.20 637.50 L 299.90 638.00 L 297.50 637.90 L 295.20 637.30 L 291.60 635.40 L 286.30 635.00 L 284.70 633.40 L 282.80 632.80 L 287.90 622.70 L 291.20 619.10 L 295.00 615.50 L 304.10 608.90 L 314.20 603.10 L 322.10 599.50 L 329.90 596.40 L 337.60 594.00 L 344.40 592.30 L 355.40 590.00 L 366.50 588.10 L 377.70 586.70 L 389.00 585.80 L 404.90 585.10 L 421.10 584.00 L 435.50 584.70 L 463.80 585.10 L 477.90 584.70 L 505.90 582.80 Z" fill="#fef2e1" fill-rule="nonzero" node-id="150" stroke="none" target-height="98.79999" target-width="368.2" target-x="282.8" target-y="582.8"/><path d="M 209.50 639.30 L 205.70 643.40 L 200.60 651.20 L 198.60 652.20 L 197.50 653.30 L 197.00 654.50 L 197.10 656.00 L 197.90 658.00 L 201.60 664.00 L 205.60 669.60 L 210.10 674.90 L 214.90 679.80 L 220.10 684.30 L 225.60 688.40 L 231.50 692.10 L 237.80 695.50 L 224.70 692.80 L 223.50 693.10 L 221.30 694.50 L 220.10 693.90 L 219.90 693.00 L 220.20 691.60 L 220.00 690.40 L 219.40 689.30 L 218.30 688.30 L 216.60 687.40 L 214.00 686.60 L 211.70 685.30 L 209.70 683.70 L 200.70 671.50 L 197.50 666.70 L 194.90 661.90 L 192.30 655.10 L 191.00 647.60 L 190.90 643.40 L 191.30 638.60 L 192.50 637.50 L 193.50 637.20 L 194.40 637.40 L 195.80 639.00 L 196.60 639.40 L 197.40 639.40 L 198.60 638.60 L 206.00 624.50 L 213.50 608.60 L 218.50 601.90 L 220.00 598.90 L 220.80 598.30 L 222.90 598.10 L 226.50 601.00 L 228.30 603.40 L 229.80 606.00 L 230.80 608.90 L 231.20 611.90 L 231.20 615.10 L 230.20 617.50 L 228.10 619.10 L 226.90 619.40 L 225.00 619.30 L 222.10 618.20 L 220.10 617.00 L 218.40 615.50 L 216.40 613.10 L 215.20 612.80 L 214.10 613.50 L 212.00 620.60 L 210.60 626.90 L 209.80 633.10 L 209.50 639.30 Z" fill="#56795c" fill-rule="nonzero" node-id="152" stroke="none" target-height="97.400024" target-width="46.90001" target-x="190.9" target-y="598.1"/><path d="M 288.70 622.10 L 283.90 631.30 L 283.80 632.10 L 285.90 633.00 L 287.00 634.50 L 287.50 634.70 L 292.40 634.80 L 296.00 636.70 L 298.30 637.30 L 300.70 637.40 L 303.00 636.90 L 305.10 635.90 L 307.40 633.90 L 308.60 633.60 L 318.10 635.50 L 327.00 637.00 L 336.00 638.00 L 345.00 638.50 L 396.80 639.40 L 398.60 639.20 L 402.20 637.80 L 409.60 637.60 L 416.40 636.30 L 420.00 637.60 L 431.20 638.30 L 439.80 639.40 L 443.60 641.00 L 447.20 643.50 L 447.80 643.30 L 448.20 641.70 L 448.70 641.80 L 457.50 643.80 L 470.30 647.60 L 485.90 650.60 L 495.10 650.30 L 499.20 650.50 L 502.10 651.60 L 503.60 650.80 L 505.50 650.50 L 513.30 652.10 L 524.40 653.80 L 535.00 657.10 L 538.90 657.90 L 540.40 658.60 L 541.50 659.70 L 542.60 661.80 L 544.10 662.90 L 547.30 663.40 L 566.30 668.50 L 567.50 669.10 L 569.60 671.50 L 580.60 676.20 L 588.10 680.30 L 590.50 681.10 L 593.10 681.50 L 598.40 680.90 L 600.90 680.00 L 607.00 676.50 L 608.80 676.10 L 616.30 676.20 L 627.90 675.00 L 629.90 675.20 L 632.10 676.30 L 633.60 676.50 L 634.90 676.20 L 639.10 671.50 L 642.00 669.70 L 644.90 670.80 L 644.00 671.40 L 643.80 672.00 L 644.40 672.60 L 647.10 671.40 L 648.10 670.40 L 649.30 667.80 L 649.60 662.20 L 648.80 653.50 L 649.50 652.40 L 651.00 651.50 L 651.50 650.40 L 650.40 645.70 L 651.00 642.30 L 656.30 656.30 L 660.10 670.70 L 662.60 685.40 L 662.50 693.60 L 661.90 701.60 L 660.80 709.60 L 659.10 717.60 L 656.90 725.40 L 654.10 733.00 L 650.90 740.40 L 647.10 747.60 L 638.60 750.50 L 627.10 753.70 L 618.70 754.80 L 608.00 757.10 L 594.20 758.50 L 587.80 761.70 L 583.90 763.20 L 579.70 764.10 L 522.20 772.90 L 513.40 774.10 L 495.80 775.70 L 472.10 776.70 L 423.50 777.70 L 398.80 777.80 L 384.80 777.40 L 352.90 774.70 L 328.70 773.20 L 315.20 770.90 L 310.20 770.50 L 302.00 770.40 L 296.30 769.00 L 288.20 765.70 L 285.30 764.90 L 281.50 764.30 L 280.30 763.50 L 277.60 760.60 L 275.00 758.70 L 263.40 735.80 L 261.30 728.00 L 259.60 720.30 L 258.30 712.50 L 257.60 704.70 L 257.20 696.80 L 258.80 687.20 L 260.80 677.80 L 263.40 668.60 L 266.40 659.50 L 271.90 645.20 L 274.30 640.10 L 277.20 635.10 L 280.60 630.50 L 284.40 626.10 L 288.70 622.10 Z" fill="#ffecd2" fill-rule="nonzero" node-id="154" stroke="none" target-height="155.70001" target-width="405.39996" target-x="257.2" target-y="622.1"/><path d="M 269.90 651.00 L 266.30 660.00 L 263.20 669.20 L 260.60 678.50 L 258.60 687.90 L 257.10 697.40 L 254.60 698.90 L 251.90 699.80 L 249.10 700.10 L 246.00 699.60 L 243.00 698.80 L 240.10 697.40 L 237.50 695.60 L 231.40 692.30 L 225.50 688.70 L 220.00 684.60 L 214.80 680.00 L 209.90 675.10 L 205.40 669.80 L 201.30 664.10 L 197.60 658.10 L 196.80 656.40 L 196.50 655.00 L 196.70 653.90 L 197.30 652.90 L 198.40 652.10 L 200.30 651.30 L 201.60 649.80 L 204.40 644.80 L 209.20 639.40 L 208.40 641.80 L 208.30 643.80 L 208.70 645.40 L 209.70 646.80 L 211.30 648.10 L 213.70 649.20 L 216.60 650.20 L 221.30 651.00 L 225.50 650.30 L 230.00 648.00 L 232.70 645.90 L 239.40 639.40 L 240.90 638.40 L 244.30 637.30 L 246.60 637.10 L 248.90 637.30 L 253.20 638.80 L 255.70 640.40 L 259.90 644.40 L 261.30 645.00 L 265.20 646.10 L 267.10 647.30 L 268.70 648.90 L 269.90 651.00 Z" fill="#89a479" fill-rule="nonzero" node-id="156" stroke="none" target-height="63" target-width="73.399994" target-x="196.5" target-y="637.1"/><path d="M 726.70 639.30 L 727.50 646.30 L 726.80 653.20 L 724.60 659.90 L 721.00 666.10 L 716.70 671.30 L 712.10 676.00 L 706.90 680.20 L 701.40 684.00 L 695.50 687.20 L 689.20 689.90 L 689.00 686.40 L 688.40 683.10 L 687.40 679.90 L 682.50 668.50 L 681.30 663.30 L 681.50 658.10 L 682.30 655.60 L 683.40 653.60 L 684.90 651.80 L 686.90 650.40 L 689.20 649.50 L 703.50 647.60 L 706.10 646.90 L 722.00 639.00 L 723.70 638.70 L 725.30 638.70 L 726.70 639.30 Z" fill="#7a8daa" fill-rule="nonzero" node-id="158" stroke="none" target-height="51.200012" target-width="46.200012" target-x="681.3" target-y="638.7"/><path d="M 731.70 652.10 L 737.00 654.50 L 741.90 657.40 L 751.00 663.70 L 753.10 664.70 L 755.30 665.20 L 757.30 665.30 L 759.30 664.70 L 761.00 663.70 L 762.80 661.90 L 765.30 657.90 L 766.60 656.80 L 767.70 656.60 L 768.70 656.80 L 769.80 657.60 L 770.20 658.90 L 771.20 666.90 L 772.90 675.00 L 773.80 677.70 L 775.30 680.10 L 776.50 682.80 L 777.10 689.10 L 777.00 695.40 L 776.30 701.70 L 774.10 710.90 L 772.50 715.40 L 767.40 727.00 L 763.70 734.00 L 759.60 740.60 L 755.00 747.00 L 749.90 752.90 L 744.40 758.50 L 738.60 763.70 L 732.30 768.40 L 725.60 772.70 L 723.20 773.90 L 722.10 774.10 L 721.50 773.90 L 721.30 773.30 L 721.50 772.10 L 725.90 762.60 L 728.70 755.40 L 731.10 748.00 L 732.90 740.30 L 734.20 732.50 L 734.50 726.80 L 734.10 722.00 L 733.30 718.60 L 732.60 718.40 L 731.20 721.70 L 729.40 697.00 L 727.80 691.20 L 727.00 684.10 L 725.20 682.30 L 724.90 681.20 L 725.80 678.10 L 724.20 678.00 L 723.40 676.50 L 722.20 675.70 L 720.80 675.60 L 718.60 676.10 L 722.10 671.60 L 725.10 666.90 L 727.70 662.20 L 729.90 657.20 L 731.70 652.10 Z" fill="#9c839e" fill-rule="nonzero" node-id="160" stroke="none" target-height="122" target-width="58.5" target-x="718.6" target-y="652.1"/><path d="M 718.30 675.60 L 720.50 675.10 L 721.90 675.20 L 723.10 676.00 L 723.80 677.50 L 725.50 677.70 L 724.70 679.40 L 724.50 680.70 L 724.90 681.80 L 726.70 683.70 L 727.70 690.90 L 728.90 695.20 L 730.90 721.20 L 729.70 733.20 L 727.10 744.90 L 723.10 756.20 L 717.80 767.00 L 704.10 768.60 L 697.30 770.10 L 690.70 772.10 L 684.80 774.70 L 679.10 777.50 L 663.60 786.80 L 654.10 790.80 L 651.90 792.30 L 645.70 798.50 L 641.40 802.20 L 635.50 805.80 L 629.50 809.00 L 626.60 810.20 L 615.40 813.00 L 611.80 814.70 L 609.50 815.00 L 605.10 814.10 L 601.00 812.70 L 597.00 810.80 L 595.90 809.70 L 595.20 808.40 L 595.00 806.30 L 595.40 804.30 L 596.30 802.50 L 598.40 799.90 L 598.10 799.60 L 596.20 799.40 L 593.10 799.80 L 600.90 794.80 L 608.40 789.30 L 615.50 783.50 L 622.40 777.20 L 628.90 770.60 L 635.00 763.60 L 640.70 756.30 L 646.10 748.60 L 650.00 741.30 L 653.30 733.90 L 656.10 726.30 L 658.30 718.50 L 660.00 710.60 L 661.10 702.60 L 661.60 694.60 L 661.60 686.40 L 664.60 697.10 L 665.30 698.20 L 666.40 699.20 L 668.50 699.90 L 672.60 700.00 L 675.80 699.20 L 678.90 697.90 L 684.30 694.70 L 690.70 692.50 L 696.80 690.00 L 702.60 687.10 L 708.10 683.70 L 713.40 679.90 L 718.30 675.60 Z" fill="#e2917e" fill-rule="nonzero" node-id="162" stroke="none" target-height="139.90002" target-width="137.80005" target-x="593.1" target-y="675.1"/><path d="M 219.90 692.00 L 219.60 693.20 L 219.80 694.00 L 221.00 694.90 L 223.20 693.50 L 224.40 693.20 L 237.50 695.90 L 240.10 697.70 L 243.00 699.00 L 246.00 699.90 L 249.10 700.40 L 252.00 699.90 L 254.70 699.00 L 257.10 697.70 L 258.00 710.80 L 258.90 717.40 L 260.10 724.00 L 263.30 736.70 L 262.20 742.50 L 261.00 746.90 L 259.90 749.70 L 257.60 753.40 L 258.10 755.20 L 257.90 755.80 L 255.20 761.10 L 251.20 765.30 L 246.30 768.60 L 236.90 773.30 L 235.20 773.80 L 231.80 774.00 L 229.90 773.20 L 226.90 770.80 L 225.20 768.50 L 223.40 767.70 L 222.30 768.20 L 222.00 770.00 L 220.20 764.20 L 218.70 758.40 L 217.70 752.40 L 216.60 743.40 L 216.20 734.30 L 216.60 698.00 L 217.80 694.30 L 219.90 692.00 Z" fill="#fda567" fill-rule="nonzero" node-id="164" stroke="none" target-height="82" target-width="47.09999" target-x="216.2" target-y="692"/><path d="M 770.40 719.70 L 770.10 720.90 L 770.40 722.20 L 773.80 725.30 L 774.00 727.10 L 773.40 728.10 L 772.20 729.30 L 767.70 736.60 L 762.80 743.60 L 757.40 750.20 L 751.60 756.50 L 745.40 762.40 L 738.90 767.90 L 731.90 772.90 L 720.80 780.10 L 717.50 783.10 L 714.50 786.40 L 697.60 810.20 L 692.20 817.00 L 680.90 829.90 L 676.90 830.80 L 673.20 832.30 L 652.10 833.20 L 651.50 832.90 L 651.50 832.00 L 652.10 831.40 L 660.20 828.80 L 671.40 824.60 L 674.80 822.90 L 677.90 820.80 L 681.00 818.30 L 691.70 808.20 L 692.60 807.10 L 694.70 802.80 L 700.20 796.20 L 705.30 789.40 L 710.00 782.30 L 714.30 774.80 L 721.80 759.90 L 724.80 752.60 L 727.30 744.90 L 729.10 737.20 L 730.40 729.30 L 731.00 721.30 L 732.50 718.00 L 732.90 717.80 L 733.20 718.10 L 733.60 719.10 L 734.30 726.40 L 734.00 732.10 L 732.70 739.90 L 730.80 747.50 L 728.50 755.00 L 725.60 762.40 L 721.00 772.00 L 720.80 773.10 L 721.00 773.70 L 721.60 773.90 L 725.10 772.60 L 731.90 768.30 L 738.30 763.60 L 744.30 758.50 L 749.90 752.90 L 755.00 747.00 L 759.60 740.60 L 763.70 734.00 L 767.30 727.00 L 770.40 719.70 Z" fill="#b14f59" fill-rule="nonzero" node-id="166" stroke="none" target-height="115.400024" target-width="122.5" target-x="651.5" target-y="717.8"/><path d="M 263.40 736.30 L 275.00 759.20 L 278.80 764.70 L 287.40 774.90 L 297.00 784.00 L 307.50 792.00 L 313.10 795.50 L 311.10 794.80 L 310.40 794.90 L 310.20 796.30 L 310.40 797.70 L 311.10 798.90 L 312.20 800.00 L 319.90 804.70 L 327.80 808.90 L 335.90 812.90 L 344.30 816.40 L 345.60 817.70 L 345.80 819.70 L 344.60 820.90 L 325.30 830.70 L 324.50 831.30 L 324.50 831.90 L 326.80 833.70 L 323.50 833.70 L 319.30 828.60 L 314.20 824.60 L 308.20 821.70 L 304.90 820.90 L 301.50 820.30 L 297.00 820.40 L 292.50 821.00 L 286.70 822.80 L 282.60 824.80 L 281.60 825.60 L 280.80 826.70 L 280.10 828.50 L 279.90 831.20 L 279.60 831.30 L 276.80 829.20 L 272.80 829.30 L 270.10 829.00 L 265.00 827.40 L 262.70 826.00 L 256.90 821.00 L 253.40 817.40 L 247.10 809.50 L 239.90 797.80 L 235.00 792.10 L 232.30 787.50 L 231.10 786.50 L 229.70 785.90 L 228.10 785.90 L 221.90 770.10 L 222.30 768.20 L 223.80 767.70 L 225.20 768.50 L 226.90 770.90 L 228.20 772.30 L 229.90 773.30 L 231.80 774.00 L 235.30 773.90 L 236.90 773.40 L 246.30 768.60 L 251.20 765.30 L 255.20 761.10 L 257.90 755.80 L 258.10 755.20 L 257.60 753.40 L 259.30 750.60 L 260.90 746.60 L 263.40 736.30 Z" fill="#fe7b59" fill-rule="nonzero" node-id="168" stroke="none" target-height="97.400024" target-width="123.899994" target-x="221.9" target-y="736.3"/><path d="M 646.60 748.00 L 641.20 755.70 L 635.50 763.00 L 629.40 770.00 L 622.90 776.60 L 616.10 782.90 L 608.90 788.80 L 601.40 794.40 L 587.20 803.30 L 580.70 806.70 L 573.90 809.80 L 566.90 812.50 L 552.80 816.80 L 540.70 818.20 L 516.70 819.80 L 429.20 820.90 L 408.10 821.50 L 401.00 821.30 L 387.00 819.80 L 350.90 812.50 L 345.10 810.90 L 338.50 808.40 L 331.10 805.20 L 322.80 801.00 L 313.50 795.70 L 306.10 790.80 L 299.00 785.40 L 292.40 779.60 L 286.20 773.20 L 280.60 766.50 L 275.40 759.40 L 278.00 761.20 L 281.30 764.60 L 288.60 766.50 L 299.50 770.60 L 302.40 771.20 L 313.10 771.40 L 328.90 773.90 L 392.80 778.40 L 423.90 778.40 L 472.30 777.40 L 496.20 776.40 L 513.90 774.90 L 580.10 764.80 L 584.30 763.90 L 588.20 762.40 L 593.60 759.50 L 595.30 759.00 L 604.70 758.20 L 612.00 757.10 L 621.90 754.80 L 630.20 753.70 L 646.60 748.00 Z" fill="#dbcaab" fill-rule="nonzero" node-id="170" stroke="none" target-height="73.5" target-width="371.19998" target-x="275.4" target-y="748"/><path d="M 718.30 767.30 L 715.10 773.80 L 707.90 786.10 L 699.40 797.50 L 694.80 803.00 L 693.80 804.40 L 692.70 807.30 L 691.80 808.40 L 681.10 818.50 L 678.30 821.00 L 675.10 823.10 L 671.70 824.80 L 651.80 831.80 L 651.60 832.20 L 651.80 833.40 L 673.30 832.50 L 671.20 833.70 L 648.90 834.90 L 646.70 829.60 L 645.20 827.20 L 641.20 823.20 L 636.50 820.30 L 634.00 819.50 L 628.80 818.80 L 623.60 819.40 L 619.80 820.40 L 616.80 821.80 L 614.40 823.30 L 612.70 825.00 L 611.40 827.00 L 610.50 829.20 L 610.10 831.70 L 610.20 834.60 L 584.30 834.30 L 570.60 830.40 L 566.60 827.40 L 562.50 824.80 L 558.30 822.70 L 553.90 820.90 L 552.40 817.30 L 559.60 815.40 L 566.70 813.10 L 573.60 810.40 L 580.30 807.40 L 586.80 803.90 L 593.20 800.00 L 595.30 799.70 L 597.40 799.70 L 598.60 800.20 L 596.30 802.80 L 595.00 805.90 L 595.30 808.60 L 596.30 810.50 L 603.20 813.70 L 606.40 814.60 L 611.10 815.20 L 615.50 813.20 L 626.80 810.40 L 629.60 809.20 L 641.50 802.40 L 645.90 798.60 L 650.10 794.40 L 654.30 791.30 L 656.60 790.00 L 663.70 787.20 L 675.40 779.90 L 683.00 775.90 L 690.80 772.30 L 704.60 769.00 L 718.30 767.30 Z" fill="#df615d" fill-rule="nonzero" node-id="172" stroke="none" target-height="67.60004" target-width="165.89996" target-x="552.4" target-y="767.3"/><path d="M 228.00 785.10 L 229.60 785.10 L 231.00 785.70 L 232.20 786.70 L 234.90 791.30 L 239.80 797.00 L 244.30 804.50 L 250.10 812.70 L 256.80 820.20 L 262.60 825.20 L 264.90 826.60 L 270.00 828.20 L 276.70 828.60 L 277.80 829.00 L 279.80 830.60 L 280.00 827.60 L 280.70 825.80 L 282.50 824.00 L 288.00 821.60 L 292.40 820.30 L 296.90 819.60 L 301.40 819.50 L 307.90 820.90 L 313.90 823.80 L 317.50 826.30 L 320.60 829.40 L 323.40 832.90 L 263.30 832.90 L 257.90 829.00 L 252.20 822.40 L 246.70 815.50 L 241.50 808.30 L 236.70 800.80 L 232.20 793.10 L 228.00 785.10 Z" fill="#e37a7b" fill-rule="nonzero" node-id="174" stroke="none" target-height="47.80005" target-width="95.399994" target-x="228" target-y="785.1"/><path d="M 766.00 833.90 L 785.00 832.60 L 785.20 832.40 L 785.00 831.50 L 784.10 829.70 L 783.50 829.00 L 782.60 828.80 L 777.10 829.50 L 771.70 829.80 L 766.20 829.70 L 763.50 829.40 L 759.90 828.10 L 758.60 827.00 L 757.60 825.70 L 754.70 815.60 L 753.00 811.50 L 751.00 807.60 L 759.10 802.00 L 765.40 798.20 L 769.60 796.00 L 775.40 793.90 L 779.00 793.30 L 782.20 793.40 L 784.90 793.90 L 787.30 794.90 L 789.40 796.30 L 791.30 798.30 L 793.00 800.90 L 796.20 809.70 L 797.50 815.20 L 798.50 820.70 L 799.10 827.50 L 800.30 829.30 L 801.70 830.20 L 803.40 830.50 L 859.00 830.50 L 863.10 831.00 L 862.60 831.30 L 856.60 833.00 L 853.60 833.20 L 818.50 833.80 L 805.40 834.50 L 792.30 834.70 L 766.00 833.90 Z" fill="#baa4ab" fill-rule="nonzero" node-id="176" stroke="none" target-height="41.400024" target-width="112.099976" target-x="751" target-y="793.3"/><path d="M 312.80 795.60 L 329.40 804.50 L 336.30 807.70 L 343.50 810.40 L 349.80 812.30 L 355.40 813.50 L 375.50 817.20 L 386.30 819.70 L 393.20 820.80 L 400.30 821.40 L 407.30 821.50 L 428.40 820.80 L 503.90 820.00 L 528.10 819.00 L 540.20 818.10 L 552.10 816.70 L 553.60 820.30 L 535.20 822.40 L 521.40 823.50 L 443.80 824.50 L 405.70 823.30 L 377.90 821.60 L 375.10 821.80 L 372.30 822.50 L 369.50 823.60 L 367.00 825.20 L 364.70 827.10 L 362.70 829.40 L 360.90 832.20 L 359.40 833.20 L 358.60 833.30 L 358.20 832.80 L 350.40 833.70 L 342.40 834.10 L 334.40 834.00 L 326.40 833.40 L 324.40 831.70 L 324.40 830.70 L 344.20 820.60 L 345.40 819.20 L 345.50 818.30 L 344.60 816.60 L 343.90 816.10 L 335.50 812.70 L 327.40 808.80 L 319.50 804.50 L 311.80 799.70 L 310.70 798.80 L 310.00 797.60 L 309.80 796.20 L 310.00 794.60 L 312.80 795.60 Z" fill="#6d8489" fill-rule="nonzero" node-id="178" stroke="none" target-height="39.5" target-width="243.79999" target-x="309.8" target-y="794.6"/><path d="M 257.70 829.80 L 263.10 833.70 L 163.40 834.00 L 161.80 833.80 L 161.10 833.30 L 161.00 832.50 L 166.50 821.80 L 171.90 813.10 L 176.10 808.00 L 181.00 804.10 L 183.80 802.60 L 187.00 801.50 L 190.20 800.90 L 193.90 800.80 L 198.20 801.20 L 201.00 801.90 L 203.70 803.20 L 206.10 804.90 L 208.30 807.20 L 211.90 811.80 L 217.50 820.20 L 224.40 832.50 L 225.40 833.40 L 226.80 833.70 L 247.80 831.70 L 251.20 831.90 L 255.50 831.20 L 257.00 830.50 L 257.70 829.80 Z" fill="#a79ba2" fill-rule="nonzero" node-id="180" stroke="none" target-height="33.200012" target-width="102.100006" target-x="161" target-y="800.8"/><path d="M 751.10 807.80 L 753.10 811.70 L 754.80 815.80 L 757.80 826.00 L 759.00 827.50 L 760.70 828.70 L 763.10 829.50 L 766.30 829.90 L 774.60 829.90 L 782.70 829.00 L 783.60 829.20 L 784.20 829.90 L 785.10 831.70 L 785.10 832.40 L 784.50 832.90 L 766.10 834.10 L 735.70 834.40 L 733.60 833.50 L 732.90 832.90 L 732.70 829.60 L 736.50 823.70 L 740.90 818.00 L 744.00 814.40 L 751.10 807.80 Z" fill="#958a9c" fill-rule="nonzero" node-id="182" stroke="none" target-height="26.600037" target-width="52.399963" target-x="732.7" target-y="807.8"/><path d="M 648.70 834.50 L 610.00 834.20 L 609.90 831.30 L 610.30 828.80 L 611.20 826.60 L 612.50 824.70 L 614.20 822.90 L 616.60 821.40 L 619.60 820.10 L 623.40 819.00 L 628.60 818.40 L 633.80 819.10 L 636.30 819.90 L 641.20 822.80 L 643.40 824.70 L 645.20 826.80 L 647.90 831.80 L 648.70 834.50 Z" fill="#baa4ab" fill-rule="nonzero" node-id="184" stroke="none" target-height="16.099976" target-width="38.799988" target-x="609.9" target-y="818.4"/><path d="M 554.10 820.30 L 562.90 824.40 L 567.00 826.90 L 570.80 829.80 L 510.10 830.50 L 450.00 830.70 L 390.50 830.40 L 375.60 830.80 L 360.70 831.90 L 364.50 827.00 L 369.30 823.30 L 373.00 822.10 L 376.70 821.50 L 428.60 823.80 L 451.00 824.10 L 496.00 823.30 L 525.90 823.00 L 554.10 820.30 Z" fill="#f6f7f9" fill-rule="nonzero" node-id="186" stroke="none" target-height="11.600037" target-width="210.09998" target-x="360.7" target-y="820.3"/><path d="M 570.80 829.80 L 584.50 833.70 L 545.40 834.80 L 509.30 835.10 L 438.70 835.20 L 390.60 834.90 L 365.20 835.20 L 362.80 834.70 L 360.50 833.80 L 358.40 832.50 L 358.80 832.80 L 359.50 832.70 L 361.10 831.90 L 376.00 830.80 L 390.90 830.40 L 480.20 830.80 L 570.80 829.80 Z" fill="#f0d1cd" fill-rule="nonzero" node-id="188" stroke="none" target-height="5.4000244" target-width="226.1" target-x="358.4" target-y="829.8"/><path d="M 680.90 829.80 L 728.20 831.30 L 729.50 831.10 L 733.00 829.50 L 733.20 832.50 L 733.90 833.40 L 736.00 834.30 L 711.30 834.60 L 688.40 835.70 L 682.70 835.30 L 677.10 834.40 L 671.70 833.10 L 675.20 831.30 L 680.90 829.80 Z" fill="#f0d1cd" fill-rule="nonzero" node-id="190" stroke="none" target-height="6.200012" target-width="64.29999" target-x="671.7" target-y="829.5"/></svg>
