<svg height="1024" node-id="1" sillyvg="true" template-height="1024" template-width="1024" version="1.1" viewBox="0 0 1024 1024" width="1024" xmlns="http://www.w3.org/2000/svg" xmlns:xlink="http://www.w3.org/1999/xlink"><defs node-id="77"></defs><path d="M 215.30 291.80 L 222.70 293.40 L 224.30 294.30 L 225.80 295.60 L 227.50 298.10 L 228.80 301.10 L 230.30 307.50 L 230.50 313.20 L 230.20 315.30 L 228.70 318.70 L 226.90 320.80 L 224.80 322.70 L 220.00 325.90 L 218.40 327.90 L 217.80 330.40 L 218.10 336.60 L 217.80 343.10 L 217.10 346.10 L 216.00 348.70 L 214.40 350.90 L 212.60 352.60 L 210.60 353.80 L 208.40 354.70 L 205.80 355.10 L 202.90 355.10 L 199.50 354.50 L 197.50 353.80 L 195.80 352.80 L 194.50 351.50 L 192.90 349.10 L 191.80 346.30 L 191.10 343.30 L 189.30 333.50 L 188.60 332.80 L 180.30 328.60 L 178.00 326.60 L 174.40 321.80 L 173.10 319.10 L 172.20 316.30 L 171.60 313.20 L 171.40 310.30 L 171.80 306.20 L 172.90 303.60 L 174.30 301.20 L 180.10 294.00 L 181.20 291.90 L 182.00 287.50 L 182.30 280.60 L 183.50 277.80 L 185.10 276.00 L 187.10 274.60 L 191.60 272.50 L 196.20 271.40 L 199.90 271.00 L 202.70 271.20 L 204.80 271.80 L 206.70 272.80 L 208.30 274.20 L 209.60 275.90 L 211.00 278.80 L 212.10 282.40 L 214.10 290.70 L 214.40 291.20 L 215.30 291.80 Z M 202.10 329.10 L 209.90 319.30 L 210.60 317.80 L 210.50 315.20 L 209.20 313.50 L 204.50 309.70 L 202.40 308.40 L 200.30 307.60 L 198.10 307.40 L 196.10 307.60 L 194.40 308.40 L 193.10 309.70 L 188.90 315.10 L 188.00 316.80 L 187.60 318.70 L 187.90 320.60 L 188.70 322.70 L 189.90 324.50 L 191.60 326.30 L 196.30 330.10 L 197.80 330.70 L 199.40 330.80 L 200.80 330.20 L 202.10 329.10 Z" fill="#ffb15c" fill-rule="nonzero" node-id="81" stroke="none" target-height="84.100006" target-width="59.100006" target-x="171.4" target-y="271"/><path d="M 202.10 329.10 L 200.40 330.40 L 197.80 330.50 L 196.30 329.80 L 189.80 324.30 L 188.60 322.40 L 187.80 320.40 L 187.60 318.40 L 188.00 316.50 L 188.90 314.80 L 193.10 309.40 L 194.50 308.10 L 196.30 307.30 L 198.30 307.10 L 200.40 307.30 L 202.50 308.10 L 204.50 309.40 L 210.00 314.00 L 210.70 315.90 L 210.60 317.50 L 209.90 319.00 L 202.10 329.10 Z" fill="#ffd9bf" fill-rule="nonzero" node-id="83" stroke="none" target-height="23.399994" target-width="23.09999" target-x="187.6" target-y="307.1"/><path d="M 382.20 313.00 L 381.60 313.30 L 381.20 314.40 L 381.80 315.90 L 388.40 322.10 L 394.10 328.00 L 399.40 334.20 L 404.30 340.70 L 408.80 347.50 L 412.80 354.60 L 413.40 356.10 L 413.40 357.00 L 413.00 357.60 L 412.10 358.00 L 403.20 356.70 L 397.40 354.60 L 394.80 353.10 L 392.50 351.10 L 382.50 341.70 L 377.10 337.50 L 370.60 333.00 L 369.60 332.70 L 367.50 332.80 L 364.50 333.90 L 361.70 335.50 L 354.00 342.50 L 338.90 355.10 L 330.70 364.30 L 318.50 375.80 L 313.60 381.40 L 312.60 383.30 L 312.60 385.90 L 312.90 386.80 L 313.30 387.00 L 314.10 386.50 L 319.30 379.40 L 323.20 374.70 L 328.10 369.90 L 329.20 369.50 L 330.20 369.70 L 330.80 370.70 L 331.20 375.00 L 334.00 381.40 L 339.10 389.30 L 341.80 392.80 L 347.30 399.00 L 347.80 399.00 L 348.10 398.60 L 348.20 397.50 L 347.70 393.70 L 346.80 390.20 L 341.30 376.90 L 340.60 374.20 L 340.30 371.40 L 340.50 368.70 L 341.10 366.00 L 344.50 357.90 L 346.50 354.60 L 351.40 348.60 L 358.80 342.30 L 364.10 338.70 L 365.60 337.90 L 367.10 337.50 L 368.80 337.50 L 370.40 338.00 L 374.40 340.30 L 378.10 343.10 L 381.50 346.20 L 384.60 349.70 L 387.20 353.40 L 389.40 357.40 L 390.00 359.30 L 390.20 361.20 L 390.00 363.10 L 384.90 379.30 L 379.80 393.80 L 379.80 394.40 L 380.20 394.90 L 381.90 394.50 L 382.80 393.60 L 386.90 387.00 L 390.70 380.20 L 394.10 373.10 L 397.10 365.90 L 398.00 359.50 L 398.70 358.50 L 400.80 357.30 L 403.20 357.40 L 409.90 361.20 L 416.40 365.40 L 429.70 375.60 L 430.40 375.70 L 431.00 375.30 L 431.60 374.30 L 431.40 372.90 L 430.90 371.60 L 433.10 369.50 L 436.00 368.50 L 438.30 368.40 L 440.70 368.70 L 448.70 370.90 L 456.40 373.70 L 463.90 377.00 L 471.10 381.00 L 478.00 385.40 L 484.50 390.40 L 486.70 391.00 L 487.70 390.70 L 490.30 388.70 L 491.50 390.70 L 491.90 390.80 L 492.60 390.40 L 500.00 383.80 L 507.80 377.60 L 515.90 371.90 L 524.30 366.60 L 533.00 361.70 L 542.00 357.30 L 544.50 357.00 L 547.40 357.60 L 547.90 357.30 L 548.50 356.80 L 549.20 354.80 L 549.40 352.80 L 550.40 355.50 L 551.30 356.60 L 559.80 360.90 L 567.50 363.60 L 569.70 364.00 L 572.00 363.90 L 574.70 363.40 L 577.70 362.30 L 581.10 360.50 L 583.10 362.30 L 584.80 364.40 L 587.10 369.20 L 588.70 385.10 L 589.80 400.90 L 590.50 418.80 L 590.00 420.90 L 588.30 424.90 L 563.30 457.70 L 563.10 458.80 L 563.40 460.00 L 571.80 470.60 L 578.40 481.00 L 578.90 482.80 L 578.30 489.10 L 577.30 494.60 L 575.70 500.00 L 571.20 510.10 L 566.20 520.00 L 560.10 531.00 L 560.20 531.70 L 560.80 532.00 L 562.50 531.70 L 565.00 530.20 L 566.00 529.20 L 579.70 503.90 L 581.20 503.30 L 586.50 504.10 L 589.20 504.90 L 591.50 506.10 L 592.80 507.20 L 595.10 511.10 L 597.80 513.20 L 598.40 515.40 L 595.70 517.80 L 593.40 520.50 L 591.50 523.50 L 589.90 526.80 L 577.20 528.60 L 575.70 529.40 L 575.30 530.10 L 575.90 537.70 L 577.30 544.30 L 579.70 551.80 L 584.10 554.60 L 587.90 556.40 L 590.30 556.70 L 592.60 556.50 L 594.80 555.90 L 596.90 554.80 L 598.70 553.30 L 600.20 551.50 L 601.60 547.70 L 601.80 545.90 L 601.40 543.30 L 600.40 540.70 L 599.00 538.30 L 597.20 536.00 L 592.60 531.30 L 592.40 530.50 L 592.70 529.60 L 593.80 528.70 L 602.50 533.90 L 606.60 537.40 L 608.80 540.90 L 609.40 542.80 L 609.60 545.20 L 609.20 548.10 L 607.70 554.40 L 605.60 560.40 L 603.20 566.20 L 600.20 571.80 L 596.80 577.10 L 593.00 582.10 L 588.80 586.80 L 583.60 591.90 L 583.30 592.80 L 583.60 593.20 L 588.40 589.10 L 590.30 588.10 L 597.60 586.60 L 603.00 584.30 L 612.10 578.20 L 614.00 576.70 L 615.50 574.90 L 616.90 571.80 L 616.60 570.80 L 615.40 568.80 L 613.80 567.20 L 611.90 566.00 L 609.10 564.90 L 608.30 563.70 L 608.40 562.80 L 612.60 552.50 L 620.20 551.50 L 622.60 550.80 L 625.20 549.30 L 627.00 546.90 L 627.80 542.90 L 628.10 532.50 L 627.80 522.00 L 627.20 511.60 L 626.00 501.10 L 625.20 497.70 L 624.00 494.40 L 622.30 491.20 L 620.20 488.20 L 615.00 482.80 L 607.50 477.60 L 607.60 475.70 L 607.20 474.00 L 606.30 472.50 L 605.00 471.10 L 593.70 464.40 L 587.70 461.60 L 575.40 456.90 L 569.00 455.00 L 570.30 452.20 L 572.00 449.80 L 574.10 447.60 L 574.90 446.20 L 576.10 445.10 L 576.90 445.00 L 585.00 447.90 L 592.00 451.10 L 598.70 454.70 L 610.90 462.40 L 622.50 468.60 L 640.70 476.10 L 642.10 476.10 L 642.60 475.70 L 643.00 474.30 L 642.20 472.00 L 641.10 470.30 L 641.80 469.10 L 642.00 467.70 L 641.60 466.20 L 639.50 462.10 L 639.20 460.80 L 639.40 460.20 L 639.90 459.80 L 641.20 459.90 L 643.60 460.70 L 645.10 461.60 L 646.20 462.60 L 647.50 464.90 L 647.50 468.20 L 647.90 470.00 L 649.30 471.70 L 650.30 472.30 L 652.80 478.30 L 655.70 484.00 L 658.90 489.40 L 662.60 494.50 L 666.60 499.30 L 670.30 503.10 L 674.70 506.90 L 692.50 521.20 L 706.00 533.90 L 729.90 557.50 L 735.20 562.00 L 740.50 565.90 L 744.80 568.50 L 753.60 572.70 L 758.30 574.20 L 763.00 575.40 L 768.00 576.10 L 773.20 576.50 L 778.80 576.40 L 782.40 575.90 L 785.80 575.00 L 788.90 573.70 L 793.30 571.20 L 797.60 568.10 L 798.40 567.10 L 798.70 566.10 L 798.60 565.00 L 798.00 563.90 L 797.30 563.20 L 785.00 555.40 L 795.10 542.40 L 799.80 535.50 L 804.00 528.40 L 807.20 525.40 L 809.70 524.20 L 811.10 524.60 L 813.80 527.30 L 812.00 527.10 L 811.30 527.30 L 811.10 527.70 L 811.30 534.10 L 811.00 540.40 L 810.00 546.70 L 808.40 552.90 L 807.40 555.00 L 806.20 556.90 L 802.40 560.60 L 801.90 561.60 L 801.40 565.10 L 801.70 571.90 L 803.40 578.40 L 804.80 581.40 L 809.40 588.00 L 809.70 589.00 L 808.90 594.20 L 807.60 597.60 L 806.00 600.40 L 804.00 602.70 L 800.80 605.30 L 795.60 616.30 L 793.40 619.70 L 781.60 630.70 L 776.20 634.20 L 774.10 635.10 L 772.40 635.20 L 771.40 634.90 L 768.70 632.90 L 764.30 631.20 L 755.50 629.60 L 750.40 628.20 L 745.50 626.30 L 735.00 620.80 L 729.20 618.00 L 723.10 615.70 L 716.80 613.80 L 709.00 612.10 L 701.30 610.90 L 693.70 610.20 L 686.30 610.00 L 678.80 610.30 L 671.40 611.00 L 664.00 612.20 L 656.70 613.70 L 647.00 616.40 L 637.40 619.70 L 627.00 623.80 L 625.80 623.30 L 625.30 622.30 L 623.10 608.90 L 622.40 608.50 L 621.70 608.70 L 621.40 609.00 L 621.40 616.70 L 621.70 624.10 L 621.50 625.50 L 620.60 626.80 L 614.40 631.90 L 611.00 634.20 L 600.40 640.40 L 587.40 648.80 L 581.20 652.50 L 568.50 659.00 L 567.60 659.30 L 566.40 658.70 L 561.10 638.90 L 560.00 638.00 L 559.00 638.10 L 561.90 657.30 L 562.60 666.70 L 562.70 676.10 L 562.10 683.70 L 560.30 691.00 L 557.30 698.00 L 549.00 706.00 L 545.90 707.90 L 543.30 708.70 L 535.10 710.20 L 530.60 711.60 L 498.90 723.00 L 477.90 729.20 L 467.20 731.90 L 465.30 730.70 L 463.50 729.00 L 461.90 726.80 L 459.40 721.30 L 458.30 717.60 L 463.80 711.40 L 469.00 704.80 L 473.80 697.90 L 478.20 690.80 L 483.80 683.70 L 489.00 676.30 L 493.70 668.60 L 498.00 660.70 L 501.70 652.50 L 506.50 639.90 L 507.40 635.60 L 507.90 631.30 L 507.80 627.00 L 507.30 622.70 L 506.30 618.40 L 504.50 613.60 L 502.30 609.30 L 499.90 605.60 L 497.10 602.30 L 494.00 599.40 L 490.50 596.80 L 486.60 594.70 L 482.40 592.90 L 476.90 591.80 L 466.70 591.50 L 403.80 596.20 L 376.50 597.70 L 321.90 599.60 L 294.50 600.00 L 295.70 598.70 L 297.20 597.80 L 298.90 597.40 L 301.70 597.50 L 302.50 597.30 L 303.90 596.20 L 304.30 595.40 L 304.10 595.10 L 300.60 594.70 L 299.80 594.20 L 297.90 592.30 L 296.40 590.10 L 292.40 580.40 L 282.50 562.30 L 277.60 556.30 L 276.20 555.40 L 275.40 555.40 L 274.20 556.10 L 272.20 558.60 L 269.90 560.60 L 267.20 562.10 L 272.40 556.90 L 277.00 551.20 L 278.50 546.60 L 278.70 544.20 L 278.50 541.60 L 277.60 538.30 L 275.90 534.70 L 273.40 530.60 L 285.40 524.30 L 291.40 520.70 L 297.00 516.80 L 300.60 513.90 L 306.70 507.80 L 307.30 506.50 L 307.50 505.20 L 307.30 504.00 L 305.40 501.50 L 302.10 499.30 L 282.50 493.30 L 271.80 490.70 L 266.70 489.80 L 259.70 489.30 L 256.20 490.00 L 258.60 476.60 L 261.80 468.70 L 268.30 457.30 L 273.20 446.30 L 277.30 437.90 L 282.50 425.90 L 283.20 420.30 L 286.70 413.10 L 291.70 404.00 L 294.30 395.80 L 294.50 393.80 L 294.40 392.00 L 293.80 390.60 L 292.90 389.40 L 291.70 388.30 L 289.90 387.50 L 287.50 387.00 L 290.30 384.10 L 296.50 379.30 L 299.90 377.30 L 308.20 373.80 L 310.80 369.20 L 311.10 371.30 L 312.40 372.10 L 313.70 371.90 L 323.70 366.60 L 324.20 365.20 L 323.70 362.90 L 320.90 360.70 L 319.00 357.90 L 320.00 356.10 L 327.30 347.20 L 333.80 340.20 L 340.60 333.60 L 347.70 327.40 L 355.20 321.60 L 363.00 316.10 L 370.10 311.50 L 372.40 310.40 L 374.00 309.90 L 377.20 309.90 L 380.40 311.40 L 382.20 313.00 Z M 360.90 348.80 L 359.00 351.20 L 356.00 357.00 L 355.00 360.20 L 353.50 366.40 L 353.70 368.40 L 354.90 370.20 L 356.50 371.60 L 358.30 372.50 L 360.30 372.80 L 362.30 372.70 L 364.40 372.00 L 367.20 370.10 L 369.10 368.40 L 372.10 364.20 L 373.80 359.30 L 374.00 357.50 L 373.80 355.30 L 372.00 350.90 L 370.60 349.00 L 367.70 346.80 L 365.10 346.40 L 363.80 346.70 L 360.90 348.80 Z M 539.70 362.40 L 538.90 363.80 L 538.80 364.60 L 540.70 374.00 L 541.90 377.80 L 543.60 381.50 L 545.70 385.00 L 547.10 386.50 L 551.00 389.00 L 555.80 390.50 L 558.30 390.90 L 560.90 390.90 L 565.70 390.00 L 567.80 389.00 L 569.60 387.60 L 571.00 385.90 L 571.80 384.40 L 572.50 380.60 L 572.30 378.10 L 570.70 373.50 L 569.40 371.40 L 566.90 368.70 L 563.90 366.20 L 557.00 362.30 L 553.40 360.90 L 548.10 359.30 L 544.40 359.40 L 542.60 360.00 L 541.10 361.00 L 539.70 362.40 Z M 428.20 383.20 L 407.90 411.60 L 407.90 412.30 L 409.70 412.00 L 416.70 405.60 L 419.60 402.20 L 422.20 398.40 L 431.40 382.30 L 431.20 381.40 L 430.80 381.40 L 429.00 382.30 L 428.20 383.20 Z M 321.60 411.80 L 321.70 413.90 L 322.20 415.80 L 323.30 417.70 L 325.50 420.10 L 328.40 422.40 L 334.80 426.00 L 340.80 428.30 L 341.50 428.30 L 342.10 427.90 L 342.30 427.20 L 328.70 418.50 L 326.80 417.00 L 325.40 415.30 L 322.50 410.40 L 322.20 410.30 L 321.90 410.50 L 321.60 411.80 Z M 481.60 512.10 L 483.40 512.10 L 485.20 512.50 L 485.60 512.70 L 486.00 513.60 L 485.10 515.70 L 483.20 518.00 L 482.80 519.20 L 482.60 522.90 L 483.00 526.20 L 483.80 529.20 L 485.20 531.80 L 487.00 534.20 L 489.20 536.30 L 492.00 538.20 L 495.30 539.80 L 499.70 541.30 L 503.90 542.10 L 508.00 542.30 L 512.00 541.80 L 516.10 540.80 L 520.10 539.10 L 524.20 536.70 L 528.40 533.50 L 531.10 531.00 L 533.30 528.30 L 535.00 525.20 L 536.30 521.90 L 537.00 518.60 L 537.30 515.00 L 537.00 511.50 L 536.10 508.10 L 534.70 504.70 L 532.80 501.30 L 530.60 498.20 L 527.90 495.50 L 524.90 493.10 L 523.80 493.30 L 523.50 489.90 L 522.80 486.70 L 521.60 483.60 L 519.90 480.80 L 517.70 478.30 L 515.10 476.10 L 514.50 476.00 L 513.80 476.70 L 514.60 483.60 L 516.60 490.30 L 518.10 493.40 L 519.80 496.40 L 522.90 496.90 L 524.70 498.20 L 525.10 499.20 L 525.60 502.60 L 527.80 505.70 L 530.30 510.20 L 531.10 514.00 L 531.10 515.90 L 529.80 520.90 L 528.00 524.80 L 525.90 528.00 L 523.50 530.70 L 520.90 532.90 L 517.90 534.70 L 514.50 536.00 L 510.80 536.80 L 506.50 537.20 L 501.70 537.00 L 496.10 535.70 L 492.10 533.30 L 490.60 531.70 L 489.40 529.90 L 488.50 527.80 L 487.80 523.30 L 488.60 518.20 L 489.60 515.30 L 491.20 512.10 L 493.30 509.30 L 495.70 506.80 L 498.60 504.70 L 501.70 503.20 L 505.90 501.80 L 508.10 500.50 L 509.40 500.20 L 510.10 500.50 L 510.50 501.20 L 508.50 503.90 L 508.50 505.30 L 509.80 505.70 L 513.00 505.10 L 515.50 503.00 L 516.60 500.60 L 516.30 499.60 L 514.60 497.10 L 513.60 496.10 L 511.30 495.10 L 506.80 496.20 L 501.20 499.10 L 491.90 505.50 L 488.40 506.60 L 486.60 506.80 L 479.00 506.60 L 452.60 496.80 L 452.20 496.60 L 451.80 495.70 L 452.30 494.50 L 483.80 475.90 L 485.10 473.00 L 485.30 471.90 L 485.00 470.90 L 484.30 470.30 L 482.70 469.60 L 481.00 469.40 L 477.60 469.90 L 466.60 474.80 L 455.80 480.60 L 450.70 483.80 L 443.60 489.60 L 439.60 494.50 L 439.20 496.50 L 440.50 499.20 L 441.60 500.50 L 444.60 502.50 L 446.80 503.40 L 455.60 506.50 L 464.30 509.00 L 472.90 510.80 L 481.60 512.10 Z M 633.70 515.40 L 634.20 516.70 L 635.00 517.60 L 639.50 520.50 L 640.80 520.90 L 642.00 520.90 L 643.10 520.30 L 644.00 519.40 L 644.40 517.20 L 641.50 510.20 L 640.80 509.20 L 639.70 508.60 L 638.50 508.40 L 637.30 508.60 L 634.20 510.10 L 633.20 511.90 L 633.70 515.40 Z M 362.30 510.10 L 362.00 509.70 L 361.00 509.30 L 357.80 509.20 L 354.80 509.70 L 353.60 510.50 L 353.90 510.90 L 354.90 511.30 L 358.10 511.40 L 361.10 510.90 L 362.30 510.10 Z M 672.10 525.50 L 674.70 524.40 L 676.40 522.20 L 676.80 519.50 L 676.40 518.10 L 672.60 512.60 L 671.40 511.50 L 670.10 510.70 L 668.50 510.40 L 667.00 510.60 L 662.80 511.90 L 661.50 513.00 L 660.50 514.50 L 659.70 520.70 L 660.20 523.60 L 662.00 525.80 L 664.60 526.70 L 672.10 525.50 Z M 440.70 536.90 L 440.50 535.20 L 439.60 534.30 L 438.60 534.20 L 434.10 536.30 L 430.20 538.70 L 426.70 541.50 L 426.20 542.30 L 426.10 543.80 L 426.80 544.20 L 427.30 544.20 L 438.80 539.60 L 439.60 538.90 L 440.70 536.90 Z M 562.50 557.90 L 566.30 558.20 L 569.90 557.20 L 572.90 555.10 L 574.10 553.60 L 575.70 550.10 L 576.00 546.30 L 575.00 542.70 L 572.90 539.70 L 571.40 538.50 L 567.90 536.90 L 564.10 536.60 L 562.30 536.90 L 559.00 538.50 L 556.30 541.20 L 555.40 542.80 L 554.50 545.40 L 554.40 549.10 L 555.50 552.50 L 557.70 555.30 L 559.10 556.40 L 562.50 557.90 Z M 422.60 548.30 L 420.60 549.80 L 418.70 550.80 L 417.00 551.20 L 415.10 551.20 L 413.20 550.60 L 411.00 549.40 L 409.90 547.80 L 409.70 545.80 L 409.10 544.60 L 403.00 544.00 L 391.20 544.40 L 381.40 545.40 L 371.70 547.00 L 354.00 551.10 L 345.80 552.30 L 340.20 552.40 L 329.00 551.60 L 326.70 551.00 L 318.90 547.50 L 316.70 547.10 L 315.10 547.50 L 314.40 549.10 L 314.70 550.10 L 315.30 550.90 L 318.90 552.90 L 320.90 553.50 L 345.30 556.00 L 350.40 555.50 L 362.70 552.10 L 372.80 549.90 L 382.80 548.20 L 392.90 547.10 L 396.70 546.80 L 400.50 547.00 L 404.20 547.70 L 407.90 548.80 L 411.30 550.30 L 414.60 552.20 L 416.40 552.70 L 419.10 552.10 L 420.90 551.30 L 422.50 550.10 L 424.70 547.10 L 424.70 546.80 L 424.30 547.00 L 422.60 548.30 Z M 744.80 586.00 L 746.70 586.00 L 748.40 584.90 L 750.60 582.40 L 751.20 581.30 L 751.40 579.90 L 751.10 578.60 L 749.90 577.20 L 745.30 575.30 L 744.10 575.00 L 741.90 575.80 L 739.30 579.70 L 738.90 581.00 L 739.00 582.30 L 739.50 583.50 L 740.40 584.40 L 744.80 586.00 Z M 794.80 586.70 L 794.50 584.80 L 793.80 583.20 L 791.20 579.40 L 788.90 577.20 L 788.40 577.10 L 788.20 577.50 L 788.60 578.90 L 790.60 582.50 L 793.10 585.70 L 794.80 586.70 Z M 764.40 583.40 L 761.90 583.00 L 759.50 583.90 L 757.90 585.90 L 757.60 587.20 L 758.60 593.50 L 759.40 595.30 L 760.80 596.60 L 764.70 599.00 L 765.90 599.30 L 768.20 598.80 L 770.20 597.10 L 772.20 592.20 L 772.50 589.70 L 772.20 588.60 L 771.20 587.10 L 769.70 585.90 L 764.40 583.40 Z" fill="#ffa490" fill-rule="nonzero" node-id="85" stroke="none" target-height="422.00003" target-width="557.6" target-x="256.2" target-y="309.9"/><path d="M 382.20 313.00 L 391.30 321.30 L 399.40 330.40 L 406.60 340.30 L 414.80 352.70 L 419.30 358.60 L 412.20 357.90 L 413.10 357.60 L 413.50 357.00 L 413.50 356.10 L 412.90 354.50 L 408.80 347.40 L 404.30 340.60 L 399.40 334.10 L 394.10 327.90 L 388.50 322.00 L 381.90 315.80 L 381.30 314.50 L 381.70 313.30 L 382.20 313.00 Z" fill="#df615d" fill-rule="nonzero" node-id="87" stroke="none" target-height="45.600006" target-width="38" target-x="381.3" target-y="313"/><path d="M 403.20 356.60 L 403.20 357.70 L 400.80 357.70 L 399.60 358.10 L 398.10 359.60 L 397.10 366.20 L 390.70 380.40 L 386.90 387.20 L 382.40 394.50 L 380.60 395.20 L 380.00 394.90 L 379.70 393.90 L 384.80 379.50 L 389.90 363.20 L 390.10 361.30 L 389.90 359.40 L 389.30 357.50 L 387.10 353.40 L 384.40 349.60 L 381.40 346.20 L 378.00 343.10 L 374.30 340.40 L 370.30 338.10 L 368.70 337.60 L 367.10 337.60 L 365.50 338.00 L 358.70 342.40 L 351.30 348.80 L 346.40 354.80 L 342.60 361.90 L 341.00 366.10 L 340.40 368.80 L 340.20 371.60 L 340.50 374.30 L 341.20 377.00 L 345.70 387.00 L 347.70 393.70 L 348.10 397.60 L 348.00 398.80 L 347.70 399.10 L 347.30 399.10 L 346.30 398.30 L 339.10 389.50 L 334.00 381.60 L 331.20 375.10 L 330.70 372.90 L 330.70 370.40 L 329.80 369.70 L 327.80 370.00 L 323.10 374.80 L 319.10 379.50 L 314.00 386.60 L 313.20 387.10 L 312.70 386.90 L 312.40 386.00 L 312.50 383.40 L 314.70 380.00 L 318.30 375.90 L 330.70 364.40 L 337.20 356.70 L 340.10 353.90 L 353.90 342.60 L 360.70 336.10 L 362.70 334.70 L 367.40 332.90 L 369.50 332.80 L 370.50 333.10 L 377.00 337.60 L 382.40 341.80 L 394.70 353.10 L 397.40 354.70 L 400.20 355.80 L 403.20 356.60 Z" fill="#e54a3e" fill-rule="nonzero" node-id="89" stroke="none" target-height="66.30002" target-width="90.80002" target-x="312.4" target-y="332.8"/><g node-id="240"><path d="M 265.70 336.70 L 266.90 337.10 L 268.10 337.90 L 270.00 340.80 L 271.10 344.90 L 271.10 349.60 L 270.10 354.30 L 268.20 358.10 L 265.80 360.50 L 264.40 361.10 L 263.10 361.20 L 261.90 360.80 L 260.70 360.00 L 258.80 357.10 L 257.80 353.00 L 257.70 348.20 L 258.70 343.60 L 260.60 339.80 L 263.00 337.40 L 264.40 336.80 L 265.70 336.70 Z" fill="#cbda66" fill-rule="nonzero" group-id="1" node-id="93" stroke="none" target-height="24.5" target-width="13.399994" target-x="257.7" target-y="336.7"/></g><path d="M 648.20 341.40 L 649.40 339.30 L 651.40 338.00 L 652.50 337.80 L 658.70 338.90 L 661.40 339.90 L 663.60 341.30 L 665.40 343.20 L 666.60 345.30 L 667.20 348.50 L 666.80 351.40 L 666.30 353.00 L 664.40 355.60 L 662.40 357.00 L 659.90 357.90 L 657.30 358.20 L 654.50 357.90 L 648.40 356.30 L 646.70 354.70 L 646.00 352.50 L 646.00 351.20 L 648.20 341.40 Z" fill="#f4c5a9" fill-rule="nonzero" node-id="96" stroke="none" target-height="20.400024" target-width="21.200012" target-x="646" target-y="337.8"/><path d="M 489.20 368.20 L 449.90 358.40 L 447.80 358.80 L 445.80 360.90 L 444.60 361.50 L 443.00 361.60 L 441.20 361.00 L 438.70 359.50 L 450.40 354.10 L 463.50 346.80 L 465.60 346.10 L 467.80 345.90 L 470.00 346.20 L 472.10 346.90 L 474.00 348.10 L 477.00 350.90 L 480.50 354.90 L 484.50 360.60 L 489.20 368.20 Z" fill="#ce6e83" fill-rule="nonzero" node-id="98" stroke="none" target-height="22.300018" target-width="50.5" target-x="438.7" target-y="345.9"/><path d="M 353.60 366.20 L 355.10 360.00 L 357.40 353.90 L 359.00 351.10 L 361.00 348.60 L 363.90 346.50 L 365.20 346.20 L 367.80 346.60 L 370.70 348.80 L 373.30 352.90 L 374.30 357.30 L 374.20 359.10 L 373.50 361.60 L 371.10 366.20 L 367.60 369.90 L 365.50 371.40 L 363.50 372.40 L 361.50 372.70 L 359.40 372.50 L 357.60 371.80 L 355.90 370.60 L 353.80 367.80 L 353.60 366.20 Z" fill="#ffecd2" fill-rule="nonzero" node-id="100" stroke="none" target-height="26.5" target-width="20.699982" target-x="353.6" target-y="346.2"/><path d="M 581.70 360.60 L 578.90 362.00 L 574.20 363.70 L 569.90 364.10 L 568.10 363.70 L 560.50 361.00 L 551.90 356.70 L 550.90 355.60 L 550.20 354.40 L 550.00 352.90 L 555.90 350.40 L 558.50 349.80 L 563.60 349.80 L 565.90 350.40 L 570.10 352.40 L 574.20 354.80 L 581.70 360.60 Z" fill="#ea372a" fill-rule="nonzero" node-id="102" stroke="none" target-height="14.300018" target-width="31.700012" target-x="550" target-y="349.8"/><path d="M 403.20 356.60 L 419.20 358.60 L 428.60 357.90 L 429.60 359.30 L 428.90 360.60 L 422.80 362.80 L 422.30 363.10 L 421.90 364.10 L 422.30 365.30 L 430.80 371.80 L 431.50 374.50 L 430.90 375.50 L 430.30 375.90 L 429.60 375.80 L 416.30 365.70 L 409.70 361.50 L 402.70 357.60 L 403.40 357.30 L 403.20 356.60 Z" fill="#c33935" fill-rule="nonzero" node-id="104" stroke="none" target-height="19.299988" target-width="28.799988" target-x="402.7" target-y="356.6"/><path d="M 428.60 357.90 L 433.70 358.00 L 436.20 358.70 L 438.70 359.70 L 441.20 361.20 L 443.00 361.80 L 444.60 361.70 L 445.80 361.10 L 447.60 359.10 L 449.10 358.40 L 489.20 368.40 L 493.70 373.20 L 499.30 376.90 L 499.80 377.70 L 490.80 388.90 L 488.10 391.00 L 487.10 391.30 L 486.00 391.20 L 478.50 385.70 L 471.60 381.30 L 464.40 377.40 L 456.90 374.10 L 449.30 371.20 L 441.40 368.90 L 439.00 368.60 L 435.20 369.00 L 432.60 370.60 L 431.60 371.80 L 423.10 365.30 L 422.60 364.40 L 423.20 363.00 L 429.60 360.70 L 430.30 360.00 L 429.80 358.90 L 428.60 357.90 Z" fill="#e54a3e" fill-rule="nonzero" node-id="106" stroke="none" target-height="33.399994" target-width="77.19998" target-x="422.6" target-y="357.9"/><path d="M 311.80 370.00 L 318.90 358.20 L 320.30 360.50 L 321.20 361.40 L 323.90 363.10 L 324.70 364.40 L 325.00 366.00 L 324.10 367.60 L 314.50 372.70 L 313.10 372.80 L 311.80 372.00 L 311.60 370.70 L 311.80 370.00 Z" fill="#b14f59" fill-rule="nonzero" node-id="108" stroke="none" target-height="14.599976" target-width="13.399994" target-x="311.6" target-y="358.2"/><path d="M 539.70 362.20 L 542.80 359.90 L 546.30 359.00 L 548.20 359.00 L 553.40 360.60 L 557.00 362.10 L 563.90 366.00 L 567.00 368.40 L 569.40 371.20 L 571.70 375.40 L 572.30 377.80 L 572.50 380.30 L 572.40 382.40 L 571.20 385.70 L 569.80 387.40 L 568.00 388.80 L 565.90 389.70 L 561.20 390.70 L 556.00 390.30 L 551.10 388.80 L 548.90 387.60 L 545.70 384.70 L 543.50 381.20 L 541.80 377.50 L 540.50 373.70 L 539.60 367.40 L 538.80 364.40 L 539.10 362.90 L 539.70 362.20 Z" fill="#e54a3e" fill-rule="nonzero" node-id="110" stroke="none" target-height="31.700012" target-width="33.700012" target-x="538.8" target-y="359"/><path d="M 587.70 369.30 L 589.50 373.00 L 590.80 376.90 L 591.70 381.10 L 592.90 400.60 L 594.50 420.30 L 595.50 420.20 L 598.70 417.90 L 602.30 414.80 L 604.10 414.60 L 605.30 415.50 L 607.20 419.50 L 608.00 423.70 L 607.50 427.90 L 606.90 430.00 L 603.90 435.40 L 603.90 437.10 L 604.80 439.20 L 606.00 440.40 L 609.20 441.50 L 611.90 442.20 L 619.30 442.90 L 621.00 443.50 L 622.50 444.40 L 623.80 445.80 L 641.90 471.30 L 643.70 474.90 L 643.60 476.30 L 643.20 476.80 L 641.90 477.20 L 632.20 473.50 L 617.40 466.70 L 611.60 463.40 L 599.50 455.60 L 592.60 451.90 L 585.60 448.60 L 577.50 445.70 L 576.70 445.80 L 575.40 446.80 L 574.70 448.30 L 572.90 446.50 L 589.00 425.10 L 590.90 421.10 L 591.20 416.80 L 589.80 393.20 L 587.70 369.30 Z" fill="#469da7" fill-rule="nonzero" node-id="112" stroke="none" target-height="107.900024" target-width="70.79999" target-x="572.9" target-y="369.3"/><path d="M 751.90 416.90 L 751.30 421.60 L 749.70 426.00 L 747.00 429.50 L 745.40 430.90 L 741.50 432.70 L 739.30 433.00 L 737.00 432.80 L 731.10 431.00 L 728.70 429.20 L 727.90 428.00 L 727.10 421.60 L 725.80 419.10 L 724.50 417.80 L 720.60 415.20 L 717.10 412.40 L 715.30 410.10 L 714.20 407.90 L 713.50 405.80 L 713.30 403.80 L 713.60 401.80 L 714.30 399.80 L 715.60 397.70 L 718.60 394.50 L 719.70 393.90 L 724.40 392.70 L 725.60 392.10 L 726.20 390.90 L 729.10 381.70 L 729.90 380.20 L 731.10 379.00 L 733.30 377.80 L 738.10 376.50 L 743.00 376.70 L 745.40 377.40 L 747.90 378.90 L 750.10 382.20 L 751.10 384.60 L 754.00 395.20 L 755.10 396.20 L 758.40 397.10 L 760.40 398.00 L 762.00 399.20 L 763.20 400.70 L 764.60 404.20 L 764.40 407.80 L 763.80 409.60 L 762.90 411.20 L 761.60 412.60 L 760.00 413.90 L 758.10 414.80 L 755.90 415.30 L 752.80 415.40 L 752.00 416.20 L 751.90 416.90 Z M 734.90 419.20 L 736.10 420.70 L 737.00 421.10 L 738.60 420.70 L 744.90 413.80 L 745.50 412.30 L 745.50 411.50 L 742.40 406.20 L 741.00 405.10 L 739.30 405.10 L 733.10 407.60 L 732.50 408.30 L 732.30 410.20 L 734.90 419.20 Z" fill="#ffc156" fill-rule="nonzero" node-id="114" stroke="none" target-height="56.5" target-width="51.299988" target-x="713.3" target-y="376.5"/><path d="M 428.40 383.20 L 429.20 382.40 L 430.90 381.70 L 431.30 381.80 L 431.60 382.50 L 422.40 398.60 L 419.90 402.30 L 417.10 405.70 L 413.90 408.90 L 410.30 411.80 L 408.30 412.50 L 407.90 411.90 L 428.40 383.20 Z" fill="#e54a3e" fill-rule="nonzero" node-id="116" stroke="none" target-height="30.799988" target-width="23.700012" target-x="407.9" target-y="381.7"/><path d="M 288.50 387.90 L 291.20 388.60 L 293.10 389.60 L 294.40 390.80 L 295.20 392.30 L 295.50 394.10 L 295.40 396.40 L 294.50 399.30 L 292.40 405.90 L 287.70 413.90 L 284.20 421.20 L 283.50 426.80 L 280.20 434.80 L 269.70 457.30 L 262.00 471.50 L 259.60 477.50 L 258.80 480.90 L 257.90 487.60 L 257.20 490.90 L 255.00 493.10 L 254.40 494.00 L 254.20 495.00 L 254.40 496.00 L 255.70 497.40 L 275.90 501.70 L 285.50 504.20 L 295.00 507.20 L 295.70 508.10 L 295.60 508.80 L 273.80 524.60 L 270.90 526.10 L 268.50 527.00 L 266.50 527.20 L 252.30 527.20 L 249.70 528.10 L 249.20 529.00 L 248.80 531.10 L 249.30 533.00 L 250.10 533.70 L 251.10 533.90 L 253.30 532.80 L 254.60 532.60 L 269.80 534.20 L 270.70 534.50 L 271.40 535.30 L 273.20 538.90 L 274.20 542.10 L 274.50 545.00 L 274.30 547.70 L 273.60 550.30 L 272.30 552.70 L 270.50 555.20 L 268.40 557.40 L 266.10 559.20 L 260.80 562.00 L 257.90 562.90 L 254.90 563.30 L 251.90 563.40 L 245.20 562.50 L 237.70 560.30 L 234.20 558.70 L 230.40 555.70 L 228.90 553.80 L 227.80 551.70 L 227.10 549.30 L 226.50 535.60 L 225.90 534.40 L 225.00 533.40 L 223.80 532.70 L 223.30 531.80 L 223.40 529.60 L 224.60 527.70 L 225.40 525.60 L 224.90 523.20 L 224.50 523.00 L 223.80 523.40 L 222.70 524.70 L 217.80 532.70 L 216.40 535.60 L 215.80 537.80 L 215.70 539.50 L 216.50 541.60 L 218.70 542.80 L 220.60 544.70 L 222.10 547.00 L 224.50 553.20 L 226.30 556.60 L 228.90 559.40 L 231.80 561.90 L 235.20 563.90 L 242.60 566.80 L 246.60 567.60 L 254.40 568.30 L 258.00 568.20 L 260.90 567.50 L 263.70 566.40 L 270.50 562.00 L 273.90 559.00 L 276.00 556.60 L 277.60 556.40 L 278.50 556.90 L 283.90 563.30 L 285.20 565.50 L 293.70 581.40 L 297.70 591.10 L 299.20 593.30 L 301.10 595.20 L 302.90 595.90 L 305.30 596.10 L 305.50 596.40 L 304.60 597.80 L 303.00 598.50 L 300.20 598.30 L 298.50 598.70 L 297.00 599.60 L 295.80 601.00 L 282.80 602.10 L 279.20 602.90 L 276.00 604.00 L 273.00 605.40 L 270.20 607.30 L 267.70 609.60 L 265.50 612.30 L 263.40 615.50 L 261.40 619.30 L 256.00 631.20 L 251.60 643.70 L 239.00 643.90 L 233.20 644.50 L 227.30 644.70 L 221.40 644.30 L 215.50 643.50 L 212.70 641.30 L 210.10 639.80 L 207.80 639.00 L 205.60 638.80 L 203.50 639.00 L 201.50 639.70 L 199.40 640.90 L 197.30 642.80 L 195.20 645.50 L 193.20 645.60 L 191.40 644.40 L 191.40 643.30 L 194.20 641.00 L 196.00 638.70 L 197.30 636.20 L 198.10 633.30 L 198.20 631.10 L 197.90 629.20 L 197.00 627.50 L 195.50 626.00 L 192.70 624.20 L 189.20 624.60 L 188.70 622.80 L 189.40 620.70 L 189.90 620.30 L 192.30 620.00 L 193.50 619.30 L 194.60 618.20 L 196.10 615.10 L 196.70 614.50 L 197.20 614.60 L 197.70 615.20 L 198.40 617.00 L 200.80 624.40 L 203.60 629.40 L 206.70 632.40 L 208.20 633.10 L 210.30 633.50 L 211.60 632.80 L 214.60 629.80 L 218.40 627.60 L 219.60 625.60 L 219.80 624.50 L 219.50 622.30 L 217.90 618.20 L 216.10 615.10 L 214.20 612.90 L 212.20 611.30 L 210.40 610.50 L 208.40 610.00 L 206.20 610.00 L 203.80 610.40 L 200.40 611.60 L 199.40 611.50 L 198.80 610.90 L 197.70 606.50 L 196.40 605.60 L 194.70 602.70 L 193.10 600.80 L 191.20 599.20 L 189.00 598.00 L 209.90 597.10 L 215.40 594.30 L 215.90 593.40 L 216.10 591.90 L 238.40 603.30 L 238.40 603.00 L 217.90 589.20 L 208.30 581.50 L 204.70 577.80 L 201.60 573.80 L 199.00 569.40 L 196.80 564.60 L 195.10 559.40 L 194.00 553.70 L 193.30 547.50 L 209.80 518.50 L 214.00 514.80 L 215.00 513.40 L 235.10 462.10 L 239.40 452.40 L 244.00 442.90 L 249.10 433.60 L 254.50 425.20 L 260.40 417.10 L 266.80 409.30 L 273.60 401.80 L 280.90 394.70 L 288.50 387.90 Z M 244.50 529.10 L 246.50 508.30 L 245.20 508.20 L 243.10 509.30 L 241.70 510.70 L 240.60 512.70 L 239.70 515.00 L 239.20 517.70 L 239.20 521.60 L 239.60 524.00 L 240.40 526.20 L 241.40 527.80 L 243.30 529.20 L 244.30 529.50 L 244.50 529.10 Z" fill="#feac9f" fill-rule="nonzero" node-id="118" stroke="none" target-height="257.69998" target-width="116.8" target-x="188.7" target-y="387.9"/><path d="M 199.90 405.80 L 193.00 411.10 L 189.90 414.20 L 187.20 417.60 L 186.80 418.70 L 186.80 419.30 L 188.50 423.10 L 190.30 426.00 L 191.80 427.80 L 193.40 429.10 L 195.30 430.10 L 197.20 430.60 L 199.50 430.50 L 202.20 429.90 L 208.00 427.00 L 210.70 425.20 L 213.80 422.40 L 214.00 420.50 L 211.30 414.80 L 210.10 409.50 L 215.00 411.40 L 220.50 414.70 L 223.60 415.20 L 228.60 417.30 L 235.90 422.20 L 240.60 425.90 L 243.90 426.00 L 249.30 424.50 L 249.80 424.60 L 249.90 425.10 L 247.30 430.20 L 244.80 434.20 L 242.10 438.00 L 238.90 441.50 L 232.80 451.40 L 227.20 461.50 L 222.10 472.00 L 217.60 482.80 L 213.60 493.70 L 210.30 504.90 L 210.60 506.40 L 211.20 506.90 L 211.90 507.00 L 212.30 506.70 L 208.30 515.20 L 208.70 512.90 L 208.70 511.00 L 208.30 509.40 L 207.50 508.10 L 206.20 507.00 L 204.50 506.00 L 193.20 502.00 L 189.50 500.30 L 185.20 497.40 L 183.50 495.70 L 175.10 485.00 L 163.60 470.00 L 160.60 465.50 L 159.80 464.80 L 158.20 464.70 L 162.70 447.10 L 164.50 438.10 L 165.10 436.90 L 166.10 436.30 L 166.60 439.40 L 167.40 440.30 L 169.90 441.40 L 172.20 442.00 L 174.50 442.00 L 176.80 441.50 L 178.90 440.70 L 181.00 439.40 L 184.50 436.00 L 185.90 433.80 L 186.20 432.80 L 186.10 431.80 L 185.20 428.40 L 183.80 425.60 L 182.60 423.90 L 181.20 422.70 L 179.50 421.70 L 177.70 421.20 L 175.50 421.20 L 172.90 421.70 L 175.90 416.40 L 180.40 410.50 L 183.00 407.80 L 185.60 405.60 L 189.20 403.60 L 190.80 403.20 L 193.80 403.20 L 196.30 403.60 L 198.30 404.50 L 199.90 405.80 Z M 201.20 460.00 L 204.00 458.60 L 206.00 457.00 L 207.30 455.40 L 208.10 453.50 L 208.40 451.50 L 207.80 447.50 L 205.70 443.60 L 203.50 441.00 L 200.90 439.00 L 199.00 437.90 L 195.30 436.90 L 193.50 437.00 L 191.80 437.50 L 190.30 438.60 L 188.00 441.00 L 186.20 443.70 L 184.70 446.70 L 183.80 449.90 L 183.30 453.10 L 183.40 456.50 L 183.80 458.70 L 184.60 460.20 L 185.60 461.20 L 188.50 462.40 L 190.30 462.60 L 196.00 461.80 L 201.20 460.00 Z" fill="#fbb2b1" fill-rule="nonzero" node-id="120" stroke="none" target-height="112" target-width="91.7" target-x="158.2" target-y="403.2"/><path d="M 734.90 419.20 L 732.40 410.70 L 732.30 409.70 L 733.10 408.10 L 739.40 405.60 L 741.10 405.60 L 742.50 406.70 L 745.50 411.90 L 745.60 412.80 L 745.00 414.30 L 738.60 421.20 L 736.60 421.30 L 735.80 420.80 L 734.90 419.20 Z" fill="#ffd9bf" fill-rule="nonzero" node-id="122" stroke="none" target-height="15.699982" target-width="13.299988" target-x="732.3" target-y="405.6"/><path d="M 199.90 405.80 L 210.20 409.40 L 210.70 412.90 L 211.80 416.20 L 213.90 420.40 L 214.00 421.40 L 213.20 423.10 L 210.80 425.10 L 208.10 426.90 L 202.30 429.80 L 199.60 430.40 L 197.30 430.50 L 195.40 430.00 L 193.50 429.00 L 191.90 427.70 L 190.40 425.90 L 188.50 423.00 L 186.90 419.10 L 187.30 417.50 L 189.90 414.20 L 192.90 411.10 L 196.30 408.30 L 199.90 405.80 Z" fill="#da919e" fill-rule="nonzero" node-id="124" stroke="none" target-height="24.700012" target-width="27.100006" target-x="186.9" target-y="405.8"/><path d="M 340.80 428.50 L 331.60 424.40 L 328.40 422.50 L 325.60 420.30 L 323.40 417.80 L 322.30 416.00 L 321.70 414.10 L 321.60 412.00 L 322.20 410.50 L 323.40 411.60 L 325.70 415.50 L 327.00 417.20 L 328.80 418.70 L 342.40 427.20 L 342.20 428.10 L 340.80 428.50 Z" fill="#f46e66" fill-rule="nonzero" node-id="126" stroke="none" target-height="18" target-width="20.799988" target-x="321.6" target-y="410.5"/><path d="M 166.80 436.40 L 173.90 421.70 L 176.40 421.20 L 178.50 421.30 L 180.30 421.80 L 182.00 422.70 L 184.70 425.60 L 186.10 428.40 L 187.10 431.80 L 186.90 433.80 L 183.90 437.80 L 180.00 440.70 L 177.80 441.60 L 175.60 442.10 L 173.20 442.00 L 170.90 441.50 L 168.40 440.30 L 167.60 439.50 L 166.80 436.40 Z" fill="#ce6e83" fill-rule="nonzero" node-id="128" stroke="none" target-height="20.899994" target-width="20.300003" target-x="166.8" target-y="421.2"/><path d="M 820.00 430.60 L 828.50 435.60 L 829.90 437.80 L 829.90 440.40 L 829.40 441.80 L 824.20 449.60 L 824.00 453.90 L 823.70 454.80 L 822.90 455.20 L 820.50 455.40 L 814.30 455.30 L 811.10 454.90 L 807.20 453.50 L 805.70 452.50 L 804.60 451.20 L 804.00 449.60 L 803.90 447.60 L 804.90 444.30 L 805.80 442.90 L 810.30 437.50 L 813.20 431.70 L 814.00 430.80 L 816.20 429.80 L 817.40 429.70 L 820.00 430.60 Z" fill="#f4c5a9" fill-rule="nonzero" node-id="130" stroke="none" target-height="25.699982" target-width="26" target-x="803.9" target-y="429.7"/><path d="M 190.50 438.60 L 192.00 437.60 L 193.60 437.00 L 195.40 437.00 L 197.30 437.30 L 201.00 439.10 L 203.60 441.20 L 205.90 443.70 L 207.90 447.60 L 208.60 451.60 L 208.30 453.50 L 207.50 455.40 L 206.20 457.00 L 204.20 458.60 L 201.40 460.00 L 196.20 461.80 L 193.30 462.40 L 188.60 462.40 L 185.70 461.20 L 184.70 460.10 L 183.90 458.60 L 183.50 456.40 L 183.40 453.10 L 183.80 449.90 L 184.70 446.70 L 186.20 443.80 L 188.10 441.10 L 190.50 438.60 Z" fill="#ce6e83" fill-rule="nonzero" node-id="132" stroke="none" target-height="25.399994" target-width="25.200012" target-x="183.4" target-y="437"/><path d="M 239.20 441.50 L 212.60 506.70 L 212.10 507.00 L 211.00 506.50 L 210.60 504.90 L 213.90 493.70 L 217.80 482.80 L 222.30 472.00 L 226.00 464.10 L 234.50 448.90 L 239.20 441.50 Z" fill="#e37a7b" fill-rule="nonzero" node-id="134" stroke="none" target-height="65.5" target-width="28.59999" target-x="210.6" target-y="441.5"/><path d="M 572.50 446.90 L 574.30 448.70 L 572.20 450.90 L 570.50 453.30 L 569.20 456.10 L 567.80 457.40 L 567.00 459.00 L 567.10 460.10 L 567.60 461.10 L 572.80 467.50 L 576.80 473.40 L 580.40 479.80 L 581.70 482.60 L 582.50 485.40 L 583.10 491.80 L 583.80 492.30 L 584.50 492.10 L 608.00 478.70 L 615.50 483.90 L 620.80 489.40 L 622.90 492.40 L 624.50 495.60 L 625.70 498.80 L 626.50 502.20 L 627.60 512.60 L 628.20 523.00 L 628.30 544.00 L 628.00 546.30 L 626.80 549.30 L 624.50 551.30 L 623.10 551.90 L 620.70 552.60 L 613.10 553.60 L 613.50 550.00 L 613.30 546.50 L 612.50 543.00 L 611.30 539.70 L 609.50 536.60 L 606.80 533.00 L 605.40 525.90 L 604.40 523.20 L 603.10 520.60 L 601.40 518.20 L 599.30 516.10 L 599.00 514.60 L 598.20 513.40 L 596.00 511.90 L 594.80 509.20 L 593.70 507.90 L 592.40 506.80 L 590.10 505.50 L 587.40 504.70 L 582.10 504.00 L 580.60 504.50 L 566.80 529.90 L 565.80 530.90 L 563.40 532.40 L 561.70 532.70 L 561.10 532.40 L 561.00 531.70 L 561.60 530.20 L 567.00 520.70 L 572.00 510.90 L 576.60 500.70 L 578.20 495.20 L 579.20 489.80 L 579.70 484.20 L 579.30 481.70 L 576.30 476.50 L 572.80 471.30 L 565.00 461.80 L 564.10 459.60 L 564.20 458.40 L 564.80 457.30 L 572.50 446.90 Z" fill="#ff8044" fill-rule="nonzero" node-id="136" stroke="none" target-height="106.69998" target-width="67.29999" target-x="561" target-y="446.9"/><path d="M 569.20 455.80 L 581.70 459.80 L 593.80 465.20 L 605.20 471.90 L 606.50 473.30 L 607.40 474.80 L 607.80 476.50 L 607.70 478.40 L 584.20 491.80 L 583.50 491.90 L 582.90 491.60 L 582.40 485.10 L 581.50 482.30 L 580.20 479.50 L 576.60 473.20 L 572.50 467.30 L 567.40 461.10 L 566.90 460.10 L 566.80 459.00 L 567.10 457.90 L 568.40 456.20 L 569.20 455.80 Z" fill="#ffc156" fill-rule="nonzero" node-id="138" stroke="none" target-height="36.100006" target-width="41" target-x="566.8" target-y="455.8"/><path d="M 705.90 503.60 L 710.60 505.90 L 712.20 507.30 L 714.40 509.80 L 716.00 512.60 L 717.30 515.70 L 720.60 525.50 L 722.70 529.40 L 725.90 532.60 L 730.00 534.70 L 738.90 544.50 L 739.80 544.90 L 740.70 544.70 L 741.70 542.60 L 742.80 541.60 L 744.20 541.10 L 746.00 541.10 L 747.30 541.70 L 750.20 544.20 L 764.50 560.50 L 765.10 560.80 L 766.00 560.50 L 774.30 549.60 L 775.00 549.10 L 776.60 548.80 L 777.60 549.30 L 782.00 555.30 L 783.00 555.80 L 785.90 556.20 L 798.20 564.00 L 799.00 564.90 L 799.50 566.00 L 799.50 567.10 L 798.80 568.60 L 794.10 571.90 L 789.60 574.40 L 786.50 575.80 L 783.10 576.70 L 779.60 577.20 L 774.10 577.30 L 768.80 576.90 L 763.90 576.20 L 759.10 575.00 L 750.00 571.50 L 741.40 566.60 L 736.00 562.70 L 730.70 558.30 L 712.60 540.20 L 701.90 529.90 L 693.30 522.00 L 675.50 507.80 L 671.10 503.90 L 664.00 496.10 L 658.00 487.40 L 653.10 478.00 L 651.10 473.10 L 660.50 470.30 L 669.70 467.20 L 678.80 463.50 L 687.70 459.20 L 688.80 458.90 L 689.90 459.00 L 692.20 460.00 L 693.90 461.20 L 695.10 462.80 L 696.30 466.80 L 696.40 469.10 L 695.90 472.50 L 695.00 475.80 L 691.20 486.90 L 690.60 489.80 L 690.80 494.10 L 692.10 496.80 L 694.70 500.00 L 699.50 507.70 L 700.40 507.80 L 701.90 507.00 L 703.30 506.10 L 705.90 503.60 Z" fill="#439580" fill-rule="nonzero" node-id="140" stroke="none" target-height="118.399994" target-width="148.40002" target-x="651.1" target-y="458.9"/><g node-id="241"><path d="M 783.40 464.70 L 784.10 465.70 L 784.60 467.10 L 784.30 470.60 L 782.60 474.50 L 779.70 478.40 L 777.90 480.10 L 774.10 482.70 L 770.40 483.90 L 767.40 483.60 L 766.30 482.90 L 765.50 481.90 L 765.00 480.50 L 765.30 477.00 L 767.00 473.10 L 769.90 469.20 L 773.60 466.10 L 777.40 464.10 L 780.80 463.60 L 782.20 464.00 L 783.40 464.70 Z" fill="#cbda66" fill-rule="nonzero" group-id="2" node-id="144" stroke="none" target-height="20.299988" target-width="19.599976" target-x="765" target-y="463.6"/></g><path d="M 208.80 515.20 L 185.40 511.50 L 181.00 498.20 L 179.70 495.30 L 178.00 492.40 L 171.00 483.10 L 162.20 472.20 L 159.90 467.30 L 159.20 464.70 L 160.70 464.80 L 161.60 465.50 L 163.40 468.50 L 175.90 484.90 L 184.50 495.70 L 186.20 497.40 L 190.50 500.30 L 194.20 501.90 L 205.50 506.00 L 207.00 507.00 L 208.10 508.10 L 208.90 509.60 L 209.20 511.10 L 209.20 513.00 L 208.80 515.20 Z" fill="#677099" fill-rule="nonzero" node-id="147" stroke="none" target-height="50.5" target-width="50" target-x="159.2" target-y="464.7"/><path d="M 479.80 506.50 L 481.90 508.00 L 483.40 510.10 L 483.40 510.80 L 482.00 511.70 L 481.60 512.30 L 473.10 511.00 L 464.60 509.20 L 456.20 506.80 L 445.90 503.10 L 444.20 502.10 L 441.80 499.80 L 440.50 497.10 L 440.50 496.00 L 442.70 492.60 L 447.60 487.70 L 451.90 484.40 L 457.00 481.10 L 467.80 475.30 L 478.90 470.50 L 480.60 470.00 L 484.00 470.20 L 485.60 470.90 L 486.30 471.50 L 486.60 472.50 L 485.80 475.40 L 484.20 477.20 L 453.60 495.10 L 453.10 496.30 L 453.50 497.00 L 479.80 506.50 Z" fill="#2c0707" fill-rule="nonzero" node-id="149" stroke="none" target-height="42.299988" target-width="46.100006" target-x="440.5" target-y="470"/><path d="M 523.80 493.60 L 523.80 495.20 L 523.20 496.00 L 522.20 496.50 L 520.20 496.70 L 518.40 493.70 L 515.90 487.30 L 514.50 480.50 L 514.20 477.00 L 514.50 476.40 L 515.30 476.10 L 517.90 478.50 L 520.00 481.00 L 521.70 483.90 L 522.90 486.90 L 523.60 490.10 L 523.80 493.60 Z" fill="#4d1610" fill-rule="nonzero" node-id="151" stroke="none" target-height="20.600006" target-width="9.599976" target-x="514.2" target-y="476.1"/><path d="M 274.70 531.50 L 270.80 530.80 L 270.60 529.90 L 270.90 529.30 L 273.90 526.50 L 277.60 521.90 L 295.70 508.70 L 296.10 507.60 L 295.50 506.70 L 276.40 501.10 L 255.90 496.70 L 255.10 496.00 L 254.70 495.10 L 254.80 494.00 L 255.50 492.70 L 257.70 490.50 L 261.20 489.80 L 268.20 490.30 L 273.30 491.20 L 284.00 493.80 L 294.00 496.80 L 304.10 500.20 L 306.20 501.60 L 308.20 503.40 L 308.80 504.70 L 309.00 506.00 L 308.80 507.20 L 308.20 508.30 L 301.90 514.80 L 298.30 517.70 L 292.60 521.70 L 286.70 525.20 L 274.70 531.50 Z" fill="#4d1610" fill-rule="nonzero" node-id="153" stroke="none" target-height="41.700012" target-width="54.300003" target-x="254.7" target-y="489.8"/><path d="M 523.80 493.60 L 524.40 493.30 L 524.90 493.40 L 527.90 495.90 L 530.60 498.70 L 532.80 501.70 L 534.70 505.00 L 536.10 508.40 L 537.00 511.80 L 537.30 515.30 L 537.10 518.90 L 536.30 522.20 L 535.10 525.50 L 533.30 528.60 L 531.10 531.30 L 528.40 533.80 L 524.40 536.90 L 520.40 539.20 L 516.40 540.80 L 512.50 541.90 L 508.40 542.30 L 504.20 542.20 L 499.80 541.50 L 495.30 540.10 L 491.90 538.50 L 489.10 536.70 L 486.90 534.50 L 485.10 532.20 L 483.70 529.50 L 482.90 526.60 L 482.60 523.20 L 482.80 519.50 L 483.10 518.40 L 485.10 516.10 L 486.00 513.70 L 485.20 512.60 L 483.40 512.10 L 481.60 512.20 L 482.10 511.20 L 483.20 511.00 L 483.40 510.00 L 481.90 507.90 L 479.80 506.40 L 487.40 506.60 L 491.00 506.00 L 494.30 504.40 L 502.00 498.90 L 504.70 497.30 L 507.60 496.00 L 512.10 495.00 L 514.40 496.00 L 515.40 497.00 L 517.10 499.40 L 517.40 500.40 L 516.30 502.80 L 513.80 504.90 L 512.20 505.40 L 510.40 505.60 L 509.60 505.30 L 509.30 504.90 L 509.30 504.00 L 510.20 502.30 L 511.40 501.10 L 510.90 500.30 L 510.00 500.10 L 508.10 500.60 L 506.60 501.70 L 502.50 503.00 L 499.40 504.50 L 496.50 506.60 L 494.00 509.10 L 492.00 511.90 L 489.40 517.90 L 488.60 523.00 L 489.30 527.60 L 491.40 531.50 L 494.80 534.40 L 499.50 536.30 L 502.50 536.80 L 507.40 537.00 L 511.60 536.60 L 515.40 535.80 L 518.80 534.50 L 521.80 532.70 L 524.40 530.50 L 526.80 527.80 L 528.80 524.60 L 530.60 520.70 L 531.40 518.00 L 531.90 513.70 L 531.00 509.90 L 530.10 508.00 L 525.90 501.40 L 525.90 499.00 L 525.40 497.90 L 524.40 497.10 L 522.90 496.50 L 520.60 496.20 L 523.20 495.90 L 523.80 495.50 L 524.20 494.70 L 523.80 493.60 Z" fill="#f88b79" fill-rule="nonzero" node-id="155" stroke="none" target-height="49" target-width="57.5" target-x="479.8" target-y="493.3"/><path d="M 730.00 534.70 L 725.90 532.50 L 724.20 531.10 L 721.50 527.60 L 717.30 515.70 L 716.00 512.60 L 714.40 509.80 L 712.20 507.30 L 710.50 505.90 L 705.90 503.60 L 732.90 493.30 L 735.90 493.30 L 737.90 494.60 L 739.10 497.40 L 739.40 499.60 L 739.60 511.80 L 739.00 524.00 L 737.60 527.40 L 736.00 529.50 L 733.50 531.90 L 730.00 534.70 Z" fill="#a9b77c" fill-rule="nonzero" node-id="157" stroke="none" target-height="41.400024" target-width="33.69995" target-x="705.9" target-y="493.3"/><path d="M 244.50 529.10 L 244.30 529.30 L 243.20 529.10 L 242.20 528.50 L 240.20 526.00 L 239.50 523.80 L 239.10 521.40 L 239.20 517.50 L 239.60 514.80 L 240.40 512.50 L 241.60 510.50 L 244.10 508.40 L 245.20 508.00 L 246.50 508.00 L 244.50 529.10 Z" fill="#4d1610" fill-rule="nonzero" node-id="159" stroke="none" target-height="21.299988" target-width="7.399994" target-x="239.1" target-y="508"/><path d="M 784.70 515.70 L 783.90 517.00 L 782.60 517.90 L 781.20 518.20 L 778.70 517.50 L 777.40 516.40 L 775.80 513.70 L 775.40 510.60 L 775.80 509.00 L 776.30 508.00 L 777.10 507.40 L 779.40 506.90 L 781.20 506.90 L 782.60 507.30 L 783.90 508.00 L 784.80 509.00 L 785.40 510.30 L 785.50 511.80 L 784.70 515.70 Z" fill="#ffd9bf" fill-rule="nonzero" node-id="161" stroke="none" target-height="11.300018" target-width="10.099976" target-x="775.4" target-y="506.9"/><path d="M 633.70 515.40 L 633.30 513.20 L 633.40 511.70 L 634.00 510.50 L 635.10 509.60 L 637.30 508.70 L 638.60 508.40 L 639.80 508.60 L 640.80 509.30 L 641.50 510.30 L 644.20 516.60 L 644.50 517.90 L 644.20 519.10 L 643.60 520.10 L 641.70 521.00 L 640.20 520.90 L 635.00 517.70 L 634.10 516.60 L 633.70 515.40 Z" fill="#ff8044" fill-rule="nonzero" node-id="163" stroke="none" target-height="12.600006" target-width="11.200012" target-x="633.3" target-y="508.4"/><g node-id="242"><path d="M 362.00 510.10 L 360.80 510.90 L 357.80 511.40 L 354.90 511.20 L 353.80 510.80 L 353.60 510.50 L 353.80 510.10 L 354.80 509.60 L 357.70 509.20 L 360.70 509.40 L 362.00 510.10 Z" fill="#7a2433" fill-rule="nonzero" group-id="3" node-id="167" stroke="none" target-height="2.1999817" target-width="8.399994" target-x="353.6" target-y="509.2"/></g><path d="M 672.10 525.50 L 664.30 526.40 L 661.70 525.30 L 659.90 523.00 L 659.50 520.40 L 659.90 515.90 L 660.30 514.20 L 661.30 512.80 L 662.50 511.70 L 664.10 511.00 L 666.80 510.30 L 668.40 510.20 L 669.90 510.60 L 672.40 512.30 L 675.50 516.50 L 676.60 519.20 L 676.20 521.90 L 674.00 524.70 L 672.10 525.50 Z" fill="#ff8044" fill-rule="nonzero" node-id="170" stroke="none" target-height="16.200012" target-width="17.099976" target-x="659.5" target-y="510.2"/><path d="M 598.90 515.70 L 601.00 517.80 L 602.70 520.20 L 604.10 522.80 L 605.20 525.50 L 605.80 528.30 L 606.20 532.30 L 609.10 536.20 L 610.90 539.30 L 612.10 542.60 L 612.90 546.00 L 613.10 549.60 L 612.70 553.20 L 608.30 564.20 L 608.80 565.40 L 611.80 566.50 L 613.70 567.70 L 615.30 569.30 L 616.50 571.30 L 616.80 572.30 L 616.50 573.30 L 615.40 575.40 L 613.90 577.20 L 602.90 584.80 L 597.50 587.10 L 590.10 588.50 L 588.20 589.60 L 584.10 593.50 L 583.60 593.80 L 583.20 593.30 L 583.40 592.30 L 588.80 587.30 L 593.00 582.60 L 596.90 577.60 L 600.20 572.20 L 603.20 566.60 L 605.60 560.80 L 607.60 554.80 L 609.10 548.60 L 609.50 545.70 L 609.30 543.30 L 608.70 541.40 L 606.50 537.90 L 602.40 534.40 L 593.70 529.20 L 591.00 528.50 L 590.30 528.00 L 590.10 527.40 L 591.70 524.00 L 593.60 520.90 L 596.00 518.20 L 598.90 515.70 Z" fill="#e54a3e" fill-rule="nonzero" node-id="172" stroke="none" target-height="78.099976" target-width="33.599976" target-x="583.2" target-y="515.7"/><path d="M 277.60 522.20 L 274.90 525.60 L 270.60 529.90 L 270.50 530.60 L 271.00 531.10 L 274.70 531.80 L 277.30 535.80 L 278.90 539.50 L 279.80 542.70 L 280.10 545.30 L 279.90 547.70 L 279.30 550.10 L 278.30 552.40 L 273.80 558.20 L 271.30 560.90 L 266.20 565.20 L 263.60 566.60 L 260.80 567.70 L 258.00 568.40 L 254.40 568.50 L 246.60 567.80 L 242.60 566.90 L 235.20 564.10 L 231.80 562.00 L 228.90 559.60 L 226.30 556.80 L 224.50 553.30 L 222.20 547.20 L 220.80 545.00 L 218.70 543.00 L 219.10 539.40 L 220.10 536.00 L 221.60 532.70 L 223.60 529.60 L 223.70 532.40 L 226.10 534.30 L 226.70 535.50 L 227.30 549.30 L 228.00 551.70 L 229.10 553.80 L 230.60 555.70 L 234.50 558.70 L 238.00 560.30 L 241.70 561.60 L 245.50 562.50 L 252.10 563.30 L 258.10 562.80 L 263.70 560.70 L 266.30 559.10 L 270.80 555.00 L 272.70 552.50 L 273.90 550.20 L 274.70 547.70 L 274.90 545.00 L 274.50 542.10 L 273.50 538.80 L 271.80 535.10 L 271.20 534.40 L 270.20 534.00 L 254.80 532.40 L 253.50 532.60 L 251.40 533.70 L 250.90 533.70 L 249.50 532.90 L 249.00 530.90 L 249.40 528.80 L 249.90 527.90 L 252.60 527.00 L 268.20 527.00 L 269.90 526.60 L 274.40 524.50 L 277.60 522.20 Z" fill="#f88b79" fill-rule="nonzero" node-id="174" stroke="none" target-height="46.299988" target-width="61.40001" target-x="218.7" target-y="522.2"/><path d="M 223.50 529.50 L 221.50 532.50 L 220.00 535.80 L 219.00 539.30 L 218.60 542.90 L 217.20 542.20 L 216.30 541.30 L 215.80 540.00 L 215.70 538.30 L 216.30 536.00 L 217.70 532.80 L 220.40 528.30 L 222.60 524.80 L 223.80 523.50 L 224.60 523.30 L 225.20 524.20 L 225.30 525.70 L 224.70 527.60 L 223.50 529.50 Z" fill="#a7343f" fill-rule="nonzero" node-id="176" stroke="none" target-height="19.600037" target-width="9.600006" target-x="215.7" target-y="523.3"/><path d="M 590.20 527.30 L 590.30 527.90 L 591.00 528.50 L 593.80 529.10 L 592.70 530.00 L 592.60 531.70 L 598.50 537.90 L 600.00 540.10 L 601.60 544.50 L 601.80 546.90 L 601.30 549.30 L 600.20 551.90 L 598.70 553.80 L 597.00 555.30 L 595.00 556.50 L 592.70 557.10 L 590.40 557.20 L 587.90 556.80 L 584.00 554.90 L 579.70 552.10 L 577.70 546.40 L 576.50 541.50 L 575.20 531.50 L 575.60 530.00 L 577.20 529.00 L 590.20 527.30 Z" fill="#ea372a" fill-rule="nonzero" node-id="178" stroke="none" target-height="29.900024" target-width="26.599976" target-x="575.2" target-y="527.3"/><path d="M 814.90 528.00 L 817.00 535.50 L 818.50 542.70 L 819.50 549.80 L 820.00 556.80 L 820.10 563.60 L 819.70 570.30 L 818.80 576.90 L 817.20 584.50 L 815.00 592.10 L 812.10 599.60 L 808.50 607.00 L 804.30 614.40 L 799.30 621.80 L 796.10 625.00 L 790.10 629.30 L 782.50 635.80 L 776.60 640.40 L 770.60 644.40 L 764.40 648.00 L 751.40 654.10 L 741.20 658.00 L 729.50 661.80 L 727.70 664.10 L 727.00 664.40 L 726.40 664.10 L 722.40 658.60 L 718.50 654.20 L 714.20 650.20 L 709.40 646.70 L 704.40 643.70 L 699.10 641.20 L 693.30 639.30 L 687.90 638.00 L 682.60 637.30 L 677.50 637.30 L 672.60 637.70 L 667.90 638.70 L 663.20 640.30 L 658.60 642.40 L 654.00 645.20 L 649.50 648.60 L 647.90 648.00 L 646.10 648.00 L 644.00 648.50 L 641.50 649.80 L 638.60 652.00 L 626.80 662.30 L 626.10 662.60 L 624.80 662.10 L 624.30 661.00 L 625.50 658.40 L 627.30 637.70 L 627.00 634.00 L 625.90 629.90 L 625.30 628.90 L 625.00 628.90 L 624.60 630.00 L 624.30 634.20 L 623.20 661.20 L 622.80 663.80 L 621.80 666.10 L 610.30 680.90 L 599.90 693.40 L 589.00 705.60 L 588.40 706.50 L 587.70 710.20 L 587.00 712.20 L 585.90 713.70 L 584.50 714.70 L 582.60 715.40 L 580.10 715.60 L 579.60 715.00 L 578.60 715.00 L 577.40 715.40 L 573.80 717.70 L 571.60 718.50 L 568.90 719.00 L 566.10 719.00 L 563.50 718.50 L 560.90 717.60 L 563.50 710.30 L 565.40 702.90 L 566.90 695.30 L 569.10 678.20 L 569.00 673.40 L 568.50 671.00 L 568.20 670.20 L 567.10 669.40 L 565.30 669.70 L 564.40 670.80 L 564.50 687.80 L 563.70 691.70 L 562.10 696.40 L 559.20 698.80 L 561.50 693.60 L 563.20 688.20 L 564.00 684.50 L 564.60 676.90 L 564.40 667.40 L 563.70 658.00 L 562.50 648.70 L 560.80 639.40 L 561.20 638.70 L 562.70 638.90 L 563.20 639.60 L 568.10 658.80 L 569.00 660.10 L 570.60 659.90 L 579.20 655.70 L 587.50 651.00 L 602.60 641.30 L 613.20 635.00 L 619.70 630.30 L 622.70 627.70 L 623.50 626.40 L 623.80 625.00 L 623.50 617.60 L 623.60 610.30 L 623.80 609.60 L 624.50 609.40 L 625.20 609.80 L 627.40 623.20 L 628.10 624.30 L 628.70 624.50 L 629.60 624.50 L 639.50 620.40 L 649.20 617.10 L 658.80 614.40 L 666.20 612.80 L 673.50 611.70 L 681.00 611.00 L 688.40 610.70 L 695.90 610.80 L 703.40 611.50 L 711.10 612.70 L 718.90 614.50 L 725.10 616.40 L 731.10 618.80 L 747.60 627.00 L 752.60 628.90 L 757.60 630.20 L 766.50 631.90 L 770.80 633.60 L 772.60 635.20 L 773.70 635.70 L 775.00 635.90 L 776.50 635.60 L 778.30 634.90 L 783.70 631.30 L 795.40 620.40 L 797.70 617.00 L 802.40 606.60 L 806.00 603.40 L 807.90 601.20 L 809.60 598.40 L 810.90 594.90 L 811.80 590.70 L 811.70 589.10 L 806.90 582.20 L 805.50 579.10 L 803.70 572.60 L 803.50 565.80 L 804.30 561.40 L 808.30 557.40 L 810.50 553.60 L 811.90 547.30 L 812.80 541.00 L 813.30 534.70 L 813.20 528.40 L 812.80 528.00 L 814.90 528.00 Z" fill="#e37a7b" fill-rule="nonzero" node-id="180" stroke="none" target-height="191" target-width="260.89996" target-x="559.2" target-y="528"/><path d="M 438.00 540.00 L 427.70 544.20 L 427.00 544.20 L 426.40 543.50 L 426.60 542.30 L 427.10 541.50 L 432.60 537.40 L 435.70 535.70 L 439.60 534.20 L 440.60 534.70 L 441.10 535.70 L 441.10 536.80 L 440.50 538.00 L 439.80 538.90 L 438.00 540.00 Z" fill="#c33935" fill-rule="nonzero" node-id="182" stroke="none" target-height="10" target-width="14.700012" target-x="426.4" target-y="534.2"/><g node-id="243"><path d="M 566.60 536.50 L 568.50 537.10 L 570.30 538.10 L 571.90 539.40 L 573.20 541.00 L 574.10 542.90 L 574.70 544.90 L 574.70 549.10 L 574.10 551.20 L 571.80 554.80 L 570.30 556.20 L 568.50 557.20 L 566.50 557.80 L 564.50 558.10 L 562.50 557.90 L 560.60 557.30 L 558.80 556.40 L 557.30 555.10 L 556.00 553.40 L 555.00 551.60 L 554.40 549.50 L 554.40 545.30 L 556.00 541.30 L 557.30 539.70 L 558.90 538.30 L 560.70 537.20 L 562.60 536.60 L 564.60 536.30 L 566.60 536.50 Z" fill="#fb381a" fill-rule="nonzero" group-id="4" node-id="186" stroke="none" target-height="21.799988" target-width="20.299988" target-x="554.4" target-y="536.3"/></g><path d="M 411.00 549.40 L 413.20 550.50 L 415.10 551.00 L 417.00 551.00 L 420.60 549.70 L 424.70 547.00 L 423.50 549.20 L 422.20 550.70 L 418.80 552.70 L 416.80 553.20 L 415.50 553.20 L 414.30 552.80 L 411.00 550.80 L 407.60 549.20 L 403.90 548.10 L 400.20 547.50 L 396.40 547.30 L 382.40 548.80 L 372.40 550.50 L 362.40 552.70 L 352.60 555.50 L 349.10 556.20 L 345.70 556.50 L 320.60 554.10 L 318.60 553.50 L 315.00 551.50 L 314.30 550.70 L 314.30 548.80 L 314.80 548.10 L 316.40 547.70 L 318.70 548.10 L 326.50 551.60 L 328.70 552.20 L 334.30 552.70 L 345.50 552.90 L 353.70 551.60 L 374.60 547.00 L 390.80 545.10 L 400.70 544.70 L 408.80 545.20 L 409.40 546.40 L 409.60 548.40 L 411.00 549.40 Z" fill="#e54a3e" fill-rule="nonzero" node-id="189" stroke="none" target-height="11.799988" target-width="110.400024" target-x="314.3" target-y="544.7"/><path d="M 192.90 548.10 L 193.60 554.30 L 194.80 560.00 L 196.50 565.30 L 198.60 570.00 L 201.30 574.40 L 204.30 578.40 L 207.90 582.10 L 215.10 587.90 L 238.00 603.80 L 215.70 592.40 L 201.40 578.80 L 198.30 575.20 L 195.80 571.50 L 194.00 567.90 L 192.70 564.20 L 191.90 560.40 L 191.70 556.50 L 192.00 552.40 L 192.90 548.10 Z" fill="#ce6e83" fill-rule="nonzero" node-id="191" stroke="none" target-height="55.700012" target-width="46.300003" target-x="191.7" target-y="548.1"/><path d="M 744.80 586.00 L 741.20 584.90 L 740.00 584.20 L 739.20 583.20 L 738.80 582.00 L 739.40 579.80 L 741.20 576.70 L 743.10 575.30 L 744.20 575.10 L 745.40 575.40 L 750.50 578.00 L 751.20 579.00 L 751.50 580.30 L 750.80 582.60 L 748.60 585.10 L 746.70 586.10 L 744.80 586.00 Z" fill="#e37a7b" fill-rule="nonzero" node-id="193" stroke="none" target-height="11" target-width="12.700012" target-x="738.8" target-y="575.1"/><g node-id="244"><path d="M 792.30 581.20 L 794.30 584.80 L 794.60 586.70 L 793.00 585.70 L 790.50 582.40 L 788.50 578.80 L 788.20 577.00 L 789.80 578.00 L 792.30 581.20 Z" fill="#e2917e" fill-rule="nonzero" group-id="5" node-id="197" stroke="none" target-height="9.700012" target-width="6.3999634" target-x="788.2" target-y="577"/></g><path d="M 764.40 583.40 L 770.70 586.30 L 771.50 587.20 L 772.40 589.40 L 772.00 591.90 L 769.80 597.00 L 768.90 597.90 L 766.60 598.90 L 764.10 598.60 L 760.50 596.40 L 759.10 595.10 L 758.30 593.30 L 757.40 587.20 L 758.10 585.00 L 759.90 583.40 L 761.20 583.00 L 763.00 583.00 L 764.40 583.40 Z" fill="#df615d" fill-rule="nonzero" node-id="200" stroke="none" target-height="15.900024" target-width="15" target-x="757.4" target-y="583"/><path d="M 479.80 692.20 L 470.00 694.10 L 447.90 699.20 L 419.70 703.20 L 405.10 704.50 L 381.50 704.70 L 344.80 703.50 L 312.20 701.30 L 300.00 699.80 L 287.90 697.70 L 275.90 695.10 L 264.00 691.90 L 261.00 685.50 L 259.00 682.60 L 253.70 676.30 L 251.00 672.40 L 250.40 667.60 L 250.00 658.00 L 250.40 650.80 L 251.40 643.60 L 255.80 631.30 L 258.40 625.20 L 263.20 615.40 L 265.30 612.30 L 267.50 609.60 L 270.00 607.30 L 272.80 605.40 L 275.80 603.90 L 279.00 602.80 L 282.60 602.00 L 286.70 601.60 L 295.60 600.90 L 328.40 600.40 L 361.20 599.30 L 394.10 597.70 L 426.90 595.60 L 468.00 592.30 L 478.20 592.60 L 483.70 593.80 L 487.90 595.50 L 491.70 597.60 L 495.10 600.10 L 498.30 603.00 L 501.10 606.30 L 503.50 610.10 L 505.70 614.40 L 507.60 619.30 L 508.70 623.60 L 509.20 627.90 L 509.30 632.30 L 508.80 636.60 L 507.80 640.90 L 503.00 653.60 L 499.30 662.00 L 495.10 670.00 L 490.40 677.70 L 485.30 685.10 L 479.80 692.20 Z" fill="#f6f7f9" fill-rule="nonzero" node-id="202" stroke="none" target-height="112.400024" target-width="259.3" target-x="250" target-y="592.3"/><path d="M 189.10 598.30 L 193.20 601.30 L 194.70 603.10 L 196.50 606.00 L 198.00 607.20 L 199.00 611.10 L 199.80 611.80 L 206.70 610.30 L 209.00 610.40 L 211.10 610.90 L 213.00 612.00 L 214.80 613.60 L 216.50 615.80 L 218.10 618.70 L 220.00 623.80 L 219.70 626.00 L 218.40 627.90 L 214.60 629.80 L 213.10 631.20 L 211.30 633.30 L 210.70 633.60 L 208.40 633.10 L 206.90 632.40 L 203.80 629.30 L 201.00 624.30 L 197.60 614.60 L 196.80 614.60 L 196.30 615.20 L 194.80 618.20 L 193.70 619.30 L 192.40 619.90 L 189.90 620.50 L 189.20 621.30 L 188.90 622.80 L 189.20 624.20 L 189.70 624.70 L 190.50 624.90 L 192.30 624.20 L 193.80 624.70 L 197.00 627.10 L 198.50 629.90 L 198.70 631.50 L 198.50 633.40 L 197.70 636.30 L 196.40 639.00 L 195.20 640.60 L 192.20 643.20 L 191.70 644.10 L 192.00 644.90 L 192.70 645.50 L 194.60 646.00 L 195.60 645.80 L 195.70 649.20 L 196.20 652.00 L 197.10 654.30 L 198.40 656.30 L 200.10 657.70 L 202.30 658.80 L 200.30 659.40 L 199.60 660.00 L 199.50 660.50 L 199.90 661.00 L 204.90 663.60 L 210.40 667.30 L 215.00 669.10 L 231.10 672.90 L 248.20 675.90 L 248.60 676.30 L 249.10 678.90 L 249.50 679.40 L 250.00 678.70 L 250.90 672.40 L 253.50 676.20 L 258.70 682.60 L 260.80 685.50 L 263.90 691.90 L 268.10 696.80 L 272.50 701.30 L 277.20 705.50 L 287.60 713.30 L 298.90 719.80 L 310.90 724.80 L 317.20 726.80 L 323.50 728.40 L 338.10 730.70 L 346.10 731.60 L 366.20 732.50 L 410.40 732.70 L 436.90 731.40 L 445.00 730.70 L 455.70 729.10 L 458.40 729.70 L 459.60 731.20 L 437.80 733.20 L 416.10 734.70 L 371.90 736.50 L 370.90 737.00 L 366.60 740.80 L 362.80 745.00 L 359.30 749.50 L 358.00 750.60 L 356.60 751.30 L 354.80 751.50 L 348.50 752.00 L 335.80 752.20 L 333.40 748.30 L 329.90 745.30 L 325.70 743.50 L 322.30 742.80 L 320.60 742.90 L 318.20 743.50 L 316.00 744.70 L 313.60 747.20 L 312.70 748.90 L 312.70 749.60 L 313.10 750.20 L 322.50 749.10 L 331.20 749.50 L 332.00 749.90 L 332.30 750.80 L 331.40 751.70 L 287.10 751.70 L 286.30 751.20 L 273.20 737.00 L 266.90 729.60 L 261.20 722.00 L 257.80 716.80 L 254.80 711.50 L 252.30 706.10 L 250.40 700.20 L 248.90 694.20 L 247.30 681.10 L 246.50 680.40 L 226.60 675.60 L 220.20 673.80 L 214.00 671.60 L 208.00 668.80 L 200.30 664.10 L 196.50 661.20 L 193.10 658.10 L 190.10 654.70 L 187.40 651.00 L 185.10 647.00 L 183.20 642.90 L 181.80 638.60 L 180.70 633.60 L 180.20 628.60 L 180.20 623.60 L 180.80 618.50 L 182.00 613.60 L 183.70 608.60 L 186.10 603.50 L 189.10 598.30 Z" fill="#df615d" fill-rule="nonzero" node-id="204" stroke="none" target-height="153.90002" target-width="279.40002" target-x="180.2" target-y="598.3"/><path d="M 648.90 649.10 L 629.60 663.00 L 625.20 667.00 L 621.20 671.50 L 608.40 688.70 L 602.40 697.70 L 596.80 706.80 L 596.70 707.70 L 601.80 708.10 L 603.70 708.80 L 606.10 710.10 L 607.10 709.90 L 607.70 709.30 L 609.90 703.90 L 614.90 697.10 L 615.70 695.10 L 616.00 692.70 L 617.60 691.30 L 617.80 686.70 L 618.50 683.10 L 619.70 679.60 L 621.30 676.30 L 623.90 672.80 L 629.80 666.60 L 634.70 662.40 L 640.10 658.70 L 642.80 658.00 L 647.40 658.30 L 652.00 658.90 L 659.90 661.00 L 665.70 660.90 L 667.00 661.40 L 667.90 662.40 L 668.90 664.70 L 670.30 665.30 L 671.00 665.10 L 673.50 663.30 L 678.30 659.40 L 681.10 657.80 L 684.00 656.70 L 687.10 656.00 L 690.20 655.70 L 693.30 655.90 L 700.00 657.70 L 716.50 663.00 L 726.90 668.00 L 729.20 667.80 L 730.60 667.90 L 737.30 678.40 L 743.60 689.10 L 749.40 700.00 L 754.70 711.20 L 759.60 722.60 L 768.50 748.00 L 768.40 748.70 L 767.90 749.60 L 766.50 750.60 L 728.30 752.20 L 716.90 752.20 L 694.10 751.90 L 677.80 750.60 L 643.20 749.90 L 627.60 749.80 L 592.70 750.30 L 576.90 750.20 L 560.60 749.50 L 559.70 748.60 L 559.80 747.00 L 579.70 715.70 L 582.20 715.40 L 584.10 714.80 L 585.50 713.70 L 586.60 712.30 L 587.30 710.30 L 588.20 706.10 L 596.80 696.70 L 604.70 687.40 L 621.10 666.60 L 621.90 664.90 L 622.80 661.30 L 623.90 634.30 L 624.20 630.10 L 624.60 629.00 L 624.90 629.00 L 625.50 630.00 L 626.60 634.10 L 626.90 637.80 L 625.90 646.60 L 625.10 658.50 L 623.90 661.10 L 624.40 662.20 L 625.40 662.80 L 626.40 662.40 L 638.20 652.10 L 642.40 649.40 L 645.90 648.40 L 647.50 648.50 L 648.90 649.10 Z" fill="#958a9c" fill-rule="nonzero" node-id="206" stroke="none" target-height="123.20001" target-width="208.79999" target-x="559.7" target-y="629"/><path d="M 728.00 663.80 L 729.40 665.60 L 730.20 667.80 L 726.50 667.90 L 725.50 667.60 L 718.60 663.80 L 716.10 662.90 L 695.80 656.50 L 692.90 655.80 L 689.60 655.60 L 686.50 655.80 L 683.40 656.50 L 680.50 657.60 L 677.80 659.20 L 670.00 665.20 L 668.60 664.60 L 667.90 662.20 L 667.00 661.20 L 666.20 660.80 L 660.70 660.80 L 657.90 660.40 L 651.90 658.80 L 642.70 657.90 L 641.40 658.10 L 640.00 658.60 L 634.70 662.30 L 629.80 666.50 L 625.30 671.10 L 621.20 676.20 L 619.50 679.50 L 618.30 683.00 L 617.30 691.20 L 615.90 692.90 L 615.30 696.20 L 614.50 697.60 L 611.40 701.30 L 609.80 703.80 L 607.30 709.70 L 605.80 710.10 L 603.00 708.60 L 600.40 708.00 L 596.90 707.90 L 596.70 707.60 L 596.90 706.80 L 602.40 697.50 L 608.30 688.50 L 614.60 679.90 L 621.30 671.50 L 625.30 667.20 L 629.70 663.20 L 634.50 659.40 L 653.50 645.70 L 658.10 642.90 L 662.80 640.70 L 667.50 639.10 L 672.30 638.10 L 677.20 637.70 L 682.20 637.80 L 687.40 638.50 L 692.90 639.70 L 698.60 641.70 L 703.90 644.20 L 708.90 647.30 L 713.70 650.80 L 718.00 654.80 L 721.90 659.20 L 725.90 664.50 L 726.50 664.90 L 727.40 664.50 L 728.00 663.80 Z" fill="#baa4ab" fill-rule="nonzero" node-id="208" stroke="none" target-height="72.39996" target-width="133.5" target-x="596.7" target-y="637.7"/><path d="M 215.70 643.90 L 216.10 652.60 L 215.60 654.90 L 214.70 656.70 L 213.40 658.30 L 211.80 659.40 L 209.70 660.00 L 207.60 660.20 L 205.10 659.80 L 200.00 657.90 L 198.30 656.50 L 197.00 654.70 L 196.10 652.40 L 195.50 649.60 L 195.50 645.90 L 197.90 643.00 L 200.20 641.00 L 202.40 639.80 L 204.70 639.20 L 207.10 639.30 L 209.70 640.00 L 212.50 641.50 L 215.70 643.90 Z" fill="#cf4847" fill-rule="nonzero" node-id="210" stroke="none" target-height="21" target-width="20.600006" target-x="195.5" target-y="639.2"/><path d="M 251.70 643.90 L 250.70 651.00 L 250.20 658.20 L 250.60 667.90 L 251.30 672.70 L 250.40 679.00 L 250.00 679.70 L 249.50 679.20 L 248.80 676.30 L 248.50 676.00 L 237.10 674.10 L 226.20 671.90 L 215.40 669.20 L 210.80 667.50 L 208.60 666.20 L 205.30 663.60 L 201.30 661.80 L 199.90 660.60 L 200.00 660.10 L 200.70 659.50 L 202.70 658.90 L 205.60 659.90 L 208.10 660.20 L 210.20 660.10 L 212.20 659.40 L 213.80 658.30 L 215.20 656.80 L 216.00 654.90 L 216.50 652.60 L 216.20 643.90 L 222.10 644.80 L 227.90 645.10 L 233.80 645.00 L 242.70 644.10 L 251.70 643.90 Z" fill="#e37a7b" fill-rule="nonzero" node-id="212" stroke="none" target-height="35.799988" target-width="51.800003" target-x="199.9" target-y="643.9"/><path d="M 560.70 717.90 L 538.50 748.00 L 533.70 748.10 L 528.90 747.30 L 527.70 746.20 L 526.50 741.00 L 525.60 739.60 L 524.00 739.00 L 512.60 739.20 L 514.30 737.60 L 513.70 736.60 L 513.00 736.40 L 511.90 736.40 L 509.40 737.10 L 500.70 740.80 L 498.30 741.50 L 488.20 744.20 L 486.00 744.20 L 481.20 742.00 L 476.70 739.40 L 472.40 736.40 L 468.40 733.00 L 482.60 729.30 L 496.70 725.20 L 510.60 720.50 L 531.80 712.70 L 536.30 711.30 L 544.50 709.80 L 548.90 708.10 L 558.50 699.10 L 561.40 696.70 L 563.00 691.90 L 563.80 688.10 L 563.70 671.10 L 564.50 670.00 L 565.40 669.70 L 566.90 669.90 L 567.90 671.00 L 568.40 673.60 L 568.60 678.40 L 566.10 698.30 L 565.10 703.30 L 563.10 710.70 L 560.70 717.90 Z" fill="#df615d" fill-rule="nonzero" node-id="214" stroke="none" target-height="78.39996" target-width="100.19998" target-x="468.4" target-y="669.7"/><g node-id="245"><path d="M 805.50 681.50 L 805.90 683.80 L 804.70 687.10 L 803.10 689.20 L 801.10 691.10 L 798.40 692.80 L 795.60 694.10 L 792.90 694.80 L 790.20 695.10 L 786.80 694.30 L 785.10 692.70 L 784.70 690.40 L 784.90 689.00 L 785.80 687.10 L 787.50 685.00 L 789.50 683.10 L 792.20 681.40 L 795.00 680.10 L 797.70 679.40 L 800.30 679.10 L 802.50 679.40 L 803.80 679.90 L 805.50 681.50 Z" fill="#cbda66" fill-rule="nonzero" group-id="6" node-id="218" stroke="none" target-height="16" target-width="21.200012" target-x="784.7" target-y="679.1"/></g><g node-id="246"><path d="M 865.40 680.50 L 865.10 681.70 L 864.20 682.70 L 860.30 685.10 L 855.80 686.40 L 853.80 686.10 L 853.40 685.20 L 854.60 683.50 L 858.50 681.10 L 863.00 679.80 L 864.30 679.90 L 865.40 680.50 Z" fill="#e0e9a6" fill-rule="nonzero" group-id="7" node-id="223" stroke="none" target-height="6.6000366" target-width="12" target-x="853.4" target-y="679.8"/></g><path d="M 264.00 692.20 L 283.90 697.00 L 294.00 698.90 L 314.30 701.60 L 344.80 703.70 L 363.40 704.50 L 397.80 705.00 L 408.70 704.50 L 419.70 703.40 L 441.60 700.50 L 448.00 699.50 L 470.10 694.30 L 479.80 692.50 L 475.40 699.60 L 470.60 706.40 L 465.50 712.90 L 459.90 719.30 L 459.50 722.50 L 459.60 725.70 L 460.20 728.90 L 461.20 732.00 L 459.90 732.00 L 458.70 730.50 L 456.00 729.90 L 442.60 731.90 L 420.80 733.10 L 400.70 733.50 L 366.60 733.40 L 346.50 732.50 L 330.30 730.40 L 317.60 727.50 L 305.20 723.10 L 299.30 720.40 L 287.90 714.00 L 282.50 710.30 L 277.30 706.10 L 272.40 701.70 L 268.00 697.00 L 264.00 692.20 Z" fill="#fed6c6" fill-rule="nonzero" node-id="226" stroke="none" target-height="41.299988" target-width="215.79999" target-x="264" target-y="692.2"/><path d="M 459.70 718.80 L 461.90 725.50 L 463.30 728.00 L 464.90 730.20 L 466.70 731.90 L 476.90 739.40 L 481.50 742.10 L 486.20 744.30 L 488.40 744.30 L 500.80 740.90 L 507.40 738.10 L 512.10 736.50 L 513.90 736.70 L 514.50 737.20 L 512.80 739.30 L 510.50 741.00 L 508.60 743.10 L 507.30 745.40 L 506.50 748.00 L 483.90 747.60 L 481.00 745.70 L 479.40 745.10 L 461.30 731.20 L 460.20 728.30 L 459.60 725.20 L 459.40 722.00 L 459.70 718.80 Z" fill="#c33935" fill-rule="nonzero" node-id="228" stroke="none" target-height="29.200012" target-width="55.100006" target-x="459.4" target-y="718.8"/><path d="M 538.50 748.20 L 506.10 748.20 L 506.90 745.60 L 508.30 743.20 L 510.20 741.10 L 512.40 739.50 L 524.60 739.50 L 525.90 740.50 L 527.40 746.00 L 527.90 747.00 L 528.70 747.60 L 532.10 748.30 L 535.40 748.50 L 538.50 748.20 Z" fill="#ffa490" fill-rule="nonzero" node-id="230" stroke="none" target-height="9" target-width="32.399994" target-x="506.1" target-y="739.5"/><path d="M 336.10 752.70 L 331.60 752.50 L 332.50 751.80 L 332.60 751.10 L 331.80 750.20 L 327.30 749.70 L 322.90 749.70 L 318.60 750.10 L 314.20 750.90 L 313.20 750.60 L 312.90 749.30 L 313.80 747.70 L 316.10 745.30 L 318.30 744.00 L 320.70 743.30 L 322.40 743.20 L 325.90 743.90 L 330.20 745.70 L 333.70 748.70 L 336.10 752.70 Z" fill="#ffa490" fill-rule="nonzero" node-id="232" stroke="none" target-height="9.5" target-width="23.200012" target-x="312.9" target-y="743.2"/><path d="M 479.10 745.30 L 480.80 746.00 L 483.60 747.80 L 481.00 747.80 L 477.90 749.40 L 476.70 749.60 L 440.60 749.60 L 404.50 750.00 L 378.50 749.70 L 364.70 750.20 L 363.80 750.00 L 364.00 748.40 L 364.60 747.20 L 365.80 746.60 L 371.80 746.20 L 383.40 746.60 L 408.70 746.10 L 464.50 746.60 L 479.10 745.30 Z" fill="#f0d1cd" fill-rule="nonzero" node-id="234" stroke="none" target-height="4.9000244" target-width="119.80002" target-x="363.8" target-y="745.3"/><path d="M 767.80 747.10 L 860.30 747.10 L 860.90 747.40 L 861.20 748.00 L 861.00 749.30 L 860.50 749.60 L 766.20 750.50 L 768.00 748.80 L 768.20 748.00 L 767.80 747.10 Z" fill="#fbb2b1" fill-rule="nonzero" node-id="236" stroke="none" target-height="3.4000244" target-width="95" target-x="766.2" target-y="747.1"/><path d="M 232.90 747.80 L 277.60 747.80 L 278.00 748.20 L 278.00 749.70 L 277.60 750.10 L 231.10 750.50 L 232.10 750.30 L 232.70 749.80 L 232.90 747.80 Z" fill="#fbb2b1" fill-rule="nonzero" node-id="238" stroke="none" target-height="2.7000122" target-width="46.899994" target-x="231.1" target-y="747.8"/></svg>
