<svg height="1024" node-id="1" sillyvg="true" template-height="1024" template-width="1024" version="1.1" viewBox="0 0 1024 1024" width="1024" xmlns="http://www.w3.org/2000/svg" xmlns:xlink="http://www.w3.org/1999/xlink"><defs node-id="89"></defs><path d="M 630.20 344.60 L 629.80 343.40 L 630.00 341.40 L 629.30 339.90 L 628.80 339.60 L 627.60 339.70 L 627.10 339.20 L 626.90 338.20 L 623.50 335.90 L 618.50 331.10 L 617.20 330.60 L 587.60 347.80 L 578.20 337.80 L 573.10 333.10 L 560.00 322.70 L 551.80 317.10 L 543.40 312.10 L 534.60 307.60 L 513.30 300.20 L 512.00 298.50 L 510.30 294.50 L 510.30 293.80 L 512.40 291.10 L 512.80 289.90 L 512.90 288.10 L 512.10 285.80 L 508.20 279.30 L 506.60 275.60 L 505.70 272.00 L 505.50 269.60 L 505.80 267.40 L 507.40 264.00 L 510.20 261.60 L 513.30 260.00 L 514.30 259.00 L 515.60 256.90 L 516.30 254.80 L 516.60 251.90 L 517.40 251.00 L 518.70 250.90 L 525.80 254.10 L 532.50 257.50 L 539.00 261.30 L 540.90 261.70 L 541.80 261.30 L 542.80 259.80 L 542.40 255.00 L 542.70 251.00 L 543.10 250.20 L 543.80 249.50 L 544.70 249.20 L 545.90 249.30 L 550.40 252.20 L 554.40 255.50 L 558.20 259.30 L 561.70 263.30 L 568.10 272.20 L 572.20 279.30 L 575.70 286.20 L 576.20 287.00 L 578.00 287.80 L 579.90 287.20 L 584.40 282.20 L 609.10 261.00 L 613.10 258.50 L 614.20 258.20 L 616.40 258.40 L 618.20 259.70 L 619.00 261.20 L 619.20 264.90 L 618.90 268.10 L 618.00 271.10 L 616.50 273.80 L 616.50 274.80 L 636.80 264.80 L 638.20 264.30 L 639.70 264.20 L 642.30 265.10 L 643.40 266.10 L 644.70 268.30 L 645.00 270.60 L 644.80 272.80 L 644.10 275.00 L 643.00 277.00 L 642.80 278.00 L 643.00 278.90 L 644.00 279.90 L 646.70 280.10 L 648.70 280.60 L 652.40 282.60 L 653.20 283.50 L 653.60 284.80 L 653.40 289.40 L 652.10 293.70 L 648.30 300.10 L 643.90 306.10 L 639.20 311.80 L 633.90 317.00 L 628.30 321.80 L 622.10 326.20 L 621.40 327.20 L 621.80 328.70 L 625.30 331.10 L 626.70 332.60 L 628.40 335.20 L 629.60 338.10 L 630.10 340.20 L 630.20 344.60 Z" fill="#fee09c" fill-rule="nonzero" node-id="93" stroke="none" target-height="98.59999" target-width="148.09998" target-x="505.5" target-y="249.2"/><path d="M 425.70 254.90 L 391.30 292.80 L 389.50 295.60 L 386.80 301.70 L 383.40 298.50 L 376.00 293.00 L 372.00 290.70 L 363.50 287.10 L 365.50 284.80 L 366.80 283.90 L 369.00 283.20 L 369.70 283.20 L 371.70 284.70 L 372.90 287.60 L 373.40 288.20 L 374.10 288.60 L 375.30 288.50 L 383.10 282.20 L 398.50 268.10 L 400.30 266.80 L 405.40 264.50 L 406.30 263.80 L 411.10 258.50 L 418.20 252.80 L 419.70 252.20 L 421.10 252.20 L 422.60 252.60 L 424.10 253.40 L 425.70 254.90 Z" fill="#e0e9a6" fill-rule="nonzero" node-id="95" stroke="none" target-height="49.500015" target-width="62.200012" target-x="363.5" target-y="252.2"/><path d="M 425.70 254.90 L 430.30 259.90 L 434.70 265.30 L 438.60 271.00 L 442.10 277.00 L 445.20 289.30 L 448.20 298.00 L 448.50 301.00 L 447.80 303.40 L 447.20 304.20 L 446.50 304.30 L 445.70 303.70 L 440.10 295.20 L 433.20 287.80 L 431.70 285.90 L 428.80 280.70 L 427.00 279.50 L 425.40 279.30 L 421.50 280.70 L 418.90 280.90 L 417.80 281.40 L 407.50 289.60 L 394.70 299.30 L 387.30 306.70 L 386.60 307.10 L 386.10 306.90 L 385.70 306.20 L 385.40 304.40 L 385.70 303.60 L 386.90 302.40 L 388.70 297.80 L 391.40 293.50 L 425.70 254.90 Z" fill="#819765" fill-rule="nonzero" node-id="97" stroke="none" target-height="52.200012" target-width="63.100006" target-x="385.4" target-y="254.9"/><path d="M 512.50 299.70 L 533.80 307.10 L 531.60 307.30 L 530.60 307.70 L 530.30 308.10 L 530.50 308.50 L 539.20 313.90 L 542.50 316.70 L 548.80 322.80 L 560.50 335.80 L 563.60 340.10 L 569.20 348.90 L 577.80 365.20 L 581.50 373.50 L 584.80 382.10 L 588.30 393.30 L 591.50 404.70 L 596.90 427.70 L 598.60 429.40 L 602.30 446.50 L 601.60 460.10 L 601.20 459.90 L 601.20 452.70 L 600.90 451.90 L 599.60 451.20 L 599.50 449.60 L 599.00 449.10 L 600.00 476.90 L 601.40 482.70 L 602.50 488.60 L 603.80 502.70 L 604.60 504.60 L 607.50 508.80 L 607.70 512.20 L 608.70 516.00 L 608.90 518.30 L 608.10 520.50 L 606.90 522.50 L 604.60 524.40 L 601.40 526.50 L 600.30 527.80 L 600.40 529.70 L 602.20 531.40 L 602.40 532.30 L 602.20 532.80 L 598.60 534.00 L 596.50 538.10 L 595.70 541.50 L 595.40 545.10 L 595.60 548.60 L 596.40 552.10 L 597.80 555.60 L 594.70 559.30 L 593.40 561.40 L 591.40 566.00 L 590.90 568.40 L 590.80 570.80 L 591.70 575.60 L 594.30 581.30 L 597.10 585.10 L 597.30 585.90 L 597.00 587.80 L 595.60 590.10 L 593.80 592.00 L 591.60 593.50 L 589.10 594.50 L 577.70 597.60 L 556.10 602.40 L 542.20 603.10 L 541.30 603.40 L 540.70 604.30 L 540.20 606.50 L 538.50 596.40 L 536.30 586.80 L 534.40 580.50 L 532.20 574.60 L 529.60 568.90 L 526.60 563.40 L 523.10 558.30 L 516.60 551.00 L 511.60 547.10 L 507.60 544.90 L 503.40 543.30 L 494.00 541.10 L 467.10 537.70 L 451.10 536.40 L 435.00 535.50 L 418.80 535.10 L 402.70 535.00 L 370.30 536.10 L 338.20 538.40 L 320.80 540.50 L 312.10 542.00 L 299.20 545.10 L 295.40 546.60 L 288.80 550.20 L 285.00 553.30 L 281.50 556.70 L 278.40 560.50 L 272.90 569.10 L 270.30 574.10 L 269.90 570.00 L 270.60 564.80 L 269.70 562.50 L 267.80 560.90 L 266.50 560.50 L 258.70 559.70 L 251.10 559.40 L 243.60 559.50 L 236.00 560.00 L 228.40 561.00 L 223.20 561.00 L 218.20 560.00 L 217.50 559.60 L 217.00 558.80 L 216.30 556.30 L 215.80 555.50 L 214.80 555.30 L 213.80 555.80 L 214.20 548.00 L 215.30 540.10 L 217.70 529.80 L 219.30 524.80 L 220.60 522.20 L 222.10 520.40 L 223.70 519.30 L 225.60 518.70 L 227.70 518.40 L 229.90 518.60 L 233.20 519.60 L 263.60 534.00 L 264.40 534.00 L 265.10 533.50 L 265.30 532.70 L 264.90 532.00 L 260.10 528.60 L 254.90 524.30 L 249.80 519.60 L 244.90 514.40 L 240.40 508.90 L 236.50 503.40 L 234.20 499.50 L 231.20 492.30 L 230.50 489.10 L 230.20 485.70 L 230.30 482.30 L 231.00 478.90 L 235.20 474.60 L 242.90 465.20 L 249.30 455.10 L 252.10 449.70 L 251.40 457.40 L 251.80 458.20 L 252.80 457.60 L 252.10 458.90 L 251.10 459.80 L 250.10 459.70 L 249.50 458.90 L 249.20 462.90 L 246.40 476.90 L 246.40 482.60 L 248.00 488.00 L 248.50 490.60 L 251.90 494.50 L 254.80 496.70 L 258.10 498.60 L 261.60 499.80 L 265.20 500.50 L 269.10 500.60 L 274.70 499.60 L 286.40 495.40 L 290.10 493.70 L 293.60 491.70 L 295.50 490.20 L 298.40 486.40 L 302.00 479.80 L 303.30 476.80 L 305.80 466.40 L 305.70 465.30 L 303.50 460.60 L 308.00 459.40 L 312.40 458.90 L 314.80 458.30 L 317.00 457.40 L 318.90 456.10 L 323.00 452.00 L 324.90 449.30 L 326.30 446.30 L 329.10 438.40 L 330.30 433.70 L 330.90 427.10 L 330.80 423.70 L 333.40 422.20 L 335.20 420.60 L 336.30 418.90 L 336.90 416.90 L 336.80 414.60 L 336.20 412.00 L 334.60 408.80 L 332.00 404.90 L 332.30 402.40 L 332.00 399.90 L 331.40 397.60 L 330.20 395.40 L 328.70 393.60 L 324.50 390.70 L 322.10 389.70 L 319.60 389.20 L 314.30 389.30 L 311.60 389.90 L 309.00 390.70 L 304.50 393.20 L 301.10 396.00 L 297.90 399.20 L 294.90 402.90 L 292.30 406.80 L 287.90 415.60 L 286.10 420.20 L 283.50 429.60 L 282.70 434.30 L 281.40 446.80 L 281.40 450.50 L 281.90 454.20 L 277.60 452.10 L 273.10 451.20 L 270.80 451.20 L 268.50 451.50 L 267.40 452.00 L 264.50 454.50 L 263.30 454.80 L 261.80 454.70 L 262.50 439.30 L 262.40 436.10 L 262.10 434.80 L 261.70 434.50 L 261.20 434.60 L 260.20 435.60 L 258.50 438.30 L 252.80 449.00 L 253.00 440.60 L 253.50 436.40 L 255.50 428.20 L 262.50 410.80 L 269.60 391.30 L 273.70 381.60 L 278.00 373.20 L 282.60 365.20 L 287.70 357.40 L 293.30 349.90 L 299.30 342.70 L 305.60 335.90 L 312.40 329.50 L 325.20 318.80 L 330.60 313.80 L 335.60 308.50 L 344.50 303.80 L 348.00 301.50 L 364.30 287.90 L 368.70 289.60 L 376.90 293.80 L 384.30 299.30 L 387.60 302.50 L 386.10 304.50 L 386.60 306.90 L 387.50 307.20 L 388.20 306.80 L 393.40 301.30 L 397.70 297.60 L 418.50 281.50 L 419.50 281.00 L 422.20 280.80 L 425.90 279.40 L 428.00 279.80 L 428.90 280.40 L 430.10 282.00 L 432.40 286.30 L 440.80 295.60 L 446.40 304.00 L 447.20 304.60 L 447.90 304.50 L 448.50 303.60 L 449.20 301.30 L 448.90 298.30 L 445.90 289.60 L 442.80 277.30 L 448.10 277.00 L 453.40 276.20 L 458.50 275.00 L 470.30 270.90 L 472.00 271.00 L 473.50 271.60 L 474.80 272.60 L 483.00 282.70 L 491.60 295.70 L 493.30 297.20 L 495.40 298.40 L 503.70 299.50 L 512.50 299.70 Z M 499.10 401.80 L 496.50 404.20 L 494.60 406.60 L 493.20 409.00 L 492.40 411.50 L 492.20 414.20 L 492.40 417.00 L 493.20 420.10 L 492.20 424.60 L 491.60 429.20 L 491.50 433.90 L 491.80 438.50 L 492.50 443.10 L 493.70 447.60 L 496.50 453.10 L 500.60 457.80 L 503.10 459.70 L 505.80 461.20 L 504.50 463.60 L 503.80 466.10 L 503.50 468.80 L 503.80 471.60 L 505.30 482.20 L 506.30 485.50 L 509.60 493.10 L 510.10 493.70 L 513.50 495.40 L 518.20 499.60 L 521.70 503.40 L 524.10 505.10 L 526.70 506.50 L 535.20 509.50 L 539.60 510.40 L 547.30 511.10 L 550.50 510.80 L 553.70 510.10 L 556.80 508.90 L 559.90 507.30 L 567.80 501.40 L 571.50 498.00 L 574.80 494.40 L 576.20 492.20 L 577.20 489.90 L 577.70 487.30 L 577.70 480.70 L 577.20 476.80 L 575.50 469.10 L 572.60 461.70 L 568.90 440.60 L 568.30 439.20 L 566.50 437.70 L 564.40 437.60 L 563.60 439.00 L 563.20 442.10 L 562.10 443.60 L 560.60 444.70 L 558.60 445.40 L 555.90 445.80 L 551.20 445.80 L 546.80 448.50 L 543.20 450.00 L 543.80 444.00 L 543.80 432.00 L 543.20 426.00 L 542.10 420.90 L 540.40 415.60 L 538.10 410.60 L 535.20 405.80 L 530.50 400.10 L 525.00 395.50 L 521.90 393.80 L 518.70 392.50 L 515.80 391.90 L 513.10 391.90 L 510.50 392.30 L 508.00 393.20 L 505.70 394.50 L 503.50 396.30 L 501.30 398.70 L 499.10 401.80 Z M 447.80 483.90 L 445.60 484.10 L 443.40 484.70 L 438.30 487.40 L 436.90 487.60 L 414.90 486.60 L 401.00 485.30 L 389.90 485.30 L 379.00 486.40 L 356.40 490.30 L 353.40 490.10 L 350.60 489.40 L 340.30 484.60 L 337.30 483.50 L 336.50 483.50 L 336.10 484.20 L 336.30 485.60 L 337.30 487.20 L 338.30 487.80 L 345.40 490.50 L 352.40 492.50 L 358.00 493.00 L 360.70 492.70 L 370.50 490.20 L 377.40 488.90 L 384.40 488.10 L 391.40 487.70 L 398.40 487.80 L 413.20 489.00 L 420.90 489.40 L 428.50 489.30 L 434.60 488.80 L 446.70 487.30 L 454.00 485.90 L 454.90 485.20 L 455.60 484.10 L 455.80 482.40 L 455.30 481.70 L 452.90 481.80 L 450.60 483.10 L 447.80 483.90 Z M 224.70 543.10 L 225.20 545.60 L 226.90 547.60 L 229.40 548.30 L 231.10 548.10 L 234.60 546.90 L 236.20 546.00 L 236.80 545.30 L 238.50 541.90 L 239.00 539.50 L 238.30 537.20 L 236.50 535.50 L 231.00 532.90 L 228.50 533.10 L 226.40 534.40 L 225.30 536.30 L 224.70 543.10 Z" fill="#a9b77c" fill-rule="nonzero" node-id="99" stroke="none" target-height="335.6" target-width="395.10004" target-x="213.8" target-y="270.9"/><path d="M 533.80 307.20 L 542.60 311.80 L 551.00 316.80 L 559.20 322.30 L 567.00 328.30 L 577.40 337.30 L 582.20 342.20 L 586.80 347.40 L 608.40 374.90 L 609.10 377.10 L 610.40 379.10 L 613.60 387.30 L 617.10 395.20 L 625.60 413.50 L 630.10 420.30 L 632.70 423.40 L 634.30 424.60 L 635.30 424.00 L 635.70 422.40 L 636.00 413.50 L 635.80 404.60 L 635.20 395.70 L 634.10 386.90 L 632.50 378.20 L 630.50 369.60 L 627.50 342.60 L 627.70 342.40 L 628.40 342.60 L 628.90 343.10 L 629.80 348.60 L 630.30 346.10 L 633.50 365.20 L 638.60 387.30 L 639.50 393.70 L 640.10 400.20 L 640.20 406.70 L 638.20 438.30 L 638.10 444.10 L 637.60 449.80 L 636.70 455.50 L 635.40 461.10 L 633.60 466.60 L 631.50 472.00 L 620.00 479.80 L 619.20 481.30 L 619.00 483.40 L 625.00 499.60 L 634.30 521.30 L 636.80 528.30 L 638.80 535.50 L 640.60 544.10 L 641.30 545.20 L 643.30 546.90 L 656.20 553.00 L 660.10 555.40 L 662.50 557.20 L 666.40 561.40 L 669.40 566.70 L 672.80 576.80 L 674.10 579.70 L 675.80 582.60 L 683.00 590.50 L 684.30 592.50 L 685.40 594.70 L 686.40 598.20 L 686.90 601.70 L 682.90 613.10 L 675.30 607.70 L 668.10 601.80 L 661.30 595.60 L 654.90 589.00 L 647.70 580.60 L 646.30 580.10 L 645.50 581.30 L 643.90 591.70 L 641.30 600.50 L 637.40 608.70 L 634.90 612.50 L 632.10 615.80 L 629.10 618.80 L 622.20 623.80 L 614.50 627.50 L 610.60 628.80 L 606.60 629.50 L 602.60 629.80 L 598.60 629.50 L 594.70 628.50 L 591.60 627.10 L 589.80 625.80 L 589.00 624.60 L 588.80 623.50 L 589.10 622.20 L 590.20 620.80 L 593.50 623.90 L 596.10 624.60 L 599.90 623.70 L 605.60 620.80 L 613.50 622.30 L 615.20 622.10 L 618.20 619.90 L 625.50 615.40 L 629.90 611.90 L 632.80 608.50 L 635.20 605.00 L 637.10 601.20 L 638.50 597.10 L 639.40 592.70 L 639.80 588.00 L 639.60 582.80 L 638.80 577.20 L 639.30 574.90 L 639.50 572.50 L 639.20 569.90 L 638.50 567.20 L 637.00 563.80 L 634.80 560.00 L 631.60 555.90 L 634.20 551.80 L 634.60 550.20 L 634.40 548.60 L 632.50 542.40 L 631.00 533.90 L 629.60 530.60 L 627.70 527.50 L 625.40 524.70 L 623.40 522.90 L 621.30 521.60 L 619.20 520.60 L 616.90 520.10 L 612.00 520.30 L 606.30 522.20 L 607.50 520.20 L 608.30 518.00 L 608.10 515.70 L 607.20 511.80 L 606.90 508.50 L 604.70 505.40 L 603.50 503.00 L 602.90 500.40 L 602.70 494.50 L 602.00 488.60 L 600.90 482.60 L 599.40 476.60 L 600.60 465.80 L 602.80 458.20 L 603.10 454.30 L 603.00 450.20 L 598.60 429.20 L 596.90 427.50 L 593.40 412.10 L 589.40 396.90 L 584.80 381.90 L 581.40 373.40 L 577.60 365.00 L 573.40 356.80 L 565.30 342.80 L 561.20 337.20 L 556.80 331.80 L 548.90 323.30 L 542.20 316.70 L 538.80 313.90 L 535.20 311.40 L 530.30 308.70 L 530.00 308.20 L 530.30 307.80 L 531.30 307.30 L 533.80 307.20 Z M 622.00 473.20 L 627.90 467.70 L 629.10 465.80 L 630.00 463.50 L 635.10 431.90 L 634.80 430.20 L 634.00 428.60 L 632.90 427.20 L 621.20 415.00 L 619.60 414.70 L 618.70 415.70 L 617.70 422.00 L 617.20 428.20 L 617.20 434.50 L 618.10 451.40 L 619.60 470.90 L 620.80 473.40 L 622.00 473.20 Z" fill="#4e8e66" fill-rule="nonzero" node-id="101" stroke="none" target-height="322.59998" target-width="156.90002" target-x="530" target-y="307.2"/><path d="M 334.80 307.70 L 329.60 313.00 L 324.30 318.00 L 311.50 328.70 L 304.80 335.10 L 298.40 341.90 L 292.40 349.10 L 286.90 356.60 L 281.80 364.40 L 277.10 372.50 L 272.90 380.80 L 267.00 395.20 L 261.30 411.00 L 254.70 427.40 L 252.70 435.60 L 252.20 439.80 L 252.00 448.20 L 251.50 449.60 L 251.30 448.90 L 248.50 454.30 L 242.10 464.40 L 234.40 473.80 L 230.20 478.10 L 231.90 470.90 L 234.10 463.90 L 236.60 457.00 L 239.60 450.30 L 242.90 443.80 L 247.20 436.30 L 248.60 432.50 L 251.40 428.80 L 252.10 424.90 L 254.00 419.70 L 254.60 417.10 L 255.50 411.00 L 256.80 405.00 L 258.60 399.30 L 269.50 373.90 L 271.20 368.80 L 273.20 365.10 L 276.40 361.00 L 277.30 357.90 L 289.70 340.60 L 294.40 335.20 L 299.40 330.10 L 304.70 325.40 L 310.20 321.10 L 316.00 317.10 L 322.00 313.60 L 328.30 310.40 L 334.80 307.70 Z" fill="#e0e9a6" fill-rule="nonzero" node-id="103" stroke="none" target-height="170.4" target-width="104.59999" target-x="230.2" target-y="307.7"/><path d="M 181.60 379.50 L 181.30 378.30 L 180.60 377.30 L 179.60 376.60 L 178.40 376.30 L 179.70 376.20 L 180.90 375.80 L 181.80 375.00 L 186.10 366.00 L 189.30 358.00 L 191.90 349.90 L 194.00 341.60 L 194.40 337.40 L 194.40 329.00 L 193.10 320.70 L 191.60 314.60 L 191.70 313.10 L 192.10 311.90 L 193.00 310.90 L 194.20 310.20 L 197.10 309.70 L 200.10 311.60 L 201.70 313.10 L 204.30 316.80 L 205.20 318.80 L 206.10 323.20 L 206.00 325.50 L 204.60 333.70 L 201.60 345.50 L 199.60 351.30 L 194.90 362.50 L 191.30 368.60 L 185.30 375.70 L 181.60 379.50 Z" fill="#ffd9bf" fill-rule="nonzero" node-id="105" stroke="none" target-height="69.79999" target-width="27.700012" target-x="178.4" target-y="309.7"/><path d="M 167.70 346.60 L 165.40 346.30 L 163.20 345.50 L 161.10 344.30 L 157.30 340.90 L 155.70 338.80 L 153.30 334.20 L 152.10 329.30 L 152.40 324.70 L 153.10 322.60 L 154.20 320.80 L 155.90 319.20 L 157.90 318.10 L 160.50 317.30 L 164.00 316.90 L 167.40 317.10 L 170.30 317.70 L 172.90 318.80 L 175.20 320.30 L 177.20 322.20 L 179.00 324.70 L 180.50 327.80 L 181.80 331.50 L 181.80 334.50 L 181.20 336.10 L 179.90 338.30 L 178.10 340.40 L 172.70 345.10 L 169.50 346.40 L 167.70 346.60 Z" fill="#fee09c" fill-rule="nonzero" node-id="107" stroke="none" target-height="29.700012" target-width="29.699997" target-x="152.1" target-y="316.9"/><path d="M 788.30 473.70 L 786.20 472.40 L 783.90 471.60 L 780.80 471.70 L 779.40 472.20 L 778.30 473.10 L 777.40 474.40 L 776.60 476.90 L 775.80 477.80 L 772.00 478.10 L 770.60 475.30 L 767.80 471.30 L 766.40 470.60 L 764.90 470.30 L 763.30 470.60 L 761.60 471.50 L 759.10 474.40 L 757.80 475.40 L 756.20 475.90 L 754.40 476.00 L 752.30 475.60 L 749.60 474.50 L 747.20 472.40 L 746.60 471.20 L 746.30 469.10 L 747.00 464.60 L 749.90 457.10 L 749.80 455.90 L 749.30 454.80 L 748.40 453.90 L 744.80 452.60 L 742.90 452.40 L 741.80 452.60 L 738.30 454.60 L 735.50 455.60 L 734.50 455.60 L 733.50 454.90 L 733.00 452.00 L 732.30 450.90 L 731.30 450.30 L 729.90 450.30 L 725.20 452.10 L 722.60 452.80 L 719.80 453.10 L 717.10 453.00 L 714.40 452.50 L 711.00 451.30 L 710.40 450.10 L 710.50 449.40 L 714.00 430.30 L 713.60 430.10 L 709.90 432.50 L 706.00 434.30 L 701.90 435.60 L 697.50 436.30 L 695.60 435.90 L 694.90 435.20 L 691.60 427.20 L 687.80 420.70 L 687.00 419.90 L 676.70 417.40 L 676.30 417.10 L 676.00 416.00 L 675.80 411.40 L 675.30 409.20 L 674.50 407.10 L 673.90 406.40 L 664.80 408.20 L 659.10 408.90 L 657.40 409.60 L 653.90 411.90 L 652.40 411.90 L 650.30 410.90 L 648.80 410.80 L 647.40 411.30 L 645.80 412.50 L 643.50 415.10 L 642.60 415.30 L 641.50 414.90 L 640.80 414.20 L 640.40 413.10 L 640.70 404.90 L 640.30 396.80 L 639.80 391.40 L 638.90 386.00 L 634.00 365.00 L 635.70 365.90 L 638.20 366.30 L 642.20 364.70 L 646.80 363.60 L 648.10 362.80 L 649.90 360.60 L 650.40 359.30 L 650.70 356.10 L 651.90 353.20 L 654.30 351.20 L 658.70 349.50 L 661.30 347.90 L 663.60 345.90 L 668.10 340.00 L 674.20 334.00 L 682.70 328.20 L 688.10 325.20 L 693.80 322.70 L 699.70 320.60 L 700.60 320.40 L 701.60 320.70 L 702.40 321.20 L 703.10 322.80 L 703.30 344.20 L 703.80 349.40 L 705.10 355.00 L 706.50 356.30 L 712.30 359.00 L 714.30 360.90 L 718.10 362.20 L 719.90 363.90 L 720.70 366.40 L 720.10 369.60 L 714.80 376.90 L 709.70 383.00 L 706.00 386.80 L 697.20 394.50 L 696.40 397.00 L 696.50 398.60 L 697.70 401.60 L 698.60 402.30 L 702.60 403.50 L 705.90 406.20 L 717.10 407.70 L 718.30 407.20 L 720.50 405.00 L 722.30 401.10 L 723.00 400.20 L 724.80 399.10 L 726.80 398.40 L 728.80 398.20 L 730.90 398.50 L 732.80 399.30 L 736.30 401.80 L 738.30 402.70 L 740.10 403.40 L 742.00 403.50 L 743.80 403.20 L 747.70 401.20 L 751.70 400.80 L 759.70 400.50 L 772.70 398.50 L 776.90 398.60 L 785.40 401.00 L 786.20 402.40 L 786.00 403.50 L 775.60 415.70 L 774.70 419.30 L 775.00 420.70 L 775.70 421.90 L 778.40 424.30 L 781.00 427.70 L 783.50 429.80 L 786.10 435.50 L 787.00 436.00 L 791.30 435.40 L 794.60 436.40 L 795.90 437.40 L 798.00 440.20 L 798.40 441.70 L 798.40 443.30 L 798.00 444.90 L 797.30 446.20 L 795.90 447.60 L 793.70 448.60 L 791.60 449.10 L 789.30 449.20 L 782.50 447.70 L 781.20 447.80 L 779.70 448.60 L 777.20 450.80 L 776.40 452.20 L 775.80 453.80 L 775.50 456.20 L 776.00 457.50 L 780.30 461.00 L 788.30 473.70 Z M 797.20 444.20 L 794.50 438.00 L 793.10 437.40 L 792.00 437.50 L 789.40 438.80 L 786.00 441.50 L 784.80 443.10 L 784.40 444.50 L 784.60 445.70 L 785.30 446.90 L 787.00 447.90 L 788.70 448.20 L 791.00 448.10 L 793.30 447.60 L 796.90 446.20 L 797.40 445.00 L 797.20 444.20 Z" fill="#feebe5" fill-rule="nonzero" node-id="109" stroke="none" target-height="157.70001" target-width="164.40002" target-x="634" target-y="320.4"/><path d="M 626.00 337.90 L 624.60 340.10 L 621.70 342.80 L 620.20 347.30 L 617.50 353.70 L 616.60 357.00 L 615.40 363.70 L 614.20 365.70 L 612.10 367.70 L 610.50 370.00 L 609.40 372.40 L 608.70 375.10 L 587.00 347.60 L 616.60 330.50 L 617.60 330.60 L 620.40 333.50 L 626.00 337.90 Z" fill="#f6f7f9" fill-rule="nonzero" node-id="111" stroke="none" target-height="44.600006" target-width="39" target-x="587" target-y="330.5"/><path d="M 178.40 376.60 L 179.60 376.90 L 180.60 377.60 L 181.30 378.60 L 181.60 379.80 L 194.70 403.80 L 196.40 409.50 L 196.20 412.10 L 195.80 413.30 L 195.30 413.70 L 194.70 413.70 L 193.70 412.90 L 192.20 410.70 L 187.00 402.10 L 182.20 393.30 L 177.50 383.70 L 176.40 383.20 L 175.80 383.20 L 168.90 384.90 L 161.80 385.10 L 155.00 383.80 L 151.70 382.50 L 145.60 379.00 L 139.70 374.60 L 133.70 369.00 L 131.00 365.90 L 128.80 362.60 L 126.90 358.00 L 126.50 355.70 L 126.50 351.60 L 127.00 347.80 L 128.10 344.30 L 129.80 341.00 L 132.00 337.90 L 134.80 335.00 L 138.40 332.20 L 139.80 331.60 L 141.30 331.60 L 142.70 332.20 L 143.90 333.20 L 165.50 371.00 L 167.30 372.90 L 169.50 374.50 L 172.00 375.60 L 174.90 376.30 L 178.40 376.60 Z" fill="#fda567" fill-rule="nonzero" node-id="113" stroke="none" target-height="82.100006" target-width="69.899994" target-x="126.5" target-y="331.6"/><path d="M 626.00 337.90 L 626.90 339.30 L 628.80 339.80 L 629.60 341.00 L 629.50 343.30 L 630.00 345.30 L 629.40 348.40 L 628.50 343.00 L 628.00 342.50 L 627.30 342.30 L 627.10 342.50 L 630.10 369.50 L 628.60 370.50 L 625.20 370.20 L 623.40 370.50 L 619.70 372.20 L 616.30 374.20 L 610.30 379.20 L 609.00 377.20 L 608.30 375.00 L 609.10 372.30 L 610.30 369.70 L 611.90 367.50 L 614.60 364.70 L 616.90 353.60 L 619.80 347.30 L 621.30 342.70 L 624.50 340.00 L 626.00 337.90 Z" fill="#a7b9ac" fill-rule="nonzero" node-id="115" stroke="none" target-height="41.30002" target-width="21.799988" target-x="608.3" target-y="337.9"/><path d="M 630.70 369.40 L 632.70 378.10 L 634.30 386.90 L 635.40 395.70 L 636.00 404.50 L 636.20 413.40 L 635.90 422.20 L 635.40 424.30 L 634.90 424.50 L 634.20 424.20 L 632.90 423.20 L 630.30 420.10 L 625.80 413.20 L 615.40 391.00 L 610.60 378.90 L 616.70 373.90 L 620.10 371.90 L 623.70 370.20 L 625.60 369.70 L 629.60 370.20 L 630.70 369.40 Z" fill="#469da7" fill-rule="nonzero" node-id="117" stroke="none" target-height="55.100006" target-width="25.600037" target-x="610.6" target-y="369.4"/><path d="M 331.30 404.30 L 328.10 401.30 L 325.10 399.10 L 322.20 397.70 L 319.40 397.00 L 316.60 396.80 L 313.80 397.20 L 311.00 398.10 L 308.00 399.70 L 304.90 402.10 L 301.60 405.30 L 300.90 406.40 L 300.40 408.60 L 300.80 410.30 L 301.80 411.70 L 303.90 413.20 L 306.00 415.80 L 306.90 418.10 L 307.20 420.60 L 307.00 423.10 L 301.30 425.40 L 293.40 426.90 L 289.90 428.50 L 288.40 429.80 L 287.30 431.40 L 285.70 434.90 L 284.10 441.10 L 282.80 443.80 L 282.40 444.10 L 281.90 443.90 L 281.10 442.60 L 281.80 433.80 L 283.80 424.30 L 285.30 419.70 L 289.20 410.50 L 291.50 406.30 L 294.10 402.30 L 297.10 398.60 L 300.30 395.30 L 303.70 392.50 L 305.90 391.10 L 310.80 389.10 L 316.10 388.40 L 321.30 389.00 L 323.70 390.00 L 326.00 391.30 L 328.00 393.00 L 329.60 394.90 L 330.70 397.10 L 331.40 399.40 L 331.60 401.80 L 331.30 404.30 Z" fill="#0c0809" fill-rule="nonzero" node-id="119" stroke="none" target-height="55.700012" target-width="50.5" target-x="281.1" target-y="388.4"/><path d="M 543.40 450.40 L 542.40 453.00 L 541.00 455.40 L 538.90 457.60 L 537.80 456.90 L 537.70 455.60 L 539.50 452.30 L 539.90 450.40 L 539.70 438.50 L 539.40 437.00 L 538.00 434.30 L 537.00 433.30 L 529.50 428.60 L 522.60 429.70 L 500.40 436.80 L 499.70 437.80 L 498.30 441.70 L 497.80 446.60 L 496.50 447.90 L 495.20 448.00 L 494.30 447.50 L 493.10 443.00 L 492.40 438.50 L 492.10 433.90 L 492.20 429.30 L 492.80 424.60 L 493.80 420.00 L 494.90 420.00 L 497.00 420.50 L 500.20 422.80 L 505.20 425.30 L 510.70 426.50 L 516.30 426.10 L 519.10 425.30 L 523.90 423.10 L 525.80 421.80 L 527.30 420.10 L 529.40 416.10 L 530.00 413.80 L 529.80 410.90 L 528.00 407.30 L 526.30 405.30 L 522.10 402.10 L 517.90 400.40 L 515.20 400.10 L 506.40 400.70 L 499.60 401.90 L 501.80 398.70 L 504.10 396.30 L 506.40 394.50 L 508.70 393.20 L 511.20 392.50 L 513.70 392.20 L 516.50 392.30 L 519.40 393.00 L 522.70 394.30 L 525.70 396.00 L 528.60 398.10 L 533.70 403.20 L 538.00 409.40 L 541.20 416.10 L 542.90 421.30 L 543.90 426.50 L 544.20 438.40 L 543.40 450.40 Z" fill="#0c0809" fill-rule="nonzero" node-id="121" stroke="none" target-height="65.399994" target-width="52.100006" target-x="492.1" target-y="392.2"/><path d="M 331.30 404.30 L 333.80 407.80 L 335.30 410.80 L 336.10 413.30 L 336.40 415.40 L 336.10 417.30 L 335.40 418.90 L 334.30 420.40 L 332.50 421.80 L 326.40 424.70 L 323.10 425.70 L 320.10 426.10 L 317.30 426.10 L 314.60 425.50 L 312.00 424.40 L 309.60 422.80 L 307.30 420.60 L 307.00 418.00 L 306.10 415.70 L 305.20 414.40 L 301.60 411.50 L 300.50 409.50 L 300.50 407.20 L 301.10 406.00 L 304.90 402.10 L 308.00 399.70 L 311.00 398.10 L 313.80 397.20 L 316.60 396.80 L 319.40 397.00 L 322.20 397.70 L 325.10 399.10 L 328.10 401.30 L 331.30 404.30 Z" fill="#f6f7f9" fill-rule="nonzero" node-id="123" stroke="none" target-height="29.300018" target-width="35.899994" target-x="300.5" target-y="396.8"/><path d="M 493.10 420.20 L 492.30 417.10 L 492.10 414.20 L 492.40 411.50 L 493.20 409.00 L 494.50 406.60 L 496.40 404.20 L 499.00 401.90 L 510.70 400.20 L 514.50 400.10 L 517.30 400.40 L 519.20 401.00 L 523.50 403.60 L 527.30 407.30 L 529.10 410.90 L 529.40 413.80 L 528.90 416.10 L 526.70 420.10 L 525.20 421.80 L 523.30 423.10 L 521.20 424.20 L 518.50 425.30 L 512.90 426.50 L 510.00 426.50 L 504.50 425.30 L 499.50 422.80 L 497.20 421.00 L 495.30 420.30 L 493.10 420.20 Z" fill="#f6f7f9" fill-rule="nonzero" node-id="125" stroke="none" target-height="26.399994" target-width="37.30002" target-x="492.1" target-y="400.1"/><path d="M 771.90 477.90 L 773.50 480.10 L 774.70 482.50 L 775.40 485.10 L 775.60 487.80 L 762.50 488.50 L 759.30 489.00 L 743.60 492.90 L 730.70 495.70 L 729.40 494.50 L 728.50 492.70 L 728.60 490.50 L 728.10 488.50 L 727.10 486.60 L 725.80 485.00 L 722.80 482.60 L 720.10 481.10 L 717.50 480.30 L 714.90 480.10 L 712.40 480.50 L 709.90 481.50 L 708.70 481.40 L 708.30 479.70 L 708.80 476.20 L 708.50 475.10 L 705.90 471.30 L 704.30 469.60 L 701.20 467.40 L 692.70 464.50 L 691.80 463.70 L 689.70 460.60 L 687.60 458.70 L 685.10 457.10 L 679.30 454.70 L 673.40 453.40 L 669.80 453.20 L 665.60 454.50 L 664.30 454.50 L 662.50 453.80 L 659.50 451.10 L 655.80 445.90 L 654.10 444.00 L 652.20 442.60 L 642.60 438.20 L 641.80 436.40 L 640.60 435.80 L 640.30 436.00 L 639.90 438.10 L 639.40 438.50 L 638.60 438.40 L 640.10 413.10 L 640.50 414.20 L 641.20 414.90 L 642.30 415.30 L 643.10 415.10 L 645.00 412.90 L 647.50 411.10 L 648.80 410.80 L 650.10 411.00 L 652.10 411.90 L 653.60 411.90 L 657.10 409.60 L 658.80 409.00 L 666.70 407.90 L 672.50 406.40 L 673.50 406.40 L 674.20 407.10 L 675.50 411.60 L 675.80 417.20 L 676.70 417.70 L 685.60 419.70 L 687.00 420.40 L 690.00 425.20 L 692.30 429.70 L 694.40 435.50 L 695.10 436.10 L 697.00 436.50 L 701.20 435.80 L 705.40 434.50 L 709.40 432.70 L 713.10 430.30 L 713.60 430.30 L 710.10 449.30 L 710.30 450.70 L 710.70 451.20 L 714.00 452.40 L 716.70 452.90 L 719.50 453.00 L 722.20 452.70 L 724.80 451.90 L 729.00 450.20 L 730.20 450.10 L 731.20 450.40 L 731.90 451.00 L 732.50 452.00 L 733.10 454.80 L 734.20 455.60 L 737.00 454.90 L 741.40 452.50 L 744.40 452.50 L 746.20 453.00 L 748.00 453.80 L 748.90 454.70 L 749.50 455.90 L 749.60 457.10 L 746.70 464.50 L 746.10 466.80 L 745.90 469.00 L 746.30 471.10 L 747.80 473.40 L 749.20 474.40 L 751.70 475.50 L 753.70 475.90 L 755.50 475.80 L 757.10 475.30 L 758.60 474.30 L 761.20 471.30 L 762.00 470.80 L 764.50 470.20 L 766.00 470.50 L 767.40 471.20 L 768.40 472.50 L 771.90 477.90 Z" fill="#feaf3a" fill-rule="nonzero" node-id="127" stroke="none" target-height="89.30002" target-width="137" target-x="638.6" target-y="406.4"/><path d="M 630.70 460.10 L 629.90 463.50 L 629.00 465.80 L 627.80 467.80 L 626.20 469.50 L 621.30 473.50 L 620.50 473.00 L 619.80 471.20 L 618.20 451.50 L 617.30 434.90 L 617.30 428.60 L 617.80 422.30 L 618.80 416.10 L 619.50 415.20 L 620.80 415.00 L 632.80 427.50 L 633.90 428.90 L 634.60 430.40 L 634.90 432.10 L 634.80 433.90 L 630.70 460.10 Z" fill="#a9b77c" fill-rule="nonzero" node-id="129" stroke="none" target-height="58.5" target-width="17.600037" target-x="617.3" target-y="415"/><path d="M 307.50 420.70 L 309.70 422.80 L 312.10 424.40 L 314.50 425.50 L 317.20 426.10 L 320.00 426.20 L 323.10 425.80 L 326.50 424.80 L 330.30 423.20 L 330.40 428.20 L 329.80 433.00 L 328.60 437.80 L 326.80 442.50 L 325.70 443.80 L 324.70 444.30 L 323.80 444.20 L 322.90 443.50 L 322.60 442.50 L 322.40 437.00 L 321.90 434.30 L 320.90 432.90 L 317.30 431.00 L 314.10 429.90 L 310.70 429.10 L 301.70 428.70 L 292.40 428.90 L 292.60 428.50 L 300.50 428.30 L 302.20 427.80 L 307.60 424.50 L 307.50 420.70 Z" fill="#1d0e13" fill-rule="nonzero" node-id="131" stroke="none" target-height="23.599976" target-width="38" target-x="292.4" target-y="420.7"/><path d="M 307.30 423.40 L 307.50 424.40 L 301.50 427.90 L 292.50 428.50 L 310.80 428.90 L 314.20 429.60 L 317.40 430.80 L 321.00 432.60 L 322.00 434.10 L 322.60 436.80 L 322.90 443.30 L 323.90 444.00 L 324.80 444.10 L 325.80 443.60 L 326.90 442.30 L 325.90 445.60 L 324.40 448.60 L 322.50 451.30 L 320.20 453.70 L 317.50 453.40 L 315.70 452.80 L 314.70 452.10 L 314.10 451.10 L 314.00 450.00 L 314.40 448.40 L 315.50 446.30 L 316.40 445.70 L 316.70 444.40 L 316.70 437.90 L 316.30 436.70 L 315.20 436.20 L 286.90 433.00 L 288.90 429.70 L 292.00 427.30 L 293.90 426.70 L 301.60 425.50 L 307.30 423.40 Z" fill="#0b0e1e" fill-rule="nonzero" node-id="133" stroke="none" target-height="30.300018" target-width="40" target-x="286.9" target-y="423.4"/><path d="M 539.50 438.50 L 534.30 437.50 L 529.00 437.10 L 523.70 437.20 L 517.20 438.30 L 518.40 438.70 L 520.60 438.90 L 505.00 439.40 L 503.20 439.70 L 501.80 440.50 L 500.60 441.80 L 500.00 443.40 L 499.60 446.20 L 499.70 448.70 L 500.20 450.80 L 501.10 452.70 L 502.30 454.50 L 504.00 456.10 L 506.10 457.50 L 508.70 458.80 L 513.10 460.40 L 517.70 461.40 L 522.30 461.90 L 527.00 461.80 L 529.90 460.80 L 532.70 459.50 L 535.20 457.70 L 537.40 455.60 L 537.60 456.80 L 538.60 457.60 L 533.80 461.40 L 531.20 462.60 L 528.60 463.50 L 524.90 464.10 L 521.10 464.30 L 517.10 464.00 L 511.20 463.00 L 505.40 461.30 L 502.60 459.80 L 500.20 457.90 L 497.90 455.70 L 496.00 453.20 L 494.50 450.60 L 493.30 447.70 L 493.80 448.10 L 495.10 448.20 L 495.80 447.90 L 496.70 446.80 L 497.40 441.70 L 497.90 439.70 L 499.40 437.10 L 500.40 436.50 L 508.40 434.20 L 521.60 429.80 L 527.40 428.80 L 529.60 429.30 L 537.40 434.40 L 538.40 435.60 L 539.50 438.50 Z" fill="#0b0e1e" fill-rule="nonzero" node-id="135" stroke="none" target-height="35.5" target-width="46.200012" target-x="493.3" target-y="428.8"/><path d="M 286.70 433.30 L 315.80 436.50 L 316.30 437.10 L 316.50 438.00 L 316.70 442.20 L 316.20 445.90 L 315.80 446.40 L 315.30 446.40 L 315.10 442.60 L 315.40 443.50 L 315.10 444.70 L 312.30 448.60 L 313.10 445.40 L 313.20 443.30 L 312.90 442.00 L 312.30 441.20 L 311.40 440.70 L 310.10 440.70 L 308.60 439.10 L 307.40 438.70 L 299.90 438.00 L 292.60 437.80 L 285.30 438.20 L 285.90 434.90 L 286.70 433.30 Z" fill="#4d3a6a" fill-rule="nonzero" node-id="137" stroke="none" target-height="15.300018" target-width="31.400024" target-x="285.3" target-y="433.3"/><path d="M 261.20 454.10 L 252.00 457.30 L 251.30 457.80 L 250.80 457.60 L 250.60 457.10 L 251.30 449.40 L 251.70 450.10 L 252.00 448.70 L 257.70 438.00 L 259.40 435.30 L 260.40 434.30 L 260.90 434.20 L 261.30 434.60 L 261.60 435.90 L 261.20 454.10 Z" fill="#4d1610" fill-rule="nonzero" node-id="139" stroke="none" target-height="23.599976" target-width="11" target-x="250.6" target-y="434.2"/><path d="M 710.00 481.40 L 696.60 502.50 L 696.10 503.70 L 700.40 515.70 L 701.70 517.10 L 702.70 517.20 L 703.90 516.80 L 728.60 492.60 L 729.50 494.30 L 730.80 495.60 L 722.40 501.60 L 717.50 505.70 L 715.20 508.20 L 711.00 514.40 L 707.20 521.20 L 703.00 530.80 L 701.30 535.80 L 699.90 540.90 L 698.30 551.20 L 698.10 556.30 L 698.50 561.40 L 699.30 566.40 L 699.80 567.40 L 700.80 568.40 L 708.10 572.50 L 709.90 572.00 L 710.40 571.50 L 710.70 569.90 L 712.10 571.10 L 713.90 571.10 L 717.60 581.00 L 717.80 582.50 L 717.50 583.80 L 716.80 584.90 L 715.60 585.70 L 710.30 587.00 L 704.80 586.80 L 698.70 585.00 L 697.20 585.30 L 694.90 588.20 L 693.70 590.70 L 692.80 593.30 L 692.80 594.40 L 693.50 595.50 L 695.50 596.80 L 698.00 597.70 L 687.80 594.50 L 686.90 594.00 L 686.30 592.80 L 686.20 589.00 L 686.50 584.40 L 685.90 583.20 L 684.70 582.80 L 684.20 583.10 L 683.10 586.40 L 681.30 588.60 L 678.00 585.30 L 675.80 582.50 L 674.10 579.70 L 669.20 566.80 L 666.20 561.60 L 662.30 557.30 L 659.90 555.50 L 656.10 553.10 L 651.60 550.90 L 654.50 543.30 L 658.60 534.30 L 658.90 532.60 L 658.80 530.90 L 658.30 529.20 L 657.50 527.70 L 655.40 525.20 L 655.10 523.90 L 655.20 522.50 L 655.80 521.30 L 661.00 513.80 L 668.40 504.50 L 671.40 500.00 L 673.10 498.00 L 676.00 496.00 L 679.80 494.70 L 680.70 494.00 L 681.00 493.40 L 680.90 492.70 L 680.20 491.80 L 678.40 490.60 L 674.00 487.80 L 667.70 483.30 L 666.60 482.90 L 665.90 483.10 L 665.50 483.60 L 665.40 484.80 L 665.90 489.00 L 665.70 490.60 L 665.10 491.90 L 663.70 493.70 L 661.70 495.20 L 657.00 497.30 L 652.30 498.40 L 651.00 498.20 L 649.80 497.40 L 645.10 492.30 L 640.10 487.50 L 637.70 484.70 L 635.80 481.70 L 634.00 478.10 L 631.40 476.50 L 630.80 475.80 L 630.60 474.90 L 630.70 473.70 L 633.60 466.70 L 636.50 455.60 L 638.00 444.20 L 638.20 438.40 L 639.00 438.50 L 639.50 438.10 L 639.80 436.00 L 640.20 435.70 L 640.90 436.00 L 642.10 437.90 L 642.80 438.50 L 649.60 441.40 L 653.60 443.90 L 655.40 445.90 L 659.30 451.20 L 662.30 453.90 L 664.00 454.50 L 665.20 454.60 L 669.40 453.20 L 670.50 453.10 L 676.00 453.90 L 681.90 455.70 L 684.80 457.00 L 687.30 458.60 L 688.70 459.90 L 691.40 463.70 L 692.30 464.50 L 694.00 465.30 L 700.80 467.40 L 702.20 468.20 L 704.60 470.30 L 706.50 472.60 L 708.10 475.10 L 708.60 480.90 L 709.30 481.60 L 710.00 481.40 Z" fill="#ffc156" fill-rule="nonzero" node-id="141" stroke="none" target-height="162" target-width="100.20001" target-x="630.6" target-y="435.7"/><path d="M 310.20 440.70 L 311.70 444.60 L 312.40 448.60 L 315.20 444.70 L 315.40 442.70 L 315.20 442.70 L 315.40 446.40 L 314.30 448.40 L 313.90 449.90 L 314.00 451.00 L 314.60 451.90 L 315.60 452.70 L 317.30 453.40 L 320.10 453.80 L 318.30 455.50 L 316.30 456.80 L 311.90 458.30 L 307.50 458.80 L 303.00 460.00 L 298.00 460.50 L 294.90 460.20 L 289.10 458.50 L 286.30 457.10 L 281.40 453.30 L 280.90 449.80 L 280.90 446.10 L 281.40 442.40 L 282.40 443.80 L 283.10 443.60 L 284.40 441.00 L 285.30 438.10 L 292.80 437.70 L 300.10 437.90 L 307.40 438.60 L 309.40 439.60 L 310.20 440.70 Z" fill="#278888" fill-rule="nonzero" node-id="143" stroke="none" target-height="22.799988" target-width="39.200012" target-x="280.9" target-y="437.7"/><path d="M 539.50 438.50 L 539.70 450.40 L 539.30 447.50 L 538.40 444.80 L 537.00 442.20 L 536.10 441.30 L 517.00 438.50 L 518.20 438.10 L 523.50 437.40 L 528.90 437.20 L 534.20 437.50 L 539.50 438.50 Z" fill="#4d3a6a" fill-rule="nonzero" node-id="145" stroke="none" target-height="13.199982" target-width="22.700012" target-x="517" target-y="437.2"/><path d="M 572.90 462.10 L 571.70 462.70 L 569.10 462.70 L 567.90 462.10 L 567.10 461.30 L 566.00 459.20 L 563.70 442.20 L 564.50 438.20 L 564.90 437.70 L 566.40 437.80 L 567.70 438.40 L 568.80 439.40 L 569.40 440.70 L 572.90 462.10 Z" fill="#2c0707" fill-rule="nonzero" node-id="147" stroke="none" target-height="25" target-width="9.200012" target-x="563.7" target-y="437.7"/><path d="M 520.60 439.00 L 536.30 441.30 L 537.20 442.20 L 538.60 444.80 L 539.50 447.50 L 539.90 450.40 L 539.50 452.30 L 537.70 455.60 L 535.50 457.70 L 533.00 459.50 L 530.20 460.80 L 527.30 461.80 L 524.20 462.00 L 518.00 461.50 L 513.40 460.40 L 506.30 457.50 L 504.10 456.10 L 502.50 454.50 L 501.30 452.80 L 500.50 450.90 L 500.00 448.70 L 499.90 446.20 L 500.30 443.40 L 501.00 441.70 L 502.10 440.40 L 503.00 439.80 L 505.30 439.40 L 520.60 439.00 Z M 531.30 441.50 L 529.50 440.70 L 525.70 440.00 L 522.10 440.70 L 519.30 441.90 L 514.50 442.20 L 513.80 442.40 L 513.80 442.70 L 516.60 443.20 L 518.70 443.10 L 520.70 442.70 L 524.30 441.30 L 527.20 441.20 L 529.30 442.10 L 531.30 443.40 L 532.90 445.20 L 534.40 447.40 L 537.30 446.60 L 537.80 446.10 L 534.70 443.30 L 531.30 441.50 Z" fill="#278888" fill-rule="nonzero" node-id="149" stroke="none" target-height="23" target-width="40.00003" target-x="499.9" target-y="439"/><path d="M 531.30 441.50 L 534.70 443.20 L 537.50 445.70 L 537.60 446.30 L 537.30 446.70 L 534.80 447.40 L 534.10 447.20 L 532.90 445.30 L 531.30 443.50 L 529.30 442.20 L 527.20 441.30 L 524.30 441.40 L 520.70 442.90 L 518.70 443.30 L 516.60 443.30 L 513.60 442.70 L 514.50 442.30 L 516.40 442.00 L 519.30 442.00 L 522.20 440.70 L 525.90 440.00 L 529.50 440.70 L 531.30 441.50 Z" fill="#185b84" fill-rule="nonzero" node-id="151" stroke="none" target-height="7.399994" target-width="24" target-x="513.6" target-y="440"/><path d="M 310.20 440.70 L 311.70 440.80 L 312.60 441.40 L 313.20 442.40 L 313.10 445.70 L 312.40 448.60 L 312.00 445.80 L 310.20 440.70 Z" fill="#185b84" fill-rule="nonzero" node-id="153" stroke="none" target-height="7.899994" target-width="3" target-x="310.2" target-y="440.7"/><path d="M 563.70 442.50 L 564.40 450.50 L 565.90 458.40 L 566.60 460.60 L 567.90 462.40 L 569.10 463.00 L 571.70 463.00 L 572.90 462.40 L 574.50 466.10 L 576.80 473.60 L 578.00 481.40 L 578.00 488.00 L 577.50 490.50 L 576.60 492.90 L 575.10 495.10 L 568.10 502.10 L 564.20 505.20 L 557.80 509.40 L 555.30 510.40 L 549.90 511.60 L 544.30 511.70 L 539.90 511.10 L 531.10 508.90 L 527.00 507.20 L 524.40 505.80 L 522.00 504.10 L 513.80 496.10 L 512.90 495.40 L 510.90 494.70 L 510.20 494.10 L 506.60 486.20 L 505.70 482.80 L 503.70 469.60 L 503.90 466.90 L 504.70 464.30 L 506.10 461.90 L 511.80 463.50 L 517.60 464.60 L 521.60 464.80 L 525.40 464.60 L 529.10 463.90 L 531.80 463.10 L 536.90 460.20 L 540.90 456.80 L 543.20 453.20 L 543.80 451.00 L 547.50 449.50 L 551.70 446.80 L 556.30 446.50 L 559.00 445.90 L 561.00 445.10 L 562.60 443.90 L 563.70 442.50 Z M 567.70 464.30 L 566.60 463.40 L 565.20 463.10 L 563.80 463.30 L 562.50 464.10 L 559.00 469.10 L 556.20 472.30 L 552.80 475.30 L 551.80 475.80 L 550.00 475.50 L 549.10 474.80 L 546.40 468.30 L 545.50 467.40 L 543.10 466.20 L 541.80 466.10 L 539.90 466.60 L 530.40 472.70 L 527.50 475.80 L 526.50 477.60 L 525.70 480.80 L 525.30 484.00 L 525.50 486.20 L 526.50 490.40 L 528.80 494.10 L 530.50 495.70 L 533.90 498.10 L 537.30 499.70 L 540.50 500.80 L 543.70 501.20 L 546.90 501.10 L 550.10 500.50 L 553.40 499.30 L 556.90 497.40 L 560.50 494.70 L 564.60 490.30 L 566.70 487.30 L 568.50 483.90 L 570.10 480.30 L 571.10 476.60 L 571.50 474.20 L 571.20 469.70 L 570.50 467.70 L 569.30 465.90 L 567.70 464.30 Z" fill="#ffa246" fill-rule="nonzero" node-id="155" stroke="none" target-height="69.20001" target-width="74.29999" target-x="503.7" target-y="442.5"/><path d="M 602.20 446.20 L 602.80 450.10 L 603.00 454.10 L 602.60 458.00 L 600.30 467.10 L 599.30 476.20 L 598.30 448.40 L 598.80 448.90 L 598.80 450.30 L 599.30 450.80 L 600.30 451.10 L 600.70 451.80 L 600.70 459.00 L 601.10 459.20 L 602.20 446.20 Z" fill="#89a479" fill-rule="nonzero" node-id="157" stroke="none" target-height="30" target-width="4.700012" target-x="598.3" target-y="446.2"/><path d="M 281.20 453.40 L 283.60 455.40 L 288.90 458.40 L 294.70 460.00 L 297.80 460.30 L 297.80 461.10 L 298.30 462.00 L 301.80 463.40 L 302.70 464.10 L 303.00 465.10 L 302.80 469.00 L 299.00 479.90 L 297.20 483.50 L 294.90 486.90 L 292.20 489.90 L 289.00 492.50 L 285.40 494.60 L 273.70 498.80 L 270.30 499.60 L 264.20 499.70 L 260.60 499.00 L 257.10 497.70 L 253.80 495.90 L 250.90 493.70 L 247.80 490.10 L 245.40 481.70 L 245.40 476.20 L 248.10 462.20 L 248.50 458.10 L 249.10 458.80 L 250.10 459.00 L 251.10 458.10 L 251.80 456.80 L 261.00 453.60 L 263.60 453.20 L 264.80 452.60 L 267.00 450.50 L 271.20 450.20 L 274.70 450.60 L 279.20 452.20 L 281.20 453.40 Z M 286.90 467.30 L 285.30 465.40 L 283.50 464.00 L 281.20 462.90 L 278.80 462.30 L 276.10 462.10 L 273.30 462.40 L 270.50 463.00 L 267.70 464.10 L 264.80 465.60 L 262.20 467.50 L 260.10 469.60 L 258.30 471.90 L 257.00 474.40 L 256.10 476.80 L 255.70 479.30 L 255.80 481.80 L 256.30 484.20 L 257.40 486.40 L 259.00 488.30 L 260.80 489.80 L 263.10 490.80 L 265.50 491.40 L 268.10 491.60 L 271.00 491.40 L 273.80 490.70 L 276.60 489.60 L 279.50 488.10 L 282.10 486.20 L 284.20 484.10 L 286.00 481.80 L 287.30 479.30 L 288.20 476.90 L 288.60 474.40 L 288.50 471.90 L 288.00 469.50 L 286.90 467.30 Z" fill="#ff8f53" fill-rule="nonzero" node-id="159" stroke="none" target-height="49.5" target-width="57.600006" target-x="245.4" target-y="450.2"/><path d="M 302.80 460.10 L 305.00 464.80 L 305.20 465.90 L 303.00 474.90 L 301.30 479.30 L 297.70 485.80 L 294.80 489.60 L 292.90 491.20 L 289.40 493.20 L 285.70 494.90 L 289.30 492.80 L 292.40 490.20 L 295.20 487.20 L 297.50 483.80 L 299.30 480.20 L 303.20 469.30 L 303.30 465.40 L 302.60 463.90 L 299.40 462.90 L 298.30 462.10 L 298.10 460.60 L 302.80 460.10 Z" fill="#ffa246" fill-rule="nonzero" node-id="161" stroke="none" target-height="34.799988" target-width="19.5" target-x="285.7" target-y="460.1"/><g node-id="264"><path d="M 287.20 467.30 L 288.30 469.50 L 288.80 471.90 L 288.90 474.30 L 288.40 476.80 L 287.50 479.30 L 286.10 481.80 L 284.40 484.10 L 282.20 486.20 L 279.60 488.10 L 276.80 489.70 L 274.00 490.70 L 271.20 491.40 L 268.30 491.60 L 265.70 491.30 L 263.20 490.70 L 261.00 489.60 L 259.10 488.20 L 257.60 486.30 L 256.50 484.10 L 256.00 481.80 L 256.00 479.30 L 256.40 476.80 L 257.30 474.40 L 258.70 471.90 L 260.40 469.60 L 262.60 467.50 L 265.20 465.50 L 268.00 464.00 L 270.90 462.90 L 273.70 462.30 L 276.50 462.10 L 279.10 462.30 L 281.60 462.90 L 283.80 464.00 L 285.70 465.50 L 287.20 467.30 Z" fill="#fda567" fill-rule="nonzero" group-id="1" node-id="165" stroke="none" target-height="29.5" target-width="32.899994" target-x="256" target-y="462.1"/></g><path d="M 567.70 464.30 L 569.30 465.90 L 570.50 467.80 L 571.20 469.80 L 571.40 474.30 L 571.00 476.70 L 570.00 480.40 L 566.50 487.40 L 564.50 490.30 L 560.50 494.80 L 557.30 497.20 L 554.30 499.00 L 551.30 500.30 L 548.40 501.00 L 545.50 501.30 L 542.60 501.20 L 539.70 500.60 L 536.70 499.60 L 533.60 498.00 L 530.50 495.80 L 528.80 494.20 L 526.50 490.60 L 525.40 486.50 L 525.20 484.30 L 525.60 481.00 L 526.50 477.70 L 528.90 474.00 L 530.40 472.60 L 539.40 467.00 L 540.70 466.40 L 543.40 466.40 L 545.70 467.60 L 546.60 468.70 L 548.60 474.20 L 549.10 475.00 L 551.00 475.80 L 552.10 475.70 L 555.30 473.10 L 557.50 470.80 L 562.30 464.20 L 563.50 463.50 L 564.90 463.20 L 566.80 463.50 L 567.70 464.30 Z" fill="#ffb15c" fill-rule="nonzero" node-id="168" stroke="none" target-height="38.099976" target-width="46.200012" target-x="525.2" target-y="463.2"/><path d="M 788.30 473.70 L 790.20 475.60 L 791.70 477.80 L 792.90 480.20 L 793.60 482.70 L 793.90 485.30 L 793.80 488.10 L 794.30 489.50 L 806.80 495.80 L 812.70 499.40 L 818.30 503.40 L 821.90 506.30 L 828.10 512.70 L 830.80 516.20 L 833.00 520.00 L 834.90 524.00 L 842.30 542.60 L 844.10 548.20 L 845.60 553.90 L 846.60 559.70 L 847.20 565.60 L 847.50 571.40 L 847.30 577.30 L 846.80 583.20 L 847.00 578.60 L 846.70 574.10 L 846.00 569.60 L 844.80 565.10 L 844.30 564.10 L 843.30 563.10 L 841.40 562.20 L 838.40 561.70 L 837.10 560.70 L 836.40 560.50 L 835.70 560.70 L 835.40 561.20 L 834.40 568.80 L 832.80 576.30 L 829.70 586.00 L 826.80 592.30 L 825.50 593.60 L 824.00 594.70 L 822.20 595.40 L 810.20 598.90 L 802.20 599.60 L 783.30 599.00 L 767.00 599.90 L 748.20 600.20 L 709.00 598.60 L 749.90 598.10 L 757.30 596.90 L 778.40 596.80 L 795.20 597.40 L 805.80 597.30 L 811.10 596.90 L 813.80 596.20 L 816.30 595.00 L 818.50 593.20 L 820.30 591.00 L 820.70 590.10 L 820.60 584.60 L 821.00 580.10 L 823.30 569.90 L 824.80 558.20 L 824.90 546.40 L 824.50 540.40 L 824.80 539.40 L 825.70 538.70 L 827.20 538.60 L 829.40 539.60 L 830.30 539.00 L 834.40 530.00 L 834.20 527.80 L 831.10 522.10 L 825.30 514.20 L 819.90 509.20 L 812.80 504.20 L 805.40 499.80 L 797.60 495.80 L 794.40 494.80 L 790.90 494.60 L 789.90 494.30 L 789.20 493.40 L 788.00 489.90 L 787.30 488.90 L 786.30 488.20 L 781.00 487.10 L 775.60 487.50 L 775.30 484.80 L 774.60 482.20 L 773.40 479.80 L 771.90 477.60 L 775.10 477.40 L 776.10 477.00 L 777.30 474.10 L 778.20 472.80 L 779.30 472.00 L 780.70 471.60 L 783.80 471.60 L 786.10 472.40 L 788.30 473.70 Z" fill="#ffbca9" fill-rule="nonzero" node-id="170" stroke="none" target-height="128.6" target-width="138.5" target-x="709" target-y="471.6"/><path d="M 631.70 471.70 L 630.90 473.50 L 630.80 474.70 L 631.00 475.60 L 631.60 476.20 L 634.10 477.70 L 635.60 480.60 L 638.60 485.10 L 650.00 497.00 L 651.10 497.80 L 652.50 498.00 L 657.20 497.00 L 661.90 495.00 L 663.90 493.40 L 665.30 491.60 L 665.90 490.20 L 666.10 488.70 L 665.50 484.40 L 665.70 483.20 L 666.10 482.70 L 666.80 482.50 L 667.90 482.90 L 674.10 487.40 L 680.30 491.30 L 681.10 492.20 L 681.20 492.80 L 680.90 493.50 L 680.00 494.20 L 676.20 495.60 L 673.30 497.60 L 668.70 504.10 L 659.40 515.80 L 656.00 520.90 L 655.50 522.10 L 655.80 524.80 L 658.50 528.80 L 659.10 532.20 L 658.80 533.90 L 654.60 542.90 L 651.80 550.50 L 643.40 546.50 L 641.50 544.90 L 640.80 543.80 L 639.00 535.20 L 637.00 528.00 L 634.50 521.00 L 625.00 499.30 L 619.10 482.90 L 619.30 480.70 L 620.10 479.30 L 631.70 471.70 Z" fill="#feaf3a" fill-rule="nonzero" node-id="172" stroke="none" target-height="78.79999" target-width="62.100037" target-x="619.1" target-y="471.7"/><path d="M 728.50 492.80 L 704.20 516.60 L 703.40 517.10 L 701.50 517.00 L 700.20 515.70 L 696.20 505.00 L 696.10 503.80 L 696.40 502.50 L 709.80 481.40 L 712.30 480.40 L 714.70 480.00 L 717.20 480.20 L 719.90 481.00 L 722.70 482.50 L 725.70 484.90 L 727.20 486.50 L 728.20 488.40 L 728.60 490.60 L 728.50 492.80 Z M 703.30 509.40 L 703.80 508.80 L 704.00 507.90 L 703.30 505.40 L 702.40 504.20 L 700.60 503.10 L 699.80 503.20 L 699.30 503.80 L 699.00 504.70 L 699.80 507.20 L 701.50 509.10 L 702.50 509.50 L 703.30 509.40 Z" fill="#f6f7f9" fill-rule="nonzero" node-id="174" stroke="none" target-height="37.099976" target-width="32.5" target-x="696.1" target-y="480"/><path d="M 450.20 482.90 L 452.50 481.60 L 454.80 481.60 L 455.10 482.40 L 454.90 484.10 L 454.30 485.20 L 453.30 486.00 L 444.10 487.90 L 436.00 488.90 L 427.80 489.40 L 420.10 489.50 L 412.40 489.10 L 397.70 487.90 L 390.70 487.80 L 383.70 488.20 L 376.70 489.10 L 369.80 490.40 L 360.10 492.80 L 357.30 493.10 L 351.70 492.60 L 346.70 491.30 L 337.60 487.90 L 336.30 487.00 L 335.60 485.70 L 335.40 484.20 L 335.70 483.90 L 336.80 483.80 L 339.70 484.90 L 347.40 488.80 L 350.10 489.80 L 352.90 490.40 L 355.90 490.60 L 378.50 486.70 L 389.40 485.60 L 400.50 485.70 L 414.40 486.90 L 436.40 487.90 L 437.70 487.70 L 442.80 484.90 L 447.30 484.20 L 449.30 483.60 L 450.20 482.90 Z" fill="#819765" fill-rule="nonzero" node-id="176" stroke="none" target-height="11.5" target-width="119.70001" target-x="335.4" target-y="481.6"/><path d="M 764.00 497.50 L 763.90 495.80 L 764.50 495.20 L 767.40 495.50 L 769.60 496.20 L 773.40 498.30 L 776.60 501.50 L 776.60 502.70 L 775.50 503.90 L 774.40 503.80 L 772.00 501.60 L 769.50 499.90 L 764.00 497.50 Z" fill="#fbb2b1" fill-rule="nonzero" node-id="178" stroke="none" target-height="8.699982" target-width="12.699951" target-x="763.9" target-y="495.2"/><path d="M 751.80 498.00 L 752.90 498.20 L 753.30 498.50 L 753.40 499.10 L 753.00 500.20 L 750.30 504.20 L 748.40 505.00 L 744.90 504.90 L 739.30 506.30 L 738.30 506.00 L 737.50 505.40 L 736.90 504.40 L 736.90 503.30 L 737.60 502.40 L 744.50 499.50 L 751.80 498.00 Z" fill="#f0d1cd" fill-rule="nonzero" node-id="180" stroke="none" target-height="8.299988" target-width="16.5" target-x="736.9" target-y="498"/><g node-id="265"><path d="M 703.10 505.30 L 703.80 507.70 L 703.60 508.70 L 703.00 509.30 L 702.20 509.40 L 701.30 509.10 L 699.60 507.20 L 698.90 504.70 L 699.20 503.70 L 699.70 503.10 L 700.50 503.00 L 701.40 503.40 L 703.10 505.30 Z" fill="#f4c5a9" fill-rule="nonzero" group-id="2" node-id="184" stroke="none" target-height="6.399994" target-width="4.8999634" target-x="698.9" target-y="503"/></g><path d="M 633.90 546.60 L 633.80 551.60 L 632.40 552.80 L 631.40 553.00 L 630.50 552.60 L 630.80 548.00 L 630.20 547.10 L 629.20 547.00 L 622.60 551.90 L 620.30 553.10 L 606.40 558.10 L 603.00 557.90 L 600.40 557.00 L 597.20 555.30 L 595.90 551.80 L 595.10 548.30 L 594.80 544.80 L 595.10 541.20 L 596.00 537.80 L 597.90 533.70 L 601.60 532.50 L 601.90 532.00 L 601.20 530.50 L 599.80 529.40 L 599.60 528.40 L 599.80 527.50 L 600.90 526.20 L 604.00 524.10 L 606.30 522.20 L 609.80 520.80 L 612.90 520.00 L 615.70 519.90 L 618.40 520.30 L 620.80 521.20 L 623.10 522.60 L 627.80 527.50 L 629.70 530.60 L 630.70 532.80 L 631.40 535.10 L 632.50 542.00 L 633.90 546.60 Z" fill="#ffa490" fill-rule="nonzero" node-id="187" stroke="none" target-height="38.19995" target-width="39.100037" target-x="594.8" target-y="519.9"/><path d="M 539.50 606.00 L 540.40 612.20 L 540.80 618.40 L 540.70 624.60 L 538.30 639.90 L 536.60 647.40 L 532.00 662.10 L 526.10 676.20 L 522.60 683.10 L 441.80 688.60 L 410.60 690.40 L 386.20 691.20 L 309.50 691.30 L 298.90 691.10 L 266.10 689.30 L 261.00 677.30 L 259.10 671.20 L 256.20 658.60 L 254.80 645.90 L 254.70 639.50 L 254.90 630.90 L 255.60 622.30 L 256.70 613.90 L 258.40 605.50 L 260.50 597.20 L 263.10 589.10 L 266.20 581.10 L 269.80 573.30 L 272.40 568.30 L 278.00 559.70 L 281.20 555.90 L 284.70 552.40 L 288.50 549.40 L 295.00 545.80 L 298.80 544.30 L 303.00 543.10 L 314.40 540.70 L 325.90 538.90 L 337.40 537.60 L 361.30 535.90 L 385.50 534.70 L 417.80 534.40 L 434.00 534.80 L 450.20 535.60 L 466.20 537.00 L 493.20 540.40 L 502.50 542.60 L 506.70 544.20 L 510.70 546.30 L 515.70 550.20 L 518.30 552.70 L 522.30 557.70 L 525.80 562.90 L 528.80 568.40 L 531.40 574.10 L 533.60 580.10 L 535.50 586.40 L 537.80 595.90 L 539.50 606.00 Z" fill="#fef2e1" fill-rule="nonzero" node-id="189" stroke="none" target-height="156.89996" target-width="286.09998" target-x="254.7" target-y="534.4"/><path d="M 767.20 558.90 L 760.00 560.80 L 756.10 561.20 L 752.20 561.20 L 749.60 560.80 L 745.10 559.40 L 744.00 558.60 L 743.30 557.60 L 743.10 556.30 L 743.40 554.90 L 743.90 554.20 L 755.10 541.60 L 756.60 540.40 L 758.40 539.70 L 760.20 539.60 L 762.00 540.10 L 767.30 543.00 L 772.30 546.40 L 778.40 551.70 L 781.10 554.70 L 781.50 555.50 L 781.40 557.10 L 780.90 557.90 L 776.80 559.50 L 774.90 559.80 L 772.10 559.60 L 769.20 558.80 L 767.20 558.90 Z" fill="#ffbca9" fill-rule="nonzero" node-id="191" stroke="none" target-height="21.600037" target-width="38.400024" target-x="743.1" target-y="539.6"/><path d="M 633.90 546.60 L 634.50 548.20 L 634.70 549.80 L 634.30 551.40 L 631.70 555.50 L 626.90 555.10 L 623.00 555.30 L 619.90 555.90 L 617.40 557.10 L 615.50 558.60 L 614.00 560.50 L 612.80 562.90 L 612.20 565.90 L 612.00 569.60 L 612.40 574.30 L 613.30 578.10 L 614.50 581.10 L 616.10 583.70 L 617.90 585.70 L 620.00 587.30 L 622.50 588.50 L 625.40 589.30 L 628.80 589.70 L 631.00 589.00 L 633.60 586.40 L 635.80 583.50 L 637.60 580.40 L 638.90 577.10 L 639.60 582.70 L 639.70 587.90 L 639.30 592.60 L 638.40 597.00 L 637.00 601.10 L 635.20 604.90 L 632.90 608.50 L 630.00 611.80 L 627.90 613.60 L 616.10 621.50 L 615.00 622.00 L 613.60 622.20 L 605.70 620.70 L 608.60 618.30 L 610.60 616.00 L 612.00 613.80 L 612.90 611.60 L 613.20 609.50 L 613.10 607.30 L 612.50 605.30 L 610.40 602.20 L 607.40 600.20 L 602.80 598.90 L 599.90 598.70 L 597.00 599.00 L 594.30 599.60 L 592.90 600.60 L 591.00 604.20 L 589.90 607.40 L 589.30 610.70 L 589.20 614.00 L 589.60 617.40 L 590.60 620.70 L 589.50 622.20 L 589.10 623.50 L 589.30 624.60 L 590.20 625.80 L 592.00 627.10 L 598.00 629.20 L 603.90 629.80 L 607.00 629.60 L 611.00 628.80 L 614.90 627.50 L 618.80 625.80 L 622.60 623.70 L 629.50 618.70 L 632.60 615.80 L 635.30 612.40 L 637.80 608.60 L 640.00 604.60 L 643.30 596.10 L 645.20 587.30 L 645.90 580.90 L 646.40 580.10 L 647.00 579.90 L 647.90 580.30 L 649.30 581.80 L 655.30 588.90 L 661.80 595.50 L 668.50 601.80 L 675.70 607.60 L 683.30 613.00 L 680.20 620.20 L 676.70 627.20 L 672.80 633.90 L 668.40 640.40 L 663.70 646.50 L 658.50 652.40 L 656.80 652.70 L 654.80 653.70 L 651.90 659.30 L 643.90 670.00 L 639.50 676.60 L 631.70 690.40 L 625.10 704.70 L 623.20 703.50 L 619.10 702.30 L 614.80 702.50 L 610.50 703.70 L 604.30 703.50 L 603.20 703.30 L 602.60 702.90 L 602.60 701.00 L 605.50 692.70 L 607.80 684.30 L 609.70 675.70 L 611.10 666.50 L 610.80 666.00 L 609.70 665.80 L 599.80 695.30 L 597.80 699.80 L 596.80 701.40 L 594.00 703.90 L 592.30 704.80 L 581.70 708.70 L 571.10 712.20 L 560.30 715.30 L 549.50 718.00 L 527.50 722.30 L 505.10 725.10 L 504.40 724.60 L 504.40 724.10 L 510.50 713.80 L 516.10 703.40 L 521.30 692.90 L 521.30 690.80 L 520.80 690.50 L 519.40 690.50 L 529.50 669.20 L 534.80 654.70 L 538.60 639.70 L 541.00 624.60 L 540.90 615.30 L 539.80 606.00 L 540.40 603.30 L 541.80 602.60 L 548.80 602.50 L 555.70 601.90 L 580.20 596.30 L 588.70 594.00 L 591.20 593.00 L 593.40 591.50 L 595.20 589.60 L 596.90 586.40 L 596.70 584.60 L 593.80 580.80 L 592.00 577.50 L 591.10 575.10 L 590.30 570.30 L 590.40 567.90 L 591.00 565.50 L 591.90 563.00 L 592.90 560.80 L 595.70 556.80 L 597.40 555.10 L 600.80 556.90 L 603.60 557.80 L 606.00 558.00 L 608.10 557.60 L 620.50 552.90 L 622.80 551.80 L 629.40 546.80 L 630.90 547.20 L 631.10 547.70 L 630.60 551.70 L 630.80 552.40 L 631.30 552.70 L 632.50 552.50 L 633.50 551.80 L 634.00 550.80 L 633.90 546.60 Z" fill="#89a479" fill-rule="nonzero" node-id="193" stroke="none" target-height="178.5" target-width="178.9" target-x="504.4" target-y="546.6"/><path d="M 713.90 571.10 L 712.10 571.00 L 710.70 569.90 L 709.90 565.20 L 710.40 560.70 L 712.10 556.50 L 713.40 554.60 L 716.90 551.30 L 718.80 550.40 L 721.30 551.00 L 723.10 552.80 L 723.70 557.00 L 723.60 559.50 L 722.10 564.20 L 719.60 569.10 L 718.90 569.90 L 717.60 570.60 L 713.90 571.10 Z" fill="#4d1610" fill-rule="nonzero" node-id="195" stroke="none" target-height="20.699951" target-width="13.799988" target-x="709.9" target-y="550.4"/><g node-id="266"><path d="M 812.20 562.00 L 812.40 565.60 L 811.60 568.80 L 809.80 571.20 L 807.40 572.50 L 804.70 572.40 L 802.10 570.90 L 800.00 568.30 L 798.70 565.00 L 798.40 561.40 L 799.30 558.20 L 801.00 555.80 L 803.50 554.50 L 806.20 554.60 L 808.80 556.10 L 810.90 558.70 L 812.20 562.00 Z" fill="#4d1610" fill-rule="nonzero" group-id="3" node-id="199" stroke="none" target-height="18" target-width="14" target-x="798.4" target-y="554.5"/></g><path d="M 213.30 554.70 L 214.30 554.20 L 215.30 554.30 L 215.70 554.70 L 216.50 557.70 L 217.70 558.90 L 222.70 559.90 L 227.90 559.90 L 240.50 558.50 L 246.90 558.30 L 256.30 558.60 L 265.80 559.40 L 268.20 560.50 L 269.60 562.50 L 270.00 565.10 L 269.50 569.20 L 269.80 573.00 L 266.20 580.80 L 263.10 588.80 L 260.50 596.90 L 258.30 605.20 L 256.70 613.50 L 255.50 622.00 L 254.80 630.50 L 254.80 645.70 L 256.20 658.50 L 259.10 671.00 L 263.40 683.10 L 269.60 697.20 L 267.50 697.50 L 266.20 698.20 L 265.40 699.20 L 265.50 701.00 L 266.40 702.70 L 274.60 713.60 L 275.20 714.60 L 275.20 716.80 L 274.20 718.40 L 270.70 718.70 L 268.60 719.70 L 264.60 719.80 L 262.00 719.20 L 259.50 718.00 L 256.30 715.80 L 254.10 715.20 L 252.20 713.90 L 249.20 708.20 L 246.60 704.70 L 245.80 704.50 L 245.30 704.70 L 244.90 705.60 L 244.60 707.90 L 242.90 701.20 L 241.70 694.50 L 241.00 687.70 L 240.80 680.90 L 241.10 674.20 L 242.00 667.50 L 243.30 660.80 L 245.20 654.30 L 248.90 644.30 L 250.60 637.00 L 251.10 631.40 L 251.10 624.70 L 248.70 622.30 L 247.50 620.50 L 246.70 618.60 L 246.30 616.50 L 246.30 614.40 L 246.80 612.20 L 248.20 611.20 L 248.90 610.20 L 249.20 609.20 L 249.00 608.10 L 248.30 606.70 L 246.80 605.00 L 244.90 603.70 L 240.70 601.90 L 238.80 600.60 L 229.50 593.30 L 221.00 585.00 L 219.00 582.00 L 217.30 578.80 L 216.30 576.00 L 215.70 572.60 L 215.00 557.80 L 214.40 557.20 L 213.60 557.40 L 212.40 558.20 L 213.30 554.70 Z" fill="#89a479" fill-rule="nonzero" node-id="202" stroke="none" target-height="165.59998" target-width="62.80002" target-x="212.4" target-y="554.2"/><path d="M 631.70 555.50 L 634.90 559.60 L 637.10 563.40 L 638.60 566.80 L 639.30 569.50 L 639.60 572.10 L 639.40 574.50 L 638.90 576.80 L 637.50 580.20 L 635.80 583.30 L 633.60 586.10 L 631.00 588.70 L 630.10 589.20 L 628.80 589.40 L 625.30 589.10 L 622.30 588.20 L 619.80 587.00 L 617.60 585.30 L 615.90 583.30 L 614.40 580.80 L 613.20 577.70 L 612.40 574.00 L 611.90 569.50 L 612.10 565.80 L 612.80 562.90 L 613.90 560.50 L 615.40 558.60 L 617.30 557.20 L 619.80 556.10 L 622.90 555.40 L 626.80 555.10 L 631.70 555.50 Z" fill="#ffa490" fill-rule="nonzero" node-id="204" stroke="none" target-height="34.30005" target-width="27.699951" target-x="611.9" target-y="555.1"/><path d="M 247.30 612.70 L 239.30 606.70 L 231.60 600.10 L 222.00 590.70 L 217.60 585.70 L 215.60 583.00 L 214.20 580.20 L 213.20 577.40 L 212.40 573.00 L 212.20 568.50 L 212.60 559.20 L 213.70 558.40 L 214.60 558.20 L 215.10 558.70 L 215.80 573.60 L 216.50 577.00 L 217.50 579.80 L 219.20 583.00 L 221.20 586.00 L 226.90 591.70 L 232.80 596.90 L 239.00 601.60 L 240.90 602.80 L 245.10 604.70 L 248.70 607.40 L 249.60 608.60 L 249.90 609.70 L 249.70 610.70 L 248.90 611.70 L 247.30 612.70 Z" fill="#706e6d" fill-rule="nonzero" node-id="206" stroke="none" target-height="54.5" target-width="37.699997" target-x="212.2" target-y="558.2"/><path d="M 846.50 583.00 L 843.50 604.10 L 843.50 602.30 L 843.00 600.60 L 842.60 600.10 L 841.90 600.20 L 839.00 607.90 L 837.20 611.20 L 835.30 614.40 L 831.20 619.20 L 823.10 626.40 L 816.70 631.30 L 800.60 642.20 L 800.80 642.90 L 801.50 643.10 L 809.40 639.00 L 816.90 634.40 L 824.10 629.30 L 832.70 622.50 L 833.80 622.00 L 834.50 622.10 L 835.00 622.60 L 835.40 623.80 L 835.60 632.90 L 836.00 636.30 L 837.20 642.40 L 837.60 648.30 L 839.50 657.50 L 840.50 663.90 L 841.10 670.50 L 841.30 677.00 L 841.00 685.70 L 840.10 694.40 L 838.60 703.00 L 837.90 705.40 L 836.70 707.50 L 835.10 709.40 L 831.00 712.70 L 824.80 715.80 L 823.40 716.80 L 822.90 717.60 L 823.90 717.80 L 826.90 717.60 L 833.10 716.50 L 836.50 716.30 L 840.00 716.40 L 844.00 717.50 L 845.90 717.40 L 838.10 717.60 L 830.40 718.30 L 820.20 720.40 L 813.70 722.40 L 809.00 725.90 L 808.00 727.50 L 806.70 728.10 L 806.00 728.00 L 810.60 716.10 L 811.70 715.00 L 821.10 694.40 L 820.90 693.70 L 819.90 693.50 L 810.80 709.70 L 803.70 720.10 L 799.40 724.10 L 787.70 731.90 L 786.50 732.40 L 785.30 732.30 L 784.10 731.80 L 783.20 730.90 L 782.70 729.70 L 781.20 720.60 L 778.40 708.30 L 778.10 704.90 L 778.40 690.30 L 777.80 689.40 L 777.30 689.30 L 774.20 689.90 L 773.30 689.80 L 772.20 688.90 L 771.50 687.70 L 771.30 686.40 L 772.60 679.80 L 772.10 679.10 L 771.40 678.90 L 770.50 679.30 L 770.40 683.20 L 769.40 686.30 L 769.40 688.50 L 773.80 694.10 L 775.10 697.90 L 776.40 710.00 L 778.10 718.70 L 778.60 723.20 L 779.40 733.60 L 780.50 739.50 L 777.90 738.20 L 775.00 737.50 L 771.60 737.70 L 766.20 739.30 L 759.10 740.90 L 752.60 743.70 L 746.00 746.10 L 737.30 747.40 L 732.90 747.60 L 731.40 744.10 L 730.40 730.00 L 730.70 724.90 L 732.50 714.60 L 732.80 709.40 L 732.60 708.30 L 730.90 711.00 L 728.80 718.60 L 725.80 726.30 L 724.60 727.10 L 723.70 727.10 L 715.50 725.80 L 707.30 724.10 L 702.20 722.70 L 697.20 720.80 L 688.40 716.10 L 677.00 708.50 L 675.60 707.70 L 674.90 707.70 L 674.70 708.20 L 675.00 712.40 L 674.70 714.00 L 673.20 715.80 L 672.70 717.00 L 672.60 718.20 L 676.60 725.40 L 677.80 728.80 L 677.90 729.90 L 677.60 731.00 L 675.40 734.70 L 670.40 736.70 L 671.30 735.70 L 673.40 734.20 L 673.60 731.90 L 673.40 730.80 L 672.80 729.90 L 671.10 728.50 L 671.20 724.40 L 669.40 716.70 L 667.10 709.20 L 664.30 701.80 L 661.00 694.70 L 660.00 692.90 L 658.70 691.40 L 657.00 690.30 L 651.60 688.10 L 648.70 686.00 L 645.90 683.30 L 641.00 677.30 L 649.20 662.40 L 651.50 659.60 L 653.40 656.50 L 655.40 652.40 L 656.60 651.70 L 659.10 651.20 L 662.30 654.00 L 666.00 656.20 L 667.40 656.30 L 668.50 655.50 L 671.30 645.00 L 674.00 638.60 L 685.40 621.50 L 689.80 614.20 L 690.60 613.30 L 693.70 611.70 L 694.00 611.20 L 694.20 610.00 L 693.40 607.30 L 692.10 604.90 L 690.30 602.80 L 688.30 601.10 L 688.10 598.60 L 686.90 593.90 L 684.40 589.60 L 682.80 587.70 L 684.60 585.50 L 685.50 582.00 L 685.90 581.70 L 687.50 582.30 L 688.10 583.60 L 687.60 588.10 L 687.80 591.90 L 688.60 593.30 L 699.50 596.60 L 710.40 598.10 L 752.80 599.70 L 765.30 599.50 L 784.80 598.50 L 803.60 599.10 L 807.70 599.00 L 811.60 598.40 L 825.40 594.30 L 826.90 593.30 L 828.20 591.90 L 831.90 583.00 L 834.20 575.70 L 835.80 568.30 L 836.80 560.70 L 837.40 559.90 L 838.50 560.20 L 839.80 561.20 L 842.80 561.70 L 844.70 562.60 L 845.60 563.40 L 846.20 564.60 L 846.70 573.90 L 846.50 583.00 Z M 795.70 664.30 L 795.20 661.80 L 794.80 661.10 L 794.10 664.00 L 794.40 667.50 L 795.80 670.30 L 797.00 671.50 L 800.60 673.80 L 804.50 675.70 L 808.60 677.20 L 811.40 677.60 L 813.90 677.50 L 816.10 676.70 L 820.20 674.00 L 822.00 672.00 L 824.30 668.60 L 826.20 665.00 L 827.70 661.20 L 828.70 657.90 L 829.20 653.80 L 822.80 666.40 L 820.80 669.40 L 817.60 672.90 L 815.90 674.10 L 814.00 674.90 L 811.90 675.20 L 809.60 675.00 L 806.40 674.20 L 803.30 673.00 L 800.60 671.40 L 798.30 669.40 L 797.10 667.90 L 795.70 664.30 Z" fill="#fe6048" fill-rule="nonzero" node-id="208" stroke="none" target-height="187.69995" target-width="205.70001" target-x="641" target-y="559.9"/><path d="M 798.20 579.50 L 797.50 582.90 L 796.20 586.10 L 794.50 588.90 L 792.70 589.90 L 790.40 589.50 L 786.40 587.40 L 785.30 587.20 L 731.30 586.70 L 729.70 586.10 L 729.10 584.50 L 729.70 572.40 L 730.80 570.60 L 733.50 568.80 L 735.80 567.90 L 738.10 567.30 L 740.40 567.20 L 750.10 568.10 L 751.30 567.90 L 754.10 566.40 L 756.20 566.10 L 758.30 566.20 L 761.30 567.20 L 767.50 566.50 L 772.60 566.40 L 777.60 566.70 L 782.70 567.60 L 784.10 568.20 L 785.20 569.10 L 785.90 570.40 L 786.70 579.20 L 787.30 580.40 L 788.70 580.90 L 790.20 580.20 L 794.90 574.00 L 796.40 573.10 L 798.10 573.50 L 799.20 575.00 L 799.20 576.00 L 798.20 579.50 Z" fill="#ffa490" fill-rule="nonzero" node-id="210" stroke="none" target-height="23.800049" target-width="70.10004" target-x="729.1" target-y="566.1"/><path d="M 605.60 620.40 L 601.80 622.40 L 597.90 623.90 L 596.10 624.20 L 594.70 624.10 L 593.50 623.60 L 591.90 622.30 L 590.20 620.40 L 589.20 617.10 L 588.80 613.80 L 588.90 610.30 L 589.50 607.00 L 590.60 603.80 L 593.00 599.90 L 593.90 599.30 L 596.70 598.70 L 599.70 598.40 L 602.60 598.60 L 607.20 599.90 L 610.10 601.90 L 611.30 603.30 L 612.70 607.00 L 613.00 609.30 L 612.70 611.60 L 611.80 613.90 L 610.50 616.00 L 608.40 618.10 L 605.60 620.40 Z" fill="#f4c5a9" fill-rule="nonzero" node-id="212" stroke="none" target-height="25.799988" target-width="24.200012" target-x="588.8" target-y="598.4"/><path d="M 843.30 604.30 L 838.90 621.10 L 838.40 627.00 L 838.60 630.30 L 842.50 657.50 L 846.80 684.80 L 847.40 692.50 L 847.40 700.00 L 846.80 707.50 L 845.40 717.70 L 843.60 717.80 L 840.60 716.80 L 836.90 716.60 L 831.90 717.00 L 826.30 717.90 L 823.40 718.10 L 822.50 717.80 L 822.90 717.10 L 825.90 715.40 L 829.20 714.00 L 832.10 712.10 L 835.80 708.30 L 837.60 705.10 L 838.10 703.30 L 840.30 690.40 L 840.80 683.80 L 840.70 670.80 L 840.00 664.20 L 837.60 651.30 L 836.70 642.60 L 835.00 633.10 L 835.10 624.10 L 834.80 622.90 L 834.30 622.40 L 833.50 622.30 L 832.40 622.70 L 823.60 629.70 L 816.40 634.80 L 808.90 639.50 L 801.00 643.70 L 800.40 643.70 L 800.10 642.80 L 816.20 631.90 L 823.30 626.70 L 828.50 622.20 L 832.30 618.30 L 834.80 615.00 L 836.70 611.80 L 839.90 604.90 L 841.30 600.70 L 841.70 600.60 L 843.00 601.80 L 843.30 604.30 Z" fill="#ea372a" fill-rule="nonzero" node-id="214" stroke="none" target-height="117.5" target-width="47.30005" target-x="800.1" target-y="600.6"/><path d="M 687.20 601.80 L 689.40 603.50 L 691.20 605.60 L 692.60 608.00 L 693.40 610.70 L 693.30 611.90 L 692.40 612.70 L 689.80 613.90 L 689.00 614.90 L 682.40 625.60 L 673.20 639.20 L 670.50 645.70 L 667.40 656.70 L 666.20 657.30 L 665.30 657.20 L 663.30 656.20 L 659.90 653.80 L 658.40 652.20 L 663.60 646.30 L 668.30 640.20 L 672.70 633.70 L 676.60 627.00 L 680.10 620.00 L 683.20 612.80 L 687.20 601.80 Z" fill="#ffbca9" fill-rule="nonzero" node-id="216" stroke="none" target-height="55.5" target-width="35" target-x="658.4" target-y="601.8"/><path d="M 648.50 663.80 L 636.70 685.20 L 633.50 692.00 L 630.70 698.90 L 628.30 705.90 L 626.40 713.20 L 624.90 720.40 L 623.90 727.80 L 623.40 735.20 L 623.60 738.00 L 624.60 742.00 L 626.50 747.70 L 629.60 755.30 L 631.40 758.70 L 633.60 761.70 L 636.40 764.40 L 639.50 766.50 L 642.20 767.80 L 647.90 769.00 L 657.60 769.70 L 658.30 770.50 L 658.70 771.80 L 658.50 772.30 L 656.30 773.20 L 655.10 774.20 L 643.00 773.50 L 635.80 768.50 L 633.50 766.00 L 627.10 757.80 L 624.10 750.40 L 623.80 750.00 L 622.90 749.60 L 600.60 757.70 L 594.30 759.60 L 587.90 761.00 L 581.40 761.80 L 577.10 762.00 L 566.20 761.40 L 558.00 770.50 L 557.10 771.30 L 555.80 771.70 L 541.90 773.40 L 538.70 771.90 L 535.90 768.90 L 531.80 765.70 L 529.40 764.50 L 524.30 763.20 L 527.60 762.10 L 531.00 762.40 L 538.10 765.80 L 541.80 767.00 L 545.30 767.70 L 548.60 767.70 L 551.80 767.20 L 555.00 766.10 L 556.10 765.40 L 570.00 748.90 L 578.80 736.30 L 584.80 726.70 L 590.40 716.80 L 595.40 706.70 L 596.60 705.60 L 597.30 705.50 L 598.60 705.90 L 598.40 707.90 L 594.60 717.00 L 592.20 721.50 L 571.90 754.00 L 571.70 754.60 L 572.00 755.70 L 572.60 756.40 L 579.20 757.90 L 582.50 758.10 L 589.10 757.40 L 599.30 754.40 L 606.10 752.00 L 620.60 746.20 L 621.80 744.60 L 622.00 742.60 L 620.40 737.50 L 619.60 733.50 L 619.40 729.40 L 619.60 725.20 L 621.00 716.80 L 624.70 704.80 L 628.60 696.00 L 633.00 687.50 L 637.70 679.30 L 642.90 671.40 L 648.50 663.80 Z" fill="#515744" fill-rule="nonzero" node-id="218" stroke="none" target-height="110.400024" target-width="134.40002" target-x="524.3" target-y="663.8"/><path d="M 625.00 704.70 L 621.40 716.70 L 619.90 725.00 L 619.70 729.20 L 619.90 733.40 L 620.70 737.40 L 622.30 742.90 L 622.00 744.40 L 621.30 745.60 L 620.00 746.60 L 599.60 754.30 L 589.40 757.30 L 586.20 757.80 L 579.40 757.60 L 572.90 756.30 L 572.00 755.50 L 571.90 754.00 L 582.30 737.70 L 594.20 718.20 L 597.40 711.30 L 599.00 706.50 L 598.80 705.80 L 597.20 705.40 L 595.80 706.00 L 590.60 716.60 L 585.00 726.50 L 579.00 736.10 L 570.00 748.70 L 562.10 757.80 L 557.20 764.20 L 555.20 765.90 L 551.90 767.00 L 548.60 767.50 L 545.20 767.40 L 541.70 766.80 L 538.20 765.60 L 532.80 762.80 L 529.50 761.90 L 527.80 761.90 L 524.50 763.00 L 517.30 764.00 L 518.20 762.60 L 518.10 762.40 L 514.90 762.40 L 512.40 762.80 L 510.00 763.70 L 504.00 767.00 L 498.70 768.20 L 495.30 768.30 L 488.60 767.50 L 485.50 766.70 L 481.30 765.00 L 475.60 760.90 L 472.20 759.50 L 471.30 758.80 L 471.10 758.20 L 471.30 757.50 L 472.00 756.60 L 478.10 753.10 L 482.10 750.30 L 485.80 747.20 L 489.20 743.80 L 492.20 740.10 L 495.20 735.70 L 495.20 735.10 L 494.50 734.20 L 492.80 733.80 L 498.70 725.60 L 504.30 717.30 L 509.50 708.60 L 514.30 699.80 L 518.80 690.70 L 520.00 690.70 L 520.90 691.10 L 520.80 693.00 L 515.40 703.60 L 503.70 724.20 L 503.60 724.70 L 504.10 725.30 L 526.80 722.40 L 537.80 720.40 L 559.60 715.30 L 581.00 708.70 L 591.60 704.90 L 594.90 702.90 L 596.20 701.50 L 599.10 695.40 L 610.70 660.50 L 609.20 665.90 L 610.40 666.50 L 609.00 675.70 L 607.10 684.20 L 604.70 692.70 L 602.00 701.00 L 601.80 702.20 L 602.00 702.90 L 602.60 703.30 L 603.70 703.50 L 609.90 703.70 L 614.50 702.60 L 619.00 702.50 L 621.20 702.90 L 625.00 704.70 Z" fill="#6c906a" fill-rule="nonzero" node-id="220" stroke="none" target-height="107.79999" target-width="153.9" target-x="471.1" target-y="660.5"/><path d="M 640.60 678.40 L 645.50 684.40 L 648.30 687.10 L 651.40 689.20 L 656.60 691.40 L 658.20 692.50 L 659.50 694.00 L 663.90 702.90 L 666.70 710.30 L 669.00 717.80 L 670.80 725.50 L 670.80 729.60 L 671.20 730.30 L 672.30 730.90 L 673.20 733.00 L 672.90 735.50 L 670.70 736.80 L 670.00 737.80 L 659.20 740.90 L 654.90 744.20 L 654.50 744.80 L 656.70 744.70 L 658.20 744.10 L 661.60 742.00 L 672.80 738.80 L 651.90 747.30 L 643.60 748.20 L 632.90 750.00 L 630.00 754.40 L 626.90 746.80 L 625.00 741.10 L 624.00 737.10 L 623.80 734.30 L 624.30 727.00 L 625.30 719.80 L 626.70 712.60 L 628.60 705.50 L 630.90 698.50 L 633.70 691.60 L 636.90 685.00 L 640.60 678.40 Z" fill="#ce9b79" fill-rule="nonzero" node-id="222" stroke="none" target-height="76" target-width="49.400024" target-x="623.8" target-y="678.4"/><path d="M 522.60 683.10 L 513.40 701.70 L 507.20 712.60 L 500.40 723.20 L 490.50 737.20 L 487.70 740.60 L 481.40 746.40 L 477.80 748.90 L 470.20 752.90 L 464.70 755.00 L 464.00 755.70 L 463.70 756.40 L 464.40 758.60 L 455.80 759.90 L 446.80 760.60 L 370.10 761.80 L 365.30 761.50 L 355.60 760.10 L 339.30 753.50 L 318.40 743.90 L 306.80 737.50 L 301.20 733.70 L 295.80 729.30 L 290.40 724.30 L 285.10 718.70 L 279.80 712.30 L 274.70 705.10 L 269.60 697.10 L 266.10 688.90 L 298.80 690.70 L 386.30 690.80 L 410.70 689.90 L 441.80 688.20 L 522.60 683.10 Z" fill="#ead3be" fill-rule="nonzero" node-id="224" stroke="none" target-height="78.70001" target-width="256.49997" target-x="266.1" target-y="683.1"/><path d="M 269.80 697.50 L 274.80 705.50 L 279.80 712.60 L 285.00 719.00 L 290.30 724.70 L 295.80 729.70 L 301.30 734.10 L 307.00 737.90 L 315.30 742.60 L 326.80 748.30 L 339.60 753.90 L 355.80 760.50 L 347.90 771.20 L 347.00 772.00 L 345.90 772.20 L 323.60 772.90 L 309.00 764.00 L 306.80 763.50 L 305.00 763.80 L 301.80 765.50 L 299.60 768.40 L 298.40 771.10 L 297.40 771.70 L 293.40 772.90 L 285.80 772.60 L 282.10 773.10 L 278.50 774.10 L 277.20 772.50 L 275.30 768.90 L 265.30 753.90 L 256.90 739.70 L 253.30 732.50 L 250.10 724.90 L 247.30 717.10 L 244.80 708.40 L 245.10 706.00 L 245.60 705.10 L 246.20 705.00 L 247.20 705.70 L 248.90 708.00 L 251.70 713.40 L 253.20 715.20 L 256.50 716.20 L 259.60 718.60 L 262.10 719.80 L 265.70 720.50 L 267.60 720.40 L 268.70 720.20 L 270.80 719.10 L 274.10 718.90 L 275.00 718.30 L 275.50 717.30 L 275.40 715.10 L 271.80 709.80 L 266.60 703.20 L 265.90 702.10 L 265.50 701.00 L 265.60 699.70 L 266.20 698.70 L 267.50 698.00 L 269.80 697.50 Z" fill="#56795c" fill-rule="nonzero" node-id="226" stroke="none" target-height="76.599976" target-width="110.999985" target-x="244.8" target-y="697.5"/><path d="M 730.50 745.60 L 729.10 744.10 L 728.10 744.10 L 727.30 745.20 L 729.40 753.00 L 730.10 759.00 L 731.40 761.30 L 732.40 762.20 L 719.80 764.90 L 720.30 763.70 L 720.20 763.20 L 719.60 762.60 L 718.90 762.50 L 711.10 764.30 L 703.10 765.60 L 695.10 766.50 L 686.40 767.10 L 685.50 767.70 L 685.40 768.20 L 685.70 770.20 L 686.40 771.50 L 687.40 772.70 L 688.60 773.40 L 655.40 773.60 L 656.60 772.70 L 658.90 771.80 L 659.10 771.30 L 658.10 769.40 L 657.10 768.90 L 651.00 768.70 L 645.20 768.10 L 642.50 767.20 L 639.80 765.90 L 637.60 764.50 L 633.90 761.20 L 631.70 758.10 L 629.90 754.70 L 632.80 750.30 L 643.50 748.50 L 651.70 747.60 L 665.10 742.40 L 672.70 739.10 L 675.10 736.90 L 675.70 736.20 L 674.90 736.10 L 677.50 731.30 L 676.10 727.00 L 672.30 719.80 L 672.30 718.60 L 672.70 717.40 L 674.20 715.90 L 674.50 715.00 L 674.30 709.60 L 674.50 709.10 L 675.20 709.10 L 676.60 709.90 L 688.00 717.50 L 696.80 722.10 L 701.80 724.00 L 706.90 725.50 L 724.10 728.50 L 725.40 727.90 L 725.80 727.30 L 728.50 720.10 L 730.60 712.40 L 731.50 710.60 L 732.30 709.70 L 732.20 716.00 L 730.20 728.80 L 730.00 738.40 L 730.50 745.60 Z" fill="#b56967" fill-rule="nonzero" node-id="228" stroke="none" target-height="64.5" target-width="102.5" target-x="629.9" target-y="709.1"/><path d="M 845.80 715.10 L 846.20 716.40 L 847.00 717.60 L 848.60 718.10 L 850.20 717.60 L 853.60 718.30 L 856.80 719.40 L 859.80 721.10 L 862.60 723.20 L 865.00 725.70 L 875.50 741.10 L 880.30 747.00 L 885.40 752.50 L 893.80 767.30 L 894.50 767.30 L 896.40 763.90 L 898.10 761.70 L 899.90 760.20 L 901.90 759.30 L 904.00 758.90 L 906.50 759.10 L 909.30 759.80 L 912.60 761.40 L 919.80 765.70 L 926.20 771.10 L 927.70 773.30 L 927.30 774.20 L 924.70 774.60 L 915.10 774.40 L 876.70 775.30 L 856.00 774.90 L 823.10 774.90 L 802.60 774.10 L 792.70 773.30 L 784.50 774.30 L 782.60 774.30 L 776.40 773.30 L 771.80 773.60 L 781.00 772.40 L 782.60 771.80 L 783.90 770.80 L 784.80 769.50 L 785.90 765.00 L 788.40 761.80 L 788.90 760.70 L 789.60 758.00 L 790.00 751.20 L 790.40 750.10 L 793.40 744.40 L 797.00 739.00 L 801.00 733.80 L 805.30 729.00 L 807.30 728.30 L 809.30 726.10 L 813.00 723.50 L 814.50 722.90 L 822.00 720.90 L 829.70 719.50 L 837.40 718.70 L 845.20 718.40 L 846.00 715.80 L 845.80 715.10 Z" fill="#958a9c" fill-rule="nonzero" node-id="230" stroke="none" target-height="60.200012" target-width="155.90002" target-x="771.8" target-y="715.1"/><path d="M 885.40 752.20 L 880.20 746.70 L 875.40 740.80 L 871.00 734.70 L 867.10 728.20 L 865.00 725.30 L 862.60 722.80 L 859.90 720.70 L 856.90 719.10 L 853.70 717.90 L 850.20 717.30 L 854.30 717.10 L 857.80 717.40 L 860.90 718.20 L 863.80 719.60 L 866.40 721.30 L 868.80 723.40 L 872.10 727.10 L 875.10 731.30 L 882.60 743.30 L 883.90 746.30 L 885.40 752.20 Z" fill="#ead3be" fill-rule="nonzero" node-id="232" stroke="none" target-height="35.100037" target-width="35.200012" target-x="850.2" target-y="717.1"/><path d="M 150.40 722.50 L 146.40 722.70 L 142.60 723.40 L 116.20 731.40 L 118.00 728.60 L 120.20 726.30 L 122.90 724.40 L 125.80 723.10 L 127.90 722.50 L 133.50 722.10 L 136.40 720.80 L 139.80 720.20 L 142.40 720.40 L 150.40 722.50 Z" fill="#f0d1cd" fill-rule="nonzero" node-id="234" stroke="none" target-height="11.200012" target-width="34.199997" target-x="116.2" target-y="720.2"/><path d="M 150.40 722.50 L 156.80 723.20 L 162.80 724.30 L 168.30 725.90 L 173.50 727.90 L 178.50 730.30 L 183.20 733.20 L 187.60 736.50 L 191.80 740.30 L 198.20 747.40 L 204.20 754.60 L 209.90 762.10 L 215.30 769.80 L 215.60 771.60 L 215.30 773.30 L 171.90 773.10 L 168.40 769.60 L 165.30 765.80 L 162.60 761.80 L 160.30 757.50 L 155.30 745.10 L 148.40 729.90 L 146.90 727.80 L 145.10 726.20 L 143.10 725.20 L 141.00 724.70 L 138.50 724.80 L 142.50 723.50 L 146.50 722.80 L 150.40 722.50 Z" fill="#baa4ab" fill-rule="nonzero" node-id="236" stroke="none" target-height="50.799988" target-width="77.100006" target-x="138.5" target-y="722.5"/><path d="M 171.70 773.10 L 98.60 773.60 L 96.80 772.90 L 95.90 771.40 L 96.10 769.90 L 115.70 731.50 L 138.30 724.60 L 140.70 724.50 L 142.80 725.00 L 144.70 725.90 L 146.50 727.40 L 148.20 729.60 L 149.70 732.50 L 160.10 757.30 L 162.50 761.70 L 165.20 765.80 L 168.30 769.60 L 171.70 773.10 Z" fill="#958a9c" fill-rule="nonzero" node-id="238" stroke="none" target-height="49.099976" target-width="75.799995" target-x="95.9" target-y="724.5"/><path d="M 493.10 733.90 L 494.80 734.40 L 495.30 735.30 L 495.30 736.00 L 492.30 740.30 L 489.20 744.00 L 485.80 747.40 L 482.10 750.50 L 478.20 753.20 L 472.20 756.70 L 471.50 757.60 L 471.30 758.30 L 471.60 758.90 L 472.40 759.50 L 475.70 761.00 L 481.40 765.10 L 486.60 767.00 L 491.00 767.90 L 495.50 768.30 L 499.90 768.10 L 502.80 767.50 L 505.40 766.50 L 510.00 763.80 L 512.40 762.90 L 514.90 762.40 L 518.20 762.60 L 517.40 764.10 L 512.90 765.40 L 510.90 766.60 L 509.00 768.00 L 505.20 772.70 L 504.30 773.30 L 502.00 773.70 L 494.40 774.10 L 489.20 773.90 L 484.10 773.20 L 479.00 772.10 L 477.90 770.00 L 464.20 758.90 L 463.40 757.00 L 463.60 756.30 L 464.30 755.40 L 471.30 752.60 L 476.50 749.90 L 481.30 746.60 L 487.70 740.80 L 493.10 733.90 Z" fill="#515744" fill-rule="nonzero" node-id="240" stroke="none" target-height="40.19995" target-width="54.80002" target-x="463.4" target-y="733.9"/><path d="M 674.80 736.10 L 675.60 736.00 L 675.50 736.50 L 672.60 739.10 L 661.40 742.30 L 656.60 745.10 L 654.90 745.50 L 654.30 745.20 L 659.00 741.60 L 669.80 738.40 L 674.80 736.10 Z" fill="#ce6e83" fill-rule="nonzero" node-id="242" stroke="none" target-height="9.5" target-width="21.299988" target-x="654.3" target-y="736"/><path d="M 779.60 740.40 L 780.10 747.50 L 780.20 756.80 L 779.60 759.10 L 778.50 761.10 L 776.90 762.90 L 774.90 764.20 L 759.80 768.70 L 755.50 769.70 L 751.10 770.20 L 746.90 770.20 L 745.70 769.90 L 742.30 767.40 L 740.00 765.20 L 736.80 760.10 L 734.00 754.60 L 731.80 748.80 L 736.30 748.60 L 744.90 747.30 L 760.50 741.20 L 763.20 740.90 L 770.50 738.90 L 772.20 738.70 L 775.50 738.80 L 777.00 739.10 L 779.60 740.40 Z" fill="#469da7" fill-rule="nonzero" node-id="244" stroke="none" target-height="31.5" target-width="48.400024" target-x="731.8" target-y="738.7"/><path d="M 719.90 765.10 L 715.50 767.50 L 711.00 769.50 L 706.40 771.00 L 701.60 772.00 L 688.70 773.20 L 686.50 771.20 L 685.80 769.90 L 685.50 768.50 L 685.80 767.50 L 686.50 767.00 L 695.20 766.70 L 703.20 765.90 L 711.10 764.50 L 719.50 762.50 L 720.50 763.20 L 719.90 765.10 Z" fill="#7d434d" fill-rule="nonzero" node-id="246" stroke="none" target-height="10.700012" target-width="35" target-x="685.5" target-y="762.5"/><path d="M 732.50 762.40 L 740.90 771.80 L 720.30 774.00 L 715.60 774.10 L 710.90 773.60 L 701.50 772.00 L 706.30 771.00 L 710.90 769.50 L 715.40 767.50 L 719.80 765.10 L 732.50 762.40 Z" fill="#feebe5" fill-rule="nonzero" node-id="248" stroke="none" target-height="11.699951" target-width="39.400024" target-x="701.5" target-y="762.4"/><path d="M 636.10 768.10 L 643.30 773.10 L 633.60 773.10 L 606.40 773.80 L 562.20 773.10 L 561.50 773.00 L 560.70 772.00 L 561.00 770.90 L 565.70 770.00 L 569.90 769.60 L 617.50 769.70 L 624.00 769.50 L 636.10 768.10 Z" fill="#f0d1cd" fill-rule="nonzero" node-id="250" stroke="none" target-height="5.700012" target-width="82.599976" target-x="560.7" target-y="768.1"/><path d="M 275.50 769.10 L 277.30 772.70 L 278.70 774.30 L 215.30 773.60 L 215.60 772.30 L 215.30 770.10 L 271.10 770.10 L 275.00 771.10 L 275.50 769.10 Z" fill="#f0d1cd" fill-rule="nonzero" node-id="252" stroke="none" target-height="5.200012" target-width="63.40001" target-x="215.3" target-y="769.1"/><path d="M 476.80 769.10 L 478.20 770.40 L 479.00 772.10 L 475.50 772.80 L 472.00 773.00 L 465.60 772.80 L 352.10 773.50 L 351.20 773.00 L 351.20 770.80 L 352.10 770.10 L 356.50 769.70 L 369.70 770.10 L 470.10 769.90 L 475.80 770.90 L 476.80 769.10 Z" fill="#f0d1cd" fill-rule="nonzero" node-id="254" stroke="none" target-height="4.4000244" target-width="127.79999" target-x="351.2" target-y="769.1"/><path d="M 805.60 728.50 L 801.30 733.30 L 797.30 738.40 L 793.80 743.80 L 790.40 750.70 L 790.10 756.00 L 789.20 760.20 L 788.70 761.30 L 786.20 764.50 L 785.10 769.00 L 784.10 770.30 L 782.90 771.30 L 781.30 771.90 L 772.10 773.10 L 748.60 775.10 L 744.60 774.00 L 740.90 771.60 L 730.70 760.30 L 730.20 759.00 L 729.50 753.00 L 727.50 745.60 L 727.60 744.70 L 728.20 744.10 L 729.00 744.10 L 729.90 744.60 L 730.60 745.60 L 735.40 757.60 L 737.70 761.60 L 740.30 765.50 L 742.50 767.70 L 746.10 770.20 L 747.20 770.50 L 751.40 770.50 L 755.70 770.00 L 760.00 769.00 L 775.10 764.50 L 777.10 763.20 L 778.70 761.40 L 779.90 759.40 L 780.50 757.10 L 779.90 740.70 L 778.70 734.70 L 778.00 724.10 L 775.80 711.20 L 774.50 699.00 L 773.20 695.30 L 768.80 689.70 L 768.80 687.50 L 769.60 684.40 L 769.90 680.50 L 770.20 680.20 L 771.50 680.30 L 772.00 680.80 L 770.70 687.60 L 771.00 688.90 L 771.60 690.10 L 772.70 691.00 L 773.80 691.30 L 776.20 690.50 L 777.20 690.50 L 777.90 691.20 L 777.50 705.60 L 777.80 709.10 L 781.20 724.50 L 782.10 730.60 L 782.50 731.80 L 783.40 732.70 L 784.50 733.20 L 786.50 733.20 L 795.90 726.90 L 800.80 723.00 L 804.60 718.60 L 810.20 710.60 L 819.20 694.40 L 820.20 694.60 L 820.50 694.90 L 810.70 715.60 L 809.50 717.00 L 807.30 724.60 L 805.60 728.50 Z" fill="#c33935" fill-rule="nonzero" node-id="256" stroke="none" target-height="94.89996" target-width="93" target-x="727.5" target-y="680.2"/><path d="M 795.70 664.30 L 797.10 667.80 L 798.30 669.30 L 800.50 671.20 L 803.20 672.70 L 809.10 674.70 L 811.40 674.90 L 813.50 674.60 L 815.40 673.80 L 817.10 672.60 L 820.30 669.10 L 824.00 662.90 L 828.00 654.50 L 828.60 653.60 L 829.00 653.80 L 827.20 661.00 L 825.70 664.80 L 823.80 668.50 L 821.50 671.80 L 819.70 673.80 L 815.70 676.60 L 813.40 677.30 L 810.90 677.40 L 808.10 676.90 L 805.00 675.90 L 799.10 673.00 L 796.50 671.20 L 795.20 669.90 L 794.20 668.40 L 793.70 666.50 L 793.60 664.30 L 794.00 661.50 L 794.40 660.80 L 795.70 664.30 Z" fill="#ea372a" fill-rule="nonzero" node-id="258" stroke="none" target-height="23.800049" target-width="35.400024" target-x="793.6" target-y="653.6"/><path d="M 224.70 543.10 L 225.50 535.90 L 227.00 533.90 L 229.30 532.80 L 231.50 532.80 L 236.60 535.40 L 238.40 537.10 L 239.10 539.50 L 238.60 542.10 L 236.70 545.70 L 234.70 547.10 L 231.20 548.30 L 228.50 548.30 L 226.30 547.20 L 225.00 545.10 L 224.70 543.10 Z" fill="#6c906a" fill-rule="nonzero" node-id="260" stroke="none" target-height="15.5" target-width="14.400009" target-x="224.7" target-y="532.8"/><path d="M 797.20 444.20 L 797.20 445.70 L 795.80 447.10 L 790.80 448.50 L 788.50 448.60 L 786.80 448.30 L 785.80 447.90 L 784.60 446.60 L 784.30 444.80 L 784.80 443.40 L 785.80 442.00 L 789.40 439.20 L 791.80 437.90 L 792.80 437.70 L 794.20 438.30 L 797.20 444.20 Z" fill="#ffd9bf" fill-rule="nonzero" node-id="262" stroke="none" target-height="10.899994" target-width="12.900024" target-x="784.3" target-y="437.7"/></svg>
