<?xml version="1.0" standalone="no"?><!DOCTYPE svg PUBLIC "-//W3C//DTD SVG 1.1//EN" "http://www.w3.org/Graphics/SVG/1.1/DTD/svg11.dtd"><svg height="1024" node-id="1" sillyvg="true" template-height="1024" template-width="1024" version="1.1" viewBox="0 0 1024 1024" width="1024" xmlns="http://www.w3.org/2000/svg" xmlns:xlink="http://www.w3.org/1999/xlink"><defs node-id="105"></defs><path d="M 617.60 264.00 L 616.90 264.50 L 616.70 265.80 L 618.30 266.40 L 618.80 266.90 L 619.00 267.50 L 618.70 268.60 L 614.40 270.40 L 610.40 274.70 L 591.00 285.00 L 586.50 286.30 L 576.70 286.90 L 569.40 287.80 L 563.90 289.00 L 570.90 283.10 L 578.70 278.00 L 590.30 272.80 L 602.20 268.20 L 614.30 264.20 L 616.10 263.90 L 617.60 264.00 Z" fill="#f0d1cd" fill-rule="nonzero" node-id="107" stroke="none" target-height="25.100006" target-width="55.099976" target-x="563.9" target-y="263.9"></path><path d="M 617.60 264.00 L 618.90 264.20 L 621.20 265.40 L 625.80 270.90 L 630.10 276.60 L 637.80 288.60 L 644.10 301.50 L 642.00 299.90 L 640.30 297.80 L 639.00 295.50 L 637.60 291.90 L 635.70 289.80 L 633.80 286.90 L 631.60 284.30 L 629.10 282.10 L 626.30 280.10 L 623.30 278.60 L 620.20 277.40 L 617.00 277.10 L 615.40 277.30 L 601.00 283.80 L 596.50 286.40 L 594.20 288.20 L 582.70 299.20 L 581.20 301.00 L 573.90 313.70 L 572.10 309.40 L 570.90 308.30 L 570.10 308.20 L 566.10 309.60 L 562.40 311.60 L 558.60 314.40 L 558.40 315.60 L 558.80 316.10 L 559.10 316.10 L 559.10 317.30 L 558.40 317.60 L 558.20 318.30 L 557.90 317.50 L 556.30 316.90 L 552.00 317.90 L 549.80 318.80 L 546.10 321.60 L 541.60 327.00 L 540.20 328.10 L 538.60 329.00 L 532.90 330.30 L 527.40 332.10 L 522.00 334.30 L 516.90 336.90 L 511.90 340.00 L 497.60 350.00 L 491.90 354.90 L 486.60 360.10 L 481.70 365.80 L 471.50 379.60 L 461.40 396.00 L 456.90 404.40 L 452.80 413.10 L 449.00 421.90 L 445.50 430.80 L 440.40 446.90 L 437.70 453.60 L 428.40 472.90 L 426.00 476.80 L 428.40 467.70 L 428.70 467.00 L 430.40 465.80 L 432.10 455.80 L 432.80 455.90 L 434.10 454.80 L 439.50 441.20 L 443.80 428.80 L 447.70 420.20 L 450.40 412.80 L 455.70 402.00 L 461.00 389.30 L 467.60 377.10 L 470.30 370.80 L 472.70 368.30 L 473.60 366.70 L 473.70 366.00 L 473.20 365.40 L 469.30 364.80 L 471.60 364.30 L 477.40 361.20 L 494.80 344.20 L 499.40 340.30 L 504.40 336.80 L 513.70 331.90 L 534.00 323.90 L 536.80 322.00 L 541.10 317.30 L 543.60 313.90 L 551.70 301.50 L 554.50 297.90 L 561.00 291.40 L 564.60 288.60 L 570.10 287.40 L 587.90 285.70 L 590.90 284.90 L 593.70 283.60 L 611.10 274.30 L 615.10 270.00 L 616.60 269.20 L 619.00 268.60 L 619.60 267.70 L 619.70 266.80 L 619.00 266.10 L 617.40 265.50 L 617.20 264.30 L 617.60 264.00 Z" fill="#f88b79" fill-rule="nonzero" node-id="109" stroke="none" target-height="212.79999" target-width="218.09998" target-x="426" target-y="264"></path><path d="M 644.40 301.30 L 649.90 312.80 L 650.60 315.60 L 652.90 320.70 L 654.50 323.00 L 656.40 325.10 L 659.50 327.60 L 660.10 328.70 L 660.20 329.90 L 659.40 331.90 L 656.60 334.60 L 651.50 338.10 L 645.80 340.30 L 642.70 341.00 L 642.00 340.90 L 641.60 340.50 L 641.50 337.00 L 642.10 334.40 L 643.20 331.90 L 644.90 329.90 L 646.30 328.70 L 650.20 326.80 L 650.70 325.70 L 650.40 324.50 L 642.80 315.40 L 641.20 314.50 L 639.50 314.90 L 618.00 332.10 L 614.50 335.70 L 613.40 336.30 L 612.00 336.60 L 611.00 336.40 L 610.80 335.40 L 611.60 331.20 L 614.60 320.70 L 617.90 312.00 L 623.10 299.60 L 623.20 297.80 L 622.80 296.10 L 621.80 294.50 L 620.10 292.90 L 617.50 291.20 L 612.00 293.30 L 606.70 295.80 L 601.70 298.80 L 596.90 302.20 L 592.50 306.10 L 586.80 312.10 L 585.70 314.20 L 585.00 316.60 L 584.80 318.90 L 585.00 321.40 L 585.70 323.80 L 586.90 326.10 L 593.10 335.50 L 593.60 337.00 L 593.40 337.70 L 592.80 338.00 L 591.20 337.70 L 587.90 336.30 L 585.20 334.20 L 582.70 331.90 L 576.10 324.40 L 571.40 318.70 L 571.20 317.60 L 572.50 314.90 L 574.10 313.20 L 580.10 302.50 L 581.50 300.50 L 584.60 297.00 L 594.40 287.70 L 596.80 285.90 L 601.20 283.30 L 606.50 280.60 L 615.60 277.00 L 618.80 276.70 L 620.40 276.90 L 623.70 278.10 L 626.70 279.60 L 629.40 281.60 L 631.90 283.80 L 634.10 286.40 L 635.90 289.30 L 638.00 291.40 L 639.20 295.20 L 640.50 297.60 L 642.30 299.70 L 644.40 301.30 Z" fill="#fb381a" fill-rule="nonzero" node-id="111" stroke="none" target-height="64.29999" target-width="89" target-x="571.2" target-y="276.7"></path><path d="M 617.20 291.50 L 618.30 293.80 L 618.90 296.30 L 618.60 297.30 L 617.70 298.20 L 614.40 300.00 L 611.40 302.20 L 608.70 304.70 L 603.20 311.10 L 599.30 313.70 L 597.20 314.40 L 595.10 314.50 L 593.10 314.20 L 591.20 313.40 L 589.50 312.20 L 588.10 310.60 L 592.10 306.40 L 596.50 302.50 L 601.20 299.10 L 606.20 296.10 L 611.50 293.60 L 617.20 291.50 Z" fill="#f4c5a9" fill-rule="nonzero" node-id="113" stroke="none" target-height="23" target-width="30.800049" target-x="588.1" target-y="291.5"></path><path d="M 617.20 291.50 L 619.80 293.20 L 621.50 294.90 L 622.50 296.50 L 623.00 298.20 L 622.90 299.90 L 617.60 312.20 L 614.20 320.90 L 611.20 331.60 L 610.50 335.70 L 610.60 336.40 L 611.00 336.80 L 613.10 336.60 L 614.20 336.00 L 617.70 332.40 L 639.20 315.20 L 640.00 314.70 L 640.90 314.60 L 642.50 315.40 L 650.10 324.50 L 650.40 325.70 L 649.90 326.90 L 646.90 328.30 L 644.80 329.90 L 643.10 332.00 L 641.90 334.40 L 641.30 337.10 L 641.40 340.40 L 642.50 341.00 L 645.60 340.30 L 651.30 338.10 L 654.00 336.60 L 656.40 334.60 L 659.60 331.50 L 660.10 330.40 L 660.10 329.20 L 659.20 327.30 L 656.40 325.10 L 652.90 320.80 L 650.60 315.60 L 649.90 312.80 L 651.50 314.50 L 653.00 315.30 L 654.50 315.70 L 655.90 315.40 L 659.30 315.60 L 666.00 317.10 L 672.10 320.10 L 676.30 322.90 L 681.00 324.50 L 682.00 325.50 L 683.90 326.40 L 680.40 327.00 L 680.30 327.50 L 689.40 335.10 L 690.40 336.30 L 690.80 337.70 L 690.70 339.20 L 689.90 340.60 L 689.00 341.50 L 685.50 342.80 L 683.40 344.20 L 681.70 346.00 L 680.40 348.20 L 679.40 350.90 L 678.70 354.20 L 678.60 355.70 L 678.90 356.60 L 679.50 357.10 L 680.50 357.30 L 682.00 357.10 L 695.80 353.80 L 698.80 352.40 L 699.60 351.50 L 700.50 349.10 L 700.10 345.50 L 699.00 341.70 L 699.20 341.00 L 699.90 340.80 L 701.50 341.40 L 709.40 346.10 L 717.00 351.30 L 724.30 356.80 L 731.10 362.90 L 733.90 365.70 L 738.90 371.90 L 750.40 389.30 L 752.50 393.00 L 753.30 393.70 L 753.70 393.60 L 754.00 392.90 L 754.20 390.80 L 756.50 390.90 L 758.90 390.40 L 761.00 389.40 L 763.90 387.20 L 766.70 386.40 L 770.30 384.50 L 789.60 379.70 L 792.40 377.90 L 793.70 377.70 L 799.70 377.90 L 805.40 378.90 L 798.20 382.20 L 797.50 382.80 L 799.40 391.60 L 797.90 391.70 L 795.80 389.10 L 793.90 387.50 L 792.00 386.40 L 787.60 385.30 L 781.50 385.50 L 770.50 387.70 L 769.40 388.10 L 768.10 389.90 L 767.90 391.00 L 768.60 398.50 L 769.80 406.50 L 770.40 408.20 L 772.40 410.90 L 776.80 413.50 L 779.80 414.80 L 783.00 415.70 L 786.30 416.10 L 789.60 416.00 L 793.00 415.40 L 794.00 414.90 L 796.50 410.50 L 798.00 406.90 L 800.30 398.70 L 801.20 398.10 L 802.40 398.10 L 807.30 402.00 L 814.60 405.50 L 820.40 409.50 L 821.90 411.70 L 824.00 420.20 L 825.00 443.30 L 824.60 446.30 L 822.90 449.00 L 821.80 449.90 L 803.60 458.60 L 786.10 467.90 L 784.90 467.80 L 783.80 467.30 L 783.00 466.20 L 779.50 455.30 L 777.40 450.10 L 776.30 449.70 L 775.60 450.00 L 777.80 460.70 L 779.40 470.00 L 779.60 473.50 L 779.20 476.50 L 775.80 488.10 L 774.80 495.70 L 772.80 500.80 L 767.80 510.50 L 764.90 515.10 L 758.30 523.60 L 757.80 524.60 L 758.10 525.70 L 767.30 541.10 L 769.50 545.60 L 771.30 550.30 L 773.90 559.80 L 775.10 569.70 L 775.10 574.70 L 772.30 580.10 L 769.10 585.20 L 767.20 587.60 L 766.00 588.50 L 765.20 588.60 L 764.50 588.10 L 763.90 586.70 L 762.50 579.50 L 761.30 575.40 L 760.30 574.20 L 759.60 574.00 L 757.70 574.70 L 754.20 578.40 L 746.80 585.30 L 740.60 590.30 L 738.20 591.70 L 735.70 592.70 L 732.90 593.30 L 730.70 593.40 L 726.70 592.50 L 723.20 590.40 L 721.70 589.00 L 687.20 555.00 L 686.60 553.40 L 686.40 551.80 L 686.60 550.10 L 687.20 548.50 L 689.00 546.50 L 696.00 541.40 L 703.20 536.70 L 710.70 532.40 L 718.60 529.00 L 722.20 526.90 L 722.00 526.50 L 716.40 527.60 L 708.40 530.70 L 701.00 535.00 L 697.50 537.60 L 687.70 535.80 L 682.80 535.50 L 605.80 539.00 L 604.20 538.20 L 600.80 537.90 L 597.20 538.90 L 595.10 540.00 L 580.50 540.00 L 561.90 541.60 L 543.20 542.60 L 538.00 543.70 L 532.60 546.10 L 530.80 545.90 L 520.10 540.40 L 509.10 535.40 L 503.80 533.90 L 496.40 533.60 L 491.70 534.10 L 482.40 536.00 L 474.00 538.50 L 473.50 539.00 L 473.50 539.70 L 473.80 540.20 L 474.50 540.40 L 489.00 539.50 L 493.90 539.40 L 498.80 539.70 L 504.10 540.60 L 519.10 544.90 L 524.40 546.80 L 529.40 549.20 L 534.20 552.00 L 538.70 555.30 L 542.80 558.90 L 546.60 563.00 L 545.10 563.90 L 545.10 565.60 L 547.40 567.40 L 549.30 569.50 L 550.90 571.90 L 553.10 577.10 L 553.70 579.90 L 552.20 580.20 L 550.80 580.90 L 549.90 582.00 L 545.30 598.80 L 541.30 597.90 L 537.20 597.80 L 536.30 598.20 L 536.00 599.20 L 543.90 608.40 L 547.20 612.90 L 550.30 617.60 L 550.90 619.10 L 551.00 620.70 L 550.60 622.20 L 549.60 623.60 L 546.40 626.30 L 543.10 628.50 L 539.50 630.30 L 535.70 631.70 L 531.80 632.50 L 527.60 632.90 L 525.90 632.40 L 524.70 631.00 L 528.30 621.30 L 530.00 614.40 L 529.40 610.60 L 528.70 608.90 L 527.60 607.60 L 526.20 606.50 L 524.60 605.80 L 522.70 605.50 L 514.20 606.60 L 507.00 607.10 L 505.90 607.90 L 504.70 609.40 L 501.60 615.50 L 499.50 617.00 L 496.30 620.00 L 494.30 621.10 L 492.20 619.20 L 488.70 614.70 L 487.30 612.20 L 485.40 606.50 L 484.30 606.80 L 483.70 607.30 L 483.60 608.20 L 489.60 622.80 L 489.30 625.80 L 488.80 625.90 L 487.00 624.40 L 481.80 624.90 L 478.30 624.70 L 474.10 623.50 L 472.40 622.50 L 468.10 619.00 L 464.20 615.10 L 460.80 610.70 L 457.60 605.70 L 456.10 605.50 L 453.90 607.60 L 452.00 608.80 L 450.10 609.40 L 448.30 609.40 L 446.30 608.90 L 444.20 607.70 L 441.80 605.70 L 437.70 599.40 L 431.30 592.30 L 430.20 590.60 L 429.10 586.60 L 429.60 584.50 L 431.70 581.60 L 434.00 578.90 L 438.50 574.80 L 441.20 570.90 L 442.10 568.80 L 443.60 562.80 L 444.20 556.10 L 443.90 552.80 L 443.10 549.90 L 442.40 548.10 L 441.20 546.50 L 439.50 545.10 L 427.30 539.80 L 428.10 537.20 L 429.40 535.00 L 431.10 533.10 L 434.40 530.90 L 437.30 531.00 L 440.00 530.40 L 441.80 528.80 L 442.30 527.60 L 444.70 531.40 L 446.40 533.10 L 449.30 535.40 L 452.70 537.40 L 459.80 540.50 L 466.20 542.40 L 467.20 542.30 L 463.20 539.60 L 459.70 537.90 L 455.70 535.40 L 451.90 532.40 L 448.50 529.00 L 445.40 525.20 L 435.40 512.50 L 433.60 509.80 L 429.10 500.30 L 426.60 493.60 L 426.10 493.10 L 425.20 493.20 L 424.50 495.90 L 424.70 497.40 L 423.60 493.50 L 423.00 489.90 L 422.80 486.50 L 423.10 483.20 L 423.90 480.00 L 425.20 477.10 L 427.70 473.10 L 436.20 455.70 L 440.10 445.50 L 444.70 431.10 L 448.20 422.10 L 452.00 413.30 L 456.10 404.60 L 460.60 396.10 L 465.50 387.90 L 470.70 379.80 L 480.80 366.10 L 485.80 360.40 L 491.10 355.20 L 496.80 350.30 L 499.20 352.50 L 501.90 354.30 L 504.80 355.70 L 507.90 356.70 L 511.10 357.20 L 515.30 357.20 L 515.90 356.90 L 516.40 356.30 L 516.60 354.80 L 516.00 349.90 L 515.10 346.30 L 514.00 343.50 L 512.60 341.60 L 511.10 340.20 L 515.20 337.60 L 523.90 333.40 L 533.10 330.30 L 537.80 329.20 L 539.30 332.30 L 542.00 334.20 L 544.20 334.90 L 547.20 335.20 L 551.70 334.80 L 552.40 333.50 L 551.80 330.70 L 551.90 327.90 L 552.40 325.30 L 553.50 322.70 L 555.10 320.50 L 558.10 317.40 L 558.10 316.40 L 564.40 315.70 L 568.40 314.50 L 570.70 312.80 L 571.50 310.70 L 572.70 313.80 L 571.10 315.60 L 570.10 317.60 L 570.00 318.60 L 570.30 319.70 L 581.30 332.50 L 583.80 334.80 L 586.50 336.90 L 589.80 338.30 L 591.30 338.50 L 591.90 338.20 L 592.10 337.50 L 591.60 336.00 L 585.50 326.70 L 584.30 324.50 L 583.60 322.10 L 583.40 319.50 L 583.60 317.20 L 584.30 314.90 L 585.30 312.80 L 586.70 310.90 L 588.10 312.50 L 589.80 313.70 L 591.70 314.50 L 593.80 314.80 L 595.80 314.70 L 597.90 314.00 L 600.00 312.80 L 601.80 311.40 L 607.30 304.90 L 610.00 302.40 L 617.20 297.80 L 618.00 295.20 L 618.00 293.90 L 617.20 291.50 Z M 579.70 356.70 L 569.00 346.40 L 568.50 346.30 L 567.80 346.60 L 566.90 348.00 L 566.40 349.60 L 566.40 351.30 L 566.90 353.10 L 567.80 354.80 L 569.20 356.40 L 571.60 358.20 L 573.30 358.90 L 575.10 359.20 L 576.80 359.10 L 578.30 358.60 L 579.90 357.40 L 579.70 356.70 Z M 619.30 352.60 L 615.20 354.50 L 614.10 356.40 L 614.50 358.30 L 615.20 359.00 L 619.70 360.30 L 621.00 360.30 L 623.20 359.30 L 624.90 356.80 L 625.60 354.80 L 626.60 349.50 L 626.10 348.70 L 625.30 348.30 L 623.60 348.30 L 622.10 349.30 L 620.70 351.30 L 619.30 352.60 Z M 656.10 447.00 L 664.20 448.90 L 672.30 450.40 L 680.40 451.50 L 688.60 452.00 L 696.80 452.20 L 705.10 451.80 L 708.10 448.20 L 710.10 444.10 L 711.00 439.60 L 711.00 437.30 L 710.10 432.70 L 707.10 425.10 L 702.80 418.20 L 700.10 415.20 L 697.10 412.40 L 693.90 409.90 L 690.40 407.80 L 683.60 404.80 L 680.50 404.10 L 677.40 403.90 L 674.20 404.20 L 671.20 405.00 L 668.00 406.20 L 664.80 407.90 L 658.60 412.70 L 656.20 415.30 L 654.20 418.30 L 652.70 421.60 L 651.80 425.00 L 650.40 436.60 L 650.30 438.50 L 651.30 442.20 L 652.40 443.80 L 653.90 445.40 L 656.10 447.00 Z M 481.30 456.00 L 481.50 454.60 L 483.00 452.40 L 484.80 451.20 L 488.90 449.80 L 493.10 449.70 L 494.90 450.30 L 496.20 451.20 L 497.20 452.40 L 497.80 454.10 L 498.30 457.20 L 499.00 457.50 L 501.10 457.50 L 507.50 456.50 L 515.30 454.20 L 521.10 451.20 L 523.70 449.30 L 526.00 447.10 L 527.80 444.60 L 529.30 441.90 L 530.20 438.90 L 530.50 435.50 L 530.30 430.80 L 529.60 426.80 L 528.60 423.30 L 527.20 420.20 L 525.50 417.50 L 523.40 415.20 L 520.90 413.30 L 518.10 411.60 L 513.90 410.00 L 510.10 408.90 L 506.50 408.40 L 503.20 408.40 L 499.80 408.90 L 496.60 409.70 L 493.60 410.90 L 490.70 412.50 L 487.10 415.10 L 483.70 418.20 L 480.50 421.90 L 477.70 425.80 L 472.70 434.50 L 471.30 437.90 L 470.40 441.00 L 470.10 443.80 L 470.20 446.30 L 470.70 448.80 L 471.70 451.10 L 473.10 453.20 L 475.00 455.30 L 477.50 457.40 L 481.30 459.50 L 482.00 459.20 L 482.30 458.60 L 482.00 457.20 L 481.30 456.00 Z M 578.50 427.40 L 578.30 426.70 L 577.30 425.90 L 574.20 425.00 L 570.90 425.20 L 569.70 425.60 L 569.40 426.20 L 569.70 426.90 L 570.70 427.70 L 573.70 428.60 L 576.90 428.40 L 578.00 428.00 L 578.50 427.40 Z M 629.30 467.00 L 635.10 469.20 L 638.90 470.00 L 641.20 469.60 L 642.00 469.30 L 642.60 468.60 L 642.80 466.90 L 641.60 465.60 L 628.00 463.40 L 624.50 462.60 L 621.20 461.40 L 618.10 459.80 L 615.30 457.70 L 611.00 453.80 L 603.50 448.00 L 600.20 446.30 L 596.90 445.00 L 591.50 443.90 L 585.50 444.30 L 578.10 446.60 L 571.00 450.10 L 561.80 456.50 L 558.90 458.10 L 552.60 460.30 L 546.10 461.10 L 542.80 460.90 L 534.90 459.40 L 534.20 459.70 L 533.70 460.60 L 533.90 462.40 L 534.40 463.20 L 536.40 464.40 L 538.50 465.30 L 540.70 465.80 L 544.30 466.10 L 548.00 465.70 L 551.70 464.70 L 555.30 463.40 L 558.60 461.60 L 569.10 454.30 L 577.70 449.70 L 583.90 447.60 L 590.00 446.80 L 593.00 447.00 L 596.00 447.60 L 598.70 448.80 L 601.40 450.50 L 607.70 456.30 L 611.50 459.30 L 615.70 461.90 L 620.10 464.10 L 624.60 465.80 L 629.30 467.00 Z M 712.40 474.20 L 711.90 475.80 L 711.70 480.70 L 711.30 483.40 L 710.50 485.60 L 709.30 487.60 L 707.80 489.30 L 705.90 490.70 L 703.50 491.90 L 700.50 492.80 L 698.10 493.10 L 695.00 492.80 L 693.30 491.90 L 692.00 490.60 L 688.70 485.20 L 687.10 483.50 L 685.80 483.00 L 684.50 483.50 L 680.30 491.10 L 680.60 493.00 L 683.70 496.00 L 686.20 497.70 L 688.80 498.90 L 691.60 499.70 L 694.40 500.00 L 697.50 499.80 L 700.80 499.10 L 708.10 496.20 L 711.50 494.20 L 714.70 491.80 L 717.50 489.00 L 720.10 485.90 L 722.30 482.60 L 723.70 479.20 L 724.60 475.70 L 724.90 472.10 L 724.50 470.40 L 723.20 468.90 L 719.70 466.20 L 718.60 464.30 L 717.80 462.20 L 717.40 456.80 L 716.60 456.10 L 714.20 455.10 L 711.70 454.70 L 709.10 454.80 L 693.80 459.00 L 691.90 460.40 L 684.30 474.00 L 684.10 475.20 L 684.80 476.10 L 686.70 476.80 L 687.50 476.70 L 688.30 476.10 L 692.00 471.10 L 693.20 470.30 L 696.10 469.70 L 697.50 469.90 L 701.80 471.40 L 704.50 472.00 L 711.00 471.80 L 712.10 472.90 L 712.30 473.70 L 712.60 473.80 L 712.40 474.20 Z M 671.10 458.70 L 670.10 457.60 L 668.90 456.90 L 667.50 456.60 L 665.60 456.90 L 664.80 457.70 L 664.30 460.20 L 664.50 464.30 L 665.70 468.20 L 667.90 471.40 L 671.00 473.40 L 672.80 473.90 L 674.80 473.90 L 677.10 473.50 L 678.50 472.70 L 679.50 471.50 L 680.00 470.00 L 680.00 468.20 L 679.50 467.20 L 677.80 465.20 L 676.00 461.90 L 675.10 461.00 L 671.90 459.50 L 671.10 458.70 Z M 473.20 471.10 L 471.30 469.50 L 469.10 468.30 L 466.80 467.40 L 464.40 467.00 L 462.70 467.20 L 460.40 469.30 L 459.40 471.30 L 459.10 472.80 L 459.50 475.50 L 460.50 477.40 L 462.10 479.10 L 465.80 481.60 L 467.70 481.90 L 479.00 477.50 L 479.80 476.80 L 480.10 476.10 L 479.50 474.20 L 477.70 473.10 L 474.50 472.10 L 473.20 471.10 Z M 464.80 492.30 L 461.30 489.80 L 456.00 483.00 L 454.80 482.50 L 453.60 482.80 L 453.30 483.30 L 452.90 487.70 L 454.00 490.60 L 458.30 494.60 L 461.80 496.90 L 466.90 499.00 L 469.60 499.70 L 470.90 499.40 L 471.50 498.70 L 471.80 496.90 L 470.80 495.30 L 464.80 492.30 Z M 758.30 529.10 L 755.60 526.70 L 753.00 525.10 L 750.40 524.00 L 744.90 523.20 L 742.00 523.40 L 737.60 524.20 L 733.00 525.50 L 730.80 526.40 L 730.00 527.10 L 730.00 527.70 L 730.70 528.50 L 733.00 529.60 L 740.70 531.90 L 748.50 533.90 L 750.80 534.10 L 758.10 533.70 L 759.10 533.40 L 759.50 532.50 L 759.50 531.40 L 759.30 530.60 L 758.30 529.10 Z M 757.60 565.90 L 758.90 563.70 L 759.70 561.50 L 760.20 559.10 L 760.30 556.70 L 759.90 554.30 L 759.00 551.80 L 757.60 549.30 L 755.80 547.00 L 753.50 544.90 L 749.70 542.70 L 747.90 542.30 L 744.20 542.50 L 742.40 543.00 L 739.90 544.40 L 735.90 548.00 L 732.40 552.90 L 730.80 555.80 L 729.60 558.80 L 728.90 561.80 L 728.70 563.70 L 729.40 567.30 L 730.20 568.90 L 731.50 570.30 L 735.50 572.70 L 737.80 573.50 L 740.10 574.00 L 744.80 573.80 L 747.20 573.30 L 750.20 572.10 L 752.90 570.50 L 755.40 568.50 L 757.60 565.90 Z" fill="#ff8f53" fill-rule="nonzero" node-id="115" stroke="none" target-height="341.40002" target-width="402.2" target-x="422.8" target-y="291.5"></path><path d="M 708.10 307.30 L 712.10 308.70 L 716.20 309.70 L 720.30 310.10 L 724.50 310.10 L 728.60 309.50 L 732.70 308.50 L 734.50 307.60 L 735.50 306.00 L 735.30 305.70 L 734.40 305.80 L 732.00 306.50 L 737.10 302.80 L 741.30 297.90 L 743.30 298.20 L 745.10 298.90 L 746.80 300.10 L 749.70 303.50 L 751.10 306.00 L 755.20 315.60 L 758.00 325.60 L 752.80 319.20 L 744.50 317.80 L 742.00 317.90 L 706.20 323.40 L 697.60 323.80 L 680.40 323.60 L 677.30 322.70 L 668.50 317.70 L 665.40 316.40 L 658.70 314.80 L 655.30 314.50 L 661.60 310.60 L 667.50 306.20 L 675.70 299.40 L 678.20 297.80 L 681.00 296.70 L 683.90 295.90 L 685.20 296.10 L 686.80 297.70 L 689.10 298.40 L 708.10 307.30 Z M 732.00 310.60 L 726.10 310.20 L 720.30 311.30 L 723.10 311.80 L 726.30 311.80 L 729.10 311.50 L 732.00 310.60 Z" fill="#e2917e" fill-rule="nonzero" node-id="117" stroke="none" target-height="29.700012" target-width="102.70001" target-x="655.3" target-y="295.9"></path><path d="M 741.80 298.40 L 739.00 301.60 L 736.00 304.40 L 732.50 307.00 L 724.40 308.10 L 721.20 308.00 L 717.90 307.40 L 717.40 307.10 L 717.00 305.80 L 712.50 304.50 L 712.50 304.10 L 713.00 303.60 L 714.90 303.60 L 708.10 301.70 L 701.30 300.30 L 701.00 300.20 L 701.20 299.60 L 709.60 300.00 L 720.50 303.00 L 728.80 303.70 L 730.60 303.60 L 733.80 302.60 L 741.80 298.40 Z M 722.70 304.60 L 728.90 305.10 L 732.00 304.80 L 732.80 304.20 L 727.40 304.00 L 722.70 304.30 L 722.70 304.60 Z" fill="#f0d1cd" fill-rule="nonzero" node-id="119" stroke="none" target-height="9.700012" target-width="40.799988" target-x="701" target-y="298.4"></path><path d="M 732.00 304.90 L 728.90 305.20 L 725.80 305.20 L 722.60 304.70 L 722.70 304.30 L 727.40 303.90 L 732.00 304.10 L 733.00 304.40 L 732.00 304.90 Z" fill="#feebe5" fill-rule="nonzero" node-id="121" stroke="none" target-height="1.3000183" target-width="10.400024" target-x="722.6" target-y="303.9"></path><path d="M 708.10 307.30 L 713.60 307.70 L 722.00 309.00 L 724.80 308.80 L 735.40 306.20 L 735.60 306.70 L 735.30 307.40 L 734.30 308.40 L 732.90 309.10 L 728.80 309.90 L 724.60 310.30 L 720.40 310.20 L 716.20 309.70 L 712.10 308.70 L 708.10 307.30 Z" fill="#fbb2b1" fill-rule="nonzero" node-id="123" stroke="none" target-height="4.0999756" target-width="27.5" target-x="708.1" target-y="306.2"></path><path d="M 572.50 310.10 L 571.80 312.20 L 569.50 314.00 L 567.50 314.70 L 563.20 315.40 L 559.10 315.80 L 558.40 315.30 L 558.60 314.10 L 561.30 311.90 L 566.90 308.90 L 570.10 307.90 L 570.90 308.00 L 571.70 308.60 L 572.50 310.10 Z" fill="#f4c5a9" fill-rule="nonzero" node-id="125" stroke="none" target-height="7.899994" target-width="14.099976" target-x="558.4" target-y="307.9"></path><g node-id="318"><path d="M 732.00 310.80 L 730.20 311.40 L 726.00 311.80 L 721.80 311.80 L 720.00 311.40 L 721.70 310.80 L 725.90 310.40 L 730.20 310.40 L 732.00 310.80 Z" fill="#ffa490" fill-rule="nonzero" group-id="1" node-id="129" stroke="none" target-height="1.3999939" target-width="12" target-x="720" target-y="310.4"></path></g><path d="M 251.80 325.60 L 243.10 349.50 L 241.20 351.40 L 240.00 351.90 L 237.30 352.10 L 229.40 350.70 L 227.60 350.10 L 226.10 349.00 L 225.10 347.50 L 224.60 345.70 L 221.70 321.30 L 222.10 319.80 L 223.90 317.50 L 225.20 316.70 L 226.70 316.40 L 246.50 317.80 L 248.00 318.10 L 250.40 319.80 L 251.70 322.50 L 251.80 325.60 Z" fill="#5c84c6" fill-rule="nonzero" node-id="132" stroke="none" target-height="35.700012" target-width="30.100006" target-x="221.7" target-y="316.4"></path><path d="M 558.20 318.00 L 556.10 320.00 L 554.60 322.30 L 553.50 324.80 L 552.90 327.50 L 552.90 330.20 L 553.40 333.50 L 552.90 334.40 L 552.40 334.70 L 548.70 334.90 L 545.80 334.70 L 543.50 334.10 L 541.80 333.30 L 540.50 332.20 L 539.60 330.80 L 539.00 329.00 L 542.00 327.00 L 546.40 321.60 L 548.10 320.10 L 552.30 317.90 L 556.30 316.70 L 557.80 317.20 L 558.20 318.00 Z" fill="#fb381a" fill-rule="nonzero" node-id="134" stroke="none" target-height="18.199982" target-width="19.200012" target-x="539" target-y="316.7"></path><path d="M 758.50 326.40 L 762.30 339.80 L 765.20 351.50 L 765.50 354.60 L 765.40 357.60 L 764.80 360.50 L 763.80 363.40 L 763.50 362.60 L 763.10 362.40 L 761.40 363.60 L 759.90 365.90 L 754.70 376.20 L 752.60 379.50 L 750.20 382.20 L 748.70 382.70 L 748.00 382.50 L 746.80 381.30 L 744.50 376.30 L 738.90 367.10 L 732.10 358.80 L 728.30 355.00 L 719.80 348.30 L 704.80 338.10 L 689.20 328.70 L 681.00 324.50 L 680.80 324.10 L 693.70 324.30 L 706.60 323.90 L 717.50 322.50 L 742.40 318.40 L 745.00 318.30 L 752.90 319.60 L 753.60 320.00 L 758.50 326.40 Z" fill="#ff8044" fill-rule="nonzero" node-id="136" stroke="none" target-height="64.400024" target-width="84.70001" target-x="680.8" target-y="318.3"></path><path d="M 212.40 353.30 L 206.70 357.60 L 205.10 358.40 L 203.40 358.60 L 201.70 358.30 L 187.90 346.90 L 186.40 344.60 L 186.20 341.90 L 187.40 339.50 L 200.00 326.40 L 202.40 325.00 L 205.10 325.00 L 206.30 325.50 L 208.30 327.50 L 214.50 348.10 L 214.70 349.40 L 214.40 350.80 L 213.60 352.10 L 212.40 353.30 Z" fill="#5c84c6" fill-rule="nonzero" node-id="138" stroke="none" target-height="33.600006" target-width="28.5" target-x="186.2" target-y="325"></path><path d="M 683.80 326.10 L 689.30 329.00 L 704.90 338.40 L 719.90 348.60 L 728.30 355.30 L 732.20 359.10 L 739.00 367.40 L 744.60 376.60 L 746.90 381.60 L 748.10 382.60 L 748.90 382.80 L 750.30 382.40 L 752.20 380.40 L 755.40 375.40 L 760.40 365.40 L 762.50 362.70 L 763.10 362.50 L 763.50 362.70 L 763.90 363.60 L 761.50 369.30 L 752.40 387.30 L 752.30 388.40 L 752.70 389.50 L 754.10 390.90 L 753.90 392.80 L 753.30 393.70 L 752.10 392.70 L 749.60 388.30 L 738.80 371.90 L 733.90 365.80 L 731.20 363.00 L 724.20 356.90 L 717.00 351.30 L 709.40 346.20 L 701.60 341.50 L 699.90 340.90 L 699.30 341.00 L 699.10 341.70 L 700.20 345.60 L 700.60 349.20 L 699.70 351.60 L 698.90 352.50 L 695.90 353.90 L 682.10 357.20 L 680.60 357.40 L 679.70 357.20 L 679.10 356.70 L 678.80 355.80 L 678.80 354.30 L 679.50 350.90 L 680.60 348.20 L 682.00 346.00 L 683.70 344.20 L 685.70 342.80 L 689.50 341.10 L 690.50 340.00 L 690.90 338.60 L 690.70 337.10 L 689.50 335.20 L 680.90 328.00 L 680.60 327.40 L 683.80 326.10 Z" fill="#fb381a" fill-rule="nonzero" node-id="140" stroke="none" target-height="67.600006" target-width="85.10004" target-x="678.8" target-y="326.1"></path><path d="M 263.50 341.60 L 268.30 331.60 L 269.30 330.90 L 270.40 330.90 L 292.40 343.90 L 293.10 345.10 L 293.40 346.40 L 293.10 347.90 L 257.90 406.20 L 256.80 406.70 L 256.10 406.70 L 246.80 399.00 L 245.80 397.30 L 245.60 395.40 L 249.10 381.80 L 253.30 368.20 L 258.10 354.80 L 263.50 341.60 Z" fill="#5c84c6" fill-rule="nonzero" node-id="142" stroke="none" target-height="75.80002" target-width="47.799988" target-x="245.6" target-y="330.9"></path><g node-id="319"><path d="M 452.00 337.70 L 453.80 339.80 L 456.00 344.00 L 456.40 345.80 L 456.10 347.80 L 454.80 349.10 L 452.80 349.30 L 451.00 348.90 L 448.90 347.90 L 446.90 346.50 L 444.80 344.60 L 441.70 340.40 L 440.80 338.30 L 440.40 336.50 L 440.70 334.50 L 441.20 333.80 L 442.90 333.00 L 445.80 333.50 L 449.90 335.80 L 452.00 337.70 Z" fill="#ffc156" fill-rule="nonzero" group-id="2" node-id="146" stroke="none" target-height="16.299988" target-width="16" target-x="440.4" target-y="333"></path></g><path d="M 512.10 339.70 L 513.60 341.00 L 514.90 342.90 L 516.10 345.70 L 517.00 349.40 L 517.60 354.30 L 517.60 355.10 L 516.80 356.30 L 516.20 356.70 L 512.20 356.70 L 509.00 356.20 L 505.90 355.20 L 502.90 353.80 L 500.30 352.00 L 497.80 349.80 L 512.10 339.70 Z" fill="#fb381a" fill-rule="nonzero" node-id="149" stroke="none" target-height="17" target-width="19.799988" target-x="497.8" target-y="339.7"></path><path d="M 127.20 372.50 L 130.30 366.80 L 132.00 364.30 L 136.30 360.10 L 140.80 356.80 L 141.70 356.60 L 142.50 357.00 L 142.70 357.70 L 142.40 362.70 L 140.70 372.50 L 139.20 377.20 L 135.20 386.30 L 129.80 394.70 L 128.50 396.00 L 126.90 396.90 L 125.10 397.20 L 123.10 397.10 L 114.90 395.00 L 106.80 392.00 L 103.00 390.10 L 99.70 387.80 L 96.60 384.90 L 91.40 378.40 L 89.30 374.80 L 87.50 371.00 L 86.10 367.00 L 86.20 366.20 L 86.80 365.60 L 91.10 366.10 L 94.80 367.10 L 98.40 368.40 L 101.80 370.10 L 105.10 372.20 L 109.50 375.70 L 110.00 375.70 L 110.30 375.20 L 110.20 373.50 L 108.60 363.90 L 108.00 355.90 L 108.10 352.30 L 108.60 348.90 L 109.50 346.30 L 110.20 345.40 L 111.10 344.90 L 112.20 344.80 L 113.30 345.10 L 114.50 346.30 L 117.70 352.50 L 120.60 359.00 L 125.50 373.10 L 126.40 373.20 L 127.20 372.50 Z" fill="#fb381a" fill-rule="nonzero" node-id="151" stroke="none" target-height="52.400024" target-width="56.6" target-x="86.1" target-y="344.8"></path><path d="M 579.70 356.50 L 579.70 357.50 L 578.10 358.70 L 576.60 359.20 L 574.90 359.30 L 573.10 359.00 L 571.40 358.20 L 569.00 356.50 L 567.60 354.90 L 566.70 353.20 L 566.20 351.50 L 566.20 349.70 L 566.70 348.10 L 567.60 346.70 L 568.30 346.40 L 568.80 346.50 L 579.70 356.50 Z" fill="#fb381a" fill-rule="nonzero" node-id="153" stroke="none" target-height="12.899994" target-width="13.5" target-x="566.2" target-y="346.4"></path><path d="M 619.30 352.40 L 620.70 351.20 L 622.30 349.30 L 623.90 348.20 L 625.60 348.20 L 626.40 348.60 L 626.90 349.40 L 625.80 354.80 L 625.10 356.80 L 624.10 358.40 L 622.40 359.90 L 619.90 360.20 L 618.30 359.90 L 615.30 358.70 L 614.60 358.00 L 614.30 356.00 L 614.70 354.80 L 619.30 352.40 Z" fill="#fe6037" fill-rule="nonzero" node-id="155" stroke="none" target-height="12" target-width="12.600037" target-x="614.3" target-y="348.2"></path><path d="M 472.00 364.10 L 470.50 364.80 L 443.80 373.20 L 439.90 374.10 L 436.10 374.40 L 432.30 374.10 L 428.50 373.20 L 425.00 371.80 L 421.60 369.90 L 422.90 367.80 L 426.10 364.30 L 428.00 362.90 L 432.30 361.00 L 437.00 360.50 L 439.50 360.80 L 455.70 363.10 L 457.70 364.30 L 472.00 364.10 Z" fill="#ffbca9" fill-rule="nonzero" node-id="157" stroke="none" target-height="13.899994" target-width="50.399994" target-x="421.6" target-y="360.5"></path><path d="M 193.80 386.10 L 170.90 387.80 L 169.20 387.60 L 167.80 386.90 L 166.90 385.70 L 166.40 383.20 L 171.10 364.90 L 172.20 362.90 L 173.00 362.30 L 174.60 361.70 L 177.00 361.90 L 200.00 375.40 L 201.20 376.50 L 201.90 378.00 L 202.00 379.60 L 200.90 381.80 L 196.10 385.40 L 193.80 386.10 Z" fill="#5c84c6" fill-rule="nonzero" node-id="159" stroke="none" target-height="26.099976" target-width="35.600006" target-x="166.4" target-y="361.7"></path><path d="M 469.10 365.10 L 472.40 365.60 L 473.10 365.80 L 473.50 366.40 L 472.50 368.60 L 470.10 371.10 L 465.10 371.80 L 460.30 373.20 L 450.70 377.00 L 437.30 381.10 L 431.00 383.80 L 426.20 387.10 L 423.40 388.60 L 420.50 389.80 L 417.30 390.60 L 407.30 391.30 L 422.10 369.80 L 425.50 371.80 L 429.00 373.20 L 432.80 374.00 L 436.60 374.30 L 440.40 374.00 L 444.30 373.10 L 469.10 365.10 Z" fill="#fb381a" fill-rule="nonzero" node-id="161" stroke="none" target-height="26.199982" target-width="66.20001" target-x="407.3" target-y="365.1"></path><path d="M 470.10 371.00 L 467.40 377.30 L 460.80 389.40 L 455.50 402.40 L 450.30 412.80 L 447.50 420.40 L 443.60 429.00 L 440.80 437.30 L 434.50 453.40 L 434.00 450.40 L 430.60 449.30 L 426.60 445.20 L 423.00 441.90 L 419.10 439.10 L 415.00 436.50 L 410.70 434.30 L 403.20 431.20 L 401.20 429.80 L 399.80 428.30 L 398.90 426.50 L 398.60 424.50 L 399.60 419.00 L 399.60 417.10 L 399.20 416.10 L 398.60 415.60 L 397.70 415.50 L 399.20 409.10 L 403.00 398.80 L 407.30 390.90 L 417.30 390.20 L 420.40 389.40 L 423.40 388.30 L 426.20 386.80 L 431.10 383.50 L 437.40 380.80 L 455.50 375.00 L 460.30 372.80 L 463.50 371.80 L 470.10 371.00 Z" fill="#ff8044" fill-rule="nonzero" node-id="163" stroke="none" target-height="82.399994" target-width="72.399994" target-x="397.7" target-y="371"></path><path d="M 805.30 378.90 L 809.50 381.80 L 811.50 383.80 L 814.20 387.10 L 816.60 390.80 L 820.80 398.50 L 823.70 405.40 L 823.80 406.40 L 823.50 407.00 L 822.80 407.40 L 819.60 407.30 L 816.80 406.50 L 809.90 403.80 L 807.40 402.50 L 802.90 398.90 L 801.70 398.40 L 801.10 398.50 L 800.20 399.30 L 799.10 403.80 L 796.40 411.00 L 794.70 414.50 L 793.00 415.90 L 789.60 416.50 L 786.30 416.60 L 783.00 416.20 L 779.80 415.30 L 776.80 414.00 L 772.40 411.30 L 770.40 408.60 L 769.80 407.00 L 768.10 395.20 L 767.90 391.50 L 768.00 390.30 L 768.50 389.30 L 769.40 388.60 L 770.50 388.20 L 777.70 386.60 L 781.40 386.00 L 787.50 385.80 L 791.90 386.90 L 793.90 388.00 L 795.80 389.60 L 797.50 391.80 L 798.50 392.30 L 799.40 391.90 L 798.70 388.00 L 797.50 383.50 L 798.00 382.60 L 805.30 378.90 Z" fill="#fb381a" fill-rule="nonzero" node-id="165" stroke="none" target-height="37.700012" target-width="55.899963" target-x="767.9" target-y="378.9"></path><path d="M 705.00 451.50 L 699.90 451.00 L 696.40 450.30 L 694.70 449.60 L 699.30 448.10 L 701.50 447.00 L 703.00 445.60 L 704.00 443.80 L 704.50 441.70 L 704.50 438.90 L 703.80 435.50 L 702.40 432.60 L 700.50 429.90 L 694.40 424.10 L 688.90 418.20 L 684.70 415.30 L 680.20 413.90 L 678.00 413.90 L 675.80 414.20 L 673.80 414.90 L 671.90 416.20 L 670.30 417.70 L 668.90 419.90 L 667.70 422.60 L 667.70 423.60 L 668.10 424.30 L 668.90 425.00 L 673.90 426.40 L 680.30 430.90 L 681.00 431.60 L 681.00 432.30 L 680.30 433.00 L 677.50 434.70 L 674.60 436.00 L 667.00 438.20 L 665.60 438.90 L 663.20 441.20 L 661.80 444.70 L 660.50 445.60 L 655.70 446.60 L 653.70 445.00 L 651.10 441.90 L 650.30 440.10 L 650.00 438.20 L 651.40 424.50 L 652.40 421.10 L 653.90 417.80 L 655.80 414.70 L 658.20 412.10 L 665.00 407.10 L 668.90 405.20 L 672.50 404.00 L 676.00 403.50 L 679.50 403.50 L 682.90 404.20 L 686.30 405.50 L 690.00 407.30 L 693.50 409.40 L 696.70 411.90 L 699.70 414.60 L 702.40 417.70 L 704.70 421.00 L 706.70 424.50 L 708.40 428.20 L 710.40 434.50 L 710.80 439.20 L 710.00 443.70 L 708.00 447.90 L 705.00 451.50 Z" fill="#2c0707" fill-rule="nonzero" node-id="167" stroke="none" target-height="48" target-width="60.799988" target-x="650" target-y="403.5"></path><path d="M 812.50 405.20 L 816.80 406.70 L 821.60 407.70 L 823.60 407.20 L 823.80 406.60 L 823.70 405.70 L 825.00 412.40 L 826.60 426.00 L 827.00 436.30 L 826.80 446.50 L 826.30 450.60 L 825.70 451.70 L 823.70 453.20 L 800.30 464.60 L 788.40 470.90 L 785.90 472.50 L 784.40 474.10 L 783.50 475.60 L 783.20 477.30 L 783.40 479.20 L 784.30 481.40 L 781.40 484.10 L 780.50 482.20 L 779.60 482.50 L 778.40 483.60 L 777.60 485.00 L 776.70 488.60 L 776.40 489.40 L 775.90 489.60 L 775.50 489.00 L 776.20 485.80 L 778.80 477.40 L 779.20 474.40 L 779.10 470.90 L 777.50 461.40 L 775.30 451.60 L 775.50 450.70 L 776.70 450.80 L 777.20 451.30 L 782.80 467.30 L 783.70 468.10 L 784.70 468.60 L 786.00 468.50 L 803.40 459.20 L 821.60 450.60 L 823.70 448.40 L 824.30 447.00 L 824.70 443.90 L 824.00 423.80 L 823.70 420.70 L 821.70 412.70 L 820.10 410.10 L 817.90 408.20 L 812.50 405.20 Z" fill="#c33935" fill-rule="nonzero" node-id="169" stroke="none" target-height="84.399994" target-width="51.700012" target-x="775.3" target-y="405.2"></path><path d="M 503.00 457.00 L 501.40 456.60 L 499.10 456.80 L 498.80 456.50 L 498.70 454.60 L 499.30 453.50 L 506.80 451.70 L 513.70 449.40 L 520.50 446.50 L 521.90 445.40 L 522.70 443.90 L 522.90 441.60 L 522.10 439.60 L 520.10 438.00 L 517.00 437.40 L 514.20 437.70 L 513.10 437.40 L 510.60 435.80 L 507.20 434.30 L 497.40 433.20 L 489.40 433.00 L 488.40 432.80 L 486.60 431.10 L 485.60 430.60 L 483.90 430.80 L 481.70 433.10 L 480.30 435.30 L 478.20 440.10 L 477.70 442.70 L 477.50 445.40 L 477.80 448.20 L 478.50 450.90 L 479.70 453.40 L 482.10 456.90 L 482.30 458.30 L 482.00 459.00 L 481.50 459.30 L 480.60 459.00 L 477.20 456.80 L 474.50 454.60 L 472.60 452.20 L 471.20 449.80 L 470.40 447.20 L 470.10 444.40 L 470.30 441.30 L 471.20 438.00 L 472.70 434.20 L 477.60 425.50 L 480.50 421.60 L 483.70 417.90 L 487.00 414.80 L 490.60 412.20 L 493.50 410.60 L 496.60 409.30 L 499.80 408.50 L 503.20 408.10 L 506.50 408.10 L 510.10 408.60 L 513.90 409.60 L 518.10 411.30 L 521.10 412.90 L 523.60 415.00 L 525.70 417.40 L 527.50 420.20 L 528.70 423.20 L 529.70 426.70 L 530.30 430.60 L 530.50 435.20 L 530.20 438.60 L 529.30 441.70 L 527.80 444.50 L 526.00 447.00 L 523.70 449.20 L 521.10 451.20 L 515.30 454.30 L 512.20 455.40 L 507.50 456.50 L 503.00 457.00 Z M 503.00 428.10 L 506.90 429.80 L 511.00 430.80 L 515.20 431.30 L 519.50 431.20 L 520.60 430.90 L 521.40 430.20 L 521.90 429.30 L 522.10 427.90 L 520.50 424.40 L 519.20 422.80 L 516.80 420.70 L 514.00 419.00 L 510.90 417.60 L 504.80 416.10 L 501.00 416.20 L 499.80 416.70 L 498.70 417.70 L 489.60 427.50 L 489.00 428.40 L 489.20 428.70 L 498.20 427.30 L 500.40 427.30 L 503.00 428.10 Z" fill="#2c0707" fill-rule="nonzero" node-id="171" stroke="none" target-height="51.19998" target-width="60.399994" target-x="470.1" target-y="408.1"></path><path d="M 698.10 427.60 L 697.90 428.30 L 696.70 428.90 L 689.30 427.40 L 685.60 427.10 L 678.10 427.60 L 676.20 426.80 L 674.00 426.60 L 668.40 424.90 L 667.80 423.70 L 667.80 422.80 L 669.00 420.10 L 670.40 417.90 L 672.00 416.40 L 673.90 415.10 L 676.00 414.40 L 678.10 414.10 L 680.30 414.10 L 682.60 414.60 L 687.00 416.80 L 689.10 418.40 L 694.40 424.20 L 698.10 427.60 Z" fill="#f6f7f9" fill-rule="nonzero" node-id="173" stroke="none" target-height="14.799988" target-width="30.299988" target-x="667.8" target-y="414.1"></path><path d="M 397.70 415.70 L 398.70 415.80 L 399.30 416.40 L 399.60 417.40 L 399.60 419.30 L 398.50 424.50 L 398.70 426.30 L 399.50 428.00 L 400.80 429.70 L 403.00 431.20 L 410.70 434.50 L 415.00 436.70 L 419.10 439.30 L 423.00 442.10 L 426.60 445.30 L 430.60 449.50 L 434.00 450.60 L 434.30 451.30 L 434.50 453.40 L 433.10 456.00 L 432.50 456.20 L 431.90 456.00 L 426.00 448.80 L 420.00 443.50 L 413.20 439.10 L 401.10 433.10 L 399.40 431.80 L 397.30 429.30 L 396.70 425.00 L 396.70 421.90 L 397.70 415.70 Z" fill="#c33935" fill-rule="nonzero" node-id="175" stroke="none" target-height="40.5" target-width="37.799988" target-x="396.7" target-y="415.7"></path><path d="M 503.00 428.10 L 501.50 427.60 L 499.10 427.40 L 495.40 427.50 L 490.10 428.30 L 489.00 428.30 L 488.80 428.00 L 499.30 416.60 L 501.00 415.70 L 504.60 415.70 L 510.70 417.30 L 513.80 418.60 L 516.60 420.40 L 519.00 422.40 L 520.30 424.00 L 521.90 427.50 L 521.50 429.60 L 520.70 430.40 L 519.80 430.80 L 516.70 431.10 L 511.00 430.80 L 508.20 430.20 L 503.00 428.10 Z" fill="#feebe5" fill-rule="nonzero" node-id="177" stroke="none" target-height="15.399994" target-width="33.100037" target-x="488.8" target-y="415.7"></path><path d="M 232.00 465.80 L 225.50 468.50 L 219.00 471.50 L 212.80 475.00 L 202.40 481.90 L 198.10 485.20 L 194.20 488.80 L 190.60 492.80 L 187.30 497.10 L 184.40 501.60 L 181.90 506.40 L 179.70 511.40 L 178.20 517.60 L 177.30 535.30 L 175.90 544.10 L 175.20 553.90 L 174.00 562.80 L 174.00 599.10 L 158.10 591.90 L 139.20 584.20 L 136.70 582.60 L 134.30 580.70 L 132.20 578.40 L 130.50 575.90 L 129.10 573.10 L 128.40 571.00 L 128.20 569.10 L 128.50 567.40 L 129.50 564.90 L 131.20 562.10 L 136.90 554.10 L 149.10 538.70 L 149.60 537.80 L 142.80 521.70 L 140.30 514.80 L 138.20 507.70 L 136.60 500.70 L 135.40 493.70 L 134.60 486.60 L 134.20 479.20 L 134.30 471.40 L 134.60 470.00 L 135.30 468.80 L 136.40 467.80 L 137.90 467.30 L 149.40 465.60 L 161.10 464.50 L 172.80 463.90 L 184.50 464.00 L 186.30 463.40 L 186.90 462.60 L 191.80 452.50 L 197.00 442.40 L 202.60 432.60 L 208.40 423.00 L 210.40 420.50 L 212.70 418.20 L 213.70 417.80 L 214.80 418.00 L 222.00 421.80 L 231.50 428.00 L 240.80 434.60 L 249.70 441.60 L 258.40 448.90 L 266.70 456.70 L 268.20 458.80 L 267.80 459.60 L 267.00 459.90 L 253.70 460.30 L 248.10 461.10 L 242.60 462.30 L 237.20 463.80 L 232.00 465.80 Z" fill="#4c6daa" fill-rule="nonzero" node-id="179" stroke="none" target-height="181.29999" target-width="140.00002" target-x="128.2" target-y="417.8"></path><g node-id="320"><path d="M 574.00 424.90 L 577.10 425.90 L 578.00 426.70 L 578.20 427.40 L 577.80 428.00 L 576.70 428.50 L 575.20 428.70 L 571.70 428.20 L 569.50 426.80 L 569.30 426.10 L 569.70 425.50 L 570.80 425.00 L 574.00 424.90 Z" fill="#fe6037" fill-rule="nonzero" group-id="3" node-id="183" stroke="none" target-height="3.8000183" target-width="8.900024" target-x="569.3" target-y="424.9"></path></g><path d="M 674.00 426.70 L 676.10 426.90 L 678.10 427.70 L 693.10 428.20 L 696.70 429.00 L 697.90 428.40 L 698.10 427.70 L 700.50 430.00 L 702.40 432.60 L 703.80 435.60 L 704.40 438.60 L 704.50 441.00 L 704.20 443.00 L 703.50 444.70 L 702.40 446.20 L 700.90 447.40 L 698.90 448.30 L 694.60 449.70 L 696.40 450.40 L 705.00 451.60 L 696.70 452.00 L 688.50 451.80 L 680.20 451.30 L 672.00 450.20 L 664.00 448.70 L 656.00 446.80 L 661.30 445.70 L 661.70 445.40 L 663.40 441.40 L 665.70 439.10 L 667.20 438.40 L 672.10 437.30 L 675.10 436.20 L 678.00 434.90 L 681.30 432.50 L 681.30 431.80 L 680.60 431.10 L 674.00 426.70 Z" fill="#7a2433" fill-rule="nonzero" node-id="186" stroke="none" target-height="25.299988" target-width="49" target-x="656" target-y="426.7"></path><path d="M 678.00 427.60 L 681.80 427.10 L 685.50 427.00 L 689.20 427.40 L 693.00 428.10 L 678.00 427.60 Z" fill="#b56967" fill-rule="nonzero" node-id="188" stroke="none" target-height="1.1000061" target-width="15" target-x="678" target-y="427"></path><path d="M 503.00 457.00 L 501.10 457.40 L 499.20 457.50 L 498.30 457.20 L 497.80 454.00 L 497.20 452.30 L 496.20 451.10 L 494.90 450.20 L 493.10 449.60 L 488.90 449.50 L 484.80 450.80 L 483.00 452.10 L 482.10 453.10 L 481.30 455.80 L 479.70 453.50 L 478.50 451.00 L 477.80 448.40 L 477.50 445.50 L 478.20 440.20 L 480.20 435.40 L 481.70 433.20 L 483.90 430.80 L 485.60 430.70 L 486.60 431.20 L 488.40 432.80 L 489.40 433.10 L 497.50 433.40 L 507.20 434.40 L 508.90 435.00 L 513.70 437.80 L 517.00 437.40 L 518.60 437.50 L 520.00 438.00 L 522.20 439.70 L 522.80 440.70 L 523.20 443.00 L 522.40 445.30 L 521.60 446.00 L 513.90 449.40 L 507.00 451.70 L 499.20 453.70 L 498.90 456.00 L 499.30 456.90 L 503.00 457.00 Z" fill="#4d1610" fill-rule="nonzero" node-id="190" stroke="none" target-height="26.799988" target-width="45.700012" target-x="477.5" target-y="430.7"></path><path d="M 629.30 467.00 L 624.60 465.80 L 620.00 464.00 L 615.70 461.80 L 611.60 459.00 L 607.90 455.90 L 601.80 450.00 L 599.10 448.30 L 596.40 447.10 L 593.40 446.50 L 590.40 446.30 L 584.30 447.10 L 578.10 449.20 L 569.50 453.80 L 559.00 461.10 L 555.70 462.90 L 552.10 464.20 L 548.40 465.20 L 544.70 465.60 L 541.10 465.30 L 538.90 464.80 L 536.80 463.90 L 534.40 462.20 L 534.10 460.10 L 535.00 459.20 L 536.70 459.10 L 543.20 460.40 L 546.50 460.60 L 553.00 459.80 L 559.30 457.60 L 562.20 456.00 L 571.30 449.60 L 578.30 446.10 L 585.90 443.80 L 591.80 443.40 L 597.20 444.50 L 600.50 445.80 L 603.80 447.50 L 611.40 453.30 L 615.70 457.20 L 618.60 459.30 L 621.70 461.00 L 625.00 462.20 L 628.40 462.90 L 634.90 464.20 L 642.20 465.10 L 643.20 466.40 L 643.00 468.10 L 642.50 468.80 L 639.10 469.70 L 637.00 469.70 L 635.10 469.20 L 629.30 467.00 Z" fill="#fe6037" fill-rule="nonzero" node-id="192" stroke="none" target-height="26.300018" target-width="109.10004" target-x="534.1" target-y="443.4"></path><path d="M 712.40 474.20 L 712.40 472.70 L 712.00 472.10 L 710.70 471.40 L 707.30 471.70 L 704.40 471.60 L 701.60 471.00 L 697.50 469.50 L 696.00 469.30 L 693.20 469.90 L 692.00 470.70 L 687.80 476.30 L 687.10 476.60 L 685.70 476.20 L 684.50 475.30 L 684.20 474.10 L 684.30 473.40 L 691.90 459.80 L 692.70 458.90 L 709.10 454.20 L 711.70 454.20 L 714.20 454.60 L 717.10 455.80 L 717.60 457.20 L 717.70 460.30 L 718.40 463.10 L 719.70 465.60 L 721.10 467.10 L 723.30 468.70 L 724.50 470.50 L 724.50 474.20 L 724.00 476.90 L 722.10 482.00 L 720.00 485.50 L 717.50 488.60 L 714.60 491.40 L 711.40 493.80 L 707.90 495.80 L 704.20 497.30 L 700.60 498.50 L 697.30 499.20 L 694.30 499.40 L 691.40 499.20 L 688.70 498.50 L 686.00 497.30 L 683.50 495.50 L 680.40 492.40 L 680.10 490.50 L 680.50 489.60 L 684.10 483.40 L 685.30 482.50 L 687.20 482.90 L 688.80 484.70 L 692.10 490.10 L 693.40 491.50 L 695.10 492.40 L 698.20 492.60 L 703.90 491.10 L 706.50 489.70 L 708.50 488.00 L 710.00 485.90 L 711.10 483.50 L 711.70 480.50 L 711.80 476.90 L 712.40 474.20 Z" fill="#fb381a" fill-rule="nonzero" node-id="194" stroke="none" target-height="45.19998" target-width="44.400024" target-x="680.1" target-y="454.2"></path><path d="M 672.80 460.10 L 674.40 460.90 L 675.40 461.90 L 677.30 465.20 L 679.30 467.60 L 679.70 469.10 L 679.60 470.70 L 678.80 472.30 L 677.90 473.20 L 674.60 474.00 L 672.60 473.90 L 670.80 473.40 L 669.20 472.60 L 666.50 469.90 L 664.70 466.40 L 664.00 462.30 L 664.50 458.20 L 665.40 456.90 L 667.40 456.60 L 668.80 456.90 L 670.00 457.60 L 671.90 459.60 L 672.80 460.10 Z" fill="#fb381a" fill-rule="nonzero" node-id="196" stroke="none" target-height="17.399994" target-width="15.700012" target-x="664" target-y="456.6"></path><path d="M 348.30 505.50 L 344.10 510.40 L 343.50 510.60 L 340.60 510.20 L 339.00 510.40 L 337.90 511.10 L 337.20 512.30 L 336.80 514.30 L 337.00 521.60 L 338.20 528.60 L 338.60 529.60 L 339.30 530.30 L 340.20 530.60 L 341.30 530.50 L 342.70 529.80 L 344.10 527.90 L 345.30 524.20 L 346.30 523.00 L 347.70 522.30 L 350.10 522.10 L 351.10 521.60 L 352.10 517.90 L 354.60 525.90 L 356.60 534.10 L 358.20 542.30 L 359.30 550.60 L 351.50 547.60 L 343.60 545.10 L 335.70 543.10 L 327.60 541.50 L 319.40 540.50 L 311.20 539.90 L 303.00 539.80 L 294.60 540.30 L 265.70 542.90 L 264.20 542.40 L 263.60 541.00 L 264.30 532.90 L 264.10 529.00 L 263.40 525.20 L 262.40 522.70 L 261.00 520.60 L 259.10 518.90 L 254.30 516.40 L 251.50 515.60 L 247.10 514.90 L 242.80 514.80 L 238.60 515.10 L 235.20 515.90 L 236.20 513.40 L 236.90 510.90 L 237.20 507.30 L 238.60 503.70 L 238.80 500.90 L 238.40 499.50 L 236.70 497.50 L 234.40 496.60 L 228.80 497.20 L 225.10 497.10 L 221.60 496.50 L 217.00 494.90 L 216.10 494.90 L 213.20 496.10 L 210.90 496.60 L 208.60 496.60 L 206.30 496.20 L 205.00 495.50 L 202.70 492.60 L 199.90 489.80 L 199.50 488.50 L 199.60 487.10 L 200.30 485.70 L 207.40 479.00 L 213.40 475.10 L 219.60 471.60 L 226.00 468.50 L 232.70 465.90 L 239.40 464.70 L 246.20 463.90 L 253.00 463.60 L 259.80 463.70 L 266.60 464.20 L 273.30 465.20 L 277.00 466.10 L 292.90 472.20 L 296.90 473.40 L 301.00 474.20 L 304.90 474.40 L 307.50 474.20 L 310.10 473.50 L 314.20 471.90 L 315.80 471.60 L 319.50 472.20 L 321.60 473.00 L 328.00 477.10 L 331.80 480.30 L 335.40 483.70 L 338.70 487.60 L 341.60 491.70 L 344.20 496.00 L 346.40 500.60 L 348.30 505.50 Z M 274.00 531.70 L 276.60 532.90 L 279.70 533.10 L 288.40 532.60 L 292.80 532.80 L 301.40 533.80 L 314.30 533.30 L 315.30 533.00 L 315.70 532.10 L 316.30 528.80 L 316.30 525.60 L 315.90 522.40 L 314.90 519.30 L 313.50 516.40 L 311.60 513.70 L 308.70 510.50 L 305.80 507.90 L 302.90 505.80 L 299.90 504.30 L 296.90 503.30 L 293.90 502.70 L 290.80 502.50 L 287.60 502.80 L 284.30 503.60 L 280.70 504.80 L 276.90 506.70 L 270.90 510.70 L 269.30 512.50 L 268.20 514.70 L 267.40 517.10 L 267.60 519.50 L 271.70 529.50 L 274.00 531.70 Z" fill="#fe6048" fill-rule="nonzero" node-id="198" stroke="none" target-height="86.99997" target-width="159.79999" target-x="199.5" target-y="463.6"></path><path d="M 476.50 472.70 L 478.40 473.30 L 479.80 474.80 L 480.00 475.50 L 479.50 476.70 L 468.50 481.30 L 466.60 481.60 L 463.80 480.30 L 462.00 478.90 L 460.40 477.20 L 459.30 475.30 L 458.90 472.50 L 459.20 471.00 L 460.20 469.10 L 461.80 467.40 L 462.90 466.90 L 464.20 466.70 L 466.60 467.10 L 468.90 467.90 L 471.10 469.20 L 474.20 471.80 L 476.50 472.70 Z" fill="#fb381a" fill-rule="nonzero" node-id="200" stroke="none" target-height="14.899994" target-width="21.100006" target-x="458.9" target-y="466.7"></path><path d="M 206.90 479.00 L 200.20 485.40 L 199.40 486.60 L 199.20 488.00 L 199.40 489.40 L 200.20 490.70 L 202.50 492.80 L 204.90 495.80 L 206.10 496.50 L 210.70 496.80 L 213.00 496.40 L 216.20 495.20 L 217.10 495.20 L 221.30 496.80 L 225.00 497.60 L 227.50 497.70 L 233.70 496.80 L 235.00 496.90 L 237.30 498.30 L 238.10 499.40 L 238.60 500.70 L 238.60 503.00 L 236.90 508.60 L 236.50 512.60 L 235.00 516.20 L 233.30 516.90 L 227.70 517.30 L 222.30 518.30 L 217.00 519.90 L 211.90 522.10 L 207.10 524.80 L 202.50 528.10 L 200.40 530.80 L 199.30 534.10 L 199.40 537.40 L 198.60 533.00 L 197.70 532.60 L 196.70 533.30 L 195.60 536.40 L 194.30 542.80 L 194.30 549.30 L 195.10 554.80 L 194.80 557.10 L 193.50 559.90 L 191.90 561.60 L 190.60 561.80 L 190.00 561.40 L 187.00 559.00 L 184.50 556.20 L 182.40 553.20 L 180.00 547.80 L 179.30 547.10 L 178.60 547.10 L 177.90 547.70 L 176.80 549.70 L 175.50 554.10 L 174.70 565.70 L 173.70 572.80 L 173.50 566.10 L 173.90 559.40 L 175.40 544.00 L 176.80 535.30 L 177.70 517.60 L 179.20 511.40 L 181.50 506.40 L 184.10 501.60 L 187.10 497.10 L 190.40 492.90 L 194.10 488.90 L 198.00 485.30 L 202.30 482.00 L 206.90 479.00 Z" fill="#c33935" fill-rule="nonzero" node-id="202" stroke="none" target-height="93.79999" target-width="65.100006" target-x="173.5" target-y="479"></path><path d="M 784.30 481.10 L 787.90 495.90 L 788.20 496.70 L 789.40 498.00 L 816.10 504.30 L 817.50 505.00 L 818.60 506.20 L 819.20 507.70 L 819.20 509.60 L 807.30 539.90 L 807.30 540.70 L 807.90 541.90 L 808.50 542.30 L 809.10 542.50 L 812.00 541.70 L 813.80 541.70 L 815.30 542.30 L 816.60 543.50 L 817.70 545.50 L 818.50 548.50 L 818.50 552.40 L 817.40 556.90 L 817.90 557.50 L 819.90 557.40 L 822.50 556.50 L 830.90 556.20 L 838.10 554.70 L 838.80 554.70 L 839.90 555.30 L 840.20 556.60 L 837.80 567.60 L 836.40 568.10 L 834.40 569.90 L 833.20 572.70 L 832.80 574.80 L 833.00 575.70 L 842.60 581.30 L 843.20 581.30 L 845.60 580.10 L 851.70 580.00 L 856.40 579.50 L 860.80 578.50 L 864.90 577.00 L 868.70 575.00 L 872.20 572.50 L 875.60 569.40 L 878.70 565.70 L 881.70 561.40 L 884.80 560.90 L 885.90 561.90 L 887.20 564.10 L 887.30 566.70 L 886.90 568.10 L 885.30 572.10 L 883.40 575.40 L 881.20 578.30 L 878.60 580.80 L 875.70 583.10 L 872.60 585.00 L 867.70 587.40 L 862.30 589.40 L 851.10 592.70 L 847.80 593.40 L 844.40 593.40 L 826.80 590.30 L 821.60 587.00 L 816.70 583.30 L 812.10 579.10 L 807.80 574.60 L 804.00 569.80 L 800.50 564.50 L 797.60 558.90 L 792.60 547.30 L 777.50 504.80 L 777.00 503.90 L 775.00 502.30 L 774.20 501.00 L 773.90 499.10 L 774.00 496.40 L 775.00 488.80 L 775.40 489.30 L 775.90 489.10 L 777.10 484.80 L 777.90 483.40 L 779.10 482.30 L 779.80 482.10 L 780.20 482.20 L 780.80 483.90 L 784.30 481.10 Z" fill="#734461" fill-rule="nonzero" node-id="204" stroke="none" target-height="112.30002" target-width="113.39996" target-x="773.9" target-y="481.1"></path><path d="M 464.80 492.30 L 470.80 495.90 L 471.90 498.10 L 471.50 499.30 L 470.80 500.10 L 469.60 500.30 L 465.50 499.10 L 461.70 497.40 L 459.30 496.00 L 455.00 492.40 L 453.30 489.80 L 452.90 488.30 L 452.90 486.70 L 453.10 484.60 L 453.70 483.40 L 454.80 483.20 L 456.00 483.70 L 461.50 489.80 L 464.80 492.30 Z" fill="#fb381a" fill-rule="nonzero" node-id="206" stroke="none" target-height="17.099976" target-width="19" target-x="452.9" target-y="483.2"></path><path d="M 443.10 527.40 L 433.00 513.40 L 428.10 505.00 L 425.40 497.10 L 425.40 495.00 L 425.90 493.00 L 426.10 492.70 L 426.90 492.70 L 427.30 493.20 L 432.00 505.10 L 434.30 509.40 L 436.10 512.10 L 446.10 524.80 L 449.20 528.40 L 452.60 531.80 L 456.40 534.80 L 460.40 537.50 L 467.80 541.80 L 467.70 542.10 L 466.90 542.00 L 460.60 540.30 L 453.50 537.20 L 450.10 535.20 L 447.20 532.90 L 445.50 531.20 L 443.10 527.40 Z" fill="#c33935" fill-rule="nonzero" node-id="208" stroke="none" target-height="49.399963" target-width="42.399994" target-x="425.4" target-y="492.7"></path><path d="M 774.80 496.10 L 774.70 498.80 L 775.00 500.70 L 775.80 502.00 L 777.80 503.50 L 778.30 504.50 L 793.40 547.00 L 795.70 552.90 L 801.30 564.20 L 801.60 567.00 L 803.80 571.60 L 803.20 575.10 L 802.00 577.80 L 801.00 579.00 L 799.70 579.70 L 798.30 579.80 L 793.50 577.70 L 792.00 577.80 L 790.50 578.30 L 789.60 579.10 L 787.20 588.10 L 785.70 591.90 L 784.70 593.50 L 782.50 595.80 L 782.00 596.80 L 781.80 598.70 L 781.20 598.10 L 780.30 596.20 L 779.80 594.20 L 779.60 589.70 L 778.70 589.90 L 778.10 594.70 L 777.70 595.10 L 777.00 594.60 L 776.80 592.40 L 777.10 590.20 L 777.70 588.10 L 779.20 585.10 L 779.20 581.70 L 780.40 572.70 L 780.00 566.60 L 778.40 559.30 L 776.50 554.00 L 774.20 548.80 L 768.70 538.30 L 765.80 534.90 L 764.80 533.00 L 764.50 537.50 L 757.50 525.80 L 758.00 524.40 L 761.50 520.10 L 767.60 511.10 L 772.70 501.30 L 774.80 496.10 Z" fill="#fe6048" fill-rule="nonzero" node-id="210" stroke="none" target-height="102.600006" target-width="46.299988" target-x="757.5" target-y="496.1"></path><path d="M 274.00 531.70 L 272.90 530.60 L 272.10 529.30 L 267.70 518.10 L 268.60 514.50 L 269.70 512.40 L 271.30 510.50 L 277.70 506.30 L 281.80 504.40 L 285.70 503.20 L 289.30 502.60 L 292.70 502.50 L 296.10 502.90 L 299.30 503.80 L 302.50 505.30 L 305.70 507.30 L 308.80 510.10 L 312.00 513.50 L 313.90 516.30 L 315.30 519.20 L 316.30 522.30 L 316.70 525.40 L 316.70 528.60 L 316.10 531.90 L 315.70 532.80 L 314.70 533.10 L 306.10 533.60 L 301.80 533.60 L 293.20 532.50 L 288.80 532.30 L 278.60 533.00 L 275.30 532.40 L 274.00 531.70 Z M 299.60 512.10 L 297.70 511.90 L 296.00 512.80 L 294.40 515.00 L 293.30 517.30 L 292.60 519.80 L 292.40 522.30 L 292.70 524.80 L 293.40 527.40 L 294.10 528.40 L 295.10 529.10 L 300.80 529.90 L 305.20 529.60 L 306.30 529.10 L 307.10 528.30 L 307.70 527.20 L 308.00 525.50 L 307.90 522.70 L 307.20 520.00 L 306.00 517.50 L 304.30 515.30 L 302.20 513.50 L 299.60 512.10 Z" fill="#a7343f" fill-rule="nonzero" node-id="212" stroke="none" target-height="31.099976" target-width="49" target-x="267.7" target-y="502.5"></path><path d="M 348.30 505.50 L 352.40 517.90 L 351.60 521.50 L 350.70 522.30 L 348.20 522.40 L 346.80 523.00 L 345.70 524.10 L 344.10 528.00 L 342.90 530.00 L 342.00 530.60 L 341.10 530.80 L 340.20 530.70 L 338.80 529.40 L 338.60 528.60 L 337.40 521.40 L 337.20 514.30 L 337.50 512.70 L 338.00 511.60 L 338.80 510.80 L 339.80 510.30 L 341.30 510.20 L 343.90 510.60 L 344.50 510.30 L 348.30 505.50 Z" fill="#c33935" fill-rule="nonzero" node-id="214" stroke="none" target-height="25.299988" target-width="15.199982" target-x="337.2" target-y="505.5"></path><path d="M 299.60 512.10 L 302.20 513.40 L 304.30 515.20 L 306.00 517.40 L 307.10 519.90 L 307.70 522.60 L 307.40 527.20 L 306.80 528.30 L 306.00 529.10 L 304.90 529.60 L 300.50 529.90 L 294.80 529.10 L 293.80 528.40 L 293.10 527.40 L 292.40 524.80 L 292.20 522.30 L 292.50 519.80 L 293.10 517.30 L 294.20 515.00 L 295.70 512.80 L 297.70 511.90 L 299.60 512.10 Z" fill="#fe6048" fill-rule="nonzero" node-id="216" stroke="none" target-height="18.00003" target-width="15.5" target-x="292.2" target-y="511.9"></path><path d="M 359.50 550.80 L 361.60 553.90 L 363.20 557.10 L 364.50 560.50 L 365.40 564.00 L 365.80 567.60 L 366.10 573.70 L 367.30 577.80 L 365.90 576.90 L 365.80 577.30 L 366.10 588.20 L 365.50 597.30 L 364.50 601.60 L 362.50 607.50 L 362.00 607.80 L 355.20 608.50 L 341.80 609.00 L 331.80 608.80 L 311.40 607.10 L 290.30 604.30 L 255.80 596.80 L 243.10 596.10 L 241.00 596.70 L 239.20 597.90 L 237.00 600.30 L 233.50 601.70 L 231.80 603.70 L 230.70 607.60 L 227.60 608.90 L 227.30 604.10 L 227.60 599.10 L 228.40 594.20 L 229.70 589.30 L 230.30 588.20 L 231.30 587.40 L 232.50 587.10 L 238.70 588.30 L 243.10 588.70 L 246.90 588.50 L 250.30 587.80 L 253.40 586.60 L 256.20 584.90 L 258.80 582.70 L 261.10 579.90 L 263.10 576.40 L 265.00 572.10 L 266.50 566.90 L 266.60 562.60 L 266.30 558.80 L 265.50 555.40 L 264.20 552.40 L 262.50 549.70 L 260.40 547.30 L 257.80 545.20 L 253.40 542.90 L 252.70 543.10 L 252.30 543.70 L 252.20 545.00 L 253.20 547.20 L 254.60 549.30 L 253.90 553.00 L 252.80 556.10 L 251.30 558.70 L 249.40 560.80 L 247.10 562.40 L 244.30 563.70 L 241.00 564.60 L 238.20 564.80 L 235.30 564.40 L 232.40 563.40 L 226.30 560.50 L 223.40 558.40 L 222.70 557.40 L 222.10 554.90 L 222.80 552.40 L 226.20 547.60 L 230.60 544.00 L 235.70 541.70 L 238.50 541.00 L 246.20 540.60 L 247.50 540.00 L 247.00 538.70 L 242.60 534.50 L 240.00 531.40 L 237.90 528.00 L 236.10 524.40 L 234.70 520.80 L 233.80 516.90 L 234.90 516.40 L 238.80 515.40 L 243.00 515.10 L 247.30 515.20 L 251.70 515.90 L 254.50 516.70 L 259.30 519.20 L 261.30 520.90 L 262.70 523.00 L 263.70 525.50 L 264.40 529.30 L 264.60 533.10 L 263.90 541.70 L 264.80 542.90 L 265.60 543.20 L 295.00 540.60 L 303.20 540.10 L 311.40 540.20 L 319.60 540.70 L 327.70 541.80 L 335.80 543.30 L 343.80 545.30 L 351.70 547.80 L 359.50 550.80 Z" fill="#fef2e1" fill-rule="nonzero" node-id="218" stroke="none" target-height="93.900024" target-width="145.19998" target-x="222.1" target-y="515.1"></path><path d="M 233.40 516.70 L 234.30 520.70 L 235.70 524.50 L 237.50 528.00 L 239.60 531.40 L 242.20 534.40 L 246.60 538.50 L 247.10 539.90 L 245.80 540.50 L 241.00 540.40 L 238.10 540.70 L 235.40 541.30 L 230.30 543.70 L 225.80 547.40 L 222.40 552.20 L 221.70 554.70 L 222.30 557.20 L 224.10 559.10 L 232.00 563.20 L 236.20 564.30 L 240.60 564.40 L 244.00 563.60 L 246.70 562.30 L 249.00 560.60 L 250.90 558.60 L 252.40 556.00 L 253.50 552.90 L 254.20 549.10 L 254.50 552.00 L 254.30 554.80 L 253.50 557.60 L 252.20 560.30 L 250.20 563.00 L 247.50 565.80 L 244.30 567.90 L 242.50 568.70 L 236.60 569.60 L 229.90 569.30 L 227.50 568.40 L 225.30 567.10 L 223.40 565.30 L 220.90 561.90 L 218.80 558.20 L 217.20 554.30 L 215.30 548.60 L 214.10 547.20 L 212.80 546.40 L 211.40 546.00 L 209.30 546.10 L 208.80 546.30 L 206.50 549.40 L 205.40 550.10 L 204.00 550.50 L 201.00 544.00 L 199.90 540.50 L 199.00 535.20 L 199.50 531.90 L 201.10 528.90 L 202.30 527.60 L 207.00 524.50 L 211.90 521.90 L 217.10 519.80 L 222.40 518.10 L 227.80 517.10 L 233.40 516.70 Z" fill="#ffbca9" fill-rule="nonzero" node-id="220" stroke="none" target-height="52.899963" target-width="55.5" target-x="199" target-y="516.7"></path><path d="M 758.30 529.10 L 759.30 531.30 L 759.20 532.70 L 758.90 533.10 L 754.70 533.90 L 751.50 533.90 L 748.30 533.60 L 740.50 531.60 L 732.80 529.30 L 730.20 527.80 L 730.20 526.80 L 732.80 525.20 L 737.60 524.10 L 745.00 523.20 L 750.60 524.00 L 753.10 525.10 L 755.70 526.70 L 758.30 529.10 Z" fill="#ffd9bf" fill-rule="nonzero" node-id="222" stroke="none" target-height="10.700012" target-width="29.099976" target-x="730.2" target-y="523.2"></path><path d="M 899.20 524.60 L 896.70 527.10 L 894.70 530.00 L 893.30 533.10 L 888.50 549.20 L 885.60 555.50 L 882.50 561.40 L 879.50 565.80 L 876.40 569.50 L 873.00 572.50 L 869.50 575.10 L 865.70 577.10 L 861.60 578.60 L 857.20 579.60 L 852.50 580.10 L 846.40 580.10 L 843.90 581.30 L 843.30 581.30 L 834.30 576.20 L 833.70 575.60 L 834.10 572.40 L 834.80 570.50 L 835.80 569.20 L 837.10 568.20 L 838.60 567.60 L 861.00 567.60 L 863.60 566.90 L 866.60 564.30 L 868.10 562.20 L 876.10 549.90 L 882.30 541.80 L 887.90 532.40 L 890.80 526.20 L 891.80 525.20 L 893.10 524.50 L 894.70 524.20 L 899.20 524.60 Z" fill="#da504a" fill-rule="nonzero" node-id="224" stroke="none" target-height="57.099976" target-width="65.5" target-x="833.7" target-y="524.2"></path><path d="M 899.20 524.60 L 900.90 526.00 L 902.30 527.80 L 903.30 529.90 L 904.20 536.60 L 904.90 549.90 L 904.70 556.50 L 903.30 569.70 L 900.40 582.70 L 898.10 589.70 L 895.40 596.60 L 892.30 603.20 L 885.10 616.00 L 876.70 627.90 L 872.00 633.60 L 865.40 642.40 L 859.30 651.50 L 855.90 655.40 L 850.90 658.90 L 844.40 662.80 L 834.20 670.60 L 826.90 675.60 L 819.30 680.20 L 811.40 684.20 L 803.40 687.70 L 795.10 690.70 L 791.40 692.60 L 788.50 695.90 L 787.20 698.40 L 785.10 704.10 L 784.20 702.40 L 783.60 700.30 L 783.50 697.70 L 784.00 694.40 L 786.20 685.70 L 786.90 681.00 L 787.10 676.20 L 787.00 671.40 L 786.10 661.20 L 784.60 651.10 L 781.80 637.80 L 781.60 632.60 L 782.20 632.10 L 783.40 632.40 L 784.40 633.40 L 784.80 634.60 L 785.20 635.00 L 786.50 635.30 L 806.90 625.10 L 809.30 624.80 L 816.90 620.10 L 817.20 620.10 L 817.90 620.80 L 821.80 619.20 L 826.70 618.80 L 827.80 618.20 L 828.70 617.20 L 829.10 616.00 L 828.60 590.20 L 846.20 593.30 L 849.60 593.20 L 852.90 592.60 L 864.10 589.30 L 869.50 587.30 L 874.50 584.90 L 877.60 583.00 L 880.40 580.70 L 883.00 578.20 L 885.20 575.30 L 887.10 572.00 L 888.70 568.00 L 889.10 565.40 L 888.00 562.30 L 886.60 560.80 L 883.50 561.30 L 889.50 549.10 L 891.60 542.80 L 893.30 536.40 L 894.00 531.90 L 896.00 528.00 L 899.20 524.60 Z M 862.40 616.30 L 863.40 615.40 L 864.00 614.10 L 864.20 612.60 L 863.50 609.20 L 862.60 607.50 L 860.00 604.80 L 857.00 603.70 L 855.50 603.70 L 854.20 604.20 L 853.20 605.10 L 852.60 606.40 L 852.50 609.60 L 854.00 613.00 L 855.30 614.50 L 858.10 616.40 L 859.70 616.80 L 861.10 616.80 L 862.40 616.30 Z" fill="#a7343f" fill-rule="nonzero" node-id="226" stroke="none" target-height="179.5" target-width="123.30005" target-x="781.6" target-y="524.6"></path><path d="M 775.00 575.40 L 776.50 573.30 L 777.40 570.90 L 777.80 570.40 L 778.70 573.80 L 778.90 576.70 L 778.50 579.60 L 777.60 582.40 L 775.60 586.50 L 773.30 590.20 L 770.60 593.70 L 767.60 597.00 L 764.70 598.90 L 762.00 601.20 L 758.00 606.00 L 756.30 607.60 L 754.70 608.60 L 752.90 609.20 L 750.80 609.30 L 748.20 608.90 L 746.90 608.00 L 746.70 607.30 L 746.90 605.90 L 752.00 601.10 L 752.00 599.70 L 751.10 598.60 L 728.40 597.20 L 726.50 596.50 L 723.00 594.60 L 697.10 570.50 L 692.80 567.30 L 688.00 563.00 L 685.80 560.50 L 684.30 558.10 L 683.60 556.40 L 683.30 554.80 L 683.50 553.30 L 684.40 550.70 L 685.80 548.20 L 687.70 545.90 L 690.30 543.50 L 693.60 541.20 L 697.80 539.00 L 704.90 533.90 L 712.70 530.20 L 716.70 528.90 L 722.20 527.90 L 722.40 528.30 L 721.50 529.00 L 711.00 533.80 L 703.50 538.10 L 696.30 542.80 L 689.30 547.90 L 688.00 549.10 L 687.20 550.50 L 686.80 552.10 L 686.80 553.80 L 687.20 555.40 L 688.10 557.00 L 722.20 590.40 L 725.50 592.90 L 727.40 593.80 L 730.40 594.60 L 733.40 594.70 L 736.20 594.10 L 738.80 593.10 L 741.20 591.70 L 748.60 585.50 L 758.20 576.10 L 759.50 575.30 L 760.30 575.40 L 761.40 576.30 L 762.90 581.00 L 764.20 588.30 L 764.80 589.60 L 765.50 590.10 L 766.30 590.00 L 767.50 589.10 L 769.40 586.70 L 775.00 575.40 Z" fill="#c33935" fill-rule="nonzero" node-id="228" stroke="none" target-height="81.39996" target-width="95.60004" target-x="683.3" target-y="527.9"></path><path d="M 199.50 537.20 L 200.50 541.90 L 202.10 546.40 L 206.20 554.30 L 208.40 557.40 L 221.10 571.50 L 223.60 573.40 L 226.40 575.00 L 229.40 576.10 L 233.70 576.80 L 238.00 576.80 L 242.30 576.30 L 244.90 575.60 L 247.30 574.50 L 249.40 572.80 L 251.10 570.80 L 258.40 559.90 L 259.80 559.10 L 261.90 559.10 L 263.20 559.70 L 264.90 562.10 L 266.10 566.90 L 264.60 572.10 L 262.80 576.40 L 260.70 579.90 L 258.40 582.70 L 255.90 584.90 L 253.10 586.60 L 250.00 587.80 L 246.60 588.50 L 242.70 588.70 L 238.40 588.30 L 232.10 587.10 L 230.90 587.50 L 229.90 588.20 L 229.30 589.30 L 228.00 594.00 L 227.20 598.90 L 226.90 603.90 L 227.20 608.90 L 228.10 612.90 L 229.40 616.70 L 231.10 620.30 L 233.20 623.80 L 235.60 627.00 L 241.30 632.60 L 248.00 637.10 L 253.70 640.10 L 259.70 642.60 L 265.80 644.70 L 272.10 646.40 L 281.20 648.10 L 290.40 649.30 L 299.60 649.80 L 308.80 649.80 L 317.90 649.20 L 327.00 648.10 L 325.10 654.80 L 323.90 658.10 L 322.20 661.40 L 314.10 673.70 L 313.10 675.60 L 312.70 677.80 L 312.80 680.00 L 313.80 683.50 L 313.50 684.80 L 312.70 685.90 L 311.50 686.60 L 310.30 686.80 L 293.40 686.30 L 287.10 686.90 L 280.30 688.00 L 276.40 688.10 L 268.70 687.30 L 258.10 684.30 L 255.10 683.90 L 252.00 684.10 L 248.90 684.60 L 246.00 685.70 L 242.30 687.60 L 226.40 686.80 L 219.00 687.10 L 211.60 687.90 L 209.40 687.80 L 207.30 687.40 L 205.20 686.40 L 203.50 685.00 L 202.70 683.40 L 203.50 679.80 L 203.30 678.10 L 201.20 675.90 L 199.20 674.50 L 194.40 672.70 L 190.30 666.10 L 186.70 659.20 L 183.60 652.10 L 181.10 644.80 L 179.10 637.30 L 177.70 629.60 L 176.80 621.90 L 176.30 610.30 L 175.70 606.60 L 174.80 603.00 L 173.40 599.70 L 173.60 573.40 L 174.90 563.80 L 175.20 556.10 L 175.70 553.10 L 176.70 550.30 L 177.70 548.50 L 178.50 547.90 L 179.20 547.90 L 179.90 548.50 L 182.30 553.80 L 184.40 556.80 L 186.90 559.60 L 189.90 562.00 L 191.20 562.40 L 191.80 562.20 L 193.40 560.50 L 194.70 557.70 L 195.00 555.40 L 194.00 546.50 L 194.20 543.30 L 195.50 537.00 L 196.60 533.90 L 197.00 533.40 L 197.60 533.20 L 198.50 533.60 L 199.50 537.20 Z M 199.50 574.50 L 199.00 574.80 L 195.90 586.70 L 194.80 593.50 L 195.40 596.00 L 197.10 597.90 L 199.20 598.60 L 206.00 599.20 L 207.50 598.90 L 208.80 598.30 L 210.90 596.10 L 211.50 594.60 L 212.10 591.20 L 212.70 584.80 L 212.50 581.70 L 211.90 578.70 L 210.80 576.10 L 209.80 574.60 L 208.40 573.20 L 205.70 571.50 L 204.60 571.30 L 202.30 571.60 L 201.30 572.20 L 199.50 574.50 Z" fill="#fb453e" fill-rule="nonzero" node-id="230" stroke="none" target-height="154.89996" target-width="153.6" target-x="173.4" target-y="533.2"></path><path d="M 801.50 564.40 L 804.90 569.60 L 808.80 574.50 L 813.00 579.00 L 817.60 583.10 L 822.50 586.90 L 827.80 590.20 L 828.30 615.50 L 828.00 616.80 L 827.40 617.90 L 826.30 618.70 L 825.00 619.10 L 821.10 619.30 L 817.10 621.00 L 816.10 620.30 L 809.20 624.60 L 806.00 625.30 L 785.90 635.30 L 784.30 635.00 L 783.60 633.40 L 782.60 632.40 L 781.30 632.20 L 780.90 632.50 L 780.70 633.20 L 781.00 637.80 L 784.60 656.20 L 786.20 671.40 L 786.10 677.80 L 785.50 684.10 L 784.30 690.30 L 783.20 694.30 L 782.70 697.50 L 782.80 700.10 L 783.40 702.30 L 784.30 704.10 L 781.40 712.70 L 778.10 721.10 L 774.30 729.30 L 770.10 737.30 L 765.50 745.10 L 760.40 752.60 L 754.50 754.60 L 747.50 755.90 L 740.60 754.80 L 740.00 754.20 L 739.80 751.30 L 739.20 749.50 L 738.30 748.00 L 737.00 746.80 L 735.10 745.80 L 732.70 745.10 L 729.60 744.50 L 726.70 744.60 L 723.70 745.10 L 720.90 746.20 L 718.30 747.80 L 716.00 749.90 L 715.30 750.90 L 715.10 751.90 L 716.00 754.90 L 715.60 755.70 L 713.70 756.40 L 674.00 756.00 L 666.80 751.50 L 662.20 747.20 L 656.70 743.00 L 653.60 741.20 L 650.40 740.00 L 646.10 739.20 L 609.50 743.00 L 592.30 744.20 L 575.10 744.80 L 573.50 745.50 L 571.80 749.00 L 570.90 752.20 L 570.60 755.60 L 570.30 754.80 L 569.90 756.10 L 558.40 755.60 L 557.40 755.30 L 555.90 755.40 L 555.20 755.00 L 554.20 752.30 L 554.70 751.70 L 555.40 751.60 L 564.50 751.60 L 566.50 750.90 L 567.80 749.20 L 572.00 738.30 L 572.60 738.90 L 573.10 740.80 L 574.50 741.80 L 584.30 741.80 L 636.60 738.50 L 641.60 737.90 L 646.50 736.90 L 666.20 731.80 L 676.20 728.70 L 690.00 723.30 L 694.00 721.10 L 697.80 718.60 L 704.70 712.70 L 710.40 705.80 L 712.80 701.90 L 717.40 692.90 L 721.60 683.60 L 725.40 674.20 L 728.60 664.60 L 731.10 663.10 L 732.30 662.90 L 734.40 663.40 L 735.50 663.20 L 750.60 654.70 L 755.50 652.50 L 768.30 648.30 L 770.30 647.00 L 771.80 645.30 L 772.90 643.20 L 773.40 640.50 L 773.50 637.10 L 772.40 622.80 L 770.20 608.70 L 767.30 597.50 L 770.40 594.30 L 773.10 590.70 L 775.50 586.90 L 778.30 580.10 L 778.70 577.30 L 778.60 574.40 L 777.80 571.40 L 777.40 570.90 L 776.30 573.80 L 774.70 575.90 L 774.30 565.90 L 772.30 556.10 L 769.00 546.70 L 764.20 537.70 L 764.40 533.20 L 768.40 538.50 L 773.70 549.10 L 777.90 559.60 L 779.30 565.00 L 780.10 570.70 L 780.10 572.90 L 778.80 585.30 L 777.40 588.30 L 776.80 590.40 L 776.60 592.60 L 776.80 595.10 L 777.70 595.20 L 778.40 590.30 L 778.90 589.80 L 779.20 589.90 L 779.40 594.50 L 779.90 596.50 L 781.20 599.00 L 781.40 598.80 L 781.70 597.10 L 782.10 596.10 L 784.30 593.90 L 785.30 592.20 L 786.80 588.40 L 789.20 579.50 L 790.10 578.60 L 791.60 578.10 L 793.10 578.10 L 794.50 578.50 L 797.20 579.90 L 798.70 580.00 L 800.10 579.60 L 801.50 578.40 L 802.60 575.40 L 803.20 572.60 L 803.00 571.20 L 801.70 567.30 L 801.50 564.40 Z M 793.90 579.50 L 792.20 579.40 L 791.00 580.50 L 789.10 586.80 L 785.40 595.70 L 784.50 599.10 L 784.20 601.30 L 784.60 605.50 L 785.40 607.40 L 786.70 609.10 L 788.60 610.60 L 790.70 611.70 L 794.60 612.50 L 796.40 612.30 L 798.90 611.60 L 801.10 610.40 L 803.10 608.70 L 804.70 606.60 L 805.90 604.20 L 806.70 601.50 L 807.20 597.80 L 807.10 594.50 L 806.40 591.40 L 805.10 588.60 L 803.30 586.10 L 800.90 583.80 L 797.80 581.60 L 793.90 579.50 Z" fill="#e54a3e" fill-rule="nonzero" node-id="232" stroke="none" target-height="223.20001" target-width="274.09998" target-x="554.2" target-y="533.2"></path><path d="M 595.20 541.00 L 587.60 550.00 L 587.20 551.00 L 587.50 553.30 L 589.30 555.60 L 592.70 557.50 L 595.90 558.80 L 599.00 559.50 L 602.10 559.70 L 605.10 559.40 L 608.20 558.60 L 611.20 557.30 L 614.40 555.40 L 615.30 554.40 L 616.30 552.10 L 616.40 550.80 L 615.60 548.30 L 611.30 543.90 L 606.30 540.20 L 678.40 536.90 L 688.30 537.30 L 698.00 538.80 L 693.90 541.00 L 690.70 543.30 L 688.10 545.60 L 686.10 548.00 L 684.70 550.50 L 683.70 553.10 L 683.50 554.70 L 683.80 556.30 L 684.50 558.00 L 686.10 560.40 L 690.70 565.10 L 697.30 570.30 L 701.80 576.70 L 702.20 577.70 L 702.00 578.80 L 701.10 580.70 L 699.80 582.40 L 698.10 583.90 L 696.30 585.00 L 687.00 588.30 L 677.20 590.30 L 672.30 590.10 L 664.00 587.50 L 660.30 586.90 L 656.60 586.90 L 655.80 585.20 L 654.60 583.80 L 653.00 582.70 L 648.10 581.50 L 645.00 581.40 L 642.00 582.00 L 639.10 583.20 L 636.60 584.80 L 634.30 587.10 L 630.10 586.00 L 628.10 585.10 L 626.20 584.00 L 623.10 581.30 L 612.30 574.10 L 609.70 572.90 L 607.00 572.20 L 604.70 572.10 L 603.30 572.50 L 602.10 573.30 L 601.00 574.60 L 600.20 576.10 L 599.60 578.20 L 599.30 581.30 L 599.80 585.60 L 599.60 586.60 L 598.80 587.30 L 597.40 587.80 L 596.40 587.80 L 594.90 586.70 L 593.30 586.70 L 592.50 588.90 L 591.70 590.00 L 590.60 590.90 L 588.30 591.70 L 586.30 591.50 L 585.00 590.70 L 583.70 588.50 L 582.80 588.10 L 576.90 590.20 L 572.00 590.00 L 569.20 591.30 L 566.60 591.60 L 565.30 591.40 L 563.10 586.20 L 557.80 576.40 L 551.30 567.40 L 543.70 559.20 L 539.60 555.60 L 535.10 552.30 L 530.40 549.50 L 525.40 547.20 L 520.10 545.30 L 505.10 541.00 L 499.90 540.10 L 495.00 539.70 L 490.10 539.80 L 475.50 540.80 L 474.90 540.60 L 474.50 540.10 L 474.50 539.40 L 475.00 538.90 L 483.30 536.40 L 492.60 534.50 L 497.30 534.00 L 504.80 534.30 L 510.10 535.80 L 533.00 546.70 L 537.40 544.70 L 540.70 543.60 L 544.20 543.00 L 562.80 542.00 L 581.50 540.40 L 595.20 541.00 Z M 592.60 578.80 L 592.80 577.10 L 592.40 575.50 L 591.50 574.00 L 590.10 572.60 L 588.40 571.50 L 586.40 570.70 L 584.20 570.30 L 582.20 570.40 L 580.30 570.90 L 578.80 571.70 L 577.60 572.90 L 576.80 574.30 L 576.60 575.90 L 577.00 577.50 L 577.90 579.00 L 579.30 580.50 L 581.00 581.60 L 583.00 582.40 L 585.20 582.80 L 587.20 582.70 L 589.00 582.30 L 590.60 581.40 L 591.80 580.30 L 592.60 578.80 Z" fill="#ffd9bf" fill-rule="nonzero" node-id="234" stroke="none" target-height="57.700012" target-width="227.70001" target-x="474.5" target-y="534"></path><path d="M 605.90 540.10 L 609.30 542.40 L 612.40 545.10 L 615.20 548.20 L 616.20 550.60 L 615.90 553.10 L 615.20 554.30 L 614.20 555.40 L 610.90 557.30 L 607.90 558.70 L 604.90 559.50 L 601.80 559.80 L 598.80 559.60 L 595.70 558.90 L 592.40 557.60 L 588.90 555.60 L 587.30 553.80 L 587.00 552.80 L 586.90 551.10 L 587.60 549.20 L 594.90 541.00 L 597.60 539.60 L 600.00 539.00 L 602.10 538.90 L 604.10 539.20 L 605.90 540.10 Z" fill="#fb381a" fill-rule="nonzero" node-id="236" stroke="none" target-height="20.899963" target-width="29.299988" target-x="586.9" target-y="538.9"></path><path d="M 428.00 539.80 L 440.20 545.10 L 441.70 546.50 L 442.90 548.10 L 443.80 549.90 L 444.60 552.70 L 444.90 555.90 L 444.30 562.60 L 442.80 568.80 L 441.90 571.00 L 439.20 574.90 L 434.70 578.90 L 432.40 581.60 L 430.30 584.50 L 429.80 585.60 L 429.80 586.60 L 430.20 588.70 L 432.10 592.30 L 438.40 599.40 L 440.60 602.40 L 443.70 607.80 L 445.30 609.60 L 449.90 613.10 L 449.10 617.70 L 451.10 623.20 L 451.20 625.50 L 450.90 627.80 L 450.10 630.00 L 448.90 632.20 L 447.80 633.30 L 446.60 634.10 L 445.10 634.30 L 443.60 634.10 L 440.60 632.30 L 437.40 628.50 L 435.60 625.70 L 430.50 614.50 L 430.50 612.10 L 432.60 606.10 L 434.30 605.60 L 435.30 605.00 L 435.80 604.20 L 436.00 603.30 L 435.80 602.10 L 434.70 600.00 L 432.40 597.00 L 428.10 592.70 L 422.40 580.30 L 421.10 575.80 L 420.30 571.20 L 420.20 566.50 L 420.60 561.80 L 421.40 557.20 L 424.20 548.00 L 428.00 539.80 Z" fill="#fb381a" fill-rule="nonzero" node-id="238" stroke="none" target-height="94.5" target-width="31" target-x="420.2" target-y="539.8"></path><path d="M 747.30 573.30 L 742.70 574.10 L 740.30 574.00 L 735.70 572.80 L 731.70 570.30 L 730.40 568.90 L 729.10 565.60 L 729.10 561.80 L 729.80 558.80 L 732.50 552.90 L 734.20 550.30 L 737.60 546.30 L 740.00 544.40 L 742.50 543.00 L 744.30 542.40 L 748.00 542.30 L 751.70 543.60 L 753.60 544.90 L 755.90 547.00 L 757.70 549.30 L 759.10 551.80 L 759.90 554.10 L 760.30 556.50 L 760.20 559.00 L 759.80 561.40 L 758.90 563.70 L 757.70 565.90 L 755.60 568.20 L 753.10 570.30 L 750.30 572.00 L 747.30 573.30 Z" fill="#fb381a" fill-rule="nonzero" node-id="240" stroke="none" target-height="31.799988" target-width="31.200012" target-x="729.1" target-y="542.3"></path><path d="M 266.40 566.80 L 265.50 563.00 L 264.50 560.80 L 263.50 559.60 L 262.00 559.00 L 260.40 559.00 L 258.90 559.60 L 257.60 561.00 L 251.40 570.60 L 249.60 572.60 L 247.50 574.30 L 245.20 575.40 L 242.60 576.10 L 238.30 576.60 L 234.00 576.50 L 229.70 575.90 L 226.70 574.80 L 223.90 573.20 L 221.40 571.30 L 208.80 557.20 L 204.60 550.60 L 207.00 549.60 L 209.40 546.40 L 211.50 546.10 L 213.70 546.70 L 216.00 548.70 L 217.80 554.50 L 219.40 558.40 L 221.50 562.00 L 224.00 565.40 L 225.80 567.20 L 228.00 568.50 L 230.40 569.40 L 233.10 569.70 L 237.20 569.60 L 241.20 569.20 L 244.90 568.00 L 248.10 565.90 L 250.80 563.10 L 252.80 560.40 L 254.10 557.70 L 254.90 554.90 L 255.10 552.10 L 254.80 549.20 L 253.40 547.30 L 252.40 544.90 L 252.60 543.70 L 253.00 543.10 L 253.70 542.90 L 254.80 543.20 L 257.90 545.10 L 260.50 547.30 L 262.60 549.70 L 264.30 552.50 L 265.50 555.50 L 266.30 558.80 L 266.60 562.60 L 266.40 566.80 Z" fill="#fe8964" fill-rule="nonzero" node-id="242" stroke="none" target-height="33.69995" target-width="62" target-x="204.6" target-y="542.9"></path><path d="M 546.90 563.70 L 553.90 572.30 L 557.00 576.90 L 562.30 586.70 L 564.60 591.90 L 564.40 595.30 L 563.70 598.60 L 562.50 601.80 L 560.90 604.80 L 558.80 607.40 L 555.40 610.50 L 555.00 611.30 L 554.90 612.20 L 556.30 616.60 L 556.70 619.20 L 556.50 621.70 L 555.90 623.80 L 553.30 627.80 L 549.70 632.00 L 547.20 631.80 L 542.30 632.30 L 537.60 634.00 L 534.30 635.80 L 529.50 635.70 L 525.80 635.90 L 517.30 637.90 L 516.10 637.90 L 511.00 636.60 L 506.20 634.80 L 501.60 632.50 L 497.30 629.60 L 493.40 626.40 L 489.80 622.60 L 483.80 608.00 L 484.00 606.90 L 485.20 606.60 L 485.70 606.80 L 486.50 609.60 L 488.90 614.70 L 492.40 619.20 L 494.50 621.10 L 494.50 622.80 L 497.80 625.60 L 501.30 628.00 L 505.20 630.00 L 509.30 631.60 L 513.40 632.70 L 519.70 633.50 L 521.60 633.20 L 523.30 632.50 L 524.90 631.40 L 526.10 632.80 L 526.90 633.20 L 531.80 632.90 L 535.80 632.10 L 539.60 630.70 L 543.20 628.90 L 546.60 626.70 L 549.80 624.00 L 550.80 622.60 L 551.20 621.10 L 551.10 619.50 L 550.50 618.00 L 544.00 608.80 L 536.70 600.30 L 536.40 598.80 L 537.40 597.90 L 539.50 597.80 L 543.50 598.30 L 547.20 599.40 L 548.90 599.60 L 550.70 599.50 L 553.20 598.80 L 555.50 597.50 L 557.50 595.20 L 558.50 592.20 L 558.60 590.70 L 557.50 585.90 L 556.00 582.90 L 554.10 580.00 L 553.50 577.20 L 551.30 572.00 L 549.70 569.60 L 547.80 567.50 L 545.50 565.70 L 545.10 564.90 L 545.40 564.10 L 546.90 563.70 Z" fill="#ea372a" fill-rule="nonzero" node-id="244" stroke="none" target-height="74.20001" target-width="80.79999" target-x="483.8" target-y="563.7"></path><g node-id="321"><path d="M 586.20 570.70 L 588.30 571.50 L 589.90 572.70 L 591.30 574.10 L 592.10 575.60 L 592.50 577.20 L 592.30 578.90 L 591.60 580.40 L 590.40 581.60 L 588.90 582.50 L 587.00 583.00 L 585.00 583.00 L 582.90 582.70 L 580.80 581.80 L 579.10 580.70 L 577.80 579.30 L 577.00 577.80 L 576.60 576.10 L 576.70 574.50 L 577.50 573.00 L 578.70 571.80 L 580.20 570.90 L 582.10 570.40 L 584.10 570.30 L 586.20 570.70 Z" fill="#fe6037" fill-rule="nonzero" group-id="4" node-id="248" stroke="none" target-height="12.700012" target-width="15.900024" target-x="576.6" target-y="570.3"></path></g><path d="M 697.10 570.40 L 721.50 593.30 L 723.60 595.00 L 725.90 596.20 L 728.40 597.10 L 730.10 608.50 L 731.50 620.30 L 732.10 627.20 L 732.30 634.20 L 732.10 641.10 L 731.40 648.00 L 730.40 654.80 L 728.90 661.60 L 726.50 665.90 L 711.50 671.90 L 710.50 672.20 L 707.70 672.20 L 706.20 672.60 L 701.30 675.00 L 691.80 677.90 L 677.80 681.60 L 668.40 685.40 L 639.50 691.30 L 609.60 696.10 L 603.00 696.80 L 583.10 697.80 L 582.20 698.00 L 580.80 698.90 L 571.70 699.80 L 558.80 700.20 L 556.00 699.90 L 551.10 698.40 L 549.10 698.30 L 541.40 698.80 L 537.40 691.30 L 535.60 687.10 L 533.10 678.20 L 532.30 673.60 L 532.00 668.90 L 532.10 664.40 L 532.70 660.00 L 533.60 656.70 L 536.20 650.70 L 550.00 631.90 L 553.50 627.70 L 556.10 623.70 L 556.70 621.60 L 556.90 619.10 L 556.60 616.50 L 555.20 612.10 L 555.30 611.20 L 555.70 610.40 L 559.10 607.30 L 561.20 604.70 L 562.80 601.70 L 564.00 598.50 L 564.70 595.20 L 564.90 591.80 L 566.10 592.20 L 567.50 592.00 L 568.80 591.70 L 571.70 590.40 L 572.70 590.30 L 575.40 590.80 L 576.50 590.60 L 582.90 588.50 L 583.40 588.70 L 584.10 590.30 L 585.30 591.30 L 586.70 591.70 L 588.40 591.50 L 591.10 589.90 L 591.90 588.80 L 592.40 587.00 L 593.20 586.40 L 594.50 586.50 L 596.00 587.50 L 596.80 587.50 L 598.70 586.70 L 599.20 585.80 L 598.70 581.00 L 600.70 584.30 L 603.60 586.60 L 607.00 587.80 L 610.60 587.70 L 614.20 586.30 L 617.00 583.90 L 618.80 580.70 L 619.20 578.80 L 621.50 580.20 L 625.60 583.60 L 627.50 584.70 L 629.50 585.60 L 633.70 586.70 L 633.10 588.80 L 633.10 590.80 L 634.20 594.60 L 636.60 597.90 L 638.90 600.10 L 641.10 601.70 L 642.20 602.10 L 643.20 601.90 L 646.30 600.20 L 649.00 598.20 L 651.30 595.80 L 653.30 593.00 L 654.80 590.00 L 655.90 586.60 L 658.80 586.40 L 661.60 586.70 L 671.70 589.70 L 676.50 590.00 L 686.30 588.10 L 695.60 584.70 L 697.40 583.60 L 698.90 582.30 L 700.20 580.60 L 701.10 578.50 L 701.20 577.50 L 700.90 576.40 L 697.10 570.40 Z M 598.80 602.90 L 594.30 605.60 L 589.90 608.80 L 585.90 612.30 L 580.90 618.20 L 579.00 622.40 L 578.50 624.70 L 578.40 626.90 L 579.10 630.20 L 588.30 639.60 L 591.10 641.80 L 595.20 644.40 L 599.50 646.30 L 603.90 647.80 L 608.50 648.70 L 612.60 649.00 L 616.00 648.70 L 619.30 647.90 L 622.40 646.40 L 625.30 644.50 L 631.10 639.50 L 636.80 633.60 L 639.00 630.50 L 640.30 628.20 L 641.40 623.90 L 641.30 622.10 L 640.60 620.20 L 639.40 618.10 L 636.90 615.10 L 630.00 609.10 L 622.10 603.90 L 613.00 599.10 L 611.10 598.40 L 607.80 598.30 L 605.50 599.00 L 598.80 602.90 Z M 633.20 663.10 L 627.50 662.10 L 626.40 662.40 L 625.90 664.10 L 625.80 665.70 L 627.00 668.00 L 629.00 669.10 L 630.70 669.00 L 632.60 668.10 L 633.60 666.80 L 634.20 664.30 L 633.20 663.10 Z" fill="#ffbca9" fill-rule="nonzero" node-id="251" stroke="none" target-height="129.79999" target-width="200.29999" target-x="532" target-y="570.4"></path><path d="M 200.50 573.80 L 201.50 572.40 L 202.90 571.50 L 204.00 571.10 L 206.20 571.40 L 208.60 573.00 L 209.90 574.30 L 210.90 575.90 L 212.00 578.50 L 212.60 581.40 L 212.80 584.50 L 212.20 590.90 L 211.20 595.50 L 209.40 597.90 L 206.70 599.10 L 204.50 599.20 L 198.80 598.60 L 196.50 597.40 L 195.10 595.20 L 194.90 593.10 L 196.00 586.70 L 197.20 581.30 L 199.10 574.90 L 200.50 573.80 Z" fill="#fb381a" fill-rule="nonzero" node-id="253" stroke="none" target-height="28.100037" target-width="17.90001" target-x="194.9" target-y="571.1"></path><path d="M 619.50 579.20 L 619.00 581.10 L 617.20 584.20 L 615.90 585.60 L 612.80 587.40 L 609.20 588.10 L 607.30 588.00 L 605.40 587.60 L 602.20 585.80 L 599.80 583.00 L 598.90 581.30 L 599.30 578.30 L 599.90 576.10 L 600.70 574.60 L 601.80 573.40 L 603.00 572.60 L 604.50 572.20 L 606.80 572.30 L 609.40 573.00 L 614.70 575.70 L 619.50 579.20 Z" fill="#fe6037" fill-rule="nonzero" node-id="255" stroke="none" target-height="15.899963" target-width="20.599976" target-x="598.9" target-y="572.2"></path><path d="M 367.40 577.60 L 376.90 586.40 L 379.20 592.80 L 380.10 597.10 L 380.40 600.50 L 380.10 603.10 L 379.30 605.30 L 378.10 607.00 L 376.60 608.30 L 374.50 609.30 L 371.70 610.00 L 368.20 610.20 L 363.60 609.80 L 362.90 606.00 L 364.50 601.20 L 365.40 596.90 L 365.90 592.50 L 365.80 576.90 L 365.90 576.40 L 367.40 577.60 Z" fill="#fb381a" fill-rule="nonzero" node-id="257" stroke="none" target-height="33.799988" target-width="17.5" target-x="362.9" target-y="576.4"></path><path d="M 793.90 579.50 L 797.80 581.60 L 801.00 583.90 L 803.40 586.30 L 805.10 588.90 L 806.40 591.60 L 807.10 594.60 L 807.20 597.90 L 806.80 601.50 L 806.20 603.60 L 804.40 607.20 L 801.60 610.10 L 798.30 611.90 L 796.50 612.40 L 792.70 612.30 L 790.70 611.70 L 788.70 610.60 L 786.80 609.00 L 785.50 607.30 L 784.70 605.50 L 784.30 601.30 L 785.50 595.70 L 789.10 587.00 L 791.20 580.20 L 792.60 579.30 L 793.70 579.30 L 793.90 579.50 Z" fill="#6c3d4f" fill-rule="nonzero" node-id="259" stroke="none" target-height="33.100037" target-width="22.900024" target-x="784.3" target-y="579.3"></path><path d="M 554.40 580.70 L 557.20 584.90 L 558.10 587.30 L 558.90 592.10 L 558.50 594.30 L 557.00 597.00 L 554.30 599.30 L 550.90 600.40 L 547.50 600.20 L 545.80 599.60 L 550.50 582.80 L 551.50 581.70 L 552.80 581.00 L 554.40 580.70 Z" fill="#f4c5a9" fill-rule="nonzero" node-id="261" stroke="none" target-height="19.700012" target-width="13.100037" target-x="545.8" target-y="580.7"></path><path d="M 656.60 587.10 L 655.50 590.40 L 654.00 593.40 L 652.10 596.20 L 649.70 598.60 L 647.00 600.70 L 643.90 602.40 L 642.90 602.50 L 641.80 602.20 L 639.40 600.50 L 637.10 598.40 L 634.70 595.00 L 634.00 593.20 L 633.60 591.30 L 633.70 589.30 L 634.40 587.20 L 636.70 584.90 L 639.20 583.30 L 642.10 582.10 L 645.10 581.50 L 648.20 581.60 L 651.40 582.20 L 653.00 582.90 L 654.50 584.00 L 656.60 587.10 Z" fill="#fe6037" fill-rule="nonzero" node-id="263" stroke="none" target-height="21" target-width="23" target-x="633.6" target-y="581.5"></path><path d="M 427.80 592.40 L 432.10 596.70 L 434.40 599.70 L 435.40 601.80 L 435.60 603.30 L 435.20 604.40 L 434.20 605.20 L 432.30 605.80 L 430.70 608.00 L 429.20 611.00 L 427.80 614.90 L 426.50 619.80 L 425.40 626.10 L 424.20 618.30 L 423.70 610.60 L 423.90 600.20 L 424.50 594.60 L 425.20 594.10 L 426.90 594.10 L 427.50 593.50 L 427.80 592.40 Z" fill="#ffa490" fill-rule="nonzero" node-id="265" stroke="none" target-height="33.69995" target-width="11.899994" target-x="423.7" target-y="592.4"></path><path d="M 363.10 606.20 L 363.60 608.00 L 363.80 610.00 L 355.50 625.30 L 352.50 629.50 L 349.20 633.40 L 345.50 637.10 L 341.40 640.30 L 337.20 643.20 L 332.60 645.60 L 327.80 647.70 L 318.70 648.90 L 309.60 649.50 L 300.30 649.50 L 291.20 648.90 L 282.00 647.80 L 272.90 646.00 L 266.70 644.40 L 260.60 642.30 L 254.60 639.70 L 245.20 634.70 L 242.00 632.30 L 239.00 629.70 L 236.30 626.70 L 234.00 623.50 L 231.90 620.00 L 230.20 616.40 L 228.90 612.50 L 228.00 608.50 L 231.10 607.20 L 232.20 603.20 L 233.90 601.20 L 237.40 599.70 L 239.80 597.40 L 241.60 596.30 L 243.50 595.70 L 256.10 596.40 L 259.50 596.90 L 290.70 604.00 L 301.30 605.50 L 322.00 607.60 L 332.10 608.30 L 348.90 608.50 L 362.40 607.40 L 362.80 607.20 L 363.10 606.20 Z" fill="#ffa490" fill-rule="nonzero" node-id="267" stroke="none" target-height="53.799988" target-width="135.79999" target-x="228" target-y="595.7"></path><path d="M 728.20 597.20 L 750.90 598.60 L 751.90 599.60 L 751.90 601.00 L 747.10 605.30 L 746.50 606.70 L 746.60 607.50 L 747.60 608.50 L 750.70 609.00 L 752.80 608.90 L 754.60 608.30 L 756.20 607.20 L 757.80 605.80 L 761.90 601.00 L 764.50 598.70 L 767.50 596.80 L 770.40 608.00 L 771.70 615.00 L 773.40 629.30 L 773.70 636.40 L 773.70 639.70 L 773.10 642.40 L 772.00 644.60 L 770.50 646.30 L 768.50 647.60 L 755.70 651.80 L 750.90 654.00 L 735.70 662.50 L 734.70 662.70 L 732.40 662.30 L 730.80 662.70 L 728.80 663.90 L 728.30 662.80 L 728.30 661.80 L 729.90 655.00 L 731.00 648.20 L 731.70 641.30 L 732.00 634.40 L 731.80 627.40 L 730.60 614.50 L 728.20 597.20 Z" fill="#fe6048" fill-rule="nonzero" node-id="269" stroke="none" target-height="67.10004" target-width="45.5" target-x="728.2" target-y="596.8"></path><path d="M 598.80 602.90 L 603.30 600.20 L 605.50 599.00 L 607.90 598.40 L 611.40 598.50 L 613.40 599.10 L 622.50 603.90 L 630.40 609.10 L 637.30 615.10 L 639.80 618.00 L 641.00 620.10 L 641.70 622.10 L 641.80 623.90 L 640.60 628.30 L 639.40 630.50 L 637.10 633.70 L 631.50 639.50 L 625.70 644.50 L 622.70 646.40 L 619.70 647.90 L 616.40 648.70 L 612.90 649.00 L 608.90 648.70 L 604.30 647.90 L 599.80 646.40 L 595.60 644.40 L 591.50 641.80 L 588.80 639.60 L 579.60 630.20 L 579.10 629.20 L 578.80 626.90 L 578.80 624.60 L 580.00 620.10 L 581.20 618.10 L 586.00 612.40 L 589.90 608.80 L 594.10 605.60 L 598.80 602.90 Z" fill="#fb381a" fill-rule="nonzero" node-id="271" stroke="none" target-height="50.599976" target-width="63" target-x="578.8" target-y="598.4"></path><g node-id="322"><path d="M 862.50 607.40 L 863.70 609.90 L 864.10 612.50 L 863.80 614.10 L 863.20 615.30 L 862.20 616.10 L 861.00 616.60 L 859.70 616.70 L 858.10 616.30 L 855.00 614.00 L 853.40 611.60 L 852.70 609.00 L 852.90 606.20 L 853.50 605.00 L 854.40 604.10 L 855.60 603.60 L 856.90 603.50 L 858.50 603.90 L 860.70 605.30 L 862.50 607.40 Z" fill="#7d434d" fill-rule="nonzero" group-id="5" node-id="275" stroke="none" target-height="13.200012" target-width="11.399963" target-x="852.7" target-y="603.5"></path></g><path d="M 442.10 605.50 L 444.40 607.50 L 446.50 608.70 L 448.50 609.20 L 450.30 609.20 L 452.20 608.60 L 454.10 607.40 L 456.20 605.50 L 457.30 605.20 L 458.10 605.70 L 461.10 610.40 L 464.50 614.70 L 468.40 618.70 L 472.70 622.20 L 474.70 623.30 L 477.00 624.10 L 479.70 624.50 L 482.80 624.60 L 487.40 624.10 L 489.40 625.40 L 489.70 624.90 L 489.90 622.50 L 493.50 626.30 L 497.40 629.60 L 501.70 632.50 L 506.30 634.80 L 511.10 636.60 L 517.40 637.90 L 522.20 636.60 L 525.90 635.90 L 534.40 635.60 L 540.00 632.90 L 542.40 632.20 L 547.30 631.70 L 549.80 631.90 L 536.00 650.70 L 533.30 656.70 L 532.40 659.90 L 531.80 664.30 L 531.60 668.90 L 532.00 673.50 L 533.80 682.60 L 537.10 691.30 L 541.20 698.80 L 540.20 698.30 L 534.90 701.90 L 532.50 702.80 L 530.60 703.10 L 515.20 702.70 L 501.90 703.00 L 497.10 702.60 L 488.20 701.30 L 475.50 700.60 L 464.10 699.20 L 453.50 699.40 L 450.10 698.60 L 439.50 693.90 L 436.90 693.30 L 434.30 693.10 L 431.60 693.30 L 429.00 693.90 L 426.50 695.00 L 426.50 691.80 L 426.00 688.60 L 422.60 677.10 L 420.80 665.20 L 420.50 653.30 L 422.60 634.20 L 423.50 649.90 L 423.90 650.10 L 427.70 647.90 L 431.20 647.50 L 434.50 648.50 L 435.60 649.20 L 436.30 650.30 L 436.50 651.50 L 436.20 652.80 L 433.10 656.50 L 431.40 659.30 L 430.20 662.00 L 429.60 664.70 L 429.50 667.60 L 429.90 670.50 L 430.90 673.60 L 432.60 677.00 L 435.20 680.80 L 438.10 684.30 L 441.30 687.50 L 444.80 690.30 L 448.60 692.80 L 454.60 695.60 L 456.50 695.40 L 457.30 694.90 L 458.20 693.40 L 458.20 692.50 L 450.30 661.90 L 449.00 658.80 L 447.90 657.40 L 437.10 646.90 L 432.60 641.90 L 428.30 636.60 L 426.90 634.00 L 426.10 633.10 L 425.30 632.80 L 424.40 633.00 L 423.10 633.80 L 423.20 631.00 L 423.90 628.40 L 425.20 625.90 L 425.90 621.10 L 427.90 613.70 L 429.20 610.40 L 432.10 605.60 L 430.00 611.60 L 430.00 614.00 L 433.50 622.20 L 436.80 628.10 L 440.10 631.80 L 443.10 633.60 L 444.60 633.90 L 446.00 633.60 L 447.30 632.90 L 448.40 631.70 L 449.60 629.70 L 450.40 627.50 L 450.70 625.20 L 450.60 622.80 L 450.10 620.60 L 448.70 617.20 L 449.70 612.90 L 448.90 611.90 L 446.80 610.90 L 445.00 609.50 L 443.40 607.70 L 442.10 605.50 Z" fill="#fe6037" fill-rule="nonzero" node-id="278" stroke="none" target-height="97.89996" target-width="129.29999" target-x="420.5" target-y="605.2"></path><path d="M 177.10 613.40 L 177.30 621.30 L 178.10 629.00 L 179.50 636.60 L 181.50 644.10 L 184.10 651.40 L 187.10 658.50 L 190.80 665.40 L 195.00 672.10 L 192.90 675.20 L 190.60 677.70 L 188.20 679.60 L 185.40 681.10 L 182.50 682.20 L 179.30 683.00 L 174.30 683.60 L 135.70 684.00 L 129.70 683.60 L 126.80 683.10 L 123.30 682.10 L 122.60 680.60 L 122.80 677.30 L 123.50 674.00 L 124.60 670.90 L 126.70 666.90 L 126.90 665.80 L 126.80 664.60 L 125.90 662.60 L 124.30 661.40 L 111.20 655.20 L 102.10 649.70 L 98.00 646.70 L 94.20 643.40 L 91.30 640.10 L 90.70 638.90 L 90.60 637.60 L 91.00 636.40 L 92.00 635.30 L 93.40 634.60 L 111.10 631.30 L 112.20 630.60 L 112.30 629.10 L 109.10 624.00 L 104.00 613.70 L 101.80 608.40 L 101.70 607.60 L 102.10 606.30 L 103.00 605.90 L 103.50 606.00 L 116.50 611.60 L 123.40 614.10 L 130.50 616.10 L 135.30 617.00 L 140.00 617.50 L 145.30 617.40 L 146.30 616.50 L 146.80 614.50 L 148.10 612.60 L 150.20 611.50 L 151.50 611.30 L 168.70 612.20 L 177.10 613.40 Z" fill="#8e89ab" fill-rule="nonzero" node-id="280" stroke="none" target-height="78.099976" target-width="104.4" target-x="90.6" target-y="605.9"></path><path d="M 525.00 631.50 L 523.50 632.60 L 521.70 633.30 L 519.80 633.60 L 513.40 632.80 L 509.20 631.70 L 505.20 630.10 L 501.40 628.10 L 497.90 625.70 L 494.60 622.90 L 494.60 621.20 L 496.60 620.10 L 499.80 617.20 L 501.90 615.70 L 503.90 611.20 L 504.90 609.50 L 507.10 607.30 L 508.30 607.00 L 514.60 606.80 L 523.00 605.60 L 524.90 605.90 L 526.50 606.60 L 527.90 607.80 L 529.00 609.10 L 529.70 610.80 L 530.30 614.50 L 529.00 620.50 L 527.80 624.30 L 525.00 631.50 Z" fill="#fb381a" fill-rule="nonzero" node-id="282" stroke="none" target-height="28" target-width="35.69998" target-x="494.6" target-y="605.6"></path><path d="M 423.00 634.20 L 423.20 633.70 L 424.50 632.90 L 425.50 632.70 L 426.30 633.10 L 428.40 636.50 L 432.60 641.60 L 441.90 651.50 L 448.00 657.30 L 449.00 658.70 L 450.40 661.80 L 458.50 693.30 L 457.60 695.00 L 456.60 695.50 L 454.70 695.60 L 452.80 695.00 L 448.70 692.90 L 444.90 690.40 L 441.40 687.60 L 438.20 684.40 L 435.30 680.90 L 432.70 677.10 L 431.00 673.80 L 430.00 670.60 L 429.60 667.70 L 429.70 664.90 L 430.30 662.20 L 431.40 659.40 L 433.20 656.70 L 436.30 652.90 L 436.50 651.60 L 436.30 650.40 L 435.60 649.40 L 434.60 648.70 L 431.30 647.70 L 427.80 648.10 L 424.00 650.30 L 423.60 650.10 L 423.00 634.20 Z" fill="#fb381a" fill-rule="nonzero" node-id="284" stroke="none" target-height="62.899963" target-width="35.5" target-x="423" target-y="632.7"></path><path d="M 420.90 653.30 L 421.20 665.20 L 421.90 671.20 L 423.00 677.10 L 426.40 688.60 L 426.90 695.00 L 425.20 703.80 L 423.10 698.90 L 420.80 690.30 L 420.20 683.30 L 419.90 664.60 L 420.20 658.90 L 420.90 653.30 Z" fill="#ffbca9" fill-rule="nonzero" node-id="286" stroke="none" target-height="50.5" target-width="7" target-x="419.9" target-y="653.3"></path><path d="M 728.70 661.60 L 728.70 662.80 L 729.20 663.70 L 725.90 673.30 L 722.20 682.80 L 718.00 692.10 L 713.40 701.00 L 711.00 704.90 L 708.30 708.60 L 702.00 715.00 L 694.60 720.30 L 690.60 722.40 L 676.70 727.90 L 666.80 730.90 L 647.10 736.00 L 642.20 736.90 L 637.20 737.60 L 589.90 740.80 L 575.10 740.90 L 573.70 739.90 L 574.10 737.00 L 574.00 734.20 L 573.40 731.60 L 571.10 726.60 L 569.40 724.20 L 566.50 721.00 L 563.20 717.90 L 552.50 709.20 L 540.50 697.90 L 541.50 698.40 L 543.40 698.50 L 549.20 697.90 L 551.30 698.10 L 556.10 699.40 L 558.90 699.80 L 565.30 699.80 L 571.80 699.40 L 580.10 698.60 L 583.20 697.40 L 603.10 696.40 L 609.70 695.70 L 630.70 692.40 L 649.30 689.10 L 667.80 685.20 L 672.20 683.80 L 678.20 681.20 L 682.30 679.90 L 691.90 677.60 L 701.60 674.60 L 706.50 672.10 L 708.00 671.70 L 711.80 671.50 L 726.80 665.60 L 728.70 661.60 Z" fill="#f46e66" fill-rule="nonzero" node-id="288" stroke="none" target-height="79.30005" target-width="188.70001" target-x="540.5" target-y="661.6"></path><path d="M 633.20 663.10 L 633.70 663.20 L 634.20 664.00 L 633.50 667.20 L 632.60 668.40 L 631.70 669.00 L 629.00 669.30 L 627.60 668.60 L 626.50 667.40 L 625.90 665.90 L 626.20 662.80 L 627.00 662.30 L 633.20 663.10 Z" fill="#ea372a" fill-rule="nonzero" node-id="290" stroke="none" target-height="7" target-width="8.299988" target-x="625.9" target-y="662.3"></path><path d="M 540.30 698.60 L 550.80 708.70 L 562.90 718.70 L 569.00 725.10 L 570.70 727.40 L 573.10 732.40 L 573.70 735.00 L 573.90 737.80 L 573.50 740.60 L 572.70 738.00 L 572.00 738.70 L 568.20 749.00 L 566.90 750.70 L 564.90 751.40 L 554.90 751.60 L 554.60 752.00 L 554.80 752.80 L 556.00 755.20 L 558.80 755.40 L 526.10 757.00 L 506.40 757.10 L 493.40 756.30 L 489.70 755.60 L 482.70 753.50 L 474.50 750.30 L 466.60 746.60 L 459.10 742.30 L 453.60 738.60 L 448.50 734.60 L 443.70 730.20 L 439.30 725.40 L 435.20 720.40 L 431.50 715.00 L 428.30 709.40 L 425.40 703.40 L 427.10 694.60 L 429.60 693.50 L 432.20 692.90 L 434.90 692.70 L 437.50 692.90 L 440.10 693.50 L 447.40 697.00 L 451.30 698.40 L 454.40 699.00 L 464.70 698.80 L 471.80 699.80 L 488.80 701.00 L 497.80 702.20 L 502.60 702.60 L 515.70 702.30 L 532.10 702.90 L 534.90 702.10 L 540.30 698.60 Z M 550.50 754.00 L 552.10 754.30 L 553.40 753.50 L 553.80 752.50 L 553.60 751.50 L 552.70 750.40 L 549.30 749.20 L 546.30 748.50 L 543.50 748.40 L 541.00 748.70 L 538.70 749.40 L 536.40 750.60 L 534.30 752.30 L 533.80 753.10 L 533.80 754.00 L 534.30 754.50 L 535.00 754.70 L 539.90 753.50 L 542.70 753.10 L 548.20 753.30 L 550.50 754.00 Z" fill="#ea372a" fill-rule="nonzero" node-id="292" stroke="none" target-height="64.39996" target-width="148.50003" target-x="425.4" target-y="692.7"></path><path d="M 282.80 739.20 L 279.80 737.80 L 277.00 735.90 L 273.50 733.00 L 267.90 731.70 L 261.50 727.90 L 256.30 725.40 L 253.50 724.80 L 250.40 724.60 L 241.10 725.70 L 236.30 725.60 L 234.30 725.00 L 228.70 720.40 L 225.00 717.90 L 222.50 716.60 L 217.90 715.30 L 223.00 713.20 L 227.80 711.80 L 232.30 711.00 L 236.90 710.80 L 241.20 711.30 L 245.40 712.40 L 251.20 714.90 L 257.10 718.00 L 263.20 722.00 L 269.50 726.80 L 276.00 732.50 L 282.80 739.20 Z" fill="#d5bcce" fill-rule="nonzero" node-id="294" stroke="none" target-height="28.400024" target-width="64.899994" target-x="217.9" target-y="710.8"></path><path d="M 217.90 715.40 L 222.50 716.70 L 225.00 718.00 L 228.70 720.50 L 234.30 725.00 L 236.30 725.60 L 238.60 725.80 L 250.40 724.70 L 253.40 724.90 L 256.20 725.60 L 258.90 726.70 L 267.90 731.70 L 273.40 733.10 L 277.00 736.00 L 279.80 737.90 L 282.80 739.30 L 298.70 756.30 L 299.10 757.00 L 298.90 758.30 L 296.50 760.10 L 160.40 759.40 L 160.40 757.40 L 160.90 755.60 L 164.20 750.40 L 167.80 745.60 L 171.60 741.00 L 175.80 736.80 L 180.30 732.90 L 185.10 729.30 L 190.00 726.00 L 195.20 723.10 L 200.60 720.60 L 206.20 718.50 L 212.00 716.70 L 217.90 715.40 Z" fill="#958a9c" fill-rule="nonzero" node-id="296" stroke="none" target-height="44.69995" target-width="138.70001" target-x="160.4" target-y="715.4"></path><path d="M 901.80 721.80 L 891.60 726.80 L 880.90 730.40 L 869.70 732.60 L 858.30 733.30 L 862.00 729.80 L 865.90 726.80 L 870.30 724.20 L 874.80 722.10 L 879.60 720.50 L 887.60 718.90 L 890.60 718.80 L 896.30 719.60 L 901.80 721.80 Z" fill="#f0d1cd" fill-rule="nonzero" node-id="298" stroke="none" target-height="14.5" target-width="43.5" target-x="858.3" target-y="718.8"></path><path d="M 901.80 721.80 L 907.30 725.00 L 912.40 728.40 L 917.40 732.20 L 922.00 736.40 L 926.40 740.80 L 930.50 745.50 L 934.20 750.40 L 937.60 755.70 L 937.80 756.90 L 937.10 757.80 L 936.40 758.00 L 840.90 757.30 L 839.70 757.50 L 838.70 757.20 L 838.30 756.30 L 838.80 755.10 L 858.40 733.10 L 869.80 732.50 L 880.90 730.40 L 891.60 726.80 L 901.80 721.80 Z" fill="#958a9c" fill-rule="nonzero" node-id="300" stroke="none" target-height="36.200012" target-width="99.5" target-x="838.3" target-y="721.8"></path><path d="M 356.40 758.30 L 354.90 758.20 L 353.50 757.50 L 352.60 756.40 L 352.10 755.00 L 352.10 753.80 L 352.80 751.20 L 353.90 748.80 L 355.30 746.60 L 357.10 744.70 L 358.10 744.00 L 359.20 743.70 L 362.30 744.00 L 364.90 744.60 L 369.00 746.90 L 372.50 750.20 L 377.10 756.40 L 377.40 757.30 L 376.40 757.60 L 366.50 757.70 L 356.40 758.30 Z" fill="#baa4ab" fill-rule="nonzero" node-id="302" stroke="none" target-height="14.599976" target-width="25.299988" target-x="352.1" target-y="743.7"></path><path d="M 747.80 756.00 L 713.90 756.70 L 714.80 756.50 L 716.10 755.30 L 716.10 754.00 L 715.40 751.90 L 715.60 750.80 L 718.60 747.90 L 721.20 746.30 L 723.90 745.20 L 726.90 744.60 L 729.90 744.60 L 733.00 745.10 L 735.40 745.80 L 737.30 746.80 L 738.60 748.00 L 739.50 749.50 L 740.10 751.30 L 740.30 754.10 L 740.60 754.60 L 747.80 756.00 Z" fill="#feac9f" fill-rule="nonzero" node-id="304" stroke="none" target-height="12.100037" target-width="33.899963" target-x="713.9" target-y="744.6"></path><path d="M 550.50 754.00 L 548.20 753.40 L 542.60 753.30 L 534.30 754.70 L 533.50 754.00 L 533.50 753.20 L 534.00 752.30 L 535.90 750.80 L 537.90 749.70 L 542.20 748.50 L 545.30 748.50 L 548.60 749.10 L 552.40 750.40 L 553.40 751.60 L 553.40 753.10 L 552.20 754.20 L 550.50 754.00 Z" fill="#ffa490" fill-rule="nonzero" node-id="306" stroke="none" target-height="6.200012" target-width="19.900024" target-x="533.5" target-y="748.5"></path><path d="M 667.10 751.70 L 674.30 756.20 L 639.90 756.20 L 639.40 755.50 L 639.90 755.00 L 667.10 751.70 Z" fill="#fbb2b1" fill-rule="nonzero" node-id="308" stroke="none" target-height="4.5" target-width="34.899963" target-x="639.4" target-y="751.7"></path><path d="M 760.70 752.60 L 770.80 753.80 L 780.80 754.40 L 816.80 754.20 L 838.80 755.00 L 838.30 755.50 L 838.70 757.10 L 839.20 757.40 L 840.90 757.20 L 763.90 757.50 L 748.40 755.80 L 754.70 754.70 L 760.70 752.60 Z" fill="#fbb2b1" fill-rule="nonzero" node-id="310" stroke="none" target-height="4.9000244" target-width="92.5" target-x="748.4" target-y="752.6"></path><path d="M 401.50 756.70 L 401.80 755.30 L 402.50 755.00 L 476.00 755.20 L 476.70 755.50 L 477.00 756.90 L 476.70 757.60 L 476.00 757.90 L 402.50 757.70 L 401.80 757.30 L 401.50 756.70 Z" fill="#f0d1cd" fill-rule="nonzero" node-id="312" stroke="none" target-height="2.9000244" target-width="75.5" target-x="401.5" target-y="755"></path><path d="M 570.10 756.20 L 570.50 754.80 L 570.80 755.70 L 577.20 754.50 L 587.40 754.30 L 607.70 754.60 L 617.80 755.00 L 618.30 755.30 L 618.30 756.60 L 593.00 757.70 L 574.00 757.90 L 572.60 757.60 L 570.10 756.20 Z" fill="#f0d1cd" fill-rule="nonzero" node-id="314" stroke="none" target-height="3.6000366" target-width="48.200012" target-x="570.1" target-y="754.3"></path><path d="M 297.90 755.70 L 345.30 756.10 L 345.70 756.90 L 345.70 757.80 L 345.20 758.50 L 296.70 760.20 L 298.60 759.00 L 299.40 757.80 L 299.30 757.10 L 297.90 755.70 Z" fill="#d5bcce" fill-rule="nonzero" node-id="316" stroke="none" target-height="4.5" target-width="49" target-x="296.7" target-y="755.7"></path></svg>