<?xml version="1.0" standalone="no"?><!DOCTYPE svg PUBLIC "-//W3C//DTD SVG 1.1//EN" "http://www.w3.org/Graphics/SVG/1.1/DTD/svg11.dtd"><svg height="1024" node-id="1" sillyvg="true" template-height="1024" template-width="1024" version="1.1" viewBox="0 0 1024 1024" width="1024" xmlns="http://www.w3.org/2000/svg" xmlns:xlink="http://www.w3.org/1999/xlink"><defs node-id="67"></defs><path d="M 417.90 314.90 L 416.20 318.70 L 413.90 322.20 L 409.50 325.60 L 407.10 327.10 L 404.50 328.40 L 402.40 329.10 L 400.50 330.30 L 396.70 335.00 L 395.40 335.60 L 394.00 335.60 L 392.70 335.10 L 391.70 334.30 L 391.10 333.20 L 389.00 324.90 L 387.40 320.00 L 385.30 317.00 L 383.90 316.10 L 382.20 315.50 L 380.10 315.50 L 338.50 320.90 L 335.30 321.70 L 332.30 323.00 L 331.80 323.40 L 331.80 324.10 L 331.30 324.90 L 320.50 325.20 L 297.70 329.80 L 304.40 326.30 L 306.40 324.80 L 308.10 323.00 L 314.40 313.60 L 319.80 306.70 L 325.60 300.10 L 331.80 294.00 L 334.60 291.90 L 337.60 290.10 L 340.80 288.80 L 344.10 287.80 L 347.50 287.20 L 355.90 286.50 L 360.70 285.60 L 365.30 284.20 L 369.80 282.40 L 374.10 280.20 L 387.50 271.80 L 397.00 266.30 L 398.50 265.80 L 399.80 266.00 L 401.00 266.70 L 401.80 267.90 L 406.80 279.30 L 411.20 290.90 L 413.70 298.80 L 417.90 314.90 Z" fill="#c46b7e" fill-rule="nonzero" node-id="71" stroke="none" target-height="69.80002" target-width="120.19998" target-x="297.7" target-y="265.8"></path><path d="M 514.60 285.90 L 512.90 289.50 L 511.60 290.90 L 509.30 292.70 L 503.40 295.30 L 493.30 297.60 L 491.50 298.80 L 490.40 300.80 L 490.20 302.00 L 490.70 304.80 L 490.40 307.30 L 487.40 311.30 L 481.90 316.20 L 479.50 317.00 L 474.40 316.90 L 469.30 316.40 L 459.40 314.30 L 450.00 310.60 L 441.10 305.50 L 447.40 302.70 L 453.80 300.40 L 489.20 290.40 L 505.70 286.20 L 510.00 285.70 L 514.60 285.90 Z" fill="#f5b7a5" fill-rule="nonzero" node-id="73" stroke="none" target-height="31.299988" target-width="73.49997" target-x="441.1" target-y="285.7"></path><path d="M 520.50 344.50 L 520.80 345.00 L 520.50 345.80 L 520.00 345.70 L 519.50 344.70 L 519.30 343.30 L 518.90 342.80 L 517.60 342.80 L 516.90 343.50 L 516.60 345.60 L 516.00 346.90 L 515.70 347.40 L 514.70 348.00 L 504.30 345.20 L 501.30 344.80 L 487.80 344.20 L 482.90 346.20 L 477.60 346.90 L 472.40 350.10 L 468.60 352.00 L 465.00 353.40 L 461.50 354.30 L 457.90 354.70 L 454.40 354.60 L 451.00 354.00 L 442.30 351.20 L 439.50 350.60 L 422.10 348.40 L 415.90 348.80 L 412.90 349.60 L 405.40 352.70 L 403.70 352.60 L 399.60 351.00 L 396.10 348.40 L 393.50 344.80 L 392.90 343.50 L 392.90 342.30 L 394.00 339.70 L 404.50 328.70 L 409.50 326.20 L 413.90 322.80 L 416.30 319.30 L 417.90 315.30 L 441.00 305.90 L 445.40 308.70 L 449.90 311.00 L 454.50 313.00 L 459.30 314.70 L 469.30 316.80 L 474.40 317.30 L 480.90 317.20 L 482.10 316.60 L 485.00 314.30 L 487.60 311.70 L 490.60 307.70 L 490.90 305.20 L 490.30 301.80 L 491.20 299.70 L 492.00 298.80 L 493.90 297.80 L 503.70 295.70 L 509.50 293.10 L 511.90 291.30 L 513.20 289.80 L 514.80 286.30 L 516.60 285.80 L 517.80 285.90 L 518.80 286.30 L 519.60 287.10 L 520.10 288.30 L 520.40 290.30 L 520.70 306.50 L 520.50 344.50 Z" fill="#d87777" fill-rule="nonzero" node-id="75" stroke="none" target-height="68.900024" target-width="127.899994" target-x="392.9" target-y="285.8"></path><path d="M 404.50 328.40 L 394.00 339.60 L 393.30 340.70 L 393.00 342.00 L 393.50 344.70 L 396.10 348.10 L 397.80 349.50 L 400.60 351.10 L 404.50 352.30 L 407.20 351.70 L 410.00 350.20 L 415.90 348.30 L 422.10 347.90 L 440.50 350.30 L 444.10 351.20 L 451.10 353.60 L 454.50 354.20 L 458.00 354.30 L 461.60 353.90 L 465.00 353.00 L 468.60 351.60 L 472.40 349.70 L 477.60 346.50 L 481.70 346.10 L 484.10 345.50 L 487.80 343.80 L 501.40 344.40 L 504.40 344.80 L 514.70 347.70 L 515.20 347.50 L 516.00 346.50 L 517.30 342.70 L 518.10 342.30 L 518.90 342.40 L 519.30 342.80 L 519.70 344.90 L 520.50 345.40 L 520.80 359.40 L 524.40 369.40 L 528.30 379.10 L 532.70 388.70 L 537.40 398.20 L 543.80 409.80 L 545.00 413.60 L 545.00 415.40 L 544.50 417.30 L 543.40 419.60 L 536.40 429.40 L 526.80 439.50 L 526.40 441.10 L 527.60 442.10 L 529.40 442.40 L 542.20 443.80 L 558.00 446.10 L 558.40 446.70 L 557.90 448.60 L 547.30 452.90 L 546.30 453.90 L 545.80 454.80 L 545.90 456.00 L 546.60 457.50 L 549.50 460.50 L 551.00 461.40 L 555.80 463.40 L 562.30 470.80 L 562.90 472.30 L 563.40 475.50 L 568.80 485.10 L 575.00 498.60 L 584.60 513.10 L 586.30 516.50 L 587.30 519.60 L 587.60 522.40 L 587.40 525.10 L 586.70 527.80 L 585.40 530.30 L 581.80 534.20 L 573.10 540.50 L 572.20 541.70 L 572.10 542.30 L 572.60 542.80 L 577.30 544.40 L 579.20 545.80 L 579.30 547.10 L 578.30 548.90 L 577.90 550.40 L 578.10 551.70 L 578.70 552.80 L 582.70 556.60 L 587.00 559.80 L 591.60 562.50 L 592.90 562.90 L 595.60 562.70 L 596.70 562.00 L 598.80 560.10 L 602.40 555.70 L 604.00 552.30 L 603.80 551.50 L 602.10 550.60 L 601.80 550.10 L 602.10 549.40 L 603.40 548.30 L 611.00 547.90 L 618.40 548.60 L 620.70 549.50 L 622.60 550.80 L 624.20 552.50 L 625.60 554.70 L 626.60 557.50 L 627.30 560.90 L 627.70 565.20 L 627.50 570.40 L 626.70 576.80 L 626.10 578.80 L 624.90 580.80 L 622.70 583.00 L 617.00 586.80 L 612.70 588.90 L 612.00 589.60 L 612.20 590.60 L 613.70 592.30 L 615.60 592.50 L 622.70 588.50 L 625.80 587.20 L 629.10 586.40 L 631.20 586.30 L 633.60 586.70 L 637.50 588.30 L 638.60 589.50 L 639.20 590.90 L 639.50 596.60 L 640.00 600.60 L 641.00 605.10 L 641.60 605.70 L 649.80 604.90 L 653.10 605.00 L 658.10 605.60 L 673.40 608.80 L 674.40 609.30 L 674.70 610.40 L 674.20 615.70 L 672.00 622.40 L 669.90 626.20 L 667.50 629.90 L 662.00 636.20 L 658.50 639.20 L 658.30 640.70 L 664.60 646.60 L 665.50 646.90 L 666.50 646.70 L 671.90 643.80 L 675.20 642.50 L 677.60 642.00 L 679.30 642.10 L 680.80 642.60 L 682.10 643.60 L 683.20 645.10 L 684.40 647.40 L 685.50 650.80 L 686.90 657.40 L 686.50 661.20 L 685.60 664.00 L 681.30 671.80 L 680.90 673.10 L 680.90 674.50 L 681.30 675.80 L 682.10 676.90 L 691.50 686.00 L 694.20 688.00 L 700.00 691.10 L 703.30 692.20 L 703.70 691.00 L 698.70 688.30 L 694.80 685.60 L 691.20 682.50 L 687.40 678.20 L 687.40 676.20 L 690.50 672.60 L 693.20 670.40 L 696.20 668.50 L 699.30 667.00 L 702.70 665.90 L 706.10 665.20 L 709.60 664.90 L 713.20 665.10 L 714.50 665.40 L 716.50 666.70 L 717.60 668.70 L 717.80 669.90 L 717.60 673.80 L 717.00 677.60 L 716.00 681.30 L 714.70 684.80 L 710.50 692.20 L 722.00 690.10 L 721.90 692.40 L 721.30 694.30 L 720.40 695.90 L 718.90 697.10 L 716.90 698.10 L 714.20 698.70 L 705.80 698.90 L 702.10 698.50 L 695.00 696.60 L 686.60 692.80 L 670.50 683.40 L 669.90 681.80 L 670.70 679.20 L 670.90 675.80 L 670.30 673.30 L 669.20 671.00 L 667.60 669.10 L 664.50 666.70 L 661.90 662.50 L 659.50 659.50 L 650.20 649.80 L 634.20 630.60 L 630.20 626.60 L 613.40 611.40 L 612.00 608.80 L 611.30 606.00 L 610.50 604.30 L 607.00 601.10 L 601.40 594.30 L 599.90 593.90 L 598.60 594.70 L 597.60 597.40 L 594.80 601.60 L 591.90 604.50 L 588.50 607.10 L 584.80 609.40 L 578.50 611.90 L 574.00 612.60 L 569.10 611.90 L 563.30 609.60 L 556.80 605.20 L 553.90 602.70 L 550.90 599.50 L 548.80 596.60 L 547.30 593.90 L 546.40 591.40 L 545.90 588.70 L 545.90 586.20 L 546.30 583.90 L 547.20 581.70 L 548.90 579.00 L 551.10 576.50 L 554.00 574.40 L 557.20 572.60 L 560.70 571.20 L 564.50 570.20 L 568.50 569.70 L 572.50 569.70 L 579.40 570.60 L 580.70 570.40 L 581.20 570.00 L 581.30 569.40 L 580.60 568.20 L 575.50 563.90 L 534.30 536.80 L 528.40 530.30 L 520.90 525.10 L 509.10 518.10 L 495.20 510.90 L 487.70 506.50 L 473.20 497.20 L 472.00 496.60 L 470.80 496.70 L 449.30 501.80 L 443.50 503.70 L 438.10 506.00 L 432.90 508.70 L 427.90 511.90 L 423.20 515.50 L 413.80 518.00 L 404.60 521.10 L 395.60 524.60 L 386.70 528.50 L 378.10 533.00 L 374.50 534.40 L 372.70 534.80 L 368.30 534.90 L 366.70 534.60 L 365.70 534.00 L 365.00 532.40 L 365.50 531.80 L 369.70 531.70 L 373.10 531.10 L 376.20 530.10 L 382.60 526.60 L 390.40 523.90 L 399.30 519.50 L 415.10 513.40 L 420.00 510.90 L 421.10 510.00 L 421.90 508.80 L 424.30 501.80 L 425.40 494.60 L 424.90 490.70 L 423.80 486.90 L 421.80 482.00 L 421.80 481.10 L 422.20 480.20 L 423.80 479.20 L 424.60 479.20 L 426.70 480.30 L 428.10 480.70 L 429.60 480.60 L 431.00 480.00 L 433.10 477.90 L 433.70 475.30 L 432.90 472.50 L 430.40 469.00 L 428.90 466.20 L 427.80 463.20 L 427.20 460.10 L 427.00 456.80 L 427.90 449.00 L 428.00 444.60 L 427.60 440.10 L 423.60 421.20 L 418.40 400.10 L 416.10 393.80 L 413.30 387.80 L 404.50 373.60 L 397.90 362.00 L 392.60 356.60 L 391.60 352.30 L 390.60 349.50 L 389.50 347.80 L 388.10 346.40 L 386.30 345.20 L 383.60 344.00 L 380.70 343.20 L 373.70 342.60 L 372.70 341.70 L 370.60 338.70 L 369.20 335.50 L 368.10 333.90 L 361.40 330.30 L 354.60 328.00 L 347.70 326.90 L 318.40 326.10 L 328.90 325.80 L 329.50 325.60 L 330.20 323.60 L 332.20 322.60 L 336.40 321.50 L 378.00 316.10 L 380.10 316.10 L 381.80 316.60 L 383.20 317.50 L 385.30 320.40 L 386.90 325.40 L 389.00 333.80 L 389.80 335.10 L 391.10 335.90 L 392.50 336.20 L 394.10 335.90 L 395.10 335.30 L 398.20 331.90 L 400.20 330.20 L 402.30 329.00 L 404.50 328.40 Z M 430.50 352.50 L 429.10 351.90 L 427.50 351.70 L 414.30 353.30 L 412.80 353.80 L 411.70 354.90 L 410.90 356.30 L 410.80 357.90 L 411.10 359.10 L 411.90 360.30 L 427.20 376.40 L 428.40 377.30 L 429.80 377.60 L 431.30 377.40 L 432.80 376.70 L 443.50 368.10 L 444.30 367.30 L 445.10 365.40 L 444.70 363.40 L 443.20 361.70 L 430.50 352.50 Z M 462.50 374.80 L 460.00 373.30 L 457.50 372.40 L 454.80 372.10 L 449.40 372.80 L 446.80 373.80 L 443.00 375.70 L 439.70 378.00 L 436.00 381.90 L 434.50 385.60 L 434.20 388.20 L 434.50 390.90 L 435.40 393.60 L 437.30 397.50 L 440.00 401.40 L 442.40 404.20 L 444.90 406.20 L 447.50 407.70 L 450.40 408.90 L 459.10 411.20 L 461.10 411.00 L 463.10 410.40 L 464.80 409.30 L 466.20 407.90 L 469.20 402.50 L 470.50 399.10 L 471.20 395.80 L 471.50 392.60 L 471.30 389.30 L 470.60 386.10 L 469.40 382.90 L 467.70 379.70 L 462.50 374.80 Z M 477.30 426.90 L 482.50 426.70 L 487.50 425.60 L 488.50 425.00 L 489.10 424.00 L 491.50 416.70 L 492.30 415.60 L 493.40 414.80 L 500.10 412.20 L 500.90 411.40 L 501.40 410.30 L 501.40 408.90 L 498.90 404.40 L 496.30 401.60 L 494.90 400.60 L 493.30 400.10 L 491.60 400.00 L 483.70 403.40 L 476.80 407.00 L 473.80 409.30 L 471.60 411.50 L 467.60 416.60 L 465.40 418.10 L 463.80 418.50 L 462.00 418.40 L 458.20 417.60 L 455.30 416.60 L 454.10 416.80 L 453.10 417.50 L 452.50 418.50 L 451.70 421.20 L 451.30 423.90 L 451.40 426.50 L 452.70 431.50 L 456.10 437.70 L 458.90 441.30 L 460.50 442.80 L 462.00 443.70 L 463.60 444.10 L 466.80 443.90 L 470.70 441.80 L 472.60 440.00 L 473.80 437.60 L 474.40 435.10 L 474.60 432.60 L 474.20 428.50 L 474.70 427.50 L 475.60 427.00 L 477.30 426.90 Z M 508.40 462.60 L 507.80 461.40 L 506.50 461.00 L 504.80 461.40 L 503.60 462.00 L 501.90 464.00 L 501.50 465.20 L 501.60 466.40 L 504.10 471.90 L 507.50 476.90 L 508.30 477.50 L 508.80 476.60 L 509.30 469.60 L 508.40 462.60 Z M 514.60 479.80 L 513.50 481.20 L 511.40 482.20 L 510.80 483.20 L 510.80 483.80 L 517.40 494.90 L 524.10 507.90 L 525.70 509.60 L 527.60 510.90 L 529.90 511.70 L 531.90 511.80 L 533.80 511.50 L 535.50 510.80 L 539.40 506.90 L 541.40 503.80 L 542.90 500.60 L 543.90 497.10 L 544.30 493.50 L 544.20 489.70 L 543.20 485.70 L 542.30 483.90 L 538.20 479.10 L 535.20 476.40 L 532.90 474.90 L 528.40 473.10 L 526.00 472.80 L 523.70 473.00 L 521.30 473.70 L 519.10 475.00 L 516.90 476.90 L 514.60 479.80 Z" fill="#e73d22" fill-rule="nonzero" node-id="77" stroke="none" target-height="382.80002" target-width="403.6" target-x="318.4" target-y="316.1"></path><path d="M 319.90 325.40 L 349.20 326.20 L 348.90 327.90 L 348.40 329.10 L 347.50 329.80 L 346.20 330.20 L 343.50 330.00 L 338.10 330.20 L 325.00 332.80 L 307.00 334.50 L 297.10 336.60 L 289.70 339.40 L 286.30 341.40 L 283.10 343.70 L 277.50 348.70 L 274.80 350.70 L 268.80 353.50 L 264.50 354.60 L 260.20 355.10 L 255.90 355.10 L 232.30 354.30 L 231.70 352.80 L 231.50 351.20 L 232.40 347.70 L 231.40 347.10 L 230.20 347.00 L 234.80 346.50 L 241.30 347.50 L 247.80 348.10 L 254.40 348.30 L 261.00 348.10 L 267.50 347.50 L 274.00 346.50 L 276.20 345.40 L 278.00 343.80 L 283.00 337.40 L 285.20 335.10 L 287.80 333.30 L 290.60 331.80 L 293.60 330.70 L 319.90 325.40 Z" fill="#f9d3c4" fill-rule="nonzero" node-id="79" stroke="none" target-height="29.700012" target-width="119.000015" target-x="230.2" target-y="325.4"></path><path d="M 349.20 326.20 L 356.10 327.30 L 362.90 329.50 L 366.10 331.00 L 370.10 333.70 L 372.20 338.00 L 374.20 341.00 L 375.10 341.70 L 376.30 342.10 L 382.30 342.70 L 385.20 343.50 L 387.80 344.50 L 389.60 345.60 L 391.00 347.00 L 392.10 348.70 L 393.10 351.50 L 394.00 355.90 L 397.30 358.90 L 399.40 361.30 L 406.00 372.90 L 411.40 381.30 L 414.70 387.10 L 417.60 393.20 L 419.90 399.60 L 421.60 406.00 L 429.10 439.40 L 429.50 443.90 L 429.40 448.30 L 428.50 455.90 L 428.70 459.10 L 429.30 462.30 L 430.40 465.40 L 431.90 468.30 L 434.70 472.30 L 435.10 473.70 L 434.80 476.50 L 434.10 477.70 L 432.70 479.10 L 430.80 479.70 L 429.40 479.80 L 428.00 479.50 L 425.90 478.50 L 425.10 478.50 L 423.50 479.50 L 423.10 480.30 L 423.50 482.60 L 425.70 488.10 L 426.70 493.90 L 425.50 501.10 L 423.20 508.10 L 422.40 509.30 L 421.30 510.20 L 416.40 512.70 L 411.30 514.80 L 402.30 517.90 L 391.70 523.20 L 384.20 526.00 L 377.50 529.40 L 374.40 530.40 L 371.00 531.00 L 366.70 531.20 L 366.30 531.70 L 366.50 532.60 L 367.10 533.30 L 368.30 533.90 L 369.80 534.20 L 372.10 534.20 L 368.50 534.70 L 367.30 534.50 L 366.20 533.90 L 365.40 532.60 L 363.20 526.50 L 362.20 525.50 L 360.90 524.80 L 359.50 524.60 L 346.30 524.60 L 353.60 524.20 L 356.50 523.50 L 359.30 522.50 L 361.60 521.20 L 363.50 519.80 L 367.90 515.30 L 371.90 510.60 L 375.60 505.60 L 375.90 504.20 L 375.80 503.50 L 374.60 502.20 L 374.30 500.70 L 374.70 499.50 L 377.90 495.60 L 378.70 493.60 L 379.30 490.50 L 379.60 486.90 L 379.20 479.70 L 378.20 474.20 L 377.70 473.40 L 376.80 472.90 L 376.10 472.90 L 375.50 473.40 L 372.60 481.40 L 371.70 485.00 L 371.20 491.00 L 372.30 496.00 L 372.40 497.80 L 371.90 501.20 L 371.20 503.00 L 369.40 490.70 L 370.50 485.20 L 369.90 484.30 L 368.50 484.20 L 351.60 492.30 L 346.30 495.30 L 339.60 500.20 L 336.30 503.30 L 338.50 500.50 L 341.10 497.90 L 350.00 492.00 L 352.60 489.30 L 353.20 488.00 L 352.60 484.40 L 350.10 478.50 L 351.30 473.20 L 352.00 467.70 L 352.20 456.70 L 353.00 452.80 L 353.20 449.30 L 353.00 446.20 L 352.40 444.00 L 350.30 440.10 L 344.60 434.00 L 340.00 432.10 L 343.20 428.70 L 344.60 425.20 L 344.40 421.20 L 343.30 418.50 L 341.70 416.10 L 340.50 414.50 L 337.70 412.30 L 326.50 406.40 L 328.10 406.60 L 329.10 405.90 L 329.10 405.20 L 323.20 402.90 L 323.50 402.30 L 327.40 403.30 L 335.40 406.40 L 335.50 405.80 L 332.90 404.30 L 330.70 402.30 L 329.10 401.30 L 312.20 400.40 L 292.40 396.30 L 280.10 395.70 L 271.60 391.10 L 263.00 388.50 L 259.80 386.50 L 257.60 385.60 L 255.20 385.20 L 252.90 385.40 L 253.30 384.20 L 252.40 383.30 L 249.30 383.30 L 246.80 382.80 L 244.40 381.70 L 243.50 380.90 L 242.50 378.60 L 243.30 363.40 L 242.20 358.80 L 242.30 356.60 L 241.10 355.60 L 239.20 355.40 L 236.10 355.70 L 234.90 355.30 L 232.20 353.70 L 255.80 354.80 L 262.40 354.60 L 268.70 353.20 L 272.90 351.30 L 276.60 349.00 L 280.00 346.20 L 280.30 347.70 L 281.00 348.90 L 282.00 349.90 L 285.00 351.10 L 287.30 351.30 L 288.40 351.10 L 294.10 345.30 L 296.70 343.40 L 299.50 342.00 L 302.50 340.90 L 305.70 340.20 L 309.30 339.90 L 313.30 340.00 L 313.90 340.20 L 314.10 341.10 L 311.80 354.50 L 311.20 355.80 L 310.30 356.90 L 307.80 358.30 L 302.50 359.10 L 298.90 360.40 L 298.30 361.10 L 298.70 362.90 L 299.20 363.10 L 316.60 361.00 L 327.50 358.40 L 333.00 357.70 L 338.60 357.60 L 346.00 358.10 L 352.00 354.50 L 356.30 352.50 L 360.80 351.10 L 366.00 350.20 L 366.80 348.70 L 366.80 348.00 L 366.30 347.50 L 354.40 348.00 L 353.40 347.30 L 351.50 337.80 L 350.80 335.90 L 349.70 334.00 L 348.10 332.20 L 345.80 330.30 L 347.30 329.90 L 348.40 329.10 L 349.00 327.90 L 349.20 326.20 Z M 278.50 378.90 L 280.40 379.30 L 281.60 379.00 L 283.30 378.10 L 284.90 376.50 L 286.00 374.60 L 286.40 372.60 L 286.40 371.30 L 285.40 369.50 L 283.50 369.00 L 282.30 369.30 L 280.60 370.30 L 279.00 371.90 L 277.90 374.00 L 277.50 375.90 L 277.50 377.10 L 278.50 378.90 Z M 333.00 382.10 L 332.30 380.50 L 329.50 378.90 L 324.10 377.80 L 320.90 377.80 L 317.60 378.10 L 312.40 379.60 L 309.80 381.50 L 309.10 383.20 L 309.80 384.80 L 312.60 386.40 L 318.00 387.50 L 321.20 387.50 L 324.50 387.20 L 329.80 385.70 L 332.50 383.80 L 333.00 382.10 Z M 360.40 391.20 L 380.00 390.70 L 380.90 390.20 L 381.30 389.40 L 381.00 387.10 L 379.60 383.90 L 377.30 381.50 L 374.20 379.90 L 372.50 379.60 L 367.10 379.70 L 365.40 380.10 L 362.40 381.80 L 360.20 384.30 L 359.00 387.60 L 358.80 389.90 L 359.40 390.70 L 360.40 391.20 Z" fill="#ec7759" fill-rule="nonzero" node-id="81" stroke="none" target-height="208.5" target-width="202.90001" target-x="232.2" target-y="326.2"></path><path d="M 346.50 330.20 L 348.80 332.10 L 350.40 333.80 L 351.40 335.80 L 352.10 337.70 L 353.80 346.60 L 354.30 347.60 L 355.40 347.90 L 367.10 347.50 L 367.10 349.30 L 366.40 350.20 L 361.10 351.20 L 356.60 352.60 L 352.30 354.50 L 346.40 357.80 L 344.40 358.10 L 338.80 357.60 L 333.20 357.70 L 327.70 358.40 L 314.20 361.50 L 299.60 363.10 L 298.80 362.60 L 299.00 361.10 L 299.30 360.70 L 303.10 359.50 L 308.40 358.60 L 309.70 358.10 L 311.70 356.10 L 312.70 353.20 L 314.80 340.70 L 314.00 340.30 L 310.00 340.20 L 306.40 340.50 L 303.20 341.20 L 300.20 342.30 L 297.40 343.70 L 294.80 345.60 L 289.10 351.40 L 288.00 351.60 L 285.20 351.20 L 283.30 350.50 L 281.90 349.40 L 281.10 348.10 L 280.70 346.50 L 283.70 343.70 L 286.90 341.40 L 293.90 337.90 L 301.50 335.60 L 313.60 333.80 L 325.60 332.80 L 339.20 330.10 L 342.70 330.00 L 346.50 330.20 Z M 322.60 336.40 L 321.10 337.20 L 320.50 338.50 L 319.70 351.40 L 319.70 352.40 L 320.20 353.20 L 320.90 353.90 L 322.60 354.10 L 343.50 350.60 L 345.00 349.50 L 345.60 347.60 L 343.50 335.50 L 342.60 334.00 L 340.80 333.60 L 322.60 336.40 Z" fill="#e73d22" fill-rule="nonzero" node-id="83" stroke="none" target-height="33.100006" target-width="86.399994" target-x="280.7" target-y="330"></path><path d="M 322.60 336.40 L 340.60 333.70 L 341.50 333.70 L 342.30 334.10 L 343.30 335.60 L 345.40 347.70 L 345.10 349.60 L 344.40 350.30 L 343.50 350.70 L 322.60 354.20 L 320.70 353.90 L 320.00 353.20 L 319.60 352.30 L 320.40 338.60 L 321.10 337.10 L 322.60 336.40 Z" fill="#f29f8c" fill-rule="nonzero" node-id="85" stroke="none" target-height="20.5" target-width="25.799988" target-x="319.6" target-y="333.7"></path><path d="M 520.50 344.50 L 521.00 354.50 L 521.70 355.50 L 522.70 356.10 L 524.00 356.40 L 527.80 354.60 L 530.50 353.80 L 544.70 352.50 L 561.10 349.90 L 571.40 349.70 L 576.50 350.10 L 586.60 352.10 L 584.00 352.10 L 581.40 352.60 L 578.90 353.50 L 573.70 356.10 L 562.80 359.20 L 553.70 362.50 L 549.90 363.10 L 546.20 363.10 L 538.80 361.70 L 532.30 359.50 L 530.00 359.10 L 525.50 359.10 L 520.50 360.10 L 520.20 346.10 L 520.80 345.00 L 520.50 344.50 Z" fill="#f5b7a5" fill-rule="nonzero" node-id="87" stroke="none" target-height="18.600006" target-width="66.39996" target-x="520.2" target-y="344.5"></path><path d="M 230.40 346.90 L 231.70 347.00 L 232.60 347.60 L 231.70 351.10 L 231.90 352.70 L 232.50 354.20 L 236.40 356.20 L 239.50 355.90 L 241.40 356.10 L 242.30 356.60 L 242.60 359.30 L 243.80 363.90 L 243.00 379.10 L 243.30 380.20 L 244.90 382.20 L 248.40 383.60 L 253.00 383.90 L 253.70 384.90 L 253.70 385.40 L 253.20 385.90 L 255.60 385.80 L 257.90 386.10 L 260.20 387.00 L 263.90 389.30 L 268.50 390.40 L 272.10 391.70 L 280.70 396.20 L 293.00 396.80 L 298.20 397.70 L 306.30 399.90 L 312.70 401.00 L 328.80 401.70 L 329.90 401.90 L 336.30 406.50 L 336.10 407.10 L 335.80 407.10 L 328.20 404.10 L 324.30 403.10 L 324.00 403.70 L 329.40 405.80 L 329.90 406.30 L 329.90 406.60 L 329.40 407.10 L 328.30 407.40 L 327.30 407.10 L 340.00 414.10 L 341.30 415.30 L 344.00 419.30 L 345.20 422.00 L 345.50 424.00 L 345.40 425.90 L 344.10 429.50 L 342.90 431.00 L 340.90 432.70 L 340.90 433.00 L 345.10 434.60 L 348.80 438.30 L 352.30 442.70 L 353.80 446.90 L 354.00 449.90 L 353.80 453.40 L 353.00 457.50 L 351.50 452.40 L 350.50 450.30 L 349.60 449.60 L 348.70 451.10 L 348.40 447.30 L 347.70 444.30 L 346.70 441.80 L 345.50 439.90 L 343.90 438.20 L 342.10 437.00 L 339.80 436.20 L 337.20 435.80 L 337.60 433.60 L 337.50 431.80 L 337.00 430.30 L 335.10 427.90 L 333.80 427.10 L 331.40 426.30 L 328.80 426.10 L 326.10 426.40 L 323.50 427.20 L 319.40 429.30 L 315.50 431.80 L 312.00 434.60 L 308.70 437.80 L 305.70 441.30 L 303.20 445.10 L 300.90 449.10 L 298.00 455.70 L 297.70 468.20 L 296.90 469.30 L 294.30 469.90 L 290.30 469.90 L 288.40 469.40 L 283.40 466.90 L 282.50 466.70 L 265.00 468.10 L 259.50 467.90 L 256.60 467.20 L 252.50 465.80 L 233.40 457.50 L 214.40 452.70 L 209.00 450.80 L 204.10 448.30 L 201.00 446.40 L 198.20 444.10 L 195.60 441.40 L 193.40 438.40 L 191.30 434.90 L 189.50 430.70 L 188.90 427.70 L 188.70 424.70 L 189.80 416.20 L 189.50 414.40 L 188.70 413.10 L 187.40 412.20 L 188.50 406.60 L 189.30 403.80 L 190.40 400.90 L 194.90 392.40 L 199.70 384.10 L 204.90 376.00 L 210.40 368.10 L 216.20 360.50 L 224.10 351.00 L 226.00 349.40 L 230.40 346.90 Z" fill="#e66b63" fill-rule="nonzero" node-id="89" stroke="none" target-height="123" target-width="166.6" target-x="187.4" target-y="346.9"></path><path d="M 586.60 352.00 L 588.20 352.00 L 589.60 352.50 L 591.00 354.10 L 591.40 355.20 L 591.40 361.00 L 587.10 390.20 L 581.70 417.00 L 579.50 424.90 L 576.20 433.40 L 574.00 437.50 L 571.50 441.30 L 569.50 443.50 L 565.20 447.00 L 562.80 448.20 L 560.20 448.90 L 557.30 449.20 L 557.80 448.40 L 557.80 447.30 L 556.50 446.50 L 542.10 444.50 L 528.80 443.00 L 526.90 442.70 L 525.60 441.60 L 525.60 441.00 L 526.10 440.00 L 531.80 434.50 L 539.40 425.20 L 542.80 420.20 L 543.90 418.00 L 544.40 416.10 L 544.40 414.30 L 543.30 410.40 L 536.90 398.80 L 532.10 389.40 L 527.80 379.70 L 523.80 370.00 L 520.20 360.00 L 525.10 359.00 L 529.70 359.00 L 532.00 359.40 L 538.50 361.60 L 542.20 362.60 L 545.90 363.00 L 549.60 363.00 L 553.40 362.40 L 565.40 358.30 L 575.20 355.50 L 576.40 354.70 L 581.40 352.80 L 586.60 352.00 Z" fill="#d25f5b" fill-rule="nonzero" node-id="91" stroke="none" target-height="97.20001" target-width="71.20001" target-x="520.2" target-y="352"></path><path d="M 430.50 352.50 L 443.40 361.60 L 444.60 362.80 L 445.10 364.20 L 445.10 365.70 L 444.50 367.20 L 443.70 368.00 L 433.00 376.60 L 431.70 377.30 L 430.20 377.50 L 428.70 377.10 L 427.40 376.30 L 412.00 360.30 L 411.30 359.40 L 410.80 357.30 L 411.50 355.30 L 412.30 354.40 L 413.90 353.40 L 427.90 351.70 L 430.50 352.50 Z" fill="#f29c49" fill-rule="nonzero" node-id="93" stroke="none" target-height="25.799988" target-width="34.30002" target-x="410.8" target-y="351.7"></path><g node-id="198"><path d="M 285.70 369.50 L 286.70 371.20 L 286.80 372.50 L 286.30 374.40 L 285.10 376.50 L 283.50 378.10 L 281.70 379.10 L 280.50 379.40 L 278.50 378.90 L 277.50 377.10 L 277.40 375.90 L 277.90 373.90 L 279.10 371.90 L 280.70 370.20 L 282.50 369.20 L 283.70 368.90 L 285.70 369.50 Z" fill="#d74a3e" fill-rule="nonzero" group-id="1" node-id="97" stroke="none" target-height="10.5" target-width="9.399994" target-x="277.4" target-y="368.9"></path></g><path d="M 462.50 374.80 L 465.10 377.10 L 467.10 379.90 L 468.80 383.10 L 470.00 386.30 L 470.70 389.50 L 470.90 392.80 L 470.60 396.00 L 469.90 399.30 L 468.60 402.70 L 466.80 406.20 L 465.60 408.10 L 464.20 409.50 L 462.50 410.60 L 460.50 411.30 L 458.50 411.40 L 449.80 409.10 L 446.90 407.90 L 444.20 406.40 L 441.80 404.40 L 439.40 401.60 L 435.70 395.80 L 434.40 392.70 L 433.70 389.70 L 433.60 387.70 L 434.50 383.80 L 435.50 381.90 L 437.00 380.10 L 439.10 378.20 L 442.60 376.00 L 446.50 374.10 L 449.30 373.10 L 454.80 372.30 L 457.50 372.50 L 460.00 373.40 L 462.50 374.80 Z" fill="#f29c49" fill-rule="nonzero" node-id="100" stroke="none" target-height="39.100006" target-width="37.299988" target-x="433.6" target-y="372.3"></path><g node-id="199"><path d="M 333.00 382.30 L 332.40 384.00 L 329.80 385.80 L 324.60 387.40 L 321.40 387.70 L 318.20 387.70 L 312.90 386.70 L 310.20 385.10 L 309.40 383.50 L 310.00 381.80 L 312.60 380.00 L 317.80 378.40 L 321.00 378.10 L 324.20 378.10 L 329.50 379.10 L 332.20 380.70 L 333.00 382.30 Z" fill="#e73d22" fill-rule="nonzero" group-id="2" node-id="104" stroke="none" target-height="9.600006" target-width="23.600006" target-x="309.4" target-y="378.1"></path></g><path d="M 360.40 391.20 L 359.30 390.60 L 359.30 387.60 L 359.70 385.90 L 361.50 383.00 L 364.20 380.80 L 365.70 380.10 L 369.30 379.50 L 372.80 379.60 L 374.50 379.90 L 376.10 380.60 L 378.90 382.60 L 380.80 385.40 L 381.60 388.90 L 381.40 390.10 L 380.30 390.70 L 360.40 391.20 Z" fill="#e73d22" fill-rule="nonzero" node-id="107" stroke="none" target-height="11.700012" target-width="22.300018" target-x="359.3" target-y="379.5"></path><path d="M 737.50 478.80 L 739.60 479.50 L 740.50 479.50 L 740.90 479.10 L 740.80 478.20 L 737.10 470.30 L 735.20 465.00 L 733.80 459.80 L 733.10 454.60 L 732.90 449.30 L 733.20 443.60 L 735.10 431.20 L 738.80 413.50 L 742.90 395.70 L 744.00 393.80 L 745.50 392.70 L 746.50 392.60 L 747.30 393.00 L 748.00 394.30 L 749.40 398.70 L 751.20 402.90 L 753.30 406.90 L 768.10 427.90 L 774.00 437.50 L 777.50 445.80 L 778.70 450.20 L 779.60 454.90 L 780.30 463.20 L 781.00 464.60 L 782.10 463.40 L 786.00 454.00 L 789.30 447.70 L 793.20 441.60 L 797.70 435.80 L 802.60 430.40 L 808.20 425.20 L 814.40 420.10 L 821.30 415.20 L 822.70 414.50 L 824.00 414.40 L 824.30 415.60 L 819.40 438.30 L 816.40 455.50 L 814.80 461.50 L 812.90 467.20 L 810.60 472.40 L 807.90 477.30 L 804.90 481.90 L 801.50 486.20 L 797.70 490.20 L 793.40 493.90 L 788.80 497.40 L 783.70 500.50 L 778.10 503.40 L 776.80 504.40 L 775.90 505.60 L 775.40 507.20 L 774.90 513.90 L 774.00 520.60 L 772.60 527.10 L 770.90 533.50 L 766.30 546.00 L 760.40 558.00 L 757.10 562.90 L 752.20 569.10 L 746.50 574.40 L 744.50 575.70 L 741.30 576.80 L 740.50 576.50 L 740.00 575.30 L 745.00 568.50 L 749.40 561.70 L 753.40 554.50 L 757.00 547.10 L 760.10 539.50 L 762.60 531.80 L 764.10 525.90 L 765.20 519.90 L 765.90 514.00 L 765.90 507.00 L 764.60 505.50 L 763.70 505.30 L 751.00 503.90 L 744.80 502.60 L 738.90 500.90 L 735.00 499.30 L 727.80 495.40 L 724.50 492.90 L 721.40 490.10 L 718.50 486.80 L 714.40 481.30 L 702.90 464.00 L 702.10 462.00 L 701.80 459.70 L 702.00 459.10 L 702.90 458.90 L 714.40 466.40 L 725.80 472.90 L 737.50 478.80 Z" fill="#f5ab5c" fill-rule="nonzero" node-id="109" stroke="none" target-height="184.19998" target-width="122.5" target-x="701.8" target-y="392.6"></path><path d="M 477.30 426.90 L 475.30 427.10 L 474.40 428.50 L 474.30 430.10 L 474.80 432.70 L 474.70 435.30 L 474.00 437.70 L 472.70 440.00 L 470.90 441.80 L 468.70 443.20 L 467.20 443.90 L 463.90 444.10 L 462.30 443.70 L 460.70 442.80 L 459.00 441.30 L 456.20 437.70 L 452.70 431.50 L 451.40 426.40 L 451.30 423.80 L 451.70 421.20 L 452.60 418.50 L 453.20 417.50 L 454.20 416.80 L 455.40 416.60 L 461.50 418.30 L 463.90 418.50 L 465.90 418.00 L 467.70 416.60 L 471.70 411.50 L 473.90 409.20 L 477.00 407.00 L 483.90 403.40 L 491.80 400.00 L 493.50 400.00 L 495.00 400.60 L 497.80 402.90 L 499.00 404.40 L 501.40 408.90 L 501.40 410.10 L 500.90 411.30 L 499.40 412.40 L 493.20 414.70 L 492.10 415.50 L 491.30 416.60 L 488.90 423.90 L 488.30 424.90 L 485.00 426.30 L 482.50 426.80 L 477.30 426.90 Z" fill="#f29c49" fill-rule="nonzero" node-id="111" stroke="none" target-height="44.100006" target-width="50.100006" target-x="451.3" target-y="400"></path><path d="M 298.70 453.20 L 299.00 455.10 L 298.40 458.90 L 298.30 462.60 L 298.90 466.30 L 299.90 469.90 L 301.50 473.30 L 303.60 476.60 L 302.00 477.00 L 301.40 477.80 L 300.80 479.30 L 300.10 484.40 L 299.20 487.10 L 298.90 489.90 L 299.10 491.70 L 300.70 495.90 L 300.60 496.70 L 299.40 498.30 L 298.40 498.90 L 293.60 500.00 L 288.10 500.40 L 284.10 500.00 L 280.20 498.90 L 276.00 496.40 L 272.20 493.50 L 268.70 490.20 L 265.50 486.60 L 262.80 482.70 L 260.60 478.50 L 260.00 476.90 L 259.70 473.40 L 259.00 472.40 L 249.40 468.30 L 240.50 463.80 L 235.90 461.80 L 231.00 460.20 L 218.80 457.30 L 212.10 455.30 L 207.90 453.70 L 200.20 449.60 L 196.80 447.10 L 193.60 444.10 L 190.70 440.80 L 188.20 437.10 L 186.00 432.80 L 184.10 427.80 L 187.30 412.20 L 188.60 413.20 L 189.50 414.60 L 189.70 415.70 L 188.60 424.70 L 188.80 427.70 L 189.40 430.70 L 191.30 434.90 L 193.40 438.40 L 195.60 441.30 L 198.20 444.00 L 201.00 446.30 L 204.10 448.20 L 208.90 450.60 L 214.30 452.60 L 233.40 457.70 L 240.40 460.30 L 252.30 465.80 L 259.40 467.90 L 265.10 468.10 L 281.80 466.80 L 285.00 467.60 L 286.70 468.70 L 290.40 469.90 L 294.30 470.00 L 296.30 469.50 L 297.40 468.70 L 297.90 467.60 L 297.90 456.90 L 298.10 455.70 L 298.70 454.80 L 298.70 453.20 Z M 277.70 487.90 L 282.00 484.30 L 285.20 479.80 L 286.20 477.20 L 286.80 474.50 L 286.80 473.00 L 286.30 471.60 L 285.30 470.60 L 283.80 469.90 L 264.60 471.40 L 263.30 472.90 L 263.10 474.40 L 264.70 478.60 L 266.70 482.60 L 269.30 486.50 L 270.50 487.50 L 273.30 488.60 L 276.30 488.50 L 277.70 487.90 Z" fill="#db382c" fill-rule="nonzero" node-id="113" stroke="none" target-height="88.19998" target-width="119.5" target-x="184.1" target-y="412.2"></path><path d="M 336.80 435.50 L 333.00 440.00 L 330.00 445.70 L 329.10 448.70 L 328.70 451.70 L 328.90 453.70 L 330.40 457.30 L 331.80 459.10 L 333.50 460.30 L 335.50 461.00 L 337.90 461.20 L 340.90 460.80 L 343.10 460.10 L 344.90 459.00 L 346.30 457.50 L 347.30 455.80 L 348.10 453.60 L 348.80 449.80 L 349.60 449.50 L 350.10 450.10 L 351.20 452.20 L 352.70 457.30 L 352.80 462.80 L 352.50 468.30 L 351.80 473.80 L 350.60 479.10 L 349.20 480.20 L 347.60 480.80 L 345.80 481.00 L 343.50 480.20 L 332.30 472.50 L 331.20 471.60 L 330.20 470.10 L 330.10 469.40 L 330.40 468.90 L 332.90 467.40 L 333.10 466.50 L 332.80 465.80 L 330.40 464.30 L 326.80 462.50 L 324.80 459.90 L 323.40 458.60 L 321.80 457.70 L 318.10 456.80 L 316.20 456.90 L 309.80 458.10 L 302.60 460.00 L 300.90 459.30 L 300.00 458.00 L 299.00 455.60 L 298.70 453.70 L 300.50 449.40 L 302.70 445.50 L 305.30 441.70 L 308.20 438.20 L 311.50 434.90 L 315.00 432.10 L 318.90 429.60 L 323.10 427.40 L 325.70 426.30 L 328.30 425.80 L 331.00 425.90 L 333.30 426.70 L 334.70 427.50 L 336.60 429.90 L 337.10 431.40 L 337.20 433.20 L 336.80 435.50 Z" fill="#2b0707" fill-rule="nonzero" node-id="115" stroke="none" target-height="55.200012" target-width="54.099976" target-x="298.7" target-y="425.8"></path><path d="M 184.00 427.20 L 185.90 432.20 L 188.10 436.40 L 190.60 440.10 L 193.50 443.50 L 196.70 446.40 L 200.10 448.90 L 207.80 453.00 L 212.00 454.70 L 218.70 456.70 L 230.90 459.70 L 235.80 461.30 L 258.90 471.80 L 259.60 472.80 L 259.90 476.40 L 260.50 477.90 L 262.80 482.20 L 265.40 486.20 L 268.60 489.80 L 272.10 493.10 L 275.90 495.90 L 280.10 498.30 L 285.30 499.80 L 290.70 500.00 L 296.20 498.80 L 302.10 499.30 L 303.20 499.70 L 304.00 500.60 L 307.60 508.20 L 310.90 516.00 L 316.00 529.60 L 324.20 546.90 L 331.30 554.90 L 331.60 556.10 L 330.80 557.40 L 332.00 558.10 L 332.70 559.60 L 335.30 559.40 L 337.00 559.50 L 338.60 560.10 L 340.00 561.10 L 341.10 562.40 L 342.10 564.50 L 333.30 561.00 L 324.40 558.00 L 315.30 555.50 L 306.20 553.50 L 297.00 552.00 L 287.70 551.00 L 278.30 550.50 L 269.00 550.40 L 259.60 550.90 L 250.20 551.90 L 248.40 552.40 L 246.60 553.30 L 243.30 556.40 L 240.00 561.30 L 239.60 558.70 L 239.20 558.30 L 238.80 558.10 L 236.50 558.30 L 235.20 559.20 L 221.20 572.60 L 218.80 573.70 L 189.30 573.70 L 188.10 571.70 L 186.50 567.40 L 186.00 564.00 L 186.10 560.50 L 186.60 559.30 L 192.00 553.80 L 196.10 547.20 L 198.20 542.70 L 202.50 531.40 L 209.40 525.10 L 210.40 524.50 L 211.40 524.30 L 212.50 524.50 L 222.50 532.40 L 227.40 535.60 L 233.60 541.50 L 234.20 541.80 L 234.90 541.60 L 235.40 540.00 L 234.70 538.00 L 215.90 522.50 L 207.30 514.80 L 194.90 502.60 L 191.10 498.00 L 187.80 493.20 L 184.80 488.10 L 182.10 482.80 L 178.70 473.70 L 177.80 469.70 L 177.20 465.40 L 177.20 456.70 L 178.60 445.50 L 180.10 439.00 L 184.00 427.20 Z" fill="#f5ab5c" fill-rule="nonzero" node-id="117" stroke="none" target-height="146.5" target-width="164.90001" target-x="177.2" target-y="427.2"></path><path d="M 336.80 435.50 L 339.50 435.80 L 341.70 436.50 L 343.60 437.70 L 345.20 439.30 L 346.40 441.30 L 347.30 443.80 L 348.00 446.90 L 348.30 450.80 L 347.80 453.60 L 347.00 455.90 L 345.90 457.60 L 344.60 459.00 L 342.90 460.00 L 340.80 460.70 L 336.50 461.10 L 334.70 460.70 L 333.00 459.90 L 331.60 458.80 L 330.30 457.20 L 329.40 455.40 L 328.70 451.60 L 329.00 448.60 L 330.00 445.60 L 333.00 440.00 L 336.80 435.50 Z" fill="#f5f6f8" fill-rule="nonzero" node-id="119" stroke="none" target-height="25.600006" target-width="19.599976" target-x="328.7" target-y="435.5"></path><path d="M 632.00 451.90 L 582.00 453.50 L 580.80 453.30 L 574.40 450.10 L 568.90 448.70 L 577.00 447.50 L 585.10 446.70 L 593.20 446.30 L 601.40 446.30 L 615.50 447.40 L 621.20 448.50 L 626.70 450.00 L 632.00 451.90 Z" fill="#f3adac" fill-rule="nonzero" node-id="121" stroke="none" target-height="7.200012" target-width="63.099976" target-x="568.9" target-y="446.3"></path><path d="M 569.10 448.70 L 574.70 450.10 L 581.00 453.30 L 582.20 453.50 L 632.20 451.90 L 633.70 452.60 L 635.60 454.70 L 636.20 457.70 L 636.00 459.70 L 626.60 504.00 L 625.30 506.80 L 619.50 515.10 L 615.10 520.60 L 610.30 525.80 L 605.20 530.70 L 599.90 535.40 L 594.30 539.70 L 588.40 543.70 L 582.20 547.30 L 581.40 548.40 L 581.70 549.70 L 582.80 550.50 L 591.10 553.20 L 592.30 553.30 L 593.50 552.70 L 595.90 550.60 L 598.60 549.00 L 601.60 547.80 L 604.80 547.10 L 608.10 546.80 L 611.70 547.00 L 615.80 547.70 L 620.40 548.90 L 612.80 548.30 L 605.40 548.60 L 604.60 548.90 L 603.90 550.30 L 603.90 550.80 L 605.60 551.60 L 606.00 552.60 L 606.00 553.20 L 604.20 556.10 L 600.70 560.40 L 598.70 562.30 L 597.60 563.00 L 594.90 563.20 L 590.10 560.90 L 583.70 556.00 L 580.70 553.10 L 579.80 551.30 L 580.20 549.20 L 581.30 547.40 L 581.20 546.10 L 578.50 544.20 L 574.40 543.10 L 573.90 542.60 L 574.00 542.00 L 575.10 540.80 L 583.50 534.50 L 585.50 532.70 L 587.20 530.40 L 588.50 528.00 L 589.20 525.50 L 589.40 522.90 L 589.10 520.00 L 588.10 516.80 L 586.40 513.20 L 576.80 498.70 L 570.40 485.30 L 565.20 475.60 L 564.60 474.40 L 564.50 471.60 L 563.60 470.20 L 557.10 463.20 L 552.80 461.50 L 550.00 459.50 L 548.40 457.60 L 547.70 456.10 L 547.60 455.00 L 548.10 454.00 L 549.10 453.10 L 551.10 452.20 L 550.60 454.90 L 551.60 457.30 L 553.70 458.70 L 554.90 459.00 L 557.20 458.70 L 569.10 448.70 Z" fill="#e66b63" fill-rule="nonzero" node-id="123" stroke="none" target-height="114.5" target-width="88.60004" target-x="547.6" target-y="448.7"></path><path d="M 299.20 455.10 L 300.20 457.50 L 301.20 458.80 L 302.90 459.50 L 310.00 457.60 L 316.40 456.40 L 318.30 456.30 L 322.00 457.20 L 323.60 458.10 L 325.00 459.40 L 326.90 462.00 L 330.60 463.70 L 333.10 465.60 L 333.30 466.50 L 333.00 467.20 L 330.60 468.40 L 330.30 468.90 L 330.40 469.60 L 331.40 471.10 L 332.50 472.00 L 329.30 472.10 L 326.60 472.60 L 324.40 473.60 L 322.40 475.10 L 320.80 477.00 L 318.80 482.00 L 316.90 483.50 L 315.20 483.90 L 312.80 484.00 L 309.40 483.50 L 307.50 482.10 L 306.00 480.50 L 304.70 478.70 L 303.80 476.50 L 301.60 473.30 L 300.00 469.90 L 298.90 466.30 L 298.50 462.60 L 298.50 458.90 L 299.20 455.10 Z" fill="#b83934" fill-rule="nonzero" node-id="125" stroke="none" target-height="28.899994" target-width="34.799988" target-x="298.5" target-y="455.1"></path><path d="M 508.40 462.60 L 509.30 469.60 L 508.90 476.60 L 508.40 477.50 L 507.60 476.90 L 504.20 471.90 L 501.70 466.40 L 501.50 465.10 L 502.70 462.90 L 504.90 461.20 L 506.90 461.00 L 508.10 461.90 L 508.40 462.60 Z" fill="#f29f66" fill-rule="nonzero" node-id="127" stroke="none" target-height="16.5" target-width="7.799988" target-x="501.5" target-y="461"></path><path d="M 286.80 474.50 L 286.20 477.30 L 285.20 479.80 L 283.80 482.20 L 282.00 484.40 L 277.70 487.90 L 274.80 488.70 L 271.90 488.10 L 269.60 486.30 L 266.00 480.60 L 264.60 477.40 L 263.30 473.20 L 264.10 471.50 L 265.00 471.00 L 282.70 469.70 L 284.20 469.80 L 285.40 470.50 L 286.30 471.70 L 286.80 474.50 Z" fill="#f9d5bc" fill-rule="nonzero" node-id="129" stroke="none" target-height="19" target-width="23.5" target-x="263.3" target-y="469.7"></path><path d="M 332.20 472.00 L 336.80 475.20 L 337.10 477.50 L 337.00 479.30 L 336.50 480.90 L 335.60 482.20 L 334.30 483.20 L 330.00 484.80 L 327.50 484.90 L 325.00 484.40 L 322.80 483.30 L 320.30 481.00 L 319.30 479.50 L 320.60 477.10 L 322.20 475.20 L 324.10 473.80 L 326.30 472.70 L 329.00 472.10 L 332.20 472.00 Z" fill="#eec0a5" fill-rule="nonzero" node-id="131" stroke="none" target-height="12.899994" target-width="17.800018" target-x="319.3" target-y="472"></path><path d="M 376.30 498.40 L 374.30 497.50 L 373.10 496.30 L 372.30 493.80 L 371.80 489.00 L 372.30 485.50 L 373.30 481.90 L 376.30 473.80 L 376.90 473.40 L 377.70 473.30 L 378.50 473.70 L 379.00 474.50 L 379.60 480.00 L 379.90 487.10 L 379.60 490.80 L 379.00 493.90 L 378.30 495.90 L 376.30 498.40 Z" fill="#71151a" fill-rule="nonzero" node-id="133" stroke="none" target-height="25.100006" target-width="8.100006" target-x="371.8" target-y="473.3"></path><path d="M 514.60 479.80 L 516.90 476.90 L 519.10 475.00 L 521.30 473.70 L 523.70 473.00 L 526.00 472.80 L 528.40 473.10 L 533.00 475.00 L 535.30 476.50 L 538.40 479.20 L 542.50 484.20 L 543.40 486.00 L 544.40 490.00 L 544.50 493.70 L 544.10 497.20 L 543.10 500.70 L 541.60 503.90 L 539.60 507.00 L 537.10 509.90 L 535.70 511.20 L 534.00 512.10 L 532.10 512.30 L 530.10 512.00 L 527.90 511.20 L 526.00 509.80 L 524.40 508.10 L 523.10 506.10 L 517.50 495.20 L 511.00 484.10 L 511.30 482.50 L 513.50 481.20 L 514.60 479.80 Z" fill="#f29c49" fill-rule="nonzero" node-id="135" stroke="none" target-height="39.5" target-width="33.5" target-x="511" target-y="472.8"></path><path d="M 337.10 475.30 L 339.50 476.70 L 342.60 479.30 L 344.80 480.30 L 347.40 480.60 L 348.60 480.30 L 350.80 478.70 L 353.00 483.80 L 353.90 487.40 L 353.60 488.70 L 351.80 491.20 L 350.00 492.80 L 341.80 497.80 L 335.10 505.10 L 334.20 506.50 L 333.80 509.20 L 334.80 511.30 L 336.70 513.40 L 341.00 516.50 L 343.50 517.70 L 347.00 518.60 L 350.60 518.90 L 354.40 518.60 L 356.90 518.00 L 359.40 517.00 L 361.70 515.50 L 364.90 512.80 L 367.80 509.60 L 370.30 506.20 L 372.40 502.80 L 372.90 501.20 L 373.50 495.80 L 375.20 497.50 L 376.70 497.90 L 375.50 499.40 L 375.10 500.60 L 375.30 501.70 L 376.70 503.20 L 377.00 503.90 L 376.50 505.40 L 372.80 510.40 L 368.80 515.10 L 364.40 519.60 L 362.30 521.20 L 359.70 522.50 L 356.40 523.50 L 352.30 524.20 L 347.20 524.40 L 342.80 523.60 L 339.10 522.40 L 335.90 520.80 L 333.30 518.80 L 331.00 516.40 L 329.20 513.50 L 327.80 510.10 L 325.60 499.50 L 324.30 496.40 L 322.70 493.50 L 320.70 490.90 L 318.40 488.40 L 315.80 486.30 L 313.00 484.50 L 309.90 483.00 L 313.40 483.50 L 315.90 483.40 L 317.70 482.80 L 318.90 481.90 L 319.70 480.70 L 320.10 479.00 L 321.00 480.50 L 323.50 482.80 L 325.80 483.90 L 328.20 484.40 L 330.80 484.30 L 334.80 483.00 L 335.90 482.10 L 336.70 480.80 L 337.20 479.40 L 337.10 475.30 Z" fill="#ea5f3a" fill-rule="nonzero" node-id="137" stroke="none" target-height="49.100037" target-width="67.100006" target-x="309.9" target-y="475.3"></path><path d="M 303.80 476.60 L 304.80 478.80 L 307.60 482.20 L 309.40 483.60 L 312.50 485.10 L 315.40 486.80 L 318.00 488.90 L 320.30 491.30 L 322.20 494.00 L 323.90 496.90 L 325.10 500.00 L 327.30 510.60 L 328.70 514.00 L 330.50 516.90 L 332.80 519.30 L 335.40 521.30 L 338.60 523.00 L 342.30 524.20 L 346.70 525.00 L 359.90 525.00 L 361.40 525.20 L 362.70 525.90 L 363.60 526.90 L 365.80 533.00 L 366.40 534.10 L 367.70 534.90 L 370.90 535.10 L 376.30 534.10 L 378.10 533.50 L 388.40 528.20 L 397.30 524.30 L 406.30 520.80 L 415.50 517.70 L 424.90 515.20 L 424.50 517.30 L 425.40 519.20 L 415.60 522.90 L 410.80 525.30 L 406.40 528.30 L 403.80 530.50 L 401.40 533.10 L 399.30 535.90 L 398.90 537.00 L 399.30 539.20 L 400.50 540.50 L 402.90 541.00 L 406.60 540.80 L 409.40 539.80 L 415.70 536.20 L 419.20 534.80 L 422.90 533.80 L 424.40 534.10 L 425.30 535.40 L 425.30 536.50 L 424.20 540.80 L 424.20 542.20 L 425.30 544.50 L 427.20 546.30 L 427.50 547.00 L 427.40 547.80 L 425.00 550.40 L 423.50 553.60 L 423.30 555.10 L 423.50 557.10 L 424.30 559.10 L 425.50 561.00 L 428.00 563.60 L 431.20 566.00 L 438.10 569.60 L 441.50 570.80 L 446.90 572.20 L 448.10 572.80 L 448.50 573.50 L 448.30 574.10 L 447.20 575.10 L 434.60 581.30 L 424.80 586.60 L 412.90 593.60 L 403.70 597.90 L 401.60 599.30 L 400.80 600.30 L 400.90 600.60 L 405.90 600.20 L 413.40 598.30 L 416.90 596.80 L 433.30 587.50 L 439.00 584.70 L 446.80 581.80 L 450.50 581.00 L 453.50 580.70 L 455.70 581.00 L 457.40 581.80 L 458.60 582.90 L 459.40 584.50 L 459.20 586.90 L 458.60 588.00 L 450.00 596.90 L 449.00 598.20 L 448.00 601.10 L 447.90 602.50 L 448.60 604.10 L 450.00 604.90 L 452.30 605.50 L 454.00 606.40 L 455.10 607.40 L 455.90 608.60 L 456.20 610.10 L 456.20 611.90 L 455.90 613.00 L 454.90 613.80 L 451.30 614.60 L 447.70 614.00 L 444.40 612.20 L 444.40 611.00 L 443.40 608.90 L 441.20 607.70 L 440.00 607.70 L 437.90 609.00 L 431.90 620.00 L 432.30 622.00 L 433.10 622.80 L 434.40 623.30 L 437.40 623.10 L 440.20 622.40 L 442.80 621.30 L 445.10 619.80 L 448.20 621.00 L 451.00 623.30 L 451.60 624.50 L 451.20 627.10 L 450.00 629.70 L 448.50 631.60 L 448.10 634.90 L 445.70 637.70 L 442.90 642.30 L 440.30 643.90 L 437.20 644.30 L 411.70 642.20 L 409.70 642.50 L 408.80 642.90 L 403.70 646.60 L 401.40 647.70 L 396.50 648.90 L 392.60 649.30 L 391.70 649.80 L 388.70 654.10 L 386.20 657.00 L 383.30 659.60 L 380.00 661.90 L 376.60 663.60 L 372.90 664.90 L 370.90 665.20 L 368.40 664.40 L 367.20 666.80 L 366.70 666.70 L 366.50 665.10 L 366.70 663.50 L 377.50 624.00 L 378.10 619.70 L 378.20 615.80 L 377.70 611.80 L 376.80 608.10 L 375.30 604.70 L 372.30 599.40 L 367.80 592.90 L 361.40 584.80 L 352.70 574.90 L 345.80 568.40 L 342.00 565.50 L 341.40 563.80 L 340.40 562.40 L 339.10 561.30 L 337.60 560.60 L 335.90 560.30 L 333.80 560.40 L 333.30 560.80 L 332.70 560.30 L 332.40 559.20 L 331.10 558.60 L 331.70 557.00 L 331.50 555.90 L 325.80 549.70 L 323.20 545.70 L 316.10 530.40 L 309.40 513.20 L 303.90 501.10 L 302.90 500.40 L 296.40 499.80 L 298.60 499.40 L 299.50 498.80 L 300.50 497.40 L 300.50 495.50 L 299.20 492.10 L 299.10 488.40 L 300.60 483.60 L 301.00 479.70 L 301.50 478.00 L 302.10 477.10 L 302.90 476.60 L 303.80 476.60 Z M 413.10 577.90 L 413.80 574.30 L 413.30 570.80 L 411.50 567.70 L 410.10 566.10 L 408.20 564.90 L 406.20 564.20 L 404.00 563.90 L 397.20 564.10 L 390.30 564.70 L 388.60 565.60 L 388.10 566.30 L 387.60 569.60 L 387.70 571.90 L 388.80 576.50 L 391.20 580.50 L 392.80 582.20 L 396.80 585.10 L 398.70 585.80 L 400.70 586.10 L 402.70 586.00 L 404.60 585.40 L 408.00 583.50 L 410.40 581.70 L 412.10 579.80 L 413.10 577.90 Z" fill="#f29c49" fill-rule="nonzero" node-id="139" stroke="none" target-height="190.19998" target-width="163" target-x="296.4" target-y="476.6"></path><path d="M 371.70 502.90 L 367.10 509.70 L 364.20 512.80 L 361.00 515.50 L 358.70 517.00 L 353.70 518.70 L 350.00 519.00 L 346.40 518.70 L 343.00 517.80 L 340.50 516.70 L 336.10 513.50 L 334.10 511.40 L 333.10 509.30 L 333.50 506.60 L 334.40 505.20 L 339.60 500.20 L 343.00 497.50 L 351.60 492.20 L 369.10 484.10 L 370.10 484.40 L 370.60 485.10 L 369.40 490.40 L 371.70 502.90 Z" fill="#ee8363" fill-rule="nonzero" node-id="141" stroke="none" target-height="34.899994" target-width="38.600006" target-x="333.1" target-y="484.1"></path><path d="M 724.10 690.70 L 735.60 687.20 L 736.80 687.10 L 737.90 687.40 L 738.80 688.00 L 739.60 689.80 L 738.10 696.10 L 736.80 700.40 L 735.40 703.50 L 734.00 705.70 L 730.10 706.90 L 728.20 708.00 L 726.50 709.40 L 722.60 713.90 L 720.30 714.30 L 713.00 719.40 L 711.80 720.00 L 708.30 720.10 L 702.30 723.60 L 696.70 725.30 L 691.00 726.00 L 688.30 725.80 L 685.70 725.30 L 679.60 723.10 L 674.90 722.10 L 673.00 720.40 L 668.10 720.00 L 666.40 719.30 L 661.90 716.20 L 658.90 714.50 L 655.60 713.20 L 652.10 712.30 L 648.60 712.00 L 644.90 712.10 L 643.20 711.80 L 641.90 711.00 L 640.80 709.30 L 640.80 706.50 L 641.70 705.10 L 647.50 698.80 L 647.50 697.00 L 646.50 695.90 L 642.30 695.70 L 639.50 696.10 L 637.30 696.90 L 635.30 698.30 L 633.70 700.10 L 631.60 703.80 L 630.50 704.60 L 629.20 704.90 L 627.60 704.60 L 622.00 701.80 L 618.30 699.30 L 603.10 696.80 L 601.00 695.50 L 599.50 693.50 L 597.70 691.90 L 595.50 690.90 L 590.40 689.90 L 587.70 689.00 L 585.10 687.70 L 576.90 682.50 L 564.30 676.40 L 561.40 675.80 L 560.20 675.10 L 559.20 674.10 L 558.30 672.20 L 557.50 667.40 L 557.70 663.80 L 558.40 662.70 L 559.40 661.80 L 561.40 660.90 L 561.50 660.30 L 561.00 659.20 L 554.30 661.60 L 551.20 664.60 L 548.80 666.50 L 546.10 668.00 L 543.20 669.10 L 535.10 651.60 L 531.30 645.40 L 525.80 640.40 L 517.50 633.60 L 515.40 631.20 L 513.70 628.40 L 511.40 622.30 L 510.70 619.00 L 510.10 608.20 L 509.50 607.00 L 505.70 601.90 L 505.80 598.40 L 505.30 595.10 L 504.20 592.00 L 502.70 589.10 L 500.80 586.40 L 495.80 581.50 L 489.80 577.50 L 485.00 575.10 L 480.10 573.30 L 475.20 572.00 L 470.00 571.10 L 469.00 569.90 L 468.90 568.70 L 471.00 562.10 L 472.70 553.70 L 473.20 553.00 L 473.70 552.90 L 474.40 553.20 L 476.70 555.70 L 478.00 556.60 L 480.80 557.40 L 483.50 557.00 L 484.70 556.30 L 486.60 554.20 L 487.10 552.90 L 487.30 551.20 L 485.50 541.30 L 484.70 540.40 L 483.20 540.40 L 476.40 547.70 L 474.50 548.60 L 473.50 548.50 L 472.60 548.00 L 472.00 547.20 L 471.80 546.10 L 471.40 539.90 L 469.60 527.80 L 467.50 518.80 L 464.20 508.50 L 463.40 507.50 L 461.20 506.20 L 460.00 506.10 L 457.50 506.60 L 457.10 503.80 L 455.60 502.60 L 450.50 502.10 L 472.00 497.00 L 473.90 497.20 L 489.00 507.00 L 510.20 518.40 L 516.20 521.80 L 527.80 529.20 L 529.60 530.70 L 535.60 537.10 L 537.20 538.30 L 555.60 550.10 L 573.70 562.20 L 579.60 566.50 L 581.80 568.60 L 582.50 569.70 L 582.50 570.30 L 582.00 570.70 L 580.70 570.90 L 573.70 570.00 L 569.70 570.00 L 565.70 570.50 L 561.90 571.50 L 558.40 572.90 L 555.30 574.70 L 552.40 576.80 L 550.20 579.30 L 548.50 582.00 L 547.70 584.20 L 547.20 586.50 L 547.20 589.00 L 547.70 591.70 L 548.60 594.20 L 550.00 596.90 L 552.20 599.80 L 555.10 603.00 L 561.10 608.00 L 564.50 610.00 L 567.90 611.50 L 572.70 612.70 L 577.40 612.70 L 582.30 611.40 L 586.00 609.70 L 589.70 607.50 L 593.10 604.90 L 596.00 602.00 L 597.60 599.90 L 600.00 595.00 L 601.20 594.30 L 602.00 594.40 L 603.10 595.20 L 606.70 600.20 L 612.00 605.20 L 613.30 609.20 L 614.60 611.80 L 631.40 627.00 L 635.40 631.00 L 651.40 650.20 L 660.70 659.90 L 665.90 667.00 L 668.80 669.50 L 670.40 671.40 L 671.50 673.70 L 672.10 676.20 L 672.10 677.80 L 671.20 682.10 L 671.70 683.70 L 672.40 684.30 L 687.80 693.30 L 692.80 695.70 L 699.70 698.20 L 703.30 699.00 L 707.00 699.40 L 711.00 699.50 L 718.60 698.50 L 720.80 697.60 L 722.30 696.50 L 723.40 694.90 L 724.00 693.00 L 724.10 690.70 Z M 535.00 547.00 L 533.00 540.00 L 531.10 536.10 L 528.20 533.00 L 526.10 531.80 L 523.50 530.90 L 518.60 529.60 L 513.70 528.90 L 508.70 528.90 L 503.80 529.40 L 499.00 530.50 L 494.20 532.20 L 493.40 532.70 L 492.90 533.50 L 492.70 534.40 L 503.60 556.10 L 504.30 557.20 L 506.40 558.60 L 521.80 559.40 L 523.80 559.10 L 527.50 558.00 L 531.40 555.20 L 533.20 553.30 L 535.10 549.90 L 535.00 547.00 Z M 536.40 567.10 L 528.90 567.10 L 521.40 567.60 L 513.80 568.70 L 512.70 569.30 L 512.50 570.30 L 513.00 572.40 L 514.00 574.40 L 517.80 579.10 L 525.90 585.90 L 526.90 586.60 L 529.40 587.10 L 530.70 587.00 L 533.20 586.20 L 535.50 585.10 L 537.50 583.60 L 539.30 581.70 L 540.70 579.70 L 541.70 577.30 L 542.20 575.30 L 542.20 573.40 L 541.70 571.60 L 540.60 569.90 L 539.20 568.60 L 537.00 567.20 L 536.40 567.10 Z M 531.30 627.60 L 532.90 628.90 L 534.70 629.70 L 536.60 630.10 L 540.60 629.70 L 542.60 628.90 L 552.60 623.10 L 554.80 620.50 L 555.70 618.20 L 556.00 615.80 L 555.40 612.50 L 554.00 609.80 L 553.00 608.70 L 550.70 607.10 L 537.70 600.90 L 534.50 600.50 L 532.00 601.00 L 529.80 602.00 L 528.50 603.00 L 526.20 606.20 L 524.10 612.50 L 523.50 616.30 L 524.30 619.90 L 525.20 621.50 L 531.30 627.60 Z M 623.60 627.30 L 623.60 625.30 L 623.20 623.50 L 622.20 621.60 L 619.30 618.30 L 615.00 615.70 L 609.60 614.10 L 604.00 614.00 L 599.10 615.20 L 595.30 617.60 L 593.90 619.10 L 592.90 620.80 L 592.40 622.70 L 592.40 624.70 L 592.80 626.50 L 593.80 628.40 L 595.00 630.10 L 598.80 633.20 L 601.00 634.30 L 606.40 635.90 L 612.00 636.00 L 616.90 634.80 L 620.60 632.40 L 622.10 630.90 L 623.00 629.20 L 623.60 627.30 Z M 637.60 650.40 L 636.60 649.90 L 634.30 649.50 L 631.60 650.10 L 630.30 651.30 L 629.60 652.20 L 629.00 654.70 L 630.50 658.70 L 632.10 661.20 L 633.90 663.50 L 636.10 665.30 L 638.40 666.60 L 641.00 667.50 L 643.00 667.70 L 647.30 667.00 L 649.70 666.00 L 650.70 665.00 L 651.00 663.90 L 651.00 661.80 L 650.00 658.70 L 648.60 656.70 L 646.70 655.10 L 644.60 653.70 L 637.60 650.40 Z" fill="#ed7c46" fill-rule="nonzero" node-id="143" stroke="none" target-height="229" target-width="289.09998" target-x="450.5" target-y="497"></path><path d="M 450.70 501.30 L 456.50 502.00 L 457.30 502.90 L 457.70 505.80 L 454.40 508.20 L 448.70 513.80 L 446.10 516.80 L 441.20 524.40 L 439.40 525.50 L 437.80 525.60 L 436.30 525.10 L 425.60 518.90 L 424.60 517.00 L 425.10 514.90 L 432.70 509.10 L 436.90 506.60 L 441.30 504.50 L 445.90 502.70 L 450.70 501.30 Z" fill="#eec0a5" fill-rule="nonzero" node-id="145" stroke="none" target-height="24.299988" target-width="33.100006" target-x="424.6" target-y="501.3"></path><path d="M 457.70 505.90 L 459.00 505.50 L 461.50 505.70 L 463.60 507.10 L 464.70 508.70 L 468.20 521.10 L 469.50 527.20 L 470.50 533.30 L 471.90 546.80 L 473.40 548.20 L 474.40 548.40 L 475.40 548.20 L 476.30 547.60 L 482.70 540.60 L 483.90 540.30 L 484.80 540.60 L 485.30 541.40 L 486.90 549.20 L 487.10 551.20 L 486.40 554.20 L 485.50 555.40 L 483.30 556.90 L 480.60 557.40 L 479.20 557.10 L 476.60 555.80 L 474.20 553.30 L 473.40 553.00 L 472.90 553.10 L 472.50 553.80 L 470.90 562.20 L 468.70 568.80 L 468.60 569.90 L 469.00 570.70 L 469.80 571.50 L 474.80 572.20 L 479.70 573.60 L 484.60 575.50 L 492.60 579.80 L 498.00 584.10 L 500.40 586.70 L 502.30 589.40 L 503.80 592.30 L 504.80 595.30 L 505.30 598.60 L 505.20 602.10 L 503.40 605.80 L 501.30 609.20 L 498.90 612.40 L 496.10 615.30 L 493.10 618.00 L 489.80 620.30 L 486.30 622.30 L 482.60 623.90 L 478.60 625.20 L 471.60 622.50 L 468.20 622.70 L 465.40 622.50 L 463.20 621.80 L 461.50 620.70 L 460.10 619.20 L 459.00 617.20 L 458.20 614.70 L 457.60 609.80 L 456.80 608.20 L 455.50 607.00 L 452.10 605.40 L 450.80 604.40 L 449.90 603.20 L 449.40 601.70 L 449.20 599.90 L 449.60 597.50 L 458.80 587.50 L 459.00 584.90 L 458.40 583.40 L 457.50 582.30 L 456.20 581.50 L 454.60 581.10 L 450.10 581.40 L 442.50 583.60 L 432.90 588.10 L 416.50 597.20 L 413.00 598.60 L 405.50 600.40 L 401.70 601.00 L 400.30 600.80 L 401.20 599.70 L 403.30 598.30 L 412.50 594.00 L 429.40 584.30 L 446.90 575.50 L 447.90 574.50 L 448.20 573.90 L 447.80 573.20 L 446.70 572.60 L 441.20 571.10 L 437.80 569.80 L 430.90 566.20 L 427.80 563.80 L 425.30 561.20 L 424.00 559.30 L 423.30 557.30 L 423.00 555.30 L 423.20 553.90 L 423.70 552.40 L 426.90 548.00 L 427.10 547.20 L 426.80 546.50 L 424.30 543.90 L 423.70 542.60 L 423.80 541.20 L 424.90 536.90 L 424.90 536.10 L 424.10 534.90 L 423.30 534.50 L 422.20 534.50 L 418.50 535.50 L 415.00 536.90 L 408.70 540.60 L 406.00 541.50 L 404.10 541.80 L 402.20 541.70 L 400.20 541.20 L 399.20 540.60 L 398.50 539.60 L 398.20 538.40 L 398.60 536.40 L 400.70 533.60 L 403.00 531.10 L 405.70 528.80 L 410.10 525.80 L 414.90 523.40 L 424.70 519.70 L 435.40 525.90 L 437.00 526.40 L 438.70 526.30 L 440.10 525.60 L 441.30 524.30 L 446.10 517.00 L 448.70 513.90 L 451.50 510.90 L 457.70 505.90 Z" fill="#e73d22" fill-rule="nonzero" node-id="147" stroke="none" target-height="119.70001" target-width="107.099976" target-x="398.2" target-y="505.5"></path><path d="M 189.10 574.10 L 195.70 583.00 L 200.00 587.90 L 210.00 597.50 L 216.20 602.60 L 218.50 604.10 L 220.50 604.80 L 222.30 605.00 L 224.00 604.70 L 225.60 603.90 L 223.70 613.30 L 200.60 592.90 L 195.80 588.00 L 191.70 583.00 L 188.30 577.90 L 185.50 572.70 L 183.20 567.40 L 181.50 561.90 L 180.30 556.30 L 179.70 550.50 L 179.60 544.50 L 180.10 538.20 L 181.20 531.60 L 184.00 521.30 L 187.20 515.10 L 189.70 511.90 L 190.90 511.80 L 191.70 512.20 L 192.00 512.70 L 187.70 523.90 L 187.60 525.00 L 188.00 525.80 L 188.80 526.60 L 194.40 526.90 L 199.70 526.40 L 202.00 525.70 L 204.00 524.40 L 205.00 523.30 L 206.20 519.90 L 206.10 518.60 L 201.60 512.70 L 199.00 507.00 L 210.20 517.50 L 221.80 527.60 L 234.70 538.00 L 235.40 539.90 L 234.90 541.80 L 234.20 541.90 L 227.40 535.70 L 220.20 530.70 L 213.40 525.20 L 212.40 524.60 L 211.40 524.40 L 210.30 524.60 L 209.40 525.20 L 202.60 531.50 L 201.90 532.70 L 198.20 542.70 L 196.10 547.20 L 193.80 551.30 L 189.80 556.20 L 186.50 559.40 L 186.10 560.60 L 185.90 563.70 L 186.10 566.60 L 186.70 569.30 L 187.70 571.80 L 189.10 574.10 Z" fill="#d74a3e" fill-rule="nonzero" node-id="149" stroke="none" target-height="106.29999" target-width="55.799988" target-x="179.6" target-y="507"></path><path d="M 535.00 547.00 L 535.00 550.10 L 534.50 551.50 L 533.10 553.50 L 531.40 555.20 L 527.50 557.70 L 525.10 558.60 L 522.60 559.00 L 506.30 558.30 L 505.20 557.80 L 503.60 555.80 L 493.10 535.10 L 492.90 533.30 L 493.40 532.50 L 494.20 531.90 L 499.00 530.20 L 503.80 529.10 L 508.70 528.60 L 513.70 528.70 L 518.60 529.40 L 523.50 530.60 L 526.00 531.60 L 528.00 532.80 L 529.60 534.30 L 531.40 536.90 L 532.90 540.00 L 535.00 547.00 Z" fill="#e73d22" fill-rule="nonzero" node-id="151" stroke="none" target-height="30.400024" target-width="42.100006" target-x="492.9" target-y="528.6"></path><path d="M 341.90 565.20 L 345.70 568.10 L 352.60 574.60 L 361.30 584.50 L 367.70 592.60 L 372.20 599.20 L 375.20 604.40 L 376.70 607.80 L 377.60 611.50 L 378.10 615.40 L 378.00 619.40 L 377.40 623.70 L 366.60 663.20 L 365.40 664.80 L 364.30 665.90 L 362.30 667.00 L 347.40 670.00 L 323.10 675.60 L 313.10 677.50 L 303.00 679.00 L 289.10 680.40 L 260.60 682.50 L 246.10 683.00 L 243.00 679.80 L 237.90 672.80 L 235.70 669.00 L 231.60 659.40 L 231.10 658.80 L 230.50 658.80 L 230.00 659.40 L 229.20 661.00 L 229.50 663.10 L 227.00 655.10 L 225.10 646.90 L 223.70 638.60 L 222.90 625.90 L 223.60 613.10 L 225.50 603.70 L 231.10 582.10 L 233.40 575.20 L 237.40 566.30 L 242.10 558.20 L 244.20 555.60 L 246.20 553.90 L 248.20 552.90 L 250.20 552.40 L 260.60 551.40 L 270.90 551.10 L 281.30 551.40 L 291.70 552.20 L 301.90 553.70 L 312.10 555.70 L 322.20 558.30 L 332.10 561.50 L 341.90 565.20 Z" fill="#f9d5bc" fill-rule="nonzero" node-id="153" stroke="none" target-height="131.90002" target-width="155.20001" target-x="222.9" target-y="551.1"></path><path d="M 239.80 562.00 L 237.30 566.50 L 233.30 575.40 L 231.00 582.30 L 225.30 603.90 L 223.90 604.60 L 220.90 604.90 L 217.70 603.80 L 209.70 597.50 L 199.70 588.00 L 195.40 583.10 L 188.80 574.10 L 218.60 574.10 L 219.70 573.90 L 221.00 573.00 L 236.00 558.90 L 237.40 558.50 L 239.20 558.80 L 239.80 562.00 Z" fill="#ee8363" fill-rule="nonzero" node-id="155" stroke="none" target-height="46.400024" target-width="51" target-x="188.8" target-y="558.5"></path><path d="M 413.10 577.90 L 412.00 579.80 L 410.10 581.90 L 407.60 583.60 L 402.30 586.10 L 400.30 586.30 L 398.30 586.00 L 394.40 583.80 L 392.50 582.30 L 389.60 578.50 L 387.80 574.20 L 387.40 571.90 L 387.50 567.10 L 388.30 565.40 L 389.90 564.70 L 403.60 563.90 L 405.80 564.10 L 407.70 564.90 L 409.50 566.00 L 411.10 567.70 L 413.20 570.90 L 413.90 574.30 L 413.10 577.90 Z" fill="#ea5f3a" fill-rule="nonzero" node-id="157" stroke="none" target-height="22.399963" target-width="26.5" target-x="387.4" target-y="563.9"></path><path d="M 536.40 567.10 L 538.30 567.70 L 539.90 568.80 L 541.10 570.20 L 542.00 572.00 L 542.40 573.90 L 542.10 576.80 L 540.80 579.60 L 539.40 581.70 L 537.60 583.50 L 535.60 585.10 L 533.30 586.20 L 529.60 587.20 L 528.30 587.10 L 526.00 585.90 L 517.80 579.10 L 514.30 574.90 L 513.10 572.70 L 512.50 569.70 L 513.70 568.70 L 521.30 567.70 L 528.80 567.10 L 536.40 567.10 Z" fill="#e73d22" fill-rule="nonzero" node-id="159" stroke="none" target-height="20.100037" target-width="29.900024" target-x="512.5" target-y="567.1"></path><path d="M 450.10 596.90 L 449.70 599.20 L 449.80 601.00 L 450.30 602.50 L 451.20 603.80 L 452.50 604.80 L 456.00 606.40 L 457.30 607.60 L 458.10 609.20 L 458.70 614.10 L 459.30 616.70 L 460.40 618.60 L 461.80 620.10 L 463.50 621.20 L 465.70 621.90 L 468.60 622.20 L 472.10 621.90 L 468.40 622.50 L 465.00 623.60 L 461.90 625.30 L 459.00 627.50 L 456.60 630.20 L 454.60 633.40 L 453.30 636.30 L 452.70 638.80 L 452.60 641.00 L 453.10 642.90 L 454.10 644.70 L 455.60 646.40 L 457.80 647.90 L 460.70 649.20 L 463.70 650.00 L 466.80 650.30 L 470.00 650.10 L 473.10 649.50 L 476.10 648.40 L 480.10 646.20 L 483.40 643.00 L 485.80 639.00 L 486.10 636.30 L 485.10 633.00 L 483.70 629.80 L 481.90 626.90 L 479.70 624.20 L 483.60 622.90 L 487.30 621.30 L 490.80 619.30 L 497.10 614.30 L 499.90 611.40 L 502.40 608.20 L 504.50 604.80 L 506.30 601.10 L 510.10 606.20 L 510.70 607.40 L 511.30 618.40 L 512.00 621.60 L 514.20 627.70 L 515.90 630.40 L 518.00 632.80 L 526.40 639.60 L 531.90 644.60 L 534.00 647.60 L 535.70 650.80 L 533.20 648.40 L 532.50 648.50 L 531.90 651.40 L 532.30 653.50 L 530.10 648.80 L 526.80 644.80 L 522.60 641.70 L 519.80 640.40 L 517.20 639.70 L 514.80 639.70 L 512.50 640.10 L 510.40 641.10 L 508.60 642.50 L 507.10 644.30 L 505.90 646.50 L 505.00 650.40 L 505.30 651.60 L 507.50 654.80 L 509.80 659.40 L 510.50 661.90 L 511.20 668.20 L 511.60 669.00 L 513.70 670.30 L 517.10 670.90 L 497.50 673.30 L 496.30 674.10 L 495.90 674.90 L 496.10 676.00 L 501.00 681.10 L 505.60 685.00 L 510.50 688.50 L 515.60 691.70 L 520.90 694.50 L 526.50 696.90 L 531.70 698.00 L 536.00 697.60 L 538.70 696.50 L 541.10 694.90 L 543.20 692.80 L 545.00 690.30 L 546.50 687.60 L 547.70 684.50 L 548.10 682.40 L 547.80 678.10 L 545.60 672.00 L 543.70 668.10 L 546.60 667.00 L 549.30 665.50 L 551.70 663.60 L 554.70 660.60 L 561.20 658.20 L 561.60 658.20 L 562.10 659.70 L 559.70 660.90 L 558.70 661.80 L 558.10 662.80 L 557.90 663.90 L 557.90 666.40 L 558.70 671.20 L 559.70 673.10 L 560.60 674.10 L 561.90 674.80 L 564.70 675.40 L 577.30 681.50 L 585.60 686.60 L 588.10 687.90 L 590.80 688.80 L 596.70 690.00 L 598.10 690.80 L 599.90 692.40 L 602.40 695.50 L 617.50 698.20 L 619.40 698.90 L 622.40 701.20 L 625.10 702.70 L 628.00 703.90 L 629.40 704.00 L 630.80 703.70 L 632.00 703.00 L 634.00 699.40 L 635.60 697.60 L 637.60 696.20 L 639.90 695.40 L 642.70 695.00 L 647.10 695.30 L 648.20 696.70 L 648.10 698.30 L 642.40 704.40 L 641.30 706.30 L 641.40 708.40 L 642.70 710.30 L 644.10 711.10 L 652.90 711.60 L 656.30 712.50 L 659.50 713.80 L 662.60 715.50 L 667.10 718.60 L 668.80 719.30 L 673.80 719.70 L 675.80 721.40 L 686.50 724.60 L 691.80 725.30 L 695.80 724.80 L 703.10 722.90 L 705.40 721.90 L 708.10 719.80 L 713.80 718.70 L 721.50 713.30 L 723.40 713.10 L 727.40 708.60 L 731.00 706.10 L 734.80 705.00 L 732.50 708.20 L 727.10 714.00 L 720.70 718.80 L 717.30 720.80 L 708.60 724.90 L 699.80 728.40 L 690.80 731.50 L 681.70 734.00 L 672.40 736.10 L 663.10 737.60 L 653.70 738.60 L 643.00 739.20 L 641.40 738.60 L 638.00 735.60 L 630.00 724.70 L 616.80 711.90 L 612.60 708.40 L 608.20 705.20 L 603.40 702.40 L 599.30 700.50 L 595.20 699.30 L 591.30 698.80 L 587.30 698.90 L 583.40 699.40 L 579.60 700.60 L 575.90 702.10 L 572.40 704.10 L 569.00 706.50 L 562.90 712.10 L 551.60 726.70 L 547.60 729.90 L 544.40 730.90 L 523.30 731.10 L 503.30 730.90 L 501.10 731.10 L 499.00 731.70 L 497.00 732.70 L 495.20 734.10 L 485.10 742.70 L 474.30 751.00 L 471.80 752.60 L 469.10 753.80 L 466.30 754.60 L 463.30 755.00 L 455.60 755.20 L 432.40 753.90 L 387.10 753.20 L 386.30 752.80 L 382.70 748.20 L 379.30 744.50 L 375.50 741.30 L 371.50 738.40 L 369.50 736.20 L 368.00 733.70 L 367.00 731.00 L 366.70 727.90 L 366.10 728.20 L 365.00 725.70 L 363.50 720.60 L 363.10 718.00 L 362.90 709.20 L 363.50 691.90 L 364.40 683.20 L 365.70 674.70 L 367.40 666.20 L 368.20 666.00 L 369.00 663.90 L 370.70 664.60 L 372.70 664.70 L 377.40 663.10 L 380.90 661.30 L 384.10 659.10 L 387.10 656.50 L 389.60 653.50 L 392.40 649.40 L 393.20 648.90 L 394.00 648.60 L 397.60 648.40 L 402.60 647.20 L 404.90 646.10 L 408.90 643.00 L 410.70 642.10 L 412.70 641.70 L 438.20 643.80 L 441.30 643.40 L 443.80 641.80 L 444.80 640.60 L 446.50 637.20 L 448.60 634.50 L 449.20 631.20 L 451.40 628.00 L 452.30 624.00 L 451.70 622.80 L 450.00 621.20 L 448.00 620.00 L 445.80 619.30 L 447.40 618.00 L 447.90 616.60 L 447.70 615.80 L 445.00 612.00 L 448.30 614.00 L 451.90 614.50 L 455.50 613.60 L 456.50 612.80 L 456.80 611.70 L 456.80 609.70 L 456.30 608.20 L 455.50 606.90 L 454.40 606.00 L 452.80 605.20 L 449.40 604.20 L 448.80 603.40 L 448.20 601.00 L 448.40 599.60 L 450.10 596.90 Z" fill="#ea5f3a" fill-rule="nonzero" node-id="161" stroke="none" target-height="158.29999" target-width="371.9" target-x="362.9" target-y="596.9"></path><path d="M 716.80 599.60 L 714.70 603.20 L 709.70 609.70 L 705.40 614.10 L 700.30 618.40 L 698.60 618.60 L 697.30 618.30 L 695.90 617.10 L 695.50 615.70 L 695.90 613.00 L 700.20 608.40 L 708.10 602.00 L 710.90 600.30 L 713.60 599.00 L 716.70 598.40 L 717.10 598.90 L 716.80 599.60 Z" fill="#ef8954" fill-rule="nonzero" node-id="163" stroke="none" target-height="20.199951" target-width="21.599976" target-x="695.5" target-y="598.4"></path><path d="M 531.30 627.60 L 525.20 621.50 L 524.20 619.90 L 523.40 616.30 L 524.10 612.50 L 526.20 606.60 L 527.00 605.10 L 529.20 602.60 L 531.30 601.30 L 533.60 600.50 L 536.90 600.50 L 539.40 601.30 L 552.20 607.80 L 554.50 610.20 L 555.50 612.40 L 556.00 614.90 L 555.60 618.10 L 555.00 619.80 L 552.80 622.60 L 542.60 628.60 L 540.60 629.60 L 538.60 630.10 L 536.60 630.10 L 534.70 629.70 L 532.90 628.90 L 531.30 627.60 Z" fill="#e73d22" fill-rule="nonzero" node-id="165" stroke="none" target-height="29.599976" target-width="32.599976" target-x="523.4" target-y="600.5"></path><path d="M 444.50 612.50 L 447.20 616.80 L 447.20 617.90 L 442.50 621.10 L 439.80 622.20 L 437.10 622.80 L 434.30 623.00 L 433.20 622.80 L 432.40 622.20 L 431.60 620.30 L 431.80 619.50 L 437.70 609.30 L 438.70 608.30 L 439.80 607.80 L 441.00 607.70 L 442.60 608.20 L 444.20 610.30 L 444.50 612.50 Z" fill="#ed7c46" fill-rule="nonzero" node-id="167" stroke="none" target-height="15.299988" target-width="15.600006" target-x="431.6" target-y="607.7"></path><g node-id="200"><path d="M 609.40 614.00 L 614.80 615.40 L 619.20 618.00 L 622.20 621.30 L 623.10 623.20 L 623.50 625.10 L 623.50 627.10 L 623.00 629.00 L 622.00 630.70 L 620.60 632.30 L 616.80 634.60 L 614.40 635.40 L 609.20 636.00 L 603.50 635.10 L 598.60 633.10 L 596.50 631.70 L 593.60 628.40 L 592.60 626.50 L 592.20 624.60 L 592.20 622.60 L 592.80 620.70 L 593.70 619.00 L 595.10 617.40 L 596.90 616.20 L 601.30 614.30 L 603.80 613.90 L 609.40 614.00 Z" fill="#e73d22" fill-rule="nonzero" group-id="3" node-id="171" stroke="none" target-height="22.099976" target-width="31.299988" target-x="592.2" target-y="613.9"></path></g><path d="M 471.90 622.20 L 478.90 624.90 L 481.10 627.50 L 482.90 630.40 L 484.30 633.60 L 485.50 638.40 L 484.00 641.80 L 482.80 643.70 L 479.50 646.90 L 475.30 649.10 L 472.30 650.20 L 469.20 650.80 L 466.10 651.00 L 463.00 650.60 L 459.90 649.80 L 457.00 648.60 L 454.80 647.10 L 453.30 645.40 L 452.30 643.60 L 451.80 641.70 L 451.90 639.50 L 452.50 637.00 L 453.80 634.10 L 456.10 630.70 L 458.70 627.90 L 461.60 625.70 L 464.80 623.90 L 468.20 622.80 L 471.90 622.20 Z" fill="#f3a93e" fill-rule="nonzero" node-id="174" stroke="none" target-height="28.799988" target-width="33.700012" target-x="451.8" target-y="622.2"></path><path d="M 531.30 653.90 L 525.40 667.90 L 524.30 670.10 L 523.00 671.40 L 521.70 672.10 L 518.30 672.20 L 512.80 671.20 L 511.20 670.40 L 510.20 669.30 L 509.30 662.70 L 508.60 660.20 L 506.90 656.70 L 504.30 652.70 L 503.90 651.00 L 504.80 647.30 L 505.90 645.10 L 507.40 643.30 L 509.30 641.80 L 511.40 640.90 L 513.70 640.40 L 516.10 640.50 L 518.70 641.20 L 521.50 642.50 L 523.80 643.80 L 527.50 647.10 L 530.30 651.40 L 531.30 653.90 Z" fill="#f29c49" fill-rule="nonzero" node-id="176" stroke="none" target-height="31.799988" target-width="27.399994" target-x="503.9" target-y="640.4"></path><path d="M 534.70 651.20 L 542.80 668.40 L 546.30 676.50 L 547.10 679.30 L 547.30 682.00 L 546.80 684.80 L 545.70 687.90 L 544.20 690.70 L 542.40 693.10 L 540.30 695.30 L 537.90 696.90 L 535.20 698.00 L 530.80 698.40 L 528.30 698.10 L 525.60 697.20 L 520.00 694.70 L 514.70 691.90 L 509.60 688.70 L 504.70 685.20 L 500.10 681.30 L 495.80 677.10 L 495.20 675.60 L 495.80 674.10 L 496.90 673.60 L 515.70 671.20 L 519.90 671.80 L 521.40 671.50 L 522.70 670.80 L 524.00 669.50 L 525.10 667.40 L 531.00 653.40 L 530.60 651.30 L 531.00 649.10 L 531.80 648.50 L 534.70 651.20 Z" fill="#e73d22" fill-rule="nonzero" node-id="178" stroke="none" target-height="49.900024" target-width="52.099976" target-x="495.2" target-y="648.5"></path><path d="M 637.60 650.40 L 644.60 653.80 L 646.70 655.20 L 648.60 656.80 L 650.00 658.70 L 651.00 661.70 L 651.00 663.60 L 650.40 665.30 L 647.40 666.70 L 643.20 667.40 L 641.20 667.20 L 638.60 666.30 L 636.20 665.00 L 634.00 663.20 L 632.20 660.90 L 630.60 658.40 L 629.30 655.50 L 629.10 654.30 L 629.20 653.10 L 630.20 650.90 L 632.30 649.60 L 633.40 649.30 L 635.50 649.60 L 637.60 650.40 Z" fill="#e73d22" fill-rule="nonzero" node-id="180" stroke="none" target-height="18.100037" target-width="21.900024" target-x="629.1" target-y="649.3"></path><path d="M 246.30 683.20 L 256.20 693.10 L 267.20 701.70 L 273.00 705.60 L 285.20 712.30 L 298.10 717.70 L 311.50 721.60 L 318.50 723.00 L 352.10 728.50 L 361.70 730.90 L 364.10 731.30 L 364.90 731.10 L 365.40 730.50 L 365.40 729.10 L 366.00 728.70 L 366.20 731.10 L 367.30 734.80 L 368.80 737.30 L 370.80 739.30 L 361.70 751.10 L 361.30 753.80 L 360.30 754.80 L 348.20 755.40 L 334.50 755.60 L 333.90 755.20 L 333.40 754.10 L 334.10 751.90 L 334.10 751.00 L 333.70 750.00 L 332.70 748.80 L 330.70 747.60 L 327.20 746.80 L 320.20 746.30 L 315.40 746.50 L 313.10 747.50 L 311.50 749.50 L 310.80 751.90 L 309.80 752.90 L 307.40 754.80 L 304.70 755.50 L 299.30 756.10 L 296.70 755.90 L 292.70 755.40 L 288.80 754.50 L 285.10 753.20 L 281.40 751.60 L 266.30 735.30 L 252.10 718.60 L 248.30 713.50 L 244.80 708.20 L 241.80 702.60 L 239.30 696.80 L 237.10 690.70 L 229.30 662.00 L 230.10 660.40 L 230.60 659.80 L 231.20 659.80 L 231.70 660.40 L 233.90 665.70 L 237.90 673.10 L 243.20 680.00 L 246.30 683.20 Z" fill="#e66b63" fill-rule="nonzero" node-id="182" stroke="none" target-height="96.29999" target-width="141.49998" target-x="229.3" target-y="659.8"></path><path d="M 366.90 663.30 L 366.70 664.90 L 366.90 666.50 L 365.20 675.00 L 363.90 683.60 L 362.50 700.90 L 362.60 718.30 L 363.70 723.50 L 365.60 728.50 L 365.40 730.30 L 364.80 730.70 L 360.90 730.10 L 350.30 727.50 L 334.60 725.10 L 311.90 721.00 L 305.10 719.30 L 292.00 714.80 L 279.40 708.80 L 267.60 701.40 L 262.00 697.20 L 256.70 692.60 L 251.60 687.80 L 246.70 682.60 L 275.50 681.30 L 289.70 680.20 L 303.60 678.60 L 313.50 677.10 L 323.40 675.20 L 348.10 669.60 L 363.60 666.50 L 365.60 664.90 L 366.90 663.30 Z" fill="#f29f8c" fill-rule="nonzero" node-id="184" stroke="none" target-height="67.400024" target-width="120.2" target-x="246.7" target-y="663.3"></path><path d="M 619.60 716.70 L 629.00 725.60 L 634.20 732.90 L 638.90 738.50 L 640.40 739.60 L 642.00 740.10 L 643.20 740.00 L 646.00 745.70 L 648.40 749.60 L 650.40 752.20 L 652.10 753.70 L 652.60 756.10 L 651.70 756.50 L 595.60 757.90 L 582.60 757.70 L 555.20 756.60 L 474.40 756.50 L 474.20 756.20 L 474.70 753.80 L 475.90 753.10 L 521.60 754.40 L 526.40 754.20 L 532.40 753.00 L 542.40 739.80 L 545.10 737.10 L 551.90 731.80 L 555.00 728.60 L 566.30 714.90 L 569.40 711.80 L 572.80 709.20 L 578.10 706.60 L 581.20 705.80 L 584.70 705.70 L 588.20 706.00 L 591.60 706.70 L 610.90 713.90 L 619.60 716.70 Z" fill="#928799" fill-rule="nonzero" node-id="186" stroke="none" target-height="52.200012" target-width="178.39996" target-x="474.2" target-y="705.7"></path><path d="M 745.00 755.10 L 743.30 754.30 L 743.20 753.80 L 743.60 752.80 L 743.20 753.00 L 747.30 748.00 L 751.70 743.60 L 756.50 739.60 L 761.70 736.10 L 767.20 733.00 L 772.90 730.50 L 778.90 728.40 L 785.10 726.90 L 788.80 726.40 L 792.00 726.30 L 797.50 727.30 L 802.30 729.60 L 805.60 732.00 L 815.70 740.90 L 816.80 741.50 L 817.90 741.70 L 819.00 741.40 L 822.90 738.10 L 825.50 736.50 L 827.80 735.60 L 830.30 735.20 L 832.60 735.40 L 834.80 736.00 L 838.90 738.50 L 843.50 743.30 L 847.80 750.40 L 849.50 754.00 L 849.30 755.00 L 745.00 755.10 Z" fill="#a5989f" fill-rule="nonzero" node-id="188" stroke="none" target-height="28.799988" target-width="106.29999" target-x="743.2" target-y="726.3"></path><path d="M 244.90 752.70 L 245.40 753.80 L 245.30 754.90 L 244.70 755.90 L 243.30 757.00 L 175.90 756.70 L 174.80 756.20 L 174.30 754.70 L 178.10 749.10 L 182.40 743.70 L 189.00 737.20 L 192.50 734.40 L 196.30 731.90 L 200.20 730.00 L 204.10 728.50 L 206.80 728.00 L 209.40 728.00 L 211.90 728.40 L 215.50 729.50 L 219.10 731.20 L 222.40 733.20 L 230.70 739.50 L 235.70 743.70 L 244.90 752.70 Z" fill="#928799" fill-rule="nonzero" node-id="190" stroke="none" target-height="29" target-width="71.09999" target-x="174.3" target-y="728"></path><path d="M 348.10 754.90 L 337.80 755.60 L 327.60 755.80 L 317.40 755.40 L 307.30 754.40 L 310.20 752.10 L 311.30 749.10 L 312.80 747.10 L 315.20 746.10 L 320.20 745.90 L 327.10 746.50 L 330.60 747.20 L 332.30 748.10 L 333.30 749.10 L 333.90 750.10 L 334.00 751.30 L 333.40 753.90 L 333.70 754.50 L 334.80 755.30 L 348.10 754.90 Z" fill="#f2a69a" fill-rule="nonzero" node-id="192" stroke="none" target-height="9.899963" target-width="40.80002" target-x="307.3" target-y="745.9"></path><path d="M 280.90 750.80 L 288.30 753.70 L 292.20 754.60 L 296.20 755.10 L 291.70 756.20 L 287.20 756.90 L 277.90 757.80 L 243.00 756.70 L 244.50 755.70 L 245.20 754.80 L 245.20 753.40 L 244.60 752.70 L 250.70 753.30 L 262.90 753.50 L 269.00 753.00 L 275.00 752.10 L 280.90 750.80 Z" fill="#edceca" fill-rule="nonzero" node-id="194" stroke="none" target-height="7" target-width="53.200012" target-x="243" target-y="750.8"></path><path d="M 743.40 752.70 L 743.70 752.50 L 743.30 754.10 L 743.70 754.60 L 745.00 755.10 L 739.50 755.90 L 728.70 756.50 L 707.10 755.90 L 652.60 755.90 L 652.10 753.50 L 743.40 752.70 Z" fill="#edceca" fill-rule="nonzero" node-id="196" stroke="none" target-height="4" target-width="92.900024" target-x="652.1" target-y="752.5"></path></svg>