<?xml version="1.0" standalone="no"?><!DOCTYPE svg PUBLIC "-//W3C//DTD SVG 1.1//EN" "http://www.w3.org/Graphics/SVG/1.1/DTD/svg11.dtd"><svg height="1024" node-id="1" sillyvg="true" template-height="1024" template-width="1024" version="1.1" viewBox="0 0 1024 1024" width="1024" xmlns="http://www.w3.org/2000/svg" xmlns:xlink="http://www.w3.org/1999/xlink"><defs node-id="93"></defs><path d="M 473.90 296.60 L 433.10 320.90 L 438.10 315.50 L 443.40 310.50 L 448.90 305.80 L 454.80 301.40 L 458.50 299.20 L 465.30 296.30 L 468.10 295.90 L 471.00 296.00 L 473.90 296.60 Z" fill="#f0d1cd" fill-rule="nonzero" node-id="97" stroke="none" target-height="25" target-width="40.799988" target-x="433.1" target-y="295.9"></path><path d="M 473.90 296.60 L 478.30 298.30 L 482.40 300.40 L 486.30 302.80 L 490.00 305.60 L 508.50 320.90 L 511.30 324.10 L 513.70 327.50 L 511.60 331.80 L 509.10 335.70 L 506.10 339.20 L 502.60 342.40 L 502.30 343.10 L 502.60 343.80 L 503.40 344.40 L 511.70 339.40 L 519.70 335.10 L 522.40 334.10 L 525.60 333.50 L 529.50 333.30 L 535.40 333.70 L 538.20 331.60 L 540.90 328.10 L 542.30 323.80 L 542.60 320.10 L 543.30 318.90 L 544.20 317.90 L 561.10 312.10 L 564.80 310.60 L 578.20 302.80 L 587.50 300.00 L 637.80 300.60 L 641.20 301.40 L 642.70 301.40 L 644.00 302.00 L 645.00 303.10 L 645.60 304.60 L 646.80 323.80 L 647.70 347.10 L 650.10 358.30 L 650.40 361.60 L 650.20 364.80 L 649.10 369.80 L 646.00 379.30 L 646.00 380.20 L 646.60 380.70 L 674.10 374.00 L 683.00 372.30 L 689.00 371.40 L 704.10 370.10 L 706.60 370.20 L 711.40 371.20 L 724.00 376.60 L 736.90 381.30 L 737.80 387.10 L 738.10 393.00 L 738.40 433.00 L 737.60 437.60 L 734.80 446.30 L 733.70 450.70 L 733.20 458.10 L 733.60 466.00 L 734.70 466.20 L 736.30 465.40 L 731.40 475.70 L 730.10 479.30 L 729.90 481.60 L 730.10 483.80 L 730.90 486.00 L 735.70 494.70 L 736.30 496.40 L 741.60 513.30 L 744.40 518.00 L 746.30 520.10 L 749.20 522.60 L 752.80 524.90 L 757.00 527.00 L 784.20 535.20 L 788.70 536.40 L 793.20 537.20 L 802.30 538.00 L 817.20 537.30 L 824.60 536.40 L 830.90 534.10 L 835.60 531.90 L 839.00 529.80 L 841.30 527.80 L 844.20 524.30 L 846.80 520.00 L 849.30 515.00 L 851.60 509.00 L 853.60 501.90 L 854.70 492.80 L 854.60 488.30 L 853.70 476.60 L 853.70 469.50 L 854.20 462.30 L 855.00 460.00 L 855.50 459.90 L 856.10 460.30 L 858.00 463.90 L 861.20 477.40 L 863.20 483.60 L 864.40 485.20 L 868.80 487.80 L 869.40 489.60 L 868.50 491.30 L 866.40 492.60 L 865.60 493.70 L 865.10 494.90 L 864.40 501.20 L 863.40 505.70 L 859.00 521.20 L 857.30 526.00 L 855.10 530.30 L 852.40 534.20 L 849.20 537.80 L 845.70 541.10 L 841.90 544.00 L 837.70 546.50 L 833.40 548.70 L 824.10 552.10 L 802.60 557.10 L 798.00 557.10 L 788.10 555.00 L 777.10 553.90 L 770.00 552.70 L 762.90 551.10 L 756.00 549.00 L 735.10 542.40 L 729.90 540.30 L 724.90 537.80 L 720.20 534.80 L 700.40 520.40 L 695.60 518.70 L 694.70 518.00 L 687.20 510.40 L 680.40 502.30 L 676.70 496.10 L 673.40 489.40 L 672.30 487.90 L 668.40 485.00 L 667.10 483.00 L 666.40 482.40 L 665.50 482.20 L 662.80 483.00 L 661.80 482.60 L 658.40 479.60 L 650.00 469.80 L 633.10 452.90 L 624.40 442.90 L 617.50 437.20 L 601.20 417.90 L 591.40 407.80 L 604.10 402.70 L 610.60 400.80 L 617.30 399.20 L 618.60 399.30 L 619.00 399.60 L 618.80 400.10 L 617.70 401.30 L 613.90 404.30 L 614.50 407.40 L 615.50 409.40 L 616.90 411.10 L 618.50 412.60 L 620.50 413.60 L 622.70 414.30 L 640.00 432.20 L 641.00 435.00 L 642.50 437.60 L 644.60 440.00 L 647.20 442.30 L 650.50 444.50 L 660.00 453.60 L 666.00 463.70 L 672.90 473.10 L 679.50 480.50 L 686.40 487.40 L 693.80 494.00 L 694.90 494.40 L 696.00 493.60 L 697.60 490.30 L 698.70 487.20 L 698.90 485.10 L 698.70 482.90 L 696.40 476.50 L 694.50 472.50 L 689.10 463.20 L 688.70 461.40 L 688.80 459.50 L 690.00 456.70 L 690.00 455.80 L 687.20 438.10 L 686.20 433.80 L 684.80 429.90 L 681.40 422.20 L 676.90 413.90 L 663.90 394.40 L 654.10 389.20 L 621.50 395.60 L 612.70 396.50 L 612.10 395.80 L 604.30 364.80 L 603.40 362.20 L 602.10 360.10 L 598.70 356.90 L 583.70 347.70 L 581.10 346.70 L 575.60 345.60 L 552.60 346.10 L 549.00 347.70 L 527.10 352.60 L 526.20 355.10 L 525.30 355.90 L 509.30 351.40 L 502.00 349.70 L 490.60 348.30 L 481.90 348.50 L 455.20 352.20 L 451.00 350.90 L 448.00 349.50 L 444.80 348.80 L 441.60 348.60 L 438.30 348.90 L 435.00 348.40 L 431.90 348.30 L 428.80 348.70 L 425.70 349.60 L 420.10 352.20 L 412.20 354.50 L 408.10 357.20 L 406.70 357.50 L 404.70 357.30 L 402.80 358.60 L 401.20 358.80 L 400.80 358.10 L 400.60 355.50 L 405.00 349.20 L 414.80 337.20 L 420.10 331.60 L 425.70 326.30 L 431.60 321.30 L 473.90 296.60 Z M 617.10 337.80 L 615.10 335.60 L 613.60 334.90 L 611.20 334.20 L 605.60 334.20 L 603.00 334.70 L 598.60 336.00 L 597.90 336.70 L 597.60 337.80 L 598.20 341.60 L 599.30 345.20 L 600.90 348.60 L 604.20 353.30 L 607.30 355.50 L 612.10 356.70 L 614.60 356.80 L 616.70 356.40 L 618.70 355.60 L 620.20 354.40 L 621.30 352.90 L 622.00 351.20 L 622.30 349.30 L 622.20 347.10 L 621.60 345.00 L 620.40 342.80 L 617.10 337.80 Z M 706.60 398.90 L 704.20 393.00 L 701.30 387.60 L 698.50 385.30 L 696.80 384.60 L 695.00 384.30 L 692.70 384.60 L 689.90 385.40 L 688.70 386.10 L 687.80 387.20 L 687.40 388.40 L 687.30 389.80 L 689.50 400.50 L 692.00 405.70 L 695.70 409.70 L 697.40 410.80 L 699.70 411.80 L 702.00 412.30 L 704.30 412.30 L 705.80 412.00 L 707.90 410.60 L 708.50 409.50 L 708.80 408.00 L 707.90 402.30 L 706.60 398.90 Z M 713.40 430.50 L 712.00 429.30 L 710.50 428.50 L 708.70 428.20 L 706.70 428.30 L 702.40 429.70 L 700.70 430.90 L 699.40 432.40 L 698.30 434.10 L 697.80 436.00 L 697.90 441.40 L 698.60 444.70 L 699.70 447.90 L 701.40 450.60 L 704.60 453.60 L 708.00 455.20 L 709.20 455.10 L 710.40 454.50 L 711.30 453.50 L 714.20 448.10 L 716.00 442.00 L 716.20 438.90 L 716.00 435.80 L 714.60 432.20 L 713.40 430.50 Z M 717.80 489.80 L 715.80 490.20 L 706.90 496.10 L 705.80 498.00 L 706.20 499.80 L 715.80 506.10 L 725.80 514.10 L 728.10 515.20 L 730.50 515.80 L 733.00 515.90 L 734.50 515.50 L 735.70 514.60 L 736.50 513.30 L 736.80 511.10 L 733.70 500.70 L 729.40 490.80 L 728.00 489.40 L 725.80 488.60 L 723.50 488.20 L 721.10 488.30 L 718.90 488.80 L 717.80 489.80 Z" fill="#593f5d" fill-rule="nonzero" node-id="99" stroke="none" target-height="260.49997" target-width="468.80002" target-x="400.6" target-y="296.6"></path><path d="M 638.00 300.40 L 587.70 299.80 L 604.70 299.00 L 621.90 298.80 L 629.90 299.20 L 638.00 300.40 Z" fill="#dfa5ac" fill-rule="nonzero" node-id="101" stroke="none" target-height="1.6000061" target-width="50.299988" target-x="587.7" target-y="298.8"></path><path d="M 578.30 302.60 L 573.30 305.80 L 564.80 310.40 L 544.30 317.70 L 543.40 318.70 L 542.70 319.90 L 542.30 323.70 L 540.90 327.90 L 538.30 331.50 L 535.50 333.50 L 529.80 333.10 L 526.10 333.20 L 522.60 333.80 L 519.80 334.90 L 503.50 344.20 L 502.70 343.60 L 502.40 342.90 L 502.70 342.20 L 505.10 340.20 L 509.30 335.50 L 511.80 331.60 L 513.80 327.30 L 515.00 329.10 L 516.20 330.20 L 517.20 330.60 L 520.00 330.70 L 522.50 330.00 L 526.80 327.90 L 529.70 325.80 L 540.80 315.80 L 544.30 313.50 L 548.00 311.60 L 561.60 305.80 L 568.70 303.40 L 573.40 302.80 L 578.30 302.60 Z" fill="#fbb2b1" fill-rule="nonzero" node-id="103" stroke="none" target-height="41.600006" target-width="75.899994" target-x="502.4" target-y="302.6"></path><path d="M 618.70 340.40 L 620.50 342.80 L 621.60 345.10 L 622.30 347.20 L 622.40 349.40 L 622.10 351.40 L 621.40 353.10 L 620.20 354.60 L 618.70 355.70 L 616.70 356.50 L 614.60 356.90 L 612.10 356.80 L 609.00 356.10 L 605.60 354.40 L 604.20 353.30 L 600.90 348.70 L 599.30 345.30 L 598.20 341.60 L 597.60 337.80 L 597.90 336.70 L 598.60 336.00 L 603.00 334.60 L 605.60 334.10 L 611.20 334.20 L 613.60 334.80 L 615.10 335.60 L 616.20 336.60 L 618.70 340.40 Z" fill="#734461" fill-rule="nonzero" node-id="105" stroke="none" target-height="22.799988" target-width="24.800049" target-x="597.6" target-y="334.1"></path><path d="M 622.50 395.30 L 622.80 396.40 L 623.30 396.70 L 617.70 399.10 L 611.00 400.70 L 604.50 402.70 L 591.80 407.70 L 585.60 402.00 L 579.70 395.80 L 570.00 384.60 L 565.50 380.30 L 560.80 376.30 L 552.70 370.40 L 544.30 365.00 L 535.50 360.10 L 526.40 355.60 L 527.00 355.40 L 527.40 354.70 L 527.90 352.70 L 528.60 352.20 L 550.10 347.40 L 551.70 349.60 L 553.40 351.20 L 555.10 352.20 L 556.80 352.70 L 558.70 352.80 L 560.70 352.40 L 563.00 351.40 L 564.30 349.90 L 564.40 349.00 L 563.40 347.20 L 562.60 346.80 L 559.60 346.10 L 556.60 345.90 L 553.50 346.00 L 573.60 345.40 L 579.30 345.90 L 582.00 346.70 L 587.00 349.00 L 599.50 356.90 L 602.90 360.10 L 604.10 362.10 L 605.00 364.70 L 612.90 395.90 L 614.20 396.50 L 622.50 395.30 Z" fill="#b14f59" fill-rule="nonzero" node-id="107" stroke="none" target-height="62.30002" target-width="96.89996" target-x="526.4" target-y="345.4"></path><path d="M 553.90 345.80 L 560.80 346.10 L 563.90 347.10 L 564.70 348.70 L 564.60 349.80 L 564.10 350.70 L 563.40 351.20 L 561.30 352.10 L 557.80 352.60 L 556.20 352.30 L 554.30 351.30 L 552.40 349.70 L 550.50 347.20 L 553.90 345.80 Z" fill="#da919e" fill-rule="nonzero" node-id="109" stroke="none" target-height="6.8000183" target-width="14.200012" target-x="550.5" target-y="345.8"></path><path d="M 830.90 349.90 L 829.70 354.10 L 828.80 355.40 L 828.20 355.80 L 823.90 356.00 L 822.30 354.70 L 821.90 353.70 L 822.90 350.50 L 823.70 349.30 L 827.90 346.40 L 828.90 346.40 L 830.70 347.30 L 830.90 349.90 Z" fill="#e0e9a6" fill-rule="nonzero" node-id="111" stroke="none" target-height="9.600006" target-width="9" target-x="821.9" target-y="346.4"></path><path d="M 439.70 348.60 L 432.80 353.40 L 426.20 358.70 L 415.90 367.40 L 412.80 370.70 L 412.10 371.90 L 411.60 374.50 L 413.80 382.70 L 414.60 383.80 L 416.00 383.90 L 417.00 383.30 L 422.90 375.80 L 430.80 365.10 L 433.70 359.00 L 434.30 358.40 L 442.00 354.20 L 451.80 352.20 L 452.40 351.90 L 452.60 351.40 L 452.20 350.60 L 455.40 351.60 L 457.40 351.80 L 483.10 348.20 L 491.80 348.00 L 496.30 348.30 L 503.10 349.40 L 510.50 351.10 L 526.50 355.60 L 535.50 360.00 L 544.20 364.90 L 552.70 370.20 L 564.50 379.10 L 571.10 385.50 L 579.80 395.60 L 585.70 401.80 L 591.90 407.50 L 593.10 408.90 L 593.90 409.30 L 588.90 408.30 L 587.10 408.50 L 574.90 413.20 L 568.80 416.10 L 564.80 418.90 L 564.00 418.50 L 564.10 417.30 L 563.80 417.20 L 560.20 419.20 L 558.90 419.50 L 558.40 419.30 L 555.40 420.80 L 554.10 421.90 L 553.80 422.80 L 554.00 423.50 L 549.80 420.10 L 548.60 420.00 L 548.20 421.10 L 548.90 424.00 L 550.00 426.70 L 549.40 429.80 L 550.20 430.90 L 550.20 432.40 L 548.20 431.20 L 546.80 430.80 L 545.30 430.90 L 542.70 432.70 L 539.70 433.10 L 538.00 433.70 L 534.60 436.30 L 533.70 436.50 L 531.80 435.10 L 530.60 430.90 L 528.90 426.90 L 526.80 423.10 L 524.40 419.50 L 521.60 416.20 L 518.50 413.20 L 515.00 410.60 L 511.60 408.70 L 508.30 407.40 L 505.20 406.60 L 501.80 406.20 L 498.70 406.30 L 495.70 406.90 L 492.70 407.80 L 487.40 410.80 L 485.00 412.80 L 482.80 415.10 L 479.40 420.50 L 477.10 426.80 L 476.50 430.20 L 476.30 433.70 L 476.50 437.30 L 477.10 441.20 L 478.20 444.70 L 479.80 447.90 L 481.90 450.90 L 484.40 453.40 L 487.30 455.50 L 493.80 458.60 L 497.30 459.70 L 504.30 460.70 L 494.40 460.50 L 490.00 460.00 L 477.20 457.10 L 475.90 457.10 L 474.70 457.60 L 473.70 458.50 L 473.20 459.70 L 471.40 466.50 L 471.40 467.10 L 472.80 467.70 L 473.80 469.20 L 473.40 476.90 L 473.00 480.40 L 472.50 482.00 L 469.70 486.30 L 467.40 489.00 L 465.60 490.70 L 463.90 491.70 L 462.30 492.30 L 458.90 492.30 L 454.70 490.60 L 447.50 485.80 L 445.40 483.60 L 443.60 483.00 L 432.40 486.00 L 406.70 494.30 L 400.50 497.60 L 395.40 502.10 L 395.60 500.30 L 394.90 499.50 L 389.50 501.40 L 384.90 502.40 L 380.30 502.80 L 375.70 502.60 L 371.20 501.80 L 366.90 500.30 L 363.80 498.90 L 358.00 494.80 L 353.30 490.00 L 351.70 487.80 L 350.50 485.20 L 349.60 482.50 L 349.20 479.80 L 349.00 472.90 L 347.60 464.70 L 347.50 464.40 L 346.80 464.70 L 346.30 467.80 L 345.80 468.20 L 345.20 468.10 L 346.90 454.40 L 348.10 437.70 L 350.40 425.60 L 353.80 413.70 L 355.80 409.10 L 358.30 404.80 L 361.10 400.70 L 364.30 396.80 L 371.20 390.20 L 378.80 384.50 L 400.70 371.80 L 406.50 369.80 L 413.50 363.80 L 414.70 362.30 L 414.70 361.90 L 414.30 361.80 L 394.70 371.60 L 394.00 371.00 L 394.00 368.60 L 402.00 355.70 L 402.30 358.90 L 403.40 359.10 L 405.50 357.70 L 409.60 357.30 L 410.90 356.70 L 412.70 355.10 L 421.70 352.40 L 426.60 349.70 L 429.10 348.80 L 434.30 348.00 L 439.70 348.60 Z M 390.00 464.90 L 389.40 464.40 L 387.80 464.10 L 385.70 464.50 L 385.70 465.00 L 386.30 465.30 L 387.80 465.50 L 389.40 465.40 L 390.00 464.90 Z M 461.00 488.80 L 462.80 488.40 L 465.80 486.70 L 467.60 484.80 L 469.00 482.30 L 469.90 479.60 L 470.70 474.00 L 470.20 470.80 L 469.20 470.00 L 468.50 469.90 L 462.90 471.80 L 457.80 474.30 L 452.90 477.30 L 448.40 480.80 L 448.10 481.50 L 448.40 482.20 L 450.10 483.80 L 454.20 486.90 L 456.40 488.00 L 458.70 488.70 L 461.00 488.80 Z" fill="#bd575f" fill-rule="nonzero" node-id="113" stroke="none" target-height="154.79999" target-width="248.70001" target-x="345.2" target-y="348"></path><path d="M 439.70 348.60 L 443.00 348.30 L 446.20 348.50 L 449.40 349.20 L 452.40 350.60 L 452.80 351.20 L 452.70 351.80 L 452.20 352.20 L 442.10 354.20 L 437.40 356.60 L 433.80 359.00 L 432.40 362.50 L 429.30 367.60 L 416.70 383.80 L 415.30 383.80 L 414.60 383.50 L 414.00 382.50 L 411.70 374.10 L 412.20 371.60 L 416.00 367.20 L 419.40 364.30 L 430.50 355.00 L 439.70 348.60 Z" fill="#fbb2b1" fill-rule="nonzero" node-id="115" stroke="none" target-height="35.5" target-width="41.099976" target-x="411.7" target-y="348.3"></path><path d="M 364.70 396.70 L 368.40 392.00 L 372.40 387.70 L 376.80 383.80 L 388.40 375.70 L 390.90 372.90 L 394.20 368.20 L 394.30 370.80 L 395.50 371.20 L 412.70 362.20 L 414.90 361.60 L 413.70 363.40 L 406.80 369.40 L 400.90 371.40 L 379.00 384.10 L 374.00 387.90 L 369.30 392.10 L 364.70 396.70 Z" fill="#feac9f" fill-rule="nonzero" node-id="117" stroke="none" target-height="35.100006" target-width="50.19998" target-x="364.7" target-y="361.6"></path><path d="M 822.40 384.70 L 820.00 389.00 L 817.10 392.90 L 813.90 396.50 L 810.20 399.70 L 806.30 402.40 L 802.10 404.70 L 797.70 406.60 L 793.10 407.80 L 788.20 408.60 L 787.30 408.50 L 786.60 408.00 L 785.40 406.10 L 784.60 404.10 L 784.20 402.00 L 784.20 395.30 L 785.80 388.70 L 787.60 384.50 L 790.00 380.10 L 793.20 375.70 L 795.40 373.30 L 800.90 368.60 L 804.00 366.80 L 807.30 365.40 L 810.70 364.60 L 815.10 364.60 L 817.30 365.20 L 819.70 366.50 L 821.60 368.10 L 822.90 370.00 L 823.90 372.20 L 824.40 374.60 L 824.40 377.20 L 823.40 382.20 L 822.40 384.70 Z" fill="#cbda66" fill-rule="nonzero" node-id="119" stroke="none" target-height="44" target-width="40.200012" target-x="784.2" target-y="364.6"></path><path d="M 736.70 380.80 L 723.90 376.10 L 711.20 370.70 L 707.90 370.00 L 704.60 369.70 L 701.30 369.90 L 704.00 369.30 L 709.30 369.30 L 718.90 370.70 L 726.30 372.60 L 732.90 373.80 L 734.50 374.50 L 735.60 375.50 L 736.30 376.80 L 736.70 378.50 L 736.70 380.80 Z" fill="#fbb2b1" fill-rule="nonzero" node-id="121" stroke="none" target-height="11.5" target-width="35.400024" target-x="701.3" target-y="369.3"></path><path d="M 706.60 398.90 L 708.80 405.70 L 709.00 407.90 L 708.70 409.40 L 708.10 410.50 L 705.90 411.90 L 704.50 412.20 L 702.20 412.10 L 699.80 411.60 L 697.60 410.60 L 695.90 409.50 L 692.10 405.50 L 690.90 403.50 L 689.50 400.30 L 688.70 396.90 L 687.50 388.20 L 688.00 386.90 L 688.90 385.90 L 690.10 385.20 L 693.00 384.50 L 695.20 384.30 L 697.10 384.60 L 700.20 386.40 L 703.00 390.20 L 706.60 398.90 Z" fill="#734461" fill-rule="nonzero" node-id="123" stroke="none" target-height="27.900024" target-width="21.5" target-x="687.5" target-y="384.3"></path><path d="M 655.10 388.90 L 652.00 391.40 L 649.20 393.00 L 646.70 393.90 L 633.60 394.40 L 628.40 395.30 L 623.30 396.70 L 622.80 396.40 L 622.50 395.30 L 655.10 388.90 Z" fill="#da919e" fill-rule="nonzero" node-id="125" stroke="none" target-height="7.8000183" target-width="32.599976" target-x="622.5" target-y="388.9"></path><path d="M 655.10 388.90 L 664.10 393.70 L 665.50 394.90 L 679.60 416.30 L 685.80 429.70 L 687.20 433.60 L 688.20 437.80 L 691.00 455.50 L 691.00 456.40 L 689.80 459.20 L 689.70 461.10 L 690.10 462.90 L 695.50 472.30 L 697.40 476.20 L 699.70 482.60 L 699.90 484.80 L 699.70 486.90 L 698.60 490.10 L 696.50 493.90 L 695.80 494.10 L 694.90 493.90 L 689.10 488.90 L 683.70 483.90 L 678.70 478.50 L 673.90 472.80 L 666.90 463.40 L 661.00 453.30 L 664.70 455.90 L 668.00 457.50 L 670.90 458.30 L 673.50 458.50 L 675.90 458.00 L 678.30 457.00 L 680.50 455.30 L 682.70 452.40 L 683.50 448.40 L 683.50 445.60 L 683.00 442.50 L 682.10 440.00 L 680.80 438.00 L 679.00 436.40 L 676.80 435.10 L 674.00 434.30 L 666.40 433.20 L 662.50 433.10 L 659.00 433.60 L 656.80 434.30 L 654.90 435.40 L 653.40 436.80 L 652.30 438.60 L 651.70 441.00 L 651.50 444.20 L 648.10 442.00 L 645.40 439.70 L 643.40 437.20 L 641.90 434.70 L 641.00 431.90 L 644.70 429.80 L 646.40 428.40 L 649.80 424.70 L 651.20 422.40 L 651.90 419.80 L 652.20 417.20 L 651.70 414.20 L 650.90 411.80 L 649.70 409.80 L 648.20 408.20 L 646.40 407.00 L 644.20 406.10 L 641.50 405.50 L 637.50 405.20 L 633.50 405.40 L 629.60 406.10 L 627.90 406.90 L 626.50 408.00 L 625.40 409.50 L 624.40 411.40 L 623.80 413.90 L 621.60 413.20 L 619.60 412.10 L 618.00 410.70 L 616.60 408.90 L 615.60 407.00 L 615.00 403.90 L 619.90 399.70 L 620.00 399.10 L 619.60 398.80 L 618.40 398.80 L 624.00 396.40 L 629.20 395.00 L 634.40 394.10 L 639.60 393.70 L 646.90 393.70 L 649.30 393.00 L 651.90 391.50 L 655.10 388.90 Z" fill="#97485e" fill-rule="nonzero" node-id="127" stroke="none" target-height="105.20001" target-width="84.900024" target-x="615" target-y="388.9"></path><path d="M 640.40 432.10 L 623.10 414.20 L 623.70 411.70 L 624.60 409.80 L 625.70 408.30 L 627.20 407.20 L 628.90 406.40 L 632.90 405.70 L 636.90 405.50 L 640.80 405.80 L 643.60 406.40 L 645.90 407.30 L 647.80 408.60 L 649.20 410.20 L 650.30 412.10 L 651.10 414.60 L 651.50 417.50 L 651.20 420.20 L 650.40 422.70 L 649.10 425.00 L 645.90 428.60 L 644.30 430.00 L 640.40 432.10 Z" fill="#e37a7b" fill-rule="nonzero" node-id="129" stroke="none" target-height="26.600006" target-width="28.400024" target-x="623.1" target-y="405.5"></path><path d="M 531.80 434.70 L 532.60 445.80 L 530.40 442.80 L 528.20 440.70 L 526.60 439.60 L 523.50 438.40 L 518.70 437.90 L 514.00 438.00 L 509.30 438.60 L 504.70 439.90 L 500.30 441.70 L 495.40 444.60 L 494.80 448.90 L 495.30 455.90 L 494.50 456.90 L 492.60 457.20 L 490.70 456.90 L 487.40 455.30 L 484.40 453.20 L 481.90 450.60 L 479.90 447.70 L 478.30 444.50 L 477.20 441.00 L 476.60 437.10 L 476.40 433.50 L 476.60 430.00 L 478.10 423.30 L 481.00 417.50 L 485.10 412.60 L 490.00 409.00 L 492.80 407.70 L 495.70 406.70 L 498.80 406.20 L 501.90 406.10 L 505.30 406.50 L 508.40 407.20 L 511.70 408.60 L 515.10 410.40 L 518.60 413.00 L 521.70 416.00 L 524.50 419.20 L 526.90 422.80 L 529.00 426.60 L 530.60 430.60 L 531.80 434.70 Z M 488.80 434.50 L 491.90 435.90 L 495.40 435.70 L 499.10 434.20 L 502.40 431.50 L 505.20 427.70 L 506.80 423.70 L 507.10 421.60 L 506.80 418.00 L 505.30 415.00 L 504.10 413.80 L 502.60 413.00 L 499.30 412.40 L 495.70 413.20 L 493.80 414.10 L 490.50 416.80 L 487.80 420.60 L 486.80 422.60 L 485.90 426.70 L 486.10 430.30 L 486.70 432.00 L 488.80 434.50 Z" fill="#1d0e13" fill-rule="nonzero" node-id="131" stroke="none" target-height="51.100006" target-width="56.19998" target-x="476.4" target-y="406.1"></path><path d="M 593.90 409.40 L 601.70 417.70 L 618.00 437.10 L 625.00 442.80 L 633.70 452.60 L 647.50 466.40 L 653.30 472.80 L 658.90 479.40 L 658.90 480.40 L 659.60 482.10 L 662.90 485.20 L 665.00 488.00 L 666.10 491.20 L 666.20 495.10 L 665.80 499.00 L 664.80 502.80 L 663.10 506.90 L 661.70 507.50 L 659.00 507.80 L 658.30 508.50 L 658.10 509.50 L 655.70 512.90 L 653.80 516.40 L 652.20 520.10 L 651.10 524.00 L 650.60 526.60 L 650.50 531.80 L 651.60 536.80 L 652.70 539.30 L 654.50 542.30 L 656.60 545.00 L 659.00 547.40 L 661.70 549.60 L 663.90 550.90 L 666.10 551.60 L 668.40 551.90 L 675.60 551.40 L 673.40 552.60 L 670.20 553.40 L 668.20 554.70 L 669.00 555.30 L 670.20 555.20 L 670.40 555.80 L 670.20 556.70 L 669.60 557.20 L 665.90 558.50 L 660.40 559.00 L 656.00 560.30 L 647.30 564.70 L 643.40 565.20 L 641.00 567.90 L 640.00 568.60 L 638.00 569.10 L 637.20 568.20 L 637.20 566.30 L 635.80 564.90 L 634.80 563.00 L 629.10 559.10 L 628.80 558.50 L 628.80 556.60 L 628.40 555.50 L 627.20 553.90 L 627.00 553.00 L 627.40 549.00 L 628.90 547.50 L 630.90 544.00 L 632.20 538.00 L 632.60 534.00 L 632.50 522.90 L 632.00 511.70 L 631.00 500.60 L 629.70 493.80 L 627.90 487.20 L 625.60 480.70 L 624.00 479.10 L 622.60 478.20 L 621.30 478.00 L 617.40 479.50 L 615.00 481.10 L 610.00 486.90 L 603.70 496.70 L 601.40 499.20 L 599.10 501.00 L 596.70 502.20 L 593.00 503.30 L 592.10 503.80 L 590.80 505.60 L 590.60 506.70 L 591.30 512.10 L 592.30 516.20 L 593.80 520.10 L 595.70 523.90 L 598.00 527.60 L 600.00 530.00 L 604.20 533.30 L 611.90 536.90 L 613.50 538.00 L 615.10 539.60 L 616.60 542.00 L 618.10 545.30 L 616.10 546.70 L 614.60 547.10 L 612.00 547.20 L 594.60 544.30 L 587.60 543.80 L 580.60 543.70 L 576.20 544.50 L 573.80 545.40 L 570.30 547.00 L 560.50 552.50 L 558.70 553.70 L 557.50 555.20 L 556.80 556.90 L 556.50 559.10 L 556.70 561.70 L 557.70 565.10 L 559.50 569.20 L 554.90 563.10 L 552.10 558.70 L 550.70 555.70 L 550.20 553.70 L 549.20 545.50 L 548.80 544.40 L 547.80 543.50 L 546.60 543.10 L 542.90 543.50 L 542.20 543.20 L 542.00 542.50 L 542.20 541.30 L 543.30 537.20 L 543.00 536.60 L 542.20 536.30 L 536.80 535.60 L 531.50 535.40 L 520.70 535.90 L 494.70 539.90 L 456.10 547.40 L 406.90 556.40 L 405.60 557.10 L 404.70 558.40 L 403.10 558.60 L 396.10 549.30 L 391.10 544.10 L 385.30 539.90 L 381.90 538.30 L 378.00 536.90 L 371.90 535.50 L 362.80 534.90 L 339.10 537.30 L 338.00 536.90 L 337.60 536.50 L 337.50 535.50 L 338.30 534.40 L 340.00 533.80 L 342.20 533.90 L 342.70 533.60 L 342.70 533.00 L 337.20 525.20 L 333.80 518.00 L 331.60 510.20 L 331.30 505.50 L 332.30 500.40 L 333.40 497.70 L 338.40 488.30 L 341.40 481.70 L 344.00 475.00 L 346.10 468.20 L 346.70 468.30 L 347.20 467.80 L 347.70 464.70 L 348.20 464.60 L 348.50 464.80 L 349.10 467.80 L 350.50 482.80 L 351.40 485.40 L 352.60 487.90 L 354.20 490.10 L 356.10 492.20 L 355.20 492.30 L 353.80 491.40 L 358.20 501.10 L 360.80 505.50 L 363.70 509.40 L 366.00 511.70 L 368.50 513.40 L 371.20 514.70 L 373.70 515.30 L 376.00 515.50 L 378.20 515.20 L 382.50 513.60 L 384.60 512.40 L 390.60 507.70 L 399.00 500.00 L 401.80 497.90 L 407.80 494.60 L 421.60 489.90 L 443.60 483.50 L 444.70 483.40 L 446.50 483.90 L 448.60 486.10 L 455.80 490.70 L 458.30 491.90 L 461.70 492.50 L 465.00 491.90 L 466.70 490.90 L 468.50 489.30 L 472.40 484.50 L 473.60 482.40 L 474.10 480.70 L 474.90 470.80 L 474.70 469.10 L 474.00 468.10 L 472.70 467.40 L 472.50 466.60 L 474.80 458.60 L 475.80 457.80 L 477.00 457.30 L 478.30 457.20 L 491.20 460.10 L 495.50 460.60 L 505.40 460.80 L 520.70 456.80 L 519.10 461.20 L 518.30 465.10 L 518.00 468.40 L 518.40 471.40 L 519.20 474.00 L 520.50 476.40 L 522.30 478.60 L 524.80 480.50 L 527.90 482.30 L 531.10 483.60 L 534.50 484.40 L 538.00 484.80 L 541.40 484.70 L 545.00 484.20 L 551.70 482.10 L 554.90 480.50 L 557.60 478.60 L 564.90 471.70 L 565.50 471.00 L 567.70 464.40 L 568.30 461.50 L 568.30 458.80 L 567.80 456.10 L 566.60 453.40 L 564.70 450.80 L 562.90 449.30 L 557.20 446.30 L 551.10 444.40 L 548.80 444.20 L 545.80 444.80 L 539.60 449.60 L 537.70 450.50 L 534.60 450.80 L 532.50 450.40 L 533.40 449.60 L 534.00 447.50 L 532.90 435.30 L 534.50 436.60 L 535.40 436.60 L 539.00 433.90 L 540.80 433.30 L 543.80 432.90 L 545.90 431.40 L 547.30 431.00 L 548.80 431.10 L 551.10 432.60 L 551.30 432.50 L 551.40 431.30 L 550.50 430.10 L 551.10 426.90 L 556.10 437.40 L 559.10 442.40 L 560.10 443.60 L 561.00 444.10 L 562.00 444.10 L 564.00 442.80 L 564.60 441.80 L 564.70 439.40 L 563.10 435.00 L 561.00 430.90 L 558.40 427.20 L 555.40 423.70 L 555.20 423.00 L 555.60 422.10 L 556.90 421.00 L 559.80 419.50 L 560.30 419.70 L 561.60 419.40 L 565.10 417.40 L 565.40 417.50 L 565.40 418.70 L 565.80 419.10 L 566.40 419.10 L 570.20 416.30 L 574.70 414.10 L 583.80 410.30 L 588.50 408.70 L 590.30 408.50 L 593.90 409.40 Z M 599.80 489.20 L 602.50 486.10 L 605.30 483.50 L 608.30 481.50 L 611.40 479.90 L 614.80 478.80 L 621.50 477.50 L 622.40 477.00 L 622.50 476.50 L 621.70 475.70 L 618.90 474.50 L 616.10 473.80 L 613.20 473.50 L 610.20 473.70 L 604.20 475.20 L 601.10 476.40 L 596.80 478.70 L 592.90 481.30 L 589.30 484.20 L 577.70 496.00 L 566.00 505.40 L 558.40 512.60 L 555.30 516.50 L 553.60 519.40 L 552.30 522.30 L 551.40 525.40 L 551.20 527.20 L 551.40 527.70 L 551.80 527.50 L 567.60 507.00 L 570.70 503.90 L 581.50 495.00 L 587.30 489.40 L 589.50 488.10 L 591.50 487.50 L 593.60 487.50 L 596.00 488.10 L 598.70 489.40 L 599.80 489.20 Z" fill="#da504a" fill-rule="nonzero" node-id="133" stroke="none" target-height="160.70001" target-width="344.3" target-x="331.3" target-y="408.5"></path><g node-id="282"><path d="M 498.40 414.90 L 500.50 417.40 L 501.10 419.00 L 501.40 422.70 L 500.50 426.60 L 498.30 430.60 L 495.20 433.80 L 491.70 435.90 L 488.10 436.70 L 484.80 436.10 L 483.30 435.30 L 482.10 434.10 L 481.20 432.80 L 480.30 429.40 L 480.60 425.50 L 481.20 423.50 L 483.40 419.60 L 486.50 416.30 L 490.10 414.20 L 493.60 413.50 L 495.30 413.60 L 498.40 414.90 Z" fill="#feebe5" fill-rule="nonzero" group-id="1" node-id="137" stroke="none" target-height="23.200012" target-width="21.100006" target-x="480.3" target-y="413.5"></path></g><path d="M 554.10 423.10 L 557.20 426.60 L 559.80 430.30 L 561.80 434.40 L 563.40 438.80 L 563.30 441.10 L 561.80 443.00 L 560.70 443.50 L 559.70 443.50 L 558.80 443.00 L 554.80 436.80 L 552.10 431.60 L 548.30 422.20 L 548.00 420.70 L 548.30 419.90 L 549.20 419.50 L 554.10 423.10 Z" fill="#2c0707" fill-rule="nonzero" node-id="140" stroke="none" target-height="24" target-width="15.400024" target-x="548" target-y="419.5"></path><path d="M 713.40 430.50 L 715.40 433.90 L 716.00 435.90 L 716.30 438.90 L 716.00 442.10 L 715.40 445.20 L 713.00 451.10 L 710.80 454.60 L 709.70 455.30 L 708.40 455.40 L 706.80 455.00 L 703.00 452.40 L 701.50 450.80 L 699.80 448.00 L 698.60 444.90 L 697.90 441.60 L 697.70 438.30 L 697.90 436.10 L 698.40 434.20 L 699.40 432.40 L 700.80 431.00 L 702.50 429.90 L 706.50 428.50 L 708.20 428.20 L 711.00 428.60 L 713.40 430.50 Z" fill="#734461" fill-rule="nonzero" node-id="142" stroke="none" target-height="27.199982" target-width="18.599976" target-x="697.7" target-y="428.2"></path><path d="M 660.70 453.60 L 651.00 444.50 L 651.20 441.30 L 651.90 438.90 L 652.90 437.10 L 654.50 435.70 L 656.30 434.60 L 658.50 433.90 L 662.00 433.40 L 665.90 433.50 L 673.50 434.60 L 676.30 435.50 L 678.60 436.70 L 680.30 438.30 L 681.60 440.30 L 682.50 442.80 L 683.00 445.90 L 682.70 451.20 L 681.30 454.20 L 680.00 455.60 L 677.90 457.20 L 675.60 458.30 L 673.30 458.70 L 670.70 458.50 L 667.80 457.70 L 664.50 456.20 L 660.70 453.60 Z" fill="#e37a7b" fill-rule="nonzero" node-id="144" stroke="none" target-height="25.300018" target-width="32" target-x="651" target-y="433.4"></path><path d="M 532.60 445.80 L 532.70 448.00 L 531.40 449.80 L 528.20 450.90 L 525.20 452.40 L 522.40 454.20 L 519.90 456.40 L 504.60 460.40 L 497.50 459.30 L 490.90 456.80 L 492.80 457.10 L 494.70 456.80 L 495.40 456.30 L 495.00 449.00 L 495.30 445.70 L 495.60 444.80 L 496.30 444.10 L 500.50 441.80 L 504.90 440.00 L 509.50 438.80 L 514.20 438.10 L 518.90 438.00 L 525.10 438.80 L 528.20 440.60 L 530.40 442.70 L 532.60 445.80 Z" fill="#7d434d" fill-rule="nonzero" node-id="146" stroke="none" target-height="22.399994" target-width="41.80002" target-x="490.9" target-y="438"></path><path d="M 519.70 456.40 L 522.20 454.20 L 525.00 452.40 L 528.00 450.90 L 531.20 449.80 L 533.30 450.20 L 536.40 449.90 L 538.30 449.00 L 544.50 444.20 L 547.50 443.60 L 553.60 444.80 L 558.30 446.70 L 562.20 449.10 L 565.30 452.70 L 566.50 455.30 L 567.10 458.00 L 567.10 460.80 L 566.50 463.70 L 564.40 469.50 L 563.60 471.10 L 556.40 477.90 L 553.60 479.90 L 550.40 481.50 L 547.00 482.80 L 543.60 483.70 L 540.10 484.10 L 536.60 484.20 L 533.20 483.80 L 529.80 483.00 L 526.60 481.70 L 523.60 479.90 L 521.20 478.00 L 519.40 475.80 L 518.10 473.50 L 517.30 470.90 L 517.00 467.90 L 517.30 464.60 L 518.10 460.80 L 519.70 456.40 Z" fill="#fe8964" fill-rule="nonzero" node-id="148" stroke="none" target-height="40.600006" target-width="50.099976" target-x="517" target-y="443.6"></path><path d="M 797.30 508.50 L 796.90 510.70 L 796.80 510.80 L 796.50 510.70 L 793.40 506.60 L 788.90 503.50 L 784.00 495.20 L 781.30 491.30 L 779.70 489.80 L 774.70 486.00 L 769.00 482.50 L 767.50 482.60 L 760.60 487.20 L 759.40 487.60 L 758.20 487.40 L 750.20 483.70 L 745.90 483.20 L 742.10 483.70 L 738.50 484.70 L 735.10 486.20 L 731.80 488.20 L 730.60 486.30 L 729.80 484.10 L 729.60 481.90 L 729.80 479.60 L 732.70 472.60 L 736.00 465.70 L 759.70 454.60 L 762.90 453.40 L 766.20 452.70 L 769.50 452.30 L 775.00 452.20 L 779.20 450.80 L 780.10 450.80 L 780.80 451.20 L 783.20 455.10 L 787.20 467.40 L 790.00 477.70 L 797.30 508.50 Z" fill="#4d3a6a" fill-rule="nonzero" node-id="150" stroke="none" target-height="60" target-width="67.70001" target-x="729.6" target-y="450.8"></path><path d="M 888.80 545.70 L 886.70 549.60 L 886.00 551.60 L 881.60 572.60 L 881.10 573.30 L 879.80 573.50 L 879.10 572.80 L 877.90 568.00 L 876.20 565.70 L 871.70 561.80 L 869.00 559.00 L 868.30 558.70 L 867.10 559.70 L 878.70 576.50 L 879.70 580.20 L 879.50 584.00 L 878.30 588.30 L 876.30 592.20 L 874.00 594.50 L 872.80 597.70 L 869.90 599.80 L 867.30 602.50 L 865.50 603.10 L 849.80 615.10 L 843.90 616.40 L 842.50 618.70 L 841.60 619.30 L 827.90 626.50 L 824.40 628.00 L 793.80 637.20 L 791.90 636.30 L 791.20 636.40 L 788.90 638.10 L 786.20 639.20 L 756.20 646.40 L 725.10 650.50 L 718.40 650.70 L 711.60 650.40 L 710.80 650.00 L 710.40 648.80 L 711.30 645.40 L 711.80 641.80 L 712.60 618.70 L 712.00 618.50 L 711.40 618.90 L 707.80 647.50 L 706.80 650.00 L 704.80 651.90 L 703.60 652.40 L 702.20 652.70 L 680.40 653.20 L 658.80 653.30 L 654.40 652.70 L 650.20 651.70 L 648.80 650.90 L 648.20 649.50 L 647.60 643.80 L 644.60 653.10 L 641.10 661.10 L 640.10 662.40 L 638.80 663.50 L 636.50 664.70 L 632.70 667.90 L 629.80 669.70 L 623.50 672.20 L 612.70 675.40 L 592.60 678.80 L 576.50 681.00 L 560.20 682.90 L 557.90 682.90 L 547.40 681.60 L 541.40 680.40 L 537.50 680.00 L 532.90 678.50 L 532.40 678.10 L 531.90 674.90 L 530.50 672.50 L 537.50 658.20 L 559.00 617.80 L 562.60 609.80 L 565.40 600.40 L 566.30 594.00 L 566.20 591.00 L 565.70 588.10 L 564.80 585.40 L 563.40 583.00 L 576.30 579.40 L 585.00 575.60 L 593.60 571.50 L 601.90 567.00 L 610.00 562.10 L 617.90 556.90 L 622.20 553.30 L 626.30 549.30 L 625.90 553.30 L 626.10 554.20 L 627.30 555.80 L 627.70 556.90 L 627.80 559.10 L 628.50 559.90 L 633.80 563.30 L 634.70 565.30 L 636.10 566.50 L 636.10 568.50 L 636.60 569.20 L 637.30 569.50 L 639.40 568.50 L 640.70 567.50 L 642.30 565.60 L 646.20 565.00 L 652.40 561.70 L 657.40 559.70 L 664.90 558.80 L 668.50 557.50 L 669.10 557.00 L 669.10 555.50 L 667.90 555.60 L 667.00 554.80 L 669.10 553.60 L 672.10 552.90 L 674.30 551.70 L 676.30 546.70 L 676.80 541.40 L 676.40 537.70 L 675.30 533.80 L 673.50 529.40 L 669.60 522.30 L 664.70 515.90 L 658.80 510.30 L 656.60 509.70 L 656.80 508.70 L 657.50 508.00 L 661.20 507.40 L 661.80 506.70 L 663.20 503.00 L 664.20 499.20 L 664.60 495.30 L 664.60 491.40 L 663.50 488.20 L 661.40 485.40 L 658.10 482.30 L 657.40 480.50 L 657.40 479.60 L 660.80 482.60 L 661.80 483.00 L 663.60 482.40 L 665.50 482.60 L 667.40 485.00 L 670.60 487.40 L 672.40 489.40 L 675.40 496.10 L 678.80 502.30 L 685.70 510.40 L 693.10 518.00 L 693.80 518.60 L 699.40 520.80 L 709.40 527.90 L 715.20 532.60 L 723.30 537.80 L 728.30 540.30 L 733.50 542.40 L 761.30 551.00 L 768.40 552.60 L 786.50 555.10 L 796.40 557.20 L 801.00 557.10 L 822.50 552.10 L 831.80 548.70 L 836.10 546.50 L 840.30 544.00 L 844.10 541.10 L 847.60 537.80 L 850.80 534.20 L 853.50 530.30 L 855.70 526.00 L 857.40 521.20 L 861.80 505.70 L 862.80 501.00 L 863.60 495.00 L 864.90 492.70 L 866.90 491.20 L 867.60 489.50 L 867.00 487.60 L 862.60 485.00 L 861.90 484.40 L 861.40 483.40 L 858.70 474.60 L 856.20 463.70 L 855.20 461.50 L 853.60 459.70 L 853.10 459.80 L 852.70 460.40 L 852.40 462.10 L 851.90 469.30 L 851.90 476.40 L 852.80 488.10 L 852.90 492.60 L 851.80 501.70 L 850.20 507.30 L 846.70 516.70 L 844.40 520.90 L 842.00 524.60 L 839.50 527.60 L 837.20 529.60 L 833.80 531.70 L 829.10 533.90 L 822.80 536.20 L 806.10 536.40 L 804.40 536.10 L 803.00 535.30 L 801.90 534.10 L 801.30 532.40 L 798.30 515.70 L 801.20 515.00 L 802.70 515.10 L 804.90 515.90 L 807.90 525.40 L 808.70 526.10 L 810.60 527.00 L 814.60 527.70 L 816.70 527.50 L 818.20 526.70 L 818.60 526.00 L 819.70 519.90 L 820.60 517.90 L 821.50 516.70 L 822.60 516.00 L 823.90 515.70 L 825.40 515.90 L 827.30 516.80 L 830.40 519.00 L 831.10 519.20 L 831.90 519.20 L 833.10 518.50 L 839.40 507.50 L 840.80 504.60 L 842.20 499.90 L 842.00 496.40 L 839.40 492.90 L 838.50 491.10 L 838.00 489.30 L 838.10 485.50 L 838.60 483.50 L 844.10 469.50 L 847.40 462.00 L 848.90 459.90 L 848.90 458.50 L 848.20 457.20 L 848.00 456.20 L 848.20 454.00 L 849.50 451.80 L 850.50 451.00 L 851.60 450.40 L 852.60 450.40 L 858.70 455.40 L 863.50 460.00 L 867.80 464.80 L 871.60 469.60 L 875.00 474.80 L 877.90 480.10 L 880.30 485.50 L 884.20 496.50 L 885.90 502.40 L 887.20 508.70 L 888.20 515.70 L 888.90 524.80 L 889.20 534.80 L 888.80 545.70 Z M 877.30 512.40 L 875.30 510.80 L 873.10 509.50 L 870.70 508.60 L 868.20 508.20 L 865.80 508.30 L 864.80 508.80 L 864.50 509.50 L 864.90 510.50 L 870.00 516.40 L 873.40 521.90 L 875.20 523.00 L 877.30 522.90 L 878.30 522.30 L 879.00 521.30 L 879.40 520.20 L 879.40 517.90 L 879.10 516.00 L 877.30 512.40 Z M 686.70 553.40 L 686.40 556.80 L 686.70 559.70 L 687.60 562.20 L 689.00 564.30 L 691.00 566.20 L 693.70 567.90 L 697.20 569.30 L 698.40 569.40 L 700.30 568.40 L 701.00 566.70 L 700.80 562.60 L 700.20 558.60 L 699.10 554.70 L 697.50 551.00 L 695.50 547.50 L 693.00 544.20 L 691.50 543.40 L 690.70 543.50 L 689.60 544.20 L 688.50 546.00 L 687.70 548.30 L 686.70 553.40 Z M 770.90 569.10 L 763.30 558.20 L 762.90 557.90 L 762.30 558.10 L 762.30 559.10 L 773.60 584.90 L 774.60 588.30 L 775.20 591.90 L 775.70 592.80 L 777.20 593.60 L 778.80 593.10 L 779.40 592.50 L 780.20 590.20 L 780.50 588.30 L 780.30 586.30 L 779.40 583.20 L 778.00 580.10 L 770.90 569.10 Z M 664.10 561.20 L 664.30 562.00 L 663.90 562.80 L 658.70 565.40 L 656.40 566.70 L 654.50 568.40 L 652.70 571.20 L 652.20 573.10 L 647.90 592.60 L 647.90 594.90 L 648.50 597.00 L 649.50 599.00 L 652.80 602.90 L 653.10 603.60 L 652.80 604.30 L 649.40 604.30 L 646.70 603.60 L 644.00 602.50 L 643.00 602.50 L 641.80 603.70 L 642.00 604.50 L 653.20 608.40 L 665.50 612.10 L 667.30 612.00 L 668.90 611.30 L 670.30 610.10 L 672.10 607.70 L 673.70 604.80 L 675.90 598.20 L 677.10 590.90 L 677.30 585.30 L 677.10 579.90 L 676.50 574.70 L 675.50 570.30 L 673.20 563.20 L 671.10 560.50 L 668.80 559.40 L 667.40 559.20 L 663.30 560.10 L 663.30 561.00 L 664.10 561.20 Z M 852.20 566.90 L 848.50 565.50 L 846.50 565.20 L 844.60 565.40 L 843.50 565.90 L 842.60 566.70 L 841.90 568.10 L 841.20 570.40 L 841.10 572.30 L 841.30 574.00 L 842.70 576.90 L 845.10 578.90 L 848.00 579.70 L 851.20 579.30 L 854.10 577.50 L 855.30 576.10 L 856.40 574.10 L 856.40 572.10 L 854.90 569.10 L 853.70 567.80 L 852.20 566.90 Z M 735.70 602.70 L 737.40 604.40 L 739.50 605.60 L 741.70 606.20 L 744.00 606.30 L 746.30 605.70 L 748.70 604.30 L 755.00 598.70 L 756.30 597.20 L 757.30 595.70 L 758.20 592.00 L 758.00 590.20 L 751.80 574.90 L 750.50 572.80 L 748.90 571.20 L 746.90 570.00 L 744.70 569.40 L 742.40 569.30 L 740.10 569.90 L 737.70 571.30 L 728.60 578.90 L 727.00 580.70 L 726.00 582.70 L 725.50 584.90 L 725.50 587.10 L 726.10 589.20 L 727.20 591.20 L 735.70 602.70 Z M 808.90 585.20 L 810.10 583.80 L 810.70 582.10 L 810.90 580.30 L 810.60 578.30 L 809.80 576.40 L 808.50 574.50 L 806.80 572.90 L 805.00 571.90 L 803.10 571.30 L 801.30 571.30 L 799.50 571.80 L 798.00 572.70 L 796.90 574.10 L 796.20 575.80 L 796.10 577.60 L 796.40 579.60 L 797.10 581.50 L 798.40 583.40 L 800.00 585.00 L 801.80 586.00 L 803.70 586.60 L 805.60 586.60 L 807.40 586.10 L 808.90 585.20 Z" fill="#cf4847" fill-rule="nonzero" node-id="152" stroke="none" target-height="232.50003" target-width="358.7" target-x="530.5" target-y="450.4"></path><path d="M 849.60 453.40 L 849.40 455.60 L 850.30 457.90 L 850.30 459.30 L 848.80 461.40 L 845.40 468.90 L 842.40 476.50 L 841.70 471.00 L 841.70 467.90 L 842.20 464.90 L 842.90 463.00 L 843.90 461.50 L 846.00 459.60 L 849.60 453.40 Z" fill="#feac9f" fill-rule="nonzero" node-id="154" stroke="none" target-height="23.100006" target-width="8.599976" target-x="841.7" target-y="453.4"></path><path d="M 297.50 488.80 L 290.50 486.60 L 284.00 482.90 L 278.40 478.10 L 276.00 475.30 L 274.00 472.30 L 272.40 469.10 L 271.90 467.40 L 271.70 465.90 L 272.20 463.10 L 273.90 461.00 L 275.10 460.30 L 278.40 459.60 L 281.00 459.70 L 283.50 460.30 L 288.10 462.60 L 292.30 466.00 L 297.50 472.40 L 299.70 475.80 L 302.30 481.00 L 302.70 483.10 L 302.70 485.30 L 302.30 486.50 L 300.80 488.10 L 299.30 488.80 L 297.50 488.80 Z" fill="#cbda66" fill-rule="nonzero" node-id="156" stroke="none" target-height="29.199982" target-width="31" target-x="271.7" target-y="459.6"></path><g node-id="283"><path d="M 387.80 464.00 L 389.90 464.60 L 389.90 465.20 L 389.30 465.40 L 387.80 465.60 L 385.70 465.10 L 385.80 464.50 L 386.30 464.20 L 387.80 464.00 Z" fill="#2c0707" fill-rule="nonzero" group-id="2" node-id="160" stroke="none" target-height="1.6000061" target-width="4.1999817" target-x="385.7" target-y="464"></path></g><path d="M 470.30 471.50 L 470.30 476.80 L 469.80 479.60 L 468.80 482.30 L 467.40 484.80 L 465.70 486.70 L 464.30 487.80 L 460.80 488.80 L 458.50 488.70 L 456.20 488.00 L 451.90 485.60 L 448.10 482.40 L 447.80 481.70 L 448.10 481.00 L 452.60 477.50 L 457.50 474.50 L 460.80 472.70 L 468.00 470.10 L 469.40 470.20 L 470.30 471.50 Z" fill="#fed6c6" fill-rule="nonzero" node-id="163" stroke="none" target-height="18.699982" target-width="22.5" target-x="447.8" target-y="470.1"></path><path d="M 618.30 478.00 L 614.60 478.70 L 611.20 479.80 L 608.10 481.40 L 605.10 483.50 L 599.10 489.40 L 595.70 488.00 L 593.30 487.50 L 591.20 487.60 L 589.10 488.20 L 587.00 489.40 L 581.30 494.80 L 567.30 506.90 L 564.60 510.00 L 552.70 526.10 L 551.10 527.60 L 551.10 525.30 L 552.00 522.20 L 553.40 519.30 L 555.10 516.40 L 558.20 512.50 L 565.80 505.20 L 577.40 495.90 L 589.00 484.10 L 592.60 481.20 L 596.60 478.50 L 600.90 476.20 L 604.00 475.00 L 610.00 473.50 L 613.00 473.30 L 615.90 473.60 L 618.60 474.40 L 621.40 475.70 L 622.30 476.40 L 622.20 476.90 L 621.30 477.40 L 618.30 478.00 Z" fill="#ffbca9" fill-rule="nonzero" node-id="165" stroke="none" target-height="54.299988" target-width="71.20001" target-x="551.1" target-y="473.3"></path><path d="M 625.50 480.60 L 623.10 480.40 L 622.90 480.70 L 626.70 490.60 L 627.90 495.40 L 628.70 500.30 L 629.30 508.20 L 629.60 524.20 L 629.30 532.10 L 628.30 538.60 L 626.20 544.70 L 624.70 547.60 L 622.70 550.50 L 622.00 549.00 L 619.60 547.20 L 617.90 545.40 L 616.40 542.10 L 614.90 539.70 L 613.30 538.10 L 611.70 537.00 L 603.90 533.20 L 599.80 530.00 L 597.80 527.70 L 595.10 523.20 L 592.90 518.40 L 591.00 511.60 L 590.40 508.00 L 590.60 506.20 L 591.30 504.80 L 592.50 503.60 L 596.60 502.30 L 599.00 501.00 L 601.30 499.20 L 603.60 496.70 L 609.80 486.90 L 614.80 481.20 L 617.20 479.60 L 621.10 478.10 L 622.40 478.30 L 623.90 479.10 L 625.50 480.60 Z" fill="#63344a" fill-rule="nonzero" node-id="167" stroke="none" target-height="72.399994" target-width="39.19995" target-x="590.4" target-y="478.1"></path><path d="M 625.50 480.60 L 628.90 490.40 L 630.10 495.40 L 630.90 500.50 L 631.90 511.60 L 632.40 522.80 L 632.50 533.90 L 631.30 541.90 L 630.00 545.80 L 628.80 547.40 L 623.20 552.90 L 618.90 556.50 L 605.70 565.00 L 598.80 568.90 L 588.30 574.20 L 577.50 579.00 L 564.60 582.60 L 556.80 565.30 L 555.80 562.00 L 555.60 559.30 L 555.90 557.20 L 556.60 555.40 L 557.80 554.00 L 559.60 552.80 L 569.40 547.30 L 573.00 545.70 L 576.50 544.50 L 579.70 544.00 L 586.70 544.10 L 593.70 544.60 L 600.60 545.60 L 611.10 547.60 L 613.70 547.60 L 615.30 547.20 L 616.40 546.50 L 617.20 545.60 L 618.80 547.30 L 621.40 549.30 L 621.90 550.70 L 624.00 547.80 L 625.50 544.90 L 627.60 538.80 L 628.60 532.30 L 628.90 524.40 L 628.60 508.40 L 628.00 500.50 L 627.20 495.60 L 626.00 490.80 L 622.20 481.00 L 622.40 480.70 L 623.00 480.60 L 625.50 480.60 Z" fill="#c33935" fill-rule="nonzero" node-id="169" stroke="none" target-height="101.99997" target-width="76.900024" target-x="555.6" target-y="480.6"></path><path d="M 797.30 508.50 L 799.40 513.20 L 802.90 532.40 L 803.50 534.10 L 804.60 535.30 L 806.00 536.10 L 807.70 536.40 L 824.40 536.20 L 818.90 537.00 L 807.80 537.70 L 798.10 537.60 L 793.00 537.00 L 788.50 536.20 L 784.00 535.00 L 756.80 526.80 L 759.20 524.60 L 761.20 522.20 L 762.80 519.40 L 763.90 516.50 L 764.60 513.40 L 764.80 510.10 L 764.50 507.50 L 763.80 504.80 L 762.50 502.20 L 759.60 498.60 L 756.50 496.90 L 754.80 496.60 L 753.00 496.60 L 750.90 497.20 L 748.10 498.50 L 745.80 500.20 L 743.80 502.30 L 742.20 504.80 L 741.20 507.50 L 740.60 510.50 L 739.10 504.50 L 737.30 500.70 L 735.60 494.50 L 732.00 487.70 L 735.30 485.70 L 738.70 484.20 L 742.30 483.10 L 746.10 482.70 L 750.50 483.20 L 758.40 486.90 L 759.70 487.20 L 760.30 487.00 L 767.00 482.50 L 768.00 482.10 L 770.00 482.30 L 773.60 484.50 L 779.90 489.30 L 784.10 494.90 L 789.10 503.00 L 793.60 506.10 L 795.10 507.70 L 796.70 510.30 L 797.30 509.40 L 797.30 508.50 Z M 784.80 532.50 L 786.20 533.00 L 787.80 533.00 L 789.30 532.60 L 790.60 531.70 L 792.50 529.90 L 793.90 527.70 L 794.70 525.30 L 795.00 522.70 L 794.80 519.40 L 793.80 516.40 L 792.90 515.20 L 791.60 514.30 L 788.90 513.30 L 786.50 512.80 L 784.40 512.80 L 782.50 513.20 L 780.70 514.00 L 779.00 515.30 L 777.40 517.00 L 775.90 519.30 L 775.20 521.20 L 775.00 523.10 L 775.30 524.90 L 777.20 528.10 L 780.30 530.70 L 784.80 532.50 Z" fill="#734461" fill-rule="nonzero" node-id="171" stroke="none" target-height="55.600006" target-width="92.400024" target-x="732" target-y="482.1"></path><path d="M 718.40 489.40 L 719.20 488.60 L 721.50 488.10 L 723.80 488.00 L 726.10 488.40 L 728.30 489.20 L 729.70 490.60 L 734.00 500.60 L 737.10 510.90 L 737.10 512.50 L 736.60 513.90 L 735.60 515.00 L 734.10 515.70 L 730.90 515.60 L 728.40 515.00 L 726.10 513.90 L 719.00 507.90 L 713.50 503.90 L 706.90 499.90 L 706.40 499.20 L 706.20 498.30 L 706.40 497.10 L 708.10 495.20 L 716.10 490.00 L 718.40 489.40 Z" fill="#6c3d4f" fill-rule="nonzero" node-id="173" stroke="none" target-height="27.700012" target-width="30.899963" target-x="706.2" target-y="488"></path><path d="M 355.60 492.00 L 358.30 494.60 L 364.10 498.70 L 367.20 500.20 L 371.60 501.60 L 376.10 502.40 L 380.70 502.60 L 385.30 502.20 L 389.90 501.20 L 394.60 499.60 L 395.70 499.70 L 396.10 501.10 L 395.80 502.00 L 390.00 507.40 L 384.00 512.10 L 379.70 514.20 L 375.40 515.10 L 373.00 514.90 L 370.50 514.30 L 367.70 513.00 L 365.20 511.30 L 363.00 509.00 L 360.00 505.20 L 357.50 500.80 L 353.20 491.00 L 354.50 492.00 L 355.60 492.00 Z" fill="#7a2433" fill-rule="nonzero" node-id="175" stroke="none" target-height="24.099976" target-width="42.899994" target-x="353.2" target-y="491"></path><path d="M 757.20 526.80 L 752.80 524.70 L 749.20 522.30 L 746.20 519.70 L 743.90 516.90 L 742.10 513.90 L 740.90 510.50 L 741.50 507.50 L 742.60 504.70 L 744.20 502.30 L 746.20 500.10 L 748.60 498.50 L 751.20 497.20 L 753.20 496.70 L 755.10 496.60 L 756.70 496.90 L 759.80 498.60 L 761.10 499.90 L 762.80 502.20 L 764.10 504.80 L 764.80 507.50 L 765.10 510.10 L 764.80 513.30 L 764.10 516.40 L 763.00 519.40 L 761.40 522.20 L 759.50 524.60 L 757.20 526.80 Z" fill="#ce6e83" fill-rule="nonzero" node-id="177" stroke="none" target-height="30.199982" target-width="24.199951" target-x="740.9" target-y="496.6"></path><path d="M 877.30 512.40 L 879.10 516.10 L 879.40 518.00 L 879.10 521.20 L 878.50 522.10 L 877.60 522.80 L 875.10 523.00 L 874.10 522.60 L 873.30 521.90 L 869.90 516.40 L 864.80 510.80 L 864.30 509.80 L 864.30 509.10 L 864.80 508.60 L 865.90 508.30 L 868.10 508.20 L 870.60 508.70 L 873.10 509.60 L 875.30 510.80 L 877.30 512.40 Z" fill="#b14f59" fill-rule="nonzero" node-id="179" stroke="none" target-height="14.799988" target-width="15.100037" target-x="864.3" target-y="508.2"></path><path d="M 657.90 509.70 L 660.10 510.30 L 663.10 513.00 L 668.50 519.00 L 673.00 525.80 L 676.60 533.70 L 677.70 537.60 L 678.10 541.20 L 678.00 544.00 L 676.80 549.20 L 675.60 551.70 L 668.30 552.20 L 666.10 551.90 L 663.90 551.20 L 661.70 549.90 L 659.00 547.80 L 656.50 545.30 L 654.40 542.60 L 651.60 537.10 L 650.50 532.10 L 650.40 529.50 L 651.10 524.30 L 652.20 520.30 L 653.70 516.50 L 655.60 512.90 L 657.90 509.70 Z" fill="#e37a7b" fill-rule="nonzero" node-id="181" stroke="none" target-height="42.5" target-width="27.699951" target-x="650.4" target-y="509.7"></path><path d="M 783.60 532.10 L 780.20 530.80 L 777.20 528.20 L 775.30 525.00 L 774.90 523.20 L 775.10 521.40 L 775.80 519.40 L 777.50 516.80 L 779.40 514.90 L 781.30 513.70 L 783.50 513.00 L 785.80 512.90 L 788.50 513.30 L 791.50 514.40 L 792.80 515.30 L 793.70 516.50 L 794.70 519.50 L 794.90 522.80 L 794.60 525.40 L 793.80 527.80 L 792.40 530.00 L 789.20 532.70 L 787.80 533.10 L 786.20 533.10 L 783.60 532.10 Z" fill="#ce6e83" fill-rule="nonzero" node-id="183" stroke="none" target-height="20.199951" target-width="20" target-x="774.9" target-y="512.9"></path><path d="M 559.10 569.30 L 565.10 582.40 L 566.50 584.80 L 567.40 587.50 L 567.90 590.40 L 568.00 593.50 L 567.10 599.90 L 564.20 609.30 L 560.70 617.20 L 539.20 657.60 L 534.40 655.00 L 532.90 653.40 L 531.80 653.00 L 530.40 653.00 L 528.10 650.00 L 525.60 647.40 L 522.80 645.20 L 519.70 643.30 L 517.30 642.30 L 515.40 641.90 L 513.80 641.90 L 512.40 642.40 L 511.20 643.10 L 510.10 644.30 L 508.40 648.30 L 506.40 648.40 L 503.80 650.70 L 501.50 650.90 L 500.60 652.40 L 499.70 652.80 L 498.20 652.70 L 493.90 649.50 L 489.20 647.70 L 486.90 647.40 L 484.80 647.50 L 482.80 648.10 L 481.20 649.20 L 479.70 650.80 L 478.70 652.80 L 478.10 655.50 L 477.90 659.10 L 472.20 659.90 L 465.00 661.80 L 461.20 662.30 L 457.30 661.80 L 455.40 661.20 L 451.80 659.30 L 451.00 653.00 L 449.80 646.70 L 448.20 640.60 L 446.20 634.60 L 443.90 628.80 L 441.10 623.10 L 441.60 621.10 L 441.30 620.20 L 439.70 617.70 L 439.20 612.30 L 438.50 610.30 L 436.30 606.50 L 433.60 602.90 L 430.50 599.50 L 426.90 596.50 L 422.90 593.70 L 415.20 589.10 L 413.00 586.40 L 412.00 583.00 L 409.70 569.80 L 408.50 566.10 L 406.80 562.50 L 404.50 558.70 L 404.80 557.50 L 405.70 556.20 L 407.00 555.50 L 421.80 552.70 L 507.70 536.90 L 520.80 535.00 L 526.20 534.60 L 536.90 534.70 L 542.30 535.40 L 543.10 535.70 L 543.40 536.30 L 542.30 540.40 L 542.10 541.70 L 542.30 542.40 L 543.00 542.60 L 546.10 542.20 L 547.90 542.60 L 548.80 543.50 L 549.30 544.60 L 550.30 552.80 L 551.40 556.60 L 554.20 562.40 L 559.10 569.30 Z M 492.60 572.90 L 491.50 576.80 L 491.80 581.20 L 492.40 583.20 L 493.40 584.80 L 495.40 586.10 L 497.90 586.10 L 501.40 584.20 L 505.00 580.80 L 506.70 578.70 L 508.60 575.00 L 508.60 572.10 L 508.10 570.90 L 506.90 569.60 L 505.00 568.30 L 502.70 567.40 L 500.70 567.10 L 498.90 567.20 L 497.20 567.80 L 495.60 568.90 L 494.10 570.60 L 492.60 572.90 Z M 450.10 591.00 L 452.50 590.40 L 455.00 588.10 L 456.10 586.00 L 456.70 583.70 L 456.90 581.10 L 456.60 578.50 L 455.80 576.20 L 454.70 574.20 L 453.30 572.60 L 451.00 571.50 L 449.70 571.40 L 447.20 572.10 L 444.70 574.40 L 443.70 576.40 L 443.10 578.70 L 442.90 581.30 L 443.20 583.90 L 444.00 586.20 L 445.20 588.20 L 447.70 590.40 L 450.10 591.00 Z M 516.10 593.40 L 518.40 594.40 L 521.70 594.10 L 523.80 593.10 L 525.80 591.60 L 527.60 589.60 L 529.00 587.30 L 529.90 585.00 L 530.30 582.80 L 529.70 579.50 L 528.20 577.50 L 525.90 576.50 L 524.60 576.40 L 522.60 576.80 L 520.50 577.80 L 518.50 579.30 L 516.70 581.30 L 515.20 583.60 L 514.40 585.80 L 514.00 588.10 L 514.60 591.40 L 516.10 593.40 Z M 503.60 597.00 L 502.40 594.50 L 501.10 592.90 L 499.70 591.80 L 498.00 591.20 L 496.10 591.00 L 494.10 591.20 L 491.10 592.00 L 487.90 593.50 L 482.10 597.30 L 477.70 601.00 L 476.00 603.00 L 474.80 605.00 L 474.00 607.20 L 473.60 611.80 L 474.90 617.70 L 476.40 621.10 L 478.20 624.40 L 480.80 627.80 L 481.90 627.70 L 486.30 625.60 L 491.80 621.00 L 502.30 609.70 L 503.60 607.40 L 504.40 604.90 L 504.60 602.20 L 504.40 599.60 L 503.60 597.00 Z M 468.60 621.80 L 470.20 613.80 L 470.40 609.60 L 470.20 605.60 L 469.70 602.90 L 467.80 598.30 L 466.30 596.40 L 464.30 594.70 L 461.80 593.20 L 460.20 592.70 L 458.50 592.60 L 456.90 593.00 L 455.40 593.80 L 452.10 596.10 L 448.90 599.20 L 446.90 601.60 L 443.90 606.60 L 443.00 609.30 L 442.60 612.00 L 442.70 614.60 L 443.20 616.50 L 444.10 618.30 L 445.50 620.20 L 447.40 622.00 L 449.90 623.70 L 452.60 625.00 L 455.50 625.80 L 458.50 626.20 L 461.50 626.20 L 466.00 625.10 L 467.20 624.30 L 468.10 623.20 L 468.60 621.80 Z M 449.90 638.70 L 450.40 639.60 L 452.00 640.50 L 453.50 640.20 L 455.50 638.80 L 456.70 637.70 L 457.90 635.20 L 458.00 634.00 L 457.40 631.60 L 455.50 629.60 L 454.20 629.00 L 450.70 628.40 L 449.40 628.90 L 448.60 632.00 L 448.60 634.40 L 449.10 636.70 L 449.90 638.70 Z" fill="#ffa490" fill-rule="nonzero" node-id="185" stroke="none" target-height="127.70001" target-width="163.5" target-x="404.5" target-y="534.6"></path><path d="M 402.90 558.60 L 404.50 558.40 L 404.20 559.40 L 404.30 560.00 L 406.40 563.40 L 408.10 567.00 L 409.30 570.70 L 411.70 583.90 L 412.70 587.30 L 413.70 588.70 L 416.30 591.10 L 422.70 594.60 L 426.90 597.60 L 430.60 600.70 L 433.60 604.00 L 436.30 607.50 L 439.00 612.60 L 439.60 618.60 L 439.90 619.50 L 441.20 621.10 L 441.50 622.00 L 441.00 624.00 L 436.50 615.80 L 433.80 612.00 L 430.70 608.50 L 427.40 605.30 L 423.70 602.30 L 418.30 599.30 L 415.30 598.30 L 410.60 597.60 L 407.00 598.50 L 403.40 600.70 L 399.20 604.60 L 396.50 607.80 L 395.30 608.20 L 394.00 608.20 L 392.80 607.70 L 389.60 604.50 L 387.10 601.20 L 385.00 597.60 L 375.90 578.30 L 372.80 572.70 L 365.80 562.30 L 361.80 557.40 L 358.70 554.10 L 355.40 551.20 L 351.80 548.60 L 347.90 546.50 L 343.70 544.70 L 343.10 544.70 L 342.70 545.10 L 342.50 546.30 L 333.90 543.70 L 333.30 543.10 L 333.30 541.50 L 333.70 541.10 L 341.70 540.50 L 350.80 538.80 L 359.80 537.70 L 365.60 538.10 L 380.20 542.00 L 383.50 543.30 L 387.30 545.60 L 394.00 551.00 L 397.00 554.10 L 402.60 561.50 L 404.60 561.50 L 403.10 559.90 L 402.90 558.60 Z" fill="#7ecdbb" fill-rule="nonzero" node-id="187" stroke="none" target-height="86.29999" target-width="108.20001" target-x="333.3" target-y="537.7"></path><path d="M 686.70 553.40 L 687.80 548.30 L 688.60 545.90 L 689.70 544.10 L 691.20 543.30 L 692.90 543.80 L 695.60 547.40 L 697.60 551.00 L 699.20 554.70 L 700.30 558.50 L 700.90 562.50 L 701.10 566.60 L 700.90 567.70 L 700.20 568.60 L 699.30 569.20 L 698.10 569.40 L 693.80 567.80 L 691.10 566.20 L 689.10 564.30 L 687.70 562.20 L 686.80 559.70 L 686.50 556.80 L 686.70 553.40 Z" fill="#e37a7b" fill-rule="nonzero" node-id="189" stroke="none" target-height="26.100037" target-width="14.599976" target-x="686.5" target-y="543.3"></path><path d="M 440.70 623.20 L 443.50 629.00 L 445.90 634.80 L 447.90 640.90 L 449.40 647.00 L 451.40 659.40 L 450.60 674.10 L 449.60 681.40 L 448.20 688.60 L 448.60 688.80 L 447.40 689.20 L 447.00 682.60 L 446.20 681.00 L 426.90 666.80 L 421.70 662.20 L 417.00 657.20 L 412.70 651.70 L 409.00 645.40 L 405.70 638.90 L 398.10 621.70 L 393.50 612.30 L 391.80 609.70 L 389.80 607.40 L 384.90 603.50 L 380.70 594.90 L 374.50 580.40 L 370.60 573.00 L 366.00 565.90 L 362.70 561.30 L 359.10 557.20 L 355.30 553.40 L 349.10 548.60 L 342.30 545.20 L 342.70 543.80 L 343.50 543.60 L 350.20 546.80 L 356.30 551.10 L 361.60 556.30 L 365.60 561.20 L 372.60 571.70 L 375.70 577.20 L 380.40 586.80 L 384.80 596.50 L 386.90 600.20 L 389.40 603.50 L 392.40 606.40 L 393.60 607.00 L 394.80 607.20 L 396.00 606.80 L 397.20 606.00 L 399.30 603.50 L 403.50 599.60 L 407.20 597.40 L 409.10 596.70 L 412.30 596.60 L 418.30 598.20 L 421.20 599.60 L 423.70 601.20 L 430.50 607.60 L 436.20 615.00 L 440.70 623.20 Z" fill="#478dbe" fill-rule="nonzero" node-id="191" stroke="none" target-height="145.60004" target-width="109.100006" target-x="342.3" target-y="543.6"></path><path d="M 888.80 545.70 L 883.90 578.50 L 882.00 588.50 L 881.10 591.60 L 876.50 601.80 L 870.60 612.80 L 866.90 618.40 L 862.90 623.70 L 858.40 628.60 L 853.50 633.10 L 843.70 640.80 L 839.50 644.60 L 828.40 655.90 L 820.40 661.70 L 815.80 664.40 L 806.30 669.10 L 788.80 676.00 L 773.70 682.70 L 759.50 687.50 L 752.20 689.40 L 740.60 691.60 L 721.10 693.40 L 713.20 693.70 L 700.70 693.50 L 692.00 694.10 L 685.30 694.10 L 682.80 694.60 L 680.60 695.60 L 677.20 697.80 L 674.30 698.80 L 669.40 699.80 L 658.80 701.10 L 648.20 702.00 L 637.60 702.50 L 627.00 702.60 L 628.10 702.00 L 628.60 701.00 L 628.10 699.90 L 626.80 699.40 L 626.40 698.80 L 626.80 697.00 L 632.40 688.30 L 637.40 679.40 L 641.80 670.20 L 645.70 660.60 L 647.30 651.80 L 645.90 652.80 L 648.70 643.50 L 649.10 644.20 L 649.60 650.00 L 650.10 650.70 L 651.50 651.40 L 655.80 652.40 L 660.10 653.00 L 681.60 652.90 L 704.90 652.20 L 706.10 651.70 L 708.10 649.90 L 709.10 647.20 L 712.90 618.40 L 713.30 618.00 L 713.90 618.20 L 713.10 641.30 L 711.70 648.80 L 712.20 649.60 L 712.70 649.70 L 719.70 650.00 L 726.40 649.80 L 757.50 645.80 L 763.70 644.50 L 787.50 638.50 L 790.20 637.50 L 793.20 635.40 L 795.10 636.30 L 825.70 627.00 L 842.90 618.40 L 843.70 617.90 L 845.10 615.60 L 845.90 615.20 L 849.60 614.70 L 851.10 614.20 L 866.20 602.70 L 868.60 601.60 L 871.00 599.00 L 874.10 596.70 L 875.30 593.60 L 877.60 591.30 L 879.60 587.40 L 880.80 583.00 L 881.00 579.30 L 880.00 575.60 L 868.40 558.60 L 869.60 557.80 L 870.30 558.10 L 877.50 564.80 L 879.20 567.10 L 880.40 572.10 L 881.10 572.70 L 882.40 572.40 L 882.90 571.70 L 886.70 552.80 L 886.50 551.20 L 886.90 549.40 L 888.80 545.70 Z" fill="#a7343f" fill-rule="nonzero" node-id="193" stroke="none" target-height="156.89996" target-width="262.39996" target-x="626.4" target-y="545.7"></path><path d="M 770.90 569.10 L 778.00 580.10 L 779.50 583.30 L 780.40 586.30 L 780.60 588.40 L 780.50 590.30 L 779.50 593.00 L 778.00 593.70 L 777.10 593.60 L 776.00 592.90 L 775.50 592.00 L 774.90 588.40 L 773.90 585.00 L 762.30 559.10 L 762.70 557.90 L 763.60 558.10 L 770.90 569.10 Z" fill="#a7343f" fill-rule="nonzero" node-id="195" stroke="none" target-height="35.799988" target-width="18.299988" target-x="762.3" target-y="557.9"></path><path d="M 663.70 561.00 L 663.30 560.20 L 663.70 559.80 L 665.90 559.20 L 668.90 559.20 L 671.30 560.40 L 673.30 563.10 L 675.60 570.10 L 676.60 574.40 L 677.20 579.60 L 677.40 585.00 L 676.80 594.40 L 675.10 601.30 L 673.80 604.60 L 672.20 607.40 L 670.40 609.90 L 669.00 611.00 L 667.30 611.70 L 665.50 611.80 L 653.30 608.20 L 642.30 604.30 L 641.90 603.70 L 642.70 602.50 L 644.10 602.30 L 646.80 603.40 L 649.50 604.10 L 652.30 604.30 L 653.00 603.90 L 652.90 602.50 L 651.00 600.50 L 648.70 596.60 L 648.10 594.60 L 648.10 592.20 L 652.30 572.70 L 652.80 570.90 L 654.70 568.00 L 656.60 566.30 L 658.90 565.00 L 663.60 562.60 L 664.40 561.60 L 664.20 560.80 L 663.70 561.00 Z" fill="#6c3d4f" fill-rule="nonzero" node-id="197" stroke="none" target-height="52.599976" target-width="35.5" target-x="641.9" target-y="559.2"></path><path d="M 852.20 566.90 L 854.80 569.10 L 856.40 572.10 L 856.40 574.10 L 855.30 576.10 L 854.10 577.50 L 851.20 579.30 L 848.00 579.70 L 845.10 578.90 L 842.70 577.00 L 841.30 574.00 L 841.10 572.30 L 841.20 570.40 L 841.90 568.10 L 842.70 566.80 L 843.60 565.90 L 844.70 565.40 L 846.50 565.20 L 848.50 565.50 L 852.20 566.90 Z" fill="#7d434d" fill-rule="nonzero" node-id="199" stroke="none" target-height="14.5" target-width="15.300049" target-x="841.1" target-y="565.2"></path><path d="M 492.60 572.90 L 494.10 570.60 L 495.70 568.90 L 497.30 567.80 L 498.90 567.20 L 500.70 567.10 L 502.70 567.40 L 504.90 568.30 L 506.80 569.50 L 508.00 570.80 L 508.60 572.10 L 508.80 573.50 L 508.00 576.50 L 504.90 580.80 L 501.30 584.20 L 497.80 586.10 L 495.30 586.10 L 493.40 584.80 L 492.40 583.20 L 491.80 581.20 L 491.50 576.80 L 492.60 572.90 Z" fill="#fb381a" fill-rule="nonzero" node-id="201" stroke="none" target-height="19" target-width="17.299988" target-x="491.5" target-y="567.1"></path><path d="M 735.70 602.70 L 727.30 591.60 L 726.10 589.60 L 725.50 587.40 L 725.40 585.20 L 726.00 583.10 L 727.10 581.10 L 728.70 579.30 L 737.70 571.50 L 739.80 570.20 L 742.00 569.50 L 744.30 569.40 L 746.50 569.80 L 748.60 570.90 L 750.40 572.50 L 751.80 574.90 L 757.40 588.40 L 758.00 592.10 L 757.20 595.70 L 755.00 598.70 L 748.80 604.10 L 746.70 605.40 L 744.50 606.10 L 742.20 606.20 L 740.00 605.80 L 737.90 604.70 L 735.70 602.70 Z" fill="#63344a" fill-rule="nonzero" node-id="203" stroke="none" target-height="36.799988" target-width="32.599976" target-x="725.4" target-y="569.4"></path><path d="M 342.70 570.70 L 345.20 569.60 L 346.90 569.40 L 348.50 569.60 L 350.10 570.30 L 351.40 571.30 L 352.50 572.70 L 357.30 581.10 L 358.00 582.80 L 358.20 584.50 L 358.00 586.10 L 357.30 587.70 L 356.30 589.00 L 354.10 590.50 L 352.40 591.20 L 350.70 591.40 L 349.10 591.20 L 347.50 590.50 L 346.20 589.50 L 345.10 588.10 L 340.30 579.70 L 339.60 578.00 L 339.50 576.30 L 339.70 574.70 L 340.40 573.10 L 341.30 571.80 L 342.70 570.70 Z" fill="#0b224a" fill-rule="nonzero" node-id="205" stroke="none" target-height="22" target-width="18.700012" target-x="339.5" target-y="569.4"></path><g node-id="284"><path d="M 457.10 581.00 L 457.00 583.00 L 456.00 586.50 L 454.10 589.30 L 451.60 590.80 L 448.90 590.80 L 446.40 589.40 L 444.40 586.70 L 443.30 583.20 L 443.20 579.30 L 444.20 575.70 L 446.10 572.90 L 448.60 571.40 L 451.30 571.40 L 452.60 571.90 L 455.00 574.00 L 456.50 577.20 L 457.10 581.00 Z" fill="#fe6037" fill-rule="nonzero" group-id="3" node-id="209" stroke="none" target-height="19.399963" target-width="13.899994" target-x="443.2" target-y="571.4"></path></g><g node-id="285"><path d="M 808.50 574.30 L 810.30 577.10 L 810.90 580.10 L 810.50 583.00 L 808.90 585.10 L 806.60 586.40 L 803.70 586.50 L 800.80 585.40 L 798.30 583.30 L 796.60 580.50 L 795.90 577.50 L 796.30 574.70 L 797.90 572.50 L 800.30 571.30 L 803.10 571.20 L 806.00 572.30 L 808.50 574.30 Z" fill="#7d434d" fill-rule="nonzero" group-id="4" node-id="214" stroke="none" target-height="15.299988" target-width="15" target-x="795.9" target-y="571.2"></path></g><g node-id="286"><path d="M 528.20 577.70 L 529.90 579.90 L 530.30 583.00 L 529.60 586.50 L 527.70 589.80 L 526.40 591.30 L 523.40 593.40 L 520.20 594.40 L 517.30 594.10 L 515.20 592.40 L 514.50 591.20 L 514.00 588.10 L 514.70 584.60 L 516.60 581.30 L 519.30 578.60 L 522.50 577.00 L 525.60 576.60 L 528.20 577.70 Z" fill="#fb381a" fill-rule="nonzero" group-id="5" node-id="219" stroke="none" target-height="17.800049" target-width="16.299988" target-x="514" target-y="576.6"></path></g><path d="M 275.20 599.20 L 269.40 600.60 L 268.00 600.50 L 267.10 600.00 L 266.50 599.10 L 265.90 594.10 L 266.00 590.90 L 266.60 588.10 L 267.50 585.50 L 268.90 583.10 L 270.60 580.90 L 272.80 578.80 L 276.40 576.60 L 278.90 577.40 L 280.00 578.40 L 280.70 579.60 L 281.40 582.60 L 280.80 587.20 L 278.80 592.90 L 275.20 599.20 Z" fill="#0b224a" fill-rule="nonzero" node-id="222" stroke="none" target-height="24" target-width="15.5" target-x="265.9" target-y="576.6"></path><path d="M 342.90 604.30 L 341.90 603.60 L 341.10 602.50 L 341.10 601.60 L 346.60 595.20 L 351.10 593.80 L 356.20 591.10 L 358.10 590.80 L 360.00 591.00 L 363.90 592.80 L 365.30 594.00 L 366.80 596.50 L 367.10 598.30 L 366.90 600.20 L 366.20 602.20 L 363.70 605.80 L 359.70 608.90 L 357.50 609.80 L 355.40 610.20 L 353.30 610.20 L 351.30 609.80 L 349.20 608.90 L 346.90 607.50 L 342.90 604.30 Z" fill="#c4d2ac" fill-rule="nonzero" node-id="224" stroke="none" target-height="19.400024" target-width="26" target-x="341.1" target-y="590.8"></path><path d="M 477.70 600.90 L 484.90 595.20 L 491.10 591.90 L 494.10 591.00 L 496.10 590.80 L 498.00 591.10 L 499.70 591.70 L 501.10 592.70 L 502.40 594.40 L 503.60 596.90 L 504.30 599.60 L 504.50 602.20 L 504.30 604.90 L 503.50 607.40 L 502.20 609.70 L 500.40 611.80 L 491.70 621.00 L 488.50 623.80 L 484.00 626.80 L 481.90 627.70 L 481.00 627.70 L 480.30 627.30 L 478.20 624.30 L 476.40 621.10 L 474.90 617.60 L 473.90 614.10 L 473.60 611.80 L 474.00 607.20 L 474.80 605.00 L 476.00 602.90 L 477.70 600.90 Z" fill="#fb381a" fill-rule="nonzero" node-id="226" stroke="none" target-height="36.900024" target-width="30.899994" target-x="473.6" target-y="590.8"></path><path d="M 462.00 593.20 L 464.40 594.70 L 466.40 596.40 L 467.80 598.40 L 469.80 603.00 L 470.30 605.60 L 470.50 609.60 L 470.30 613.80 L 468.80 621.80 L 468.30 623.20 L 467.40 624.30 L 464.80 625.60 L 461.80 626.20 L 458.80 626.30 L 455.80 625.90 L 452.90 625.10 L 450.20 623.80 L 447.70 622.00 L 444.40 618.30 L 443.00 614.50 L 442.90 611.90 L 443.30 609.20 L 444.20 606.50 L 447.20 601.50 L 449.20 599.20 L 452.40 596.10 L 457.20 593.00 L 458.80 592.60 L 460.40 592.70 L 462.00 593.20 Z" fill="#fb381a" fill-rule="nonzero" node-id="228" stroke="none" target-height="33.700012" target-width="27.600006" target-x="442.9" target-y="592.6"></path><path d="M 380.40 595.00 L 384.60 603.60 L 383.10 610.80 L 381.10 617.80 L 378.60 624.70 L 375.60 631.40 L 372.10 637.80 L 368.10 644.00 L 367.90 645.00 L 368.50 645.80 L 370.40 646.20 L 372.10 647.40 L 376.90 655.90 L 381.50 663.10 L 386.40 670.10 L 382.40 669.20 L 381.30 668.50 L 379.70 666.70 L 378.60 666.10 L 377.40 666.00 L 374.90 666.60 L 373.70 666.60 L 369.80 664.70 L 365.70 664.20 L 361.80 663.30 L 356.90 661.60 L 346.90 659.30 L 336.70 658.30 L 326.90 658.30 L 314.30 657.70 L 304.50 656.50 L 298.50 657.10 L 293.50 655.00 L 291.10 653.60 L 285.40 648.90 L 281.50 646.20 L 277.10 643.90 L 268.10 632.20 L 267.30 630.80 L 267.30 630.10 L 267.90 629.80 L 275.50 630.80 L 281.50 631.20 L 287.40 631.20 L 308.60 629.30 L 323.70 627.40 L 338.70 624.90 L 353.50 622.00 L 358.10 620.80 L 362.10 619.30 L 365.70 617.50 L 368.90 615.30 L 371.60 612.90 L 374.10 610.00 L 376.20 606.90 L 377.90 603.40 L 379.40 599.40 L 380.40 595.00 Z" fill="#a5c9e0" fill-rule="nonzero" node-id="230" stroke="none" target-height="75.099976" target-width="119.100006" target-x="267.3" target-y="595"></path><path d="M 266.10 597.60 L 266.40 599.10 L 267.00 600.00 L 267.90 600.50 L 269.30 600.60 L 272.30 600.10 L 275.10 599.20 L 278.60 599.60 L 283.30 598.60 L 284.50 599.00 L 285.40 599.70 L 286.30 601.40 L 286.40 605.10 L 285.90 608.40 L 284.90 611.30 L 282.30 615.10 L 278.70 617.80 L 276.60 618.70 L 271.70 619.60 L 268.80 619.50 L 266.50 619.00 L 264.80 618.30 L 263.60 617.30 L 262.00 614.50 L 261.70 610.20 L 263.00 604.50 L 266.10 597.60 Z" fill="#c4d2ac" fill-rule="nonzero" node-id="232" stroke="none" target-height="22" target-width="24.699982" target-x="261.7" target-y="597.6"></path><path d="M 384.40 603.50 L 389.20 607.40 L 392.80 612.30 L 397.60 621.70 L 405.00 638.90 L 408.30 645.40 L 412.00 651.70 L 416.30 657.20 L 421.00 662.20 L 426.20 666.80 L 431.90 671.00 L 429.30 671.40 L 426.70 671.30 L 424.10 670.80 L 422.30 671.00 L 409.40 678.20 L 407.20 679.10 L 404.80 679.60 L 400.00 679.80 L 396.50 679.20 L 393.40 677.60 L 388.20 672.70 L 380.90 662.80 L 376.30 655.60 L 371.70 647.10 L 370.00 645.90 L 368.00 645.30 L 367.50 644.50 L 367.70 643.70 L 371.80 637.70 L 375.40 631.30 L 378.50 624.70 L 381.00 617.80 L 382.90 610.80 L 384.40 603.50 Z" fill="#ede4f0" fill-rule="nonzero" node-id="234" stroke="none" target-height="76.29999" target-width="64.399994" target-x="367.5" target-y="603.5"></path><path d="M 449.90 638.70 L 448.90 636.50 L 448.40 634.20 L 448.40 631.80 L 449.20 628.90 L 450.50 628.40 L 454.00 629.00 L 456.40 630.50 L 457.70 632.80 L 457.80 635.30 L 457.30 636.60 L 455.40 638.90 L 452.70 640.30 L 451.80 640.40 L 450.80 640.00 L 449.90 638.70 Z" fill="#c33935" fill-rule="nonzero" node-id="236" stroke="none" target-height="12" target-width="9.399994" target-x="448.4" target-y="628.4"></path><path d="M 530.00 653.10 L 530.10 657.40 L 529.70 659.50 L 528.50 662.50 L 526.70 665.30 L 524.50 667.70 L 521.90 669.70 L 520.00 670.70 L 515.90 671.80 L 512.30 671.40 L 508.30 669.10 L 504.60 665.00 L 503.50 662.80 L 502.90 660.60 L 502.90 658.40 L 503.30 656.20 L 504.20 653.90 L 505.70 651.30 L 508.00 648.50 L 508.90 645.90 L 510.00 644.10 L 511.30 642.90 L 512.80 642.30 L 514.50 642.10 L 516.70 642.50 L 519.30 643.50 L 522.40 645.30 L 525.30 647.60 L 527.80 650.10 L 530.00 653.10 Z" fill="#677099" fill-rule="nonzero" node-id="238" stroke="none" target-height="29.700012" target-width="27.199982" target-x="502.9" target-y="642.1"></path><path d="M 298.90 657.00 L 295.70 663.60 L 295.50 665.40 L 298.50 674.50 L 300.50 679.00 L 305.30 687.40 L 308.20 691.30 L 310.20 693.40 L 312.40 695.00 L 314.80 696.30 L 318.70 697.80 L 331.10 700.30 L 336.60 700.60 L 339.30 700.30 L 348.80 697.70 L 370.70 693.60 L 371.50 692.70 L 372.10 691.30 L 372.70 691.00 L 373.50 691.50 L 374.30 697.50 L 375.20 698.60 L 395.60 700.20 L 401.60 700.50 L 419.50 700.60 L 437.20 700.30 L 439.20 699.90 L 447.00 696.50 L 447.10 699.20 L 446.30 704.40 L 445.30 706.90 L 442.10 712.00 L 442.20 712.40 L 443.80 713.00 L 444.00 714.40 L 445.60 715.40 L 443.00 716.30 L 438.20 716.80 L 433.60 718.30 L 428.80 719.30 L 423.70 719.80 L 423.90 721.10 L 428.30 721.60 L 428.30 722.00 L 427.90 722.20 L 413.50 720.70 L 399.10 718.80 L 384.80 716.20 L 370.60 713.20 L 371.00 711.90 L 371.00 710.70 L 370.60 709.40 L 370.10 708.90 L 368.80 708.60 L 367.80 709.10 L 366.00 713.10 L 364.10 716.40 L 361.80 719.40 L 359.20 722.10 L 358.50 722.60 L 357.40 722.90 L 351.00 723.10 L 351.40 722.90 L 351.40 722.50 L 349.50 722.60 L 348.00 722.10 L 347.40 720.90 L 347.30 718.80 L 346.60 717.60 L 345.60 716.70 L 343.00 716.30 L 338.10 717.20 L 333.40 717.30 L 331.10 716.70 L 328.20 715.10 L 322.60 713.90 L 318.00 712.50 L 310.30 709.50 L 306.00 708.70 L 305.20 708.30 L 301.10 704.80 L 297.40 700.80 L 294.30 696.50 L 291.20 691.20 L 290.80 691.30 L 290.50 694.00 L 290.20 689.70 L 291.30 685.60 L 291.30 683.80 L 290.90 683.00 L 284.30 678.50 L 281.80 676.10 L 277.70 670.60 L 276.50 667.80 L 275.80 665.00 L 275.70 662.30 L 276.10 659.40 L 277.00 656.50 L 278.50 653.40 L 281.00 649.80 L 277.20 643.90 L 280.60 645.50 L 283.60 647.30 L 286.50 649.50 L 289.10 652.10 L 291.40 653.60 L 298.90 657.00 Z M 351.60 719.30 L 356.80 715.10 L 357.40 714.40 L 357.40 712.80 L 356.40 711.50 L 353.30 710.50 L 351.70 710.50 L 348.90 711.40 L 348.10 712.30 L 347.60 713.40 L 347.60 714.90 L 348.40 718.10 L 348.90 719.40 L 349.60 719.90 L 350.40 719.90 L 351.60 719.30 Z" fill="#6396d0" fill-rule="nonzero" node-id="240" stroke="none" target-height="79.19995" target-width="171.4" target-x="275.7" target-y="643.9"></path><path d="M 497.80 653.10 L 498.60 655.70 L 499.00 660.50 L 498.10 664.00 L 497.20 665.40 L 495.80 666.60 L 494.00 667.40 L 490.70 668.10 L 487.90 668.30 L 485.60 668.00 L 483.50 667.30 L 481.70 666.10 L 480.10 664.40 L 478.70 662.30 L 477.50 659.40 L 477.70 655.70 L 478.30 653.00 L 479.30 651.10 L 480.80 649.40 L 482.40 648.40 L 484.40 647.80 L 486.50 647.70 L 488.80 648.00 L 493.50 649.90 L 497.80 653.10 Z" fill="#677099" fill-rule="nonzero" node-id="242" stroke="none" target-height="20.599976" target-width="21.5" target-x="477.5" target-y="647.7"></path><path d="M 507.90 648.50 L 505.70 651.30 L 504.20 653.90 L 503.20 656.20 L 502.80 658.40 L 502.90 660.60 L 503.40 662.80 L 504.60 665.00 L 506.30 667.20 L 508.30 669.10 L 512.20 671.40 L 515.80 671.80 L 518.60 671.20 L 521.20 670.00 L 523.60 668.40 L 525.70 666.40 L 527.40 664.10 L 528.80 661.50 L 529.70 658.80 L 530.10 656.00 L 529.90 653.10 L 531.80 653.20 L 534.70 655.50 L 538.70 657.70 L 526.80 681.80 L 519.40 699.80 L 519.40 701.20 L 520.40 702.40 L 519.60 702.80 L 519.20 703.60 L 516.70 703.00 L 514.20 702.80 L 515.20 702.10 L 515.50 701.50 L 515.40 700.90 L 513.70 699.70 L 511.60 699.00 L 514.60 699.00 L 515.70 698.60 L 515.80 696.70 L 515.40 696.00 L 514.70 695.50 L 491.70 696.10 L 481.20 695.60 L 470.90 694.50 L 457.10 692.10 L 450.00 690.40 L 447.60 688.80 L 449.10 681.60 L 450.10 674.40 L 450.80 667.00 L 451.00 659.60 L 454.60 661.50 L 456.50 662.10 L 461.00 662.50 L 463.50 662.20 L 471.50 660.30 L 477.10 659.40 L 478.30 662.20 L 479.70 664.40 L 481.30 666.10 L 483.10 667.20 L 485.20 668.00 L 487.60 668.30 L 490.30 668.10 L 493.60 667.40 L 495.40 666.50 L 496.80 665.40 L 497.70 663.90 L 498.60 660.40 L 498.60 658.50 L 498.20 655.60 L 497.40 653.10 L 498.90 653.10 L 499.80 652.70 L 500.80 651.40 L 503.00 651.10 L 504.90 649.20 L 505.90 648.60 L 507.90 648.50 Z" fill="#da919e" fill-rule="nonzero" node-id="244" stroke="none" target-height="55.099976" target-width="91.100006" target-x="447.6" target-y="648.5"></path><path d="M 627.30 702.80 L 624.50 702.80 L 622.90 703.60 L 613.30 713.30 L 603.40 722.70 L 600.60 724.30 L 591.10 724.30 L 590.00 724.20 L 589.60 723.80 L 589.60 723.30 L 590.30 722.30 L 591.60 721.30 L 593.10 720.60 L 597.50 720.10 L 598.50 719.70 L 602.60 717.40 L 606.30 714.70 L 616.50 704.00 L 623.20 696.40 L 627.50 690.80 L 631.40 684.90 L 635.00 678.80 L 638.10 672.40 L 640.80 665.90 L 643.10 659.20 L 646.10 652.80 L 647.10 652.00 L 647.50 651.80 L 647.50 652.40 L 645.90 660.60 L 642.90 668.30 L 639.60 675.70 L 635.80 683.00 L 626.50 698.00 L 626.50 698.70 L 628.60 700.30 L 628.80 701.00 L 628.10 702.30 L 627.30 702.80 Z" fill="#760906" fill-rule="nonzero" node-id="246" stroke="none" target-height="72.5" target-width="57.900024" target-x="589.6" target-y="651.8"></path><path d="M 386.20 670.00 L 388.40 672.90 L 393.60 677.80 L 395.70 679.00 L 397.90 679.70 L 400.20 680.00 L 405.00 679.80 L 407.40 679.30 L 409.60 678.40 L 423.40 670.90 L 426.90 671.50 L 429.50 671.60 L 432.10 671.20 L 445.80 681.30 L 446.40 682.00 L 447.00 689.50 L 446.60 696.50 L 438.80 699.90 L 436.80 700.30 L 418.90 700.60 L 401.20 700.50 L 375.50 698.70 L 374.50 698.30 L 373.90 697.50 L 373.10 691.70 L 372.80 691.20 L 372.10 690.90 L 371.30 691.70 L 371.00 692.90 L 369.90 693.50 L 348.40 697.50 L 337.80 700.20 L 334.20 700.40 L 330.70 700.10 L 322.50 698.80 L 318.30 697.80 L 314.40 696.30 L 312.00 694.90 L 309.80 693.20 L 307.80 691.10 L 304.90 687.20 L 300.10 678.80 L 296.50 669.90 L 295.10 665.20 L 295.30 663.40 L 298.50 656.80 L 300.50 656.30 L 304.50 656.20 L 314.30 657.40 L 327.00 658.00 L 336.70 658.00 L 346.90 659.00 L 356.90 661.30 L 361.80 663.00 L 365.70 663.90 L 369.80 664.40 L 373.70 666.20 L 374.90 666.30 L 377.30 665.70 L 378.50 665.80 L 379.70 666.40 L 381.50 668.40 L 382.70 669.20 L 386.20 670.00 Z" fill="#8abbda" fill-rule="nonzero" node-id="248" stroke="none" target-height="44.399963" target-width="151.9" target-x="295.1" target-y="656.2"></path><path d="M 642.80 659.20 L 640.50 665.90 L 637.80 672.40 L 634.60 678.80 L 631.10 684.90 L 627.20 690.80 L 622.90 696.40 L 616.30 704.00 L 606.00 714.70 L 603.50 716.60 L 598.20 719.70 L 597.20 720.10 L 592.80 720.60 L 591.30 721.30 L 589.30 723.20 L 589.30 723.80 L 589.70 724.10 L 590.80 724.30 L 600.30 724.30 L 599.60 724.70 L 580.80 725.00 L 580.10 724.30 L 580.00 723.70 L 580.60 722.10 L 580.50 721.30 L 580.00 720.60 L 578.80 719.70 L 573.10 717.00 L 570.10 716.00 L 566.10 715.30 L 565.10 715.70 L 560.10 719.50 L 559.70 720.10 L 559.70 721.00 L 562.70 723.70 L 562.10 724.10 L 557.30 724.70 L 541.50 724.10 L 520.50 702.40 L 519.50 701.20 L 519.50 699.80 L 527.00 681.80 L 531.80 672.00 L 532.90 673.40 L 533.50 675.00 L 533.70 677.60 L 534.20 678.00 L 538.80 679.50 L 548.80 681.10 L 561.50 682.40 L 577.60 680.60 L 609.60 676.00 L 613.80 675.10 L 624.60 671.90 L 630.80 669.40 L 633.70 667.60 L 637.60 664.40 L 640.10 663.30 L 641.40 662.20 L 642.30 660.80 L 642.80 659.20 Z" fill="#a7343f" fill-rule="nonzero" node-id="250" stroke="none" target-height="65.79999" target-width="123.29999" target-x="519.5" target-y="659.2"></path><path d="M 188.30 720.90 L 188.50 717.10 L 189.10 713.50 L 190.10 710.00 L 191.80 706.10 L 194.10 702.40 L 196.90 699.10 L 200.20 696.10 L 203.70 693.40 L 207.40 691.30 L 214.30 689.00 L 218.00 688.40 L 228.40 688.30 L 235.00 688.60 L 248.40 690.40 L 261.30 693.50 L 266.30 695.60 L 271.10 698.10 L 282.30 705.90 L 288.70 711.10 L 294.90 716.60 L 300.90 722.40 L 306.00 725.50 L 306.50 726.20 L 306.40 726.60 L 305.70 727.00 L 303.50 727.20 L 285.80 728.00 L 268.10 728.30 L 214.80 728.00 L 197.70 728.40 L 185.80 727.40 L 135.30 726.20 L 134.90 725.80 L 135.30 725.40 L 148.00 724.90 L 172.90 724.40 L 185.00 724.60 L 187.40 723.20 L 188.10 722.20 L 188.30 720.90 Z" fill="#a79ba2" fill-rule="nonzero" node-id="252" stroke="none" target-height="40.100037" target-width="171.6" target-x="134.9" target-y="688.3"></path><path d="M 448.10 688.70 L 450.50 690.30 L 457.50 692.10 L 471.30 694.50 L 481.70 695.60 L 492.30 696.00 L 502.90 695.90 L 514.10 695.30 L 515.30 695.50 L 516.00 695.90 L 516.30 697.90 L 516.00 698.60 L 515.30 698.90 L 512.10 698.90 L 511.10 698.20 L 510.10 698.00 L 508.80 698.30 L 507.20 699.10 L 505.10 700.70 L 501.70 700.90 L 500.10 701.40 L 499.50 701.90 L 492.40 705.00 L 485.80 707.50 L 482.50 708.40 L 479.20 708.80 L 469.20 707.40 L 462.60 705.90 L 449.80 701.90 L 448.90 701.90 L 448.40 702.50 L 448.10 705.70 L 447.40 708.20 L 446.00 710.60 L 444.20 712.60 L 442.60 712.00 L 442.40 711.60 L 442.60 711.00 L 445.60 706.60 L 447.20 701.60 L 447.80 689.10 L 448.50 688.90 L 448.10 688.70 Z" fill="#a7343f" fill-rule="nonzero" node-id="254" stroke="none" target-height="23.899963" target-width="73.899994" target-x="442.4" target-y="688.7"></path><path d="M 370.90 713.30 L 367.40 719.20 L 363.50 724.80 L 362.40 725.80 L 359.50 727.10 L 354.50 727.60 L 335.20 725.60 L 333.30 725.70 L 332.40 725.20 L 330.90 723.40 L 329.60 723.00 L 324.50 719.90 L 323.90 719.80 L 322.80 720.40 L 320.60 723.40 L 318.60 725.00 L 316.00 725.50 L 314.70 725.20 L 312.80 724.20 L 308.40 720.70 L 301.70 716.10 L 299.90 714.50 L 297.40 711.60 L 295.20 708.40 L 293.40 705.00 L 292.00 701.40 L 291.00 697.70 L 290.40 693.80 L 290.60 691.80 L 291.00 691.00 L 294.20 696.30 L 297.40 700.60 L 301.00 704.60 L 305.80 708.50 L 310.20 709.40 L 318.00 712.30 L 322.50 713.70 L 328.10 714.90 L 331.00 716.40 L 333.30 717.00 L 338.00 717.00 L 342.90 716.10 L 344.40 716.10 L 345.60 716.70 L 346.60 717.60 L 347.10 718.90 L 347.30 721.50 L 348.30 722.30 L 350.50 722.20 L 351.20 722.50 L 350.70 722.90 L 350.30 722.80 L 350.70 722.70 L 357.10 722.70 L 358.00 722.50 L 358.90 721.90 L 361.60 719.10 L 363.90 716.00 L 365.80 712.80 L 367.30 709.40 L 368.30 708.40 L 369.50 708.40 L 370.30 709.00 L 371.10 711.30 L 370.90 713.30 Z" fill="#4c6daa" fill-rule="nonzero" node-id="256" stroke="none" target-height="36.599976" target-width="80.70001" target-x="290.4" target-y="691"></path><path d="M 777.80 724.90 L 778.20 725.50 L 774.20 726.40 L 770.20 726.80 L 766.10 726.70 L 767.60 725.90 L 767.90 724.70 L 767.50 724.00 L 766.70 723.70 L 758.20 723.60 L 755.50 723.20 L 752.80 722.40 L 750.20 720.90 L 748.00 719.00 L 745.50 716.10 L 743.10 712.70 L 739.50 706.70 L 737.90 705.30 L 735.70 703.80 L 732.50 702.40 L 736.00 700.20 L 739.50 698.60 L 742.90 697.50 L 746.40 696.90 L 750.00 696.80 L 753.60 697.20 L 757.50 698.10 L 761.50 699.60 L 763.40 700.90 L 765.90 703.30 L 769.10 707.40 L 771.90 712.30 L 774.20 717.40 L 776.40 723.40 L 777.80 724.90 Z" fill="#baa4ab" fill-rule="nonzero" node-id="258" stroke="none" target-height="30" target-width="45.700012" target-x="732.5" target-y="696.8"></path><path d="M 511.90 699.00 L 514.00 699.70 L 515.70 700.90 L 515.80 701.50 L 515.50 702.10 L 514.50 702.80 L 512.40 701.80 L 509.40 701.30 L 508.10 701.70 L 506.90 702.50 L 505.90 703.80 L 504.20 703.10 L 503.90 702.60 L 504.00 701.80 L 504.90 700.60 L 506.90 699.10 L 508.60 698.30 L 509.90 698.10 L 510.90 698.40 L 511.90 699.00 Z" fill="#d5bcce" fill-rule="nonzero" node-id="260" stroke="none" target-height="5.700012" target-width="11.899994" target-x="503.9" target-y="698.1"></path><path d="M 505.00 700.60 L 504.00 701.80 L 503.90 702.60 L 504.40 703.20 L 506.00 703.80 L 497.00 712.30 L 487.90 720.30 L 485.30 721.30 L 472.80 721.90 L 461.80 722.00 L 450.90 721.70 L 459.70 714.10 L 460.10 713.40 L 460.10 712.50 L 459.30 711.00 L 456.90 708.90 L 471.80 711.50 L 479.40 711.90 L 483.30 711.60 L 486.80 710.50 L 490.30 708.80 L 493.50 706.80 L 499.80 701.20 L 505.00 700.60 Z" fill="#6396d0" fill-rule="nonzero" node-id="262" stroke="none" target-height="21.400024" target-width="55.100006" target-x="450.9" target-y="700.6"></path><path d="M 514.50 702.80 L 516.20 702.70 L 519.50 703.60 L 518.40 706.90 L 514.80 711.40 L 508.80 716.10 L 503.30 719.30 L 493.00 722.50 L 488.70 723.50 L 484.20 724.10 L 466.30 724.90 L 460.30 724.90 L 432.90 723.30 L 437.40 723.60 L 442.00 723.50 L 446.50 722.90 L 451.00 721.90 L 461.90 722.20 L 472.90 722.10 L 485.90 721.20 L 488.00 720.50 L 501.70 708.30 L 508.10 701.80 L 509.40 701.40 L 510.80 701.40 L 514.50 702.80 Z" fill="#4c6daa" fill-rule="nonzero" node-id="264" stroke="none" target-height="23.5" target-width="86.600006" target-x="432.9" target-y="701.4"></path><path d="M 499.40 701.80 L 496.70 704.50 L 493.60 707.00 L 490.30 709.10 L 485.10 711.40 L 481.30 712.10 L 475.60 712.20 L 471.90 711.80 L 455.80 708.80 L 454.40 708.80 L 452.90 709.30 L 451.00 710.40 L 448.70 712.40 L 445.90 715.40 L 444.40 714.50 L 444.10 713.00 L 445.90 710.90 L 447.20 708.50 L 448.00 705.90 L 448.30 703.30 L 448.90 702.20 L 449.70 702.10 L 462.50 706.10 L 469.10 707.60 L 475.80 708.70 L 479.20 708.80 L 482.50 708.50 L 485.70 707.70 L 499.40 701.80 Z" fill="#a5c9e0" fill-rule="nonzero" node-id="266" stroke="none" target-height="13.600037" target-width="55.299988" target-x="444.1" target-y="701.8"></path><path d="M 732.50 702.60 L 737.60 705.30 L 739.40 706.80 L 745.50 716.30 L 748.10 719.20 L 750.20 721.10 L 752.80 722.50 L 755.50 723.20 L 758.20 723.60 L 766.70 723.90 L 767.40 724.20 L 767.90 724.90 L 767.70 726.10 L 766.10 726.90 L 722.70 726.30 L 717.40 725.80 L 717.10 725.30 L 717.30 724.90 L 720.40 718.80 L 723.80 712.90 L 726.40 709.10 L 729.30 705.70 L 732.50 702.60 Z" fill="#958a9c" fill-rule="nonzero" node-id="268" stroke="none" target-height="24.300049" target-width="50.80005" target-x="717.1" target-y="702.6"></path><path d="M 456.80 709.10 L 459.20 711.20 L 460.00 712.70 L 460.00 713.60 L 459.60 714.30 L 450.80 721.90 L 446.40 722.90 L 441.90 723.50 L 437.30 723.60 L 430.20 723.20 L 427.90 722.30 L 428.40 722.10 L 428.30 721.70 L 423.90 721.10 L 423.70 719.90 L 428.80 719.30 L 433.60 718.30 L 439.20 716.70 L 441.60 716.70 L 444.30 716.10 L 445.60 715.50 L 448.10 712.70 L 451.90 709.60 L 453.80 708.90 L 455.40 708.70 L 456.80 709.10 Z" fill="#185b84" fill-rule="nonzero" node-id="270" stroke="none" target-height="14.899963" target-width="36.299988" target-x="423.7" target-y="708.7"></path><path d="M 351.60 719.30 L 350.30 720.00 L 349.50 720.00 L 348.90 719.50 L 347.60 713.90 L 348.00 712.70 L 348.70 711.80 L 350.20 710.90 L 353.50 710.50 L 356.60 711.50 L 357.60 712.70 L 357.40 714.30 L 351.60 719.30 Z" fill="#a5c9e0" fill-rule="nonzero" node-id="272" stroke="none" target-height="9.5" target-width="10" target-x="347.6" target-y="710.5"></path><path d="M 599.00 724.90 L 598.50 725.20 L 598.20 724.90 L 557.80 724.70 L 563.10 724.00 L 563.20 723.60 L 561.40 722.30 L 560.10 720.40 L 560.60 719.50 L 565.60 715.70 L 566.60 715.30 L 571.70 716.40 L 579.30 719.70 L 580.50 720.60 L 581.00 721.30 L 580.50 723.90 L 581.50 725.10 L 599.00 724.90 Z" fill="#ff8044" fill-rule="nonzero" node-id="274" stroke="none" target-height="9.900024" target-width="41.200012" target-x="557.8" target-y="715.3"></path><path d="M 329.70 723.10 L 331.00 723.50 L 332.50 725.30 L 333.40 725.70 L 335.30 725.70 L 331.30 726.20 L 327.30 726.20 L 322.90 725.50 L 323.00 724.70 L 323.70 724.30 L 326.50 724.80 L 327.80 724.70 L 328.90 724.20 L 329.70 723.10 Z" fill="#baa4ab" fill-rule="nonzero" node-id="276" stroke="none" target-height="3.1000366" target-width="12.399994" target-x="322.9" target-y="723.1"></path><path d="M 603.40 722.70 L 603.60 723.80 L 604.00 723.90 L 613.30 723.50 L 631.30 724.00 L 662.40 723.70 L 684.40 724.00 L 706.40 724.70 L 715.30 725.80 L 717.40 724.90 L 717.30 725.90 L 722.60 726.30 L 670.00 727.30 L 617.40 727.10 L 611.10 727.30 L 605.10 727.90 L 601.40 727.20 L 598.30 725.10 L 598.60 725.30 L 600.00 724.90 L 603.40 722.70 Z" fill="#f0d1cd" fill-rule="nonzero" node-id="278" stroke="none" target-height="5.200012" target-width="124.29999" target-x="598.3" target-y="722.7"></path><path d="M 778.20 725.50 L 777.80 724.90 L 779.80 724.10 L 789.00 723.50 L 832.90 723.50 L 855.70 724.50 L 849.00 724.30 L 848.80 725.50 L 848.40 725.70 L 778.20 725.50 Z" fill="#f0d1cd" fill-rule="nonzero" node-id="280" stroke="none" target-height="2.2000122" target-width="77.900024" target-x="777.8" target-y="723.5"></path></svg>