<?xml version="1.0" standalone="no"?><!DOCTYPE svg PUBLIC "-//W3C//DTD SVG 1.1//EN" "http://www.w3.org/Graphics/SVG/1.1/DTD/svg11.dtd"><svg height="1024" node-id="1" sillyvg="true" template-height="1024" template-width="1024" version="1.1" viewBox="0 0 1024 1024" width="1024" xmlns="http://www.w3.org/2000/svg" xmlns:xlink="http://www.w3.org/1999/xlink"><defs node-id="92"></defs><path d="M 526.10 248.10 L 524.10 248.50 L 523.80 249.10 L 524.70 250.60 L 526.70 251.90 L 527.60 253.00 L 528.10 254.20 L 528.20 255.70 L 526.80 260.40 L 525.50 262.90 L 521.90 267.50 L 520.60 268.30 L 519.10 268.70 L 517.50 268.60 L 516.00 268.00 L 506.20 261.90 L 509.30 257.50 L 513.70 253.70 L 522.80 248.10 L 524.90 247.40 L 526.10 248.10 Z" fill="#f1efbe" fill-rule="nonzero" node-id="96" stroke="none" target-height="21.300018" target-width="22" target-x="506.2" target-y="247.4"></path><path d="M 526.10 248.10 L 529.80 250.10 L 533.10 252.40 L 536.10 255.00 L 538.90 258.00 L 541.20 261.30 L 543.20 264.80 L 546.30 273.10 L 547.60 273.90 L 548.30 273.90 L 549.50 273.20 L 553.20 268.30 L 558.50 262.60 L 560.00 261.90 L 561.70 261.80 L 563.50 262.20 L 565.00 263.50 L 566.30 265.30 L 568.00 269.80 L 569.50 275.10 L 571.10 276.20 L 572.10 276.40 L 575.40 276.10 L 578.60 275.40 L 592.20 270.10 L 600.20 267.90 L 604.40 267.20 L 608.40 266.90 L 612.00 267.10 L 617.10 268.40 L 621.40 271.00 L 623.20 272.80 L 624.90 274.90 L 626.30 277.60 L 627.60 280.80 L 628.50 282.20 L 630.90 282.60 L 632.50 281.90 L 633.40 282.50 L 635.10 283.00 L 635.60 283.50 L 635.60 284.00 L 635.40 284.80 L 634.90 285.40 L 625.80 293.60 L 621.90 295.20 L 619.30 296.80 L 616.90 298.90 L 607.30 310.60 L 598.80 319.00 L 598.40 319.40 L 598.30 320.50 L 598.80 321.30 L 599.90 322.10 L 601.60 321.80 L 608.60 314.40 L 616.00 307.70 L 623.60 301.20 L 634.30 293.10 L 640.20 289.90 L 646.50 287.30 L 653.20 285.90 L 677.00 285.50 L 682.40 287.50 L 687.10 290.70 L 688.00 291.80 L 689.10 294.20 L 689.20 296.20 L 688.70 298.20 L 686.80 302.10 L 682.20 309.20 L 665.70 329.10 L 665.10 330.40 L 666.40 330.30 L 670.60 327.30 L 672.00 327.00 L 680.30 326.90 L 687.90 327.40 L 695.00 328.40 L 700.20 329.50 L 709.70 332.60 L 713.90 334.50 L 715.30 335.50 L 716.20 336.60 L 716.70 337.90 L 716.70 339.50 L 716.20 341.50 L 716.00 339.90 L 715.30 339.20 L 709.60 342.20 L 704.40 344.50 L 698.90 346.20 L 686.70 348.70 L 674.40 350.70 L 658.70 352.40 L 652.30 354.10 L 649.20 355.50 L 643.60 359.10 L 624.70 375.40 L 620.00 378.70 L 610.40 384.60 L 607.70 385.50 L 604.50 385.30 L 587.50 381.50 L 584.60 379.40 L 573.50 373.70 L 565.60 369.10 L 559.80 366.10 L 553.90 363.60 L 547.70 361.80 L 541.40 360.50 L 535.00 359.80 L 527.50 359.90 L 527.00 361.10 L 527.10 361.60 L 528.20 362.70 L 530.40 363.40 L 532.60 363.70 L 536.10 363.60 L 545.50 365.50 L 562.80 371.40 L 565.10 372.60 L 572.20 377.10 L 586.30 387.70 L 586.30 388.40 L 585.30 389.40 L 584.60 389.90 L 583.70 390.10 L 568.80 389.30 L 565.80 388.30 L 563.30 386.30 L 562.50 384.80 L 562.10 383.20 L 562.20 380.20 L 561.70 379.10 L 560.50 378.00 L 558.10 377.20 L 554.40 371.10 L 553.00 369.70 L 551.70 369.20 L 550.30 370.10 L 550.10 370.70 L 550.30 371.70 L 554.80 379.40 L 557.20 385.40 L 560.60 389.90 L 564.20 392.70 L 565.00 393.90 L 564.50 395.30 L 563.50 396.00 L 561.60 396.50 L 558.80 395.30 L 556.20 393.70 L 548.80 387.30 L 541.20 381.20 L 533.30 375.40 L 516.80 364.80 L 508.20 360.00 L 486.70 346.90 L 483.70 344.00 L 480.90 340.90 L 475.90 334.30 L 471.90 328.00 L 468.50 321.50 L 465.60 314.80 L 463.30 307.90 L 461.60 300.80 L 460.30 291.20 L 460.50 288.40 L 461.30 288.00 L 462.20 288.20 L 462.90 289.40 L 463.40 292.40 L 464.30 295.20 L 465.60 297.90 L 467.30 300.20 L 469.30 302.40 L 471.80 304.20 L 479.20 309.00 L 486.30 314.30 L 487.10 314.40 L 487.50 313.80 L 491.50 292.70 L 493.10 286.10 L 495.00 280.20 L 497.30 274.80 L 499.40 271.00 L 501.70 267.40 L 507.00 261.30 L 516.80 267.40 L 518.30 268.00 L 519.80 268.10 L 521.30 267.70 L 522.70 266.90 L 524.70 264.80 L 526.30 262.40 L 527.70 259.80 L 529.00 255.40 L 529.10 254.10 L 528.20 252.00 L 525.70 250.40 L 525.00 249.10 L 524.90 248.00 L 525.50 247.70 L 526.10 248.10 Z M 572.00 304.50 L 569.30 312.50 L 569.40 313.40 L 569.90 314.10 L 571.30 314.70 L 571.80 314.40 L 572.50 312.90 L 574.10 310.60 L 577.60 294.80 L 579.90 286.00 L 579.70 285.60 L 579.20 285.70 L 577.90 286.80 L 576.10 289.20 L 574.80 291.70 L 573.80 294.40 L 572.00 304.50 Z M 583.40 324.90 L 589.60 326.60 L 597.30 330.10 L 598.30 330.20 L 599.10 329.50 L 599.10 328.50 L 597.90 325.20 L 595.50 322.60 L 593.20 321.10 L 587.70 319.20 L 584.90 318.70 L 579.90 318.70 L 574.70 319.70 L 569.60 321.20 L 564.70 323.00 L 560.00 325.30 L 555.50 327.90 L 550.40 331.40 L 548.80 331.90 L 548.50 333.40 L 548.70 334.30 L 549.10 334.60 L 570.30 326.60 L 576.80 325.20 L 583.40 324.90 Z M 494.90 336.60 L 494.50 343.20 L 495.10 344.00 L 495.60 344.10 L 496.80 343.60 L 508.50 328.60 L 509.90 326.50 L 510.30 325.30 L 510.20 324.70 L 509.70 324.40 L 508.40 324.40 L 505.90 325.10 L 503.70 325.90 L 499.50 328.50 L 497.70 330.00 L 496.60 331.50 L 495.80 333.20 L 494.90 336.60 Z" fill="#c2cb84" fill-rule="nonzero" node-id="98" stroke="none" target-height="148.8" target-width="256.40002" target-x="460.3" target-y="247.7"></path><path d="M 490.70 293.10 L 486.70 313.90 L 486.10 314.60 L 468.50 302.50 L 466.50 300.30 L 464.80 298.00 L 463.50 295.30 L 462.60 292.50 L 461.90 288.90 L 461.40 288.30 L 460.10 288.10 L 459.80 288.60 L 459.80 293.70 L 459.00 289.20 L 458.90 284.70 L 459.30 280.10 L 460.30 275.70 L 460.70 274.90 L 461.30 274.50 L 462.90 274.30 L 468.20 276.60 L 473.20 279.20 L 477.90 282.20 L 482.50 285.50 L 486.70 289.10 L 490.70 293.10 Z" fill="#e0e9a6" fill-rule="nonzero" node-id="100" stroke="none" target-height="40.30002" target-width="31.800018" target-x="458.9" target-y="274.3"></path><path d="M 676.90 285.30 L 666.70 285.70 L 656.50 285.50 L 651.90 286.00 L 647.40 286.90 L 640.10 289.60 L 634.20 292.90 L 623.50 301.10 L 615.90 307.60 L 608.50 314.30 L 601.10 321.80 L 600.00 321.90 L 598.10 320.70 L 597.90 320.10 L 598.30 319.00 L 607.10 310.40 L 616.60 298.90 L 619.00 296.80 L 621.60 295.20 L 625.50 293.50 L 635.10 284.60 L 635.20 283.10 L 634.60 282.60 L 633.10 282.40 L 632.20 281.70 L 637.50 280.40 L 643.00 279.70 L 648.50 279.60 L 654.00 280.10 L 664.50 283.10 L 671.70 284.00 L 676.90 285.30 Z" fill="#e0e9a6" fill-rule="nonzero" node-id="102" stroke="none" target-height="42.299988" target-width="79" target-x="597.9" target-y="279.6"></path><path d="M 573.40 297.80 L 574.00 294.90 L 575.00 292.10 L 576.30 289.60 L 578.10 287.30 L 579.40 286.20 L 579.90 286.20 L 580.00 286.60 L 577.80 295.30 L 574.80 309.70 L 574.30 311.10 L 571.60 315.10 L 570.10 314.40 L 569.60 312.80 L 572.20 304.80 L 573.40 297.80 Z" fill="#a9b77c" fill-rule="nonzero" node-id="104" stroke="none" target-height="28.899994" target-width="10.400024" target-x="569.6" target-y="286.2"></path><g node-id="288"><path d="M 370.50 318.90 L 371.80 320.00 L 373.70 322.70 L 374.40 325.70 L 373.90 328.50 L 372.20 330.70 L 369.70 331.90 L 366.60 332.00 L 363.50 330.90 L 360.80 328.80 L 358.90 326.10 L 358.20 323.10 L 358.70 320.30 L 360.30 318.10 L 362.90 316.90 L 364.40 316.70 L 367.60 317.30 L 370.50 318.90 Z" fill="#ffa490" fill-rule="nonzero" group-id="1" node-id="108" stroke="none" target-height="15.299988" target-width="16.199982" target-x="358.2" target-y="316.7"></path></g><path d="M 442.90 319.80 L 442.20 320.20 L 441.70 321.10 L 441.30 323.80 L 440.80 324.90 L 419.70 349.30 L 416.90 351.70 L 414.30 353.40 L 412.00 354.40 L 409.70 355.00 L 407.60 355.10 L 407.90 349.90 L 409.70 339.60 L 412.90 329.70 L 415.10 324.90 L 439.50 318.80 L 441.30 318.80 L 442.90 319.80 Z" fill="#ffd9bf" fill-rule="nonzero" node-id="111" stroke="none" target-height="36.30002" target-width="35.299988" target-x="407.6" target-y="318.8"></path><path d="M 570.30 327.30 L 549.30 335.20 L 548.60 334.70 L 548.70 332.60 L 551.10 331.60 L 555.40 328.60 L 560.00 326.00 L 564.70 323.80 L 569.60 321.90 L 574.70 320.50 L 579.90 319.40 L 584.90 319.40 L 587.70 319.80 L 593.20 321.70 L 595.50 323.20 L 597.80 325.80 L 598.60 327.40 L 599.10 329.50 L 598.90 330.40 L 598.50 330.80 L 597.50 330.80 L 589.70 327.30 L 583.40 325.60 L 580.10 325.20 L 576.80 325.40 L 573.50 326.10 L 570.30 327.30 Z" fill="#f1efbe" fill-rule="nonzero" node-id="113" stroke="none" target-height="15.800018" target-width="50.5" target-x="548.6" target-y="319.4"></path><path d="M 442.90 319.80 L 444.90 320.60 L 446.60 321.70 L 445.70 322.20 L 445.50 323.10 L 446.00 326.20 L 445.50 333.10 L 446.00 334.10 L 446.90 335.30 L 448.80 336.30 L 450.50 336.30 L 453.80 335.30 L 454.70 335.70 L 455.40 337.10 L 455.20 338.30 L 454.70 339.40 L 440.60 361.70 L 439.10 364.80 L 437.90 368.10 L 437.20 371.40 L 436.90 374.80 L 437.10 378.80 L 437.80 378.40 L 445.50 369.40 L 453.60 360.70 L 462.00 352.30 L 470.80 344.20 L 472.30 344.00 L 473.80 344.20 L 475.40 344.80 L 477.70 346.30 L 480.10 348.50 L 484.40 353.70 L 487.90 359.00 L 490.00 362.90 L 491.40 367.80 L 490.70 369.90 L 486.90 374.10 L 483.50 378.50 L 480.50 383.20 L 477.80 388.20 L 478.00 389.60 L 479.00 390.00 L 482.80 389.50 L 486.40 388.50 L 489.80 386.90 L 493.00 385.00 L 495.80 382.60 L 498.50 379.30 L 498.40 377.80 L 494.70 369.80 L 492.80 361.80 L 491.60 358.50 L 489.60 354.60 L 490.00 354.20 L 490.90 354.50 L 507.80 362.70 L 517.80 368.40 L 527.50 374.40 L 537.00 380.80 L 546.20 387.60 L 557.90 397.40 L 563.00 403.10 L 567.00 409.60 L 568.70 413.10 L 567.90 413.80 L 567.50 415.40 L 566.40 415.10 L 565.90 415.40 L 564.90 416.90 L 562.40 419.20 L 559.10 420.40 L 556.50 420.80 L 555.40 421.90 L 554.40 422.20 L 541.10 423.10 L 531.70 425.50 L 526.90 425.30 L 522.60 426.70 L 519.30 427.30 L 512.40 427.60 L 509.00 427.40 L 519.80 429.60 L 521.40 432.00 L 527.60 433.20 L 527.70 433.70 L 527.00 435.30 L 520.60 434.60 L 516.60 432.90 L 510.70 432.50 L 501.90 430.90 L 493.10 430.00 L 484.20 429.70 L 479.00 430.10 L 473.70 431.10 L 468.60 432.50 L 463.60 434.40 L 462.20 434.20 L 461.70 432.70 L 459.50 433.10 L 454.60 431.80 L 444.90 431.60 L 438.90 433.20 L 436.70 433.50 L 433.30 433.30 L 429.20 434.30 L 425.10 433.30 L 417.80 434.40 L 415.30 433.70 L 412.90 433.90 L 409.20 431.80 L 402.90 430.60 L 396.40 428.90 L 397.00 428.50 L 400.10 427.70 L 399.30 426.00 L 392.00 423.40 L 387.30 420.10 L 386.30 419.90 L 382.20 420.30 L 378.00 420.20 L 376.50 418.30 L 375.30 417.40 L 374.40 417.40 L 373.40 418.30 L 372.60 418.10 L 369.80 415.80 L 366.80 413.90 L 363.50 412.40 L 344.20 406.10 L 335.80 405.10 L 332.50 403.70 L 329.50 403.30 L 327.00 401.90 L 325.50 401.60 L 323.70 401.90 L 321.50 403.00 L 321.30 402.10 L 322.50 399.40 L 323.10 396.70 L 323.00 390.60 L 322.40 387.40 L 321.40 384.30 L 319.90 381.30 L 324.90 378.00 L 329.60 374.40 L 334.00 370.50 L 338.20 366.30 L 342.30 365.60 L 346.30 364.30 L 350.10 362.60 L 353.70 360.40 L 354.50 359.30 L 354.50 358.70 L 353.70 357.60 L 350.40 356.90 L 364.20 356.50 L 370.50 355.10 L 375.20 352.70 L 386.40 345.20 L 390.60 350.40 L 394.30 355.90 L 397.50 361.80 L 400.80 368.90 L 404.90 370.90 L 405.50 371.80 L 406.20 374.00 L 407.70 375.10 L 408.60 375.10 L 408.90 374.20 L 406.60 355.90 L 408.90 355.80 L 411.30 355.10 L 413.90 353.90 L 419.00 349.90 L 439.80 325.70 L 441.60 321.00 L 442.90 319.80 Z M 363.50 362.90 L 363.60 367.10 L 364.90 371.50 L 366.00 373.40 L 367.50 374.80 L 368.20 375.00 L 368.90 374.30 L 369.90 370.70 L 370.50 366.80 L 370.40 364.90 L 369.90 363.20 L 368.50 361.40 L 367.30 360.70 L 365.60 360.50 L 364.60 360.70 L 363.90 361.50 L 363.50 362.90 Z M 384.80 378.30 L 384.50 376.70 L 383.20 375.70 L 377.50 376.20 L 374.90 377.10 L 374.30 377.80 L 374.20 378.70 L 374.50 379.90 L 376.40 383.60 L 377.20 384.60 L 378.30 385.30 L 379.50 385.50 L 380.80 385.20 L 382.40 383.80 L 383.60 382.10 L 384.40 380.30 L 384.80 378.30 Z M 382.30 397.30 L 386.50 399.60 L 388.80 399.80 L 389.80 399.50 L 390.10 399.00 L 389.80 398.00 L 388.40 396.30 L 383.20 391.60 L 381.60 391.10 L 380.90 392.50 L 380.70 394.80 L 381.00 395.80 L 382.30 397.30 Z" fill="#f88b79" fill-rule="nonzero" node-id="115" stroke="none" target-height="115.5" target-width="248.80002" target-x="319.9" target-y="319.8"></path><path d="M 446.40 321.60 L 469.40 339.20 L 470.60 344.60 L 461.80 352.70 L 453.40 361.10 L 445.30 369.80 L 437.20 379.20 L 436.70 378.60 L 437.00 371.70 L 437.70 368.40 L 438.90 365.20 L 440.40 362.10 L 446.30 353.00 L 455.00 338.70 L 455.10 336.80 L 454.10 335.80 L 453.00 335.70 L 450.80 336.70 L 449.30 336.80 L 448.00 336.60 L 446.90 335.80 L 445.80 334.50 L 445.30 332.40 L 445.60 329.30 L 445.30 323.50 L 445.50 322.60 L 446.40 321.60 Z" fill="#fb381a" fill-rule="nonzero" node-id="117" stroke="none" target-height="57.600006" target-width="33.899994" target-x="436.7" target-y="321.6"></path><path d="M 494.90 336.60 L 495.40 334.20 L 496.40 332.00 L 497.90 330.00 L 499.70 328.40 L 501.70 327.00 L 506.10 325.10 L 508.50 324.40 L 509.80 324.40 L 510.30 324.80 L 510.40 325.30 L 510.10 326.50 L 508.70 328.60 L 497.00 343.60 L 495.50 344.00 L 494.80 343.30 L 494.90 336.60 Z" fill="#e0e9a6" fill-rule="nonzero" node-id="119" stroke="none" target-height="19.600006" target-width="15.600006" target-x="494.8" target-y="324.4"></path><path d="M 414.80 324.70 L 412.60 329.50 L 409.40 339.40 L 407.60 349.70 L 407.30 354.90 L 409.60 373.20 L 409.40 374.10 L 408.40 374.10 L 406.90 373.00 L 406.20 370.80 L 405.60 369.90 L 401.50 367.90 L 398.10 360.90 L 394.90 355.00 L 391.10 349.50 L 387.10 344.20 L 414.80 324.70 Z" fill="#e54a3e" fill-rule="nonzero" node-id="121" stroke="none" target-height="49.399994" target-width="27.699982" target-x="387.1" target-y="324.7"></path><path d="M 218.80 340.60 L 221.00 339.00 L 225.50 337.10 L 227.90 336.80 L 231.30 336.80 L 234.60 337.30 L 238.00 338.30 L 241.20 339.70 L 247.00 343.50 L 249.50 345.90 L 251.60 348.40 L 253.20 350.90 L 255.00 354.80 L 256.20 358.80 L 256.80 362.90 L 256.50 369.10 L 255.70 372.20 L 254.00 376.30 L 252.10 377.70 L 250.90 377.90 L 243.10 377.70 L 239.20 377.10 L 235.30 376.20 L 231.60 374.90 L 228.10 373.20 L 224.90 371.10 L 222.00 368.60 L 219.50 365.70 L 218.00 363.30 L 216.70 360.20 L 215.60 356.90 L 215.00 353.30 L 214.90 349.70 L 215.50 346.30 L 216.20 344.20 L 217.30 342.30 L 218.80 340.60 Z M 218.60 360.50 L 219.80 363.00 L 221.40 365.30 L 223.20 367.30 L 225.40 369.00 L 227.80 370.40 L 236.20 373.00 L 242.00 374.40 L 249.70 375.40 L 251.10 374.90 L 252.10 373.80 L 252.80 372.30 L 254.00 364.00 L 254.20 360.60 L 253.70 357.20 L 251.70 352.50 L 249.80 349.60 L 247.30 346.90 L 244.20 344.30 L 240.70 342.20 L 236.90 340.60 L 234.20 339.90 L 229.00 339.50 L 226.50 339.90 L 224.00 340.70 L 221.70 341.90 L 220.10 343.30 L 218.80 345.00 L 217.90 347.00 L 217.10 351.40 L 217.60 357.30 L 218.60 360.50 Z" fill="#ffc156" fill-rule="nonzero" node-id="123" stroke="none" target-height="41.100006" target-width="41.899994" target-x="214.9" target-y="336.8"></path><path d="M 218.60 360.50 L 217.70 357.30 L 217.20 353.80 L 217.20 351.40 L 218.00 346.90 L 218.80 344.90 L 220.00 343.20 L 221.60 341.80 L 223.90 340.60 L 226.40 339.80 L 228.90 339.40 L 234.10 339.80 L 236.80 340.60 L 240.60 342.10 L 244.10 344.20 L 247.20 346.80 L 249.70 349.50 L 252.90 354.90 L 253.60 357.10 L 254.10 360.50 L 253.90 363.90 L 252.40 373.00 L 251.50 374.20 L 249.70 375.20 L 248.00 375.20 L 239.20 373.70 L 227.80 370.30 L 225.50 369.10 L 223.30 367.40 L 221.40 365.40 L 219.90 363.10 L 218.60 360.50 Z" fill="#fee09c" fill-rule="nonzero" node-id="125" stroke="none" target-height="35.80002" target-width="36.90001" target-x="217.2" target-y="339.4"></path><path d="M 469.60 339.20 L 486.20 347.20 L 507.70 360.30 L 507.60 361.70 L 507.90 362.90 L 491.00 354.70 L 490.10 354.50 L 489.80 354.70 L 492.90 362.00 L 494.10 367.90 L 494.80 370.00 L 497.60 375.80 L 498.60 379.00 L 498.30 379.90 L 495.90 382.90 L 493.10 385.30 L 489.90 387.30 L 486.50 388.80 L 482.90 389.80 L 478.60 390.10 L 478.00 389.50 L 478.10 388.30 L 480.80 383.30 L 483.80 378.60 L 487.20 374.20 L 491.00 370.00 L 491.60 369.10 L 491.70 367.90 L 491.20 365.40 L 490.30 363.00 L 488.20 358.90 L 484.70 353.60 L 480.40 348.40 L 478.00 346.30 L 475.70 344.90 L 474.10 344.20 L 472.60 344.10 L 471.10 344.30 L 469.60 339.20 Z" fill="#e54a3e" fill-rule="nonzero" node-id="127" stroke="none" target-height="50.899994" target-width="38.299988" target-x="469.6" target-y="339.2"></path><path d="M 716.00 341.30 L 708.90 348.10 L 701.40 354.50 L 693.40 360.30 L 680.90 368.10 L 674.30 371.50 L 667.50 374.60 L 663.10 375.60 L 658.80 375.80 L 650.00 374.70 L 643.80 374.30 L 639.40 374.50 L 633.70 375.70 L 628.20 377.80 L 625.60 379.30 L 616.20 385.10 L 607.10 391.20 L 606.60 391.80 L 606.40 392.60 L 606.60 394.10 L 607.10 394.40 L 622.30 394.40 L 630.90 396.20 L 642.10 396.70 L 653.40 396.70 L 664.60 396.40 L 649.90 398.00 L 623.90 400.30 L 612.40 400.80 L 608.70 400.60 L 605.10 400.00 L 601.60 398.90 L 600.20 398.00 L 599.10 396.20 L 597.90 395.30 L 596.50 394.80 L 582.80 395.20 L 561.10 396.60 L 562.90 396.20 L 563.90 395.50 L 564.50 394.00 L 563.70 392.80 L 560.90 390.60 L 558.50 388.10 L 556.60 385.20 L 554.20 379.20 L 551.10 374.30 L 549.70 371.10 L 550.00 369.70 L 550.40 369.10 L 551.30 368.80 L 552.50 369.30 L 553.90 370.70 L 555.60 373.80 L 557.70 376.70 L 560.10 377.60 L 561.20 378.70 L 561.70 379.80 L 561.60 382.70 L 562.00 384.40 L 562.80 385.90 L 565.30 387.90 L 568.30 388.90 L 583.20 389.70 L 584.10 389.50 L 584.80 389.00 L 585.80 388.10 L 585.80 387.40 L 576.30 380.00 L 566.80 373.50 L 562.30 371.00 L 545.00 365.10 L 535.70 363.20 L 532.80 363.30 L 529.30 362.80 L 527.20 362.10 L 526.50 360.70 L 526.60 360.00 L 527.30 359.30 L 534.50 359.40 L 540.90 360.00 L 547.20 361.30 L 553.40 363.20 L 559.30 365.70 L 565.10 368.70 L 573.10 373.30 L 584.10 378.90 L 587.20 381.00 L 604.20 385.20 L 607.20 385.40 L 610.10 384.50 L 614.80 381.80 L 624.50 375.30 L 643.30 359.00 L 648.90 355.40 L 651.90 354.00 L 658.40 352.30 L 671.10 351.10 L 680.30 349.80 L 698.60 346.10 L 704.10 344.40 L 709.30 342.10 L 715.00 339.10 L 715.70 339.80 L 716.00 341.30 Z" fill="#a9b77c" fill-rule="nonzero" node-id="129" stroke="none" target-height="61.69998" target-width="189.5" target-x="526.5" target-y="339.1"></path><g node-id="289"><path d="M 370.70 341.40 L 371.60 342.60 L 371.80 343.70 L 371.60 345.50 L 370.80 347.40 L 369.70 349.10 L 368.30 350.20 L 367.30 350.60 L 365.70 350.50 L 364.80 349.30 L 364.60 348.20 L 364.80 346.40 L 365.60 344.50 L 366.70 342.80 L 368.10 341.70 L 369.10 341.30 L 370.70 341.40 Z" fill="#fe6048" fill-rule="nonzero" group-id="2" node-id="133" stroke="none" target-height="9.300018" target-width="7.1999817" target-x="364.6" target-y="341.3"></path></g><path d="M 350.90 356.10 L 353.50 356.60 L 354.50 357.40 L 354.90 358.70 L 354.20 359.90 L 350.60 362.00 L 346.80 363.70 L 342.90 365.00 L 338.70 365.80 L 336.50 365.00 L 334.90 363.70 L 335.00 362.50 L 336.40 360.40 L 339.50 358.40 L 341.90 357.60 L 346.70 356.50 L 350.90 356.10 Z" fill="#fe6048" fill-rule="nonzero" node-id="136" stroke="none" target-height="9.699982" target-width="20" target-x="334.9" target-y="356.1"></path><path d="M 367.30 375.00 L 365.80 373.60 L 364.70 371.70 L 363.90 369.60 L 363.20 365.10 L 363.70 361.70 L 364.30 361.00 L 365.30 360.80 L 366.80 361.20 L 368.00 361.90 L 369.40 363.70 L 369.90 365.40 L 370.00 367.30 L 369.40 371.20 L 368.30 375.20 L 367.30 375.00 Z" fill="#fb381a" fill-rule="nonzero" node-id="138" stroke="none" target-height="14.400024" target-width="6.799988" target-x="363.2" target-y="360.8"></path><path d="M 507.60 360.30 L 516.20 365.20 L 532.70 375.80 L 540.60 381.50 L 548.20 387.60 L 555.60 394.00 L 558.20 395.60 L 561.00 396.80 L 595.00 394.90 L 596.50 395.10 L 597.90 395.70 L 599.10 396.60 L 600.60 398.60 L 601.50 399.10 L 606.80 400.60 L 612.30 401.00 L 627.30 400.10 L 664.50 396.60 L 668.80 395.60 L 677.00 392.80 L 684.70 388.70 L 688.40 386.30 L 688.70 388.80 L 688.60 391.20 L 688.00 393.50 L 687.00 395.70 L 685.00 398.20 L 682.80 400.20 L 663.70 414.60 L 663.20 415.90 L 663.20 417.30 L 665.70 422.50 L 667.00 426.30 L 667.90 430.30 L 668.40 434.30 L 668.40 438.30 L 667.90 442.30 L 654.10 451.90 L 652.90 453.00 L 652.20 454.20 L 651.60 457.10 L 652.00 458.50 L 652.70 459.90 L 660.90 471.40 L 665.60 476.40 L 671.00 480.80 L 682.20 488.30 L 682.60 488.20 L 682.90 487.60 L 683.80 483.80 L 684.10 481.00 L 683.90 478.90 L 676.80 462.50 L 676.80 461.10 L 677.20 459.80 L 678.10 458.70 L 679.70 457.50 L 694.10 451.80 L 708.40 445.30 L 713.90 444.00 L 716.70 443.80 L 718.00 444.30 L 718.80 445.40 L 720.70 452.50 L 722.10 459.70 L 722.90 466.90 L 723.20 474.20 L 722.60 479.50 L 717.90 491.80 L 717.50 494.30 L 717.50 497.00 L 718.00 499.60 L 718.90 502.00 L 720.20 504.20 L 721.60 505.20 L 723.20 505.40 L 739.80 500.70 L 748.20 499.30 L 756.30 499.20 L 765.10 499.90 L 766.00 500.60 L 766.20 501.20 L 765.30 520.40 L 765.70 523.10 L 766.90 523.80 L 768.00 523.70 L 775.80 519.30 L 777.60 519.60 L 778.20 520.20 L 778.70 521.80 L 777.70 535.20 L 776.80 539.00 L 774.70 543.80 L 771.40 548.10 L 765.50 552.80 L 764.70 555.20 L 761.70 552.00 L 758.50 547.60 L 757.80 545.50 L 757.30 542.00 L 755.80 540.30 L 753.50 539.70 L 752.10 539.80 L 748.80 541.20 L 746.50 541.60 L 744.20 541.50 L 741.10 540.40 L 728.90 519.80 L 727.20 516.00 L 725.70 510.50 L 724.90 509.60 L 723.70 509.00 L 721.60 508.90 L 720.00 510.00 L 719.50 511.70 L 719.60 512.60 L 722.30 518.40 L 726.10 525.20 L 726.40 528.10 L 726.00 530.50 L 725.00 533.50 L 725.20 533.70 L 692.40 501.40 L 687.40 496.80 L 676.90 488.30 L 633.10 456.90 L 632.00 455.80 L 629.30 454.60 L 627.70 454.60 L 620.30 445.50 L 618.60 445.20 L 611.90 447.40 L 611.40 447.10 L 611.60 446.20 L 631.20 435.00 L 645.90 425.40 L 650.40 421.90 L 660.80 412.10 L 666.90 405.70 L 668.40 403.40 L 668.40 402.80 L 667.90 402.30 L 665.00 402.00 L 650.20 403.20 L 648.40 404.20 L 624.50 404.40 L 611.90 404.90 L 587.60 408.50 L 582.70 408.90 L 572.80 409.30 L 571.50 409.80 L 571.40 413.00 L 571.20 413.70 L 570.90 413.90 L 568.80 413.00 L 565.30 406.30 L 563.20 403.10 L 558.10 397.30 L 555.20 394.70 L 547.70 388.70 L 532.20 377.50 L 524.20 372.20 L 507.90 362.60 L 507.50 361.60 L 507.60 360.30 Z" fill="#6c906a" fill-rule="nonzero" node-id="140" stroke="none" target-height="194.90002" target-width="271.2" target-x="507.5" target-y="360.3"></path><path d="M 667.50 374.60 L 677.10 379.10 L 685.80 383.70 L 687.40 384.80 L 688.60 386.30 L 681.20 390.90 L 677.30 392.80 L 669.00 395.60 L 664.70 396.60 L 653.50 396.90 L 642.20 396.90 L 631.00 396.40 L 628.90 396.10 L 624.70 394.90 L 622.40 394.60 L 607.40 394.60 L 606.80 394.40 L 606.50 393.90 L 606.70 391.90 L 607.20 391.40 L 616.20 385.30 L 625.70 379.50 L 629.10 377.60 L 632.80 376.20 L 636.70 375.10 L 640.00 374.70 L 645.30 374.70 L 658.90 376.00 L 661.80 375.80 L 667.50 374.60 Z" fill="#c2cb84" fill-rule="nonzero" node-id="142" stroke="none" target-height="22.299988" target-width="82.099976" target-x="606.5" target-y="374.6"></path><path d="M 384.80 378.30 L 384.40 380.30 L 383.50 382.20 L 382.20 383.80 L 380.60 385.10 L 379.40 385.40 L 378.10 385.20 L 377.10 384.50 L 376.20 383.50 L 374.30 379.80 L 374.00 378.70 L 374.10 377.80 L 374.70 377.10 L 375.70 376.50 L 379.10 375.80 L 382.50 375.60 L 384.00 376.20 L 384.60 377.70 L 385.00 378.00 L 384.80 378.30 Z" fill="#ffbca9" fill-rule="nonzero" node-id="144" stroke="none" target-height="9.799988" target-width="11" target-x="374" target-y="375.6"></path><path d="M 320.20 380.40 L 321.60 383.30 L 322.60 386.40 L 323.30 389.70 L 323.50 393.00 L 323.30 395.80 L 322.60 398.50 L 321.60 401.20 L 320.00 402.10 L 319.00 402.00 L 312.20 398.90 L 305.60 396.40 L 305.20 395.30 L 312.10 387.40 L 315.90 383.70 L 320.20 380.40 Z" fill="#fb453e" fill-rule="nonzero" node-id="146" stroke="none" target-height="21.700012" target-width="18.299988" target-x="305.2" target-y="380.4"></path><path d="M 382.30 397.30 L 380.90 395.80 L 380.70 394.80 L 380.70 392.60 L 381.40 391.10 L 382.00 391.10 L 383.00 391.70 L 388.20 396.40 L 389.60 398.20 L 389.90 399.10 L 389.60 399.70 L 388.60 399.90 L 386.30 399.70 L 382.30 397.30 Z" fill="#fb381a" fill-rule="nonzero" node-id="148" stroke="none" target-height="8.799988" target-width="9.199982" target-x="380.7" target-y="391.1"></path><path d="M 305.20 395.60 L 305.50 396.60 L 305.90 396.80 L 312.10 399.10 L 319.00 402.40 L 320.80 402.10 L 321.60 401.50 L 322.00 402.40 L 324.00 401.30 L 325.80 400.90 L 327.30 401.20 L 329.80 402.80 L 332.00 402.90 L 336.10 404.50 L 344.50 405.50 L 363.90 411.80 L 367.10 413.20 L 370.00 415.10 L 373.30 417.70 L 374.10 417.50 L 374.70 416.80 L 375.60 416.80 L 376.80 417.70 L 378.30 419.60 L 379.30 419.80 L 386.60 419.30 L 387.60 419.50 L 392.30 422.80 L 399.60 425.40 L 400.10 426.00 L 400.30 427.00 L 396.70 428.30 L 409.50 431.20 L 411.00 431.70 L 413.20 433.30 L 415.60 433.20 L 418.10 433.80 L 425.30 432.70 L 429.50 433.70 L 434.60 432.80 L 436.90 433.00 L 439.20 432.70 L 444.00 431.10 L 445.30 430.90 L 453.00 431.20 L 456.00 431.50 L 460.10 432.50 L 461.90 432.20 L 462.50 433.60 L 463.90 433.80 L 469.00 431.90 L 474.10 430.50 L 479.20 429.60 L 484.50 429.10 L 493.40 429.40 L 502.20 430.30 L 511.00 431.90 L 516.90 432.30 L 520.90 434.00 L 527.50 434.70 L 528.00 432.80 L 521.80 431.60 L 520.10 429.30 L 512.70 428.00 L 509.30 427.00 L 512.60 427.20 L 519.50 426.90 L 522.90 426.30 L 527.00 424.90 L 530.70 425.20 L 532.00 425.10 L 541.30 422.70 L 554.70 421.80 L 555.60 421.50 L 556.80 420.40 L 559.30 420.00 L 562.50 418.80 L 565.20 416.50 L 566.60 414.60 L 567.80 415.00 L 568.00 413.70 L 569.00 412.70 L 570.40 413.40 L 571.40 413.20 L 571.60 410.40 L 571.90 409.50 L 572.50 409.00 L 579.60 409.00 L 586.10 408.50 L 612.10 404.80 L 624.70 404.30 L 648.60 404.10 L 650.40 403.10 L 665.20 401.90 L 668.00 402.20 L 668.50 403.20 L 667.10 405.60 L 654.90 418.00 L 650.60 421.80 L 646.10 425.30 L 641.30 428.50 L 611.50 446.40 L 611.90 447.10 L 612.50 447.30 L 616.60 445.60 L 619.90 445.30 L 620.90 445.90 L 627.90 454.60 L 633.50 470.00 L 641.20 488.20 L 642.40 491.60 L 643.80 498.60 L 644.00 502.30 L 643.90 505.80 L 642.90 512.90 L 640.70 522.50 L 638.20 532.00 L 635.20 541.40 L 631.90 550.60 L 631.20 551.10 L 624.60 545.90 L 623.60 545.40 L 621.70 545.70 L 620.90 546.40 L 618.60 550.20 L 615.10 554.70 L 614.10 556.30 L 613.50 558.10 L 612.70 564.60 L 610.60 570.00 L 609.80 574.80 L 609.20 575.90 L 604.10 579.70 L 600.70 583.50 L 600.00 585.10 L 599.70 586.90 L 599.80 588.70 L 600.40 590.40 L 605.60 597.70 L 610.10 599.00 L 615.40 599.80 L 615.90 600.20 L 616.30 600.80 L 616.10 604.50 L 617.30 608.30 L 617.30 609.40 L 616.90 610.40 L 615.40 611.80 L 603.00 616.50 L 588.80 620.00 L 582.00 622.60 L 580.70 623.70 L 579.90 625.20 L 579.70 627.40 L 580.10 628.50 L 583.80 633.00 L 588.20 639.80 L 590.20 642.10 L 592.50 644.10 L 596.60 646.80 L 598.90 648.00 L 601.20 648.80 L 603.60 649.20 L 605.80 649.00 L 608.70 647.70 L 610.10 646.40 L 617.10 641.60 L 623.70 636.50 L 630.00 631.00 L 635.90 625.10 L 641.40 618.90 L 646.60 612.20 L 647.80 609.80 L 648.70 607.30 L 649.00 604.70 L 648.40 596.00 L 647.50 590.20 L 644.60 578.90 L 641.90 571.50 L 638.60 564.50 L 634.80 557.60 L 635.20 556.90 L 636.30 556.40 L 637.50 556.60 L 639.20 557.40 L 640.40 558.80 L 650.00 580.80 L 650.90 581.90 L 651.90 582.40 L 673.40 588.00 L 675.90 588.90 L 677.60 590.00 L 678.70 591.30 L 679.30 592.70 L 679.30 602.00 L 678.60 607.40 L 673.30 623.10 L 672.00 625.70 L 669.60 629.40 L 666.40 633.10 L 666.40 634.20 L 667.40 635.10 L 670.10 635.00 L 671.40 634.60 L 676.10 631.10 L 678.90 628.20 L 681.10 625.20 L 682.80 622.20 L 683.90 619.00 L 684.60 615.70 L 684.70 612.20 L 684.30 608.40 L 683.40 604.40 L 683.60 601.10 L 684.30 597.90 L 686.20 592.60 L 686.30 590.60 L 685.90 588.50 L 685.10 586.50 L 683.50 584.40 L 681.30 582.20 L 688.10 585.30 L 695.20 590.20 L 697.50 590.30 L 700.50 588.80 L 698.90 590.90 L 696.10 593.40 L 695.80 594.40 L 695.70 595.60 L 696.00 596.80 L 696.80 597.90 L 698.80 599.00 L 700.00 599.00 L 701.10 598.60 L 702.00 597.50 L 704.00 592.00 L 705.30 586.60 L 706.20 580.10 L 706.40 582.90 L 705.30 587.10 L 705.80 588.00 L 706.80 587.90 L 707.10 586.90 L 707.50 586.70 L 710.00 586.70 L 711.10 587.20 L 712.80 589.00 L 716.50 590.70 L 719.30 591.30 L 722.20 591.30 L 725.00 590.90 L 727.30 592.70 L 729.70 594.00 L 732.40 594.90 L 735.20 595.30 L 738.00 595.20 L 740.90 594.60 L 743.60 593.70 L 745.70 592.40 L 747.40 590.70 L 748.90 587.50 L 748.90 583.40 L 748.00 579.80 L 746.90 577.10 L 745.60 575.10 L 744.00 573.40 L 742.10 572.30 L 740.00 571.70 L 743.80 571.30 L 745.90 570.10 L 746.60 569.20 L 746.80 568.10 L 746.50 566.80 L 736.20 552.30 L 735.30 549.00 L 734.00 545.90 L 732.20 543.00 L 727.10 537.40 L 725.00 533.50 L 732.40 540.90 L 739.30 548.60 L 745.90 556.60 L 752.20 564.90 L 763.60 581.80 L 775.50 600.50 L 788.00 621.00 L 801.10 643.40 L 808.80 661.00 L 807.90 663.30 L 805.50 665.10 L 800.40 666.20 L 799.40 666.00 L 798.30 665.50 L 794.40 662.10 L 790.80 658.40 L 787.70 654.30 L 785.00 650.00 L 786.70 648.60 L 787.80 646.80 L 788.40 644.90 L 788.50 642.70 L 786.30 634.60 L 784.50 630.40 L 782.20 626.60 L 780.30 624.30 L 778.10 622.40 L 775.60 620.90 L 773.70 620.10 L 771.80 619.80 L 767.90 620.20 L 766.10 621.00 L 763.70 622.80 L 761.70 628.10 L 759.20 631.90 L 753.80 632.60 L 752.70 632.90 L 751.70 633.80 L 750.50 635.50 L 749.60 637.50 L 748.90 640.90 L 747.80 642.80 L 740.20 648.00 L 726.20 656.10 L 718.90 659.60 L 712.70 662.10 L 705.90 664.40 L 666.40 675.60 L 655.90 679.30 L 651.30 681.30 L 647.00 683.70 L 643.00 686.70 L 639.30 690.10 L 635.50 694.50 L 632.20 699.10 L 629.30 704.00 L 626.80 709.20 L 624.80 714.50 L 623.10 720.10 L 621.20 720.40 L 619.00 722.10 L 616.80 722.20 L 615.80 722.60 L 614.40 724.10 L 613.40 724.30 L 609.70 723.60 L 608.70 723.70 L 607.80 724.30 L 602.40 732.70 L 601.20 734.10 L 599.70 735.20 L 598.00 735.90 L 596.10 736.20 L 587.40 736.10 L 583.60 738.50 L 580.10 740.10 L 572.80 742.40 L 568.10 744.70 L 566.60 744.90 L 558.80 743.90 L 546.20 741.20 L 540.00 739.30 L 535.90 737.50 L 532.00 735.10 L 528.40 732.30 L 525.20 729.00 L 532.00 723.80 L 538.10 718.40 L 543.70 712.60 L 548.70 706.60 L 553.10 700.20 L 557.10 693.60 L 560.50 686.60 L 563.40 679.20 L 565.80 671.40 L 567.70 663.20 L 569.00 654.50 L 569.20 650.80 L 568.30 641.30 L 565.30 628.70 L 563.30 622.70 L 561.00 616.90 L 558.10 611.20 L 554.90 605.70 L 551.30 600.50 L 547.30 595.70 L 542.80 591.20 L 538.10 587.20 L 532.90 583.60 L 528.80 581.30 L 524.50 579.40 L 515.20 576.50 L 504.90 574.70 L 494.60 573.50 L 484.30 573.00 L 451.80 572.40 L 420.50 572.30 L 389.50 572.80 L 359.50 573.90 L 351.70 574.50 L 345.50 575.30 L 339.80 576.40 L 335.60 577.60 L 327.80 581.60 L 324.40 584.00 L 318.20 589.40 L 311.50 597.50 L 307.70 602.90 L 306.10 598.90 L 304.30 595.60 L 302.40 593.00 L 300.30 591.00 L 297.90 589.30 L 295.20 588.20 L 292.30 587.50 L 289.00 587.40 L 289.20 585.30 L 288.80 584.40 L 288.10 583.70 L 287.40 583.50 L 288.90 583.70 L 290.30 584.40 L 292.40 585.80 L 292.80 585.60 L 293.20 584.50 L 292.90 582.90 L 288.50 577.60 L 280.10 569.30 L 273.50 561.40 L 267.30 553.20 L 261.40 544.70 L 256.00 536.00 L 252.90 528.10 L 252.00 526.80 L 251.10 526.20 L 250.20 526.20 L 249.20 526.80 L 247.60 522.20 L 247.20 517.40 L 248.00 512.50 L 249.30 508.60 L 251.10 504.40 L 259.60 487.20 L 261.40 482.80 L 262.80 478.30 L 268.60 452.40 L 270.30 446.60 L 271.70 443.10 L 273.00 440.70 L 278.90 433.70 L 283.20 427.70 L 289.70 417.30 L 303.70 396.50 L 305.20 395.60 Z M 552.00 471.80 L 551.80 469.30 L 551.20 466.90 L 550.20 464.60 L 548.80 462.40 L 546.40 459.80 L 543.50 457.50 L 539.90 455.50 L 536.10 454.10 L 531.90 453.10 L 527.20 452.60 L 522.50 452.80 L 518.20 453.50 L 514.20 454.70 L 510.50 456.50 L 507.40 458.60 L 504.90 461.10 L 503.30 463.20 L 502.20 465.50 L 501.50 467.90 L 501.20 470.40 L 501.40 472.90 L 502.00 475.30 L 503.00 477.60 L 504.40 479.80 L 506.80 482.40 L 509.70 484.70 L 513.30 486.70 L 517.10 488.10 L 521.30 489.10 L 526.00 489.60 L 530.70 489.40 L 535.00 488.70 L 538.90 487.50 L 542.60 485.70 L 545.70 483.50 L 548.20 481.10 L 549.80 478.90 L 550.90 476.70 L 551.70 474.30 L 552.00 471.80 Z M 339.60 488.40 L 344.50 486.20 L 350.10 482.60 L 352.50 480.40 L 354.40 478.10 L 355.30 476.30 L 355.80 474.60 L 355.80 472.90 L 355.20 469.40 L 354.10 466.30 L 352.80 463.50 L 351.00 461.00 L 348.80 458.80 L 346.30 456.90 L 343.60 455.50 L 340.50 454.50 L 337.10 453.90 L 328.50 453.70 L 324.80 454.10 L 321.20 454.90 L 317.90 456.10 L 314.90 457.60 L 311.70 459.90 L 309.20 462.20 L 307.40 464.60 L 306.20 467.20 L 305.50 469.90 L 305.40 472.70 L 305.80 475.90 L 306.90 479.40 L 308.40 482.40 L 310.30 484.80 L 312.60 486.70 L 315.30 488.10 L 318.10 489.20 L 321.20 490.00 L 327.60 490.50 L 330.80 490.30 L 335.50 489.50 L 339.60 488.40 Z M 278.70 501.00 L 275.10 506.70 L 272.70 513.00 L 271.70 519.70 L 271.80 523.20 L 272.60 526.60 L 273.90 529.90 L 275.70 532.80 L 278.20 535.80 L 281.00 538.40 L 284.20 540.40 L 287.70 542.00 L 291.30 543.10 L 295.10 543.90 L 302.80 544.10 L 310.60 542.90 L 317.60 540.50 L 320.90 538.70 L 323.80 536.50 L 326.40 533.80 L 328.50 530.70 L 330.30 527.10 L 331.70 522.90 L 332.10 519.00 L 333.30 514.70 L 333.20 511.60 L 332.70 508.80 L 331.00 505.40 L 329.60 503.90 L 323.10 498.90 L 315.80 495.00 L 311.70 493.90 L 307.60 493.30 L 303.60 493.20 L 299.50 493.70 L 295.50 494.70 L 291.30 496.30 L 286.30 498.70 L 285.00 498.40 L 284.40 497.80 L 284.80 484.90 L 286.70 461.50 L 286.70 459.90 L 285.90 458.90 L 284.40 459.20 L 283.50 460.10 L 281.00 465.50 L 279.10 470.70 L 277.70 475.80 L 276.90 480.80 L 276.60 485.90 L 276.80 491.00 L 277.50 496.00 L 278.70 501.00 Z M 577.30 487.00 L 576.60 488.30 L 575.70 488.90 L 574.50 488.90 L 572.40 488.20 L 567.30 487.50 L 562.20 487.30 L 557.10 487.50 L 552.10 488.30 L 547.20 489.50 L 542.40 491.20 L 536.40 494.50 L 531.20 498.90 L 528.80 501.50 L 525.20 506.70 L 524.30 509.40 L 524.10 513.20 L 524.40 515.10 L 527.00 522.40 L 529.90 527.20 L 537.50 534.30 L 540.80 536.70 L 544.30 538.70 L 549.40 540.50 L 552.30 541.10 L 557.10 541.50 L 561.90 541.50 L 566.70 540.90 L 571.50 539.90 L 577.80 537.40 L 583.40 533.60 L 587.00 530.40 L 590.30 525.30 L 591.60 521.90 L 592.10 519.10 L 592.20 515.70 L 591.80 511.70 L 591.00 507.00 L 589.50 501.30 L 589.00 500.40 L 588.10 500.10 L 586.90 500.20 L 586.10 500.80 L 586.00 501.30 L 586.80 513.10 L 586.60 516.40 L 586.10 519.20 L 584.00 524.10 L 580.70 528.10 L 578.60 529.60 L 575.50 531.40 L 572.20 532.70 L 568.50 533.60 L 560.80 534.40 L 553.00 533.90 L 545.80 532.30 L 542.60 531.20 L 539.80 529.60 L 537.20 527.50 L 535.00 525.00 L 533.30 522.20 L 532.00 519.00 L 531.20 515.40 L 531.10 512.20 L 531.60 509.30 L 532.70 506.60 L 534.30 504.20 L 536.30 502.10 L 538.80 500.30 L 541.60 498.80 L 544.90 497.50 L 556.30 494.70 L 562.20 493.90 L 568.10 493.50 L 574.00 493.50 L 580.00 494.00 L 581.00 494.90 L 583.80 495.90 L 585.20 495.90 L 586.10 495.30 L 586.40 494.30 L 586.70 488.80 L 586.40 483.30 L 585.60 477.90 L 584.10 472.50 L 582.10 467.40 L 579.60 462.40 L 577.40 459.80 L 576.80 459.60 L 575.30 459.90 L 574.30 460.50 L 573.80 461.50 L 573.80 463.10 L 577.30 487.00 Z M 407.30 482.30 L 406.40 481.50 L 405.40 481.40 L 404.90 481.60 L 404.70 482.10 L 405.00 483.00 L 406.60 483.90 L 407.20 483.90 L 407.50 483.50 L 407.30 482.30 Z M 392.80 520.20 L 393.40 527.40 L 394.40 531.00 L 399.20 539.80 L 403.20 545.00 L 407.90 549.10 L 410.60 550.60 L 413.50 551.80 L 416.50 552.50 L 419.90 552.70 L 423.70 552.30 L 427.40 551.30 L 430.70 549.90 L 433.80 547.90 L 436.50 545.50 L 438.90 542.80 L 441.00 539.70 L 444.10 532.90 L 445.10 529.20 L 445.70 525.50 L 445.90 518.10 L 446.00 517.20 L 446.90 516.20 L 448.20 516.00 L 452.30 516.80 L 460.50 517.40 L 464.60 517.40 L 467.20 517.00 L 470.00 516.10 L 473.00 514.60 L 476.40 512.30 L 480.40 509.00 L 480.30 507.80 L 479.30 507.00 L 478.60 507.10 L 474.90 509.60 L 471.00 511.50 L 466.90 513.00 L 462.60 514.00 L 458.30 514.50 L 453.80 514.40 L 447.80 513.20 L 431.60 506.30 L 424.20 504.20 L 420.60 504.00 L 417.00 504.20 L 413.50 505.00 L 398.60 511.50 L 391.30 513.70 L 386.40 514.50 L 377.30 514.80 L 370.30 513.80 L 366.90 512.70 L 363.80 511.20 L 361.00 509.20 L 360.10 509.80 L 360.10 511.00 L 362.30 513.10 L 366.90 516.00 L 370.70 517.40 L 374.80 518.30 L 378.90 518.70 L 391.50 518.70 L 392.50 519.40 L 392.80 520.20 Z M 608.00 550.90 L 608.30 549.60 L 607.90 549.00 L 607.00 548.60 L 603.60 549.00 L 597.70 551.10 L 590.40 555.10 L 584.40 559.10 L 573.40 567.70 L 570.10 571.20 L 567.30 575.10 L 564.90 579.30 L 564.90 580.00 L 565.40 580.50 L 566.50 580.90 L 567.60 580.60 L 576.60 570.50 L 581.30 566.00 L 586.40 561.90 L 591.70 558.10 L 597.30 554.70 L 601.70 553.10 L 606.00 552.10 L 602.40 558.70 L 599.90 565.70 L 599.80 567.80 L 600.20 569.40 L 601.10 570.70 L 602.60 571.70 L 604.80 572.50 L 605.80 572.60 L 606.80 572.30 L 607.50 571.70 L 609.40 567.20 L 610.20 561.80 L 610.90 558.70 L 612.20 555.70 L 613.90 552.90 L 615.90 550.40 L 618.60 547.90 L 618.30 546.80 L 617.80 546.30 L 616.90 546.10 L 612.40 548.10 L 608.00 550.90 Z M 768.00 614.80 L 769.70 614.10 L 770.10 613.30 L 770.20 611.70 L 762.80 602.70 L 761.10 601.90 L 760.10 602.00 L 759.30 602.50 L 751.30 609.70 L 751.30 610.40 L 755.50 612.70 L 759.40 614.00 L 763.60 614.70 L 768.00 614.80 Z M 728.40 625.40 L 728.70 623.50 L 728.60 621.70 L 727.90 620.00 L 726.90 618.50 L 725.50 617.30 L 723.70 616.50 L 720.70 616.20 L 717.90 617.20 L 716.70 618.10 L 715.70 619.30 L 715.40 621.20 L 715.50 623.00 L 716.20 624.70 L 717.20 626.20 L 718.60 627.40 L 720.40 628.20 L 723.30 628.50 L 726.10 627.50 L 728.40 625.40 Z" fill="#e88c7f" fill-rule="nonzero" node-id="150" stroke="none" target-height="349.30002" target-width="561.6" target-x="247.2" target-y="395.6"></path><path d="M 668.00 442.50 L 668.40 446.20 L 669.40 449.70 L 670.90 453.10 L 672.90 456.30 L 673.80 457.00 L 674.80 457.20 L 682.30 456.50 L 679.80 457.50 L 678.20 458.70 L 677.30 459.80 L 676.80 461.10 L 676.80 462.50 L 677.40 464.20 L 683.50 477.30 L 684.00 479.00 L 684.10 481.50 L 683.80 484.20 L 682.70 488.10 L 681.60 488.10 L 676.40 484.60 L 668.40 478.70 L 665.70 476.40 L 661.00 471.40 L 652.80 459.90 L 652.20 458.50 L 651.90 455.60 L 653.10 453.00 L 654.20 451.90 L 668.00 442.50 Z" fill="#ffc156" fill-rule="nonzero" node-id="152" stroke="none" target-height="45.600006" target-width="32.19995" target-x="651.9" target-y="442.5"></path><path d="M 552.00 471.80 L 551.70 474.30 L 551.00 476.70 L 549.90 479.00 L 548.30 481.10 L 545.80 483.60 L 542.70 485.70 L 539.00 487.50 L 535.00 488.70 L 530.70 489.40 L 526.00 489.60 L 521.30 489.10 L 517.10 488.10 L 513.20 486.70 L 509.60 484.70 L 506.60 482.40 L 504.30 479.80 L 502.90 477.60 L 501.90 475.30 L 501.30 472.90 L 501.20 470.40 L 501.60 467.90 L 502.30 465.50 L 503.50 463.20 L 505.00 461.10 L 507.60 458.60 L 510.60 456.50 L 514.30 454.70 L 518.20 453.50 L 522.50 452.80 L 527.20 452.60 L 531.90 453.10 L 536.10 454.00 L 540.00 455.50 L 543.50 457.40 L 546.50 459.70 L 548.80 462.30 L 550.30 464.50 L 551.30 466.80 L 551.80 469.30 L 552.00 471.80 Z M 542.70 475.00 L 542.30 473.50 L 541.50 472.20 L 540.20 470.90 L 536.80 469.10 L 534.50 468.50 L 530.90 468.00 L 526.80 468.00 L 521.50 469.00 L 517.10 471.00 L 514.20 473.50 L 513.20 475.10 L 512.70 476.60 L 512.70 478.10 L 513.10 479.60 L 514.00 481.00 L 516.80 483.20 L 520.90 484.80 L 525.80 485.30 L 532.70 484.40 L 536.10 483.20 L 538.20 482.10 L 541.10 479.60 L 542.10 478.20 L 542.60 476.60 L 542.70 475.00 Z" fill="#0c0809" fill-rule="nonzero" node-id="154" stroke="none" target-height="37" target-width="50.799988" target-x="501.2" target-y="452.6"></path><path d="M 339.60 488.40 L 335.50 489.50 L 330.80 490.20 L 327.60 490.40 L 321.20 489.90 L 318.00 489.20 L 315.20 488.10 L 312.50 486.60 L 310.20 484.70 L 308.30 482.40 L 306.80 479.50 L 305.70 475.90 L 305.30 472.70 L 305.50 469.80 L 306.10 467.10 L 307.30 464.50 L 309.10 462.20 L 311.60 459.90 L 314.80 457.70 L 318.30 456.00 L 322.30 454.70 L 326.60 453.90 L 331.50 453.70 L 337.00 454.00 L 340.90 454.80 L 344.30 456.00 L 347.20 457.80 L 349.80 460.00 L 351.90 462.60 L 353.60 465.60 L 354.90 469.00 L 355.70 473.00 L 355.70 474.80 L 355.30 476.50 L 354.40 478.20 L 352.50 480.60 L 350.10 482.80 L 344.50 486.30 L 339.60 488.40 Z M 349.50 475.70 L 349.00 474.20 L 348.10 472.80 L 346.80 471.50 L 343.10 469.60 L 338.40 468.60 L 332.90 468.70 L 327.60 469.90 L 323.10 472.00 L 320.00 474.70 L 318.90 476.30 L 318.40 477.90 L 318.40 479.50 L 318.90 481.00 L 319.80 482.40 L 321.20 483.70 L 324.80 485.60 L 329.70 486.60 L 335.30 486.50 L 340.70 485.30 L 345.10 483.20 L 348.00 480.50 L 349.00 478.90 L 349.50 477.30 L 349.50 475.70 Z" fill="#0c0809" fill-rule="nonzero" node-id="156" stroke="none" target-height="36.69998" target-width="50.400024" target-x="305.3" target-y="453.7"></path><path d="M 627.50 454.70 L 630.50 455.10 L 631.80 455.80 L 632.90 457.00 L 631.20 457.40 L 631.00 457.90 L 631.20 459.00 L 634.30 464.00 L 641.80 480.30 L 645.10 488.60 L 646.40 493.10 L 647.30 497.60 L 647.60 502.10 L 647.40 506.90 L 645.80 518.90 L 643.40 530.80 L 641.30 536.90 L 633.30 556.80 L 630.90 554.70 L 628.70 554.10 L 627.50 554.40 L 625.20 555.70 L 623.10 556.10 L 622.30 556.60 L 621.70 557.40 L 620.60 562.10 L 618.80 565.30 L 615.70 569.50 L 612.30 573.30 L 608.50 576.50 L 609.60 573.50 L 609.80 570.70 L 611.90 565.70 L 612.80 558.70 L 613.30 557.30 L 614.60 554.80 L 617.30 551.80 L 620.70 546.60 L 622.50 546.00 L 624.00 546.50 L 630.10 551.40 L 630.80 551.60 L 631.30 551.20 L 634.60 542.00 L 637.60 532.60 L 640.10 523.10 L 642.30 513.50 L 643.00 508.70 L 643.30 504.00 L 643.20 499.20 L 641.80 492.20 L 633.10 470.00 L 627.50 454.70 Z" fill="#e54a3e" fill-rule="nonzero" node-id="158" stroke="none" target-height="121.79999" target-width="39.099976" target-x="608.5" target-y="454.7"></path><path d="M 632.80 456.80 L 655.00 472.40 L 676.60 488.20 L 688.50 497.80 L 724.90 533.60 L 728.00 539.00 L 731.90 543.20 L 733.70 546.20 L 735.10 549.40 L 735.90 552.80 L 730.10 547.10 L 727.00 544.50 L 723.70 542.30 L 718.90 540.20 L 716.20 539.70 L 714.70 539.80 L 713.40 540.50 L 712.50 541.60 L 712.00 543.20 L 711.90 550.50 L 712.40 554.60 L 713.20 558.80 L 714.60 562.70 L 716.40 566.20 L 717.90 568.30 L 719.70 570.00 L 721.80 571.30 L 724.60 572.30 L 727.50 572.90 L 730.50 573.10 L 733.50 572.70 L 722.70 573.40 L 721.40 574.10 L 720.80 577.40 L 720.80 580.30 L 721.10 583.20 L 721.90 586.00 L 723.00 588.60 L 724.60 591.20 L 721.80 591.50 L 718.90 591.40 L 716.10 590.80 L 712.40 589.30 L 710.70 587.50 L 709.60 587.00 L 707.10 587.00 L 706.80 587.10 L 706.30 588.40 L 705.50 588.30 L 705.00 587.90 L 704.90 587.20 L 705.70 585.00 L 706.00 583.20 L 705.80 580.40 L 704.90 586.80 L 703.60 592.20 L 701.70 597.50 L 701.00 598.50 L 700.10 599.20 L 699.00 599.40 L 697.20 598.90 L 696.20 598.20 L 695.50 597.10 L 695.20 595.90 L 695.30 594.70 L 696.50 592.80 L 698.40 591.10 L 700.00 589.10 L 700.60 584.30 L 700.60 579.70 L 699.90 575.00 L 698.70 570.50 L 696.80 566.20 L 694.40 562.20 L 693.40 561.30 L 692.20 560.90 L 691.00 560.90 L 689.70 561.50 L 679.90 569.00 L 679.00 570.00 L 678.70 571.10 L 678.80 573.90 L 679.80 579.60 L 680.60 582.30 L 682.90 584.50 L 684.40 586.60 L 685.30 588.70 L 685.60 590.70 L 685.50 592.80 L 683.60 598.00 L 682.90 601.20 L 682.70 604.50 L 681.60 600.10 L 681.60 595.00 L 680.20 594.70 L 679.60 594.90 L 679.30 595.40 L 678.80 602.20 L 679.00 594.50 L 678.80 592.80 L 678.10 591.40 L 677.00 590.20 L 675.30 589.10 L 672.90 588.20 L 651.40 582.60 L 650.20 582.00 L 649.50 581.00 L 639.40 558.10 L 637.00 556.80 L 635.90 556.70 L 635.00 557.00 L 634.30 557.80 L 633.80 556.90 L 641.80 537.00 L 641.70 540.50 L 641.30 542.20 L 640.10 544.80 L 640.10 551.50 L 641.50 551.80 L 642.20 556.70 L 643.10 558.70 L 652.50 571.10 L 654.80 573.70 L 658.90 577.50 L 662.90 579.50 L 665.00 580.00 L 667.10 580.20 L 670.50 579.70 L 672.10 576.90 L 672.80 573.10 L 672.20 569.20 L 671.50 567.20 L 667.80 560.80 L 663.60 554.70 L 659.10 548.90 L 650.80 536.80 L 646.60 532.60 L 644.10 530.90 L 646.30 518.90 L 648.10 507.00 L 648.30 502.40 L 648.00 497.80 L 647.10 493.20 L 644.00 483.90 L 635.00 464.10 L 631.40 458.80 L 631.00 457.60 L 631.20 457.10 L 632.80 456.80 Z M 658.60 520.90 L 656.50 517.50 L 655.70 517.00 L 654.90 516.70 L 653.30 517.40 L 651.40 520.10 L 650.90 521.70 L 650.70 523.30 L 650.90 525.40 L 651.70 527.90 L 654.40 533.00 L 657.70 537.80 L 671.10 556.30 L 675.00 560.80 L 675.80 561.40 L 677.30 561.30 L 689.70 554.30 L 691.20 553.10 L 693.30 550.00 L 694.10 546.40 L 693.20 538.60 L 692.00 533.00 L 690.30 527.80 L 688.70 524.00 L 686.80 520.50 L 684.50 517.30 L 681.80 514.40 L 678.90 511.80 L 675.50 509.60 L 671.50 507.70 L 667.00 506.10 L 664.70 506.10 L 662.70 507.20 L 661.90 508.20 L 661.20 510.60 L 661.30 519.10 L 659.70 521.60 L 659.00 521.60 L 658.60 520.90 Z" fill="#f88b79" fill-rule="nonzero" node-id="160" stroke="none" target-height="147.70001" target-width="104.900024" target-x="631" target-y="456.8"></path><path d="M 284.40 496.80 L 284.30 497.30 L 283.10 498.40 L 278.50 501.00 L 277.30 496.00 L 276.60 491.00 L 276.40 485.90 L 276.70 480.80 L 277.60 475.80 L 278.90 470.70 L 280.80 465.40 L 283.60 459.40 L 285.40 458.80 L 286.10 459.10 L 286.40 459.80 L 286.40 461.40 L 285.40 473.30 L 284.40 496.80 Z" fill="#4d1610" fill-rule="nonzero" node-id="162" stroke="none" target-height="42.200012" target-width="10" target-x="276.4" target-y="458.8"></path><path d="M 580.10 493.50 L 578.70 491.50 L 577.80 489.20 L 574.00 462.10 L 574.10 460.50 L 574.60 459.50 L 575.50 458.80 L 577.00 458.60 L 578.50 459.60 L 579.80 461.40 L 582.40 466.30 L 584.40 471.50 L 585.80 476.80 L 586.70 482.20 L 587.00 487.70 L 586.60 493.30 L 586.30 494.30 L 585.40 494.90 L 583.90 495.20 L 582.50 495.10 L 581.20 494.50 L 580.10 493.50 Z" fill="#4d1610" fill-rule="nonzero" node-id="164" stroke="none" target-height="36.600006" target-width="13" target-x="574" target-y="458.6"></path><g node-id="290"><path d="M 542.80 475.10 L 542.70 476.80 L 542.00 478.50 L 540.80 480.10 L 539.00 481.60 L 534.30 484.00 L 528.60 485.30 L 525.60 485.40 L 520.00 484.70 L 517.60 483.80 L 515.60 482.70 L 514.10 481.30 L 513.00 479.80 L 512.60 478.20 L 512.70 476.40 L 513.40 474.70 L 514.60 473.10 L 516.40 471.60 L 521.10 469.20 L 526.80 468.00 L 532.70 468.00 L 537.80 469.40 L 539.90 470.60 L 541.30 471.90 L 542.40 473.40 L 542.80 475.10 Z" fill="#f6f7f9" fill-rule="nonzero" group-id="3" node-id="168" stroke="none" target-height="17.399994" target-width="30.200012" target-x="512.6" target-y="468"></path></g><g node-id="291"><path d="M 349.40 475.70 L 349.30 477.30 L 348.80 478.80 L 347.80 480.40 L 344.70 483.00 L 340.30 485.20 L 334.90 486.40 L 329.30 486.50 L 324.50 485.50 L 320.90 483.70 L 319.50 482.40 L 318.60 481.00 L 318.20 479.50 L 318.30 477.90 L 318.80 476.30 L 321.10 473.40 L 322.80 472.10 L 327.30 470.00 L 332.70 468.70 L 338.30 468.60 L 343.10 469.60 L 346.70 471.50 L 348.10 472.70 L 348.90 474.10 L 349.40 475.70 Z" fill="#f6f7f9" fill-rule="nonzero" group-id="4" node-id="173" stroke="none" target-height="17.899994" target-width="31.199982" target-x="318.2" target-y="468.6"></path></g><path d="M 407.10 482.30 L 407.30 483.70 L 407.10 484.00 L 405.40 483.70 L 404.80 483.20 L 404.50 481.90 L 405.00 481.60 L 406.20 481.50 L 407.10 482.30 Z" fill="#a7343f" fill-rule="nonzero" node-id="176" stroke="none" target-height="2.5" target-width="2.7999878" target-x="404.5" target-y="481.5"></path><path d="M 577.30 487.00 L 578.20 490.60 L 580.10 493.80 L 574.10 493.40 L 562.30 493.80 L 556.40 494.60 L 545.00 497.30 L 541.70 498.50 L 538.80 500.00 L 536.40 501.80 L 534.30 503.90 L 532.70 506.30 L 531.60 509.00 L 531.20 511.10 L 531.40 516.00 L 532.10 518.80 L 533.40 522.00 L 535.10 524.80 L 537.30 527.30 L 539.90 529.30 L 542.70 530.90 L 545.90 532.10 L 553.00 533.80 L 560.90 534.30 L 568.50 533.60 L 572.20 532.60 L 575.50 531.30 L 578.60 529.60 L 580.60 528.00 L 584.00 524.10 L 586.10 519.10 L 586.70 516.20 L 586.90 512.90 L 586.10 501.60 L 586.40 500.60 L 587.00 500.20 L 589.20 500.50 L 591.10 507.00 L 591.90 511.70 L 592.30 515.70 L 592.20 519.10 L 591.70 522.00 L 590.90 524.30 L 588.70 528.60 L 586.30 531.40 L 580.80 535.70 L 574.80 538.90 L 571.60 540.00 L 566.80 541.00 L 562.00 541.50 L 557.20 541.60 L 549.50 540.60 L 544.40 538.80 L 540.90 536.80 L 537.60 534.50 L 531.30 528.80 L 528.20 524.70 L 525.70 519.00 L 524.50 515.20 L 524.10 512.40 L 524.40 509.60 L 525.70 506.00 L 528.90 501.60 L 533.80 496.70 L 539.40 492.80 L 542.50 491.30 L 547.40 489.60 L 552.30 488.30 L 557.30 487.60 L 562.40 487.30 L 567.40 487.60 L 573.20 488.40 L 574.60 489.00 L 575.80 488.80 L 576.70 488.20 L 577.30 487.00 Z" fill="#fe6048" fill-rule="nonzero" node-id="178" stroke="none" target-height="54.599976" target-width="68.20001" target-x="524.1" target-y="487"></path><path d="M 278.70 501.00 L 283.00 498.60 L 284.40 497.40 L 284.60 496.80 L 284.50 497.50 L 285.10 498.60 L 286.40 498.90 L 291.50 496.50 L 295.70 494.90 L 299.70 493.90 L 303.80 493.40 L 307.80 493.50 L 311.90 494.10 L 316.00 495.20 L 323.40 499.10 L 326.70 501.40 L 331.20 505.60 L 332.90 509.10 L 333.40 511.90 L 333.30 516.40 L 332.40 519.10 L 331.90 523.10 L 330.50 527.40 L 328.70 531.10 L 326.50 534.20 L 324.00 536.80 L 321.10 539.00 L 317.80 540.70 L 310.80 543.10 L 303.00 544.30 L 295.30 544.10 L 291.50 543.30 L 287.90 542.20 L 284.40 540.60 L 281.20 538.60 L 278.40 536.00 L 275.90 533.00 L 274.10 530.10 L 272.80 526.80 L 272.00 523.40 L 271.90 519.90 L 272.80 513.10 L 275.10 506.80 L 278.70 501.00 Z M 327.70 513.20 L 326.90 510.60 L 325.80 508.20 L 324.30 506.00 L 322.30 504.00 L 317.60 500.90 L 311.70 498.70 L 307.50 498.00 L 303.00 497.90 L 298.20 498.40 L 294.60 499.30 L 288.40 501.80 L 285.70 503.50 L 281.00 507.60 L 277.70 512.30 L 276.60 514.80 L 276.00 517.40 L 275.80 520.10 L 276.00 522.80 L 276.70 525.40 L 277.80 527.80 L 279.40 530.00 L 283.50 533.70 L 286.10 535.20 L 291.90 537.30 L 295.10 537.90 L 301.90 538.00 L 305.50 537.60 L 309.00 536.80 L 315.30 534.20 L 318.10 532.50 L 322.70 528.50 L 324.60 526.10 L 327.10 521.20 L 327.80 518.60 L 328.00 515.90 L 327.70 513.20 Z" fill="#fe6048" fill-rule="nonzero" node-id="180" stroke="none" target-height="50.899994" target-width="61.5" target-x="271.9" target-y="493.4"></path><g node-id="292"><path d="M 327.70 513.30 L 328.00 515.90 L 327.80 518.50 L 327.20 521.10 L 326.20 523.60 L 324.70 526.10 L 322.80 528.50 L 318.10 532.60 L 315.20 534.30 L 309.00 536.80 L 305.70 537.60 L 302.20 538.10 L 295.50 538.00 L 292.30 537.40 L 286.40 535.30 L 283.70 533.80 L 281.50 532.00 L 279.60 530.00 L 278.10 527.80 L 276.90 525.40 L 276.20 522.90 L 276.00 520.20 L 276.20 517.50 L 276.80 514.90 L 279.30 510.00 L 283.30 505.60 L 288.60 501.90 L 294.80 499.40 L 298.30 498.50 L 301.90 498.00 L 308.60 498.20 L 311.90 498.80 L 317.60 500.80 L 320.20 502.30 L 324.30 506.00 L 325.90 508.20 L 327.00 510.60 L 327.70 513.30 Z" fill="#ffa490" fill-rule="nonzero" group-id="5" node-id="184" stroke="none" target-height="40.099976" target-width="52" target-x="276" target-y="498"></path></g><path d="M 392.80 520.20 L 392.40 519.30 L 391.40 519.00 L 378.90 519.00 L 374.70 518.60 L 370.70 517.70 L 366.80 516.30 L 362.20 513.40 L 360.00 511.30 L 360.00 510.10 L 360.60 509.50 L 363.70 511.50 L 366.70 513.10 L 370.10 514.20 L 377.20 515.20 L 380.90 515.30 L 386.30 514.90 L 394.80 513.10 L 398.60 511.80 L 413.40 505.30 L 416.80 504.50 L 420.40 504.20 L 424.00 504.50 L 427.50 505.30 L 431.50 506.60 L 447.70 513.50 L 453.70 514.70 L 458.20 514.80 L 462.50 514.30 L 466.80 513.30 L 470.90 511.80 L 479.10 507.30 L 480.20 508.10 L 480.30 508.80 L 480.00 509.50 L 474.50 514.00 L 469.40 516.70 L 466.90 517.40 L 460.40 517.70 L 452.20 517.10 L 448.10 516.30 L 446.70 516.60 L 445.80 517.70 L 445.90 522.10 L 445.00 529.50 L 444.00 533.20 L 440.90 540.00 L 438.80 543.10 L 436.40 545.80 L 433.70 548.20 L 430.60 550.20 L 427.30 551.60 L 423.60 552.60 L 419.80 553.00 L 416.40 552.80 L 413.40 552.10 L 410.50 550.90 L 407.80 549.40 L 403.10 545.30 L 399.10 540.10 L 394.30 531.30 L 393.30 527.50 L 392.80 520.20 Z M 420.70 507.40 L 416.00 508.30 L 411.60 509.70 L 407.30 511.40 L 403.10 513.70 L 400.80 515.40 L 399.10 517.20 L 398.00 519.10 L 397.30 521.30 L 396.90 523.50 L 397.00 525.90 L 397.70 529.50 L 399.00 533.10 L 400.70 536.50 L 402.80 539.70 L 407.30 544.60 L 410.20 546.80 L 413.20 548.30 L 416.40 549.30 L 419.80 549.70 L 423.00 549.50 L 426.30 548.70 L 429.40 547.50 L 432.30 545.60 L 436.30 541.60 L 438.70 537.40 L 441.10 531.50 L 442.70 524.80 L 442.90 521.60 L 442.50 518.90 L 441.90 517.20 L 440.90 515.80 L 439.60 514.70 L 428.40 508.40 L 425.70 507.50 L 423.20 507.10 L 420.70 507.40 Z" fill="#c33935" fill-rule="nonzero" node-id="187" stroke="none" target-height="48.799988" target-width="120.29999" target-x="360" target-y="504.2"></path><path d="M 660.20 520.70 L 661.40 518.10 L 661.40 508.90 L 662.50 507.00 L 664.40 506.00 L 666.30 505.80 L 671.30 507.60 L 675.30 509.50 L 678.70 511.80 L 681.60 514.30 L 684.30 517.30 L 686.60 520.40 L 688.50 523.90 L 690.10 527.70 L 691.80 532.90 L 693.00 538.50 L 693.90 546.30 L 693.10 549.90 L 691.00 553.00 L 689.50 554.20 L 683.50 557.90 L 677.10 561.20 L 676.40 561.40 L 675.20 561.10 L 670.90 556.20 L 657.30 537.60 L 654.10 532.70 L 651.40 527.70 L 650.70 525.20 L 650.50 523.20 L 650.80 520.90 L 651.70 519.00 L 653.10 517.30 L 653.90 516.80 L 655.70 517.00 L 656.40 517.50 L 657.50 519.60 L 659.00 521.30 L 659.70 521.30 L 660.20 520.70 Z" fill="#ffa490" fill-rule="nonzero" node-id="189" stroke="none" target-height="55.600037" target-width="43.400024" target-x="650.5" target-y="505.8"></path><path d="M 420.40 507.40 L 422.40 507.20 L 426.30 507.80 L 439.30 514.90 L 440.60 516.00 L 441.60 517.40 L 442.20 519.10 L 442.60 521.80 L 442.40 525.00 L 440.80 531.70 L 439.60 534.90 L 437.10 540.20 L 433.60 544.50 L 431.00 546.60 L 428.10 548.20 L 424.90 549.20 L 421.60 549.70 L 418.30 549.60 L 414.90 549.00 L 411.70 547.80 L 408.60 546.00 L 404.80 542.40 L 400.40 536.40 L 398.60 532.90 L 397.30 529.30 L 396.60 525.80 L 396.60 523.40 L 396.90 521.20 L 397.60 519.00 L 398.80 517.10 L 400.50 515.30 L 402.80 513.70 L 407.10 511.40 L 411.40 509.60 L 415.90 508.30 L 420.40 507.40 Z" fill="#feac9f" fill-rule="nonzero" node-id="191" stroke="none" target-height="42.5" target-width="46" target-x="396.6" target-y="507.2"></path><path d="M 764.50 555.10 L 769.10 567.30 L 770.50 568.00 L 772.40 567.60 L 775.70 566.10 L 776.70 567.80 L 777.40 569.60 L 778.00 573.40 L 777.40 578.00 L 775.80 582.80 L 775.40 585.30 L 775.50 587.70 L 775.90 590.10 L 776.80 592.40 L 778.00 594.50 L 784.00 601.60 L 786.70 605.50 L 800.50 632.90 L 805.70 642.50 L 805.90 644.40 L 804.80 642.80 L 803.10 641.80 L 802.10 641.90 L 801.40 643.00 L 800.30 643.10 L 787.50 621.20 L 775.30 601.30 L 763.10 582.10 L 751.40 564.60 L 745.20 556.30 L 738.60 548.30 L 731.70 540.60 L 724.50 533.20 L 725.60 529.90 L 725.90 527.30 L 725.70 525.30 L 721.90 518.20 L 718.90 511.40 L 719.50 509.70 L 721.00 508.70 L 723.30 508.70 L 724.40 509.30 L 725.20 510.30 L 726.20 514.20 L 728.40 519.50 L 740.60 540.10 L 743.70 541.30 L 746.00 541.50 L 749.00 540.70 L 751.50 539.50 L 752.60 539.30 L 754.90 539.90 L 756.50 541.50 L 757.00 542.70 L 757.20 545.70 L 758.40 548.30 L 761.50 552.00 L 764.50 555.10 Z" fill="#56795c" fill-rule="nonzero" node-id="193" stroke="none" target-height="135.70001" target-width="87" target-x="718.9" target-y="508.7"></path><path d="M 287.40 583.50 L 285.20 581.10 L 282.50 579.50 L 280.70 579.60 L 279.50 580.90 L 279.30 581.50 L 282.10 593.30 L 281.50 595.80 L 281.50 597.90 L 281.90 599.60 L 282.60 601.00 L 283.70 602.20 L 294.20 610.70 L 299.40 610.90 L 300.40 611.10 L 302.60 612.70 L 304.10 612.50 L 301.90 619.80 L 300.10 627.10 L 298.80 634.40 L 298.00 641.80 L 297.70 637.30 L 296.40 632.90 L 295.80 631.90 L 288.10 628.00 L 287.40 628.00 L 282.30 630.10 L 281.50 629.60 L 281.40 626.50 L 282.10 624.20 L 283.40 622.20 L 285.60 620.40 L 286.90 618.80 L 287.60 617.20 L 287.80 615.50 L 287.60 613.80 L 286.90 612.00 L 285.40 609.50 L 283.20 607.10 L 280.70 604.80 L 272.70 598.60 L 270.90 593.30 L 269.30 590.40 L 267.70 588.50 L 266.00 587.30 L 264.20 586.80 L 262.30 586.80 L 263.00 583.40 L 264.20 580.10 L 267.70 573.90 L 269.10 572.30 L 270.80 571.00 L 272.70 570.20 L 275.20 569.80 L 275.90 568.50 L 275.70 567.80 L 265.20 555.00 L 260.50 548.50 L 256.20 541.70 L 253.70 536.90 L 251.60 531.80 L 249.70 526.30 L 250.80 525.70 L 251.60 525.60 L 253.00 526.70 L 256.50 535.50 L 262.00 544.20 L 267.90 552.70 L 274.20 560.90 L 280.90 568.80 L 291.40 579.50 L 293.70 582.30 L 294.00 584.00 L 293.30 585.20 L 287.40 583.50 Z" fill="#f46e66" fill-rule="nonzero" node-id="195" stroke="none" target-height="116.20001" target-width="54.40001" target-x="249.7" target-y="525.6"></path><path d="M 641.50 536.60 L 643.60 530.50 L 646.10 532.20 L 650.30 536.40 L 655.20 543.80 L 663.20 554.30 L 667.30 560.40 L 671.00 566.80 L 671.90 569.60 L 672.20 572.50 L 671.60 576.40 L 670.50 578.90 L 668.90 579.70 L 666.70 579.80 L 662.40 579.10 L 658.50 577.10 L 656.70 575.70 L 652.10 570.60 L 642.60 558.30 L 641.70 556.40 L 641.30 554.30 L 641.00 551.40 L 639.60 551.10 L 639.60 545.50 L 640.10 543.40 L 641.20 541.20 L 641.70 539.00 L 641.50 536.60 Z" fill="#ffa490" fill-rule="nonzero" node-id="197" stroke="none" target-height="49.299988" target-width="32.600037" target-x="639.6" target-y="530.5"></path><path d="M 736.10 552.60 L 745.90 566.40 L 746.40 567.50 L 746.40 568.70 L 746.00 569.80 L 745.20 570.60 L 742.10 571.90 L 730.70 573.00 L 727.70 572.90 L 724.90 572.30 L 722.00 571.30 L 719.90 570.00 L 718.10 568.30 L 716.60 566.20 L 714.70 562.70 L 713.40 558.80 L 712.50 554.60 L 712.10 550.50 L 712.20 543.20 L 712.60 541.70 L 713.60 540.60 L 714.90 539.90 L 716.40 539.70 L 719.10 540.20 L 723.90 542.10 L 727.20 544.30 L 730.30 546.90 L 736.10 552.60 Z" fill="#fe6048" fill-rule="nonzero" node-id="199" stroke="none" target-height="33.299988" target-width="34.30005" target-x="712.1" target-y="539.7"></path><path d="M 605.90 552.30 L 610.20 549.40 L 614.90 547.10 L 617.40 546.20 L 618.20 546.20 L 619.00 547.60 L 618.80 548.30 L 616.30 550.50 L 614.20 553.00 L 612.60 555.80 L 611.40 558.80 L 610.70 561.90 L 610.30 566.20 L 608.00 571.00 L 607.50 571.80 L 605.90 572.60 L 603.10 572.00 L 600.80 570.30 L 600.20 569.10 L 599.90 567.70 L 600.10 565.80 L 601.10 562.30 L 602.40 558.80 L 605.90 552.30 Z" fill="#ffd9bf" fill-rule="nonzero" node-id="201" stroke="none" target-height="26.399963" target-width="19.099976" target-x="599.9" target-y="546.2"></path><path d="M 608.00 550.90 L 605.90 552.30 L 601.50 553.30 L 597.20 554.90 L 591.70 558.40 L 581.40 566.30 L 576.60 570.70 L 567.50 580.80 L 566.40 581.10 L 565.30 580.70 L 564.80 580.20 L 564.80 579.50 L 567.20 575.30 L 570.00 571.40 L 573.30 567.90 L 577.00 564.70 L 584.30 559.30 L 590.30 555.30 L 597.60 551.30 L 604.20 549.00 L 606.40 548.60 L 607.50 548.80 L 608.10 549.10 L 608.30 549.80 L 608.00 550.90 Z" fill="#df615d" fill-rule="nonzero" node-id="203" stroke="none" target-height="32.5" target-width="43.5" target-x="564.8" target-y="548.6"></path><path d="M 633.50 556.50 L 639.60 567.70 L 643.90 578.70 L 645.50 584.30 L 647.60 595.80 L 648.20 604.40 L 647.90 607.00 L 647.10 609.60 L 645.80 612.00 L 640.50 618.60 L 635.00 624.90 L 629.00 630.80 L 622.70 636.30 L 616.20 641.50 L 609.30 646.20 L 608.20 646.00 L 607.90 645.60 L 608.00 644.90 L 610.00 642.80 L 617.70 637.40 L 624.00 632.20 L 629.90 626.70 L 635.60 620.70 L 637.30 618.40 L 637.80 616.80 L 637.70 615.80 L 636.40 614.80 L 629.10 614.30 L 625.90 613.40 L 621.90 611.30 L 620.20 609.90 L 619.00 608.80 L 617.60 606.00 L 617.50 604.50 L 617.90 603.00 L 619.00 600.80 L 619.00 600.30 L 618.30 599.40 L 605.20 598.70 L 599.90 591.30 L 599.40 589.60 L 599.20 587.80 L 599.50 585.90 L 600.30 584.20 L 603.20 581.00 L 611.80 574.20 L 617.00 568.60 L 620.30 563.40 L 621.20 561.20 L 622.00 557.50 L 622.60 556.70 L 623.40 556.20 L 625.50 555.80 L 629.00 553.90 L 631.20 554.30 L 633.50 556.50 Z" fill="#593f5d" fill-rule="nonzero" node-id="205" stroke="none" target-height="92.29999" target-width="49" target-x="599.2" target-y="553.9"></path><path d="M 812.20 642.70 L 810.80 643.20 L 807.20 643.50 L 806.30 644.80 L 806.80 644.10 L 806.30 644.10 L 806.20 642.30 L 800.80 632.70 L 787.10 605.30 L 784.40 601.40 L 778.40 594.30 L 777.10 592.20 L 776.20 589.90 L 775.80 587.50 L 775.80 585.10 L 776.20 582.60 L 777.80 578.10 L 778.40 573.20 L 777.90 569.40 L 776.10 565.90 L 781.40 563.60 L 793.10 557.50 L 798.80 555.50 L 801.90 554.80 L 805.10 554.40 L 808.00 554.60 L 809.80 555.00 L 811.20 555.80 L 812.40 556.90 L 813.10 558.20 L 813.60 560.20 L 813.50 562.80 L 812.10 579.70 L 811.90 588.10 L 812.00 597.00 L 813.10 598.10 L 816.40 598.80 L 817.30 599.50 L 827.40 609.60 L 828.20 610.80 L 828.60 612.20 L 828.40 613.50 L 827.60 614.80 L 814.20 631.40 L 813.90 639.20 L 813.30 640.80 L 812.20 642.70 Z" fill="#6c906a" fill-rule="nonzero" node-id="207" stroke="none" target-height="90.39996" target-width="52.799988" target-x="775.8" target-y="554.4"></path><path d="M 700.10 588.60 L 697.10 590.10 L 694.80 590.00 L 687.70 585.10 L 680.90 582.00 L 679.40 576.40 L 679.00 570.80 L 679.30 569.60 L 680.20 568.70 L 690.00 561.20 L 691.20 560.60 L 692.40 560.60 L 693.60 561.00 L 694.70 561.90 L 697.00 565.80 L 698.80 570.00 L 700.00 574.60 L 700.60 579.20 L 700.70 583.90 L 700.10 588.60 Z" fill="#ffa490" fill-rule="nonzero" node-id="209" stroke="none" target-height="29.5" target-width="21.700012" target-x="679" target-y="560.6"></path><path d="M 565.40 628.70 L 562.60 634.80 L 562.00 635.70 L 560.50 636.40 L 559.70 636.40 L 557.10 635.20 L 556.10 635.00 L 543.30 634.70 L 538.80 635.20 L 536.10 634.80 L 530.80 635.00 L 521.40 632.00 L 521.00 632.00 L 520.00 632.70 L 519.40 632.80 L 518.80 630.50 L 517.90 628.70 L 518.30 625.90 L 518.00 623.20 L 517.20 620.60 L 515.80 618.20 L 514.60 617.40 L 514.40 618.70 L 515.00 623.50 L 514.90 624.70 L 512.90 630.00 L 509.70 635.10 L 507.70 637.30 L 505.60 639.20 L 503.20 640.80 L 500.70 641.90 L 498.00 642.50 L 493.90 642.30 L 489.40 640.40 L 479.60 634.50 L 478.60 634.30 L 474.60 642.50 L 472.20 645.80 L 469.60 648.80 L 466.10 652.00 L 461.80 654.10 L 457.00 654.90 L 448.00 653.90 L 438.70 651.20 L 438.10 651.30 L 437.60 651.70 L 437.10 653.00 L 437.30 654.30 L 437.80 654.90 L 439.50 655.60 L 439.40 656.70 L 432.50 666.50 L 427.50 672.00 L 422.10 675.80 L 419.20 677.00 L 416.20 677.90 L 413.00 678.20 L 409.90 678.10 L 406.60 677.50 L 403.30 676.20 L 400.00 674.30 L 397.20 672.00 L 394.70 669.30 L 392.60 666.30 L 390.90 663.00 L 389.70 659.30 L 388.80 658.30 L 388.10 658.10 L 386.70 658.30 L 384.40 660.10 L 382.20 661.10 L 380.20 661.40 L 378.20 661.20 L 376.30 660.40 L 373.90 658.50 L 372.80 658.50 L 371.00 659.50 L 369.90 659.50 L 366.60 657.70 L 365.00 656.20 L 363.70 654.40 L 362.20 651.40 L 359.60 641.40 L 358.80 640.30 L 358.20 640.00 L 356.90 640.20 L 355.10 642.20 L 353.30 643.30 L 351.30 644.00 L 348.90 644.20 L 346.10 643.90 L 342.80 643.00 L 339.50 640.80 L 336.90 638.30 L 334.70 635.50 L 333.00 632.20 L 331.80 628.60 L 331.10 624.40 L 330.80 619.10 L 330.10 618.30 L 329.30 618.20 L 328.70 618.50 L 326.90 623.60 L 325.90 627.30 L 324.50 634.80 L 324.40 638.00 L 325.00 641.30 L 328.00 651.20 L 328.50 654.40 L 328.50 656.50 L 328.10 658.60 L 327.10 661.10 L 325.70 662.00 L 321.90 663.40 L 318.00 664.10 L 301.40 664.10 L 300.80 663.90 L 300.30 662.30 L 299.80 661.90 L 298.90 662.30 L 298.60 663.20 L 298.90 663.70 L 298.00 646.10 L 299.40 633.80 L 300.70 626.50 L 302.40 619.20 L 304.60 612.10 L 308.60 602.50 L 312.40 597.10 L 316.30 592.10 L 319.10 589.00 L 325.20 583.60 L 332.40 579.10 L 336.50 577.20 L 340.30 576.00 L 345.30 574.90 L 351.90 574.00 L 360.40 573.50 L 380.30 572.70 L 421.50 571.90 L 452.90 572.00 L 492.90 572.90 L 500.70 573.60 L 516.10 576.10 L 525.10 579.10 L 533.30 583.40 L 538.40 587.00 L 543.10 591.00 L 547.50 595.50 L 551.40 600.40 L 555.00 605.50 L 558.20 611.00 L 561.10 616.80 L 563.40 622.60 L 565.40 628.70 Z M 419.00 600.60 L 416.90 597.50 L 413.90 595.40 L 410.30 594.40 L 408.40 594.30 L 404.70 595.20 L 401.60 597.30 L 399.50 600.30 L 398.50 603.90 L 398.40 605.80 L 399.30 609.50 L 401.40 612.60 L 402.80 613.80 L 406.20 615.40 L 409.90 615.80 L 414.30 614.70 L 417.20 612.30 L 418.30 610.90 L 419.40 608.50 L 420.00 605.90 L 420.00 604.10 L 419.00 600.60 Z" fill="#edded5" fill-rule="nonzero" node-id="211" stroke="none" target-height="106.29999" target-width="267.40002" target-x="298" target-y="571.9"></path><path d="M 733.50 572.50 L 739.40 571.80 L 741.30 572.30 L 743.10 573.20 L 744.60 574.70 L 746.00 576.80 L 747.30 579.60 L 748.30 583.50 L 748.30 587.70 L 747.80 589.40 L 746.90 590.90 L 745.20 592.60 L 743.10 593.90 L 737.50 595.30 L 734.70 595.30 L 731.90 594.90 L 729.20 594.10 L 726.70 592.80 L 724.40 591.00 L 722.80 588.50 L 721.70 585.90 L 720.90 583.10 L 720.60 580.20 L 720.60 577.30 L 721.10 574.40 L 721.60 573.50 L 722.50 573.20 L 733.50 572.50 Z" fill="#ffa490" fill-rule="nonzero" node-id="213" stroke="none" target-height="23.5" target-width="27.700012" target-x="720.6" target-y="571.8"></path><path d="M 287.40 583.50 L 289.00 584.80 L 289.40 585.80 L 289.10 587.70 L 281.80 593.60 L 279.20 582.40 L 279.60 580.60 L 281.10 579.60 L 282.30 579.60 L 285.20 581.20 L 287.40 583.50 Z" fill="#feac9f" fill-rule="nonzero" node-id="215" stroke="none" target-height="14" target-width="10.199982" target-x="279.2" target-y="579.6"></path><path d="M 283.00 622.10 L 279.20 622.60 L 275.70 623.60 L 272.20 624.90 L 268.90 626.70 L 264.20 630.20 L 263.20 631.60 L 262.60 633.30 L 262.50 635.00 L 262.80 636.70 L 263.60 638.50 L 268.00 643.40 L 270.40 646.80 L 273.10 651.60 L 276.90 653.80 L 279.10 655.40 L 280.60 657.00 L 281.70 658.80 L 282.30 660.70 L 277.70 658.20 L 272.70 654.90 L 267.80 651.30 L 263.30 647.10 L 260.50 644.10 L 256.20 637.70 L 254.60 634.30 L 253.70 630.80 L 253.30 627.20 L 253.80 617.10 L 254.50 612.40 L 256.70 603.10 L 262.00 586.90 L 265.10 587.20 L 266.50 587.90 L 267.90 589.00 L 269.40 591.00 L 270.80 593.80 L 272.60 598.70 L 273.30 599.60 L 277.80 602.80 L 282.80 607.00 L 284.90 609.50 L 286.50 611.90 L 287.10 613.70 L 287.40 615.40 L 287.10 617.10 L 286.50 618.70 L 285.20 620.30 L 283.00 622.10 Z" fill="#593f5d" fill-rule="nonzero" node-id="217" stroke="none" target-height="73.79999" target-width="34.09999" target-x="253.3" target-y="586.9"></path><path d="M 307.80 602.90 L 303.80 612.50 L 302.30 612.70 L 300.10 611.20 L 299.10 610.90 L 294.90 610.90 L 293.00 610.20 L 283.40 602.20 L 282.30 601.00 L 281.60 599.60 L 281.20 597.90 L 281.20 595.80 L 281.80 593.30 L 289.10 587.40 L 292.40 587.50 L 295.30 588.20 L 297.90 589.30 L 300.30 590.90 L 302.40 593.00 L 304.30 595.60 L 306.10 598.90 L 307.80 602.90 Z" fill="#e54a3e" fill-rule="nonzero" node-id="219" stroke="none" target-height="25.299988" target-width="26.599976" target-x="281.2" target-y="587.4"></path><path d="M 683.20 604.10 L 684.10 608.10 L 684.50 611.90 L 684.40 615.40 L 683.70 618.70 L 682.60 621.90 L 680.90 624.90 L 678.70 627.90 L 675.90 630.80 L 671.30 634.40 L 670.00 634.80 L 667.20 634.80 L 666.10 633.70 L 666.10 632.90 L 669.40 629.10 L 671.70 625.50 L 673.60 621.60 L 678.60 605.80 L 679.80 594.60 L 681.40 594.30 L 681.90 594.60 L 681.90 598.20 L 682.30 601.20 L 683.20 604.10 Z" fill="#c33935" fill-rule="nonzero" node-id="221" stroke="none" target-height="40.5" target-width="18.400024" target-x="666.1" target-y="594.3"></path><g node-id="293"><path d="M 419.20 600.50 L 420.20 603.90 L 420.30 605.70 L 419.40 609.10 L 417.40 612.10 L 414.40 614.50 L 410.80 615.70 L 407.10 615.70 L 403.80 614.50 L 401.20 612.20 L 399.40 609.00 L 399.10 607.20 L 399.30 603.70 L 400.70 600.40 L 401.90 599.00 L 404.90 596.70 L 408.50 595.40 L 412.20 595.50 L 415.50 596.70 L 416.90 597.70 L 419.20 600.50 Z" fill="#e88c7f" fill-rule="nonzero" group-id="6" node-id="225" stroke="none" target-height="20.299988" target-width="21.199982" target-x="399.1" target-y="595.4"></path></g><path d="M 605.00 598.00 L 617.90 598.60 L 618.70 599.40 L 618.80 599.90 L 617.80 602.00 L 617.40 603.50 L 617.40 605.10 L 617.80 606.60 L 618.60 607.90 L 620.00 609.20 L 622.80 611.20 L 625.90 612.70 L 629.10 613.60 L 635.30 614.00 L 636.90 614.50 L 637.50 615.20 L 637.70 616.10 L 637.10 617.60 L 635.40 620.00 L 629.90 626.10 L 623.90 631.80 L 617.50 637.00 L 608.90 643.20 L 607.70 645.20 L 608.00 645.60 L 609.10 645.80 L 607.70 647.10 L 604.90 648.50 L 602.60 648.70 L 600.30 648.30 L 595.70 646.30 L 589.70 642.00 L 586.70 638.50 L 582.80 632.50 L 579.80 628.80 L 579.10 627.80 L 578.70 625.70 L 579.50 623.60 L 580.30 622.70 L 581.20 622.00 L 584.60 620.50 L 588.00 619.40 L 599.70 616.70 L 615.50 610.60 L 616.20 609.80 L 616.40 608.70 L 614.90 604.10 L 615.20 601.20 L 614.90 599.90 L 613.80 599.10 L 609.50 599.00 L 605.00 598.00 Z" fill="#df615d" fill-rule="nonzero" node-id="228" stroke="none" target-height="50.700012" target-width="59" target-x="578.7" target-y="598"></path><path d="M 768.00 614.80 L 763.60 614.60 L 759.40 613.90 L 755.40 612.50 L 751.60 610.60 L 751.20 610.10 L 751.40 609.30 L 760.10 601.70 L 762.00 601.80 L 762.80 602.40 L 770.30 611.60 L 770.40 612.40 L 769.60 614.10 L 768.00 614.80 Z" fill="#ffbca9" fill-rule="nonzero" node-id="230" stroke="none" target-height="13.099976" target-width="19.200012" target-x="751.2" target-y="601.7"></path><g node-id="294"><path d="M 724.60 616.80 L 726.30 617.80 L 727.50 619.00 L 728.30 620.50 L 728.80 622.10 L 728.80 623.70 L 728.30 625.30 L 727.40 626.70 L 726.20 627.60 L 724.60 628.30 L 723.00 628.60 L 721.20 628.40 L 719.40 627.80 L 717.80 626.80 L 716.60 625.50 L 715.70 624.10 L 715.20 622.50 L 715.20 620.90 L 715.70 619.30 L 716.60 617.90 L 717.80 616.90 L 719.40 616.30 L 721.10 616.00 L 722.80 616.20 L 724.60 616.80 Z" fill="#ffa490" fill-rule="nonzero" group-id="7" node-id="234" stroke="none" target-height="12.599976" target-width="13.599976" target-x="715.2" target-y="616"></path></g><path d="M 517.90 628.90 L 516.40 637.00 L 513.90 647.10 L 512.00 650.50 L 510.60 651.70 L 509.00 652.70 L 503.70 654.30 L 497.10 654.90 L 490.50 654.20 L 484.60 652.70 L 482.70 652.70 L 481.20 653.20 L 479.90 654.10 L 478.70 655.70 L 476.40 659.70 L 475.10 661.20 L 471.10 664.10 L 468.20 665.40 L 462.10 667.30 L 446.30 671.00 L 443.50 672.70 L 438.70 677.50 L 435.20 680.20 L 431.60 682.30 L 427.80 683.90 L 423.80 685.00 L 419.60 685.50 L 415.00 685.50 L 410.10 685.00 L 406.50 684.20 L 403.00 682.90 L 399.60 681.00 L 396.20 678.60 L 392.90 675.50 L 389.50 671.70 L 388.60 671.20 L 383.20 671.90 L 380.90 671.80 L 376.50 670.70 L 374.20 669.70 L 372.20 668.40 L 365.10 662.40 L 360.50 658.10 L 358.40 655.60 L 355.90 652.20 L 356.20 649.40 L 355.70 647.60 L 355.40 647.60 L 354.80 648.20 L 354.50 649.20 L 354.50 650.00 L 355.00 651.40 L 355.00 651.90 L 354.30 652.90 L 353.10 653.10 L 345.40 652.20 L 344.40 651.80 L 342.30 647.60 L 339.30 644.20 L 339.40 643.80 L 340.00 643.30 L 341.00 643.10 L 345.40 644.20 L 348.20 644.50 L 350.60 644.30 L 352.60 643.60 L 354.40 642.50 L 356.50 640.60 L 357.90 640.40 L 359.20 641.70 L 360.70 648.30 L 361.70 651.60 L 363.20 654.70 L 364.50 656.50 L 366.20 658.00 L 369.50 659.70 L 371.30 659.70 L 372.40 658.80 L 373.50 658.80 L 375.90 660.60 L 377.80 661.40 L 379.80 661.60 L 381.80 661.20 L 384.00 660.30 L 386.90 658.20 L 388.30 658.40 L 388.90 658.80 L 390.30 663.10 L 392.00 666.40 L 394.10 669.40 L 396.60 672.20 L 399.40 674.50 L 402.70 676.40 L 406.10 677.70 L 409.30 678.50 L 412.40 678.60 L 415.60 678.30 L 418.60 677.50 L 421.50 676.20 L 424.30 674.40 L 426.90 672.30 L 429.40 669.80 L 435.90 661.50 L 439.20 656.20 L 438.80 655.40 L 437.00 655.10 L 436.60 654.70 L 436.70 652.60 L 437.60 651.70 L 438.10 651.60 L 447.50 654.30 L 456.40 655.30 L 458.80 655.00 L 463.30 653.60 L 467.30 651.00 L 471.60 646.30 L 474.00 643.00 L 475.90 639.40 L 477.70 634.90 L 478.20 634.70 L 483.90 637.70 L 488.80 640.80 L 493.30 642.70 L 497.40 642.90 L 500.10 642.30 L 502.60 641.20 L 505.00 639.60 L 507.10 637.70 L 509.10 635.50 L 512.30 630.40 L 514.30 625.10 L 514.50 624.00 L 513.80 619.10 L 514.00 617.90 L 514.40 617.70 L 516.70 620.90 L 517.70 623.50 L 518.10 626.20 L 517.90 628.90 Z" fill="#dbcaab" fill-rule="nonzero" node-id="237" stroke="none" target-height="67.79999" target-width="178.79999" target-x="339.3" target-y="617.7"></path><path d="M 342.20 643.70 L 340.10 643.70 L 339.60 644.10 L 339.50 644.80 L 342.30 648.00 L 343.90 651.20 L 345.00 652.50 L 353.80 653.50 L 354.30 653.20 L 354.80 652.30 L 354.30 649.30 L 355.00 647.90 L 355.40 647.90 L 356.00 649.70 L 355.70 651.80 L 356.00 652.90 L 360.20 658.30 L 364.80 662.70 L 371.90 668.50 L 374.00 669.80 L 378.50 671.70 L 380.80 672.10 L 383.00 672.10 L 388.40 671.50 L 389.30 672.00 L 392.60 675.70 L 395.90 678.70 L 399.20 681.00 L 402.70 683.00 L 406.20 684.40 L 409.90 685.30 L 414.80 685.80 L 419.30 685.80 L 423.60 685.30 L 427.60 684.20 L 431.50 682.60 L 435.10 680.50 L 438.50 677.80 L 443.30 673.00 L 446.20 671.30 L 461.90 667.60 L 468.00 665.70 L 470.90 664.40 L 474.90 661.50 L 476.20 660.00 L 478.40 656.00 L 479.60 654.50 L 480.90 653.50 L 482.60 653.00 L 484.40 653.00 L 490.20 654.50 L 496.70 655.20 L 503.40 654.60 L 508.80 653.00 L 510.50 652.00 L 511.80 650.80 L 513.70 647.40 L 516.20 637.20 L 517.70 629.20 L 519.10 633.30 L 519.80 633.20 L 520.70 632.40 L 521.20 632.50 L 530.60 635.50 L 535.40 635.20 L 538.60 635.70 L 543.00 635.00 L 548.60 635.50 L 555.90 635.50 L 557.00 635.70 L 558.90 636.70 L 559.90 636.90 L 561.90 636.20 L 565.20 629.20 L 567.80 639.30 L 569.00 647.90 L 569.10 651.70 L 568.90 655.00 L 567.70 662.90 L 566.10 670.50 L 564.00 677.70 L 561.40 684.50 L 558.50 691.10 L 555.10 697.30 L 551.30 703.30 L 547.00 709.00 L 542.20 714.50 L 537.00 719.70 L 531.30 724.70 L 521.00 732.50 L 512.40 737.70 L 503.20 741.70 L 498.40 743.30 L 480.90 746.20 L 454.50 749.90 L 445.60 750.50 L 427.90 750.60 L 405.10 749.00 L 393.70 747.70 L 382.40 745.70 L 367.70 742.10 L 360.50 739.70 L 353.50 737.00 L 346.70 733.70 L 340.10 730.00 L 334.40 725.80 L 329.20 721.30 L 324.50 716.80 L 320.20 712.00 L 316.20 706.90 L 312.70 701.60 L 309.40 696.10 L 304.10 684.40 L 301.80 678.10 L 297.90 663.80 L 298.70 662.90 L 299.40 663.10 L 300.00 664.80 L 300.50 665.10 L 317.30 665.10 L 321.20 664.40 L 325.00 663.00 L 326.40 662.10 L 327.40 659.60 L 327.80 657.50 L 327.70 655.40 L 327.20 652.20 L 324.20 642.30 L 323.70 637.90 L 324.50 631.90 L 325.30 628.20 L 328.00 619.50 L 329.10 619.20 L 330.20 620.40 L 330.30 624.50 L 330.90 628.10 L 331.80 631.30 L 333.10 634.30 L 334.70 637.00 L 336.80 639.50 L 339.30 641.70 L 342.20 643.70 Z" fill="#ead3be" fill-rule="nonzero" node-id="239" stroke="none" target-height="131.39996" target-width="271.19998" target-x="297.9" target-y="619.2"></path><path d="M 784.40 649.70 L 782.00 650.70 L 779.60 651.10 L 777.10 650.90 L 774.60 650.20 L 768.90 647.40 L 766.20 645.50 L 763.70 643.20 L 761.50 640.70 L 759.90 637.90 L 759.10 635.90 L 758.70 631.70 L 761.20 627.90 L 763.40 622.10 L 767.30 620.00 L 769.20 619.70 L 773.20 620.00 L 775.10 620.70 L 777.60 622.20 L 779.80 624.10 L 781.70 626.30 L 784.00 630.20 L 785.80 634.30 L 788.00 642.50 L 787.90 644.70 L 787.30 646.70 L 786.10 648.40 L 784.40 649.70 Z" fill="#cf4847" fill-rule="nonzero" node-id="241" stroke="none" target-height="31.399963" target-width="29.299988" target-x="758.7" target-y="619.7"></path><path d="M 283.00 622.10 L 281.30 625.30 L 280.90 628.90 L 281.40 629.90 L 282.50 629.80 L 287.00 627.90 L 288.50 628.20 L 295.40 631.90 L 296.00 632.80 L 297.40 637.20 L 297.60 641.70 L 297.10 646.40 L 296.10 665.90 L 295.40 667.60 L 294.30 669.10 L 292.70 670.30 L 292.00 670.50 L 290.80 669.90 L 288.50 668.00 L 287.90 666.40 L 286.50 664.50 L 284.60 662.70 L 281.70 660.70 L 281.10 658.80 L 280.10 657.00 L 278.60 655.40 L 276.40 653.80 L 272.60 651.70 L 268.80 645.30 L 263.30 639.10 L 262.40 637.50 L 261.90 635.80 L 261.90 634.00 L 262.30 632.20 L 263.20 630.60 L 265.10 629.00 L 269.40 626.40 L 273.80 624.40 L 278.30 622.90 L 283.00 622.10 Z" fill="#bd575f" fill-rule="nonzero" node-id="243" stroke="none" target-height="48.400024" target-width="35.700012" target-x="261.9" target-y="622.1"></path><path d="M 758.80 631.70 L 758.80 633.90 L 760.00 638.00 L 761.60 640.80 L 763.80 643.30 L 766.30 645.60 L 772.00 649.00 L 777.10 650.90 L 779.60 651.10 L 782.10 650.70 L 784.50 649.70 L 787.20 654.10 L 790.40 658.10 L 794.00 661.80 L 797.80 665.20 L 799.90 665.90 L 803.30 665.40 L 805.10 664.70 L 807.40 663.00 L 808.30 660.70 L 815.10 674.50 L 819.10 691.40 L 815.80 682.50 L 815.00 681.20 L 813.90 680.40 L 812.50 680.00 L 810.90 680.20 L 808.50 681.80 L 807.90 682.70 L 807.40 684.50 L 807.40 686.50 L 807.80 688.50 L 810.40 694.70 L 808.90 693.40 L 807.20 692.50 L 805.30 691.90 L 803.10 691.70 L 795.50 692.00 L 789.80 692.60 L 768.00 694.00 L 763.50 694.00 L 755.60 693.30 L 746.00 694.40 L 736.80 693.40 L 730.70 693.20 L 724.60 693.40 L 717.30 694.30 L 707.60 690.70 L 704.60 688.90 L 696.80 683.80 L 687.10 678.30 L 682.90 673.80 L 676.80 672.80 L 712.30 662.10 L 718.50 659.70 L 725.80 656.20 L 732.90 652.40 L 739.80 648.10 L 746.60 643.50 L 748.30 641.30 L 749.00 638.30 L 750.30 635.20 L 752.20 633.20 L 758.80 631.70 Z" fill="#df615d" fill-rule="nonzero" node-id="245" stroke="none" target-height="63" target-width="142.29999" target-x="676.8" target-y="631.7"></path><path d="M 829.80 694.20 L 823.20 677.10 L 819.50 668.80 L 815.40 660.60 L 806.40 644.80 L 806.90 643.70 L 812.30 642.70 L 813.00 643.50 L 819.40 642.20 L 825.10 641.50 L 830.90 641.40 L 836.70 641.80 L 842.40 642.80 L 848.10 644.30 L 849.50 645.40 L 849.70 647.10 L 846.70 658.80 L 846.70 659.90 L 849.60 663.60 L 855.90 669.30 L 856.10 670.30 L 855.70 672.90 L 854.70 675.10 L 853.30 677.10 L 846.10 683.20 L 840.80 687.30 L 829.80 694.20 Z" fill="#9c7e6b" fill-rule="nonzero" node-id="247" stroke="none" target-height="52.799988" target-width="49.69995" target-x="806.4" target-y="641.4"></path><path d="M 806.40 644.40 L 807.00 644.30 L 806.40 645.10 L 815.40 660.90 L 819.50 669.10 L 826.70 685.90 L 829.80 694.50 L 833.50 710.10 L 834.00 717.30 L 833.00 724.40 L 831.90 727.90 L 828.60 734.50 L 825.00 739.70 L 821.10 744.40 L 816.90 748.40 L 812.50 751.90 L 807.70 754.90 L 802.60 757.50 L 797.20 759.50 L 791.30 761.10 L 785.00 762.10 L 778.20 762.60 L 771.40 759.90 L 768.10 758.10 L 763.50 755.00 L 750.70 743.70 L 746.20 740.00 L 737.10 733.40 L 731.20 729.50 L 724.70 726.10 L 721.50 724.90 L 716.60 723.90 L 713.50 724.40 L 709.20 726.80 L 705.30 729.60 L 701.80 732.90 L 697.80 737.30 L 694.90 737.70 L 670.40 730.60 L 660.90 728.40 L 659.10 728.50 L 657.40 729.00 L 647.10 735.10 L 636.60 740.60 L 625.90 745.60 L 614.80 750.10 L 614.60 749.10 L 616.00 747.40 L 615.00 747.20 L 614.80 746.10 L 616.20 744.30 L 618.00 743.00 L 620.00 742.00 L 623.10 741.00 L 624.00 740.00 L 625.80 736.80 L 628.20 735.60 L 630.80 733.00 L 636.10 729.10 L 643.00 726.50 L 651.10 724.20 L 660.60 719.50 L 664.30 718.10 L 668.20 717.40 L 672.20 717.10 L 671.30 717.10 L 670.60 716.60 L 670.40 715.90 L 673.10 715.30 L 667.10 715.10 L 666.60 714.60 L 666.70 714.20 L 681.90 711.50 L 702.30 708.70 L 707.40 708.40 L 717.70 708.90 L 728.10 710.60 L 740.30 715.30 L 757.60 723.80 L 763.40 726.00 L 771.30 727.90 L 776.40 728.30 L 780.50 726.70 L 783.90 725.90 L 787.40 725.70 L 801.50 726.40 L 812.00 727.70 L 812.60 728.00 L 813.10 729.20 L 816.10 730.20 L 818.80 730.50 L 821.60 730.20 L 823.70 729.40 L 825.30 727.90 L 826.80 725.70 L 828.90 721.00 L 829.80 716.00 L 829.50 712.00 L 827.30 706.50 L 825.30 696.70 L 824.00 692.60 L 822.20 688.60 L 820.50 687.40 L 818.30 680.90 L 815.10 675.60 L 808.30 661.80 L 800.60 644.20 L 801.60 644.00 L 802.30 642.90 L 804.30 642.50 L 805.10 642.90 L 806.40 644.40 Z" fill="#97485e" fill-rule="nonzero" node-id="249" stroke="none" target-height="120.099976" target-width="219.40002" target-x="614.6" target-y="642.5"></path><path d="M 297.20 646.50 L 298.10 664.10 L 299.80 671.00 L 304.00 683.80 L 309.30 695.50 L 312.60 701.10 L 316.10 706.40 L 320.10 711.40 L 324.40 716.20 L 329.10 720.80 L 334.30 725.20 L 340.00 729.40 L 318.90 736.90 L 317.30 736.90 L 310.50 734.10 L 306.60 727.80 L 303.20 721.30 L 300.10 714.70 L 297.40 707.90 L 294.00 694.90 L 291.10 681.70 L 288.70 668.30 L 291.50 670.60 L 292.90 670.60 L 294.30 669.40 L 295.50 667.90 L 296.20 666.20 L 296.60 664.30 L 297.10 655.40 L 297.20 646.50 Z" fill="#df615d" fill-rule="nonzero" node-id="251" stroke="none" target-height="90.400024" target-width="51.299988" target-x="288.7" target-y="646.5"></path><path d="M 677.10 672.20 L 683.20 673.20 L 687.50 677.80 L 697.10 683.20 L 704.90 688.30 L 707.90 690.10 L 717.60 693.70 L 724.90 692.80 L 731.00 692.60 L 737.10 692.80 L 745.60 693.80 L 747.90 693.80 L 755.90 692.70 L 768.30 693.40 L 779.90 692.40 L 790.10 692.00 L 795.80 691.30 L 803.40 691.10 L 807.40 691.80 L 809.10 692.70 L 812.30 695.70 L 814.10 696.80 L 816.30 697.40 L 817.30 697.20 L 818.20 696.50 L 818.90 694.60 L 819.40 690.90 L 815.40 674.00 L 818.60 679.40 L 820.90 685.80 L 822.50 687.00 L 824.30 691.00 L 825.60 695.10 L 826.60 699.20 L 827.40 705.00 L 830.00 711.80 L 829.80 717.10 L 828.30 722.00 L 827.10 724.20 L 824.80 727.10 L 822.90 728.30 L 821.90 728.60 L 819.10 728.80 L 816.40 728.50 L 813.70 727.70 L 812.90 726.40 L 812.30 726.10 L 801.70 724.90 L 791.20 724.20 L 787.70 724.10 L 784.30 724.50 L 775.70 726.80 L 767.60 725.50 L 763.60 724.40 L 757.80 722.20 L 744.50 715.50 L 736.50 712.00 L 728.40 709.00 L 718.00 707.30 L 707.70 706.80 L 702.60 707.10 L 682.40 709.90 L 667.40 712.50 L 666.90 713.00 L 667.40 713.50 L 673.40 713.80 L 670.70 714.30 L 670.90 715.00 L 671.60 715.50 L 672.50 715.50 L 668.50 715.80 L 664.50 716.60 L 660.80 717.90 L 652.90 722.00 L 638.60 726.50 L 634.40 728.80 L 631.10 731.40 L 629.10 733.60 L 626.10 735.20 L 624.00 739.00 L 623.40 739.50 L 620.20 740.40 L 618.30 741.40 L 616.50 742.80 L 615.10 744.50 L 615.30 745.60 L 616.20 746.00 L 615.00 747.50 L 615.10 748.50 L 608.00 754.00 L 604.80 757.20 L 601.90 760.50 L 596.80 767.90 L 596.10 768.10 L 593.50 770.00 L 577.90 770.00 L 577.50 769.70 L 577.50 769.00 L 578.10 767.90 L 578.80 767.40 L 584.20 766.30 L 587.60 766.20 L 592.80 763.90 L 596.40 759.30 L 602.70 752.20 L 605.70 748.40 L 614.80 733.30 L 618.90 725.50 L 622.80 717.50 L 624.40 712.00 L 626.50 706.60 L 628.90 701.50 L 631.90 696.60 L 635.20 691.90 L 639.00 687.50 L 642.70 684.20 L 646.80 681.20 L 651.10 678.70 L 655.60 676.70 L 660.90 676.10 L 666.20 675.00 L 677.10 672.20 Z" fill="#b14f59" fill-rule="nonzero" node-id="253" stroke="none" target-height="97.79999" target-width="252.5" target-x="577.5" target-y="672.2"></path><path d="M 819.30 691.40 L 819.10 694.30 L 818.70 695.70 L 818.10 697.00 L 816.70 698.00 L 814.50 697.60 L 811.70 695.90 L 810.60 694.60 L 808.70 690.60 L 807.60 686.40 L 807.60 684.40 L 808.10 682.60 L 809.70 680.80 L 811.10 680.10 L 812.60 679.90 L 814.00 680.20 L 815.20 681.00 L 816.00 682.40 L 819.30 691.40 Z" fill="#ffa490" fill-rule="nonzero" node-id="255" stroke="none" target-height="18.099976" target-width="11.700012" target-x="807.6" target-y="679.9"></path><path d="M 623.00 719.50 L 615.00 735.30 L 605.90 750.40 L 593.70 765.00 L 592.10 766.40 L 588.40 768.00 L 581.00 768.80 L 578.70 769.50 L 578.30 769.90 L 577.70 771.00 L 577.70 771.70 L 578.10 772.00 L 579.20 772.20 L 593.70 772.00 L 576.40 773.10 L 572.30 773.00 L 568.40 772.20 L 567.50 771.40 L 567.30 770.80 L 568.10 769.60 L 568.20 768.50 L 564.70 765.20 L 561.50 763.20 L 558.00 761.60 L 554.30 760.50 L 550.50 760.00 L 546.60 760.10 L 543.10 761.20 L 540.00 763.80 L 538.40 766.00 L 537.90 767.00 L 538.20 768.80 L 538.90 769.50 L 541.50 770.60 L 542.40 771.40 L 542.60 772.20 L 542.40 773.00 L 523.70 773.20 L 521.20 772.30 L 519.60 771.30 L 518.60 770.30 L 518.10 769.20 L 512.40 763.30 L 506.40 757.80 L 499.90 752.70 L 493.00 747.90 L 492.40 747.20 L 492.30 746.60 L 492.90 745.70 L 494.70 744.50 L 498.40 742.70 L 507.80 739.20 L 512.40 737.00 L 516.80 734.60 L 525.10 728.90 L 528.30 732.20 L 531.90 735.00 L 535.70 737.40 L 539.90 739.20 L 552.30 742.50 L 558.50 743.70 L 566.50 744.60 L 569.30 743.70 L 571.70 742.40 L 579.90 739.80 L 587.10 735.90 L 595.70 735.90 L 597.60 735.70 L 599.30 735.00 L 600.80 733.90 L 602.00 732.40 L 607.70 723.60 L 609.30 723.30 L 613.50 724.00 L 616.00 722.00 L 618.50 721.80 L 621.00 719.80 L 623.00 719.50 Z" fill="#cf4847" fill-rule="nonzero" node-id="257" stroke="none" target-height="53.700012" target-width="130.70001" target-x="492.3" target-y="719.5"></path><path d="M 742.00 736.60 L 738.40 735.70 L 734.90 734.20 L 728.10 730.40 L 724.50 729.10 L 720.80 728.30 L 717.00 728.00 L 715.90 728.20 L 714.90 728.70 L 702.50 738.30 L 701.40 739.00 L 698.50 739.80 L 695.30 741.90 L 691.10 747.30 L 687.90 751.00 L 681.80 757.00 L 679.80 759.80 L 678.30 762.90 L 677.30 766.20 L 676.90 769.60 L 677.00 773.10 L 677.90 774.40 L 682.40 775.20 L 578.90 772.60 L 594.10 771.70 L 596.40 769.70 L 597.20 769.30 L 597.40 769.60 L 670.20 770.10 L 672.80 769.50 L 673.90 768.80 L 675.30 767.40 L 679.80 755.40 L 682.30 750.60 L 685.20 746.00 L 687.50 743.60 L 692.80 739.60 L 695.70 738.00 L 697.60 737.80 L 699.50 736.90 L 703.70 731.90 L 708.70 727.80 L 711.40 726.10 L 715.70 724.20 L 719.10 724.20 L 725.10 726.20 L 731.50 729.60 L 742.00 736.60 Z" fill="#f0d1cd" fill-rule="nonzero" node-id="259" stroke="none" target-height="51" target-width="163.09998" target-x="578.9" target-y="724.2"></path><path d="M 742.00 736.60 L 748.20 741.20 L 754.00 746.10 L 763.80 755.10 L 768.40 758.20 L 771.60 759.90 L 778.60 762.60 L 779.70 765.50 L 780.20 768.50 L 780.20 771.90 L 779.00 772.90 L 777.60 773.60 L 770.30 774.10 L 757.90 776.00 L 748.00 776.60 L 723.60 776.50 L 690.50 775.40 L 682.20 775.40 L 677.70 774.60 L 676.90 773.80 L 676.80 773.30 L 676.70 769.80 L 677.10 766.40 L 678.10 763.10 L 679.60 759.90 L 681.60 757.10 L 687.70 751.20 L 695.10 742.10 L 698.30 740.00 L 702.30 738.50 L 714.70 728.90 L 716.80 728.20 L 720.70 728.50 L 724.30 729.20 L 727.90 730.60 L 736.40 735.00 L 742.00 736.60 Z" fill="#958a9c" fill-rule="nonzero" node-id="261" stroke="none" target-height="48.399963" target-width="103.5" target-x="676.7" target-y="728.2"></path><path d="M 695.40 738.00 L 689.70 741.50 L 684.90 746.00 L 681.90 750.70 L 679.40 755.50 L 675.00 767.50 L 673.70 768.90 L 671.30 769.90 L 597.10 769.60 L 602.10 762.30 L 605.10 758.90 L 608.30 755.70 L 615.40 750.20 L 626.40 745.70 L 637.10 740.80 L 647.70 735.20 L 658.00 729.10 L 659.30 728.70 L 662.10 728.50 L 673.40 731.40 L 695.40 738.00 Z M 651.30 755.80 L 650.30 754.60 L 648.80 753.80 L 647.10 753.40 L 645.20 753.40 L 643.20 753.90 L 641.20 754.90 L 639.50 756.30 L 638.10 757.80 L 637.20 759.50 L 636.80 761.20 L 636.90 762.80 L 637.50 764.30 L 638.60 765.50 L 640.10 766.30 L 641.80 766.70 L 643.70 766.70 L 645.60 766.20 L 647.60 765.20 L 649.30 763.80 L 650.70 762.30 L 651.60 760.60 L 652.00 758.90 L 651.90 757.30 L 651.30 755.80 Z" fill="#f6f7f9" fill-rule="nonzero" node-id="263" stroke="none" target-height="41.400024" target-width="98.30005" target-x="597.1" target-y="728.5"></path><path d="M 339.90 729.40 L 346.60 733.10 L 353.40 736.40 L 360.50 739.10 L 374.90 743.50 L 382.40 745.10 L 393.60 747.10 L 405.00 748.40 L 427.70 750.00 L 436.60 750.10 L 445.50 749.90 L 454.30 749.20 L 463.10 748.10 L 498.20 742.70 L 494.50 744.40 L 492.80 745.60 L 492.10 746.50 L 492.20 747.20 L 492.80 747.90 L 474.20 749.80 L 455.60 751.20 L 447.20 752.80 L 443.00 754.00 L 441.10 755.20 L 437.40 759.10 L 433.40 762.70 L 429.20 766.00 L 423.90 769.50 L 422.10 771.60 L 377.30 771.00 L 376.40 770.40 L 375.20 767.30 L 371.80 764.00 L 369.30 762.30 L 366.80 761.10 L 364.40 760.30 L 361.80 759.90 L 359.10 760.10 L 356.40 760.70 L 352.30 762.50 L 351.30 763.40 L 350.10 765.60 L 350.00 769.90 L 349.10 771.20 L 347.50 772.00 L 345.50 772.30 L 342.80 772.00 L 338.10 770.60 L 335.90 769.20 L 310.50 734.00 L 318.10 736.90 L 339.90 729.40 Z" fill="#b14f59" fill-rule="nonzero" node-id="265" stroke="none" target-height="42.899963" target-width="187.70001" target-x="310.5" target-y="729.4"></path><path d="M 194.40 772.90 L 209.40 771.90 L 209.50 771.10 L 208.80 769.70 L 208.30 769.20 L 207.60 769.00 L 201.10 769.70 L 194.70 769.70 L 192.60 769.50 L 189.70 768.50 L 187.80 766.60 L 185.60 758.70 L 182.70 752.40 L 189.10 748.00 L 194.10 745.00 L 198.70 742.70 L 201.90 741.60 L 204.80 741.20 L 207.20 741.20 L 209.40 741.60 L 211.20 742.40 L 212.90 743.50 L 214.40 745.10 L 215.70 747.10 L 216.90 749.80 L 218.70 755.50 L 219.90 761.30 L 220.70 768.40 L 221.40 769.50 L 222.50 770.10 L 223.90 770.40 L 267.50 770.40 L 270.70 770.80 L 265.60 772.30 L 263.30 772.50 L 215.10 773.60 L 194.40 772.90 Z" fill="#baa4ab" fill-rule="nonzero" node-id="267" stroke="none" target-height="32.399963" target-width="88.000015" target-x="182.7" target-y="741.2"></path><path d="M 493.00 747.90 L 499.70 752.70 L 506.10 757.90 L 512.20 763.40 L 517.80 769.40 L 517.50 771.90 L 515.80 770.30 L 514.10 769.60 L 470.20 770.30 L 425.60 770.30 L 425.10 769.40 L 429.60 766.40 L 433.80 763.10 L 437.80 759.50 L 441.50 755.60 L 443.40 754.40 L 447.50 753.00 L 451.60 752.10 L 493.00 747.90 Z" fill="#f6f7f9" fill-rule="nonzero" node-id="269" stroke="none" target-height="24" target-width="92.69998" target-x="425.1" target-y="747.9"></path><path d="M 777.30 773.60 L 779.20 772.50 L 779.90 771.50 L 787.90 771.10 L 797.90 771.40 L 800.10 771.00 L 802.10 770.10 L 804.60 768.00 L 806.10 763.70 L 807.70 760.50 L 809.80 757.50 L 812.20 754.80 L 814.10 753.30 L 818.10 751.10 L 822.70 750.40 L 825.10 750.60 L 827.30 751.20 L 829.40 752.30 L 831.40 753.80 L 834.10 756.50 L 836.40 759.70 L 838.30 763.10 L 839.60 766.30 L 839.80 768.90 L 838.80 770.30 L 836.30 771.00 L 777.30 773.60 Z" fill="#9c839e" fill-rule="nonzero" node-id="271" stroke="none" target-height="23.199951" target-width="62.5" target-x="777.3" target-y="750.4"></path><path d="M 182.50 752.30 L 185.30 758.60 L 187.70 766.50 L 189.50 768.40 L 192.40 769.40 L 194.50 769.60 L 198.90 769.70 L 207.40 768.90 L 208.60 769.60 L 209.30 771.60 L 208.80 771.90 L 194.30 772.80 L 170.40 773.00 L 168.80 772.30 L 168.30 771.80 L 168.10 769.30 L 171.20 764.70 L 174.60 760.30 L 178.30 756.20 L 182.50 752.30 Z" fill="#958a9c" fill-rule="nonzero" node-id="273" stroke="none" target-height="20.700012" target-width="41.199997" target-x="168.1" target-y="752.3"></path><g node-id="295"><path d="M 651.60 755.80 L 652.20 757.30 L 652.20 759.00 L 651.80 760.70 L 650.80 762.40 L 649.50 763.90 L 647.70 765.20 L 645.70 766.20 L 643.80 766.60 L 641.80 766.70 L 640.10 766.30 L 638.60 765.50 L 637.60 764.20 L 637.00 762.70 L 636.90 761.00 L 637.40 759.30 L 638.30 757.60 L 639.70 756.10 L 641.40 754.80 L 643.40 753.80 L 645.40 753.30 L 647.40 753.30 L 649.10 753.70 L 650.50 754.50 L 651.60 755.80 Z" fill="#958a9c" fill-rule="nonzero" group-id="8" node-id="277" stroke="none" target-height="13.400024" target-width="15.299988" target-x="636.9" target-y="753.3"></path></g><path d="M 422.50 771.80 L 367.80 772.70 L 355.40 772.10 L 349.40 771.50 L 350.40 769.60 L 350.40 766.00 L 351.60 763.60 L 352.60 762.80 L 356.70 761.00 L 359.40 760.40 L 362.10 760.30 L 364.70 760.60 L 367.10 761.40 L 369.60 762.60 L 372.10 764.30 L 375.50 767.60 L 376.70 770.70 L 377.60 771.30 L 422.50 771.80 Z" fill="#e2917e" fill-rule="nonzero" node-id="280" stroke="none" target-height="12.400024" target-width="73.100006" target-x="349.4" target-y="760.3"></path><path d="M 574.30 772.90 L 542.40 772.90 L 542.60 772.00 L 542.20 771.30 L 538.70 769.10 L 538.20 768.30 L 538.00 767.40 L 538.40 765.60 L 541.90 761.70 L 544.70 760.10 L 546.60 759.70 L 550.50 759.60 L 554.20 760.10 L 557.90 761.20 L 561.50 762.80 L 564.70 764.80 L 568.10 767.90 L 568.20 769.00 L 567.30 770.40 L 567.50 771.00 L 568.40 771.80 L 570.50 772.70 L 572.50 773.00 L 574.30 772.90 Z" fill="#ffa490" fill-rule="nonzero" node-id="282" stroke="none" target-height="13.400024" target-width="36.299988" target-x="538" target-y="759.6"></path><path d="M 335.40 768.50 L 336.70 769.80 L 339.60 771.30 L 326.90 772.60 L 314.30 773.20 L 297.30 773.00 L 288.80 772.50 L 288.20 772.30 L 287.90 771.80 L 288.10 770.40 L 301.70 770.00 L 318.50 770.40 L 334.90 769.00 L 335.40 768.50 Z" fill="#fbb2b1" fill-rule="nonzero" node-id="284" stroke="none" target-height="4.700012" target-width="51.700012" target-x="287.9" target-y="768.5"></path><path d="M 425.10 769.20 L 426.00 770.40 L 470.40 770.10 L 514.10 769.40 L 515.80 770.00 L 517.60 771.60 L 517.80 769.20 L 518.40 770.50 L 519.60 771.50 L 523.40 773.20 L 493.90 774.10 L 426.90 774.30 L 423.10 773.80 L 419.60 772.00 L 422.40 771.80 L 423.70 770.20 L 425.10 769.20 Z" fill="#f0d1cd" fill-rule="nonzero" node-id="286" stroke="none" target-height="5.0999756" target-width="103.80002" target-x="419.6" target-y="769.2"></path></svg>