<?xml version="1.0" standalone="no"?><!DOCTYPE svg PUBLIC "-//W3C//DTD SVG 1.1//EN" "http://www.w3.org/Graphics/SVG/1.1/DTD/svg11.dtd"><svg height="1024" node-id="1" sillyvg="true" template-height="1024" template-width="1024" version="1.1" viewBox="0 0 1024 1024" width="1024" xmlns="http://www.w3.org/2000/svg" xmlns:xlink="http://www.w3.org/1999/xlink"><defs node-id="71"></defs><path d="M 562.00 256.20 L 560.40 252.90 L 559.50 252.70 L 558.80 253.60 L 557.90 265.90 L 555.70 277.30 L 553.80 281.20 L 551.50 284.90 L 548.80 288.50 L 548.60 289.30 L 549.10 290.20 L 551.40 290.90 L 552.20 290.70 L 553.50 289.70 L 556.80 284.50 L 559.40 279.70 L 561.20 275.00 L 562.40 270.60 L 562.90 266.30 L 563.00 262.10 L 562.40 258.00 L 565.40 257.40 L 568.30 256.40 L 574.20 253.00 L 577.60 251.80 L 588.80 249.90 L 600.90 248.50 L 601.80 248.10 L 604.10 245.80 L 605.10 245.30 L 606.20 245.20 L 607.90 245.90 L 608.20 246.40 L 609.20 250.40 L 609.10 256.20 L 605.20 269.10 L 597.70 288.90 L 593.40 298.70 L 583.80 317.60 L 583.30 319.20 L 583.50 320.80 L 584.20 322.30 L 585.50 323.60 L 588.10 324.90 L 593.60 326.70 L 597.90 327.30 L 602.40 327.30 L 599.00 328.90 L 594.50 331.70 L 593.20 331.90 L 588.90 332.20 L 585.60 327.00 L 581.90 322.20 L 577.80 317.60 L 573.50 313.30 L 564.00 305.60 L 555.20 299.40 L 546.20 293.70 L 536.90 288.60 L 527.30 284.10 L 519.40 280.90 L 511.40 278.00 L 503.30 275.60 L 495.00 273.60 L 486.50 271.90 L 469.90 272.20 L 460.90 273.20 L 456.40 273.10 L 451.90 272.50 L 405.10 282.50 L 404.30 282.20 L 403.30 280.80 L 403.60 276.70 L 402.50 273.60 L 401.50 272.30 L 396.10 268.40 L 391.50 266.50 L 389.00 266.10 L 378.10 265.90 L 374.00 265.40 L 369.00 264.30 L 368.20 264.40 L 366.40 265.30 L 366.00 265.80 L 365.90 267.10 L 360.90 269.90 L 356.00 273.20 L 351.50 277.00 L 345.80 282.60 L 344.20 283.70 L 342.90 280.80 L 341.50 274.60 L 341.30 271.40 L 342.20 265.90 L 343.40 260.60 L 345.10 255.50 L 347.20 250.40 L 349.70 245.50 L 352.50 240.80 L 355.70 236.30 L 359.30 231.90 L 361.20 231.20 L 361.90 231.30 L 366.00 233.70 L 369.80 236.40 L 373.20 239.60 L 376.20 243.00 L 377.20 243.80 L 378.40 244.20 L 379.60 244.20 L 381.10 243.40 L 384.30 239.70 L 388.10 236.10 L 392.20 233.20 L 394.30 232.30 L 396.30 232.10 L 398.60 232.60 L 400.80 233.70 L 404.70 237.20 L 407.80 241.60 L 410.60 246.70 L 412.50 247.40 L 413.80 247.00 L 423.40 238.00 L 433.50 230.70 L 444.30 224.90 L 445.60 224.40 L 446.90 224.40 L 448.10 224.90 L 449.20 226.00 L 453.50 233.80 L 455.20 237.60 L 457.20 243.50 L 458.70 249.50 L 462.40 268.40 L 463.10 269.60 L 464.10 270.40 L 465.00 270.60 L 466.70 270.20 L 467.00 269.90 L 467.20 265.80 L 467.40 264.70 L 468.10 263.80 L 472.20 258.90 L 476.70 254.40 L 479.20 252.50 L 482.00 251.00 L 485.00 250.00 L 505.70 247.20 L 510.90 244.60 L 520.90 235.70 L 525.70 232.10 L 530.80 228.90 L 536.10 226.10 L 541.50 223.60 L 547.10 221.50 L 552.80 219.80 L 555.60 219.70 L 557.80 221.10 L 559.10 223.50 L 562.00 256.20 Z" fill="#f0d1cd" fill-rule="nonzero" node-id="75" stroke="none" target-height="112.500015" target-width="267.90002" target-x="341.3" target-y="219.7"></path><path d="M 794.20 317.40 L 790.20 325.60 L 789.10 327.10 L 786.80 329.20 L 784.50 330.70 L 782.20 331.70 L 780.00 332.10 L 777.60 332.20 L 775.40 331.80 L 773.00 330.90 L 770.40 329.50 L 767.60 327.50 L 762.50 323.20 L 759.20 321.20 L 756.60 320.40 L 743.90 317.90 L 740.40 316.60 L 737.20 314.90 L 734.30 312.80 L 731.70 310.40 L 729.40 307.60 L 727.50 304.70 L 725.90 301.50 L 724.80 298.10 L 724.10 294.50 L 723.90 290.90 L 724.70 282.80 L 725.80 278.90 L 727.20 275.50 L 729.00 272.20 L 733.60 266.20 L 737.70 262.10 L 744.70 256.10 L 746.50 253.90 L 753.00 244.20 L 755.90 241.00 L 758.90 238.40 L 761.90 236.40 L 764.90 234.90 L 768.20 233.90 L 771.40 233.40 L 774.50 233.30 L 777.60 233.80 L 780.60 234.70 L 783.50 236.00 L 786.20 237.80 L 788.80 240.10 L 791.00 242.70 L 793.00 245.70 L 794.70 249.30 L 796.80 254.80 L 797.70 255.90 L 798.80 256.70 L 804.80 258.50 L 808.70 260.40 L 812.00 262.60 L 814.80 265.10 L 817.20 268.10 L 819.10 271.40 L 820.60 275.30 L 821.70 279.70 L 822.30 284.70 L 822.40 289.20 L 821.90 293.30 L 821.00 296.90 L 819.60 300.20 L 817.70 303.30 L 815.30 306.10 L 812.40 308.70 L 809.00 311.10 L 804.80 313.20 L 796.20 315.50 L 795.00 316.30 L 794.20 317.40 Z M 747.30 260.00 L 743.30 262.20 L 739.70 264.90 L 736.50 268.00 L 733.70 271.60 L 731.40 275.40 L 729.60 279.40 L 728.30 283.70 L 727.60 287.90 L 727.50 292.20 L 727.80 295.40 L 728.50 298.40 L 729.70 301.40 L 731.20 304.20 L 733.10 306.80 L 735.50 309.20 L 738.40 311.40 L 745.00 314.90 L 751.50 316.70 L 758.20 317.00 L 762.80 316.60 L 763.90 317.00 L 764.70 317.70 L 767.00 321.60 L 768.70 324.00 L 770.60 325.70 L 772.50 326.90 L 774.50 327.70 L 778.70 328.10 L 782.30 327.10 L 785.20 324.70 L 786.40 323.10 L 788.30 319.20 L 790.40 313.70 L 791.30 312.80 L 793.80 311.70 L 798.70 311.10 L 802.90 310.10 L 806.50 308.60 L 809.50 306.80 L 812.10 304.60 L 814.20 302.00 L 816.00 299.00 L 817.30 295.40 L 818.20 291.30 L 818.70 286.50 L 818.60 282.00 L 818.00 278.00 L 817.00 274.50 L 815.60 271.50 L 813.70 268.70 L 811.40 266.20 L 808.50 264.00 L 805.00 262.20 L 797.80 259.60 L 795.60 258.60 L 794.10 257.40 L 792.40 254.10 L 790.40 247.00 L 788.50 244.00 L 786.40 241.60 L 784.10 239.70 L 781.50 238.30 L 778.70 237.40 L 775.50 236.90 L 771.90 237.00 L 767.80 237.60 L 764.70 238.50 L 761.80 239.90 L 759.20 241.70 L 756.90 243.90 L 754.70 246.70 L 752.70 250.00 L 750.90 253.90 L 750.60 256.00 L 749.80 257.60 L 748.70 259.00 L 747.30 260.00 Z" fill="#fe6037" fill-rule="nonzero" node-id="77" stroke="none" target-height="98.90001" target-width="98.5" target-x="723.9" target-y="233.3"></path><path d="M 741.90 313.40 L 738.40 311.30 L 735.50 309.10 L 733.20 306.70 L 731.30 304.10 L 729.70 301.30 L 728.60 298.30 L 727.80 295.30 L 727.50 292.10 L 727.60 287.90 L 728.30 283.60 L 729.60 279.40 L 731.40 275.30 L 733.70 271.50 L 736.50 268.00 L 739.70 264.80 L 743.30 262.10 L 748.70 258.90 L 750.00 257.70 L 751.00 256.20 L 753.30 250.50 L 755.20 247.20 L 757.40 244.50 L 759.80 242.30 L 762.40 240.50 L 765.30 239.10 L 768.50 238.20 L 772.40 237.60 L 775.90 237.50 L 779.00 238.00 L 781.80 238.90 L 784.40 240.20 L 786.80 242.10 L 789.10 244.50 L 791.10 247.60 L 791.80 249.20 L 793.20 254.70 L 794.90 258.00 L 796.30 259.20 L 805.70 262.80 L 809.00 264.60 L 811.80 266.70 L 814.10 269.10 L 816.00 271.80 L 817.50 274.90 L 818.60 278.50 L 819.30 282.50 L 819.40 287.10 L 818.90 291.90 L 818.00 296.00 L 816.70 299.50 L 814.90 302.50 L 812.80 305.10 L 810.20 307.30 L 807.20 309.10 L 803.60 310.60 L 799.40 311.70 L 793.10 312.60 L 791.90 313.30 L 791.00 314.30 L 789.20 319.80 L 787.10 323.70 L 784.60 326.60 L 781.30 328.30 L 777.40 328.60 L 774.70 328.00 L 772.30 326.80 L 770.00 325.00 L 767.90 322.50 L 765.40 318.20 L 764.50 317.40 L 763.40 317.10 L 758.50 317.30 L 751.50 316.70 L 748.20 315.90 L 741.90 313.40 Z" fill="#ffc156" fill-rule="nonzero" node-id="79" stroke="none" target-height="91.100006" target-width="91.900024" target-x="727.5" target-y="237.5"></path><path d="M 562.00 256.20 L 562.80 261.70 L 562.80 265.90 L 562.20 270.20 L 561.00 274.70 L 559.20 279.30 L 556.70 284.20 L 552.90 289.90 L 551.40 290.50 L 550.50 290.40 L 549.20 290.00 L 548.70 289.10 L 548.70 288.40 L 551.70 284.60 L 554.00 280.80 L 555.90 276.90 L 557.90 265.60 L 559.00 253.20 L 559.40 252.60 L 560.30 252.40 L 560.80 252.60 L 562.00 256.20 Z" fill="#dfa5ac" fill-rule="nonzero" node-id="81" stroke="none" target-height="38.100006" target-width="14.099976" target-x="548.7" target-y="252.4"></path><g node-id="228"><path d="M 296.00 253.90 L 297.70 254.30 L 299.10 255.20 L 300.30 256.40 L 301.20 258.10 L 301.70 259.90 L 301.80 262.00 L 301.50 264.10 L 300.70 265.80 L 299.60 267.30 L 298.30 268.40 L 296.80 269.10 L 295.10 269.30 L 293.50 268.90 L 292.00 268.10 L 290.80 266.80 L 289.60 264.20 L 289.30 261.20 L 289.90 258.30 L 291.40 255.90 L 292.90 254.70 L 294.40 254.10 L 296.00 253.90 Z" fill="#ffc156" fill-rule="nonzero" group-id="1" node-id="85" stroke="none" target-height="15.399994" target-width="12.5" target-x="289.3" target-y="253.9"></path></g><path d="M 400.10 270.80 L 378.40 286.90 L 377.00 287.10 L 373.90 285.90 L 369.60 283.30 L 366.20 279.60 L 364.90 277.40 L 364.40 275.70 L 364.20 273.50 L 364.50 270.30 L 365.50 266.20 L 365.40 265.50 L 366.00 264.40 L 366.90 263.90 L 368.80 263.50 L 377.80 265.10 L 382.00 265.20 L 386.10 265.00 L 390.10 265.60 L 393.70 266.80 L 396.00 267.90 L 400.10 270.80 Z" fill="#ffbca9" fill-rule="nonzero" node-id="88" stroke="none" target-height="23.600006" target-width="35.899994" target-x="364.2" target-y="263.5"></path><path d="M 365.80 266.30 L 364.80 270.00 L 364.50 273.00 L 364.60 275.60 L 365.20 277.50 L 366.50 279.70 L 370.00 283.40 L 374.20 286.00 L 377.50 287.10 L 379.20 286.60 L 400.40 270.90 L 401.70 271.90 L 403.50 274.60 L 403.90 277.80 L 403.50 280.30 L 403.80 281.10 L 405.20 282.10 L 452.10 272.10 L 447.10 276.60 L 441.80 280.60 L 436.30 284.30 L 430.50 287.60 L 424.50 290.50 L 418.30 293.00 L 412.00 295.10 L 405.50 296.70 L 404.60 296.80 L 403.20 296.10 L 401.30 293.80 L 399.50 290.30 L 398.10 291.50 L 396.80 291.90 L 391.80 292.20 L 390.10 292.60 L 387.60 293.80 L 380.10 300.10 L 374.00 303.40 L 367.30 305.30 L 363.90 305.70 L 359.00 305.60 L 355.70 303.10 L 353.80 301.10 L 351.00 296.30 L 349.50 290.90 L 349.40 288.10 L 350.30 281.30 L 349.70 280.60 L 348.30 280.60 L 353.00 275.00 L 355.90 272.40 L 362.20 268.10 L 365.80 266.30 Z" fill="#fe6048" fill-rule="nonzero" node-id="90" stroke="none" target-height="39.400024" target-width="103.80002" target-x="348.3" target-y="266.3"></path><path d="M 486.50 271.10 L 485.00 271.60 L 482.70 271.90 L 482.30 272.60 L 482.30 273.80 L 482.90 274.70 L 483.70 275.20 L 498.90 278.10 L 513.60 282.30 L 523.20 285.90 L 532.50 290.10 L 541.60 294.80 L 548.20 298.80 L 560.80 307.50 L 566.90 312.40 L 572.30 317.30 L 577.50 322.50 L 582.40 328.00 L 586.90 333.90 L 591.80 345.50 L 596.20 357.30 L 600.20 369.30 L 603.80 381.40 L 607.00 395.60 L 609.20 410.00 L 612.60 438.90 L 612.80 443.40 L 612.60 450.10 L 612.90 451.90 L 614.10 454.70 L 616.00 456.40 L 592.80 461.80 L 586.00 463.80 L 572.80 468.90 L 560.30 475.30 L 544.90 485.30 L 541.30 487.30 L 540.70 488.20 L 541.00 489.00 L 541.80 489.10 L 550.90 487.20 L 553.10 487.20 L 558.50 487.70 L 561.50 487.50 L 564.50 486.90 L 567.30 485.80 L 570.00 484.30 L 575.80 479.60 L 583.40 474.70 L 587.50 472.70 L 591.70 471.10 L 596.10 469.90 L 606.40 468.10 L 634.10 465.10 L 652.50 462.40 L 649.10 459.80 L 655.10 469.00 L 654.70 471.00 L 654.80 473.00 L 655.30 474.90 L 656.90 478.00 L 657.30 481.40 L 657.90 482.90 L 658.90 484.10 L 660.20 484.70 L 658.00 492.80 L 657.40 499.80 L 657.80 503.10 L 658.50 506.40 L 659.70 509.40 L 661.30 512.40 L 660.00 512.20 L 659.00 512.70 L 658.50 513.80 L 658.70 516.40 L 685.30 560.50 L 689.40 568.50 L 689.80 571.60 L 688.50 574.70 L 688.50 575.70 L 689.40 577.10 L 688.10 577.90 L 676.30 579.40 L 666.60 582.20 L 657.30 586.30 L 648.70 591.90 L 648.40 592.80 L 648.70 593.40 L 649.30 593.40 L 655.70 589.80 L 662.30 586.50 L 669.20 583.70 L 676.90 581.30 L 679.10 582.00 L 682.40 585.00 L 685.50 588.40 L 688.10 592.10 L 690.30 596.00 L 687.20 595.10 L 682.00 595.70 L 676.70 594.70 L 674.50 595.50 L 673.70 596.30 L 671.80 600.20 L 670.10 602.60 L 663.60 609.30 L 659.60 614.70 L 658.10 617.60 L 657.20 620.60 L 657.00 622.60 L 657.70 626.50 L 659.00 628.80 L 663.20 633.00 L 670.60 638.50 L 671.90 639.20 L 675.20 639.40 L 679.00 638.00 L 681.60 636.00 L 682.80 635.60 L 684.00 635.60 L 685.60 636.50 L 689.20 640.40 L 689.60 641.70 L 689.60 643.10 L 688.70 644.90 L 683.80 650.30 L 678.50 655.50 L 672.90 660.40 L 665.40 666.10 L 663.40 666.90 L 659.20 667.20 L 658.10 667.50 L 657.60 668.00 L 657.50 668.70 L 657.90 669.80 L 659.20 671.50 L 659.90 671.80 L 661.70 671.90 L 665.20 671.50 L 664.90 674.90 L 660.60 697.80 L 660.10 699.00 L 651.30 704.70 L 643.20 708.70 L 619.70 717.90 L 596.10 726.70 L 572.20 735.20 L 548.20 743.30 L 533.90 747.70 L 504.60 755.80 L 460.10 766.80 L 455.80 767.60 L 451.70 768.10 L 443.30 768.30 L 434.90 768.20 L 433.50 768.00 L 432.80 767.50 L 432.40 766.70 L 432.60 765.30 L 434.40 758.30 L 436.60 751.40 L 439.40 744.70 L 447.50 729.10 L 455.30 713.20 L 462.40 700.10 L 466.30 693.80 L 466.60 693.10 L 466.30 691.50 L 465.10 690.70 L 464.00 690.90 L 475.20 672.60 L 492.40 650.50 L 510.40 625.70 L 512.80 621.80 L 514.90 617.80 L 518.00 609.40 L 519.70 600.60 L 519.80 591.40 L 519.20 584.00 L 518.20 577.10 L 516.70 570.50 L 514.70 564.10 L 512.20 557.90 L 509.20 551.90 L 505.80 546.10 L 501.80 540.30 L 493.40 530.20 L 485.00 522.70 L 480.50 519.30 L 474.10 515.30 L 467.30 511.90 L 460.30 509.00 L 455.30 507.50 L 449.40 506.20 L 442.50 505.20 L 427.70 504.30 L 418.80 504.40 L 397.80 505.30 L 356.70 508.20 L 336.70 510.10 L 317.00 512.60 L 302.10 514.80 L 291.20 516.90 L 283.50 518.70 L 275.10 521.40 L 267.20 524.60 L 260.00 528.10 L 253.30 532.10 L 247.20 536.50 L 241.50 541.30 L 236.30 546.50 L 231.50 552.20 L 227.20 558.30 L 223.20 565.00 L 219.70 572.10 L 216.60 579.90 L 210.00 601.40 L 208.10 602.30 L 206.40 603.60 L 205.00 605.40 L 203.80 607.80 L 203.00 610.90 L 202.40 614.90 L 202.30 620.00 L 202.90 647.20 L 202.70 648.00 L 202.00 648.30 L 191.20 645.90 L 180.80 642.90 L 170.50 639.40 L 160.50 635.40 L 157.70 633.90 L 152.80 630.00 L 152.00 628.80 L 151.80 627.40 L 152.00 626.10 L 153.60 624.20 L 168.50 620.00 L 171.50 618.80 L 173.90 617.30 L 175.60 615.60 L 176.90 613.60 L 177.80 611.40 L 178.30 609.00 L 178.30 604.00 L 177.70 601.40 L 176.50 597.60 L 174.80 594.00 L 172.70 590.70 L 170.50 588.00 L 169.30 587.20 L 167.90 586.90 L 165.20 586.90 L 162.70 587.40 L 160.20 588.30 L 156.70 590.10 L 153.40 592.50 L 150.60 595.40 L 147.70 598.80 L 146.30 598.90 L 145.60 598.60 L 145.00 597.70 L 137.00 573.70 L 135.90 572.40 L 135.00 572.10 L 133.70 572.50 L 133.20 572.90 L 130.60 575.80 L 128.40 579.10 L 126.40 583.90 L 125.80 586.60 L 126.70 576.90 L 128.20 567.40 L 129.60 561.10 L 133.20 548.60 L 134.10 546.50 L 136.00 544.10 L 138.50 543.20 L 139.90 543.10 L 142.00 543.40 L 148.90 545.20 L 153.20 545.10 L 155.20 544.70 L 157.20 543.80 L 166.70 538.30 L 170.70 536.60 L 197.80 531.80 L 202.00 530.70 L 204.20 529.00 L 204.60 527.90 L 204.70 526.70 L 207.30 529.90 L 209.40 533.30 L 211.10 536.90 L 212.40 540.70 L 213.00 547.70 L 212.70 551.20 L 210.90 559.40 L 210.20 564.00 L 209.50 573.30 L 209.70 574.00 L 210.10 574.20 L 212.10 574.00 L 212.50 573.50 L 215.20 558.30 L 217.80 547.40 L 218.00 544.20 L 217.40 540.50 L 209.90 527.80 L 202.10 515.80 L 201.50 515.20 L 201.00 515.30 L 200.40 516.10 L 200.20 517.30 L 200.40 518.40 L 193.80 502.70 L 198.70 487.30 L 205.70 467.80 L 214.60 449.20 L 219.20 437.70 L 218.90 439.60 L 218.90 443.20 L 219.20 445.10 L 219.90 446.00 L 220.90 446.00 L 222.50 445.00 L 223.90 443.80 L 226.30 440.90 L 226.10 443.90 L 225.50 446.70 L 224.40 449.50 L 223.00 452.00 L 221.20 454.30 L 218.20 457.30 L 217.20 461.60 L 217.20 464.70 L 217.90 467.70 L 219.10 470.60 L 221.10 473.70 L 223.20 476.30 L 225.50 478.30 L 228.20 479.90 L 230.90 481.00 L 233.70 481.60 L 236.60 481.70 L 239.50 481.40 L 242.40 480.60 L 245.20 479.30 L 247.90 477.50 L 250.60 475.20 L 254.80 470.10 L 256.60 467.10 L 265.70 447.40 L 266.40 445.30 L 266.60 443.60 L 266.30 442.20 L 264.60 439.80 L 263.30 438.70 L 261.10 437.50 L 254.30 434.80 L 247.90 431.40 L 245.20 430.70 L 242.20 430.40 L 239.10 430.40 L 231.70 431.90 L 233.90 426.80 L 235.40 421.90 L 236.10 417.30 L 236.20 412.90 L 235.70 408.60 L 234.60 404.40 L 232.80 400.20 L 235.60 390.40 L 239.00 380.90 L 242.80 371.50 L 250.70 355.30 L 254.60 348.70 L 259.00 342.50 L 263.70 336.50 L 268.90 330.80 L 274.40 325.50 L 280.30 320.50 L 286.60 315.90 L 291.00 315.80 L 291.50 315.50 L 293.10 313.80 L 294.90 312.80 L 296.60 312.70 L 298.90 313.10 L 299.70 313.50 L 300.60 315.10 L 300.20 318.80 L 299.50 321.60 L 298.40 324.40 L 296.20 328.20 L 295.50 331.80 L 293.10 334.00 L 292.60 337.70 L 291.80 340.00 L 289.80 343.40 L 288.30 346.70 L 287.00 348.30 L 285.40 349.60 L 283.50 350.40 L 281.20 350.90 L 278.30 351.00 L 273.80 354.40 L 269.70 358.10 L 266.00 362.30 L 262.70 366.80 L 260.00 371.60 L 257.70 376.70 L 255.40 384.20 L 253.70 391.90 L 252.60 399.70 L 252.00 407.60 L 252.10 415.40 L 252.80 423.30 L 254.70 426.30 L 256.70 428.60 L 258.70 430.20 L 260.70 431.40 L 262.80 432.20 L 265.00 432.50 L 267.40 432.30 L 269.90 431.80 L 272.70 430.70 L 275.70 429.00 L 275.70 430.20 L 276.30 431.30 L 277.30 432.10 L 280.50 433.40 L 284.20 436.30 L 287.00 438.10 L 290.90 439.40 L 292.90 439.70 L 298.50 440.00 L 300.80 440.30 L 303.30 441.60 L 304.00 443.30 L 303.90 444.40 L 301.90 445.80 L 299.80 446.80 L 297.60 447.30 L 294.10 447.50 L 290.60 447.10 L 283.30 445.80 L 282.70 446.10 L 281.90 447.20 L 281.90 448.40 L 282.10 449.40 L 283.40 450.90 L 287.40 451.80 L 290.30 452.00 L 296.00 451.30 L 301.40 449.30 L 307.90 445.60 L 314.70 442.50 L 321.60 439.80 L 328.70 437.60 L 335.90 435.90 L 343.20 434.80 L 350.60 434.10 L 358.00 434.00 L 378.10 435.50 L 390.70 436.10 L 403.50 436.10 L 412.40 434.10 L 416.70 432.50 L 420.70 430.40 L 440.00 418.70 L 444.60 415.40 L 449.70 411.00 L 450.00 408.70 L 449.60 407.60 L 446.70 406.40 L 444.20 405.80 L 447.00 401.10 L 448.80 396.10 L 449.30 389.40 L 449.20 381.50 L 449.80 379.30 L 452.00 376.80 L 453.10 377.30 L 453.80 381.20 L 457.20 391.10 L 460.50 397.30 L 464.80 402.40 L 467.30 404.50 L 470.10 406.20 L 473.20 407.40 L 476.40 408.10 L 479.80 408.20 L 483.70 407.70 L 491.40 405.20 L 494.50 403.60 L 499.80 399.60 L 502.00 397.20 L 505.50 391.90 L 507.10 387.90 L 508.40 383.70 L 509.20 379.10 L 509.50 369.60 L 508.70 360.30 L 507.80 356.30 L 506.50 352.40 L 504.80 348.70 L 502.80 345.20 L 500.40 341.90 L 497.70 338.80 L 494.60 336.10 L 488.80 332.00 L 486.90 330.00 L 485.50 327.60 L 481.20 312.70 L 480.80 310.00 L 480.20 298.60 L 478.90 289.90 L 478.40 288.60 L 475.00 285.30 L 472.90 282.50 L 470.80 278.00 L 470.20 275.60 L 470.00 273.10 L 486.50 271.10 Z M 541.40 403.50 L 542.20 403.30 L 543.10 402.50 L 543.90 401.10 L 544.80 398.50 L 545.50 394.80 L 545.80 390.80 L 545.70 386.10 L 544.50 377.50 L 543.50 373.80 L 542.40 371.40 L 541.40 370.00 L 540.60 369.40 L 539.70 369.20 L 538.00 370.30 L 537.20 371.80 L 536.30 374.30 L 535.60 378.00 L 535.30 382.00 L 535.40 386.60 L 536.60 395.30 L 537.60 398.90 L 538.70 401.40 L 539.60 402.70 L 540.50 403.30 L 541.40 403.50 Z M 506.20 414.10 L 501.60 421.50 L 500.50 422.80 L 498.40 424.10 L 496.20 424.20 L 495.20 423.80 L 493.70 422.70 L 491.10 419.10 L 489.70 417.90 L 488.30 417.30 L 486.70 417.00 L 485.10 417.20 L 482.10 418.60 L 479.70 421.20 L 478.90 422.90 L 478.10 426.80 L 478.30 428.90 L 478.90 431.10 L 480.10 433.50 L 482.20 436.40 L 484.60 438.90 L 487.20 441.00 L 490.10 442.70 L 494.80 444.90 L 499.40 446.30 L 503.80 447.10 L 508.20 447.20 L 512.50 446.80 L 516.70 445.80 L 520.80 444.30 L 524.80 442.20 L 528.60 439.70 L 532.10 436.70 L 535.50 433.40 L 540.20 427.60 L 541.40 425.60 L 543.00 421.10 L 543.40 416.40 L 542.60 411.80 L 541.40 408.70 L 540.20 407.50 L 530.50 403.40 L 525.80 402.30 L 522.00 402.30 L 518.60 402.80 L 515.60 403.90 L 512.90 405.50 L 510.40 407.70 L 508.20 410.50 L 506.20 414.10 Z M 582.00 493.90 L 580.40 492.40 L 579.30 492.00 L 577.60 491.90 L 576.00 492.50 L 575.20 493.10 L 572.30 496.90 L 570.50 499.90 L 569.30 502.70 L 568.60 505.50 L 568.30 508.40 L 568.50 511.40 L 569.10 514.40 L 570.30 517.60 L 571.20 518.90 L 577.70 523.10 L 582.60 526.80 L 587.20 530.80 L 593.50 537.00 L 595.40 538.30 L 599.00 539.50 L 602.80 539.60 L 615.70 537.00 L 617.30 538.20 L 621.00 545.60 L 625.00 549.10 L 627.60 550.60 L 630.10 551.50 L 632.60 551.90 L 635.20 551.60 L 637.80 550.80 L 640.50 549.40 L 642.90 547.30 L 644.90 544.80 L 646.40 542.00 L 647.40 539.10 L 649.20 529.40 L 649.50 517.60 L 649.20 509.00 L 648.00 491.90 L 647.40 488.10 L 646.50 485.00 L 645.10 482.30 L 643.50 480.00 L 641.40 478.00 L 639.00 476.50 L 636.10 475.30 L 632.60 474.50 L 630.90 474.40 L 627.70 475.40 L 626.40 476.40 L 625.40 477.70 L 621.10 488.10 L 617.80 493.40 L 613.70 497.80 L 611.30 499.30 L 608.60 500.50 L 604.30 501.10 L 598.90 500.30 L 591.90 498.20 L 584.90 495.70 L 582.00 493.90 Z M 593.40 572.00 L 591.10 567.40 L 589.50 564.80 L 585.10 559.50 L 582.70 557.20 L 580.00 555.30 L 577.30 554.00 L 575.50 553.50 L 571.90 553.70 L 569.00 554.80 L 564.40 557.60 L 562.50 559.40 L 560.50 562.00 L 559.00 564.80 L 558.10 567.80 L 557.70 570.80 L 557.80 573.90 L 558.50 576.90 L 559.70 579.70 L 561.40 582.20 L 563.80 584.60 L 568.10 587.20 L 570.80 588.20 L 573.90 588.90 L 579.20 589.50 L 584.40 589.70 L 589.60 589.40 L 594.80 588.60 L 599.90 587.40 L 604.80 585.80 L 609.60 583.90 L 614.20 581.50 L 614.80 581.00 L 615.00 579.60 L 614.20 578.30 L 609.40 576.10 L 604.20 575.20 L 598.80 575.40 L 597.20 575.20 L 595.60 574.60 L 594.30 573.50 L 593.40 572.00 Z M 165.30 569.10 L 165.90 565.30 L 165.30 561.60 L 163.50 558.40 L 162.20 557.00 L 159.00 555.10 L 155.20 554.50 L 151.50 555.10 L 148.30 556.90 L 146.90 558.20 L 145.00 561.40 L 144.40 565.10 L 144.50 567.00 L 145.80 570.50 L 148.10 573.50 L 151.30 575.40 L 154.00 576.10 L 155.80 576.20 L 159.20 575.50 L 162.20 573.60 L 163.50 572.40 L 165.30 569.10 Z M 649.50 614.30 L 649.30 613.10 L 648.60 612.20 L 647.70 611.60 L 646.60 611.40 L 643.70 611.60 L 642.80 612.10 L 642.20 613.00 L 642.00 614.00 L 642.20 624.90 L 642.70 625.80 L 643.60 626.40 L 644.60 626.60 L 647.80 626.40 L 648.70 625.90 L 649.30 625.00 L 649.50 614.30 Z" fill="#fe6048" fill-rule="nonzero" node-id="92" stroke="none" target-height="497.19998" target-width="564.5" target-x="125.8" target-y="271.1"></path><path d="M 469.60 271.40 L 469.80 273.90 L 471.30 278.60 L 472.50 280.80 L 474.70 283.60 L 477.10 285.90 L 478.50 288.20 L 480.00 299.70 L 480.40 309.00 L 481.10 312.40 L 485.10 325.90 L 487.40 329.50 L 489.00 330.90 L 490.80 331.90 L 487.00 330.40 L 483.60 329.50 L 480.50 329.20 L 477.70 329.20 L 475.10 329.80 L 472.60 330.70 L 470.20 332.10 L 467.90 334.00 L 465.70 336.50 L 461.60 343.10 L 459.70 346.80 L 456.70 354.50 L 455.30 361.50 L 454.50 368.60 L 454.30 375.70 L 454.70 382.80 L 453.40 379.30 L 452.30 375.20 L 451.20 375.20 L 449.50 377.30 L 448.70 380.70 L 448.90 387.40 L 448.40 394.10 L 446.50 399.20 L 445.10 401.60 L 439.50 408.70 L 435.10 413.30 L 430.10 417.50 L 424.90 421.30 L 420.10 424.10 L 415.10 426.40 L 410.20 428.00 L 405.00 429.10 L 399.40 429.70 L 393.50 429.80 L 355.80 427.60 L 347.90 427.60 L 335.40 428.60 L 326.50 430.60 L 318.60 433.90 L 311.00 437.80 L 303.60 442.30 L 303.80 441.00 L 303.40 440.00 L 302.60 439.20 L 301.10 438.40 L 298.60 437.90 L 292.60 437.60 L 288.70 436.70 L 286.70 436.00 L 280.10 431.20 L 276.90 430.00 L 276.00 429.30 L 275.40 428.30 L 275.40 426.90 L 278.90 423.50 L 281.90 419.70 L 284.40 415.60 L 286.60 411.20 L 288.40 406.30 L 291.70 394.30 L 292.90 387.70 L 293.70 381.10 L 294.00 374.60 L 293.80 370.30 L 292.70 362.40 L 291.60 358.80 L 290.10 355.50 L 288.30 352.60 L 285.40 350.10 L 281.80 348.80 L 278.00 348.90 L 280.80 348.80 L 283.10 348.30 L 285.00 347.50 L 286.70 346.20 L 287.90 344.60 L 291.50 337.90 L 292.30 335.60 L 292.90 331.90 L 295.20 329.70 L 295.90 326.20 L 299.10 319.60 L 300.30 313.90 L 300.30 313.00 L 299.40 311.40 L 296.60 310.50 L 295.10 310.50 L 293.90 310.80 L 292.80 311.60 L 291.20 313.60 L 286.30 313.80 L 316.30 292.60 L 343.80 281.40 L 345.50 280.30 L 346.90 278.80 L 348.40 278.90 L 349.00 279.60 L 348.20 286.10 L 348.40 288.90 L 348.90 291.60 L 351.10 296.70 L 354.60 301.00 L 357.80 303.50 L 362.60 303.60 L 369.40 302.30 L 372.80 301.10 L 376.90 299.10 L 380.80 296.50 L 386.40 291.70 L 388.90 290.50 L 390.60 290.00 L 395.60 289.90 L 397.20 289.20 L 398.10 288.20 L 398.50 288.30 L 402.00 294.00 L 403.40 294.70 L 410.80 293.00 L 417.10 291.00 L 423.20 288.50 L 429.20 285.70 L 435.00 282.40 L 440.50 278.80 L 445.80 274.70 L 450.90 270.30 L 454.10 271.40 L 460.40 272.30 L 465.10 272.20 L 469.60 271.40 Z M 349.20 384.70 L 348.20 383.60 L 347.00 383.30 L 345.00 383.20 L 342.60 383.60 L 338.70 385.40 L 337.50 386.90 L 337.90 388.20 L 339.70 389.00 L 341.60 389.10 L 344.10 388.70 L 346.50 387.80 L 348.00 386.90 L 348.80 386.10 L 349.20 384.70 Z" fill="#df615d" fill-rule="nonzero" node-id="94" stroke="none" target-height="172" target-width="215.4" target-x="275.4" target-y="270.3"></path><path d="M 486.50 271.10 L 497.00 273.30 L 507.20 276.00 L 517.30 279.40 L 527.20 283.40 L 536.80 287.90 L 546.20 293.00 L 555.20 298.60 L 564.00 304.80 L 573.50 312.50 L 577.80 316.80 L 581.90 321.40 L 585.60 326.20 L 588.90 331.40 L 588.90 332.30 L 587.70 332.80 L 587.50 333.40 L 583.00 327.60 L 578.10 322.00 L 572.90 316.80 L 567.50 311.90 L 561.40 307.00 L 548.80 298.30 L 542.20 294.30 L 533.10 289.60 L 523.80 285.40 L 514.20 281.80 L 499.50 277.60 L 483.50 274.50 L 482.90 273.30 L 483.10 271.70 L 483.80 271.50 L 485.10 271.70 L 486.50 271.10 Z" fill="#ea372a" fill-rule="nonzero" node-id="96" stroke="none" target-height="62.299988" target-width="106.00003" target-x="482.9" target-y="271.1"></path><path d="M 316.30 294.00 L 286.30 315.20 L 280.10 319.80 L 274.20 324.80 L 268.70 330.10 L 263.60 335.80 L 258.70 341.80 L 254.40 348.10 L 250.40 354.60 L 246.80 361.50 L 242.50 370.80 L 238.70 380.20 L 235.30 389.80 L 232.50 399.50 L 219.10 436.70 L 215.60 445.30 L 205.60 466.80 L 198.60 486.20 L 193.70 501.70 L 191.90 498.00 L 190.70 494.20 L 190.10 490.30 L 190.00 486.10 L 190.50 481.70 L 191.70 477.00 L 193.60 472.00 L 196.30 466.50 L 197.40 465.60 L 198.20 464.50 L 198.60 463.20 L 198.60 461.90 L 198.20 460.70 L 197.80 460.30 L 193.80 459.50 L 190.60 458.50 L 182.30 453.50 L 174.30 448.20 L 166.60 442.50 L 159.30 436.50 L 150.00 427.90 L 146.30 423.40 L 145.00 422.30 L 143.00 421.70 L 142.10 422.10 L 141.40 423.00 L 140.70 422.00 L 140.50 421.00 L 140.80 419.90 L 141.60 418.80 L 142.80 418.20 L 146.20 417.70 L 153.50 417.80 L 175.10 420.50 L 177.50 420.10 L 178.40 419.50 L 179.50 418.10 L 180.00 416.50 L 179.70 414.50 L 172.10 397.00 L 170.10 389.80 L 169.40 379.30 L 169.70 372.50 L 170.80 364.90 L 172.90 362.80 L 177.70 353.70 L 182.20 344.50 L 190.60 325.60 L 192.20 323.50 L 194.50 322.50 L 196.90 322.70 L 198.20 323.40 L 199.20 324.40 L 205.50 333.10 L 212.30 341.40 L 221.10 351.10 L 226.20 358.90 L 227.80 360.70 L 229.80 362.10 L 232.10 363.00 L 234.20 363.40 L 236.10 363.40 L 238.00 362.90 L 239.70 362.00 L 241.20 360.70 L 257.30 337.30 L 265.50 327.00 L 270.60 321.30 L 276.20 316.10 L 282.10 311.30 L 288.40 307.00 L 295.00 303.00 L 301.80 299.60 L 308.90 296.50 L 316.30 294.00 Z" fill="#f0d1cd" fill-rule="nonzero" node-id="98" stroke="none" target-height="207.70001" target-width="175.79999" target-x="140.5" target-y="294"></path><path d="M 666.40 338.60 L 666.00 336.80 L 665.40 335.70 L 664.50 335.00 L 663.30 334.60 L 661.40 335.20 L 659.40 337.50 L 657.50 338.80 L 655.30 339.70 L 649.30 340.90 L 643.40 341.60 L 637.30 341.90 L 631.30 341.70 L 625.30 341.10 L 619.40 340.00 L 613.60 338.40 L 599.10 332.90 L 595.80 332.30 L 592.40 332.10 L 589.00 332.30 L 589.00 331.40 L 594.60 330.90 L 600.20 327.40 L 602.50 326.50 L 610.70 325.00 L 618.80 323.90 L 627.00 323.30 L 639.30 322.90 L 650.90 320.30 L 655.00 320.00 L 659.00 320.20 L 663.70 321.00 L 664.70 321.90 L 666.40 338.60 Z" fill="#e2917e" fill-rule="nonzero" node-id="100" stroke="none" target-height="21.899994" target-width="77.400024" target-x="589" target-y="320"></path><path d="M 491.10 332.00 L 494.50 334.50 L 497.60 337.20 L 500.30 340.30 L 502.80 343.60 L 504.80 347.10 L 506.50 350.80 L 507.80 354.70 L 508.70 358.70 L 509.40 368.00 L 509.10 377.50 L 508.30 382.10 L 507.00 386.30 L 505.40 390.30 L 503.80 393.00 L 499.70 398.00 L 494.50 402.00 L 487.70 405.00 L 483.60 406.10 L 479.70 406.60 L 476.10 406.50 L 472.90 405.80 L 469.90 404.60 L 467.10 402.90 L 464.60 400.80 L 462.30 398.40 L 458.60 392.70 L 455.90 386.30 L 455.00 382.90 L 454.70 375.80 L 454.90 368.60 L 455.70 361.50 L 457.00 354.60 L 460.00 347.00 L 463.90 339.70 L 466.00 336.60 L 468.20 334.10 L 470.50 332.20 L 472.80 330.80 L 475.30 329.90 L 477.90 329.40 L 480.80 329.30 L 483.90 329.60 L 487.30 330.50 L 491.10 332.00 Z M 492.20 372.60 L 494.80 370.90 L 495.90 369.60 L 497.20 366.20 L 497.40 362.10 L 496.50 357.70 L 495.10 354.50 L 493.30 351.90 L 490.40 349.20 L 487.30 347.80 L 484.20 348.00 L 481.60 349.70 L 480.50 351.10 L 479.20 354.40 L 479.00 358.60 L 479.90 363.20 L 481.30 366.50 L 483.00 369.00 L 484.40 370.50 L 487.30 372.40 L 488.90 372.80 L 492.20 372.60 Z M 473.00 399.00 L 474.40 400.30 L 476.00 401.30 L 477.70 401.80 L 479.60 401.90 L 488.80 401.00 L 490.90 400.60 L 492.60 399.60 L 494.10 398.20 L 495.20 396.50 L 495.80 394.50 L 496.00 392.40 L 495.50 390.50 L 494.70 388.80 L 493.40 387.30 L 480.60 376.50 L 478.90 375.90 L 477.20 375.60 L 475.40 375.80 L 473.70 376.30 L 467.90 380.70 L 466.40 382.20 L 465.50 384.00 L 465.00 386.00 L 465.00 388.00 L 465.60 390.00 L 466.80 391.90 L 473.00 399.00 Z" fill="#2c0707" fill-rule="nonzero" node-id="102" stroke="none" target-height="77.30002" target-width="54.69998" target-x="454.7" target-y="329.3"></path><path d="M 588.90 332.30 L 592.40 332.10 L 595.80 332.30 L 599.10 332.90 L 608.70 336.70 L 615.10 338.90 L 621.70 340.50 L 628.30 341.50 L 635.10 341.90 L 641.80 341.70 L 648.50 341.00 L 655.20 339.70 L 657.40 338.80 L 659.30 337.50 L 661.90 334.80 L 663.20 334.60 L 664.40 335.00 L 665.30 335.70 L 665.90 336.80 L 666.30 338.60 L 667.00 356.30 L 667.20 374.10 L 666.90 391.80 L 666.00 409.50 L 664.60 427.30 L 664.80 429.70 L 665.80 430.30 L 666.70 430.00 L 671.80 426.50 L 675.90 424.50 L 680.10 422.90 L 684.40 421.80 L 688.90 421.30 L 697.20 421.10 L 700.90 420.60 L 709.60 418.00 L 710.70 418.00 L 712.20 418.80 L 713.20 421.30 L 715.40 435.80 L 717.10 450.40 L 718.10 465.00 L 718.60 479.60 L 718.40 484.30 L 716.80 493.70 L 714.80 500.80 L 707.40 521.40 L 707.40 522.40 L 708.00 523.40 L 708.90 523.30 L 718.30 517.00 L 727.10 511.60 L 732.60 510.80 L 735.30 509.90 L 739.50 507.90 L 741.10 507.60 L 742.80 507.80 L 744.30 508.30 L 745.60 509.20 L 746.90 510.90 L 752.40 521.60 L 755.20 528.90 L 755.20 530.80 L 754.80 532.60 L 752.60 535.80 L 748.40 539.20 L 740.00 543.30 L 737.40 543.70 L 734.90 543.70 L 732.30 543.20 L 729.90 542.20 L 727.70 540.80 L 724.10 537.60 L 723.00 537.10 L 722.10 537.10 L 721.30 537.50 L 720.60 538.60 L 720.00 540.70 L 719.10 545.50 L 719.30 547.20 L 720.60 550.40 L 723.10 552.70 L 726.90 554.90 L 730.60 556.60 L 734.20 557.60 L 738.00 558.20 L 741.90 558.40 L 745.80 558.20 L 751.60 557.20 L 757.60 555.70 L 763.60 553.70 L 773.00 549.80 L 779.40 545.90 L 785.50 540.00 L 788.30 536.70 L 792.20 531.40 L 798.90 520.00 L 801.70 514.40 L 803.80 509.20 L 808.70 492.70 L 812.80 481.80 L 813.40 480.90 L 814.40 480.40 L 815.40 480.20 L 816.50 480.40 L 817.40 481.00 L 818.90 483.10 L 821.10 487.90 L 821.80 493.00 L 821.70 495.60 L 820.10 503.80 L 818.10 511.80 L 815.50 519.70 L 812.40 527.30 L 808.80 534.80 L 804.80 542.00 L 800.30 549.00 L 795.40 555.70 L 791.60 559.80 L 787.50 563.70 L 783.20 567.10 L 778.60 570.30 L 773.80 573.10 L 768.80 575.50 L 763.60 577.60 L 758.20 579.20 L 753.70 580.00 L 749.30 580.20 L 744.80 580.00 L 740.40 579.40 L 736.10 578.20 L 729.40 575.90 L 728.30 575.90 L 727.90 576.40 L 728.10 577.50 L 731.30 582.60 L 730.20 581.70 L 730.30 582.70 L 730.00 583.70 L 727.50 584.40 L 726.60 584.20 L 719.20 579.40 L 712.80 574.70 L 706.70 569.60 L 700.80 564.10 L 695.30 558.20 L 692.80 555.80 L 691.80 555.40 L 691.50 555.60 L 691.60 556.70 L 693.30 562.10 L 693.10 563.80 L 692.50 565.00 L 691.30 565.90 L 689.30 566.50 L 685.20 558.50 L 680.70 550.80 L 659.20 515.60 L 658.50 514.10 L 658.40 512.50 L 658.90 510.70 L 659.30 510.30 L 661.20 510.40 L 669.20 517.60 L 670.30 518.00 L 671.50 517.00 L 675.20 509.60 L 677.00 510.20 L 679.70 512.10 L 681.20 514.20 L 684.70 522.00 L 686.00 524.50 L 687.50 526.50 L 691.60 529.80 L 694.10 531.00 L 695.00 530.90 L 696.30 529.90 L 701.20 521.30 L 702.10 518.30 L 701.50 515.40 L 699.50 513.00 L 695.00 509.30 L 688.60 503.20 L 685.40 498.60 L 681.40 490.50 L 678.00 485.10 L 678.10 483.80 L 681.60 480.30 L 682.70 478.70 L 683.70 476.10 L 683.20 474.70 L 678.20 468.30 L 677.90 467.30 L 678.30 464.30 L 678.10 462.60 L 677.50 460.90 L 676.60 459.40 L 675.30 458.20 L 673.70 457.30 L 672.20 456.80 L 669.30 457.20 L 668.00 457.90 L 655.40 467.60 L 649.70 458.40 L 650.40 456.50 L 651.50 454.40 L 653.30 452.20 L 655.30 450.20 L 662.00 444.90 L 662.10 444.00 L 661.70 443.20 L 660.20 442.50 L 657.40 443.90 L 655.20 444.50 L 653.10 444.50 L 651.00 444.00 L 648.80 442.80 L 646.50 440.90 L 631.30 424.90 L 627.80 423.00 L 625.90 422.70 L 624.10 422.80 L 622.20 423.50 L 620.20 424.80 L 618.50 426.60 L 617.20 428.60 L 616.50 430.90 L 615.80 435.20 L 615.70 439.50 L 616.20 443.80 L 618.40 448.20 L 618.90 450.00 L 618.90 452.00 L 618.30 454.20 L 617.00 456.70 L 617.00 455.80 L 615.70 454.80 L 614.70 453.60 L 614.00 452.00 L 613.60 449.90 L 613.80 442.80 L 613.60 438.30 L 610.20 409.40 L 608.90 399.80 L 607.10 390.20 L 604.80 380.80 L 601.30 368.70 L 597.30 356.80 L 592.90 345.00 L 587.90 333.30 L 587.50 333.00 L 588.90 332.30 Z M 635.80 382.10 L 633.10 381.80 L 631.00 382.10 L 629.10 382.90 L 627.50 384.10 L 626.40 385.60 L 625.60 387.30 L 625.30 389.10 L 625.50 391.00 L 626.20 393.00 L 627.40 394.70 L 629.20 396.30 L 631.80 397.80 L 637.30 399.90 L 643.00 401.60 L 649.00 402.90 L 651.10 403.00 L 652.50 402.70 L 653.40 402.00 L 654.00 401.10 L 654.10 399.70 L 653.60 397.50 L 651.20 392.50 L 649.60 390.30 L 645.80 386.50 L 641.10 383.70 L 635.80 382.10 Z" fill="#6c3d4f" fill-rule="nonzero" node-id="104" stroke="none" target-height="252.30002" target-width="234.29999" target-x="587.5" target-y="332.1"></path><g node-id="229"><path d="M 496.40 357.60 L 497.20 362.10 L 496.90 366.20 L 495.60 369.60 L 493.40 372.00 L 491.90 372.70 L 490.30 372.90 L 487.10 372.40 L 484.10 370.50 L 482.60 369.00 L 480.30 365.40 L 478.90 360.80 L 478.60 356.60 L 478.90 354.50 L 480.20 351.20 L 482.50 348.80 L 483.90 348.10 L 485.50 347.80 L 487.10 347.90 L 490.30 349.20 L 493.20 351.80 L 494.40 353.50 L 496.40 357.60 Z" fill="#f6f7f9" fill-rule="nonzero" group-id="2" node-id="108" stroke="none" target-height="25.100006" target-width="18.600006" target-x="478.6" target-y="347.8"></path></g><path d="M 287.10 412.10 L 285.40 407.00 L 284.20 404.50 L 282.80 402.10 L 280.60 399.70 L 279.20 398.90 L 276.10 398.30 L 270.40 399.40 L 267.20 400.70 L 264.70 402.30 L 262.80 404.20 L 261.40 406.30 L 260.50 408.70 L 259.20 415.60 L 258.30 423.70 L 257.80 424.20 L 257.10 424.40 L 255.90 424.20 L 254.20 422.00 L 253.10 422.40 L 252.40 414.50 L 252.30 406.70 L 252.90 398.80 L 254.00 391.00 L 255.70 383.30 L 258.00 375.80 L 260.30 370.60 L 263.00 365.80 L 266.30 361.30 L 270.00 357.20 L 274.10 353.50 L 278.60 350.10 L 282.40 350.00 L 284.30 350.50 L 286.00 351.30 L 288.90 353.80 L 290.70 356.60 L 292.10 359.80 L 293.20 363.50 L 294.40 371.30 L 294.50 375.60 L 294.20 382.10 L 293.40 388.70 L 292.20 395.20 L 290.70 401.30 L 287.10 412.10 Z M 271.40 390.70 L 273.80 390.90 L 275.20 390.50 L 277.30 389.30 L 279.40 387.40 L 281.20 385.10 L 282.80 382.10 L 284.00 378.90 L 284.60 376.00 L 284.60 373.10 L 284.10 370.90 L 283.50 369.50 L 281.70 367.80 L 279.30 367.50 L 277.90 367.90 L 275.80 369.00 L 273.70 371.00 L 271.90 373.40 L 270.30 376.40 L 269.10 379.60 L 268.50 382.60 L 268.40 385.40 L 268.80 387.70 L 269.50 389.10 L 271.40 390.70 Z" fill="#2c0707" fill-rule="nonzero" node-id="111" stroke="none" target-height="74.399994" target-width="42.199997" target-x="252.3" target-y="350"></path><g node-id="230"><path d="M 281.20 367.80 L 283.10 369.40 L 283.70 370.80 L 284.20 373.10 L 284.20 375.90 L 283.60 378.90 L 282.50 382.10 L 280.90 385.10 L 279.00 387.50 L 277.00 389.50 L 274.90 390.70 L 272.30 391.20 L 271.10 390.90 L 269.20 389.20 L 268.60 387.90 L 268.10 385.60 L 268.10 382.70 L 268.70 379.80 L 269.80 376.50 L 271.50 373.50 L 273.30 371.10 L 275.40 369.20 L 277.40 368.00 L 278.80 367.50 L 281.20 367.80 Z" fill="#f6f7f9" fill-rule="nonzero" group-id="3" node-id="115" stroke="none" target-height="23.700012" target-width="16.100006" target-x="268.1" target-y="367.5"></path></g><g node-id="231"><path d="M 545.90 386.20 L 545.90 390.90 L 544.90 398.60 L 544.10 401.10 L 543.20 402.60 L 542.40 403.30 L 541.60 403.60 L 540.80 403.40 L 538.90 401.40 L 537.80 398.90 L 536.80 395.30 L 536.10 391.30 L 535.70 386.60 L 536.00 377.90 L 536.70 374.30 L 537.50 371.70 L 538.40 370.20 L 539.20 369.50 L 540.00 369.20 L 540.80 369.40 L 541.70 370.10 L 542.70 371.40 L 543.80 373.90 L 544.80 377.50 L 545.50 381.50 L 545.90 386.20 Z" fill="#2c0707" fill-rule="nonzero" group-id="4" node-id="120" stroke="none" target-height="34.399994" target-width="10.200012" target-x="535.7" target-y="369.2"></path></g><path d="M 473.00 399.00 L 466.70 391.60 L 465.50 389.80 L 464.90 387.80 L 464.90 385.80 L 465.30 383.80 L 466.20 382.00 L 467.60 380.40 L 473.50 376.00 L 475.10 375.50 L 476.90 375.30 L 478.70 375.60 L 480.40 376.20 L 493.10 387.00 L 494.50 388.60 L 495.30 390.40 L 495.80 392.40 L 495.70 394.40 L 495.10 396.30 L 494.00 398.20 L 491.70 400.00 L 488.90 400.80 L 479.70 401.70 L 477.90 401.60 L 476.10 401.10 L 474.50 400.30 L 473.00 399.00 Z" fill="#b14f59" fill-rule="nonzero" node-id="123" stroke="none" target-height="26.400024" target-width="30.899994" target-x="464.9" target-y="375.3"></path><path d="M 631.80 397.80 L 629.20 396.30 L 627.40 394.70 L 626.20 393.00 L 625.50 391.00 L 625.30 389.10 L 625.60 387.30 L 626.40 385.50 L 627.50 384.10 L 629.10 382.90 L 631.00 382.10 L 633.10 381.80 L 635.80 382.10 L 641.10 383.70 L 645.70 386.50 L 647.60 388.20 L 650.90 392.50 L 653.20 397.50 L 653.70 399.70 L 653.60 401.10 L 653.20 402.00 L 652.30 402.70 L 650.90 403.00 L 648.60 402.90 L 642.90 401.60 L 637.30 399.90 L 631.80 397.80 Z" fill="#97485e" fill-rule="nonzero" node-id="125" stroke="none" target-height="21.200012" target-width="28.400024" target-x="625.3" target-y="381.8"></path><g node-id="232"><path d="M 349.20 384.50 L 348.80 386.10 L 348.00 386.90 L 346.40 388.00 L 344.10 388.80 L 341.70 389.20 L 339.80 389.00 L 337.90 388.10 L 337.60 386.70 L 338.80 385.00 L 340.40 384.00 L 342.70 383.20 L 345.10 382.80 L 347.00 383.00 L 348.10 383.30 L 349.20 384.50 Z" fill="#a7343f" fill-rule="nonzero" group-id="5" node-id="129" stroke="none" target-height="6.4000244" target-width="11.600006" target-x="337.6" target-y="382.8"></path></g><path d="M 287.10 412.10 L 284.90 416.50 L 282.40 420.60 L 279.40 424.40 L 275.90 427.80 L 272.90 429.60 L 270.10 430.70 L 267.60 431.30 L 265.30 431.40 L 263.10 431.10 L 261.00 430.30 L 258.90 429.10 L 256.90 427.40 L 254.90 425.10 L 253.00 422.10 L 253.50 421.70 L 253.90 421.80 L 255.30 423.60 L 256.30 424.20 L 257.80 423.90 L 258.20 423.40 L 260.40 408.40 L 261.30 406.00 L 262.70 403.90 L 264.60 402.00 L 267.10 400.40 L 270.30 399.10 L 276.00 398.00 L 279.10 398.70 L 280.50 399.50 L 282.70 401.80 L 284.60 405.10 L 286.10 408.50 L 287.10 412.10 Z" fill="#c33935" fill-rule="nonzero" node-id="132" stroke="none" target-height="33.399994" target-width="34.100006" target-x="253" target-y="398"></path><path d="M 232.50 399.50 L 234.10 403.00 L 235.20 406.60 L 235.90 410.30 L 236.00 414.10 L 235.70 418.00 L 234.80 422.20 L 233.40 426.50 L 231.40 431.20 L 226.00 439.80 L 223.60 442.70 L 222.20 443.90 L 219.80 445.20 L 219.30 445.00 L 218.90 444.00 L 218.50 440.30 L 218.90 436.60 L 232.50 399.50 Z" fill="#760906" fill-rule="nonzero" node-id="134" stroke="none" target-height="45.700012" target-width="17.5" target-x="218.5" target-y="399.5"></path><path d="M 506.20 414.10 L 508.20 410.50 L 510.30 407.70 L 512.80 405.50 L 515.40 403.80 L 518.40 402.70 L 521.70 402.10 L 525.40 402.10 L 530.10 403.20 L 540.10 407.50 L 540.90 408.20 L 542.20 411.60 L 543.00 416.20 L 542.50 420.90 L 541.00 425.40 L 538.30 429.30 L 535.10 433.10 L 531.80 436.50 L 528.20 439.40 L 524.40 441.90 L 520.40 444.00 L 516.40 445.50 L 512.10 446.60 L 507.80 447.00 L 503.30 446.90 L 496.70 445.50 L 493.20 444.20 L 486.80 440.80 L 484.20 438.60 L 481.80 436.10 L 479.70 433.30 L 478.50 430.90 L 477.90 428.70 L 477.70 426.70 L 478.50 422.70 L 479.40 421.10 L 481.80 418.40 L 484.80 417.00 L 486.40 416.80 L 488.00 417.10 L 489.40 417.70 L 490.70 418.90 L 493.30 422.50 L 494.80 423.60 L 495.80 424.00 L 498.00 423.90 L 500.10 422.60 L 503.30 418.90 L 506.20 414.10 Z" fill="#fe8964" fill-rule="nonzero" node-id="136" stroke="none" target-height="44.899994" target-width="65.29999" target-x="477.7" target-y="402.1"></path><path d="M 443.90 404.40 L 449.00 406.10 L 449.60 407.00 L 449.80 408.10 L 449.60 409.20 L 449.00 410.10 L 444.30 414.20 L 435.00 420.60 L 420.40 429.00 L 416.40 431.10 L 412.10 432.70 L 407.70 433.90 L 403.20 434.70 L 393.70 434.70 L 384.20 434.40 L 358.50 432.60 L 351.80 432.70 L 345.20 433.10 L 338.70 434.00 L 332.10 435.30 L 325.70 437.00 L 319.50 439.10 L 313.30 441.60 L 298.80 449.00 L 293.20 450.40 L 287.40 450.40 L 283.50 449.50 L 282.10 448.10 L 281.90 446.10 L 282.50 444.90 L 283.90 444.40 L 294.10 445.90 L 297.60 445.70 L 299.80 445.30 L 301.90 444.40 L 311.30 438.60 L 318.90 434.70 L 326.80 431.30 L 335.70 429.30 L 348.20 428.30 L 356.10 428.30 L 393.80 430.40 L 399.70 430.30 L 405.30 429.70 L 410.50 428.70 L 415.40 427.10 L 420.40 424.80 L 425.20 422.00 L 430.40 418.20 L 435.40 413.90 L 439.90 409.30 L 443.90 404.40 Z" fill="#ea372a" fill-rule="nonzero" node-id="138" stroke="none" target-height="46" target-width="167.9" target-x="281.9" target-y="404.4"></path><path d="M 196.20 466.70 L 185.60 460.30 L 175.20 453.40 L 165.20 446.10 L 155.30 438.40 L 150.10 433.70 L 145.20 428.40 L 140.70 422.70 L 141.50 421.80 L 142.30 421.40 L 143.30 421.60 L 144.90 422.60 L 151.60 429.90 L 157.40 435.20 L 169.80 445.20 L 176.30 449.90 L 189.90 458.20 L 193.10 459.30 L 197.10 460.10 L 197.80 461.00 L 198.20 463.30 L 198.00 464.70 L 197.30 465.90 L 196.20 466.70 Z" fill="#ce9b79" fill-rule="nonzero" node-id="140" stroke="none" target-height="45.30002" target-width="57.5" target-x="140.7" target-y="421.4"></path><path d="M 648.90 459.30 L 652.30 461.90 L 649.50 459.40 L 646.50 457.40 L 643.40 455.90 L 640.10 454.80 L 636.50 454.10 L 633.00 453.90 L 625.20 454.70 L 620.90 455.70 L 616.30 457.30 L 617.40 455.20 L 618.30 451.80 L 617.60 448.60 L 615.90 445.70 L 615.00 441.20 L 615.10 434.70 L 616.50 429.20 L 617.80 427.20 L 619.50 425.40 L 621.50 424.10 L 623.70 423.40 L 625.80 423.40 L 627.90 423.90 L 630.10 425.10 L 632.40 427.20 L 645.80 441.50 L 648.10 443.50 L 650.30 444.60 L 652.40 445.20 L 654.50 445.10 L 656.70 444.50 L 659.50 442.90 L 660.60 443.00 L 661.50 444.40 L 661.30 445.20 L 655.80 449.80 L 652.60 453.00 L 650.90 455.30 L 648.90 459.30 Z" fill="#b14f59" fill-rule="nonzero" node-id="142" stroke="none" target-height="38.5" target-width="46.5" target-x="615" target-y="423.4"></path><path d="M 225.90 440.10 L 231.30 431.50 L 235.20 430.60 L 241.70 430.10 L 244.70 430.40 L 247.40 431.00 L 249.90 432.10 L 253.90 434.40 L 260.70 437.20 L 264.20 439.50 L 265.90 441.90 L 266.20 443.30 L 266.00 445.00 L 265.30 447.00 L 257.60 463.60 L 254.40 469.50 L 252.40 472.30 L 250.20 474.80 L 247.50 477.10 L 244.80 478.90 L 242.00 480.20 L 239.10 481.00 L 236.20 481.30 L 233.30 481.20 L 230.50 480.60 L 227.80 479.50 L 225.10 477.90 L 222.80 475.90 L 220.70 473.30 L 218.70 470.20 L 217.50 467.30 L 216.90 464.30 L 216.90 461.20 L 217.30 458.20 L 217.80 456.90 L 222.60 451.20 L 224.00 448.70 L 225.10 446.00 L 225.70 443.10 L 225.90 440.10 Z" fill="#fe8964" fill-rule="nonzero" node-id="144" stroke="none" target-height="51.19998" target-width="49.30002" target-x="216.9" target-y="430.1"></path><path d="M 838.60 583.40 L 836.70 584.80 L 834.80 586.80 L 833.10 589.60 L 830.60 596.60 L 829.40 601.40 L 828.50 603.80 L 827.10 606.00 L 825.20 607.90 L 821.70 610.20 L 819.50 613.60 L 816.20 617.30 L 812.00 620.10 L 808.30 621.80 L 804.30 626.30 L 797.50 632.40 L 793.70 635.10 L 784.50 640.10 L 782.80 642.10 L 779.10 644.50 L 775.40 649.00 L 771.70 654.60 L 770.30 655.90 L 768.50 656.80 L 767.20 657.00 L 764.80 656.00 L 763.40 654.80 L 761.90 654.80 L 758.60 659.70 L 755.00 664.00 L 748.10 669.50 L 744.30 671.70 L 726.60 679.20 L 713.40 684.40 L 700.90 688.80 L 697.10 690.50 L 690.00 694.40 L 686.30 695.90 L 666.20 702.30 L 665.00 701.60 L 664.60 701.10 L 664.60 700.20 L 667.30 678.50 L 667.20 677.00 L 666.20 675.10 L 664.10 674.20 L 664.40 670.80 L 672.00 665.50 L 678.20 660.80 L 683.10 656.50 L 689.90 649.30 L 692.60 645.50 L 696.60 637.90 L 698.00 634.10 L 699.40 628.80 L 700.40 623.30 L 701.00 617.80 L 701.40 609.40 L 701.10 599.90 L 699.90 599.30 L 696.70 599.40 L 691.30 598.70 L 690.10 598.00 L 689.60 596.70 L 689.60 595.30 L 693.70 595.70 L 694.90 595.00 L 697.90 589.60 L 698.40 587.90 L 696.30 582.00 L 693.60 576.70 L 691.90 575.60 L 690.90 575.50 L 689.00 576.20 L 688.40 575.40 L 688.10 574.50 L 689.20 571.20 L 689.00 567.60 L 691.00 567.00 L 692.20 566.10 L 692.90 564.90 L 693.00 563.20 L 691.30 557.80 L 691.20 556.70 L 691.50 556.50 L 692.50 556.90 L 704.40 568.80 L 709.40 573.10 L 717.20 579.20 L 725.60 584.80 L 727.40 585.40 L 728.30 585.40 L 729.60 584.80 L 730.00 583.80 L 729.90 582.80 L 729.00 580.50 L 727.70 578.50 L 727.30 577.40 L 727.50 576.90 L 728.00 576.60 L 729.20 576.70 L 735.80 579.00 L 740.10 580.20 L 744.50 580.80 L 749.00 581.00 L 753.40 580.80 L 757.90 580.00 L 763.30 578.40 L 768.50 576.40 L 773.50 574.00 L 778.30 571.20 L 782.90 568.00 L 787.20 564.50 L 791.30 560.70 L 795.10 556.50 L 800.00 549.80 L 804.50 542.90 L 808.50 535.70 L 812.10 528.20 L 815.20 520.50 L 817.80 512.70 L 819.80 504.70 L 821.40 496.40 L 821.50 491.20 L 820.20 486.10 L 817.70 481.50 L 816.80 480.90 L 815.70 480.70 L 814.60 480.90 L 813.70 481.50 L 813.10 482.40 L 809.00 493.00 L 806.30 502.70 L 802.00 515.00 L 796.00 526.50 L 792.50 532.00 L 785.80 540.60 L 779.70 546.50 L 777.40 548.10 L 770.00 551.90 L 757.90 556.30 L 751.90 557.90 L 746.10 558.80 L 742.20 559.00 L 738.30 558.80 L 734.50 558.20 L 730.90 557.20 L 727.20 555.50 L 723.40 553.30 L 720.90 550.90 L 719.60 547.80 L 719.40 546.20 L 720.30 541.30 L 721.00 539.20 L 721.70 538.10 L 722.50 537.60 L 723.30 537.60 L 724.50 538.20 L 727.90 541.40 L 730.10 542.70 L 732.50 543.60 L 735.00 544.10 L 737.50 544.10 L 740.00 543.60 L 738.50 546.30 L 738.00 547.90 L 738.00 548.80 L 738.40 549.40 L 739.20 549.60 L 742.80 548.90 L 751.40 544.70 L 752.50 543.80 L 754.80 539.00 L 757.10 535.50 L 757.80 534.80 L 758.80 534.60 L 760.00 534.90 L 770.20 539.70 L 771.60 539.80 L 772.60 539.40 L 773.30 538.60 L 773.70 537.20 L 776.80 534.10 L 779.50 530.70 L 781.80 527.10 L 783.70 523.20 L 784.70 518.70 L 784.40 513.30 L 783.50 507.40 L 783.60 504.70 L 784.00 503.10 L 784.90 501.50 L 786.30 500.00 L 788.00 498.80 L 790.60 497.50 L 794.30 496.30 L 795.20 495.80 L 795.80 495.10 L 796.00 493.70 L 795.30 489.60 L 795.10 485.60 L 795.50 481.50 L 796.50 477.50 L 798.00 473.70 L 801.90 466.90 L 804.70 460.30 L 806.30 453.30 L 806.60 449.70 L 806.30 445.70 L 806.80 444.80 L 810.50 444.70 L 813.10 445.30 L 815.70 446.50 L 818.00 448.00 L 822.40 451.80 L 826.30 455.90 L 829.90 460.50 L 833.00 465.30 L 835.80 470.30 L 838.20 475.60 L 841.80 486.70 L 843.00 492.40 L 844.40 503.80 L 844.60 521.60 L 844.20 533.90 L 843.40 546.30 L 840.50 571.00 L 838.60 583.40 Z M 808.00 605.70 L 808.50 605.00 L 808.60 603.50 L 808.30 601.60 L 806.70 596.60 L 805.40 593.70 L 802.30 588.60 L 800.70 586.60 L 799.40 585.30 L 797.70 584.40 L 797.10 584.50 L 796.40 585.60 L 796.60 588.60 L 797.40 591.10 L 799.70 596.50 L 801.20 599.30 L 804.40 603.60 L 805.80 604.90 L 807.20 605.70 L 808.00 605.70 Z M 762.20 621.80 L 764.00 623.10 L 766.00 624.00 L 768.20 624.40 L 770.50 624.40 L 775.20 623.20 L 779.50 620.40 L 781.60 618.40 L 783.30 616.10 L 785.50 611.40 L 786.00 608.90 L 786.10 606.60 L 785.80 604.30 L 785.10 602.20 L 784.00 600.40 L 782.50 598.70 L 780.70 597.40 L 778.70 596.50 L 776.50 596.10 L 774.20 596.10 L 771.90 596.60 L 767.30 598.60 L 763.10 602.10 L 761.30 604.30 L 760.10 606.60 L 758.70 611.40 L 759.00 616.00 L 759.70 618.20 L 760.70 620.10 L 762.20 621.80 Z M 721.90 640.10 L 726.80 638.10 L 729.60 635.60 L 730.70 633.50 L 731.30 631.20 L 731.30 628.70 L 730.00 623.80 L 727.10 619.10 L 722.50 614.50 L 720.50 613.90 L 718.90 614.10 L 717.20 615.40 L 712.50 621.90 L 711.20 624.30 L 709.60 629.00 L 709.30 631.40 L 709.60 633.70 L 710.40 636.10 L 711.50 638.00 L 712.90 639.40 L 714.60 640.20 L 716.60 640.60 L 719.00 640.60 L 721.90 640.10 Z" fill="#e54a3e" fill-rule="nonzero" node-id="146" stroke="none" target-height="257.59998" target-width="180.5" target-x="664.1" target-y="444.7"></path><path d="M 652.40 461.90 L 634.00 464.50 L 606.30 467.60 L 596.00 469.40 L 591.60 470.70 L 583.40 474.30 L 575.80 479.10 L 569.90 484.00 L 567.30 485.40 L 564.50 486.50 L 561.60 487.10 L 558.60 487.20 L 553.00 486.70 L 550.70 486.80 L 541.70 488.60 L 540.90 488.40 L 540.60 487.70 L 541.20 486.80 L 544.90 484.90 L 554.20 478.50 L 560.20 474.80 L 566.40 471.40 L 572.70 468.40 L 585.90 463.30 L 599.60 459.60 L 615.90 455.90 L 615.90 456.80 L 625.20 454.30 L 629.40 453.80 L 633.10 453.70 L 636.70 453.90 L 640.20 454.70 L 643.50 455.80 L 646.60 457.40 L 649.60 459.40 L 652.40 461.90 Z" fill="#ffd9bf" fill-rule="nonzero" node-id="148" stroke="none" target-height="34.899994" target-width="111.80005" target-x="540.6" target-y="453.7"></path><path d="M 675.00 510.80 L 676.00 508.80 L 676.50 506.60 L 676.50 504.40 L 674.60 497.70 L 671.90 491.50 L 668.40 487.60 L 666.30 486.20 L 658.50 483.20 L 657.60 482.00 L 657.00 480.50 L 656.50 477.20 L 654.80 474.10 L 654.30 472.20 L 654.30 470.20 L 654.70 468.20 L 667.30 458.50 L 670.00 457.50 L 673.00 457.90 L 674.60 458.80 L 675.90 460.00 L 676.80 461.50 L 677.40 463.10 L 677.60 464.90 L 677.30 468.50 L 683.10 476.50 L 683.10 477.10 L 681.70 480.00 L 680.20 482.00 L 677.60 484.00 L 677.40 485.10 L 677.60 485.80 L 681.00 491.00 L 686.50 501.10 L 690.20 505.60 L 700.20 514.40 L 701.00 515.70 L 701.60 518.60 L 700.80 521.60 L 695.90 530.20 L 694.50 531.30 L 692.80 531.10 L 689.70 529.20 L 685.70 525.10 L 681.00 515.40 L 679.50 513.30 L 676.80 511.40 L 675.00 510.80 Z" fill="#b14f59" fill-rule="nonzero" node-id="150" stroke="none" target-height="73.79999" target-width="47.299988" target-x="654.3" target-y="457.5"></path><path d="M 584.60 495.60 L 598.60 500.20 L 601.40 500.80 L 604.00 500.90 L 608.40 500.20 L 611.10 499.00 L 613.50 497.50 L 617.60 493.10 L 620.80 487.90 L 624.30 479.30 L 625.10 477.70 L 626.10 476.40 L 627.40 475.40 L 630.60 474.40 L 632.30 474.40 L 635.80 475.30 L 638.70 476.50 L 641.10 478.00 L 643.20 479.90 L 644.90 482.20 L 646.20 484.90 L 647.10 488.10 L 648.40 500.40 L 649.10 526.10 L 647.80 535.90 L 646.10 542.10 L 644.60 544.90 L 642.60 547.30 L 640.20 549.30 L 637.50 550.70 L 634.90 551.50 L 632.30 551.80 L 629.80 551.40 L 627.30 550.50 L 624.70 549.00 L 620.80 545.50 L 617.00 538.10 L 616.20 537.20 L 614.70 537.00 L 605.50 539.00 L 600.80 539.60 L 597.00 539.00 L 595.20 538.20 L 593.30 536.90 L 587.00 530.60 L 582.40 526.70 L 571.00 518.80 L 570.00 517.50 L 568.80 514.30 L 568.20 511.30 L 568.00 508.30 L 568.30 505.40 L 569.00 502.60 L 570.20 499.80 L 572.00 496.80 L 575.00 492.90 L 577.00 491.90 L 578.70 491.80 L 580.30 492.40 L 583.20 495.00 L 584.60 495.60 Z" fill="#6c3d4f" fill-rule="nonzero" node-id="152" stroke="none" target-height="77.399994" target-width="81.099976" target-x="568" target-y="474.4"></path><path d="M 158.10 484.20 L 157.30 487.00 L 156.40 488.20 L 155.20 489.10 L 152.40 489.90 L 150.90 489.70 L 148.40 488.20 L 146.90 485.70 L 146.70 484.20 L 146.90 482.70 L 148.40 480.20 L 149.60 479.30 L 152.40 478.50 L 155.20 479.30 L 156.40 480.20 L 157.30 481.40 L 158.10 484.20 Z" fill="#ffc156" fill-rule="nonzero" node-id="154" stroke="none" target-height="11.399994" target-width="11.400009" target-x="146.7" target-y="478.5"></path><path d="M 660.10 483.90 L 663.70 484.90 L 666.50 486.10 L 668.70 487.60 L 672.10 491.40 L 674.90 497.60 L 676.40 502.20 L 676.80 504.40 L 676.80 506.60 L 676.30 508.80 L 671.60 518.20 L 670.70 519.00 L 669.40 518.80 L 661.30 511.30 L 659.60 508.20 L 658.30 504.80 L 657.60 501.30 L 657.30 497.50 L 657.60 493.30 L 658.50 488.80 L 660.10 483.90 Z" fill="#f88b79" fill-rule="nonzero" node-id="156" stroke="none" target-height="35.100006" target-width="19.5" target-x="657.3" target-y="483.9"></path><path d="M 773.90 536.80 L 773.30 538.30 L 772.60 539.10 L 771.60 539.50 L 770.20 539.30 L 760.20 534.50 L 758.60 534.40 L 757.30 535.10 L 755.70 537.20 L 752.60 543.50 L 751.60 544.30 L 745.70 547.40 L 742.10 548.80 L 740.10 549.20 L 739.00 549.10 L 738.40 548.60 L 738.30 547.70 L 738.70 546.10 L 740.20 543.20 L 745.70 540.80 L 751.30 537.30 L 754.10 534.20 L 755.00 532.60 L 755.40 530.80 L 755.40 528.80 L 754.80 526.60 L 747.40 511.40 L 745.40 508.90 L 742.50 507.70 L 741.00 507.60 L 739.40 508.00 L 733.10 510.70 L 727.40 511.50 L 741.40 500.10 L 742.80 499.40 L 744.40 499.20 L 745.90 499.70 L 747.70 501.60 L 759.20 527.90 L 765.80 529.70 L 768.30 530.90 L 770.50 532.60 L 772.40 534.50 L 773.90 536.80 Z" fill="#f4c5a9" fill-rule="nonzero" node-id="158" stroke="none" target-height="50" target-width="46.5" target-x="727.4" target-y="499.2"></path><path d="M 474.50 672.40 L 453.90 680.80 L 443.40 684.60 L 422.10 691.40 L 411.30 694.40 L 396.10 698.10 L 380.90 701.40 L 365.70 704.30 L 350.30 706.60 L 334.90 708.60 L 319.50 710.10 L 304.00 711.10 L 288.50 711.70 L 273.00 711.90 L 257.40 711.60 L 239.10 710.40 L 229.10 710.20 L 218.20 697.00 L 214.40 688.70 L 211.30 680.30 L 208.80 671.60 L 206.80 662.70 L 206.40 650.50 L 206.40 638.40 L 206.90 626.40 L 207.90 614.40 L 209.40 602.40 L 216.10 580.80 L 219.30 572.90 L 222.80 565.70 L 226.80 559.00 L 231.20 552.90 L 236.00 547.20 L 241.20 542.00 L 246.90 537.20 L 253.00 532.90 L 259.70 528.90 L 266.80 525.40 L 274.60 522.30 L 282.90 519.70 L 290.60 517.90 L 301.50 515.80 L 316.40 513.60 L 336.10 511.10 L 356.10 509.10 L 376.50 507.50 L 397.10 506.20 L 427.70 505.30 L 436.00 505.60 L 443.20 506.30 L 449.50 507.20 L 455.00 508.50 L 459.70 510.00 L 470.10 514.40 L 479.90 520.20 L 488.70 527.20 L 496.60 535.50 L 501.20 541.30 L 505.20 547.10 L 508.60 552.90 L 511.60 559.00 L 514.10 565.20 L 516.10 571.60 L 517.60 578.10 L 518.60 585.00 L 519.30 596.90 L 518.40 605.90 L 517.40 610.30 L 516.00 614.60 L 512.20 622.80 L 509.80 626.70 L 474.50 672.40 Z M 350.30 549.70 L 351.80 550.40 L 353.50 550.80 L 355.30 550.70 L 359.10 549.60 L 362.90 547.00 L 366.30 543.10 L 368.70 538.60 L 369.70 534.10 L 369.50 530.10 L 368.80 528.30 L 367.90 526.90 L 366.60 525.70 L 365.10 524.90 L 363.40 524.50 L 359.70 525.00 L 357.80 525.80 L 354.00 528.40 L 350.60 532.30 L 348.20 536.80 L 347.20 541.30 L 347.40 545.20 L 348.10 547.00 L 349.00 548.50 L 350.30 549.70 Z M 315.70 549.10 L 313.20 548.40 L 311.30 548.30 L 309.70 548.60 L 308.20 549.40 L 307.00 550.50 L 306.10 551.90 L 305.10 554.40 L 304.70 557.20 L 304.80 560.10 L 306.00 564.00 L 307.30 565.20 L 308.60 565.30 L 310.30 564.80 L 313.10 562.90 L 315.40 560.50 L 316.60 558.70 L 318.30 554.50 L 318.60 552.50 L 317.30 550.30 L 315.70 549.10 Z M 306.00 614.90 L 307.20 622.80 L 308.20 624.40 L 313.40 629.20 L 319.50 632.70 L 326.10 634.90 L 333.10 635.60 L 337.40 635.00 L 341.60 634.00 L 348.80 631.40 L 354.30 628.50 L 357.60 626.00 L 360.80 623.40 L 369.00 615.40 L 371.20 613.90 L 373.30 612.90 L 376.60 612.10 L 379.90 611.90 L 390.10 611.80 L 393.80 611.00 L 397.50 609.60 L 400.90 607.80 L 404.00 605.70 L 406.90 603.30 L 409.50 600.50 L 411.70 597.50 L 413.70 594.30 L 415.30 590.70 L 416.50 589.50 L 418.20 589.30 L 422.70 590.20 L 427.20 590.60 L 429.40 590.30 L 431.60 589.60 L 435.40 587.60 L 438.60 585.30 L 441.20 582.80 L 443.30 580.00 L 445.00 577.00 L 446.20 573.70 L 447.00 570.00 L 447.20 565.90 L 447.00 561.30 L 446.60 560.50 L 445.50 560.20 L 444.10 561.90 L 442.50 570.20 L 441.70 572.90 L 439.20 577.70 L 437.60 579.80 L 435.60 581.60 L 433.20 583.10 L 430.30 584.10 L 427.50 584.60 L 424.50 584.60 L 413.50 582.20 L 405.80 580.00 L 404.00 580.20 L 402.70 581.40 L 401.60 589.00 L 400.70 592.60 L 399.40 596.00 L 398.10 598.00 L 396.60 599.60 L 394.70 600.90 L 389.50 602.80 L 384.20 604.30 L 378.80 605.20 L 371.70 605.50 L 369.00 604.40 L 366.80 602.90 L 365.90 602.90 L 364.60 603.80 L 357.60 613.90 L 353.90 618.80 L 349.80 623.00 L 346.80 625.40 L 343.60 627.40 L 340.00 628.90 L 337.30 629.60 L 334.20 629.90 L 330.90 629.80 L 327.10 629.30 L 323.40 628.30 L 320.30 626.80 L 317.50 625.00 L 315.10 622.70 L 313.20 620.00 L 311.60 616.90 L 310.30 613.30 L 309.20 608.40 L 308.90 608.00 L 307.40 607.90 L 304.20 609.90 L 300.80 611.40 L 297.20 612.60 L 293.60 613.20 L 291.30 613.10 L 289.10 612.60 L 287.10 611.60 L 284.90 609.90 L 283.10 608.10 L 281.80 606.00 L 280.80 603.70 L 280.10 598.60 L 280.80 590.60 L 276.10 595.70 L 272.10 599.40 L 267.80 602.70 L 263.30 605.60 L 258.50 608.00 L 251.40 610.40 L 247.40 610.30 L 245.40 609.60 L 244.50 609.00 L 244.00 608.10 L 243.80 607.00 L 244.00 605.90 L 245.30 603.30 L 246.00 600.50 L 245.60 598.00 L 244.90 596.70 L 243.90 597.70 L 242.10 602.90 L 241.60 607.60 L 241.90 609.80 L 242.70 611.60 L 244.00 613.20 L 246.80 614.60 L 251.50 615.10 L 255.50 614.70 L 259.40 613.90 L 263.30 612.60 L 267.00 611.00 L 270.50 608.90 L 274.40 606.10 L 274.90 606.10 L 275.80 606.80 L 282.30 615.50 L 283.80 616.90 L 288.00 619.30 L 290.80 620.20 L 296.90 620.90 L 298.30 620.70 L 304.40 616.00 L 305.60 614.20 L 305.90 614.30 L 306.00 614.90 Z" fill="#fef2e1" fill-rule="nonzero" node-id="160" stroke="none" target-height="206.60004" target-width="312.9" target-x="206.4" target-y="505.3"></path><path d="M 204.20 526.00 L 199.90 517.70 L 199.90 515.40 L 200.50 514.60 L 201.00 514.60 L 201.60 515.10 L 209.40 527.10 L 216.20 538.30 L 217.30 541.50 L 217.30 546.70 L 214.70 557.80 L 212.00 572.70 L 210.80 573.50 L 209.20 573.30 L 209.00 572.60 L 209.70 563.20 L 212.00 550.50 L 212.30 543.50 L 211.90 540.00 L 210.20 534.80 L 206.80 529.10 L 204.20 526.00 Z" fill="#ea372a" fill-rule="nonzero" node-id="162" stroke="none" target-height="58.900024" target-width="17.40001" target-x="199.9" target-y="514.6"></path><g node-id="233"><path d="M 366.90 525.50 L 368.20 526.80 L 369.20 528.50 L 369.80 530.50 L 370.00 532.80 L 369.00 537.90 L 366.50 542.90 L 364.70 545.20 L 360.60 548.70 L 358.40 549.90 L 356.10 550.60 L 354.10 550.80 L 352.10 550.50 L 350.50 549.70 L 349.10 548.40 L 348.10 546.80 L 347.60 544.80 L 347.40 542.40 L 348.40 537.40 L 350.90 532.30 L 354.60 528.10 L 356.80 526.50 L 359.00 525.30 L 361.20 524.60 L 363.30 524.40 L 365.20 524.70 L 366.90 525.50 Z" fill="#fe6037" fill-rule="nonzero" group-id="6" node-id="166" stroke="none" target-height="26.399963" target-width="22.600006" target-x="347.4" target-y="524.4"></path></g><path d="M 305.40 562.60 L 304.80 560.00 L 304.70 557.10 L 305.10 554.30 L 306.10 551.80 L 307.00 550.30 L 308.20 549.20 L 309.70 548.40 L 311.30 548.10 L 313.20 548.20 L 315.70 548.90 L 317.00 549.60 L 317.90 550.90 L 318.40 552.30 L 318.30 554.30 L 317.60 556.40 L 316.60 558.40 L 313.90 561.90 L 310.30 564.60 L 308.20 565.30 L 306.60 564.60 L 305.40 562.60 Z" fill="#fe6048" fill-rule="nonzero" node-id="169" stroke="none" target-height="17.200012" target-width="13.699982" target-x="304.7" target-y="548.1"></path><path d="M 593.40 572.00 L 594.30 573.60 L 596.60 575.10 L 604.20 574.80 L 606.80 575.10 L 611.90 576.70 L 614.20 578.00 L 615.00 579.20 L 615.00 579.90 L 614.50 581.00 L 609.50 583.70 L 604.60 585.70 L 599.70 587.30 L 594.60 588.50 L 589.40 589.20 L 584.20 589.40 L 579.10 589.20 L 570.80 587.90 L 568.10 587.00 L 563.80 584.30 L 561.40 582.00 L 559.70 579.40 L 558.50 576.60 L 557.80 573.60 L 557.70 570.60 L 558.10 567.50 L 559.00 564.50 L 560.50 561.70 L 562.50 559.10 L 564.40 557.30 L 569.00 554.50 L 571.90 553.40 L 575.40 553.20 L 577.20 553.70 L 579.90 555.00 L 582.50 557.00 L 585.00 559.40 L 589.30 564.80 L 593.40 572.00 Z" fill="#7d434d" fill-rule="nonzero" node-id="171" stroke="none" target-height="36.200012" target-width="57.299988" target-x="557.7" target-y="553.2"></path><g node-id="234"><path d="M 157.70 556.10 L 159.70 556.90 L 163.00 559.50 L 164.20 561.20 L 165.10 563.10 L 165.50 565.00 L 165.60 567.10 L 165.20 569.10 L 164.40 570.90 L 163.30 572.60 L 161.90 574.00 L 160.10 575.10 L 158.10 575.90 L 154.00 576.30 L 151.90 575.90 L 149.90 575.10 L 146.50 572.50 L 145.30 570.80 L 144.40 568.90 L 144.00 566.90 L 143.90 564.90 L 144.30 562.90 L 145.10 561.00 L 146.20 559.40 L 147.70 557.90 L 149.40 556.80 L 151.40 556.10 L 153.40 555.70 L 157.70 556.10 Z" fill="#b14f59" fill-rule="nonzero" group-id="7" node-id="175" stroke="none" target-height="20.599976" target-width="21.700012" target-x="143.9" target-y="555.7"></path></g><path d="M 304.60 614.30 L 299.70 618.30 L 298.40 619.00 L 297.10 619.20 L 294.00 619.00 L 288.10 617.70 L 285.50 616.40 L 282.50 613.80 L 276.00 605.10 L 275.30 604.50 L 274.20 604.80 L 270.70 607.50 L 267.30 609.50 L 263.60 611.20 L 259.80 612.50 L 255.80 613.30 L 251.70 613.70 L 247.10 613.30 L 244.30 611.80 L 243.00 610.30 L 242.20 608.40 L 241.80 606.20 L 242.30 601.50 L 243.10 598.80 L 244.80 595.60 L 245.20 595.40 L 245.60 595.60 L 246.20 599.10 L 245.50 601.90 L 243.80 605.60 L 243.90 606.70 L 245.30 608.50 L 249.30 609.50 L 251.30 609.40 L 258.40 606.90 L 263.20 604.50 L 267.80 601.60 L 272.10 598.40 L 276.10 594.80 L 280.70 590.00 L 281.10 589.90 L 280.30 597.80 L 281.20 602.90 L 282.10 605.20 L 283.50 607.30 L 285.20 609.20 L 287.30 610.80 L 289.30 611.80 L 291.50 612.30 L 293.80 612.30 L 297.40 611.80 L 301.00 610.60 L 307.30 607.40 L 308.80 607.40 L 309.60 608.30 L 310.50 612.70 L 311.80 616.40 L 313.40 619.50 L 315.30 622.10 L 317.70 624.30 L 320.50 626.20 L 323.60 627.60 L 327.30 628.60 L 331.00 629.10 L 334.40 629.20 L 337.40 628.90 L 340.20 628.20 L 343.70 626.70 L 347.00 624.70 L 350.00 622.30 L 354.10 618.10 L 365.40 602.60 L 366.10 602.30 L 367.70 602.50 L 369.20 603.70 L 371.90 604.80 L 378.90 604.50 L 384.30 603.60 L 389.70 602.10 L 394.90 600.20 L 396.80 598.90 L 398.40 597.30 L 399.60 595.30 L 401.00 592.00 L 401.90 588.30 L 402.90 581.30 L 403.30 580.30 L 404.60 579.30 L 406.10 579.30 L 413.80 581.60 L 424.80 583.80 L 427.80 583.80 L 430.70 583.30 L 433.50 582.40 L 435.80 580.90 L 437.70 579.10 L 439.30 577.00 L 441.30 573.40 L 442.70 569.50 L 444.60 560.40 L 445.80 559.50 L 446.60 559.60 L 447.30 560.60 L 447.50 565.20 L 447.20 569.30 L 446.50 573.00 L 445.20 576.30 L 443.60 579.30 L 441.40 582.10 L 438.80 584.60 L 435.70 586.90 L 431.90 588.90 L 429.70 589.60 L 425.20 589.80 L 418.50 588.60 L 416.90 588.90 L 415.60 590.00 L 412.50 596.10 L 408.30 601.40 L 403.20 605.80 L 400.30 607.60 L 394.10 610.30 L 390.30 611.10 L 380.10 611.10 L 376.90 611.40 L 373.60 612.20 L 371.50 613.20 L 369.30 614.70 L 361.00 622.60 L 354.60 627.80 L 352.60 629.10 L 348.30 631.10 L 339.80 633.80 L 333.40 634.90 L 329.90 634.70 L 323.10 633.30 L 316.70 630.40 L 313.70 628.50 L 308.50 623.70 L 307.40 621.40 L 306.30 614.20 L 305.60 614.00 L 304.60 614.30 Z" fill="#ffa490" fill-rule="nonzero" node-id="178" stroke="none" target-height="75.400024" target-width="205.7" target-x="241.8" target-y="559.5"></path><path d="M 209.60 601.70 L 208.30 611.70 L 206.80 631.90 L 206.50 641.90 L 207.00 662.00 L 206.40 663.50 L 205.60 664.00 L 203.00 654.80 L 202.30 653.70 L 201.30 653.10 L 183.50 648.40 L 174.50 645.50 L 165.60 642.10 L 159.90 639.50 L 149.30 633.50 L 144.40 629.90 L 140.00 626.00 L 136.00 621.80 L 133.40 618.30 L 131.10 614.60 L 129.20 610.60 L 127.60 606.30 L 126.40 601.90 L 125.60 597.10 L 125.30 591.90 L 125.50 586.20 L 126.60 582.40 L 128.20 578.80 L 130.30 575.50 L 132.90 572.50 L 133.70 572.00 L 135.40 572.00 L 136.30 572.50 L 136.90 573.40 L 144.90 597.40 L 145.80 598.40 L 146.50 598.60 L 147.60 598.30 L 153.30 592.10 L 156.60 589.70 L 160.10 587.90 L 162.60 587.00 L 165.10 586.50 L 167.80 586.50 L 169.20 586.90 L 170.40 587.60 L 172.60 590.30 L 174.70 593.70 L 176.40 597.30 L 177.70 601.10 L 178.50 606.20 L 177.90 611.00 L 177.00 613.20 L 175.60 615.20 L 173.90 616.90 L 171.50 618.40 L 168.40 619.60 L 154.40 623.60 L 153.10 624.30 L 152.20 625.40 L 151.70 626.70 L 151.80 628.20 L 152.70 629.90 L 157.70 633.80 L 160.40 635.30 L 170.40 639.30 L 180.60 642.80 L 191.00 645.80 L 201.60 648.20 L 202.40 648.00 L 202.70 647.00 L 202.10 619.80 L 202.30 614.80 L 202.90 610.80 L 203.90 607.70 L 205.00 605.50 L 206.30 603.80 L 207.90 602.60 L 209.60 601.70 Z" fill="#b14f59" fill-rule="nonzero" node-id="180" stroke="none" target-height="92" target-width="84.3" target-x="125.3" target-y="572"></path><path d="M 690.40 595.50 L 688.30 591.60 L 685.70 588.00 L 682.70 584.60 L 679.20 581.50 L 677.00 580.80 L 669.30 583.30 L 662.40 586.10 L 655.80 589.30 L 649.20 593.00 L 648.80 592.90 L 648.30 591.70 L 652.70 588.40 L 657.10 585.80 L 666.30 581.60 L 671.10 580.10 L 676.10 578.90 L 687.10 577.60 L 690.50 576.00 L 692.10 576.00 L 693.30 576.70 L 694.10 577.70 L 696.40 582.40 L 698.40 587.40 L 698.60 588.80 L 695.10 595.50 L 693.90 596.10 L 690.40 595.50 Z" fill="#ffbca9" fill-rule="nonzero" node-id="182" stroke="none" target-height="20.099976" target-width="50.299988" target-x="648.3" target-y="576"></path><path d="M 838.60 583.40 L 835.20 598.40 L 829.10 616.60 L 821.80 635.10 L 818.30 642.20 L 814.30 649.20 L 797.70 673.10 L 784.80 690.30 L 777.80 698.50 L 770.60 706.10 L 765.60 710.90 L 760.40 715.30 L 746.30 725.60 L 730.90 737.90 L 722.80 743.80 L 713.70 749.30 L 695.10 759.40 L 676.00 768.40 L 666.20 772.40 L 607.30 787.60 L 570.40 800.20 L 560.30 801.50 L 550.10 802.30 L 539.80 802.70 L 519.80 802.30 L 495.20 802.60 L 488.30 802.20 L 483.10 800.70 L 481.10 800.50 L 463.30 800.80 L 463.00 800.10 L 463.00 798.20 L 461.80 796.10 L 460.20 794.40 L 449.40 788.40 L 440.60 784.10 L 431.80 780.20 L 428.40 776.50 L 428.10 776.40 L 428.90 777.90 L 427.80 775.00 L 427.10 772.00 L 426.80 768.90 L 427.20 765.90 L 428.60 759.70 L 430.50 753.70 L 432.60 747.90 L 448.30 715.90 L 457.90 698.70 L 463.20 690.70 L 464.40 690.50 L 465.40 691.30 L 465.70 692.00 L 465.50 693.60 L 457.90 706.30 L 438.60 744.50 L 435.80 751.20 L 433.60 758.00 L 431.80 765.10 L 431.80 766.50 L 432.10 767.30 L 432.80 767.80 L 434.10 768.00 L 442.50 768.10 L 450.90 768.00 L 455.00 767.50 L 503.80 755.60 L 533.10 747.50 L 547.40 743.10 L 595.20 726.50 L 618.90 717.70 L 642.40 708.50 L 650.70 704.50 L 654.70 702.10 L 659.30 698.70 L 659.80 697.60 L 664.10 674.70 L 665.40 675.00 L 666.40 675.80 L 667.00 676.90 L 667.30 678.50 L 664.60 700.70 L 665.00 702.10 L 665.60 702.50 L 667.20 702.70 L 676.80 699.30 L 686.60 696.40 L 690.30 694.90 L 698.70 690.20 L 720.40 682.40 L 744.70 672.00 L 752.00 667.30 L 755.30 664.50 L 758.90 660.30 L 762.20 655.20 L 763.20 654.90 L 763.90 655.00 L 765.10 656.20 L 767.50 657.20 L 768.80 657.00 L 770.60 655.90 L 772.10 654.60 L 775.60 649.20 L 779.40 644.70 L 783.10 642.20 L 784.80 640.20 L 790.10 637.70 L 794.10 635.40 L 797.80 632.80 L 801.30 629.80 L 804.60 626.60 L 808.70 621.90 L 812.30 620.30 L 816.50 617.50 L 819.80 613.80 L 821.90 610.50 L 825.30 608.30 L 827.20 606.50 L 828.70 604.20 L 829.70 601.60 L 830.90 596.00 L 832.20 591.70 L 833.70 588.50 L 835.20 586.10 L 836.90 584.50 L 838.60 583.40 Z M 763.30 678.70 L 763.50 676.10 L 763.30 673.80 L 763.00 672.90 L 762.50 672.90 L 751.50 705.70 L 752.60 705.90 L 754.20 705.00 L 754.80 704.20 L 757.60 698.00 L 759.90 691.70 L 761.80 685.30 L 763.30 678.70 Z M 486.50 798.80 L 516.20 801.40 L 516.80 800.80 L 516.70 799.40 L 515.20 797.10 L 513.20 795.60 L 510.40 794.30 L 507.20 793.30 L 500.50 792.50 L 496.70 792.40 L 493.40 792.80 L 490.30 793.60 L 488.10 794.60 L 486.90 795.60 L 485.90 797.60 L 486.00 798.60 L 486.50 798.80 Z" fill="#c33935" fill-rule="nonzero" node-id="184" stroke="none" target-height="219.29999" target-width="411.8" target-x="426.8" target-y="583.4"></path><g node-id="235"><path d="M 805.20 593.50 L 806.60 596.50 L 808.30 601.60 L 808.40 604.90 L 807.90 605.60 L 807.10 605.60 L 804.40 603.60 L 801.20 599.20 L 799.60 596.30 L 798.30 593.40 L 796.50 588.20 L 796.30 586.40 L 796.40 584.90 L 796.90 584.20 L 797.70 584.20 L 800.40 586.30 L 803.60 590.60 L 805.20 593.50 Z" fill="#7d434d" fill-rule="nonzero" group-id="8" node-id="188" stroke="none" target-height="21.399963" target-width="12.100037" target-x="796.3" target-y="584.2"></path></g><path d="M 690.40 595.50 L 690.60 597.70 L 692.10 598.90 L 697.50 599.60 L 700.40 599.50 L 701.50 599.90 L 702.10 600.60 L 702.30 609.30 L 701.90 617.70 L 701.40 623.20 L 700.30 628.70 L 698.90 634.00 L 697.40 637.80 L 693.40 645.40 L 690.70 649.20 L 684.00 656.40 L 672.80 665.40 L 665.20 670.70 L 661.70 671.10 L 659.90 671.00 L 659.20 670.70 L 657.90 669.00 L 657.50 668.00 L 657.60 667.30 L 658.10 666.80 L 663.40 666.10 L 665.40 665.30 L 673.00 659.60 L 678.60 654.70 L 683.80 649.50 L 688.70 644.10 L 689.50 642.90 L 689.80 641.70 L 689.60 640.40 L 688.80 638.90 L 688.40 638.90 L 684.80 635.50 L 683.70 635.10 L 682.40 635.10 L 677.20 638.40 L 675.30 638.90 L 673.20 638.90 L 671.90 638.70 L 670.60 638.00 L 663.20 632.50 L 659.00 628.30 L 657.70 626.00 L 657.00 622.10 L 657.20 620.10 L 658.10 617.10 L 659.60 614.20 L 661.40 611.40 L 663.60 608.80 L 670.10 602.10 L 671.80 599.60 L 673.10 596.90 L 674.60 595.10 L 675.70 594.60 L 677.30 594.30 L 682.00 595.30 L 687.30 594.70 L 690.40 595.50 Z" fill="#6c3d4f" fill-rule="nonzero" node-id="191" stroke="none" target-height="76.79999" target-width="45.299988" target-x="657" target-y="594.3"></path><g node-id="236"><path d="M 782.80 598.70 L 784.40 600.50 L 785.50 602.70 L 786.20 605.10 L 786.30 607.80 L 785.90 610.60 L 785.00 613.30 L 783.60 615.90 L 781.80 618.30 L 779.60 620.50 L 777.20 622.10 L 774.60 623.40 L 771.90 624.10 L 769.20 624.30 L 766.70 624.00 L 764.40 623.10 L 762.40 621.70 L 760.80 619.90 L 759.60 617.70 L 759.00 615.30 L 758.90 612.60 L 759.30 609.80 L 760.20 607.10 L 761.50 604.50 L 763.40 602.00 L 765.60 599.90 L 768.00 598.30 L 770.60 597.00 L 773.30 596.30 L 776.00 596.10 L 778.50 596.40 L 780.80 597.30 L 782.80 598.70 Z" fill="#7d434d" fill-rule="nonzero" group-id="9" node-id="195" stroke="none" target-height="28.200012" target-width="27.399963" target-x="758.9" target-y="596.1"></path></g><path d="M 641.80 623.80 L 641.80 614.40 L 642.10 613.20 L 642.70 612.30 L 643.70 611.70 L 644.90 611.50 L 647.80 611.80 L 648.70 612.40 L 649.30 613.40 L 649.50 614.60 L 649.50 624.00 L 649.20 625.20 L 648.60 626.10 L 647.60 626.70 L 646.40 626.90 L 643.50 626.60 L 642.60 626.00 L 642.00 625.00 L 641.80 623.80 Z" fill="#b14f59" fill-rule="nonzero" node-id="198" stroke="none" target-height="15.400024" target-width="7.700012" target-x="641.8" target-y="611.5"></path><path d="M 723.30 615.20 L 727.10 619.20 L 730.00 624.00 L 731.40 628.90 L 731.40 631.30 L 730.80 633.50 L 729.70 635.60 L 728.50 636.90 L 724.70 639.20 L 721.90 640.10 L 718.90 640.60 L 716.40 640.50 L 714.40 640.00 L 712.80 639.20 L 711.40 637.90 L 710.20 636.10 L 709.40 633.60 L 709.10 631.20 L 709.30 628.80 L 710.90 624.10 L 714.40 618.70 L 717.50 614.90 L 718.30 614.30 L 719.30 613.90 L 720.90 613.80 L 722.50 614.40 L 723.30 615.20 Z" fill="#7d434d" fill-rule="nonzero" node-id="200" stroke="none" target-height="26.799988" target-width="22.300049" target-x="709.1" target-y="613.8"></path><path d="M 207.00 662.40 L 209.00 671.30 L 211.50 680.00 L 214.70 688.50 L 220.40 701.60 L 225.60 711.10 L 232.00 719.90 L 242.50 731.00 L 249.80 737.70 L 257.40 743.80 L 265.30 749.50 L 273.60 754.80 L 282.00 759.50 L 290.80 763.80 L 299.80 767.50 L 309.00 770.70 L 318.40 773.40 L 327.90 775.50 L 337.70 777.10 L 362.30 780.20 L 369.70 780.90 L 386.10 781.00 L 386.90 781.40 L 387.30 782.00 L 387.30 782.90 L 386.40 785.90 L 386.20 787.70 L 386.30 791.40 L 380.30 797.40 L 375.40 801.40 L 304.80 802.30 L 306.50 801.70 L 307.40 800.90 L 307.40 799.70 L 306.30 798.60 L 289.20 792.30 L 285.20 790.40 L 275.10 783.80 L 269.10 779.40 L 263.40 774.60 L 234.40 746.50 L 230.50 740.50 L 227.00 734.30 L 223.90 727.90 L 221.30 721.20 L 219.00 714.20 L 218.20 710.30 L 217.50 703.00 L 205.30 664.20 L 206.60 663.40 L 207.00 662.40 Z" fill="#cf4847" fill-rule="nonzero" node-id="202" stroke="none" target-height="139.89996" target-width="181.99998" target-x="205.3" target-y="662.4"></path><path d="M 763.30 678.70 L 761.90 685.30 L 759.90 691.80 L 757.40 698.00 L 753.80 705.00 L 751.80 705.90 L 751.30 705.70 L 751.20 705.30 L 761.80 673.80 L 762.40 672.80 L 762.60 672.80 L 763.30 674.90 L 763.30 678.70 Z" fill="#760906" fill-rule="nonzero" node-id="204" stroke="none" target-height="33.100037" target-width="12.099976" target-x="751.2" target-y="672.8"></path><path d="M 474.50 672.40 L 463.30 690.70 L 457.90 698.80 L 453.00 707.20 L 448.30 715.90 L 435.30 742.20 L 430.70 753.90 L 427.30 765.90 L 427.10 768.90 L 427.30 772.00 L 427.90 775.00 L 429.00 777.90 L 405.00 778.60 L 384.10 777.50 L 359.30 776.70 L 348.80 775.70 L 338.10 774.10 L 327.50 771.90 L 317.10 769.10 L 306.70 765.80 L 296.60 761.80 L 286.70 757.30 L 277.10 752.30 L 270.20 748.10 L 263.40 743.60 L 257.00 738.70 L 250.80 733.60 L 244.80 728.20 L 239.30 722.40 L 234.00 716.30 L 229.10 709.90 L 257.40 711.30 L 273.00 711.60 L 288.50 711.40 L 304.00 710.80 L 319.40 709.80 L 334.90 708.30 L 350.30 706.30 L 365.60 704.00 L 380.90 701.10 L 396.10 697.80 L 422.10 691.20 L 443.40 684.60 L 453.90 680.80 L 474.50 672.40 Z" fill="#f4c5a9" fill-rule="nonzero" node-id="206" stroke="none" target-height="106.19995" target-width="245.4" target-x="229.1" target-y="672.4"></path><path d="M 218.50 696.70 L 234.00 716.50 L 239.30 722.60 L 244.90 728.40 L 250.80 733.90 L 257.00 739.00 L 263.50 743.80 L 270.20 748.30 L 277.20 752.50 L 286.80 757.60 L 296.60 762.10 L 306.80 766.00 L 317.10 769.40 L 327.60 772.10 L 338.10 774.30 L 348.80 775.90 L 359.30 776.90 L 379.50 777.40 L 409.00 778.80 L 429.00 778.10 L 428.30 776.50 L 431.90 780.40 L 400.20 781.50 L 398.40 781.80 L 396.40 782.70 L 391.70 785.90 L 386.20 791.50 L 386.20 787.90 L 387.20 783.00 L 386.80 781.50 L 386.00 781.10 L 369.60 781.00 L 337.60 777.20 L 327.80 775.60 L 318.20 773.40 L 308.80 770.70 L 299.60 767.40 L 290.60 763.70 L 281.80 759.40 L 273.30 754.70 L 265.10 749.40 L 257.20 743.70 L 249.60 737.60 L 242.40 731.00 L 235.50 724.00 L 228.70 715.50 L 222.90 706.40 L 218.50 696.70 Z" fill="#a7343f" fill-rule="nonzero" node-id="208" stroke="none" target-height="94.79999" target-width="213.4" target-x="218.5" target-y="696.7"></path><path d="M 867.40 732.70 L 859.20 732.30 L 852.70 731.50 L 847.60 730.40 L 843.70 729.10 L 840.80 727.60 L 836.60 724.70 L 832.70 721.40 L 829.00 717.80 L 823.60 711.80 L 821.40 710.10 L 818.90 708.90 L 816.30 707.90 L 810.50 707.00 L 806.00 706.90 L 797.20 708.00 L 790.50 709.60 L 787.60 709.80 L 784.70 709.50 L 781.90 708.70 L 826.20 698.70 L 827.70 698.50 L 829.20 698.60 L 831.90 700.10 L 850.40 714.50 L 854.20 717.70 L 862.70 726.70 L 867.40 732.70 Z" fill="#baa4ab" fill-rule="nonzero" node-id="210" stroke="none" target-height="34.200012" target-width="85.5" target-x="781.9" target-y="698.5"></path><path d="M 867.40 732.70 L 874.30 747.90 L 884.10 773.30 L 895.80 795.30 L 898.60 801.10 L 898.50 802.10 L 897.70 803.10 L 894.20 803.80 L 887.10 804.40 L 824.00 804.80 L 756.80 804.70 L 728.90 803.40 L 722.60 801.80 L 720.80 800.10 L 720.20 797.60 L 723.50 787.30 L 726.70 779.20 L 730.20 771.30 L 734.10 763.70 L 738.80 756.10 L 741.50 752.50 L 749.10 743.80 L 771.00 717.30 L 774.20 714.10 L 781.30 708.40 L 784.10 709.20 L 787.00 709.50 L 789.90 709.30 L 796.60 707.70 L 805.40 706.60 L 809.90 706.60 L 815.70 707.60 L 820.80 709.80 L 823.00 711.50 L 828.40 717.50 L 832.00 721.10 L 836.00 724.30 L 840.20 727.30 L 846.60 729.90 L 851.10 731.00 L 861.00 732.30 L 867.40 732.70 Z" fill="#958a9c" fill-rule="nonzero" node-id="212" stroke="none" target-height="98.20001" target-width="178.39996" target-x="720.2" target-y="706.6"></path><path d="M 234.50 746.50 L 246.60 758.00 L 258.00 769.40 L 263.50 774.50 L 275.30 783.80 L 285.30 790.40 L 289.30 792.30 L 299.90 795.90 L 306.40 798.60 L 307.50 799.70 L 307.60 800.60 L 307.30 801.20 L 304.90 802.30 L 290.00 802.00 L 286.50 801.20 L 284.50 800.50 L 283.50 799.70 L 283.10 799.00 L 283.10 798.30 L 276.00 791.60 L 255.70 774.30 L 250.70 769.30 L 246.00 764.00 L 241.80 758.50 L 238.00 752.60 L 234.50 746.50 Z" fill="#a7343f" fill-rule="nonzero" node-id="214" stroke="none" target-height="55.799988" target-width="73.100006" target-x="234.5" target-y="746.5"></path><path d="M 666.10 772.50 L 667.70 774.10 L 673.50 775.50 L 674.70 776.20 L 681.30 783.00 L 684.10 786.70 L 686.50 790.70 L 688.60 794.90 L 690.60 800.30 L 690.30 801.20 L 689.00 802.50 L 621.70 802.50 L 616.00 794.20 L 614.20 790.20 L 613.30 789.10 L 610.70 787.80 L 606.90 787.60 L 666.10 772.50 Z" fill="#baa4ab" fill-rule="nonzero" node-id="216" stroke="none" target-height="30" target-width="83.69995" target-x="606.9" target-y="772.5"></path><path d="M 432.10 779.90 L 445.30 786.10 L 458.40 792.80 L 460.30 794.10 L 461.90 795.80 L 463.30 797.90 L 461.50 798.90 L 459.70 799.20 L 452.10 798.80 L 435.10 799.80 L 418.10 800.20 L 401.00 800.00 L 384.00 799.40 L 381.20 798.80 L 380.50 798.00 L 380.30 797.10 L 390.20 786.90 L 393.50 784.10 L 396.20 782.30 L 398.40 781.40 L 416.40 780.40 L 432.10 779.90 Z" fill="#f6f7f9" fill-rule="nonzero" node-id="218" stroke="none" target-height="20.299988" target-width="83" target-x="380.3" target-y="779.9"></path><path d="M 607.20 787.40 L 609.80 787.50 L 611.80 787.90 L 613.30 788.70 L 614.40 789.90 L 616.30 794.00 L 622.00 802.30 L 618.40 802.90 L 614.60 802.90 L 599.50 801.40 L 596.20 801.30 L 589.40 802.40 L 585.10 802.50 L 580.80 802.00 L 575.60 800.10 L 573.90 799.90 L 570.50 800.00 L 607.20 787.40 Z" fill="#feebe5" fill-rule="nonzero" node-id="220" stroke="none" target-height="15.5" target-width="51.5" target-x="570.5" target-y="787.4"></path><path d="M 486.20 798.80 L 485.80 798.60 L 485.60 797.90 L 486.60 795.80 L 487.80 794.90 L 490.00 793.80 L 493.10 793.00 L 496.40 792.60 L 500.20 792.80 L 506.90 793.60 L 510.10 794.50 L 512.90 795.80 L 514.90 797.30 L 515.90 798.50 L 516.50 800.80 L 516.30 801.50 L 515.90 801.70 L 486.20 798.80 Z" fill="#fbb2b1" fill-rule="nonzero" node-id="222" stroke="none" target-height="9.100037" target-width="30.899994" target-x="485.6" target-y="792.6"></path><path d="M 283.10 797.70 L 283.00 798.50 L 283.40 799.20 L 284.40 800.00 L 286.40 800.70 L 290.00 801.40 L 229.70 804.00 L 228.90 803.70 L 228.60 802.70 L 230.40 801.40 L 232.10 800.70 L 266.00 799.00 L 283.10 797.70 Z" fill="#f0d1cd" fill-rule="nonzero" node-id="224" stroke="none" target-height="6.299988" target-width="61.399994" target-x="228.6" target-y="797.7"></path><path d="M 380.40 797.10 L 380.60 798.00 L 381.30 798.80 L 382.30 799.20 L 401.10 800.00 L 418.20 800.10 L 435.20 799.70 L 452.20 798.80 L 459.60 799.20 L 461.40 798.90 L 463.40 797.90 L 463.30 799.80 L 463.70 800.50 L 464.30 800.50 L 462.60 801.40 L 460.90 801.60 L 443.70 801.70 L 410.00 803.00 L 398.50 802.80 L 387.00 802.00 L 375.60 800.70 L 380.40 797.10 Z" fill="#fbb2b1" fill-rule="nonzero" node-id="226" stroke="none" target-height="5.9000244" target-width="88.69998" target-x="375.6" target-y="797.1"></path></svg>