<svg height="1024" node-id="1" sillyvg="true" template-height="1024" template-width="1024" version="1.1" viewBox="0 0 1024 1024" width="1024" xmlns="http://www.w3.org/2000/svg" xmlns:xlink="http://www.w3.org/1999/xlink"><defs node-id="71"></defs><path d="M 531.90 267.50 L 527.80 270.60 L 526.50 272.40 L 524.70 276.60 L 523.20 278.40 L 520.30 280.50 L 517.30 282.00 L 514.00 283.00 L 492.90 285.30 L 479.70 285.90 L 478.70 285.80 L 475.80 284.40 L 470.70 283.90 L 468.10 282.20 L 466.50 281.60 L 464.80 281.40 L 462.00 281.70 L 458.70 281.00 L 456.60 281.20 L 454.60 282.00 L 452.80 283.30 L 462.20 271.90 L 472.10 260.80 L 485.70 246.30 L 490.20 239.50 L 493.60 235.30 L 495.60 233.40 L 497.70 232.00 L 499.50 231.30 L 501.20 231.20 L 502.90 231.60 L 504.70 232.60 L 506.50 234.40 L 513.20 242.20 L 519.70 250.30 L 525.90 258.70 L 531.90 267.50 Z" fill="#f0d1cd" fill-rule="nonzero" node-id="73" stroke="none" target-height="54.699997" target-width="79.10004" target-x="452.8" target-y="231.2"/><path d="M 531.90 267.50 L 535.40 272.70 L 538.40 278.20 L 541.10 283.90 L 541.80 286.20 L 542.10 288.40 L 541.30 292.50 L 538.40 297.90 L 538.90 300.10 L 537.70 298.80 L 538.20 296.10 L 537.50 294.50 L 536.80 294.00 L 536.30 294.10 L 534.00 297.00 L 532.70 297.70 L 529.80 298.00 L 528.30 297.60 L 523.90 295.20 L 520.50 294.00 L 517.00 293.30 L 514.70 293.30 L 510.00 294.30 L 500.90 298.60 L 493.80 301.50 L 491.90 302.00 L 490.40 302.00 L 489.10 301.60 L 488.00 300.70 L 486.50 298.30 L 485.60 297.60 L 477.20 291.30 L 475.00 290.10 L 472.50 289.20 L 464.60 287.50 L 456.00 286.10 L 455.50 286.50 L 455.40 287.30 L 456.60 289.70 L 456.80 290.90 L 456.60 292.10 L 455.90 293.30 L 445.30 303.00 L 444.40 303.50 L 443.10 303.70 L 437.00 302.40 L 430.90 300.60 L 425.00 298.30 L 419.40 295.50 L 420.80 293.80 L 422.60 292.50 L 426.60 290.70 L 433.70 289.70 L 439.80 288.30 L 445.00 286.70 L 449.40 284.70 L 455.50 280.80 L 456.80 280.40 L 459.00 280.20 L 463.40 280.80 L 466.90 280.80 L 468.50 281.40 L 470.80 283.00 L 475.10 283.30 L 479.00 284.90 L 480.10 285.10 L 493.30 284.50 L 504.20 283.10 L 514.40 282.20 L 517.80 281.20 L 520.90 279.60 L 523.60 277.60 L 525.10 275.80 L 526.90 271.70 L 528.20 269.80 L 531.90 267.50 Z" fill="#f88b79" fill-rule="nonzero" node-id="75" stroke="none" target-height="36.200012" target-width="122.69998" target-x="419.4" target-y="267.5"/><path d="M 189.80 307.40 L 188.40 297.20 L 188.20 292.00 L 188.50 286.80 L 189.20 281.60 L 190.30 276.50 L 191.00 274.50 L 191.60 273.60 L 192.30 273.30 L 193.00 273.40 L 193.90 274.20 L 195.10 276.00 L 199.00 283.60 L 202.60 291.30 L 205.70 299.20 L 206.30 299.90 L 207.40 299.80 L 212.20 293.10 L 217.20 287.30 L 222.80 281.80 L 224.40 280.60 L 225.30 280.30 L 225.70 280.60 L 225.90 281.40 L 225.70 283.50 L 221.00 306.60 L 219.80 309.80 L 218.30 312.70 L 214.40 317.70 L 208.10 323.00 L 203.90 325.80 L 202.40 326.30 L 201.00 326.30 L 196.60 325.00 L 192.50 323.40 L 188.50 321.30 L 184.80 318.90 L 181.40 316.10 L 178.30 312.90 L 175.40 309.50 L 172.90 305.80 L 170.80 301.70 L 170.30 300.40 L 170.40 299.90 L 170.90 299.80 L 187.90 308.50 L 189.10 308.30 L 189.80 307.40 Z" fill="#fe6037" fill-rule="nonzero" node-id="77" stroke="none" target-height="53" target-width="55.59999" target-x="170.3" target-y="273.3"/><path d="M 579.70 317.80 L 565.50 307.80 L 562.50 306.40 L 555.80 304.50 L 564.50 304.20 L 572.90 302.40 L 580.90 299.20 L 602.60 288.10 L 609.40 285.00 L 616.30 282.40 L 623.40 280.10 L 630.60 278.20 L 632.10 278.30 L 632.80 278.60 L 634.80 281.60 L 635.70 284.00 L 636.20 286.70 L 637.50 295.80 L 638.30 304.90 L 638.60 314.00 L 638.30 323.10 L 637.60 332.10 L 636.40 341.10 L 634.60 350.00 L 632.00 359.60 L 630.90 360.30 L 629.50 359.90 L 621.10 350.00 L 612.80 340.90 L 604.10 332.40 L 595.10 324.20 L 590.80 320.80 L 586.30 317.90 L 581.60 315.30 L 580.60 315.00 L 580.20 315.30 L 580.40 317.00 L 579.70 317.80 Z" fill="#f88b79" fill-rule="nonzero" node-id="79" stroke="none" target-height="82.099976" target-width="82.79999" target-x="555.8" target-y="278.2"/><path d="M 538.90 300.10 L 555.80 304.20 L 562.50 306.20 L 565.50 307.50 L 579.70 317.50 L 582.60 318.90 L 585.30 320.60 L 585.10 322.60 L 584.70 322.80 L 561.40 309.50 L 554.80 307.70 L 548.80 306.80 L 539.80 306.20 L 539.40 306.60 L 539.50 307.30 L 540.80 310.60 L 541.40 313.60 L 541.40 316.40 L 540.80 319.00 L 539.70 321.60 L 537.90 324.10 L 535.40 326.50 L 532.00 329.00 L 530.70 329.60 L 529.10 329.20 L 528.00 327.70 L 528.10 325.80 L 532.40 319.30 L 534.40 314.80 L 534.60 310.80 L 533.40 307.00 L 531.70 305.30 L 519.40 298.80 L 517.00 297.80 L 514.40 297.40 L 511.10 297.90 L 505.20 300.60 L 497.20 305.60 L 493.60 308.50 L 491.20 311.70 L 488.80 319.10 L 488.00 319.90 L 486.90 320.10 L 485.90 319.40 L 485.40 317.20 L 485.90 310.30 L 485.90 305.40 L 485.20 303.20 L 481.10 299.30 L 476.20 296.50 L 473.60 295.60 L 467.60 294.70 L 463.10 295.30 L 460.30 296.60 L 457.80 298.30 L 450.90 304.80 L 449.70 306.60 L 449.00 308.40 L 448.60 311.20 L 449.60 321.90 L 449.30 322.70 L 448.90 322.90 L 448.10 322.60 L 446.60 321.30 L 444.40 318.60 L 440.80 312.70 L 439.10 308.50 L 438.20 307.80 L 432.30 305.00 L 429.10 304.00 L 425.90 303.40 L 419.40 303.20 L 417.70 303.80 L 416.50 305.10 L 415.20 307.80 L 414.40 310.70 L 414.00 313.60 L 413.90 316.60 L 414.30 319.50 L 415.60 324.30 L 415.70 327.30 L 415.30 328.60 L 414.40 329.80 L 412.90 330.90 L 411.50 331.40 L 410.20 331.30 L 408.90 330.80 L 407.80 329.70 L 407.50 328.90 L 407.30 322.20 L 408.70 309.80 L 407.70 308.20 L 406.80 307.80 L 405.60 307.80 L 397.60 310.20 L 389.80 313.10 L 382.20 316.60 L 374.90 320.60 L 367.90 325.20 L 360.10 331.10 L 358.80 331.70 L 357.10 331.70 L 356.30 331.50 L 355.90 331.00 L 380.00 312.90 L 399.10 305.80 L 409.00 302.80 L 414.80 299.70 L 419.90 295.60 L 425.50 298.40 L 431.40 300.80 L 437.50 302.60 L 444.60 303.80 L 445.80 303.10 L 456.40 293.40 L 457.10 292.20 L 457.30 291.00 L 457.10 289.80 L 455.90 287.40 L 456.10 286.60 L 456.50 286.20 L 465.10 287.50 L 473.00 289.30 L 475.40 290.20 L 477.60 291.40 L 486.10 297.70 L 487.00 298.50 L 488.40 300.80 L 489.50 301.70 L 490.70 302.10 L 492.30 302.10 L 494.30 301.60 L 510.40 294.40 L 515.00 293.40 L 517.50 293.40 L 522.80 294.70 L 525.30 295.70 L 528.90 297.80 L 530.30 298.10 L 533.20 297.70 L 534.40 297.10 L 535.60 296.00 L 536.70 294.30 L 537.50 294.20 L 538.70 295.70 L 538.90 296.80 L 538.40 298.90 L 538.60 300.10 L 538.90 300.10 Z" fill="#fb381a" fill-rule="nonzero" node-id="81" stroke="none" target-height="45.5" target-width="229.4" target-x="355.9" target-y="286.2"/><path d="M 379.60 313.40 L 355.20 331.30 L 349.20 337.30 L 343.60 343.70 L 338.40 350.50 L 328.80 365.40 L 319.90 381.50 L 306.10 411.30 L 299.60 426.40 L 299.20 426.90 L 298.60 427.10 L 298.00 426.90 L 297.70 425.40 L 300.00 418.10 L 302.30 409.20 L 302.30 407.40 L 301.80 405.70 L 300.80 404.10 L 293.30 396.50 L 285.40 389.30 L 279.90 384.70 L 268.40 376.60 L 262.40 373.00 L 256.20 369.90 L 249.90 367.20 L 249.30 367.00 L 248.20 367.40 L 232.20 392.30 L 234.00 386.20 L 236.30 380.20 L 238.90 374.40 L 242.00 368.80 L 245.50 363.30 L 246.50 362.60 L 247.90 362.80 L 264.20 371.60 L 283.60 382.60 L 288.70 385.90 L 293.60 389.60 L 298.20 393.70 L 302.40 398.10 L 303.20 398.70 L 305.00 398.80 L 306.50 397.80 L 309.70 392.80 L 315.20 382.30 L 319.50 371.30 L 321.40 364.60 L 321.00 361.40 L 316.30 347.60 L 313.00 333.50 L 311.60 323.90 L 310.80 314.40 L 310.40 299.40 L 309.60 294.30 L 309.90 292.70 L 311.30 291.90 L 317.10 292.50 L 322.40 293.60 L 326.20 295.00 L 330.20 296.80 L 345.60 305.70 L 354.60 309.60 L 359.40 311.00 L 364.20 312.00 L 379.60 313.40 Z" fill="#feac9f" fill-rule="nonzero" node-id="83" stroke="none" target-height="135.20001" target-width="147.40001" target-x="232.2" target-y="291.9"/><path d="M 585.30 320.90 L 596.10 328.70 L 606.00 337.70 L 615.00 347.70 L 621.70 356.60 L 627.90 365.90 L 633.70 375.30 L 639.10 385.10 L 644.00 395.10 L 648.60 405.40 L 658.10 430.00 L 666.30 455.50 L 666.90 456.00 L 667.60 456.10 L 668.80 455.20 L 669.30 454.20 L 671.40 465.80 L 672.30 473.30 L 672.80 480.80 L 672.50 492.90 L 671.80 497.20 L 670.70 501.40 L 669.10 505.50 L 667.10 509.40 L 664.70 513.10 L 664.70 514.30 L 665.40 515.00 L 666.40 515.00 L 671.60 507.80 L 675.60 499.80 L 678.20 491.30 L 679.60 490.80 L 684.70 496.30 L 694.10 507.90 L 696.60 509.50 L 699.40 510.10 L 697.80 509.80 L 696.70 510.00 L 696.00 510.70 L 695.50 512.00 L 695.40 513.40 L 696.20 516.30 L 693.30 514.60 L 690.40 511.60 L 689.70 511.30 L 688.20 511.50 L 685.90 514.20 L 684.60 516.50 L 684.10 518.00 L 684.10 519.50 L 684.50 520.90 L 700.10 542.20 L 706.80 552.50 L 713.10 563.10 L 719.00 574.10 L 724.40 585.30 L 726.10 589.50 L 732.90 609.10 L 736.00 616.70 L 738.60 625.60 L 740.30 633.60 L 742.00 644.00 L 742.50 650.70 L 741.60 672.00 L 740.10 679.50 L 734.00 701.20 L 733.20 701.80 L 732.50 701.90 L 729.90 701.10 L 727.90 701.20 L 726.00 701.90 L 724.30 703.00 L 722.60 704.80 L 720.90 707.50 L 710.40 708.30 L 698.40 710.90 L 696.40 710.90 L 694.20 710.40 L 691.70 709.40 L 688.80 707.70 L 688.40 700.80 L 687.60 694.10 L 686.20 687.50 L 684.30 681.00 L 681.90 674.60 L 679.10 668.30 L 676.70 664.20 L 674.00 660.50 L 670.90 657.00 L 667.50 653.80 L 665.00 651.80 L 662.30 650.40 L 659.40 649.40 L 656.40 649.00 L 641.20 649.00 L 639.00 649.30 L 637.40 650.00 L 636.10 651.00 L 634.30 654.00 L 626.30 683.60 L 623.60 687.20 L 621.90 691.30 L 621.20 692.20 L 614.20 697.50 L 616.90 691.10 L 620.60 679.30 L 622.70 670.60 L 624.40 661.80 L 625.50 652.80 L 625.80 647.70 L 625.70 642.80 L 624.30 632.80 L 622.50 625.70 L 620.40 618.70 L 617.80 611.80 L 614.90 605.10 L 611.60 598.60 L 604.00 586.20 L 599.70 580.30 L 595.10 574.60 L 590.20 569.20 L 584.90 564.10 L 579.40 559.20 L 571.50 553.30 L 563.00 548.70 L 553.80 545.20 L 543.20 542.80 L 532.40 541.00 L 521.40 539.70 L 499.10 538.50 L 487.70 538.50 L 470.50 539.00 L 452.90 539.90 L 437.50 541.20 L 422.20 543.10 L 407.00 545.50 L 391.10 548.70 L 382.20 551.40 L 374.50 554.90 L 370.90 557.20 L 367.50 559.90 L 364.30 563.00 L 361.00 566.80 L 352.70 578.80 L 348.10 586.70 L 344.00 594.80 L 340.30 603.20 L 338.70 600.80 L 337.80 600.80 L 336.20 601.70 L 334.60 602.00 L 332.90 601.70 L 319.20 598.20 L 300.10 593.80 L 292.90 591.40 L 288.00 589.10 L 286.70 588.00 L 285.80 586.50 L 285.40 584.80 L 285.90 583.10 L 287.60 582.10 L 290.90 582.20 L 293.30 581.90 L 295.60 581.20 L 301.10 578.10 L 303.70 576.10 L 305.70 574.00 L 307.30 571.70 L 308.30 569.20 L 308.80 566.60 L 308.90 563.80 L 308.50 560.60 L 307.60 557.00 L 305.70 552.40 L 304.00 551.50 L 296.30 549.60 L 294.40 547.70 L 293.70 545.20 L 294.20 541.20 L 294.00 536.20 L 293.30 533.70 L 290.50 528.20 L 290.90 526.20 L 290.70 524.20 L 290.20 523.80 L 288.30 523.60 L 291.20 523.30 L 292.60 523.80 L 294.70 524.90 L 300.40 529.90 L 301.90 530.80 L 305.80 531.20 L 309.10 531.00 L 312.20 530.30 L 315.20 529.20 L 315.60 528.70 L 315.30 528.00 L 289.40 514.00 L 289.40 511.80 L 288.90 509.80 L 288.00 508.00 L 285.30 499.60 L 282.90 491.00 L 280.60 479.50 L 280.50 473.80 L 281.70 465.60 L 283.20 460.00 L 286.40 451.20 L 293.80 434.20 L 297.90 426.00 L 298.30 427.50 L 299.60 427.50 L 300.00 427.00 L 320.30 382.10 L 329.20 366.00 L 334.10 358.20 L 338.80 351.10 L 344.10 344.30 L 349.70 337.90 L 355.80 331.90 L 356.40 332.60 L 357.30 332.90 L 360.00 332.10 L 367.80 326.20 L 374.80 321.60 L 382.10 317.60 L 389.70 314.10 L 397.50 311.20 L 405.50 308.70 L 406.60 308.60 L 407.50 308.90 L 408.20 309.60 L 408.60 310.60 L 408.60 311.80 L 407.60 317.40 L 407.20 323.10 L 407.20 328.90 L 407.50 330.30 L 408.30 331.40 L 409.50 332.10 L 412.00 332.20 L 414.10 330.70 L 415.00 329.50 L 415.40 328.10 L 415.50 325.90 L 414.30 320.40 L 413.90 317.50 L 414.00 314.50 L 414.50 311.60 L 416.40 306.00 L 416.90 305.20 L 418.40 304.20 L 422.60 304.00 L 425.80 304.30 L 432.20 305.80 L 438.10 308.70 L 439.00 309.50 L 442.60 316.60 L 444.40 319.50 L 446.50 322.20 L 448.00 323.40 L 448.80 323.70 L 449.20 323.50 L 449.50 322.70 L 448.70 314.90 L 448.70 312.00 L 449.20 309.10 L 450.90 305.60 L 457.50 299.40 L 460.00 297.60 L 462.90 296.30 L 467.50 295.70 L 470.60 295.90 L 476.10 297.50 L 481.00 300.30 L 485.10 304.10 L 485.60 305.10 L 485.80 306.30 L 485.30 318.10 L 485.80 320.30 L 487.10 321.10 L 488.00 321.00 L 488.50 320.60 L 491.20 312.60 L 493.50 309.40 L 501.10 303.80 L 509.40 299.50 L 511.80 298.70 L 514.40 298.50 L 516.90 298.80 L 519.30 299.70 L 532.10 306.40 L 533.30 307.90 L 534.20 309.90 L 534.70 313.40 L 534.40 315.80 L 533.50 318.10 L 528.00 326.70 L 527.70 327.60 L 528.20 329.40 L 530.00 330.40 L 531.90 329.90 L 535.30 327.40 L 537.80 325.00 L 539.60 322.50 L 540.70 319.90 L 541.30 317.30 L 541.30 314.50 L 540.70 311.50 L 539.20 307.40 L 539.40 307.00 L 548.50 307.70 L 558.50 309.50 L 563.30 311.30 L 583.80 323.40 L 584.70 323.60 L 585.10 323.40 L 585.30 320.90 Z M 497.60 348.20 L 498.60 348.10 L 500.20 347.00 L 501.50 337.80 L 501.40 336.80 L 500.90 335.90 L 499.10 334.90 L 496.90 335.60 L 491.80 340.40 L 491.00 342.10 L 491.80 346.00 L 492.60 347.30 L 494.00 347.90 L 497.60 348.20 Z M 435.10 358.80 L 412.10 385.60 L 404.70 397.10 L 404.20 398.30 L 404.10 401.40 L 402.10 404.10 L 401.60 405.60 L 401.00 411.90 L 401.00 426.70 L 398.90 437.00 L 399.10 446.60 L 398.90 452.70 L 397.70 464.20 L 397.70 469.30 L 398.40 474.10 L 399.70 478.60 L 401.50 482.80 L 403.80 486.90 L 406.80 490.70 L 413.10 497.20 L 413.20 498.40 L 411.10 500.00 L 411.60 501.10 L 416.90 502.70 L 427.10 504.40 L 432.20 504.90 L 438.90 504.80 L 445.50 504.00 L 452.00 502.80 L 472.00 498.60 L 475.60 498.20 L 479.20 498.40 L 480.50 498.70 L 486.80 503.40 L 493.00 507.10 L 496.20 508.30 L 499.40 508.90 L 501.40 508.90 L 503.40 508.40 L 505.30 507.40 L 513.10 502.00 L 521.10 497.00 L 529.20 492.40 L 531.60 491.40 L 538.60 489.60 L 541.30 488.00 L 542.50 486.60 L 542.90 485.60 L 542.60 483.80 L 541.80 482.80 L 539.60 482.00 L 537.70 482.50 L 534.80 485.60 L 531.90 487.20 L 531.50 480.20 L 531.70 473.00 L 532.50 463.10 L 532.20 459.60 L 531.30 455.00 L 528.40 443.60 L 527.50 438.40 L 526.50 427.90 L 524.40 417.90 L 521.00 408.30 L 514.50 395.40 L 509.70 387.50 L 504.50 379.80 L 498.70 372.50 L 492.60 365.70 L 486.00 359.20 L 479.70 355.20 L 472.70 352.20 L 468.90 346.00 L 464.30 340.40 L 462.10 339.10 L 460.10 338.40 L 458.20 338.20 L 456.30 338.50 L 454.30 339.40 L 452.20 340.90 L 443.40 349.70 L 435.10 358.80 Z M 437.00 344.60 L 437.20 343.50 L 436.90 342.60 L 436.30 341.80 L 435.30 341.20 L 433.20 340.80 L 432.30 341.10 L 431.50 341.70 L 430.90 342.70 L 428.50 350.10 L 429.40 351.80 L 430.40 352.40 L 432.50 352.80 L 434.20 351.90 L 437.00 344.60 Z M 544.90 460.40 L 550.20 463.90 L 553.60 465.50 L 559.50 467.20 L 563.70 467.20 L 568.00 466.10 L 572.40 464.50 L 576.80 462.40 L 580.80 459.90 L 583.20 457.90 L 587.30 453.30 L 588.80 450.70 L 589.90 447.80 L 590.50 444.70 L 590.90 439.80 L 590.90 434.80 L 590.50 429.50 L 589.50 424.40 L 588.10 419.40 L 586.20 414.60 L 584.40 411.20 L 579.80 405.00 L 574.80 400.40 L 570.10 397.40 L 564.80 395.60 L 559.00 395.10 L 553.10 396.10 L 547.60 398.50 L 542.50 402.50 L 538.50 407.50 L 536.90 410.30 L 535.30 414.30 L 534.10 418.40 L 533.50 422.70 L 533.20 427.10 L 533.80 435.90 L 535.60 444.40 L 538.40 451.80 L 540.20 455.00 L 542.40 457.90 L 544.90 460.40 Z M 345.80 463.60 L 348.20 466.40 L 350.80 468.90 L 353.70 471.00 L 356.90 472.80 L 360.20 474.20 L 363.60 475.20 L 367.10 475.60 L 370.50 475.60 L 374.00 474.90 L 378.90 472.90 L 383.70 469.20 L 386.10 466.30 L 388.10 463.00 L 389.80 459.20 L 392.20 451.10 L 393.00 446.70 L 393.50 440.10 L 393.50 433.70 L 392.90 427.50 L 391.90 422.40 L 389.60 416.70 L 387.80 414.00 L 385.70 411.40 L 383.40 409.20 L 380.80 407.30 L 377.90 405.80 L 375.00 404.80 L 371.90 404.30 L 368.80 404.40 L 366.00 405.00 L 363.40 405.90 L 360.90 407.30 L 358.00 409.60 L 355.30 412.50 L 352.80 415.90 L 348.80 423.50 L 345.30 434.10 L 343.90 440.20 L 342.40 451.10 L 342.40 455.60 L 343.60 459.90 L 345.80 463.60 Z M 628.20 426.90 L 620.70 415.70 L 619.00 415.10 L 618.10 415.30 L 617.30 415.80 L 616.70 417.50 L 623.90 446.20 L 624.40 447.20 L 625.30 447.90 L 629.30 449.60 L 631.00 449.10 L 631.70 447.50 L 628.20 426.90 Z M 313.40 464.10 L 316.60 463.20 L 317.70 462.30 L 318.40 461.10 L 319.70 451.00 L 321.20 442.30 L 323.30 433.60 L 323.20 432.20 L 322.70 431.70 L 321.60 431.40 L 320.40 431.70 L 318.50 433.10 L 315.70 438.30 L 313.70 442.70 L 312.20 447.20 L 311.20 451.80 L 310.50 456.60 L 310.30 462.90 L 310.80 463.70 L 311.70 464.20 L 313.40 464.10 Z M 609.20 460.20 L 605.00 455.60 L 603.80 455.70 L 600.30 460.70 L 597.80 465.20 L 597.60 465.80 L 598.00 467.00 L 599.20 467.60 L 601.00 467.40 L 602.10 466.90 L 604.70 464.60 L 606.00 464.00 L 607.90 463.90 L 608.60 465.00 L 608.40 466.80 L 607.80 468.00 L 606.80 469.00 L 605.00 470.20 L 597.50 472.90 L 596.80 473.80 L 595.90 476.00 L 595.40 478.00 L 595.60 481.70 L 596.40 484.00 L 597.70 486.20 L 599.40 488.20 L 603.60 491.60 L 606.10 492.90 L 611.10 494.60 L 618.10 495.20 L 624.90 494.60 L 629.80 492.90 L 632.10 491.70 L 636.70 488.00 L 641.60 482.40 L 644.70 476.80 L 645.60 473.80 L 646.20 470.80 L 646.30 467.70 L 646.10 464.60 L 645.60 462.10 L 644.80 460.20 L 643.70 458.80 L 642.40 457.60 L 640.70 456.80 L 634.40 455.90 L 625.50 453.30 L 620.50 452.30 L 617.50 452.10 L 615.20 452.40 L 613.40 453.30 L 612.20 454.20 L 610.70 457.10 L 610.40 460.70 L 610.20 461.00 L 609.90 460.90 L 609.20 460.20 Z M 343.10 471.80 L 340.50 469.70 L 338.80 469.00 L 336.00 468.40 L 333.00 468.20 L 330.10 468.30 L 311.00 471.20 L 307.90 472.70 L 305.90 474.40 L 304.30 476.40 L 303.00 478.80 L 302.00 481.30 L 301.10 485.00 L 300.90 488.30 L 301.20 491.20 L 302.10 494.10 L 303.40 496.60 L 305.00 498.90 L 309.40 502.70 L 312.00 504.20 L 317.80 506.40 L 320.90 507.00 L 327.10 507.40 L 332.80 506.60 L 335.30 505.70 L 339.80 503.10 L 341.80 501.30 L 345.60 496.60 L 348.80 490.30 L 350.10 485.10 L 349.70 481.30 L 348.90 479.50 L 343.10 471.80 Z M 391.90 491.30 L 390.70 494.00 L 390.70 494.40 L 391.10 494.90 L 398.50 498.30 L 403.90 500.30 L 405.80 500.70 L 406.30 500.50 L 406.30 499.50 L 402.90 496.80 L 392.50 491.10 L 391.90 491.30 Z M 654.10 511.40 L 653.60 510.50 L 653.40 508.20 L 652.90 507.40 L 652.00 506.90 L 650.70 506.80 L 645.30 507.80 L 640.50 509.20 L 636.30 510.90 L 632.60 513.00 L 629.40 515.40 L 626.60 518.10 L 625.90 519.30 L 625.70 520.50 L 626.00 521.70 L 626.80 522.70 L 628.50 523.40 L 631.60 523.70 L 634.60 523.40 L 637.50 522.70 L 643.10 520.10 L 646.00 519.10 L 649.00 518.50 L 652.00 518.30 L 654.90 518.60 L 657.80 519.20 L 660.70 520.20 L 663.30 521.60 L 665.90 523.40 L 666.90 523.60 L 667.80 523.20 L 668.00 521.50 L 667.50 519.50 L 666.90 518.60 L 654.10 511.40 Z M 670.20 553.60 L 671.40 558.20 L 673.60 564.30 L 673.90 566.00 L 673.50 570.50 L 673.90 576.50 L 673.60 577.70 L 671.80 582.30 L 670.50 584.50 L 661.30 596.00 L 659.20 598.70 L 659.10 599.30 L 659.70 599.20 L 662.50 597.40 L 666.40 594.20 L 669.70 590.90 L 672.50 587.40 L 674.70 583.80 L 676.40 579.90 L 677.60 575.90 L 679.30 565.00 L 681.40 554.20 L 681.70 550.20 L 681.50 546.20 L 680.90 542.30 L 679.80 538.50 L 678.30 534.80 L 676.30 531.30 L 674.00 528.10 L 671.20 525.00 L 670.30 524.50 L 669.30 524.50 L 667.50 525.40 L 666.30 526.40 L 665.50 527.50 L 664.90 530.60 L 665.20 540.50 L 664.50 548.70 L 665.20 550.10 L 669.70 552.50 L 670.20 553.60 Z M 659.90 547.80 L 661.50 546.30 L 662.70 544.50 L 663.40 542.50 L 663.30 532.80 L 662.90 530.50 L 661.90 528.50 L 660.50 526.80 L 658.60 525.60 L 656.50 524.80 L 652.50 524.80 L 649.50 526.00 L 639.40 533.00 L 637.70 534.60 L 636.50 536.50 L 635.70 538.60 L 635.60 540.80 L 636.40 543.70 L 640.80 550.40 L 642.40 552.10 L 644.30 553.30 L 646.40 553.90 L 648.60 554.10 L 650.80 553.60 L 652.90 552.60 L 659.90 547.80 Z M 649.50 585.50 L 651.70 586.20 L 654.00 586.50 L 656.30 586.20 L 660.80 584.60 L 662.90 583.10 L 664.80 581.40 L 667.80 576.80 L 668.80 574.10 L 669.30 571.50 L 669.20 566.40 L 668.60 564.00 L 667.60 561.90 L 666.30 559.90 L 664.70 558.40 L 662.70 557.20 L 660.50 556.50 L 658.30 556.20 L 656.00 556.50 L 651.50 558.10 L 647.40 561.30 L 645.80 563.40 L 644.40 565.90 L 643.40 568.60 L 642.80 571.20 L 642.70 573.80 L 642.90 576.40 L 643.50 578.70 L 644.50 580.90 L 645.80 582.80 L 647.50 584.30 L 649.50 585.50 Z M 711.00 691.70 L 712.40 689.40 L 713.30 687.10 L 713.90 684.70 L 713.90 679.80 L 713.50 677.30 L 712.30 673.60 L 710.70 670.10 L 708.60 666.80 L 705.60 663.50 L 704.10 663.50 L 703.10 664.10 L 699.70 669.70 L 696.60 676.30 L 695.60 679.80 L 695.20 683.00 L 695.40 685.20 L 696.00 687.10 L 696.90 689.00 L 698.30 690.60 L 700.30 692.00 L 704.60 694.00 L 707.50 694.10 L 710.00 692.80 L 711.00 691.70 Z" fill="#fe6048" fill-rule="nonzero" node-id="85" stroke="none" target-height="415.2" target-width="462" target-x="280.5" target-y="295.7"/><path d="M 717.30 319.00 L 715.30 317.80 L 713.20 317.30 L 711.70 317.20 L 710.30 317.50 L 705.50 319.60 L 692.60 327.70 L 681.60 335.40 L 678.70 336.50 L 676.10 338.10 L 673.60 340.00 L 671.50 342.20 L 666.70 345.60 L 662.10 349.40 L 653.70 357.80 L 646.40 367.30 L 644.60 371.40 L 643.20 380.40 L 642.80 377.40 L 642.90 371.40 L 644.30 365.70 L 645.60 363.00 L 648.60 359.80 L 650.40 355.50 L 655.30 350.40 L 660.50 345.50 L 665.90 341.00 L 679.50 331.20 L 689.20 324.70 L 695.80 320.70 L 700.20 318.50 L 705.40 316.60 L 709.20 315.70 L 712.00 315.50 L 714.00 315.80 L 715.50 316.40 L 716.60 317.50 L 717.30 319.00 Z" fill="#f88b79" fill-rule="nonzero" node-id="87" stroke="none" target-height="64.899994" target-width="74.5" target-x="642.8" target-y="315.5"/><path d="M 717.30 319.00 L 724.40 342.60 L 727.40 354.60 L 732.60 378.80 L 734.70 390.90 L 734.80 393.70 L 734.50 396.50 L 733.50 398.70 L 730.90 401.20 L 728.70 404.10 L 726.70 407.40 L 723.80 413.50 L 718.90 425.90 L 716.70 433.00 L 717.20 433.60 L 724.40 434.60 L 730.90 436.00 L 737.10 438.00 L 743.20 440.50 L 749.20 443.60 L 750.30 444.50 L 751.00 445.70 L 751.20 447.10 L 749.30 452.30 L 747.50 456.20 L 739.40 470.10 L 735.90 477.00 L 732.80 484.10 L 729.40 493.10 L 728.30 494.70 L 727.00 496.10 L 725.30 497.20 L 699.20 510.20 L 696.40 509.70 L 695.10 509.00 L 693.90 508.00 L 689.40 502.10 L 684.60 496.40 L 679.40 490.90 L 678.90 488.80 L 679.20 488.20 L 682.90 485.40 L 684.10 483.90 L 685.80 480.60 L 686.50 477.40 L 687.40 476.30 L 694.80 468.90 L 698.00 459.30 L 700.10 454.80 L 699.70 453.10 L 698.90 452.40 L 697.90 452.00 L 695.80 452.10 L 698.80 451.70 L 701.60 450.90 L 704.20 449.60 L 706.60 447.80 L 708.60 445.70 L 710.30 443.20 L 710.40 442.50 L 710.10 441.80 L 709.00 441.70 L 706.50 444.00 L 704.10 445.50 L 701.60 446.70 L 698.90 447.40 L 684.20 450.50 L 676.90 452.50 L 675.80 452.60 L 674.00 451.60 L 673.50 450.80 L 671.00 440.70 L 668.10 431.00 L 664.70 421.50 L 660.90 412.20 L 659.20 409.80 L 657.90 409.00 L 657.00 408.90 L 656.20 409.30 L 655.60 410.30 L 643.50 380.60 L 644.90 371.70 L 645.60 369.60 L 646.70 367.50 L 650.10 362.70 L 657.90 353.70 L 662.20 349.60 L 666.80 345.80 L 671.60 342.40 L 678.90 345.30 L 680.70 346.40 L 683.90 349.40 L 689.60 356.40 L 692.50 358.70 L 695.80 360.60 L 701.50 362.50 L 703.80 362.50 L 706.00 362.00 L 708.00 360.90 L 709.70 359.30 L 710.90 357.30 L 711.40 355.50 L 711.40 352.10 L 710.00 348.90 L 706.10 344.90 L 700.30 340.70 L 697.00 339.10 L 692.40 337.40 L 687.30 336.20 L 681.70 335.60 L 698.50 323.90 L 705.10 320.00 L 711.00 317.50 L 713.20 317.30 L 714.60 317.60 L 717.30 319.00 Z M 695.10 394.50 L 695.60 394.00 L 695.60 393.20 L 681.00 377.00 L 667.70 371.40 L 667.00 371.40 L 666.70 371.90 L 666.70 404.00 L 667.00 404.50 L 667.60 404.70 L 695.10 394.50 Z" fill="#63344a" fill-rule="nonzero" node-id="89" stroke="none" target-height="192.90002" target-width="107.70001" target-x="643.5" target-y="317.3"/><path d="M 497.60 348.20 L 494.00 347.70 L 492.60 347.00 L 491.80 345.80 L 491.00 341.90 L 491.80 340.20 L 496.90 335.40 L 497.80 334.80 L 498.80 334.70 L 499.80 334.90 L 500.80 335.60 L 501.30 336.60 L 501.50 337.80 L 500.30 346.80 L 499.70 347.50 L 498.80 348.00 L 497.60 348.20 Z" fill="#fb381a" fill-rule="nonzero" node-id="91" stroke="none" target-height="13.5" target-width="10.5" target-x="491" target-y="334.7"/><path d="M 681.30 335.60 L 686.90 336.20 L 692.00 337.40 L 696.60 339.10 L 702.90 342.60 L 708.30 347.40 L 709.80 349.30 L 710.70 351.30 L 711.10 353.60 L 710.80 355.80 L 710.10 357.80 L 708.80 359.70 L 705.90 361.80 L 702.40 362.60 L 700.70 362.40 L 695.40 360.60 L 692.10 358.70 L 689.20 356.40 L 683.60 349.40 L 680.40 346.40 L 678.50 345.30 L 671.20 342.40 L 675.80 338.30 L 678.50 336.70 L 681.30 335.60 Z" fill="#b14f59" fill-rule="nonzero" node-id="93" stroke="none" target-height="27" target-width="39.899963" target-x="671.2" target-y="335.6"/><path d="M 473.00 352.50 L 473.00 354.90 L 472.50 357.00 L 470.40 361.00 L 467.00 365.80 L 462.60 370.30 L 460.20 372.10 L 458.50 373.00 L 455.20 373.90 L 453.50 373.90 L 451.80 373.40 L 450.10 372.50 L 442.20 366.00 L 435.10 358.70 L 443.40 349.50 L 452.20 341.10 L 454.40 339.50 L 456.40 338.60 L 458.30 338.20 L 460.20 338.40 L 462.20 339.10 L 464.30 340.60 L 467.70 344.30 L 470.60 348.30 L 473.00 352.50 Z M 461.40 346.70 L 459.90 344.30 L 458.10 343.30 L 455.80 343.60 L 452.20 345.60 L 448.40 349.30 L 446.40 352.20 L 442.00 359.00 L 442.30 360.50 L 444.60 363.50 L 447.20 366.30 L 450.10 368.70 L 454.80 371.50 L 456.10 371.50 L 457.40 371.00 L 458.50 369.90 L 468.10 355.90 L 468.70 355.00 L 468.90 354.00 L 468.10 352.00 L 465.20 350.70 L 463.70 349.60 L 461.40 346.70 Z" fill="#ea372a" fill-rule="nonzero" node-id="95" stroke="none" target-height="35.69998" target-width="37.899994" target-x="435.1" target-y="338.2"/><path d="M 428.80 348.90 L 431.00 342.40 L 432.30 340.80 L 433.30 340.60 L 435.40 340.90 L 436.30 341.40 L 437.20 343.20 L 434.90 350.80 L 433.60 352.40 L 432.60 352.60 L 431.50 352.50 L 429.60 351.80 L 428.70 350.00 L 428.80 348.90 Z" fill="#ea372a" fill-rule="nonzero" node-id="97" stroke="none" target-height="12" target-width="8.5" target-x="428.7" target-y="340.6"/><path d="M 461.40 346.70 L 462.90 348.90 L 464.60 350.60 L 467.60 352.30 L 468.60 354.10 L 468.60 355.20 L 457.60 371.00 L 456.40 371.60 L 455.00 371.70 L 453.20 371.10 L 449.90 369.10 L 447.00 366.70 L 444.40 363.90 L 441.80 360.30 L 441.80 359.20 L 446.40 352.20 L 448.40 349.40 L 452.10 345.70 L 455.60 343.80 L 458.20 343.50 L 459.90 344.40 L 461.40 346.70 Z" fill="#fe6048" fill-rule="nonzero" node-id="99" stroke="none" target-height="28.200012" target-width="26.800018" target-x="441.8" target-y="343.5"/><path d="M 473.00 352.50 L 480.00 355.40 L 486.30 359.50 L 492.90 366.00 L 499.00 372.90 L 504.80 380.20 L 510.10 387.80 L 514.90 395.70 L 521.30 408.60 L 524.70 418.30 L 525.90 423.30 L 528.70 443.90 L 531.60 455.30 L 532.50 459.90 L 532.70 466.00 L 532.00 473.00 L 531.80 480.20 L 532.20 487.50 L 528.30 490.60 L 524.00 493.30 L 521.00 494.70 L 517.90 495.50 L 505.70 495.70 L 487.80 494.50 L 483.20 495.50 L 471.10 495.50 L 466.20 496.10 L 451.00 500.50 L 445.10 501.70 L 437.10 501.90 L 429.20 501.70 L 421.30 501.00 L 413.50 499.80 L 414.10 499.50 L 414.00 498.30 L 407.80 491.90 L 404.80 488.10 L 402.40 484.10 L 400.60 479.90 L 399.30 475.40 L 398.70 470.60 L 398.60 465.40 L 399.80 453.80 L 400.10 447.70 L 399.80 438.20 L 400.30 434.70 L 401.80 428.70 L 402.00 425.50 L 401.80 419.20 L 401.90 412.90 L 402.50 406.70 L 402.90 405.30 L 404.70 402.90 L 405.10 401.80 L 405.20 399.40 L 405.60 398.20 L 411.60 388.50 L 415.70 383.30 L 436.00 359.90 L 440.50 364.80 L 445.50 369.40 L 451.00 373.70 L 452.70 374.60 L 454.40 375.10 L 457.80 374.80 L 461.20 373.30 L 463.60 371.50 L 465.90 369.30 L 469.80 364.60 L 472.50 360.20 L 473.00 352.50 Z M 485.10 453.70 L 484.40 453.10 L 482.80 453.10 L 481.40 454.10 L 480.80 455.60 L 481.00 456.40 L 481.70 457.00 L 483.30 457.00 L 484.70 456.00 L 485.10 455.40 L 485.10 453.70 Z M 453.70 456.80 L 453.40 456.00 L 452.20 455.40 L 448.60 454.60 L 445.00 455.00 L 443.80 455.70 L 443.50 456.50 L 443.80 457.30 L 445.00 457.90 L 448.60 458.70 L 450.70 458.70 L 452.20 458.30 L 453.40 457.60 L 453.70 456.80 Z" fill="#df615d" fill-rule="nonzero" node-id="101" stroke="none" target-height="149.4" target-width="134.1" target-x="398.6" target-y="352.5"/><path d="M 297.50 425.40 L 292.00 436.60 L 287.10 448.00 L 282.00 462.10 L 280.40 470.50 L 280.10 476.10 L 280.60 481.60 L 283.60 494.60 L 287.60 507.40 L 287.30 508.30 L 286.70 508.70 L 285.70 508.90 L 284.20 508.60 L 282.90 507.70 L 279.80 504.60 L 277.40 503.00 L 275.60 502.20 L 273.70 501.70 L 265.70 500.70 L 260.90 499.60 L 256.80 498.20 L 254.30 497.00 L 249.90 493.70 L 248.10 491.60 L 246.40 489.00 L 244.20 484.70 L 241.30 482.80 L 241.90 482.90 L 242.00 481.60 L 236.90 471.90 L 231.30 462.50 L 225.30 453.30 L 218.80 444.40 L 217.60 442.30 L 217.00 440.10 L 216.90 437.90 L 217.40 435.50 L 224.10 413.60 L 232.10 392.30 L 247.60 367.90 L 248.60 367.10 L 249.20 367.00 L 256.10 369.90 L 262.30 373.00 L 268.40 376.50 L 274.20 380.50 L 285.40 389.30 L 293.30 396.50 L 300.70 404.10 L 302.10 407.30 L 302.20 409.00 L 299.90 418.20 L 297.50 425.40 Z M 244.60 391.20 L 235.70 399.90 L 233.90 402.40 L 232.80 404.70 L 232.80 405.40 L 233.50 405.90 L 234.20 405.90 L 246.70 401.20 L 262.30 396.50 L 265.20 395.20 L 267.90 393.50 L 270.40 391.50 L 271.10 390.50 L 271.30 389.30 L 271.20 388.10 L 270.60 386.90 L 268.90 385.20 L 265.10 382.60 L 261.90 381.30 L 258.50 380.60 L 256.30 381.10 L 244.60 391.20 Z M 266.30 435.10 L 271.50 433.40 L 276.20 430.60 L 280.00 426.90 L 282.90 422.40 L 284.20 418.60 L 284.00 417.50 L 283.30 416.50 L 281.70 415.60 L 280.30 415.40 L 275.90 415.80 L 270.80 417.20 L 265.80 419.00 L 261.00 421.20 L 256.40 423.80 L 252.10 426.80 L 247.90 430.30 L 245.40 433.20 L 244.60 434.80 L 244.00 437.10 L 244.50 438.00 L 245.00 438.30 L 255.90 436.90 L 266.30 435.10 Z" fill="#63344a" fill-rule="nonzero" node-id="103" stroke="none" target-height="141.9" target-width="85.30002" target-x="216.9" target-y="367"/><path d="M 695.10 394.50 L 667.60 405.10 L 666.90 405.10 L 666.60 404.60 L 666.80 372.00 L 667.50 371.80 L 680.90 377.40 L 695.60 393.70 L 695.50 394.20 L 695.10 394.50 Z" fill="#b14f59" fill-rule="nonzero" node-id="105" stroke="none" target-height="33.30002" target-width="29" target-x="666.6" target-y="371.8"/><path d="M 563.80 467.20 L 561.50 467.40 L 559.00 467.10 L 553.70 465.50 L 548.70 463.10 L 545.00 460.40 L 542.50 457.70 L 540.30 454.80 L 538.60 451.70 L 536.00 444.30 L 534.10 435.80 L 533.60 431.40 L 533.80 422.70 L 534.50 418.30 L 535.70 414.20 L 537.30 410.30 L 540.70 405.00 L 542.90 402.50 L 548.00 398.50 L 553.50 396.00 L 556.40 395.30 L 559.40 395.10 L 565.20 395.70 L 570.50 397.50 L 572.90 398.80 L 577.40 402.20 L 582.60 408.00 L 586.60 414.70 L 588.50 419.50 L 590.00 424.50 L 590.90 429.60 L 591.40 434.80 L 591.40 439.90 L 590.90 444.70 L 590.20 447.90 L 589.00 450.80 L 587.50 453.40 L 583.40 458.00 L 580.90 460.00 L 576.90 462.50 L 572.50 464.50 L 568.10 466.10 L 563.80 467.20 Z M 565.90 405.40 L 564.30 404.20 L 562.50 403.30 L 560.50 402.80 L 556.20 403.00 L 551.60 404.60 L 547.30 407.80 L 544.00 412.00 L 542.00 416.50 L 541.60 420.80 L 542.00 422.90 L 542.70 424.70 L 543.90 426.40 L 545.40 427.70 L 547.20 428.60 L 549.20 429.10 L 553.60 428.90 L 558.20 427.20 L 562.50 424.00 L 565.90 419.80 L 567.90 415.30 L 568.30 413.10 L 568.30 411.00 L 567.90 408.90 L 567.10 407.10 L 565.90 405.40 Z M 555.10 462.90 L 556.00 463.30 L 558.00 463.30 L 562.20 464.20 L 565.40 464.40 L 567.60 464.20 L 569.60 463.70 L 571.40 462.70 L 576.50 459.70 L 582.60 455.30 L 583.60 454.00 L 584.50 450.80 L 584.50 449.20 L 583.70 446.50 L 582.80 445.80 L 578.10 444.20 L 575.60 444.00 L 572.00 444.10 L 568.30 444.80 L 554.30 449.10 L 551.30 451.30 L 550.20 452.90 L 549.40 454.60 L 549.00 457.60 L 549.70 458.80 L 553.60 461.50 L 555.10 462.90 Z" fill="#2c0707" fill-rule="nonzero" node-id="107" stroke="none" target-height="72.29999" target-width="57.80005" target-x="533.6" target-y="395.1"/><g node-id="216"><path d="M 566.10 405.30 L 567.40 407.10 L 568.20 409.20 L 568.50 411.50 L 568.30 414.00 L 567.60 416.60 L 566.40 419.20 L 564.80 421.60 L 562.70 423.80 L 560.40 425.70 L 557.90 427.20 L 555.30 428.30 L 552.70 428.90 L 550.10 429.00 L 547.80 428.50 L 545.80 427.60 L 544.10 426.30 L 542.80 424.50 L 542.00 422.40 L 541.70 420.10 L 541.90 417.50 L 542.60 414.90 L 543.80 412.40 L 545.40 410.00 L 547.40 407.70 L 549.80 405.80 L 552.20 404.30 L 554.80 403.30 L 557.50 402.70 L 560.00 402.60 L 562.30 403.00 L 564.40 403.90 L 566.10 405.30 Z" fill="#f6f7f9" fill-rule="nonzero" group-id="1" node-id="111" stroke="none" target-height="26.399994" target-width="26.799988" target-x="541.7" target-y="402.6"/></g><path d="M 383.40 469.40 L 378.70 473.10 L 373.80 475.10 L 370.30 475.80 L 366.80 475.80 L 363.40 475.40 L 360.00 474.40 L 356.70 473.00 L 353.50 471.20 L 350.60 469.10 L 347.90 466.60 L 345.50 463.80 L 343.80 461.00 L 342.60 457.90 L 342.00 454.60 L 341.90 451.20 L 343.40 440.30 L 344.80 434.10 L 348.40 423.50 L 352.40 415.90 L 354.90 412.50 L 357.60 409.60 L 360.50 407.30 L 362.90 406.00 L 365.50 405.00 L 368.30 404.50 L 371.40 404.40 L 374.60 404.90 L 377.60 405.90 L 380.40 407.40 L 383.00 409.30 L 385.40 411.50 L 389.20 416.80 L 391.40 422.50 L 392.80 429.60 L 393.20 440.30 L 392.70 446.90 L 391.90 451.30 L 389.50 459.40 L 387.80 463.20 L 385.80 466.50 L 383.40 469.40 Z M 382.20 437.30 L 383.60 435.90 L 384.70 434.30 L 385.40 432.40 L 385.80 428.20 L 384.70 423.60 L 382.20 419.00 L 378.60 415.30 L 374.40 412.90 L 370.20 412.10 L 368.20 412.30 L 366.30 412.90 L 364.60 413.90 L 363.20 415.40 L 362.10 417.00 L 361.00 421.00 L 361.40 425.40 L 362.10 427.70 L 364.60 432.20 L 368.20 435.90 L 372.30 438.20 L 376.40 439.00 L 378.50 438.90 L 380.40 438.30 L 382.20 437.30 Z" fill="#2c0707" fill-rule="nonzero" node-id="114" stroke="none" target-height="71.399994" target-width="51.30002" target-x="341.9" target-y="404.4"/><path d="M 695.30 451.80 L 688.80 452.80 L 682.30 454.20 L 675.90 456.10 L 669.70 458.60 L 669.00 454.50 L 655.00 410.30 L 655.70 409.10 L 656.40 408.70 L 657.30 408.90 L 659.60 410.90 L 664.20 421.50 L 667.60 431.00 L 670.50 440.70 L 672.90 450.60 L 673.30 451.60 L 674.00 452.30 L 675.00 452.70 L 676.20 452.80 L 690.80 449.10 L 698.20 447.70 L 700.80 446.90 L 703.40 445.80 L 708.40 442.10 L 708.90 441.90 L 709.60 442.20 L 709.60 443.30 L 707.90 445.70 L 706.00 447.60 L 703.70 449.30 L 701.10 450.50 L 698.30 451.40 L 695.30 451.80 Z" fill="#4d1610" fill-rule="nonzero" node-id="116" stroke="none" target-height="49.899994" target-width="54.599976" target-x="655" target-y="408.7"/><g node-id="217"><path d="M 382.10 418.80 L 383.70 421.20 L 384.90 423.80 L 385.60 426.40 L 385.80 429.00 L 385.50 431.50 L 384.80 433.70 L 383.70 435.60 L 382.10 437.20 L 380.20 438.20 L 378.00 438.80 L 375.70 438.90 L 373.20 438.40 L 370.80 437.50 L 368.40 436.10 L 366.30 434.30 L 364.40 432.10 L 362.80 429.60 L 361.70 427.10 L 361.00 424.40 L 360.80 421.80 L 361.00 419.30 L 361.70 417.10 L 362.90 415.20 L 364.40 413.70 L 366.30 412.60 L 368.50 412.00 L 370.80 411.90 L 373.30 412.40 L 375.70 413.30 L 378.10 414.80 L 380.20 416.60 L 382.10 418.80 Z" fill="#f6f7f9" fill-rule="nonzero" group-id="2" node-id="120" stroke="none" target-height="27" target-width="25" target-x="360.8" target-y="411.9"/></g><path d="M 628.20 426.90 L 631.80 447.60 L 630.90 449.20 L 629.30 449.60 L 624.80 447.80 L 623.90 446.30 L 616.90 418.50 L 616.90 416.60 L 618.10 415.40 L 619.00 415.20 L 620.70 415.80 L 628.10 426.30 L 628.20 426.90 Z" fill="#2c0707" fill-rule="nonzero" node-id="123" stroke="none" target-height="34.399994" target-width="14.899963" target-x="616.9" target-y="415.2"/><path d="M 310.00 461.40 L 310.20 456.60 L 310.90 451.80 L 312.00 447.20 L 313.50 442.70 L 315.40 438.30 L 317.70 434.10 L 319.20 432.30 L 321.30 431.40 L 322.00 431.50 L 322.90 432.40 L 323.00 433.10 L 320.10 446.40 L 318.10 461.10 L 317.50 462.30 L 316.40 463.10 L 311.70 464.20 L 310.80 463.90 L 310.20 463.00 L 310.00 461.40 Z" fill="#760906" fill-rule="nonzero" node-id="125" stroke="none" target-height="32.80002" target-width="13" target-x="310" target-y="431.4"/><path d="M 553.10 461.70 L 551.10 460.60 L 549.20 459.00 L 548.70 458.00 L 548.50 456.80 L 549.70 453.20 L 550.90 451.70 L 553.90 449.40 L 567.80 445.00 L 571.50 444.30 L 575.10 444.20 L 577.60 444.40 L 582.30 446.00 L 583.20 446.70 L 584.10 449.40 L 584.10 451.10 L 583.10 454.20 L 580.80 456.60 L 569.50 463.70 L 568.10 464.20 L 564.90 464.60 L 557.50 463.50 L 555.60 463.60 L 554.60 463.10 L 554.20 462.20 L 553.10 461.70 Z" fill="#cf4847" fill-rule="nonzero" node-id="127" stroke="none" target-height="20.399994" target-width="35.599976" target-x="548.5" target-y="444.2"/><path d="M 695.30 451.80 L 696.40 451.60 L 698.40 452.20 L 699.50 453.20 L 699.70 454.40 L 697.50 459.00 L 694.30 468.60 L 686.10 477.10 L 685.30 480.30 L 683.70 483.70 L 681.10 486.30 L 678.60 488.00 L 678.40 489.20 L 678.90 490.60 L 677.70 490.80 L 677.50 491.10 L 674.90 499.60 L 673.10 503.70 L 668.50 511.30 L 665.70 514.80 L 665.20 515.00 L 664.70 514.80 L 663.80 513.50 L 668.40 505.40 L 670.00 501.30 L 671.10 497.10 L 671.80 492.70 L 672.00 480.70 L 671.60 473.10 L 670.70 465.60 L 669.30 458.10 L 675.90 455.90 L 682.50 454.10 L 688.90 452.70 L 695.30 451.80 Z" fill="#c33935" fill-rule="nonzero" node-id="129" stroke="none" target-height="63.399994" target-width="35.900024" target-x="663.8" target-y="451.6"/><path d="M 610.80 460.00 L 611.30 457.60 L 612.10 455.80 L 613.20 454.50 L 614.50 453.60 L 616.20 453.00 L 618.30 452.70 L 625.80 454.00 L 634.80 456.40 L 641.00 457.50 L 642.60 458.30 L 644.00 459.50 L 645.10 460.90 L 645.90 462.80 L 646.80 468.50 L 646.70 471.50 L 646.20 474.50 L 645.20 477.50 L 643.90 480.30 L 639.90 485.90 L 634.70 490.70 L 630.10 493.60 L 625.10 495.30 L 618.50 496.00 L 611.50 495.30 L 606.50 493.50 L 601.90 490.70 L 598.10 486.90 L 596.90 484.70 L 596.00 482.40 L 595.90 478.70 L 597.20 474.50 L 598.00 473.60 L 605.20 470.80 L 607.10 469.70 L 608.10 468.70 L 608.70 467.50 L 608.90 465.30 L 608.00 464.50 L 606.60 464.70 L 605.40 465.30 L 602.90 467.60 L 601.80 468.10 L 599.10 468.20 L 598.20 467.30 L 598.30 465.90 L 600.70 461.30 L 603.60 457.00 L 604.40 456.30 L 605.50 456.30 L 610.00 461.20 L 610.60 460.90 L 610.80 460.00 Z" fill="#fe8964" fill-rule="nonzero" node-id="131" stroke="none" target-height="43.299988" target-width="50.899963" target-x="595.9" target-y="452.7"/><g node-id="218"><path d="M 484.90 453.90 L 485.10 455.40 L 484.00 456.80 L 482.30 457.30 L 481.00 456.60 L 480.80 455.10 L 481.90 453.70 L 483.60 453.20 L 484.90 453.90 Z" fill="#a7343f" fill-rule="nonzero" group-id="3" node-id="135" stroke="none" target-height="4.0999756" target-width="4.3000183" target-x="480.8" target-y="453.2"/></g><g node-id="219"><path d="M 448.50 454.70 L 452.10 455.30 L 453.20 456.00 L 453.50 456.70 L 453.20 457.40 L 452.00 458.00 L 448.40 458.50 L 444.80 457.80 L 443.60 457.10 L 443.30 456.50 L 443.70 455.80 L 444.80 455.20 L 448.50 454.70 Z" fill="#a7343f" fill-rule="nonzero" group-id="4" node-id="140" stroke="none" target-height="3.7999878" target-width="10.200012" target-x="443.3" target-y="454.7"/></g><path d="M 347.00 476.40 L 349.30 479.50 L 350.50 483.20 L 350.40 487.00 L 349.40 490.40 L 348.10 493.60 L 346.30 496.60 L 342.30 501.30 L 338.10 504.40 L 335.70 505.60 L 330.80 507.00 L 324.60 507.30 L 321.50 506.90 L 318.40 506.30 L 312.60 504.10 L 310.00 502.60 L 305.60 498.80 L 304.00 496.50 L 302.70 494.00 L 301.80 491.10 L 301.50 488.20 L 301.70 484.90 L 302.60 481.20 L 304.90 476.40 L 306.50 474.30 L 310.00 471.80 L 313.50 470.80 L 330.70 468.20 L 336.60 468.40 L 339.40 469.00 L 342.50 470.60 L 343.70 471.70 L 345.00 474.20 L 347.00 476.40 Z" fill="#fe8964" fill-rule="nonzero" node-id="143" stroke="none" target-height="39.099976" target-width="49" target-x="301.5" target-y="468.2"/><path d="M 413.10 499.30 L 421.00 500.50 L 428.90 501.30 L 437.00 501.60 L 445.00 501.50 L 456.80 498.70 L 464.90 496.00 L 471.20 495.10 L 476.60 494.90 L 483.10 495.30 L 487.70 494.30 L 501.10 495.40 L 507.80 495.60 L 517.80 495.30 L 520.90 494.50 L 523.90 493.10 L 528.10 490.40 L 532.10 487.30 L 534.90 485.70 L 537.90 482.60 L 539.80 482.10 L 542.00 482.90 L 542.80 483.60 L 543.40 485.40 L 543.20 486.30 L 540.50 488.80 L 536.90 490.20 L 532.20 491.30 L 529.70 492.30 L 521.40 496.90 L 513.50 501.90 L 505.80 507.30 L 504.00 508.30 L 502.10 508.80 L 500.00 508.90 L 496.90 508.40 L 493.70 507.10 L 487.50 503.40 L 481.00 498.60 L 479.70 498.30 L 476.10 498.20 L 472.50 498.50 L 446.00 504.00 L 437.20 504.80 L 427.50 504.50 L 417.30 502.70 L 412.40 501.20 L 411.90 500.70 L 411.70 500.00 L 411.80 499.70 L 413.10 499.30 Z M 510.70 501.00 L 511.30 500.10 L 511.20 499.10 L 510.70 498.60 L 510.00 498.40 L 489.50 498.40 L 488.50 498.80 L 488.10 499.80 L 488.30 500.50 L 488.80 501.00 L 499.70 507.80 L 500.50 508.00 L 501.10 507.80 L 510.70 501.00 Z" fill="#c33935" fill-rule="nonzero" node-id="145" stroke="none" target-height="26.799988" target-width="131.70001" target-x="411.7" target-y="482.1"/><path d="M 391.90 491.30 L 392.60 491.10 L 400.00 495.10 L 405.00 498.30 L 406.40 499.60 L 406.40 500.50 L 405.90 500.70 L 404.00 500.40 L 401.80 499.60 L 391.20 494.90 L 390.70 494.40 L 391.90 491.30 Z" fill="#c33935" fill-rule="nonzero" node-id="147" stroke="none" target-height="9.600006" target-width="15.699982" target-x="390.7" target-y="491.1"/><path d="M 510.70 501.00 L 501.00 507.80 L 500.20 508.00 L 488.70 501.00 L 488.00 500.10 L 488.00 499.60 L 488.70 498.60 L 510.60 498.40 L 511.60 499.60 L 511.40 500.40 L 510.70 501.00 Z" fill="#ffbca9" fill-rule="nonzero" node-id="149" stroke="none" target-height="9.600006" target-width="23.600006" target-x="488" target-y="498.4"/><path d="M 655.00 512.10 L 666.90 518.70 L 668.00 520.40 L 667.90 523.00 L 667.10 523.80 L 665.90 523.70 L 663.40 521.90 L 660.70 520.50 L 657.90 519.50 L 652.00 518.60 L 649.00 518.80 L 646.00 519.40 L 643.10 520.40 L 637.50 523.00 L 634.60 523.70 L 631.60 523.90 L 628.50 523.70 L 627.30 523.30 L 626.30 522.50 L 625.70 521.30 L 625.60 520.10 L 626.30 518.40 L 629.30 515.60 L 632.60 513.10 L 636.50 511.00 L 640.50 509.40 L 645.20 508.00 L 650.40 507.10 L 651.70 507.10 L 652.60 507.60 L 653.10 508.30 L 653.80 511.70 L 655.00 512.10 Z" fill="#ffa490" fill-rule="nonzero" node-id="151" stroke="none" target-height="16.800018" target-width="42.400024" target-x="625.6" target-y="507.1"/><path d="M 699.20 509.90 L 697.10 511.20 L 696.80 511.80 L 696.90 512.70 L 697.50 513.20 L 699.60 513.50 L 703.00 514.90 L 705.20 516.60 L 707.10 518.80 L 708.40 521.60 L 709.70 525.80 L 710.70 530.60 L 711.40 536.70 L 709.90 534.30 L 708.40 530.00 L 707.40 528.60 L 702.50 524.40 L 696.00 516.20 L 695.60 515.20 L 695.20 513.00 L 695.70 510.60 L 696.40 509.90 L 697.50 509.60 L 699.20 509.90 Z" fill="#da919e" fill-rule="nonzero" node-id="153" stroke="none" target-height="27.100006" target-width="16.200012" target-x="695.2" target-y="509.6"/><path d="M 695.80 516.20 L 702.30 524.40 L 707.80 529.30 L 708.50 530.40 L 709.70 534.30 L 711.20 536.70 L 740.90 543.20 L 742.40 543.90 L 743.50 545.00 L 744.00 546.40 L 743.90 548.50 L 739.30 557.10 L 735.20 565.90 L 731.20 575.30 L 731.50 576.50 L 731.90 576.70 L 738.20 576.70 L 744.00 577.20 L 749.70 578.10 L 755.30 579.50 L 760.70 581.40 L 766.00 583.70 L 767.10 584.50 L 767.60 585.50 L 767.80 586.70 L 767.40 588.00 L 747.10 620.20 L 747.80 621.20 L 765.20 633.80 L 765.80 634.40 L 766.00 635.80 L 765.60 636.70 L 762.40 639.40 L 760.00 642.20 L 757.90 645.30 L 755.50 650.30 L 754.30 651.70 L 752.70 652.70 L 749.80 653.50 L 748.00 655.10 L 747.20 659.10 L 747.50 664.50 L 749.30 669.60 L 751.20 673.10 L 751.10 675.40 L 750.50 676.60 L 745.70 682.20 L 744.70 683.90 L 743.30 688.80 L 742.10 697.70 L 741.50 700.60 L 740.40 703.40 L 733.60 716.90 L 730.50 721.40 L 727.00 725.60 L 723.00 729.70 L 721.50 724.00 L 720.60 718.30 L 720.30 712.60 L 720.60 706.80 L 722.40 704.20 L 724.20 702.40 L 726.00 701.30 L 727.80 700.70 L 729.80 700.60 L 732.90 701.00 L 733.80 700.00 L 739.80 678.80 L 740.80 673.70 L 741.50 668.60 L 742.20 653.40 L 742.20 648.40 L 741.70 643.30 L 738.30 624.90 L 736.30 617.90 L 732.60 608.40 L 725.80 588.80 L 724.10 584.60 L 718.70 573.50 L 712.80 562.60 L 706.50 551.90 L 699.80 541.50 L 684.20 520.20 L 683.80 518.80 L 683.80 517.30 L 684.30 515.80 L 687.20 511.50 L 688.40 510.60 L 689.90 510.80 L 692.20 513.60 L 693.90 515.10 L 695.80 516.20 Z" fill="#734461" fill-rule="nonzero" node-id="155" stroke="none" target-height="219.1" target-width="84" target-x="683.8" target-y="510.6"/><path d="M 289.00 513.60 L 314.80 527.60 L 315.20 528.10 L 314.90 528.80 L 311.80 529.90 L 308.70 530.60 L 305.50 530.80 L 302.20 530.50 L 300.00 529.50 L 294.30 524.50 L 292.20 523.30 L 289.30 522.80 L 287.90 523.20 L 285.70 525.20 L 283.80 527.50 L 282.40 530.00 L 280.20 535.30 L 279.30 536.40 L 278.00 537.00 L 277.50 536.50 L 281.70 524.40 L 283.50 520.70 L 285.90 517.20 L 289.00 513.60 Z" fill="#feac9f" fill-rule="nonzero" node-id="157" stroke="none" target-height="23.400024" target-width="37.700012" target-x="277.5" target-y="513.6"/><path d="M 288.10 523.20 L 290.00 523.40 L 290.50 523.90 L 290.40 527.70 L 290.70 528.90 L 292.10 531.10 L 293.80 535.80 L 294.00 540.80 L 293.50 544.90 L 294.20 547.40 L 296.10 549.20 L 303.80 551.10 L 305.70 552.50 L 307.40 556.60 L 308.30 560.20 L 308.70 563.40 L 308.60 566.20 L 308.10 568.80 L 307.10 571.30 L 305.50 573.60 L 303.50 575.70 L 300.90 577.70 L 297.50 579.50 L 294.50 579.60 L 292.00 579.30 L 290.00 578.70 L 288.30 577.70 L 286.90 576.40 L 284.30 573.20 L 281.40 570.30 L 278.20 567.70 L 276.30 566.80 L 274.90 566.60 L 273.90 566.90 L 273.20 567.70 L 272.60 569.30 L 272.40 572.00 L 273.10 575.10 L 274.80 577.80 L 279.40 582.10 L 280.90 584.00 L 281.70 585.80 L 282.00 587.80 L 281.40 591.90 L 279.10 596.80 L 276.80 600.40 L 276.40 602.80 L 276.80 604.60 L 277.70 606.20 L 288.10 616.20 L 299.60 625.10 L 305.50 629.00 L 312.20 632.80 L 312.70 634.20 L 312.50 636.10 L 311.50 635.90 L 300.20 629.20 L 291.30 623.20 L 285.80 619.10 L 276.40 611.10 L 275.70 611.00 L 275.10 611.60 L 273.80 622.70 L 273.60 623.70 L 272.60 624.60 L 270.90 625.20 L 269.20 625.10 L 268.30 624.60 L 267.50 623.70 L 264.60 617.70 L 268.40 606.30 L 267.90 602.40 L 266.10 595.40 L 265.50 590.80 L 265.60 586.20 L 267.10 575.40 L 268.00 564.00 L 269.80 554.00 L 273.00 544.30 L 275.10 539.60 L 277.80 535.70 L 278.70 536.20 L 280.50 534.50 L 282.50 529.70 L 283.90 527.40 L 285.70 525.20 L 288.10 523.20 Z" fill="#7d434d" fill-rule="nonzero" node-id="159" stroke="none" target-height="112.89996" target-width="48.100006" target-x="264.6" target-y="523.2"/><path d="M 668.80 551.90 L 665.20 550.00 L 664.40 548.80 L 665.20 540.40 L 665.00 530.50 L 665.60 527.40 L 666.40 526.30 L 667.60 525.20 L 669.30 524.40 L 670.30 524.40 L 671.20 524.90 L 674.00 528.00 L 676.40 531.30 L 678.30 534.80 L 679.80 538.50 L 680.90 542.30 L 681.60 546.30 L 681.70 550.20 L 681.40 554.20 L 679.30 564.70 L 677.60 575.90 L 676.40 579.90 L 674.70 583.80 L 672.50 587.40 L 669.70 590.90 L 666.40 594.20 L 662.50 597.30 L 659.70 599.20 L 659.10 599.30 L 659.20 598.70 L 661.30 595.90 L 669.00 586.50 L 671.60 582.30 L 673.60 577.60 L 673.80 575.20 L 673.50 570.40 L 673.90 565.90 L 673.70 564.20 L 671.40 558.10 L 670.20 553.50 L 669.70 552.60 L 668.80 551.90 Z" fill="#7d434d" fill-rule="nonzero" node-id="161" stroke="none" target-height="74.89996" target-width="22.600037" target-x="659.1" target-y="524.4"/><path d="M 659.90 547.80 L 653.10 552.60 L 651.00 553.70 L 648.80 554.10 L 646.60 554.00 L 644.50 553.30 L 642.60 552.10 L 637.10 545.10 L 636.00 543.00 L 635.60 540.80 L 635.70 538.60 L 636.30 536.50 L 638.00 534.00 L 649.40 526.00 L 651.50 525.00 L 653.70 524.50 L 655.90 524.60 L 658.00 525.40 L 659.90 526.60 L 661.50 528.40 L 662.80 531.40 L 663.10 543.30 L 661.50 546.40 L 659.90 547.80 Z" fill="#7d434d" fill-rule="nonzero" node-id="163" stroke="none" target-height="29.599976" target-width="27.5" target-x="635.6" target-y="524.5"/><path d="M 617.60 687.40 L 613.90 689.90 L 610.00 692.00 L 606.00 693.70 L 601.70 695.10 L 586.10 698.50 L 554.80 703.60 L 515.50 707.90 L 497.40 709.30 L 479.30 710.20 L 461.20 710.50 L 428.90 709.80 L 414.70 708.80 L 400.60 707.40 L 386.50 705.50 L 372.50 703.20 L 358.60 700.40 L 354.80 699.30 L 351.30 697.90 L 348.00 696.10 L 337.80 689.10 L 333.50 678.60 L 331.20 671.30 L 329.50 664.10 L 328.60 657.00 L 328.20 650.10 L 328.50 643.30 L 329.40 636.50 L 334.10 619.40 L 340.30 602.90 L 344.00 594.60 L 348.20 586.50 L 352.80 578.60 L 357.70 571.00 L 361.00 566.50 L 364.20 562.70 L 367.40 559.60 L 370.80 556.90 L 374.40 554.60 L 382.10 551.10 L 391.10 548.40 L 398.40 546.80 L 418.40 543.20 L 441.30 540.50 L 470.50 538.70 L 487.70 538.20 L 499.10 538.20 L 521.40 539.40 L 532.40 540.70 L 543.20 542.50 L 553.80 544.90 L 563.00 548.40 L 571.50 553.00 L 579.40 558.90 L 585.00 563.80 L 590.20 568.90 L 595.10 574.30 L 599.70 579.90 L 604.00 585.80 L 608.00 591.90 L 611.60 598.20 L 614.90 604.80 L 617.80 611.40 L 620.40 618.30 L 622.50 625.30 L 624.30 632.50 L 625.70 642.40 L 625.80 647.50 L 625.50 652.50 L 624.30 661.30 L 622.60 670.10 L 620.40 678.80 L 617.60 687.40 Z" fill="#fef2e1" fill-rule="nonzero" node-id="165" stroke="none" target-height="172.29999" target-width="297.59998" target-x="328.2" target-y="538.2"/><g node-id="220"><path d="M 662.40 557.10 L 664.60 558.40 L 666.40 560.30 L 667.90 562.50 L 668.80 565.10 L 669.30 568.00 L 669.30 570.90 L 668.70 573.90 L 667.60 576.80 L 666.10 579.50 L 664.20 581.80 L 662.00 583.80 L 659.50 585.30 L 656.80 586.20 L 654.20 586.60 L 651.70 586.40 L 649.20 585.60 L 647.00 584.20 L 645.20 582.40 L 643.80 580.20 L 642.80 577.50 L 642.40 574.70 L 642.40 571.70 L 643.00 568.80 L 644.00 565.90 L 645.60 563.20 L 647.50 560.80 L 649.70 558.90 L 652.20 557.40 L 654.80 556.40 L 657.40 556.10 L 660.00 556.30 L 662.40 557.10 Z" fill="#7d434d" fill-rule="nonzero" group-id="5" node-id="169" stroke="none" target-height="30.5" target-width="26.899963" target-x="642.4" target-y="556.1"/></g><path d="M 297.20 580.00 L 295.10 581.20 L 292.80 582.00 L 290.30 582.30 L 286.90 582.20 L 285.30 583.20 L 284.90 584.80 L 285.30 586.50 L 286.20 588.00 L 287.50 589.10 L 296.00 592.70 L 303.20 594.70 L 318.40 598.00 L 332.40 601.70 L 334.90 601.80 L 338.10 600.80 L 339.10 601.40 L 340.10 603.10 L 333.90 619.60 L 331.30 628.10 L 329.20 636.70 L 328.40 642.80 L 328.00 648.90 L 328.20 655.00 L 328.80 661.20 L 329.90 667.30 L 331.60 673.50 L 333.70 679.90 L 336.40 686.40 L 334.90 687.90 L 334.50 687.90 L 333.20 686.20 L 329.80 678.10 L 326.90 669.90 L 323.70 659.50 L 321.40 655.30 L 319.10 652.70 L 315.50 650.10 L 314.00 650.40 L 313.40 651.00 L 312.60 653.40 L 311.70 654.70 L 311.50 650.60 L 310.10 650.80 L 300.90 682.30 L 300.40 682.70 L 299.00 682.90 L 294.10 679.50 L 293.10 679.40 L 291.90 679.70 L 288.70 682.50 L 287.30 684.10 L 285.50 687.00 L 285.30 688.00 L 285.30 689.10 L 285.90 690.50 L 289.00 693.20 L 293.20 695.00 L 297.80 695.60 L 301.10 695.20 L 302.00 694.60 L 302.60 693.70 L 303.10 690.50 L 303.80 688.60 L 300.90 712.50 L 298.10 711.50 L 295.60 710.20 L 293.40 708.40 L 291.20 705.70 L 290.80 704.10 L 287.50 701.30 L 285.40 699.00 L 283.60 696.30 L 282.30 693.50 L 281.50 690.50 L 280.70 683.30 L 279.90 679.30 L 278.70 675.30 L 276.90 670.80 L 274.60 666.60 L 273.70 666.00 L 271.50 666.60 L 269.70 666.60 L 268.50 665.40 L 267.60 663.70 L 266.70 663.50 L 264.80 664.20 L 263.60 649.40 L 263.70 634.50 L 265.00 619.50 L 268.60 626.40 L 270.50 627.10 L 271.40 627.10 L 273.00 626.40 L 273.90 625.50 L 274.20 624.50 L 275.20 614.80 L 275.60 613.30 L 276.10 612.80 L 276.80 612.80 L 278.10 613.80 L 286.20 620.90 L 291.70 625.00 L 300.60 631.00 L 311.90 637.70 L 312.40 637.90 L 312.90 637.70 L 313.10 635.00 L 312.60 633.60 L 305.80 629.70 L 299.70 625.80 L 293.90 621.60 L 282.90 612.20 L 277.80 607.00 L 276.80 605.40 L 276.40 603.60 L 276.50 602.40 L 276.90 601.20 L 280.80 594.60 L 281.60 592.60 L 282.10 588.50 L 281.80 586.60 L 281.00 584.70 L 279.50 582.90 L 274.90 578.60 L 273.20 576.00 L 272.50 572.80 L 272.70 570.10 L 273.30 568.50 L 274.00 567.70 L 275.00 567.30 L 276.40 567.50 L 278.30 568.50 L 281.50 571.10 L 284.40 574.00 L 287.00 577.20 L 289.30 578.90 L 293.70 580.00 L 297.20 580.00 Z" fill="#e54a3e" fill-rule="nonzero" node-id="172" stroke="none" target-height="145.20001" target-width="76.5" target-x="263.6" target-y="567.3"/><path d="M 688.60 707.20 L 688.70 711.00 L 688.20 714.60 L 687.30 718.20 L 685.70 721.70 L 679.60 724.40 L 668.60 730.10 L 637.70 743.20 L 625.10 748.00 L 615.70 751.10 L 606.30 753.70 L 596.70 755.80 L 587.10 757.40 L 577.30 758.40 L 586.50 746.40 L 595.30 734.10 L 603.60 721.50 L 605.00 718.70 L 605.40 717.10 L 605.20 716.30 L 604.70 715.80 L 603.60 715.70 L 614.00 697.00 L 621.90 690.80 L 623.40 686.70 L 626.50 682.10 L 634.10 653.50 L 635.90 650.50 L 637.20 649.50 L 638.80 648.80 L 641.00 648.50 L 656.20 648.50 L 659.30 648.90 L 662.20 649.90 L 664.90 651.40 L 670.70 656.50 L 673.80 660.00 L 676.50 663.70 L 678.90 667.80 L 681.70 674.00 L 684.10 680.40 L 685.90 686.90 L 687.30 693.60 L 688.20 700.30 L 688.60 707.20 Z" fill="#819765" fill-rule="nonzero" node-id="174" stroke="none" target-height="109.900024" target-width="111.400024" target-x="577.3" target-y="648.5"/><path d="M 311.50 653.80 L 303.50 687.40 L 302.80 689.20 L 302.30 692.30 L 301.80 693.30 L 301.00 693.90 L 297.50 694.40 L 292.90 693.80 L 288.70 692.00 L 286.80 690.60 L 285.70 689.40 L 285.10 687.90 L 285.20 686.30 L 285.80 684.80 L 287.40 682.50 L 289.30 680.40 L 291.60 678.50 L 292.70 678.10 L 293.80 678.30 L 298.90 681.90 L 299.50 681.80 L 300.40 681.00 L 309.30 650.00 L 309.60 649.50 L 310.90 649.30 L 311.50 653.80 Z" fill="#6c3d4f" fill-rule="nonzero" node-id="176" stroke="none" target-height="45.100037" target-width="26.399994" target-x="285.1" target-y="649.3"/><path d="M 333.20 685.70 L 337.40 695.00 L 342.10 704.00 L 347.30 712.80 L 352.90 721.20 L 359.00 729.30 L 365.60 737.10 L 372.10 744.20 L 379.00 750.90 L 386.10 757.20 L 393.60 763.20 L 394.00 763.80 L 374.70 762.60 L 356.00 760.60 L 337.30 758.10 L 318.80 755.00 L 315.90 749.30 L 314.00 746.60 L 310.80 742.90 L 307.20 739.50 L 306.60 734.70 L 305.50 730.10 L 304.10 725.70 L 302.30 721.40 L 300.00 717.30 L 300.60 715.40 L 300.70 713.40 L 300.50 711.30 L 303.40 687.40 L 311.40 653.80 L 312.30 652.60 L 312.80 650.30 L 314.00 649.30 L 315.30 649.30 L 318.50 651.90 L 320.90 654.50 L 322.20 656.50 L 323.20 658.60 L 326.60 669.40 L 333.20 685.70 Z" fill="#819765" fill-rule="nonzero" node-id="178" stroke="none" target-height="114.5" target-width="94" target-x="300" target-y="649.3"/><path d="M 706.20 664.00 L 710.30 669.40 L 712.00 672.50 L 713.20 675.70 L 713.90 679.00 L 714.10 682.30 L 713.90 684.80 L 712.40 689.50 L 710.00 692.90 L 707.50 694.20 L 706.10 694.40 L 703.30 693.70 L 700.50 692.40 L 698.40 691.00 L 697.00 689.40 L 696.00 687.50 L 695.40 685.60 L 695.20 683.40 L 695.60 680.20 L 696.60 676.70 L 699.70 670.10 L 703.80 663.90 L 705.30 663.60 L 706.20 664.00 Z" fill="#706e6d" fill-rule="nonzero" node-id="180" stroke="none" target-height="30.800049" target-width="18.899963" target-x="695.2" target-y="663.6"/><path d="M 333.20 685.70 L 333.90 686.20 L 334.70 687.60 L 336.40 685.90 L 341.90 697.90 L 346.60 706.70 L 351.70 715.00 L 357.20 723.00 L 363.30 730.70 L 369.70 737.90 L 376.60 744.60 L 383.90 750.80 L 390.00 755.50 L 396.40 759.80 L 403.10 763.70 L 410.10 767.30 L 422.30 772.40 L 427.20 773.80 L 432.20 774.80 L 437.30 775.40 L 437.60 776.00 L 437.30 777.00 L 436.40 777.50 L 434.40 777.80 L 430.70 780.30 L 426.60 782.40 L 419.70 785.20 L 415.00 788.30 L 412.90 790.40 L 411.00 791.10 L 388.50 791.60 L 385.90 789.10 L 383.10 786.90 L 380.00 785.20 L 376.60 783.80 L 372.80 782.90 L 368.60 782.30 L 363.90 782.20 L 363.70 781.20 L 363.10 780.60 L 362.00 780.40 L 360.00 780.80 L 358.80 781.50 L 357.30 784.60 L 356.10 786.20 L 354.50 787.50 L 352.50 788.30 L 349.90 788.60 L 346.10 788.30 L 343.80 787.40 L 342.00 786.10 L 340.40 784.40 L 327.00 766.40 L 318.70 754.30 L 337.20 757.40 L 355.80 759.90 L 374.50 761.90 L 393.30 763.20 L 394.10 762.90 L 386.10 756.50 L 378.90 750.20 L 372.00 743.50 L 359.00 728.90 L 352.90 721.00 L 347.30 712.70 L 342.10 704.00 L 337.40 695.00 L 333.20 685.70 Z" fill="#4c7068" fill-rule="nonzero" node-id="182" stroke="none" target-height="105.89996" target-width="118.899994" target-x="318.7" target-y="685.7"/><path d="M 617.60 687.40 L 616.30 692.40 L 615.30 694.80 L 603.60 715.70 L 599.10 723.20 L 589.30 737.60 L 584.00 744.50 L 578.30 750.90 L 572.20 757.00 L 567.30 761.20 L 562.20 765.20 L 556.80 768.80 L 551.00 772.20 L 545.20 774.00 L 539.10 775.30 L 532.90 776.30 L 513.00 777.50 L 493.00 778.10 L 473.10 778.20 L 453.20 777.70 L 432.20 774.90 L 427.20 773.90 L 417.50 770.70 L 410.10 767.40 L 403.10 763.80 L 396.40 759.90 L 390.00 755.60 L 383.90 751.00 L 376.60 744.70 L 369.70 738.00 L 363.30 730.90 L 357.20 723.20 L 351.70 715.20 L 346.60 706.90 L 341.90 698.10 L 337.60 688.90 L 347.80 695.90 L 354.60 699.10 L 358.40 700.20 L 372.30 703.00 L 386.30 705.30 L 400.40 707.20 L 414.50 708.60 L 428.70 709.60 L 461.00 710.30 L 479.10 710.00 L 497.20 709.10 L 515.30 707.70 L 547.50 704.20 L 564.80 701.90 L 580.80 699.30 L 592.80 696.90 L 601.50 694.90 L 605.90 693.50 L 610.00 691.80 L 613.90 689.80 L 617.60 687.40 Z" fill="#f4c5a9" fill-rule="nonzero" node-id="184" stroke="none" target-height="90.79999" target-width="279.99997" target-x="337.6" target-y="687.4"/><path d="M 808.60 711.30 L 807.80 713.40 L 806.60 715.10 L 805.00 716.50 L 803.20 717.50 L 801.20 718.10 L 798.90 718.30 L 794.60 716.30 L 785.90 713.20 L 777.90 708.80 L 775.60 707.80 L 773.20 707.20 L 770.80 707.00 L 768.50 707.40 L 761.30 709.60 L 753.30 713.70 L 747.90 716.10 L 742.20 718.00 L 744.10 709.60 L 745.30 707.90 L 747.50 707.00 L 752.30 706.10 L 760.00 704.10 L 765.30 703.20 L 770.70 702.60 L 776.10 702.50 L 788.00 703.60 L 793.40 702.40 L 797.40 702.80 L 801.30 704.60 L 805.10 707.80 L 808.60 711.30 Z" fill="#f0d1cd" fill-rule="nonzero" node-id="186" stroke="none" target-height="15.899963" target-width="66.39996" target-x="742.2" target-y="702.4"/><path d="M 720.70 706.90 L 720.50 712.70 L 720.80 718.50 L 721.70 724.30 L 723.10 729.80 L 720.20 732.00 L 717.60 734.60 L 715.50 737.60 L 713.90 740.90 L 711.40 737.10 L 708.90 734.00 L 706.20 731.50 L 703.40 729.50 L 700.30 728.00 L 696.90 727.10 L 693.40 726.60 L 688.50 726.50 L 686.90 724.60 L 685.60 724.50 L 686.00 722.90 L 685.60 721.40 L 687.00 717.90 L 687.90 714.30 L 688.40 710.70 L 688.50 706.90 L 691.90 708.60 L 694.70 709.60 L 697.40 710.00 L 699.80 709.80 L 706.80 708.20 L 713.70 707.20 L 720.70 706.90 Z" fill="#c33935" fill-rule="nonzero" node-id="188" stroke="none" target-height="34" target-width="37.5" target-x="685.6" target-y="706.9"/><path d="M 798.70 718.30 L 799.60 718.90 L 801.10 719.10 L 802.70 718.80 L 806.60 717.40 L 807.90 717.50 L 809.10 718.10 L 810.00 719.00 L 814.50 726.50 L 818.70 734.20 L 822.50 742.10 L 825.90 750.10 L 827.00 751.80 L 828.50 753.10 L 830.30 754.00 L 832.40 754.40 L 833.40 754.90 L 834.10 755.80 L 834.20 757.00 L 833.60 758.00 L 832.70 758.70 L 830.70 759.40 L 827.20 763.60 L 820.90 773.40 L 819.40 776.70 L 818.80 778.90 L 818.70 780.90 L 819.10 782.90 L 819.90 784.80 L 821.40 786.70 L 824.20 789.30 L 823.70 790.40 L 821.50 791.10 L 811.00 792.00 L 789.90 793.00 L 746.20 792.50 L 717.50 792.50 L 696.70 791.30 L 696.60 789.90 L 708.00 764.00 L 717.50 745.60 L 722.80 736.80 L 728.00 729.50 L 731.10 726.30 L 734.40 723.40 L 738.00 720.80 L 741.90 718.50 L 747.50 716.60 L 752.90 714.20 L 761.00 710.10 L 768.20 707.90 L 770.40 707.50 L 772.80 707.70 L 775.20 708.30 L 777.60 709.30 L 785.70 713.70 L 789.90 715.40 L 794.50 716.60 L 798.70 718.30 Z" fill="#958a9c" fill-rule="nonzero" node-id="190" stroke="none" target-height="85.5" target-width="137.60004" target-x="696.6" target-y="707.5"/><path d="M 808.60 711.30 L 815.30 717.30 L 821.70 723.70 L 827.70 730.40 L 833.30 737.50 L 838.40 744.90 L 843.10 752.60 L 846.10 759.10 L 851.20 774.50 L 854.90 787.60 L 854.70 789.60 L 854.10 790.30 L 853.00 790.70 L 821.60 790.70 L 823.80 790.00 L 824.30 789.50 L 824.30 789.00 L 821.50 786.30 L 820.00 784.30 L 819.20 782.50 L 818.80 780.50 L 818.90 778.40 L 819.50 776.20 L 821.00 773.00 L 827.00 763.80 L 829.90 759.80 L 833.70 757.60 L 834.20 756.60 L 834.20 755.40 L 833.00 754.10 L 830.50 753.60 L 828.80 752.70 L 827.20 751.40 L 826.00 749.70 L 821.10 739.00 L 815.80 728.60 L 810.10 718.60 L 809.20 717.50 L 808.00 717.00 L 806.60 716.90 L 802.80 718.40 L 801.00 718.60 L 799.70 718.50 L 798.80 717.90 L 801.10 718.00 L 803.10 717.60 L 804.90 716.70 L 806.50 715.30 L 807.70 713.50 L 808.60 711.30 Z" fill="#baa4ab" fill-rule="nonzero" node-id="192" stroke="none" target-height="79.400024" target-width="56.100037" target-x="798.8" target-y="711.3"/><path d="M 603.60 715.60 L 604.90 715.70 L 605.50 716.20 L 605.60 717.00 L 605.20 718.60 L 603.60 721.40 L 591.00 740.30 L 577.30 758.60 L 558.00 773.10 L 557.30 773.80 L 557.00 774.60 L 557.00 775.50 L 557.60 776.70 L 560.40 779.20 L 563.20 781.40 L 569.60 784.70 L 576.50 786.60 L 588.20 788.20 L 600.10 789.30 L 599.90 790.70 L 598.40 791.90 L 591.00 792.30 L 583.60 792.10 L 576.20 791.30 L 568.90 790.00 L 565.70 787.30 L 562.20 785.10 L 558.50 783.20 L 551.30 774.80 L 550.60 771.70 L 556.50 768.50 L 562.00 765.00 L 567.20 761.10 L 572.10 756.90 L 578.20 750.90 L 583.90 744.40 L 589.30 737.60 L 599.10 723.10 L 603.60 715.60 Z" fill="#6c3d4f" fill-rule="nonzero" node-id="194" stroke="none" target-height="76.70001" target-width="55" target-x="550.6" target-y="715.6"/><path d="M 685.70 721.70 L 686.00 724.10 L 682.80 735.40 L 679.50 745.90 L 677.30 750.90 L 674.60 755.70 L 660.30 776.90 L 655.00 784.20 L 653.50 785.80 L 651.70 786.90 L 649.70 787.60 L 647.50 787.80 L 635.90 787.80 L 629.40 786.60 L 622.00 783.80 L 617.70 782.80 L 613.20 782.30 L 609.80 782.60 L 608.00 783.20 L 607.20 783.70 L 607.00 784.30 L 607.50 785.20 L 607.30 785.50 L 602.60 787.90 L 602.40 789.80 L 601.40 791.50 L 599.00 792.00 L 600.50 790.80 L 600.70 789.40 L 582.90 787.70 L 573.50 785.90 L 570.10 784.80 L 563.80 781.50 L 560.90 779.30 L 557.70 776.00 L 557.70 774.20 L 558.50 773.20 L 577.80 758.70 L 594.00 756.70 L 602.00 755.20 L 610.00 753.20 L 625.60 748.30 L 645.90 740.30 L 669.10 730.40 L 679.60 724.30 L 685.70 721.70 Z" fill="#4c7068" fill-rule="nonzero" node-id="196" stroke="none" target-height="70.29999" target-width="128.29999" target-x="557.7" target-y="721.7"/><path d="M 685.70 724.80 L 686.80 724.90 L 688.60 726.80 L 689.60 727.00 L 693.50 726.90 L 697.00 727.40 L 700.30 728.40 L 703.40 729.90 L 706.20 731.80 L 708.90 734.30 L 711.50 737.40 L 714.00 741.20 L 705.30 749.00 L 695.80 755.50 L 690.70 758.30 L 685.50 760.80 L 673.40 765.10 L 672.50 766.00 L 657.30 787.70 L 655.90 789.10 L 654.20 790.30 L 652.00 791.20 L 648.40 792.10 L 640.30 792.70 L 629.50 792.50 L 628.80 791.20 L 625.30 788.10 L 621.20 786.20 L 615.30 785.20 L 606.80 785.20 L 606.70 784.60 L 607.70 783.40 L 609.50 782.90 L 612.80 782.50 L 616.20 782.70 L 622.70 784.30 L 628.90 786.80 L 632.20 787.60 L 635.50 788.00 L 647.10 788.00 L 649.30 787.70 L 651.30 787.00 L 653.10 785.90 L 654.60 784.40 L 661.70 774.60 L 668.20 765.20 L 677.10 751.00 L 679.30 745.90 L 681.20 740.70 L 685.70 724.80 Z" fill="#63344a" fill-rule="nonzero" node-id="198" stroke="none" target-height="67.900024" target-width="107.29999" target-x="606.7" target-y="724.8"/><path d="M 241.00 734.00 L 241.40 735.30 L 242.20 736.40 L 243.80 736.90 L 245.30 736.40 L 248.60 737.00 L 251.80 738.20 L 254.70 739.80 L 257.40 741.80 L 259.70 744.20 L 269.80 759.20 L 274.50 765.00 L 279.60 770.40 L 287.80 784.80 L 288.50 784.80 L 290.30 781.50 L 291.90 779.40 L 293.70 778.00 L 295.60 777.10 L 297.70 776.70 L 300.10 776.80 L 302.90 777.60 L 306.20 779.10 L 313.20 783.30 L 316.50 785.80 L 320.60 789.80 L 321.10 791.10 L 319.90 791.80 L 299.40 791.90 L 271.20 792.60 L 251.10 792.20 L 219.10 792.20 L 199.10 791.50 L 190.20 790.70 L 181.50 791.70 L 179.60 791.70 L 173.70 790.70 L 169.10 791.00 L 178.00 789.80 L 179.60 789.20 L 180.80 788.30 L 181.60 787.00 L 182.60 782.70 L 185.50 778.50 L 186.50 774.50 L 186.60 769.20 L 187.00 768.10 L 190.00 762.60 L 193.40 757.30 L 197.30 752.30 L 201.50 747.60 L 203.00 747.30 L 205.30 744.70 L 208.90 742.10 L 210.40 741.60 L 217.80 739.70 L 225.20 738.40 L 232.70 737.60 L 240.30 737.30 L 241.00 734.00 Z" fill="#958a9c" fill-rule="nonzero" node-id="200" stroke="none" target-height="58.599976" target-width="152" target-x="169.1" target-y="734"/><path d="M 318.70 755.00 L 327.00 767.00 L 340.40 785.10 L 342.00 786.80 L 343.80 788.20 L 346.10 789.10 L 347.80 789.30 L 352.50 789.00 L 354.40 788.20 L 356.00 787.00 L 357.30 785.40 L 358.40 782.70 L 359.40 781.70 L 362.00 781.20 L 363.10 781.40 L 363.70 782.00 L 363.90 782.90 L 361.90 783.80 L 360.20 785.10 L 358.90 786.80 L 358.10 788.70 L 357.80 790.80 L 358.10 793.00 L 351.70 792.50 L 343.30 792.90 L 341.40 792.70 L 337.90 791.10 L 336.50 789.80 L 327.90 776.90 L 323.50 771.30 L 319.50 765.40 L 315.80 759.30 L 312.60 752.90 L 309.80 746.30 L 307.40 739.50 L 310.90 742.80 L 314.00 746.50 L 316.60 750.60 L 318.70 755.00 Z" fill="#4d3a6a" fill-rule="nonzero" node-id="202" stroke="none" target-height="53.5" target-width="56.5" target-x="307.4" target-y="739.5"/><path d="M 551.00 772.10 L 551.00 773.70 L 551.70 775.20 L 542.90 777.30 L 534.00 778.80 L 525.00 779.90 L 516.00 780.50 L 456.40 781.00 L 449.20 780.50 L 442.00 779.60 L 434.70 778.30 L 436.90 777.80 L 437.80 777.20 L 438.00 776.60 L 437.60 775.90 L 453.50 778.10 L 473.40 778.50 L 493.40 778.40 L 513.30 777.70 L 533.20 776.70 L 542.10 774.70 L 551.00 772.10 Z" fill="#da919e" fill-rule="nonzero" node-id="204" stroke="none" target-height="8.900024" target-width="117" target-x="434.7" target-y="772.1"/><path d="M 363.90 782.80 L 368.70 782.90 L 373.00 783.50 L 376.90 784.50 L 380.30 785.90 L 383.30 787.60 L 386.10 789.70 L 388.50 792.20 L 358.10 793.20 L 357.80 791.00 L 358.10 788.90 L 358.90 786.90 L 360.20 785.10 L 361.80 783.80 L 363.90 782.80 Z" fill="#baa4ab" fill-rule="nonzero" node-id="206" stroke="none" target-height="10.400024" target-width="30.700012" target-x="357.8" target-y="782.8"/><path d="M 558.90 783.50 L 564.50 786.50 L 569.30 790.30 L 422.30 791.00 L 421.10 790.70 L 420.40 789.60 L 420.50 787.90 L 421.60 787.20 L 435.00 787.70 L 462.00 787.90 L 504.90 787.20 L 518.00 786.50 L 536.50 786.40 L 550.50 785.80 L 557.30 786.30 L 558.60 785.90 L 559.10 785.40 L 559.20 784.70 L 558.90 783.50 Z" fill="#f0d1cd" fill-rule="nonzero" node-id="208" stroke="none" target-height="7.5" target-width="148.9" target-x="420.4" target-y="783.5"/><path d="M 627.70 790.20 L 603.80 790.20 L 602.70 789.70 L 602.40 788.00 L 605.90 786.60 L 607.10 785.80 L 607.30 785.40 L 607.00 785.10 L 612.50 784.90 L 618.40 785.40 L 621.30 786.10 L 625.40 788.00 L 627.70 790.20 Z" fill="#ead3be" fill-rule="nonzero" node-id="210" stroke="none" target-height="5.299988" target-width="25.299988" target-x="602.4" target-y="784.9"/><path d="M 697.00 789.30 L 696.60 790.00 L 696.80 791.20 L 659.60 789.80 L 659.10 789.30 L 659.20 787.80 L 660.30 787.10 L 697.00 789.30 Z" fill="#f0d1cd" fill-rule="nonzero" node-id="212" stroke="none" target-height="4.1000366" target-width="37.900024" target-x="659.1" target-y="787.1"/><path d="M 602.40 788.10 L 602.70 789.70 L 603.80 790.30 L 627.70 790.30 L 628.80 791.20 L 629.60 792.50 L 601.10 791.80 L 601.90 791.10 L 602.40 789.90 L 602.40 788.10 Z" fill="#958a9c" fill-rule="nonzero" node-id="214" stroke="none" target-height="4.4000244" target-width="28.5" target-x="601.1" target-y="788.1"/></svg>
