<svg height="1024" node-id="1" sillyvg="true" template-height="1024" template-width="1024" version="1.1" viewBox="0 0 1024 1024" width="1024" xmlns="http://www.w3.org/2000/svg" xmlns:xlink="http://www.w3.org/1999/xlink"><defs node-id="90"></defs><path d="M 470.10 317.90 L 469.10 322.10 L 467.20 325.80 L 463.90 328.10 L 462.70 330.10 L 460.20 329.70 L 455.20 330.10 L 450.70 331.90 L 443.70 336.60 L 428.80 348.10 L 427.80 348.10 L 415.80 345.00 L 411.80 345.10 L 409.60 346.00 L 408.70 344.90 L 408.70 344.40 L 410.70 342.00 L 412.30 339.30 L 416.70 335.60 L 419.20 331.80 L 419.30 330.90 L 419.00 330.00 L 418.50 329.60 L 417.90 329.50 L 413.30 331.60 L 413.80 330.70 L 413.50 330.50 L 428.00 321.00 L 430.20 320.10 L 434.20 319.40 L 437.00 319.60 L 439.70 320.30 L 447.50 322.70 L 451.70 322.90 L 453.40 322.40 L 459.70 319.10 L 463.30 317.80 L 466.10 317.20 L 468.30 317.30 L 470.10 317.90 Z" fill="#cbda66" fill-rule="nonzero" node-id="94" stroke="none" target-height="30.899994" target-width="61.399994" target-x="408.7" target-y="317.2"/><path d="M 618.20 335.80 L 628.40 335.60 L 629.30 335.90 L 630.00 337.60 L 629.80 338.20 L 629.30 338.50 L 617.50 338.70 L 617.00 338.80 L 616.20 339.60 L 616.30 352.80 L 615.40 365.50 L 615.00 366.30 L 613.30 366.60 L 612.80 366.40 L 612.60 365.90 L 612.40 342.10 L 612.20 341.00 L 611.50 340.10 L 610.60 339.60 L 597.70 339.40 L 596.70 338.90 L 596.60 338.10 L 597.00 337.30 L 597.70 337.00 L 610.60 336.10 L 611.90 335.50 L 612.60 334.10 L 613.10 318.90 L 613.60 318.40 L 614.30 318.40 L 615.00 319.10 L 616.00 334.50 L 616.90 335.40 L 618.20 335.80 Z" fill="#f46e66" fill-rule="nonzero" node-id="96" stroke="none" target-height="48.200012" target-width="33.400024" target-x="596.6" target-y="318.4"/><path d="M 428.20 320.90 L 413.70 330.40 L 415.30 326.60 L 416.90 323.80 L 418.60 321.90 L 420.30 320.60 L 422.00 319.90 L 423.90 319.70 L 425.90 320.00 L 428.20 320.90 Z" fill="#e0e9a6" fill-rule="nonzero" node-id="98" stroke="none" target-height="10.699982" target-width="14.5" target-x="413.7" target-y="319.7"/><path d="M 470.10 317.90 L 471.60 324.70 L 472.90 328.00 L 476.60 334.00 L 478.90 336.70 L 486.40 344.00 L 500.70 361.20 L 502.50 362.70 L 511.40 367.70 L 517.80 371.90 L 523.90 376.40 L 529.80 381.20 L 535.50 386.30 L 540.80 391.80 L 545.80 397.50 L 552.80 406.80 L 554.80 410.10 L 557.60 417.10 L 559.20 424.50 L 553.20 417.10 L 544.60 405.40 L 539.40 399.80 L 533.30 393.90 L 516.60 379.40 L 485.30 354.60 L 462.70 330.50 L 463.70 328.60 L 467.20 326.20 L 468.70 323.50 L 469.70 320.80 L 470.10 317.90 Z" fill="#e0e9a6" fill-rule="nonzero" node-id="100" stroke="none" target-height="106.600006" target-width="96.5" target-x="462.7" target-y="317.9"/><path d="M 410.30 346.00 L 410.10 348.00 L 410.40 350.00 L 411.20 351.80 L 412.30 353.50 L 414.00 355.20 L 416.00 356.50 L 426.00 361.60 L 433.60 366.00 L 435.90 367.20 L 437.00 367.40 L 437.30 367.00 L 437.30 366.00 L 434.20 358.50 L 432.70 353.30 L 432.70 352.30 L 433.20 351.50 L 440.80 345.60 L 449.30 341.10 L 452.50 340.00 L 455.30 339.50 L 457.80 339.50 L 462.70 340.60 L 468.20 343.90 L 478.60 353.10 L 480.90 354.00 L 481.40 353.20 L 481.40 351.80 L 487.90 357.70 L 500.40 367.20 L 515.70 379.50 L 533.30 395.00 L 539.70 401.40 L 544.20 406.30 L 552.50 417.60 L 558.40 424.70 L 561.90 431.80 L 564.90 439.10 L 567.40 446.70 L 569.60 455.60 L 570.10 456.30 L 570.80 456.70 L 571.80 456.70 L 570.30 458.20 L 568.40 459.40 L 567.30 461.50 L 566.70 463.70 L 566.60 466.20 L 568.60 476.40 L 568.60 477.20 L 568.10 477.80 L 567.00 478.20 L 566.30 477.80 L 563.10 467.80 L 562.60 467.20 L 561.40 466.70 L 560.60 466.90 L 560.00 467.30 L 559.00 469.40 L 557.00 468.30 L 554.90 467.50 L 550.40 467.10 L 549.10 461.90 L 547.30 457.00 L 543.40 449.90 L 541.60 447.80 L 539.30 446.10 L 537.30 445.60 L 534.30 446.50 L 532.00 448.60 L 530.70 451.50 L 529.90 460.40 L 530.20 469.50 L 531.60 478.50 L 531.80 481.60 L 532.40 484.60 L 533.50 487.50 L 535.10 490.10 L 537.10 492.50 L 539.50 494.60 L 537.60 498.30 L 536.40 501.70 L 535.80 504.90 L 535.80 508.10 L 536.30 511.10 L 537.50 514.10 L 539.30 517.10 L 542.50 521.00 L 543.60 523.70 L 544.60 525.20 L 545.90 526.40 L 547.40 527.20 L 549.20 527.70 L 552.40 527.80 L 554.90 527.30 L 556.10 526.60 L 555.30 528.00 L 555.10 529.50 L 555.30 531.00 L 556.60 533.10 L 556.40 535.90 L 556.80 536.70 L 558.00 537.00 L 559.70 536.00 L 561.80 533.40 L 562.70 531.10 L 563.40 530.50 L 565.10 530.20 L 565.70 530.30 L 569.40 535.00 L 575.90 545.00 L 576.40 544.90 L 577.00 542.80 L 576.80 541.10 L 577.70 553.30 L 577.40 553.80 L 576.60 553.90 L 574.10 553.10 L 569.90 549.50 L 566.40 547.70 L 562.40 547.10 L 559.20 547.80 L 558.30 548.60 L 557.70 549.70 L 557.60 551.00 L 558.30 566.00 L 552.00 557.70 L 548.50 554.10 L 544.90 551.10 L 542.30 549.40 L 539.60 548.10 L 536.80 547.20 L 530.70 546.20 L 524.60 545.70 L 512.30 545.80 L 500.10 546.50 L 501.60 545.80 L 502.90 543.50 L 507.50 539.30 L 511.50 533.20 L 513.30 529.10 L 514.80 525.00 L 516.20 518.50 L 516.10 516.40 L 515.60 514.80 L 514.70 513.60 L 513.40 512.70 L 510.10 511.50 L 508.60 511.40 L 507.10 511.90 L 505.10 513.50 L 502.10 514.80 L 500.50 516.20 L 483.10 512.60 L 472.70 509.10 L 470.90 509.10 L 470.20 511.10 L 470.00 509.60 L 468.40 509.30 L 466.40 510.20 L 464.40 512.10 L 463.70 512.50 L 463.00 512.30 L 462.40 511.40 L 452.40 518.90 L 448.70 519.00 L 445.00 519.60 L 441.40 520.70 L 437.90 522.30 L 437.90 521.20 L 437.40 520.50 L 436.70 520.50 L 432.60 521.90 L 428.00 522.60 L 426.40 523.80 L 426.10 525.70 L 426.50 529.10 L 427.30 532.40 L 428.50 535.50 L 430.20 538.40 L 433.70 542.60 L 437.50 546.30 L 441.60 549.50 L 446.20 552.20 L 451.10 554.50 L 433.90 557.90 L 423.30 560.60 L 412.90 563.90 L 402.80 567.70 L 397.40 569.90 L 392.20 572.60 L 387.20 575.80 L 382.40 579.40 L 377.70 583.60 L 373.30 588.40 L 369.00 593.70 L 364.90 599.70 L 365.40 595.00 L 364.40 590.40 L 365.10 589.20 L 365.10 588.60 L 364.50 588.10 L 363.00 587.90 L 361.90 588.20 L 361.20 589.00 L 356.40 601.50 L 353.60 604.70 L 352.10 607.40 L 351.10 608.30 L 349.70 608.10 L 347.70 605.50 L 345.40 602.20 L 344.90 599.60 L 345.80 597.70 L 347.60 596.70 L 348.70 596.60 L 352.80 598.00 L 353.60 597.90 L 352.30 596.20 L 351.00 595.60 L 349.50 595.40 L 347.70 595.60 L 345.40 596.40 L 343.50 598.00 L 343.10 599.20 L 343.10 600.50 L 344.50 605.00 L 347.80 609.80 L 347.80 611.80 L 347.20 612.80 L 343.30 615.50 L 339.30 617.40 L 335.00 618.80 L 330.40 619.60 L 329.20 617.90 L 327.30 612.90 L 324.60 608.10 L 322.70 600.40 L 321.40 597.30 L 319.60 594.50 L 317.20 591.70 L 314.10 589.10 L 310.20 586.70 L 306.60 583.50 L 304.90 582.40 L 303.40 581.90 L 301.80 581.80 L 300.30 582.10 L 297.20 583.70 L 295.80 584.10 L 293.00 583.60 L 291.80 582.80 L 290.70 581.60 L 289.80 579.80 L 290.00 577.50 L 291.80 573.30 L 291.40 571.90 L 290.50 571.00 L 289.40 570.70 L 288.70 571.20 L 286.70 575.70 L 275.70 563.30 L 274.30 562.90 L 272.30 562.90 L 271.70 562.50 L 270.70 560.20 L 268.50 557.10 L 268.20 555.90 L 268.50 553.40 L 269.80 550.60 L 270.00 548.90 L 269.80 547.10 L 283.20 516.30 L 285.70 509.40 L 287.60 502.40 L 289.00 495.20 L 291.60 475.50 L 294.10 463.30 L 296.70 454.00 L 299.60 445.00 L 302.80 436.20 L 306.40 427.80 L 312.00 417.30 L 323.10 400.90 L 326.20 397.10 L 333.10 390.20 L 341.40 384.20 L 341.10 383.10 L 340.00 383.10 L 348.60 376.80 L 350.50 375.00 L 353.70 371.10 L 355.90 369.60 L 356.30 370.90 L 356.90 371.60 L 357.90 371.90 L 359.30 371.60 L 361.80 370.50 L 363.70 369.20 L 365.40 367.60 L 367.90 363.50 L 378.40 337.60 L 406.70 339.60 L 413.00 330.50 L 416.90 328.70 L 417.90 328.60 L 418.70 328.90 L 419.20 330.00 L 417.70 332.70 L 414.70 336.10 L 412.00 338.20 L 408.40 343.50 L 409.70 346.00 L 410.10 346.20 L 410.30 346.00 Z M 381.20 509.10 L 380.40 508.60 L 378.40 508.10 L 374.60 504.80 L 371.50 502.80 L 368.30 501.30 L 365.00 500.40 L 361.50 500.00 L 357.80 500.10 L 353.80 500.80 L 349.50 502.10 L 350.30 493.50 L 350.60 484.90 L 350.40 482.50 L 350.00 481.60 L 349.50 481.50 L 348.80 482.00 L 347.40 484.00 L 345.50 487.50 L 344.20 491.20 L 343.30 495.10 L 343.00 499.10 L 343.10 503.00 L 343.80 506.90 L 343.10 507.30 L 341.90 506.30 L 341.10 506.60 L 334.20 524.40 L 333.40 529.50 L 334.00 534.20 L 334.80 536.10 L 337.20 539.40 L 340.60 541.70 L 345.10 543.40 L 354.70 545.90 L 359.40 546.50 L 361.50 546.70 L 365.60 545.70 L 369.90 543.10 L 379.60 534.00 L 382.50 531.80 L 384.80 529.00 L 386.30 526.20 L 386.90 523.70 L 386.90 521.30 L 386.30 519.10 L 385.10 516.90 L 383.00 514.70 L 383.00 511.80 L 384.00 511.70 L 385.00 512.30 L 390.50 512.60 L 397.20 511.70 L 400.40 510.70 L 403.20 509.30 L 404.80 508.10 L 406.00 506.70 L 406.80 505.00 L 407.50 502.20 L 408.00 496.40 L 407.00 480.10 L 406.20 475.70 L 405.00 471.50 L 403.20 467.60 L 401.60 465.20 L 399.80 463.10 L 397.50 461.20 L 395.50 460.50 L 393.30 460.70 L 389.30 462.10 L 386.00 464.70 L 383.40 468.20 L 380.90 475.00 L 379.70 479.80 L 379.00 484.70 L 378.60 489.60 L 378.70 494.50 L 380.00 504.30 L 381.20 509.10 Z M 307.30 529.20 L 310.40 528.80 L 312.80 527.00 L 314.10 524.20 L 314.10 522.40 L 313.60 520.60 L 310.90 514.90 L 310.00 513.50 L 308.70 512.50 L 307.10 511.70 L 305.50 511.50 L 295.30 511.70 L 294.00 512.30 L 291.80 514.50 L 291.00 517.40 L 291.20 518.90 L 291.90 520.30 L 294.40 524.40 L 296.20 526.30 L 298.50 527.30 L 307.30 529.20 Z M 301.20 550.60 L 311.90 549.70 L 313.20 549.30 L 314.20 548.50 L 314.90 547.40 L 315.10 546.10 L 314.90 543.40 L 314.40 541.00 L 313.50 538.90 L 312.30 537.10 L 310.80 535.80 L 309.20 535.00 L 307.40 534.80 L 302.10 535.50 L 300.10 536.80 L 298.90 538.40 L 298.00 540.40 L 297.50 542.60 L 297.60 547.80 L 297.90 548.80 L 298.60 549.70 L 299.70 550.30 L 301.20 550.60 Z M 364.20 570.50 L 365.40 572.00 L 366.10 573.60 L 366.30 575.40 L 365.30 579.40 L 363.70 582.60 L 364.20 584.40 L 365.40 585.30 L 366.70 584.80 L 368.00 582.90 L 368.70 580.90 L 368.90 578.70 L 368.30 575.40 L 368.60 572.30 L 368.20 570.40 L 367.30 568.60 L 365.40 566.20 L 362.80 563.90 L 356.80 560.40 L 350.80 558.10 L 349.90 558.50 L 349.70 558.90 L 349.60 560.10 L 349.90 561.20 L 340.60 557.80 L 335.60 556.50 L 330.60 555.70 L 327.20 555.60 L 323.90 556.00 L 320.60 556.70 L 319.20 557.40 L 317.10 559.80 L 316.50 561.20 L 316.20 563.50 L 316.80 564.80 L 318.20 565.10 L 327.60 562.60 L 336.10 561.40 L 338.70 561.40 L 343.80 562.50 L 354.90 567.30 L 364.20 570.50 Z M 381.90 566.00 L 388.00 561.90 L 388.20 561.20 L 386.90 559.90 L 385.50 559.20 L 383.90 559.10 L 381.80 559.80 L 380.70 560.90 L 380.10 562.30 L 380.10 563.90 L 380.70 565.50 L 381.40 566.10 L 381.90 566.00 Z" fill="#a9b77c" fill-rule="nonzero" node-id="102" stroke="none" target-height="290.99997" target-width="309.5" target-x="268.2" target-y="328.6"/><path d="M 462.90 330.40 L 482.20 351.50 L 482.00 353.40 L 481.10 353.60 L 478.90 352.40 L 469.00 343.60 L 463.50 340.30 L 458.60 339.20 L 456.10 339.20 L 453.30 339.70 L 450.10 340.80 L 445.80 342.80 L 441.70 345.20 L 437.70 348.00 L 434.00 351.20 L 433.50 352.00 L 433.50 353.00 L 435.00 358.30 L 437.70 365.60 L 437.70 366.60 L 437.30 367.00 L 436.40 366.90 L 426.50 361.20 L 416.60 356.20 L 414.60 354.90 L 412.90 353.20 L 411.70 351.60 L 411.00 349.70 L 410.70 347.70 L 410.90 345.70 L 414.50 345.00 L 416.60 345.10 L 428.60 348.20 L 429.60 348.20 L 442.90 337.90 L 451.20 332.10 L 455.50 330.40 L 460.40 330.00 L 462.90 330.40 Z" fill="#819765" fill-rule="nonzero" node-id="104" stroke="none" target-height="37" target-width="71.5" target-x="410.7" target-y="330"/><path d="M 407.10 340.80 L 378.80 338.80 L 379.50 336.90 L 380.60 335.40 L 381.90 334.20 L 383.60 333.40 L 388.30 332.50 L 391.80 332.70 L 395.20 333.40 L 398.50 334.60 L 401.50 336.20 L 404.40 338.30 L 407.10 340.80 Z" fill="#f1efbe" fill-rule="nonzero" node-id="106" stroke="none" target-height="8.299988" target-width="28.300018" target-x="378.8" target-y="332.5"/><g node-id="267"><path d="M 549.50 333.00 L 550.40 333.70 L 550.90 335.10 L 551.00 336.80 L 550.20 341.30 L 549.10 343.80 L 547.80 346.20 L 544.90 349.70 L 543.50 350.70 L 542.10 351.20 L 540.90 351.00 L 540.10 350.30 L 539.60 348.90 L 539.50 347.20 L 540.30 342.70 L 541.40 340.10 L 542.70 337.80 L 545.60 334.20 L 547.00 333.30 L 548.40 332.80 L 549.50 333.00 Z" fill="#cbda66" fill-rule="nonzero" group-id="1" node-id="110" stroke="none" target-height="18.400024" target-width="11.5" target-x="539.5" target-y="332.8"/></g><path d="M 356.10 370.80 L 353.30 373.00 L 350.70 376.40 L 348.80 378.00 L 333.10 389.30 L 326.30 394.50 L 319.70 400.20 L 313.40 406.10 L 307.50 412.40 L 301.80 418.90 L 296.50 425.70 L 291.40 432.80 L 282.60 428.50 L 275.80 423.90 L 272.90 421.50 L 264.30 411.60 L 258.00 403.50 L 251.50 394.70 L 250.80 393.10 L 251.00 392.40 L 251.90 391.50 L 255.30 390.50 L 267.00 391.60 L 276.90 392.90 L 278.10 392.80 L 278.70 392.20 L 279.20 387.40 L 279.90 383.80 L 281.20 380.40 L 283.00 377.00 L 283.70 376.20 L 286.70 374.20 L 288.00 372.10 L 288.20 370.90 L 287.60 365.60 L 287.80 362.20 L 288.40 359.10 L 289.40 356.30 L 290.90 353.70 L 292.90 351.40 L 295.30 349.20 L 298.40 347.30 L 299.90 346.70 L 303.40 346.70 L 306.20 347.40 L 314.00 350.90 L 318.90 352.40 L 324.80 352.60 L 336.70 351.10 L 339.40 351.00 L 342.00 351.40 L 344.60 352.20 L 346.90 353.40 L 349.00 355.00 L 352.40 359.10 L 354.60 363.50 L 355.60 367.10 L 356.10 370.80 Z" fill="#cbda66" fill-rule="nonzero" node-id="113" stroke="none" target-height="86.099976" target-width="105.3" target-x="250.8" target-y="346.7"/><g node-id="268"><path d="M 571.90 356.80 L 572.30 358.00 L 572.00 359.50 L 571.20 360.90 L 568.20 364.10 L 566.10 365.60 L 561.70 367.50 L 557.90 367.90 L 556.50 367.40 L 555.60 366.60 L 555.30 365.40 L 555.60 364.00 L 556.30 362.50 L 559.40 359.30 L 561.50 357.80 L 563.80 356.70 L 568.00 355.50 L 569.70 355.60 L 571.10 356.00 L 571.90 356.80 Z" fill="#cbda66" fill-rule="nonzero" group-id="2" node-id="117" stroke="none" target-height="12.399994" target-width="17" target-x="555.3" target-y="355.5"/></g><path d="M 340.40 384.40 L 341.80 384.60 L 341.70 385.50 L 333.60 391.50 L 330.00 394.90 L 323.50 402.30 L 312.40 418.60 L 306.80 429.10 L 303.20 437.50 L 300.00 446.30 L 294.50 464.60 L 291.30 481.00 L 289.20 496.60 L 287.80 503.80 L 285.90 510.80 L 283.60 517.60 L 270.20 548.40 L 263.20 562.20 L 261.80 556.90 L 261.50 551.40 L 262.50 546.10 L 262.50 529.10 L 262.70 528.10 L 263.90 526.00 L 264.20 523.60 L 263.40 521.40 L 262.50 520.50 L 265.10 521.30 L 265.90 520.30 L 268.20 507.90 L 270.60 487.40 L 272.20 479.30 L 274.00 473.30 L 280.40 456.80 L 283.60 445.70 L 292.00 432.50 L 296.90 425.50 L 302.20 418.80 L 307.70 412.30 L 313.70 406.10 L 319.90 400.20 L 326.50 394.60 L 333.30 389.40 L 340.40 384.40 Z" fill="#4e8e66" fill-rule="nonzero" node-id="120" stroke="none" target-height="177.80002" target-width="80.29999" target-x="261.5" target-y="384.4"/><path d="M 680.30 417.20 L 666.40 420.90 L 653.00 426.00 L 646.50 429.20 L 640.20 432.70 L 634.10 436.50 L 628.10 440.80 L 621.80 446.10 L 616.00 451.70 L 610.40 457.50 L 605.20 463.70 L 591.40 481.50 L 578.90 500.20 L 574.80 479.50 L 572.20 469.30 L 569.10 459.20 L 571.00 458.00 L 572.50 456.50 L 573.80 453.60 L 575.50 451.00 L 577.70 448.70 L 580.20 446.80 L 583.00 445.40 L 587.20 444.00 L 588.60 442.20 L 589.30 428.60 L 589.70 424.00 L 590.60 419.80 L 591.80 415.70 L 593.40 411.90 L 597.60 404.90 L 600.20 401.80 L 606.20 396.30 L 613.20 391.90 L 617.00 390.20 L 625.00 387.80 L 633.70 386.70 L 639.90 386.80 L 645.70 387.40 L 651.10 388.60 L 656.10 390.30 L 660.80 392.50 L 665.20 395.30 L 669.30 398.60 L 673.20 402.50 L 678.40 409.50 L 679.50 412.00 L 680.10 414.60 L 680.30 417.20 Z" fill="#a7d23d" fill-rule="nonzero" node-id="122" stroke="none" target-height="113.5" target-width="111.20001" target-x="569.1" target-y="386.7"/><path d="M 680.30 417.20 L 680.20 418.30 L 679.00 419.80 L 664.10 424.30 L 657.60 426.80 L 645.10 432.80 L 633.40 440.20 L 622.70 448.80 L 612.90 458.60 L 604.30 469.40 L 600.40 475.20 L 596.90 481.20 L 593.70 487.50 L 589.50 496.90 L 587.20 502.80 L 586.20 506.30 L 580.90 535.60 L 580.60 540.60 L 581.60 554.70 L 581.50 559.20 L 580.70 564.50 L 579.60 569.80 L 578.00 574.90 L 576.00 579.90 L 573.60 584.70 L 570.80 589.40 L 568.30 591.20 L 567.70 589.60 L 567.60 587.90 L 568.00 586.30 L 571.30 580.70 L 573.20 576.40 L 576.00 567.50 L 576.90 562.90 L 577.60 553.50 L 576.70 541.30 L 565.80 514.50 L 565.20 513.80 L 564.00 513.60 L 562.70 514.50 L 561.90 518.30 L 556.00 526.70 L 553.60 527.70 L 551.00 527.80 L 552.30 521.80 L 555.90 517.50 L 558.20 514.10 L 560.00 510.70 L 561.20 507.20 L 561.90 503.70 L 562.10 500.00 L 561.80 496.20 L 560.90 492.20 L 561.80 492.80 L 562.50 492.60 L 563.00 491.70 L 563.50 489.40 L 563.60 484.50 L 564.10 490.60 L 566.20 497.50 L 565.40 505.30 L 565.80 509.70 L 569.90 520.90 L 573.60 529.20 L 575.00 531.10 L 575.70 531.00 L 576.50 528.70 L 576.70 525.90 L 575.90 522.50 L 575.30 515.70 L 576.40 517.60 L 577.00 520.10 L 577.70 520.20 L 578.10 519.80 L 578.60 499.70 L 584.70 490.30 L 591.20 481.10 L 597.90 472.20 L 610.10 457.10 L 615.70 451.20 L 621.50 445.70 L 627.80 440.50 L 635.90 435.10 L 644.30 430.40 L 652.90 426.10 L 659.60 423.30 L 673.30 418.90 L 680.30 417.20 Z" fill="#b15726" fill-rule="nonzero" node-id="124" stroke="none" target-height="174" target-width="129.29999" target-x="551" target-y="417.2"/><path d="M 680.30 417.20 L 692.20 418.40 L 704.10 420.10 L 710.10 421.90 L 716.00 424.30 L 721.60 427.10 L 719.50 427.80 L 719.10 428.90 L 719.30 430.30 L 719.80 431.80 L 726.30 438.40 L 728.90 442.20 L 730.50 446.40 L 731.30 449.60 L 731.30 452.00 L 730.90 453.90 L 730.00 455.30 L 728.60 456.40 L 726.70 457.20 L 723.90 457.60 L 717.60 457.10 L 718.00 456.00 L 717.80 455.00 L 717.00 454.10 L 715.30 453.20 L 712.80 452.40 L 707.90 451.80 L 703.00 452.50 L 700.60 453.40 L 698.60 454.60 L 697.50 455.80 L 697.10 457.10 L 697.10 458.50 L 697.90 460.30 L 699.50 462.50 L 694.60 462.20 L 690.30 462.40 L 686.60 463.10 L 683.30 464.20 L 680.50 465.70 L 653.10 460.30 L 652.50 460.40 L 652.20 460.80 L 652.40 461.70 L 662.40 467.60 L 663.50 468.40 L 664.00 469.50 L 663.60 470.30 L 662.40 471.20 L 657.20 474.10 L 655.40 472.30 L 653.20 470.90 L 650.40 470.00 L 647.50 469.50 L 644.10 469.40 L 640.00 469.80 L 639.00 469.00 L 637.70 468.70 L 636.70 469.00 L 636.10 469.80 L 635.60 471.70 L 635.60 475.70 L 633.90 484.50 L 633.10 490.90 L 632.90 495.40 L 633.10 498.40 L 633.70 500.70 L 634.70 502.90 L 637.60 506.60 L 639.40 508.10 L 644.00 510.40 L 648.70 511.30 L 655.80 511.80 L 658.30 511.30 L 661.10 509.10 L 661.90 509.00 L 663.00 509.70 L 663.10 510.50 L 662.10 512.70 L 660.90 517.30 L 660.80 520.90 L 661.30 524.30 L 662.70 527.40 L 666.50 532.90 L 668.80 535.20 L 671.40 537.30 L 675.70 540.00 L 677.20 540.50 L 680.50 540.60 L 683.70 539.20 L 684.40 538.40 L 686.50 532.30 L 689.60 527.90 L 690.10 534.50 L 690.10 548.00 L 689.60 554.70 L 688.00 562.80 L 685.40 569.30 L 683.70 572.20 L 681.70 574.70 L 672.10 584.20 L 672.10 584.90 L 672.90 585.30 L 673.70 585.40 L 674.50 585.10 L 677.70 583.00 L 683.30 578.20 L 685.70 575.30 L 688.50 571.20 L 690.70 566.80 L 692.40 562.00 L 693.70 556.30 L 694.40 550.50 L 694.70 544.70 L 694.40 538.90 L 694.90 522.10 L 695.20 520.10 L 696.10 518.40 L 698.10 516.70 L 701.50 515.80 L 703.80 515.80 L 712.60 516.40 L 727.20 516.80 L 730.70 518.00 L 732.30 519.10 L 734.10 521.00 L 736.80 525.40 L 736.80 527.70 L 742.00 537.70 L 742.20 540.20 L 740.60 545.90 L 729.40 560.60 L 730.60 561.70 L 731.10 561.40 L 756.50 532.40 L 758.50 530.80 L 759.20 531.20 L 759.40 533.50 L 758.00 536.70 L 758.00 537.40 L 759.30 540.00 L 759.50 541.20 L 760.40 559.40 L 761.80 560.80 L 762.90 561.10 L 764.60 561.00 L 766.20 560.50 L 769.60 557.90 L 770.60 557.60 L 771.70 557.60 L 773.20 558.60 L 774.60 563.00 L 775.30 566.60 L 775.70 574.00 L 775.50 577.60 L 774.70 582.00 L 769.70 585.30 L 765.60 588.40 L 758.70 594.40 L 755.10 596.80 L 751.40 598.70 L 747.40 600.30 L 746.30 600.40 L 742.60 599.90 L 742.20 600.20 L 742.10 601.70 L 746.20 614.60 L 751.40 627.30 L 751.90 628.10 L 752.20 628.00 L 752.70 625.70 L 753.80 630.70 L 753.00 631.00 L 752.10 630.90 L 750.80 630.00 L 748.20 627.30 L 743.00 627.30 L 739.40 628.00 L 736.20 629.00 L 733.30 630.40 L 730.80 632.20 L 728.60 634.30 L 726.60 636.90 L 728.10 633.30 L 730.00 629.90 L 731.00 626.40 L 730.90 619.90 L 730.10 617.90 L 727.00 612.60 L 724.60 610.80 L 720.90 609.90 L 715.10 610.90 L 711.90 612.30 L 709.90 613.50 L 705.80 617.60 L 704.80 618.10 L 690.70 622.40 L 682.80 623.50 L 677.80 625.60 L 676.10 626.70 L 675.90 627.20 L 676.30 627.60 L 678.30 627.90 L 696.90 627.10 L 695.10 629.30 L 691.80 631.00 L 690.60 632.50 L 687.00 634.50 L 684.80 636.30 L 683.30 638.20 L 682.40 640.10 L 682.10 642.30 L 682.40 644.70 L 683.30 647.50 L 685.10 650.70 L 686.70 652.70 L 688.60 654.40 L 690.80 655.60 L 693.50 656.50 L 696.70 656.90 L 700.40 656.90 L 704.90 656.30 L 710.30 655.00 L 701.90 669.50 L 700.30 671.10 L 693.30 675.40 L 686.10 679.00 L 676.00 683.20 L 670.40 684.20 L 667.50 684.00 L 661.70 682.90 L 655.60 681.10 L 653.70 679.90 L 648.90 678.50 L 644.00 677.50 L 634.20 676.70 L 624.20 677.40 L 622.10 674.30 L 620.50 670.90 L 619.40 666.10 L 619.00 662.30 L 618.60 661.10 L 616.90 659.20 L 614.40 658.40 L 593.40 658.20 L 590.30 657.60 L 587.30 656.60 L 584.50 655.00 L 582.00 653.00 L 579.60 650.30 L 578.50 650.30 L 577.80 649.80 L 576.90 645.00 L 576.00 634.50 L 574.70 632.30 L 574.30 630.90 L 574.10 622.10 L 573.20 614.90 L 572.00 613.30 L 570.90 602.60 L 569.30 596.90 L 569.00 594.80 L 569.30 592.80 L 570.00 590.80 L 574.40 583.40 L 577.10 577.60 L 579.20 571.60 L 580.80 565.30 L 581.80 558.80 L 580.90 540.20 L 581.20 535.20 L 586.50 505.90 L 587.50 502.40 L 589.80 496.40 L 594.00 487.10 L 597.20 480.80 L 600.70 474.80 L 604.60 469.00 L 613.20 458.10 L 623.00 448.30 L 633.70 439.70 L 645.40 432.30 L 657.90 426.30 L 664.40 423.80 L 671.10 421.70 L 679.10 419.80 L 679.90 419.20 L 680.40 418.30 L 680.30 417.20 Z" fill="#e2917e" fill-rule="nonzero" node-id="126" stroke="none" target-height="267" target-width="206.70001" target-x="569" target-y="417.2"/><path d="M 759.00 489.30 L 757.80 488.80 L 756.70 487.30 L 754.20 485.90 L 749.80 478.90 L 744.00 471.40 L 741.30 466.40 L 730.30 440.00 L 728.20 437.30 L 721.80 430.60 L 721.30 430.30 L 720.90 430.30 L 720.40 430.80 L 720.20 431.70 L 719.40 429.80 L 719.60 428.30 L 720.90 427.20 L 727.00 425.90 L 731.60 425.40 L 735.90 425.30 L 739.80 425.80 L 743.60 426.70 L 747.20 428.10 L 750.70 430.00 L 753.90 432.40 L 757.10 435.40 L 762.30 442.20 L 765.70 449.00 L 766.80 452.70 L 768.00 460.20 L 768.00 464.10 L 767.60 468.00 L 766.70 471.50 L 762.50 482.10 L 759.00 489.30 Z" fill="#a7d23d" fill-rule="nonzero" node-id="128" stroke="none" target-height="64" target-width="48.599976" target-x="719.4" target-y="425.3"/><path d="M 759.00 489.30 L 761.90 495.00 L 764.20 502.10 L 764.80 502.90 L 766.70 503.80 L 766.00 504.10 L 765.90 504.50 L 767.30 505.70 L 768.40 511.50 L 770.80 515.90 L 768.80 516.60 L 768.60 515.50 L 768.10 515.00 L 766.80 515.30 L 763.50 520.80 L 760.00 525.10 L 750.00 535.80 L 740.50 547.10 L 741.60 543.70 L 742.10 539.90 L 741.90 538.90 L 736.70 528.90 L 736.70 526.60 L 734.80 523.20 L 732.20 520.30 L 730.60 519.20 L 727.10 518.00 L 712.50 517.60 L 703.70 516.90 L 701.40 517.00 L 698.00 517.90 L 696.00 519.60 L 695.10 521.30 L 694.80 523.30 L 694.30 540.10 L 690.70 514.00 L 690.20 513.30 L 688.90 513.20 L 688.60 515.40 L 688.10 516.30 L 685.60 502.70 L 684.50 501.10 L 682.50 499.80 L 680.10 497.60 L 677.20 497.80 L 675.40 498.50 L 672.30 500.40 L 670.40 503.90 L 665.20 516.60 L 664.70 519.20 L 664.50 521.90 L 664.80 524.70 L 664.60 525.40 L 663.90 525.60 L 661.90 525.60 L 661.40 522.00 L 661.50 518.40 L 662.00 516.10 L 663.70 511.80 L 663.70 511.00 L 663.20 510.40 L 661.50 510.40 L 658.90 512.70 L 657.80 513.20 L 646.80 512.40 L 644.50 511.80 L 640.00 509.50 L 636.60 506.40 L 634.30 502.20 L 633.70 499.80 L 633.50 496.80 L 633.70 492.30 L 634.50 485.90 L 636.20 477.10 L 636.10 479.00 L 637.10 480.50 L 638.80 480.90 L 640.30 480.00 L 640.80 479.10 L 641.30 476.50 L 641.30 474.00 L 640.80 471.40 L 645.10 470.90 L 648.70 471.00 L 651.70 471.50 L 654.20 472.50 L 656.30 473.90 L 658.00 475.70 L 655.70 478.60 L 655.80 479.60 L 656.90 480.30 L 663.90 477.60 L 670.10 474.50 L 683.90 466.00 L 686.60 465.00 L 692.90 463.90 L 700.60 464.10 L 702.30 465.30 L 706.00 467.00 L 709.90 467.50 L 711.90 467.30 L 728.50 471.40 L 730.50 471.60 L 731.80 471.40 L 732.70 470.70 L 733.30 469.40 L 733.50 467.50 L 733.20 465.10 L 732.60 463.20 L 731.50 461.70 L 730.10 460.60 L 728.20 459.80 L 725.60 459.30 L 728.40 458.90 L 730.30 458.00 L 731.70 456.90 L 732.60 455.50 L 733.00 453.60 L 733.00 451.20 L 732.20 448.00 L 730.60 443.90 L 729.40 441.90 L 728.10 440.10 L 721.50 433.50 L 722.00 432.10 L 722.40 432.00 L 726.90 436.20 L 731.70 441.80 L 732.90 443.70 L 742.90 468.20 L 744.60 471.50 L 746.70 474.70 L 751.40 480.70 L 755.60 487.20 L 756.30 488.10 L 758.80 489.70 L 758.20 489.10 L 759.00 489.30 Z M 742.20 500.90 L 744.60 499.80 L 745.60 498.80 L 746.70 497.00 L 747.50 494.70 L 747.70 492.10 L 747.40 489.30 L 746.60 486.60 L 745.40 484.30 L 743.80 482.50 L 742.10 481.20 L 739.50 480.40 L 738.10 480.50 L 735.70 481.60 L 734.70 482.60 L 733.60 484.40 L 732.80 486.70 L 732.60 489.30 L 732.90 492.10 L 733.70 494.80 L 734.90 497.00 L 736.50 498.90 L 739.50 500.70 L 742.20 500.90 Z M 664.90 502.90 L 668.80 494.10 L 669.10 492.30 L 668.90 490.70 L 667.60 489.00 L 659.50 485.20 L 656.40 484.10 L 653.60 483.60 L 650.90 483.60 L 648.70 484.20 L 646.50 485.70 L 644.10 490.90 L 643.80 493.40 L 644.10 494.80 L 645.20 496.80 L 647.10 498.80 L 649.40 500.50 L 659.30 505.20 L 660.90 505.50 L 662.40 505.30 L 664.20 504.00 L 664.90 502.90 Z M 711.60 506.30 L 701.00 506.10 L 698.40 505.60 L 694.80 504.40 L 694.20 504.70 L 693.60 505.60 L 694.70 508.00 L 695.80 509.10 L 698.90 509.90 L 704.10 510.10 L 711.90 511.40 L 719.00 511.30 L 719.70 510.90 L 720.50 509.70 L 720.40 507.20 L 719.90 506.60 L 719.30 506.30 L 716.10 506.60 L 711.60 506.30 Z" fill="#fe8964" fill-rule="nonzero" node-id="130" stroke="none" target-height="115.099976" target-width="137.29999" target-x="633.5" target-y="432"/><path d="M 283.30 446.00 L 281.30 453.40 L 278.80 460.70 L 274.30 471.70 L 271.90 479.60 L 269.80 490.50 L 268.50 504.20 L 267.30 512.50 L 265.60 520.60 L 265.30 521.30 L 264.80 521.60 L 264.00 521.50 L 253.70 517.60 L 248.80 515.20 L 246.30 513.50 L 243.60 511.00 L 241.10 508.00 L 236.50 500.90 L 231.60 489.30 L 230.00 487.20 L 225.90 483.60 L 210.90 444.40 L 210.60 443.10 L 210.80 441.40 L 212.10 440.20 L 213.40 439.90 L 227.50 437.40 L 242.20 435.40 L 246.60 435.30 L 251.00 435.60 L 259.70 437.40 L 267.80 439.80 L 275.70 442.60 L 283.30 446.00 Z" fill="#469da7" fill-rule="nonzero" node-id="132" stroke="none" target-height="86.29999" target-width="72.69998" target-x="210.6" target-y="435.3"/><path d="M 278.70 439.50 L 277.90 439.20 L 276.70 438.00 L 276.20 437.20 L 276.20 436.30 L 277.10 436.10 L 279.10 436.40 L 280.90 437.20 L 282.50 438.40 L 283.70 440.00 L 283.60 441.30 L 282.50 441.80 L 281.70 441.70 L 278.70 439.50 Z" fill="#dbcaab" fill-rule="nonzero" node-id="134" stroke="none" target-height="5.6999817" target-width="7.5" target-x="276.2" target-y="436.1"/><path d="M 550.80 467.30 L 551.80 472.80 L 551.70 478.40 L 549.30 477.40 L 546.60 476.70 L 543.60 476.50 L 540.20 476.70 L 536.30 477.30 L 532.00 478.60 L 530.80 471.90 L 530.20 465.20 L 530.50 456.20 L 531.10 451.60 L 531.60 450.00 L 533.40 447.50 L 534.60 446.60 L 537.70 445.70 L 539.30 445.90 L 543.00 448.90 L 544.30 450.60 L 547.70 457.20 L 549.50 462.20 L 550.80 467.30 Z" fill="#0c0809" fill-rule="nonzero" node-id="136" stroke="none" target-height="32.899994" target-width="21.599976" target-x="530.2" target-y="445.7"/><path d="M 717.70 457.40 L 715.80 458.20 L 712.90 460.60 L 711.10 464.00 L 710.70 466.00 L 706.60 466.20 L 702.80 465.00 L 699.40 462.80 L 697.90 460.60 L 697.20 458.90 L 697.10 457.50 L 697.50 456.20 L 698.60 454.90 L 700.50 453.70 L 703.00 452.80 L 707.90 452.10 L 710.40 452.20 L 712.80 452.60 L 717.00 454.30 L 717.80 455.20 L 718.10 456.20 L 717.70 457.40 Z" fill="#ffa490" fill-rule="nonzero" node-id="138" stroke="none" target-height="14.100006" target-width="21" target-x="697.1" target-y="452.1"/><path d="M 717.70 457.40 L 726.50 458.20 L 728.50 459.00 L 729.90 460.10 L 731.00 461.60 L 731.60 463.50 L 731.90 466.10 L 731.70 468.00 L 731.10 469.30 L 730.20 470.00 L 728.90 470.20 L 726.90 470.00 L 710.30 465.90 L 710.90 463.90 L 712.90 460.60 L 715.90 458.10 L 717.70 457.40 Z" fill="#7a2433" fill-rule="nonzero" node-id="140" stroke="none" target-height="12.800018" target-width="21.600037" target-x="710.3" target-y="457.4"/><path d="M 407.50 493.20 L 385.10 495.90 L 383.80 496.30 L 382.70 497.10 L 382.00 498.20 L 381.70 499.50 L 382.00 502.50 L 382.70 505.40 L 383.90 508.10 L 385.60 510.60 L 385.80 511.30 L 385.10 512.00 L 384.10 511.50 L 383.10 511.50 L 381.30 509.00 L 379.20 499.30 L 378.60 489.50 L 379.00 484.60 L 379.70 479.80 L 380.80 475.00 L 383.20 468.20 L 385.80 464.70 L 389.20 462.00 L 391.20 461.20 L 395.30 460.50 L 397.30 461.20 L 399.60 463.10 L 401.50 465.20 L 403.10 467.50 L 405.40 472.70 L 407.00 479.90 L 407.40 484.40 L 407.50 493.20 Z" fill="#0c0809" fill-rule="nonzero" node-id="142" stroke="none" target-height="51.5" target-width="28.899994" target-x="378.6" target-y="460.5"/><path d="M 569.40 459.20 L 572.40 469.30 L 575.10 479.60 L 579.20 500.20 L 578.50 520.60 L 578.00 520.80 L 577.50 520.60 L 577.00 518.40 L 573.80 512.00 L 570.40 502.60 L 568.20 492.80 L 567.50 486.50 L 567.00 485.40 L 565.90 484.60 L 564.50 484.70 L 564.40 489.60 L 563.90 491.90 L 563.40 492.80 L 562.70 493.00 L 561.80 492.40 L 560.00 469.50 L 560.70 467.90 L 561.70 466.90 L 562.40 466.80 L 563.80 467.40 L 568.20 477.70 L 569.10 478.20 L 569.90 477.30 L 570.10 476.10 L 567.80 464.20 L 567.90 462.50 L 568.40 460.80 L 569.40 459.20 Z" fill="#515744" fill-rule="nonzero" node-id="144" stroke="none" target-height="61.599976" target-width="19.200012" target-x="560" target-y="459.2"/><path d="M 680.50 466.20 L 674.80 470.10 L 668.90 473.50 L 662.80 476.50 L 656.00 479.10 L 655.00 478.70 L 654.70 478.20 L 654.90 476.80 L 656.90 474.50 L 663.20 470.90 L 663.80 469.80 L 663.20 468.70 L 651.80 461.90 L 652.30 460.70 L 680.50 466.20 Z" fill="#4d1610" fill-rule="nonzero" node-id="146" stroke="none" target-height="18.399994" target-width="28.700012" target-x="651.8" target-y="460.7"/><path d="M 559.50 469.60 L 561.30 492.50 L 562.10 496.50 L 562.40 500.30 L 562.20 504.00 L 561.50 507.60 L 560.30 511.00 L 558.60 514.40 L 556.30 517.80 L 552.80 521.90 L 551.40 528.10 L 549.50 528.10 L 547.70 527.70 L 546.20 526.80 L 544.90 525.60 L 543.90 524.20 L 542.80 521.40 L 539.70 517.50 L 537.90 514.50 L 536.80 511.50 L 536.20 508.40 L 536.20 505.30 L 536.80 502.00 L 537.90 498.60 L 539.80 495.00 L 546.90 491.90 L 548.80 490.60 L 550.20 489.00 L 551.30 487.10 L 551.80 485.00 L 552.00 482.30 L 551.60 478.70 L 551.70 473.20 L 550.70 467.60 L 553.20 467.50 L 555.40 467.70 L 557.50 468.50 L 559.50 469.60 Z" fill="#fda567" fill-rule="nonzero" node-id="148" stroke="none" target-height="60.599976" target-width="26.200012" target-x="536.2" target-y="467.5"/><path d="M 639.90 470.50 L 640.40 473.10 L 640.40 475.60 L 639.60 479.00 L 638.20 480.00 L 637.20 480.00 L 636.60 479.90 L 635.60 478.70 L 635.20 477.00 L 635.40 476.10 L 635.20 473.10 L 636.10 469.70 L 637.50 469.10 L 638.60 469.30 L 639.90 470.50 Z" fill="#b15726" fill-rule="nonzero" node-id="150" stroke="none" target-height="10.899994" target-width="5.200012" target-x="635.2" target-y="469.1"/><path d="M 551.70 478.50 L 552.10 482.10 L 551.90 484.80 L 551.40 486.90 L 550.30 488.80 L 548.90 490.40 L 547.00 491.70 L 539.90 494.80 L 537.50 492.80 L 535.50 490.40 L 533.90 487.80 L 532.80 484.90 L 532.10 481.90 L 532.00 478.70 L 536.40 477.30 L 540.30 476.60 L 543.70 476.40 L 546.70 476.70 L 549.30 477.40 L 551.70 478.50 Z" fill="#278888" fill-rule="nonzero" node-id="152" stroke="none" target-height="18.399994" target-width="20.099976" target-x="532" target-y="476.4"/><g node-id="269"><path d="M 747.40 489.30 L 747.70 492.10 L 747.40 494.70 L 746.70 497.00 L 745.50 498.80 L 743.50 500.50 L 740.90 501.00 L 738.30 500.20 L 736.60 499.00 L 735.00 497.10 L 733.90 494.80 L 733.10 492.10 L 732.80 489.30 L 733.00 486.80 L 733.80 484.40 L 734.90 482.60 L 737.00 480.90 L 738.30 480.50 L 740.90 480.70 L 742.20 481.20 L 743.90 482.50 L 745.40 484.40 L 746.60 486.60 L 747.40 489.30 Z" fill="#ffc156" fill-rule="nonzero" group-id="3" node-id="156" stroke="none" target-height="20.5" target-width="14.900024" target-x="732.8" target-y="480.5"/></g><path d="M 349.30 502.00 L 348.80 514.90 L 347.50 515.20 L 345.20 511.00 L 343.60 507.00 L 342.90 503.10 L 342.70 499.20 L 343.00 495.20 L 343.90 491.30 L 345.30 487.60 L 348.40 482.30 L 349.10 481.70 L 349.60 481.60 L 349.90 481.90 L 350.40 485.00 L 350.10 493.50 L 349.30 502.00 Z" fill="#4d1610" fill-rule="nonzero" node-id="159" stroke="none" target-height="33.600006" target-width="7.6999817" target-x="342.7" target-y="481.6"/><path d="M 262.20 520.90 L 263.10 521.80 L 263.90 524.00 L 263.60 526.40 L 262.40 528.30 L 262.20 529.50 L 262.20 546.50 L 262.70 541.00 L 262.10 535.40 L 261.30 532.80 L 259.90 529.80 L 258.40 529.50 L 257.70 530.20 L 256.00 534.60 L 254.90 539.10 L 254.30 543.70 L 254.10 550.50 L 253.50 552.60 L 252.40 554.50 L 250.90 556.20 L 251.10 552.80 L 250.60 550.50 L 249.10 548.70 L 248.00 548.20 L 246.80 548.00 L 243.20 548.80 L 241.20 549.70 L 237.70 552.50 L 235.40 556.40 L 235.40 558.40 L 238.80 565.00 L 243.30 570.90 L 235.60 582.20 L 209.20 616.30 L 205.00 620.80 L 204.20 621.30 L 203.20 621.30 L 198.20 619.90 L 197.20 620.20 L 196.90 627.50 L 196.50 629.60 L 194.60 633.50 L 192.00 636.70 L 186.20 642.30 L 183.00 644.70 L 176.00 648.70 L 175.50 649.20 L 175.50 649.80 L 176.20 650.30 L 174.20 650.60 L 173.00 650.30 L 169.40 647.40 L 166.30 644.10 L 163.60 640.50 L 161.30 636.50 L 159.60 632.30 L 158.30 627.90 L 158.30 626.90 L 159.20 625.30 L 160.10 625.00 L 169.90 622.30 L 185.80 619.60 L 186.90 616.20 L 185.50 604.00 L 184.70 591.90 L 184.40 579.70 L 184.70 578.70 L 185.50 578.10 L 188.30 577.30 L 189.40 576.40 L 190.30 575.30 L 191.60 571.60 L 193.30 570.50 L 194.50 570.40 L 218.50 574.30 L 222.10 576.30 L 223.30 576.30 L 223.80 575.90 L 223.90 575.30 L 223.50 574.00 L 203.00 537.20 L 202.40 536.10 L 202.40 534.90 L 202.80 533.80 L 203.70 532.90 L 208.40 530.00 L 212.50 527.90 L 223.60 523.60 L 227.40 521.80 L 230.10 521.20 L 230.80 520.80 L 232.20 518.60 L 234.60 516.70 L 237.50 515.80 L 239.90 515.60 L 240.80 514.70 L 240.80 513.00 L 236.40 506.20 L 232.40 499.10 L 228.90 491.70 L 225.80 484.00 L 229.90 487.60 L 231.50 489.80 L 234.90 498.10 L 237.50 503.10 L 240.20 507.40 L 243.10 511.00 L 246.20 513.90 L 248.30 515.10 L 256.20 518.60 L 262.20 520.90 Z M 243.40 538.10 L 246.40 541.80 L 248.30 543.20 L 250.80 544.60 L 251.80 544.20 L 256.80 530.50 L 257.10 528.70 L 256.90 527.10 L 256.10 525.60 L 254.80 524.40 L 250.90 523.00 L 247.40 523.00 L 244.60 524.40 L 243.50 525.50 L 242.30 527.70 L 241.60 530.00 L 241.60 532.50 L 242.10 535.10 L 243.40 538.10 Z" fill="#42819e" fill-rule="nonzero" node-id="161" stroke="none" target-height="166.59998" target-width="105.59999" target-x="158.3" target-y="484"/><path d="M 664.90 502.90 L 663.50 504.70 L 662.60 505.30 L 661.00 505.50 L 659.20 505.20 L 649.30 500.40 L 647.00 498.70 L 645.20 496.60 L 644.10 494.70 L 643.70 493.30 L 644.00 490.90 L 646.50 485.80 L 648.70 484.30 L 650.90 483.80 L 653.60 483.70 L 656.40 484.20 L 659.40 485.20 L 667.50 489.00 L 668.80 490.70 L 669.00 492.30 L 668.70 494.10 L 664.90 502.90 Z" fill="#ffc156" fill-rule="nonzero" node-id="163" stroke="none" target-height="21.799988" target-width="25.299988" target-x="643.7" target-y="483.7"/><path d="M 575.80 516.30 L 576.00 519.70 L 577.20 526.50 L 577.20 527.90 L 577.00 529.30 L 576.10 531.60 L 575.40 531.70 L 574.10 529.80 L 570.30 521.40 L 566.40 510.30 L 566.00 505.90 L 566.60 498.10 L 565.10 492.90 L 564.30 489.00 L 564.10 485.10 L 564.80 484.70 L 566.10 485.00 L 567.10 486.70 L 567.90 492.80 L 570.10 502.50 L 573.60 511.80 L 575.80 516.30 Z" fill="#ffc156" fill-rule="nonzero" node-id="165" stroke="none" target-height="47" target-width="13.100037" target-x="564.1" target-y="484.7"/><path d="M 407.50 493.20 L 407.80 499.00 L 407.40 501.90 L 405.80 506.50 L 404.60 507.90 L 403.10 509.10 L 400.40 510.50 L 397.20 511.50 L 393.80 512.10 L 390.50 512.40 L 384.80 512.10 L 385.60 511.10 L 383.60 508.20 L 382.40 505.50 L 381.70 502.60 L 381.40 499.60 L 381.70 498.30 L 382.40 497.20 L 383.50 496.40 L 384.80 496.00 L 407.50 493.20 Z" fill="#278888" fill-rule="nonzero" node-id="167" stroke="none" target-height="19.200012" target-width="26.399994" target-x="381.4" target-y="493.2"/><path d="M 687.80 516.10 L 687.80 517.20 L 685.80 515.60 L 684.10 513.70 L 682.80 511.50 L 681.90 509.10 L 680.90 503.00 L 680.10 502.40 L 677.80 501.80 L 675.60 501.80 L 672.70 502.50 L 671.90 501.50 L 671.70 499.50 L 673.80 498.10 L 676.10 497.20 L 678.50 496.60 L 679.50 496.80 L 682.00 498.90 L 684.40 500.40 L 685.00 501.80 L 687.80 516.10 Z" fill="#ffa490" fill-rule="nonzero" node-id="169" stroke="none" target-height="20.600006" target-width="16.099976" target-x="671.7" target-y="496.6"/><path d="M 752.20 626.50 L 751.70 628.90 L 751.40 628.90 L 748.20 621.90 L 743.60 609.10 L 741.40 601.40 L 741.70 601.00 L 742.20 600.80 L 745.80 601.30 L 746.90 601.10 L 750.90 599.70 L 754.60 597.70 L 758.20 595.40 L 765.40 589.00 L 774.20 582.70 L 774.50 582.10 L 775.20 577.70 L 775.40 573.30 L 775.10 569.00 L 774.40 564.60 L 773.10 560.30 L 772.50 559.40 L 771.70 558.70 L 770.80 558.50 L 769.70 558.70 L 765.70 561.60 L 764.10 562.00 L 761.40 561.90 L 760.00 560.50 L 759.70 559.40 L 759.00 542.20 L 758.80 541.00 L 757.50 538.30 L 757.50 537.60 L 758.90 534.50 L 758.70 531.90 L 757.90 531.60 L 756.00 533.40 L 730.60 562.40 L 729.70 562.60 L 728.90 561.70 L 740.10 546.90 L 749.60 535.60 L 762.10 522.10 L 766.50 515.10 L 767.80 515.20 L 768.40 516.10 L 768.40 516.70 L 766.80 520.50 L 766.10 524.40 L 766.40 526.20 L 768.10 531.70 L 770.10 536.60 L 771.60 538.70 L 773.50 540.50 L 774.60 540.50 L 774.90 535.70 L 774.50 531.60 L 772.80 523.50 L 769.80 515.80 L 767.50 511.30 L 766.40 505.70 L 764.90 504.60 L 764.90 504.20 L 768.80 501.80 L 772.00 498.90 L 773.80 497.80 L 775.90 497.10 L 777.40 497.00 L 778.80 497.50 L 779.90 498.50 L 780.70 500.00 L 782.40 507.10 L 782.90 507.70 L 785.60 509.00 L 787.00 510.30 L 788.20 512.20 L 789.60 519.00 L 789.70 521.70 L 788.80 526.90 L 786.20 532.70 L 779.80 543.90 L 778.50 547.30 L 777.80 550.80 L 778.70 581.70 L 778.10 587.40 L 776.90 592.60 L 775.20 597.30 L 773.00 601.70 L 770.30 605.70 L 767.00 609.40 L 763.20 612.80 L 758.70 615.90 L 753.50 618.70 L 751.20 620.60 L 750.80 621.40 L 752.20 626.50 Z" fill="#df615d" fill-rule="nonzero" node-id="171" stroke="none" target-height="131.90002" target-width="60.799988" target-x="728.9" target-y="497"/><path d="M 381.20 509.10 L 383.00 511.60 L 383.00 514.50 L 376.90 510.60 L 375.90 510.50 L 374.40 522.40 L 369.90 528.20 L 367.60 532.70 L 365.10 535.40 L 361.20 537.80 L 358.70 538.60 L 356.00 538.90 L 353.30 538.80 L 350.80 538.10 L 348.40 536.90 L 345.70 534.90 L 343.80 532.90 L 342.60 530.80 L 341.90 528.50 L 341.80 526.20 L 342.10 523.70 L 342.90 521.30 L 345.70 516.30 L 346.50 515.60 L 348.50 515.00 L 349.30 514.50 L 349.80 501.60 L 354.10 500.30 L 358.10 499.60 L 361.80 499.50 L 365.30 499.90 L 368.60 500.80 L 371.80 502.30 L 374.90 504.30 L 378.70 507.60 L 379.70 507.90 L 381.20 509.10 Z" fill="#ffa246" fill-rule="nonzero" node-id="173" stroke="none" target-height="39.400024" target-width="41.200012" target-x="341.8" target-y="499.5"/><path d="M 671.70 500.00 L 672.10 502.70 L 672.50 503.00 L 675.60 502.30 L 677.80 502.30 L 680.10 502.90 L 680.90 503.50 L 681.90 509.50 L 682.80 511.90 L 685.80 515.90 L 687.80 517.70 L 689.60 529.30 L 686.50 533.70 L 684.40 539.80 L 683.70 540.60 L 682.20 541.40 L 678.90 542.00 L 677.20 541.80 L 674.20 540.40 L 671.40 538.50 L 666.50 534.10 L 664.40 531.50 L 661.30 525.70 L 663.80 525.80 L 664.10 525.40 L 664.00 519.40 L 664.60 516.70 L 670.00 503.30 L 671.70 500.00 Z" fill="#ff8044" fill-rule="nonzero" node-id="175" stroke="none" target-height="42" target-width="28.299988" target-x="661.3" target-y="500"/><path d="M 711.60 506.30 L 719.30 506.30 L 720.00 506.70 L 720.50 508.30 L 720.50 509.80 L 720.10 510.50 L 718.90 511.30 L 715.10 511.50 L 708.80 511.00 L 704.10 510.10 L 697.20 509.70 L 695.80 509.10 L 694.30 507.60 L 693.70 506.30 L 693.70 505.30 L 694.60 504.50 L 695.20 504.40 L 698.50 505.70 L 701.10 506.20 L 711.60 506.30 Z" fill="#c33935" fill-rule="nonzero" node-id="177" stroke="none" target-height="7.100006" target-width="26.799988" target-x="693.7" target-y="504.4"/><path d="M 343.60 506.80 L 347.20 514.70 L 347.90 515.10 L 348.80 514.70 L 348.00 515.20 L 346.00 515.70 L 343.60 519.00 L 341.60 523.90 L 341.30 526.40 L 341.40 528.80 L 342.10 531.10 L 343.30 533.10 L 345.20 535.10 L 347.90 537.10 L 350.40 538.30 L 353.00 539.00 L 355.60 539.10 L 358.20 538.80 L 360.70 538.00 L 365.20 535.00 L 366.80 533.20 L 370.30 527.00 L 373.90 522.50 L 375.30 511.30 L 375.60 510.60 L 382.50 514.70 L 384.20 516.40 L 386.10 519.70 L 386.50 521.30 L 386.40 523.60 L 385.70 526.20 L 384.30 529.00 L 381.90 531.60 L 377.00 535.70 L 369.30 543.00 L 367.10 544.70 L 363.20 546.40 L 358.90 546.50 L 352.40 545.50 L 346.10 543.90 L 340.10 541.70 L 338.30 540.70 L 335.40 537.90 L 333.60 534.30 L 332.90 529.60 L 333.10 527.00 L 333.70 524.50 L 340.60 507.00 L 341.10 506.50 L 342.20 506.70 L 343.00 507.20 L 343.60 506.80 Z" fill="#ff8044" fill-rule="nonzero" node-id="179" stroke="none" target-height="40" target-width="53.600006" target-x="332.9" target-y="506.5"/><path d="M 499.80 516.30 L 502.00 522.10 L 503.40 522.40 L 505.40 521.30 L 508.50 518.30 L 510.60 514.40 L 511.10 512.20 L 512.90 512.80 L 514.20 513.60 L 515.10 514.90 L 515.60 516.50 L 515.70 518.60 L 514.10 525.30 L 510.80 533.40 L 506.80 539.50 L 502.30 543.70 L 501.50 545.60 L 500.70 546.20 L 493.40 548.60 L 481.10 551.40 L 451.10 554.80 L 447.00 552.90 L 443.20 550.70 L 439.60 548.10 L 433.10 542.10 L 430.20 538.70 L 428.50 535.70 L 427.30 532.60 L 426.50 529.30 L 426.00 524.90 L 426.40 524.00 L 427.10 523.20 L 428.10 522.80 L 432.60 522.20 L 437.40 520.80 L 438.00 521.70 L 437.90 522.60 L 438.50 524.60 L 439.40 526.40 L 440.70 528.00 L 442.40 529.40 L 443.40 529.60 L 447.00 527.20 L 449.20 524.90 L 451.00 522.20 L 452.30 519.20 L 462.30 511.70 L 461.30 513.90 L 460.70 516.20 L 461.50 517.50 L 462.70 518.30 L 464.10 518.70 L 465.70 518.50 L 466.90 517.90 L 468.90 514.20 L 469.90 510.40 L 470.40 509.50 L 471.20 509.10 L 482.40 513.00 L 487.80 514.30 L 493.90 515.00 L 499.80 516.30 Z M 440.20 544.40 L 443.00 546.90 L 445.80 547.50 L 448.30 549.40 L 450.50 550.40 L 455.20 551.20 L 457.80 551.00 L 466.40 549.90 L 480.40 548.80 L 485.70 547.80 L 490.80 546.40 L 496.10 544.90 L 497.00 544.40 L 497.60 543.60 L 497.90 541.70 L 497.00 540.30 L 485.90 533.30 L 480.00 530.70 L 473.70 529.00 L 461.20 527.40 L 456.90 527.20 L 454.90 527.70 L 444.00 535.00 L 442.40 535.40 L 441.10 534.50 L 434.70 525.90 L 433.80 525.20 L 432.70 525.10 L 431.30 525.20 L 430.60 525.70 L 429.80 527.30 L 429.90 528.30 L 433.60 535.80 L 435.80 539.20 L 440.20 544.40 Z" fill="#7a2433" fill-rule="nonzero" node-id="181" stroke="none" target-height="45.69998" target-width="89.70001" target-x="426" target-y="509.1"/><path d="M 469.90 511.30 L 467.90 516.50 L 466.90 517.60 L 465.60 518.30 L 464.10 518.50 L 462.70 518.10 L 461.60 517.20 L 460.90 516.10 L 461.50 513.70 L 462.50 511.60 L 463.00 512.40 L 463.60 512.70 L 464.40 512.40 L 466.50 510.40 L 468.40 509.50 L 469.60 509.50 L 469.90 510.10 L 469.90 511.30 Z" fill="#f0d1cd" fill-rule="nonzero" node-id="183" stroke="none" target-height="9" target-width="9" target-x="460.9" target-y="509.5"/><path d="M 511.20 512.20 L 510.70 514.40 L 508.60 518.30 L 505.50 521.30 L 503.50 522.40 L 502.50 522.40 L 501.90 521.70 L 499.90 516.30 L 501.60 514.90 L 504.50 513.50 L 506.70 511.90 L 508.20 511.50 L 509.70 511.60 L 511.20 512.20 Z" fill="#fef2e1" fill-rule="nonzero" node-id="185" stroke="none" target-height="10.900024" target-width="11.300018" target-x="499.9" target-y="511.5"/><path d="M 307.30 529.20 L 298.50 527.60 L 296.10 526.60 L 294.40 524.70 L 291.90 520.60 L 291.30 519.20 L 291.10 517.60 L 291.80 514.60 L 292.70 513.40 L 293.90 512.40 L 295.40 511.80 L 296.80 511.50 L 305.40 511.50 L 307.10 511.80 L 308.60 512.50 L 309.80 513.50 L 310.80 514.90 L 314.10 522.10 L 314.20 523.60 L 313.80 525.20 L 312.10 527.70 L 310.00 528.90 L 307.30 529.20 Z" fill="#89a479" fill-rule="nonzero" node-id="187" stroke="none" target-height="17.700012" target-width="23.100006" target-x="291.1" target-y="511.5"/><path d="M 694.10 539.90 L 694.40 545.70 L 694.10 551.50 L 693.40 557.30 L 692.10 563.00 L 689.40 570.10 L 685.40 576.40 L 680.30 581.70 L 674.20 586.10 L 672.60 586.30 L 672.10 585.80 L 672.30 584.70 L 681.60 575.40 L 683.70 572.70 L 685.60 569.40 L 687.20 565.50 L 688.50 560.90 L 689.50 555.40 L 690.20 542.00 L 689.50 528.60 L 687.70 517.00 L 687.70 515.90 L 688.40 515.00 L 688.60 512.80 L 689.80 512.90 L 690.30 513.60 L 694.10 539.90 Z" fill="#da504a" fill-rule="nonzero" node-id="189" stroke="none" target-height="73.5" target-width="22.300049" target-x="672.1" target-y="512.8"/><path d="M 576.90 541.50 L 577.00 543.20 L 576.70 544.90 L 576.30 545.50 L 575.90 545.50 L 572.90 540.10 L 569.70 535.50 L 566.10 531.10 L 565.30 530.60 L 563.70 530.60 L 562.90 531.10 L 560.80 535.00 L 559.60 536.20 L 558.10 537.00 L 557.20 537.10 L 556.40 536.30 L 556.50 533.20 L 555.20 531.00 L 554.90 529.50 L 555.20 528.00 L 561.90 518.30 L 562.40 517.20 L 562.60 514.70 L 563.00 514.10 L 564.50 513.80 L 565.80 514.70 L 576.90 541.50 Z" fill="#f1efbe" fill-rule="nonzero" node-id="191" stroke="none" target-height="31.700012" target-width="22.099976" target-x="554.9" target-y="513.8"/><path d="M 770.60 515.90 L 772.50 520.50 L 774.00 525.20 L 775.00 529.90 L 775.50 534.90 L 775.60 539.90 L 775.30 540.50 L 774.70 540.80 L 774.00 540.60 L 772.10 538.70 L 770.60 536.60 L 769.40 534.30 L 766.60 525.70 L 766.80 522.50 L 768.00 518.60 L 768.90 516.80 L 770.60 515.90 Z" fill="#ffb15c" fill-rule="nonzero" node-id="193" stroke="none" target-height="24.899963" target-width="9" target-x="766.6" target-y="515.9"/><path d="M 452.20 519.00 L 450.90 522.00 L 449.10 524.70 L 446.90 527.00 L 444.30 529.00 L 443.20 529.40 L 442.30 529.20 L 440.60 527.80 L 439.30 526.20 L 438.30 524.40 L 437.80 522.40 L 441.20 520.80 L 444.80 519.70 L 448.50 519.10 L 452.20 519.00 Z" fill="#fef2e1" fill-rule="nonzero" node-id="195" stroke="none" target-height="10.400024" target-width="14.400024" target-x="437.8" target-y="519"/><path d="M 243.40 538.10 L 242.00 535.10 L 241.40 532.50 L 241.50 530.10 L 242.10 528.00 L 243.40 525.90 L 244.60 524.70 L 247.30 523.40 L 250.80 523.40 L 254.70 524.80 L 256.00 526.00 L 256.80 527.60 L 257.00 529.20 L 256.70 530.90 L 251.90 544.40 L 250.60 544.90 L 248.40 543.40 L 244.90 540.00 L 243.40 538.10 Z" fill="#469da7" fill-rule="nonzero" node-id="197" stroke="none" target-height="21.5" target-width="15.600006" target-x="241.4" target-y="523.4"/><path d="M 439.00 543.80 L 437.90 542.90 L 435.40 539.60 L 431.20 532.50 L 429.30 527.90 L 429.90 526.40 L 430.60 525.90 L 433.30 525.90 L 434.30 526.50 L 437.50 531.40 L 440.60 535.20 L 442.00 536.00 L 443.50 535.70 L 455.50 527.90 L 473.20 529.70 L 477.40 530.60 L 481.50 532.00 L 485.40 534.00 L 491.10 537.30 L 496.50 541.00 L 497.20 541.80 L 497.50 543.60 L 496.50 544.90 L 495.60 545.30 L 481.80 549.00 L 465.90 550.20 L 457.30 551.40 L 452.40 551.40 L 450.10 550.80 L 447.80 549.80 L 444.80 547.80 L 442.50 547.30 L 439.70 544.80 L 439.70 544.20 L 439.00 543.80 Z" fill="#fe6048" fill-rule="nonzero" node-id="199" stroke="none" target-height="25.5" target-width="68.20001" target-x="429.3" target-y="525.9"/><path d="M 262.00 546.50 L 261.00 551.80 L 261.00 554.60 L 261.80 559.90 L 262.70 562.60 L 261.00 567.60 L 258.80 572.60 L 256.30 577.40 L 246.50 593.10 L 242.30 598.00 L 236.30 603.70 L 230.70 609.60 L 225.50 615.90 L 214.80 630.70 L 212.80 635.20 L 211.40 643.60 L 209.20 642.20 L 208.20 642.20 L 207.10 642.70 L 202.40 646.10 L 198.10 649.80 L 194.20 653.80 L 191.00 648.60 L 190.20 647.70 L 189.20 647.30 L 188.20 647.30 L 187.10 647.70 L 184.60 649.40 L 182.10 650.30 L 179.40 650.60 L 176.70 650.40 L 176.00 649.90 L 176.00 649.20 L 176.20 648.80 L 183.20 644.80 L 186.40 642.30 L 192.30 636.70 L 194.80 633.60 L 195.90 631.70 L 196.60 629.70 L 197.30 625.30 L 197.30 620.90 L 197.60 620.10 L 198.40 620.00 L 204.40 621.50 L 209.30 616.50 L 223.70 597.80 L 232.30 587.20 L 246.10 567.60 L 248.10 564.10 L 249.70 560.30 L 251.00 556.50 L 252.50 554.80 L 253.60 552.90 L 254.20 550.80 L 254.30 544.00 L 254.90 539.40 L 256.10 534.80 L 258.10 530.10 L 259.60 529.80 L 260.30 530.50 L 261.60 534.10 L 262.40 538.20 L 262.50 542.30 L 262.00 546.50 Z" fill="#366d82" fill-rule="nonzero" node-id="201" stroke="none" target-height="124" target-width="86.70001" target-x="176" target-y="529.8"/><path d="M 301.00 550.60 L 299.70 550.50 L 298.50 549.90 L 297.70 548.80 L 297.20 544.70 L 297.20 542.20 L 297.70 540.00 L 298.60 538.00 L 299.90 536.50 L 301.40 535.40 L 307.20 534.40 L 309.00 534.60 L 310.60 535.40 L 312.10 536.70 L 313.30 538.50 L 314.20 540.60 L 314.70 543.00 L 314.80 547.00 L 314.20 548.20 L 313.10 549.00 L 301.00 550.60 Z" fill="#89a479" fill-rule="nonzero" node-id="203" stroke="none" target-height="16.199951" target-width="17.599976" target-x="297.2" target-y="534.4"/><path d="M 557.90 566.40 L 565.80 587.30 L 567.70 597.70 L 568.70 606.00 L 568.90 611.40 L 568.30 619.50 L 565.10 637.60 L 564.00 642.50 L 562.30 647.10 L 560.10 651.50 L 557.40 655.70 L 545.80 661.50 L 539.80 664.00 L 530.50 667.30 L 519.20 670.60 L 516.90 672.40 L 515.90 672.70 L 506.10 674.70 L 482.40 675.40 L 471.40 676.60 L 453.30 676.80 L 437.20 676.60 L 422.90 675.90 L 412.50 675.00 L 402.20 673.50 L 392.00 671.60 L 381.90 669.30 L 372.70 647.40 L 367.40 636.70 L 360.70 624.50 L 360.00 622.80 L 359.60 619.00 L 361.60 610.20 L 363.20 605.20 L 365.10 600.30 L 369.20 594.40 L 373.50 589.20 L 377.90 584.50 L 382.50 580.30 L 387.30 576.60 L 392.30 573.40 L 397.60 570.60 L 410.70 565.40 L 418.40 562.80 L 434.10 558.50 L 451.30 555.10 L 481.30 551.70 L 487.50 550.50 L 493.70 548.90 L 499.80 546.90 L 512.20 546.20 L 524.40 546.10 L 530.50 546.60 L 536.50 547.60 L 539.40 548.50 L 542.10 549.80 L 544.60 551.50 L 548.20 554.60 L 551.60 558.30 L 557.90 566.40 Z" fill="#feebe5" fill-rule="nonzero" node-id="205" stroke="none" target-height="130.70001" target-width="209.30002" target-x="359.6" target-y="546.1"/><path d="M 577.80 553.70 L 577.60 558.40 L 576.30 567.70 L 573.50 576.60 L 571.50 580.90 L 568.20 586.30 L 567.80 587.90 L 567.90 589.60 L 568.50 591.40 L 567.80 591.60 L 567.20 591.30 L 566.60 590.20 L 566.00 587.80 L 558.10 566.90 L 557.40 551.90 L 557.60 550.60 L 559.00 548.80 L 560.10 548.30 L 564.20 548.10 L 567.90 549.30 L 569.60 550.40 L 573.90 554.00 L 576.60 554.30 L 577.80 553.70 Z" fill="#6c906a" fill-rule="nonzero" node-id="207" stroke="none" target-height="43.5" target-width="20.399963" target-x="557.4" target-y="548.1"/><path d="M 250.80 556.20 L 249.50 560.00 L 247.90 563.80 L 245.90 567.30 L 243.50 570.70 L 239.00 564.80 L 237.10 561.60 L 235.60 558.20 L 235.50 557.10 L 236.60 554.10 L 239.40 550.80 L 241.20 549.50 L 243.30 548.60 L 246.90 547.80 L 249.10 548.50 L 250.60 550.20 L 251.20 552.80 L 250.80 556.20 Z" fill="#469da7" fill-rule="nonzero" node-id="209" stroke="none" target-height="22.900024" target-width="15.699997" target-x="235.5" target-y="547.8"/><path d="M 269.90 548.70 L 270.30 550.50 L 270.10 552.20 L 268.60 555.00 L 268.30 556.20 L 268.60 558.70 L 270.80 561.80 L 271.60 563.80 L 273.00 564.60 L 274.40 564.50 L 275.80 564.90 L 286.80 577.30 L 287.30 583.00 L 287.20 584.00 L 286.40 586.00 L 286.60 586.60 L 287.30 587.00 L 286.10 587.60 L 285.70 588.40 L 285.80 591.50 L 287.00 597.10 L 288.70 600.90 L 290.70 604.50 L 293.10 607.90 L 301.30 617.90 L 297.90 618.20 L 295.00 619.00 L 292.50 620.00 L 290.50 621.40 L 288.80 623.20 L 287.40 625.30 L 286.30 627.90 L 285.60 630.60 L 285.40 633.90 L 285.50 637.40 L 286.00 641.00 L 287.00 644.60 L 288.40 647.80 L 289.60 649.70 L 292.60 652.60 L 294.80 653.80 L 296.70 654.30 L 298.40 654.30 L 300.20 653.90 L 303.50 652.00 L 305.80 649.90 L 312.00 642.90 L 315.10 638.50 L 316.00 636.20 L 316.40 633.50 L 316.00 629.40 L 315.30 626.80 L 324.10 626.40 L 332.50 624.70 L 340.50 621.70 L 344.20 619.60 L 347.60 617.10 L 350.90 614.10 L 356.30 608.00 L 358.10 605.50 L 361.40 597.50 L 364.50 591.40 L 365.40 596.00 L 365.00 600.70 L 362.30 608.20 L 359.70 617.60 L 359.60 621.30 L 360.30 624.00 L 367.20 637.10 L 372.40 647.80 L 377.30 658.70 L 381.80 669.70 L 384.70 685.60 L 377.00 685.20 L 369.30 684.50 L 359.40 682.80 L 355.20 681.00 L 342.90 678.20 L 336.90 675.90 L 324.40 672.40 L 314.60 670.50 L 310.10 669.30 L 305.70 667.50 L 301.50 665.20 L 300.70 664.50 L 299.70 662.90 L 298.50 662.20 L 297.20 662.50 L 292.90 665.20 L 288.60 663.40 L 284.70 661.20 L 281.20 658.40 L 274.90 652.30 L 268.10 648.90 L 267.00 648.10 L 263.50 643.50 L 259.60 640.00 L 255.70 640.10 L 252.80 639.90 L 250.10 639.10 L 247.20 637.80 L 247.00 636.20 L 249.00 632.90 L 250.40 629.20 L 250.90 627.10 L 250.70 624.10 L 250.10 622.90 L 248.30 621.00 L 244.40 619.30 L 240.00 618.30 L 238.60 617.40 L 237.30 614.10 L 236.80 611.20 L 236.80 608.20 L 237.30 605.10 L 237.90 603.90 L 238.90 603.00 L 240.10 602.60 L 241.40 602.60 L 245.00 604.80 L 247.70 605.80 L 248.90 605.90 L 251.60 605.50 L 254.80 605.80 L 256.40 606.90 L 258.10 609.10 L 260.00 610.50 L 261.90 611.30 L 264.00 611.50 L 266.40 611.20 L 269.10 610.10 L 269.80 609.50 L 270.40 607.70 L 270.20 606.70 L 261.60 599.60 L 259.30 597.30 L 255.50 592.10 L 254.20 589.30 L 253.30 586.00 L 252.90 582.20 L 255.80 577.70 L 258.30 572.90 L 260.50 567.90 L 262.20 562.90 L 269.90 548.70 Z" fill="#879e86" fill-rule="nonzero" node-id="211" stroke="none" target-height="136.89996" target-width="147.90001" target-x="236.8" target-y="548.7"/><path d="M 349.50 561.20 L 353.70 562.70 L 357.60 564.80 L 362.20 568.40 L 364.20 570.50 L 355.10 567.30 L 343.40 562.70 L 338.30 561.70 L 335.60 561.70 L 327.20 562.80 L 317.70 565.40 L 316.90 565.40 L 316.40 565.10 L 315.90 564.30 L 315.80 562.60 L 316.40 559.90 L 317.30 558.50 L 318.50 557.60 L 323.40 556.20 L 326.70 555.80 L 330.10 555.80 L 335.10 556.50 L 340.10 557.80 L 349.50 561.20 Z" fill="#f1efbe" fill-rule="nonzero" node-id="213" stroke="none" target-height="14.700012" target-width="48.400024" target-x="315.8" target-y="555.8"/><path d="M 364.00 570.50 L 361.50 567.90 L 358.80 565.70 L 355.90 563.90 L 352.80 562.40 L 349.30 561.20 L 349.00 559.50 L 349.30 558.50 L 350.20 558.10 L 356.20 560.40 L 362.20 564.00 L 364.80 566.30 L 366.70 568.70 L 367.60 570.50 L 368.00 572.40 L 367.80 575.50 L 368.30 578.80 L 368.10 581.00 L 367.40 583.00 L 365.80 585.10 L 364.40 585.30 L 363.60 584.50 L 363.10 582.80 L 365.00 579.20 L 365.80 577.00 L 366.00 575.10 L 365.80 573.40 L 365.20 571.90 L 364.00 570.50 Z" fill="#819765" fill-rule="nonzero" node-id="215" stroke="none" target-height="27.200012" target-width="19.299988" target-x="349" target-y="558.1"/><path d="M 381.70 566.20 L 381.30 566.30 L 380.80 565.80 L 380.00 563.80 L 380.60 561.30 L 381.70 560.10 L 383.70 559.40 L 385.20 559.40 L 387.10 560.40 L 388.10 561.90 L 381.70 566.20 Z" fill="#819765" fill-rule="nonzero" node-id="217" stroke="none" target-height="6.8999634" target-width="8.100006" target-x="380" target-y="559.4"/><path d="M 330.20 620.20 L 325.90 621.70 L 321.90 622.40 L 318.20 622.50 L 314.70 622.00 L 311.40 621.00 L 308.10 619.30 L 305.00 617.00 L 301.90 613.90 L 294.40 604.30 L 291.10 599.10 L 288.10 593.70 L 287.30 590.30 L 287.20 586.70 L 286.50 586.30 L 286.40 585.80 L 287.20 583.60 L 286.70 577.00 L 288.70 572.50 L 289.30 572.00 L 290.10 572.00 L 291.60 573.50 L 291.70 574.10 L 289.70 578.70 L 289.40 580.10 L 290.20 582.40 L 291.20 583.50 L 293.70 584.90 L 295.10 585.10 L 296.60 584.90 L 300.10 583.10 L 301.60 582.70 L 303.20 582.80 L 304.70 583.40 L 306.30 584.50 L 309.00 587.10 L 313.90 590.10 L 317.00 592.70 L 319.40 595.50 L 321.20 598.30 L 322.50 601.40 L 323.90 607.60 L 325.00 610.30 L 327.10 613.70 L 327.90 616.30 L 330.20 620.20 Z" fill="#819765" fill-rule="nonzero" node-id="219" stroke="none" target-height="50.5" target-width="43.80002" target-x="286.4" target-y="572"/><path d="M 253.30 581.90 L 253.70 585.70 L 254.60 588.90 L 255.90 591.80 L 257.60 594.40 L 262.00 599.20 L 269.90 605.70 L 270.50 606.50 L 270.70 608.30 L 269.70 609.80 L 266.90 610.90 L 264.60 611.30 L 262.50 611.10 L 260.60 610.30 L 258.80 608.90 L 257.00 606.60 L 255.40 605.50 L 253.80 605.20 L 249.40 605.70 L 248.30 605.50 L 245.40 604.50 L 241.80 602.40 L 240.60 602.30 L 239.40 602.70 L 237.60 604.80 L 237.10 607.80 L 237.10 610.80 L 237.60 613.80 L 238.70 616.60 L 239.30 617.50 L 240.30 618.00 L 244.80 619.10 L 248.80 620.90 L 249.80 621.70 L 251.10 623.90 L 251.30 626.80 L 249.20 632.50 L 247.30 635.90 L 247.20 636.70 L 247.50 637.50 L 253.10 639.40 L 255.90 639.70 L 258.80 639.50 L 260.60 640.00 L 263.80 643.00 L 267.10 647.60 L 275.00 651.80 L 276.50 653.00 L 282.40 658.80 L 284.90 660.70 L 288.80 662.90 L 293.10 664.70 L 292.20 665.20 L 288.40 664.90 L 286.90 665.50 L 286.50 666.60 L 286.70 669.70 L 287.50 672.80 L 288.80 675.90 L 298.60 691.80 L 298.80 692.70 L 298.10 693.20 L 295.40 693.60 L 286.80 694.10 L 264.80 693.30 L 264.00 692.70 L 260.30 683.60 L 254.60 672.30 L 252.30 668.90 L 250.10 666.30 L 245.30 662.20 L 245.00 662.20 L 245.50 663.20 L 241.20 661.50 L 236.70 661.20 L 230.60 662.50 L 224.50 663.30 L 217.70 663.30 L 218.70 661.80 L 218.90 659.90 L 218.60 658.50 L 215.90 653.90 L 213.70 649.10 L 212.00 644.00 L 212.50 639.70 L 214.20 633.10 L 215.40 630.90 L 226.00 616.30 L 231.30 610.00 L 236.90 604.00 L 242.90 598.40 L 247.10 593.50 L 248.80 590.70 L 250.70 586.00 L 253.30 581.90 Z M 230.70 626.80 L 230.30 625.70 L 229.60 624.90 L 227.50 624.10 L 226.50 624.40 L 215.00 636.30 L 214.30 638.30 L 214.50 639.50 L 220.80 655.20 L 221.80 656.10 L 229.00 658.60 L 230.20 658.80 L 231.30 658.50 L 232.10 657.80 L 232.80 655.70 L 230.70 626.80 Z" fill="#6d8489" fill-rule="nonzero" node-id="221" stroke="none" target-height="112.19995" target-width="86.79999" target-x="212" target-y="581.9"/><path d="M 287.10 586.60 L 287.30 590.10 L 288.00 593.60 L 292.10 600.80 L 296.70 607.50 L 301.80 613.80 L 304.90 616.90 L 308.00 619.20 L 311.20 620.90 L 314.50 622.00 L 318.00 622.40 L 321.70 622.30 L 325.70 621.60 L 330.10 620.10 L 334.60 619.30 L 338.90 617.90 L 342.90 616.00 L 346.70 613.50 L 347.40 612.70 L 347.70 610.80 L 345.50 607.80 L 343.40 603.70 L 342.80 600.00 L 343.30 598.80 L 344.10 597.80 L 345.20 597.20 L 348.60 596.30 L 351.20 596.60 L 353.10 598.10 L 353.40 598.60 L 353.20 598.90 L 348.30 597.30 L 347.40 597.50 L 345.60 598.50 L 344.70 600.40 L 345.20 603.00 L 349.20 608.60 L 350.30 609.30 L 351.50 609.10 L 354.20 604.90 L 356.30 602.50 L 361.40 589.40 L 362.80 588.90 L 364.30 589.10 L 364.90 589.50 L 364.90 590.10 L 361.10 597.60 L 357.50 605.80 L 355.10 609.00 L 350.60 614.10 L 347.30 617.10 L 343.90 619.60 L 340.20 621.70 L 332.20 624.70 L 323.80 626.40 L 315.00 626.80 L 301.20 618.00 L 293.00 608.00 L 290.60 604.60 L 288.50 601.00 L 286.90 597.20 L 286.20 594.50 L 285.60 588.50 L 285.80 587.90 L 287.10 586.60 Z" fill="#515744" fill-rule="nonzero" node-id="223" stroke="none" target-height="40.200012" target-width="79.29999" target-x="285.6" target-y="586.6"/><path d="M 566.00 587.50 L 566.60 589.70 L 567.50 591.20 L 568.50 591.10 L 571.00 589.30 L 569.90 591.10 L 569.20 593.10 L 569.00 595.20 L 569.20 597.20 L 570.80 602.90 L 571.90 613.60 L 573.10 615.20 L 573.90 622.50 L 574.10 630.90 L 574.80 633.10 L 575.90 634.80 L 576.80 645.30 L 577.80 650.40 L 579.60 650.80 L 581.80 653.20 L 584.30 655.20 L 587.10 656.80 L 590.10 657.90 L 593.30 658.50 L 614.30 658.70 L 616.80 659.50 L 618.60 661.40 L 619.00 662.60 L 619.30 666.40 L 620.40 671.30 L 621.40 673.60 L 624.10 677.70 L 619.90 679.60 L 616.70 681.60 L 614.50 683.50 L 612.90 685.50 L 611.90 687.50 L 611.40 689.60 L 611.50 691.90 L 612.10 694.30 L 613.30 697.00 L 615.30 700.10 L 615.40 701.10 L 611.40 701.40 L 596.90 691.20 L 595.80 690.60 L 592.70 690.50 L 590.60 690.80 L 586.50 692.30 L 579.80 697.10 L 574.00 702.70 L 560.20 701.60 L 568.60 700.60 L 569.50 699.60 L 573.20 684.80 L 574.50 677.30 L 575.60 665.80 L 575.40 662.00 L 573.60 652.30 L 572.90 646.50 L 572.60 645.30 L 571.80 644.20 L 569.90 642.70 L 568.60 642.40 L 567.20 642.70 L 565.60 643.90 L 557.00 658.30 L 557.90 655.40 L 560.60 651.20 L 562.80 646.80 L 564.50 642.10 L 565.60 637.30 L 568.80 619.20 L 569.10 611.50 L 568.90 606.20 L 567.90 597.90 L 566.00 587.50 Z" fill="#ce6e83" fill-rule="nonzero" node-id="225" stroke="none" target-height="115.20001" target-width="67.099976" target-x="557" target-y="587.5"/><path d="M 186.00 619.30 L 170.10 622.00 L 160.60 622.00 L 159.60 621.80 L 156.90 620.40 L 155.20 620.20 L 153.60 620.40 L 152.20 621.30 L 150.30 624.40 L 147.70 627.40 L 147.10 627.70 L 145.20 627.60 L 142.90 629.00 L 141.60 622.50 L 140.80 614.40 L 140.90 605.90 L 141.50 601.80 L 142.40 598.20 L 144.50 594.10 L 145.80 592.50 L 147.10 591.70 L 148.50 591.40 L 149.90 591.50 L 151.20 592.30 L 170.70 609.80 L 173.80 611.80 L 178.60 614.10 L 186.00 619.30 Z" fill="#fbb2b1" fill-rule="nonzero" node-id="227" stroke="none" target-height="37.599976" target-width="45.199997" target-x="140.8" target-y="591.4"/><path d="M 730.40 620.60 L 729.50 625.00 L 728.20 629.20 L 726.40 633.10 L 724.00 636.80 L 721.20 640.20 L 717.70 643.60 L 713.10 646.90 L 711.80 646.50 L 711.20 642.80 L 710.40 640.50 L 709.10 638.60 L 707.30 637.10 L 705.00 635.90 L 701.10 634.80 L 700.30 634.20 L 697.30 630.70 L 697.30 628.40 L 697.00 627.90 L 687.90 628.10 L 677.70 628.70 L 675.70 628.40 L 675.30 628.00 L 675.50 627.50 L 677.20 626.40 L 682.30 624.30 L 690.20 623.20 L 704.30 618.90 L 705.30 618.40 L 708.70 615.00 L 711.60 613.10 L 714.80 611.70 L 718.10 610.90 L 720.50 610.70 L 722.70 611.00 L 724.70 611.90 L 726.50 613.40 L 728.00 615.50 L 730.40 620.60 Z" fill="#a7b9ac" fill-rule="nonzero" node-id="229" stroke="none" target-height="36.200012" target-width="55.100037" target-x="675.3" target-y="610.7"/><path d="M 301.40 617.50 L 315.20 626.30 L 315.90 628.90 L 316.30 633.00 L 315.90 635.70 L 315.00 638.10 L 311.90 642.40 L 305.70 649.40 L 303.40 651.50 L 301.70 652.70 L 298.30 653.80 L 296.60 653.80 L 294.70 653.30 L 292.50 652.10 L 289.60 649.20 L 288.40 647.30 L 287.10 644.10 L 286.10 640.50 L 285.50 636.90 L 285.40 633.40 L 285.60 630.10 L 286.20 627.40 L 287.20 625.00 L 289.80 621.40 L 291.50 620.10 L 295.70 618.30 L 301.40 617.50 Z" fill="#ffa490" fill-rule="nonzero" node-id="231" stroke="none" target-height="36.299988" target-width="30.899994" target-x="285.4" target-y="617.5"/><path d="M 170.10 622.00 L 160.30 624.70 L 159.10 625.40 L 158.60 626.40 L 158.50 627.60 L 159.80 632.10 L 161.60 636.30 L 163.80 640.20 L 166.50 643.80 L 169.70 647.10 L 173.90 650.30 L 175.50 650.40 L 176.40 650.00 L 179.10 650.20 L 181.80 649.90 L 184.40 649.00 L 187.70 647.00 L 189.90 647.30 L 190.90 648.20 L 194.10 653.40 L 194.20 658.60 L 195.50 662.50 L 196.60 664.00 L 199.20 666.20 L 200.50 666.40 L 201.80 666.20 L 205.00 664.10 L 217.90 660.70 L 216.90 662.50 L 217.40 663.00 L 226.70 662.50 L 235.80 660.70 L 238.20 660.60 L 240.40 660.80 L 242.50 661.50 L 244.60 662.70 L 248.80 667.90 L 252.50 673.30 L 255.80 679.10 L 258.50 685.00 L 260.80 691.20 L 262.70 698.30 L 263.60 698.50 L 263.80 701.20 L 263.50 702.20 L 262.70 702.80 L 259.80 703.90 L 256.80 704.40 L 225.40 704.90 L 201.90 704.90 L 192.60 704.60 L 173.50 703.10 L 141.90 703.10 L 139.90 702.90 L 139.00 702.50 L 138.70 701.90 L 139.00 701.00 L 141.70 697.60 L 142.50 695.50 L 142.80 693.20 L 148.00 684.10 L 149.90 682.00 L 153.20 679.90 L 159.40 679.70 L 162.70 680.40 L 167.50 683.30 L 170.50 685.80 L 175.90 691.20 L 176.90 691.50 L 177.80 690.50 L 178.00 688.50 L 177.40 684.50 L 176.70 682.60 L 174.40 678.60 L 171.90 675.30 L 169.40 672.60 L 166.70 670.50 L 163.80 669.00 L 159.00 663.10 L 154.80 656.90 L 151.00 650.30 L 147.70 643.50 L 145.00 636.40 L 142.90 629.10 L 145.10 627.60 L 147.20 627.80 L 147.70 627.50 L 150.20 624.60 L 152.20 621.40 L 153.60 620.50 L 155.40 620.30 L 157.10 620.60 L 159.70 622.00 L 160.60 622.10 L 170.10 622.00 Z M 202.50 673.50 L 208.60 669.60 L 211.30 667.30 L 211.40 666.90 L 211.00 666.60 L 210.00 666.50 L 203.60 667.40 L 199.80 668.50 L 196.10 670.00 L 192.60 671.90 L 189.40 674.10 L 186.40 676.70 L 184.50 678.80 L 183.10 681.20 L 182.10 683.80 L 181.60 686.60 L 181.60 689.30 L 182.20 692.40 L 183.30 692.60 L 183.80 691.90 L 184.10 689.30 L 184.80 686.90 L 186.00 684.60 L 187.60 682.60 L 189.50 681.00 L 202.50 673.50 Z" fill="#958a9c" fill-rule="nonzero" node-id="233" stroke="none" target-height="84.60004" target-width="125.09999" target-x="138.7" target-y="620.3"/><path d="M 730.40 620.60 L 730.70 626.40 L 730.30 628.80 L 726.10 637.60 L 709.80 655.70 L 704.40 657.00 L 699.90 657.60 L 696.20 657.60 L 693.00 657.20 L 690.30 656.30 L 688.10 655.10 L 686.20 653.40 L 684.60 651.40 L 682.90 648.10 L 681.90 645.40 L 681.70 642.90 L 682.00 640.80 L 682.90 638.80 L 684.30 636.90 L 686.50 635.20 L 689.60 633.50 L 691.40 631.50 L 694.60 630.00 L 696.40 627.80 L 697.00 627.80 L 697.40 628.70 L 697.30 630.60 L 700.30 634.10 L 701.10 634.70 L 705.00 635.80 L 707.30 636.90 L 709.10 638.40 L 710.40 640.30 L 711.20 642.70 L 711.70 646.20 L 712.50 647.00 L 713.70 646.90 L 720.30 641.20 L 725.20 635.10 L 727.10 631.80 L 728.60 628.30 L 729.70 624.60 L 730.40 620.60 Z" fill="#958a9c" fill-rule="nonzero" node-id="235" stroke="none" target-height="37" target-width="49" target-x="681.7" target-y="620.6"/><path d="M 230.70 626.80 L 232.70 655.60 L 232.50 656.70 L 231.10 658.40 L 229.40 658.80 L 222.30 656.30 L 221.30 655.70 L 220.50 654.70 L 214.20 638.70 L 214.20 637.80 L 214.90 636.30 L 225.60 625.00 L 226.50 624.40 L 228.70 624.30 L 229.70 624.80 L 230.50 625.80 L 230.70 626.80 Z" fill="#baa4ab" fill-rule="nonzero" node-id="237" stroke="none" target-height="34.5" target-width="18.5" target-x="214.2" target-y="624.3"/><path d="M 817.70 628.60 L 813.90 629.50 L 808.00 631.80 L 804.20 634.00 L 800.70 636.50 L 793.40 642.70 L 792.00 643.50 L 788.80 644.00 L 787.20 644.50 L 785.70 645.40 L 784.90 646.40 L 784.30 647.70 L 783.10 654.10 L 780.70 660.20 L 781.20 655.00 L 782.40 649.90 L 784.10 644.80 L 785.70 641.80 L 787.70 639.00 L 790.20 636.60 L 798.10 629.80 L 800.30 628.10 L 802.50 627.00 L 804.80 626.20 L 807.20 625.90 L 812.10 626.40 L 817.70 628.60 Z" fill="#f0d1cd" fill-rule="nonzero" node-id="239" stroke="none" target-height="34.299988" target-width="37" target-x="780.7" target-y="625.9"/><path d="M 753.30 631.50 L 754.60 639.50 L 755.40 647.60 L 755.80 655.70 L 755.60 664.60 L 754.30 664.90 L 754.10 665.30 L 752.70 670.40 L 749.20 679.60 L 746.90 683.90 L 744.30 687.80 L 741.30 691.50 L 737.90 694.70 L 733.90 697.60 L 728.70 700.50 L 728.50 701.70 L 729.40 702.60 L 730.80 703.10 L 733.20 703.20 L 694.70 703.70 L 698.10 702.40 L 700.80 700.80 L 702.80 699.10 L 704.30 697.10 L 705.30 694.80 L 705.80 692.20 L 705.80 689.20 L 705.20 685.70 L 703.90 681.60 L 701.50 676.30 L 701.20 677.20 L 702.50 680.70 L 703.10 683.90 L 703.20 687.20 L 702.80 690.50 L 701.90 693.60 L 700.50 696.60 L 699.50 697.80 L 698.20 698.40 L 690.90 699.80 L 683.60 700.60 L 675.80 701.00 L 674.90 701.90 L 675.00 703.30 L 676.60 704.40 L 613.30 703.70 L 610.60 702.30 L 614.00 702.10 L 614.80 701.60 L 612.50 697.90 L 611.30 695.20 L 610.70 692.70 L 610.70 690.50 L 611.10 688.40 L 612.10 686.40 L 613.70 684.40 L 616.00 682.40 L 619.10 680.50 L 623.30 678.60 L 628.30 678.00 L 633.30 677.80 L 638.20 678.10 L 643.10 678.70 L 652.80 681.10 L 654.90 682.30 L 659.00 683.70 L 666.60 685.20 L 672.40 685.00 L 677.90 683.40 L 685.30 680.20 L 692.40 676.50 L 700.30 671.60 L 709.40 656.20 L 725.70 638.10 L 727.70 635.50 L 729.90 633.40 L 732.40 631.60 L 735.30 630.20 L 738.50 629.20 L 742.10 628.50 L 746.30 628.30 L 747.70 628.80 L 751.20 631.50 L 752.10 631.80 L 753.30 631.50 Z" fill="#dfa5ac" fill-rule="nonzero" node-id="241" stroke="none" target-height="76.10004" target-width="145.20001" target-x="610.6" target-y="628.3"/><path d="M 817.70 628.60 L 824.60 632.90 L 837.80 642.30 L 850.00 652.90 L 855.80 658.50 L 861.50 664.80 L 866.90 671.40 L 871.90 678.30 L 876.50 685.40 L 880.70 692.80 L 884.60 700.40 L 885.00 701.70 L 884.90 702.40 L 884.30 702.90 L 862.80 704.20 L 843.70 704.80 L 807.50 705.00 L 790.40 704.50 L 773.30 703.60 L 756.20 702.20 L 755.30 699.00 L 755.50 696.70 L 756.20 694.60 L 757.30 692.70 L 764.50 683.70 L 774.70 671.60 L 777.10 667.90 L 779.00 664.00 L 782.10 655.80 L 784.50 646.00 L 785.40 645.00 L 786.80 644.10 L 792.50 642.90 L 800.60 636.30 L 804.20 633.80 L 808.10 631.70 L 814.00 629.50 L 817.70 628.60 Z" fill="#958a9c" fill-rule="nonzero" node-id="243" stroke="none" target-height="76.400024" target-width="129.70001" target-x="755.3" target-y="628.6"/><path d="M 211.40 643.80 L 213.10 648.90 L 215.30 653.70 L 218.00 658.30 L 218.40 659.70 L 218.20 661.00 L 205.30 664.40 L 202.30 666.40 L 201.00 666.80 L 199.70 666.70 L 198.40 666.00 L 195.70 662.90 L 194.90 661.00 L 194.30 656.60 L 194.40 653.80 L 200.60 648.00 L 207.30 642.70 L 209.00 642.30 L 211.40 643.80 Z" fill="#baa4ab" fill-rule="nonzero" node-id="245" stroke="none" target-height="24.5" target-width="24.09999" target-x="194.3" target-y="642.3"/><path d="M 559.70 702.30 L 541.30 704.90 L 536.60 705.10 L 516.40 704.80 L 513.30 704.70 L 510.80 704.20 L 508.70 703.40 L 507.10 702.20 L 504.80 699.90 L 503.90 699.60 L 498.50 699.60 L 493.20 700.70 L 504.20 695.70 L 521.30 689.60 L 526.70 687.20 L 531.90 684.40 L 536.80 681.10 L 541.50 677.40 L 545.80 673.40 L 549.80 669.00 L 553.40 664.30 L 565.00 645.10 L 566.00 644.00 L 567.20 643.40 L 568.60 643.40 L 570.40 644.20 L 572.10 646.30 L 572.50 647.50 L 573.10 653.30 L 574.80 663.00 L 575.10 666.80 L 575.00 670.70 L 574.20 678.30 L 572.90 685.90 L 571.30 693.30 L 569.30 700.60 L 568.80 701.40 L 567.90 701.70 L 559.70 702.30 Z" fill="#42819e" fill-rule="nonzero" node-id="247" stroke="none" target-height="61.69995" target-width="81.89996" target-x="493.2" target-y="643.4"/><path d="M 557.40 656.00 L 556.50 658.90 L 553.20 664.00 L 549.60 668.70 L 545.60 673.10 L 541.30 677.10 L 536.70 680.80 L 531.80 684.10 L 526.60 687.10 L 521.20 689.50 L 507.90 694.20 L 500.40 697.20 L 493.10 700.70 L 484.10 701.60 L 474.90 702.30 L 439.40 703.70 L 418.80 702.70 L 413.70 702.80 L 398.60 704.90 L 375.50 705.10 L 379.90 702.50 L 381.90 700.80 L 384.20 698.20 L 384.40 685.70 L 381.50 669.80 L 391.60 672.20 L 401.90 674.10 L 412.20 675.50 L 422.50 676.40 L 436.80 677.00 L 452.90 677.30 L 471.00 677.10 L 482.00 676.00 L 505.70 675.10 L 516.50 673.00 L 518.80 671.10 L 530.40 667.70 L 539.60 664.40 L 548.60 660.50 L 557.40 656.00 Z" fill="#d5bcce" fill-rule="nonzero" node-id="249" stroke="none" target-height="49.099976" target-width="181.90002" target-x="375.5" target-y="656"/><path d="M 292.80 664.60 L 297.10 661.90 L 298.50 661.60 L 299.70 662.40 L 300.50 663.90 L 301.40 664.60 L 305.50 666.80 L 309.90 668.60 L 314.40 669.90 L 324.30 671.80 L 336.70 675.40 L 342.80 677.60 L 355.20 680.50 L 359.30 682.20 L 367.30 683.60 L 373.10 684.30 L 384.60 685.00 L 384.40 697.30 L 383.90 698.30 L 381.40 700.80 L 378.70 702.80 L 375.70 704.40 L 373.30 704.60 L 370.80 704.60 L 365.90 703.90 L 361.30 700.70 L 356.30 698.10 L 351.10 695.90 L 345.70 694.40 L 343.00 694.10 L 340.70 694.20 L 338.60 694.70 L 336.80 695.60 L 335.10 696.80 L 333.60 698.40 L 332.30 700.50 L 331.20 703.20 L 319.30 704.60 L 313.80 704.10 L 309.50 702.40 L 305.30 699.30 L 302.10 696.10 L 300.00 695.50 L 288.90 695.00 L 266.90 694.80 L 265.80 695.00 L 264.90 695.50 L 264.20 697.80 L 263.30 697.60 L 261.40 690.50 L 259.10 684.40 L 256.40 678.40 L 253.10 672.70 L 249.40 667.30 L 244.70 661.20 L 245.60 661.60 L 250.10 665.40 L 252.30 667.90 L 254.80 671.60 L 257.80 677.10 L 260.70 683.30 L 264.10 691.80 L 265.30 692.40 L 286.80 693.10 L 292.60 692.90 L 298.70 692.00 L 298.90 691.40 L 298.60 690.80 L 288.80 674.90 L 287.00 670.50 L 286.50 665.60 L 286.90 664.50 L 287.30 664.10 L 289.20 664.00 L 291.20 664.30 L 292.20 664.20 L 292.50 664.80 L 292.80 664.60 Z" fill="#4c6daa" fill-rule="nonzero" node-id="251" stroke="none" target-height="43.399963" target-width="139.90001" target-x="244.7" target-y="661.2"/><path d="M 754.90 664.80 L 754.90 672.10 L 754.50 675.20 L 753.40 679.70 L 751.80 683.70 L 749.70 687.60 L 747.20 691.40 L 741.10 699.30 L 740.30 700.90 L 739.30 701.60 L 737.90 702.20 L 732.90 702.90 L 729.90 702.80 L 729.00 702.30 L 728.40 701.50 L 728.30 700.70 L 728.60 699.90 L 733.50 697.10 L 737.50 694.20 L 740.90 691.00 L 743.90 687.30 L 746.50 683.40 L 748.70 679.10 L 750.60 674.70 L 753.80 664.50 L 754.20 664.30 L 754.90 664.80 Z" fill="#b14f59" fill-rule="nonzero" node-id="253" stroke="none" target-height="38.600037" target-width="26.600037" target-x="728.3" target-y="664.3"/><path d="M 202.50 673.50 L 189.30 681.00 L 187.40 682.60 L 185.80 684.60 L 184.70 686.80 L 184.00 689.20 L 183.60 692.20 L 182.50 692.50 L 182.00 692.00 L 181.50 689.20 L 181.50 686.50 L 182.00 683.70 L 183.00 681.10 L 184.40 678.70 L 186.30 676.60 L 189.30 674.00 L 192.50 671.80 L 196.00 669.90 L 199.70 668.40 L 203.50 667.30 L 210.20 666.40 L 211.10 666.60 L 211.30 667.00 L 210.80 667.80 L 202.50 673.50 Z" fill="#f0d1cd" fill-rule="nonzero" node-id="255" stroke="none" target-height="26.099976" target-width="29.800003" target-x="181.5" target-y="666.4"/><path d="M 163.80 669.20 L 166.80 670.80 L 169.60 672.90 L 172.20 675.50 L 174.50 678.80 L 177.40 684.70 L 178.00 688.70 L 177.80 690.70 L 177.40 691.40 L 176.40 691.50 L 172.40 687.40 L 168.60 684.00 L 164.40 681.10 L 161.10 679.90 L 154.20 679.70 L 153.20 679.90 L 150.00 681.90 L 148.10 684.00 L 142.90 693.10 L 143.50 688.40 L 145.40 681.30 L 146.50 679.20 L 148.00 677.40 L 149.70 675.90 L 152.90 673.80 L 156.40 672.00 L 163.80 669.20 Z" fill="#f0d1cd" fill-rule="nonzero" node-id="257" stroke="none" target-height="23.899963" target-width="35.100006" target-x="142.9" target-y="669.2"/><path d="M 694.80 703.60 L 676.90 704.10 L 675.60 703.20 L 675.30 701.60 L 676.70 700.70 L 687.70 700.10 L 698.50 698.20 L 699.80 697.60 L 700.80 696.40 L 702.20 693.30 L 703.10 690.20 L 703.50 687.00 L 703.40 683.70 L 702.80 680.50 L 701.50 677.00 L 701.60 676.10 L 704.10 681.20 L 705.40 685.20 L 706.00 688.60 L 706.10 691.50 L 705.60 694.00 L 704.70 696.50 L 703.20 698.60 L 701.10 700.50 L 698.40 702.20 L 694.80 703.60 Z" fill="#b56967" fill-rule="nonzero" node-id="259" stroke="none" target-height="28" target-width="30.799988" target-x="675.3" target-y="676.1"/><path d="M 610.90 702.00 L 613.60 703.40 L 603.50 704.20 L 593.50 704.50 L 583.50 704.30 L 573.50 703.60 L 579.30 697.90 L 582.50 695.40 L 588.00 692.20 L 590.00 691.50 L 592.20 691.20 L 595.40 691.60 L 596.40 692.10 L 610.90 702.00 Z" fill="#feebe5" fill-rule="nonzero" node-id="261" stroke="none" target-height="13.299988" target-width="40.099976" target-x="573.5" target-y="691.2"/><path d="M 365.80 704.30 L 359.50 704.50 L 353.30 705.20 L 344.50 706.70 L 341.80 706.60 L 339.00 706.10 L 331.10 703.60 L 332.20 700.90 L 333.50 698.80 L 335.00 697.20 L 336.70 695.90 L 338.50 695.10 L 340.60 694.60 L 342.90 694.50 L 345.60 694.80 L 352.90 697.00 L 356.30 698.50 L 361.20 701.10 L 365.80 704.30 Z" fill="#879e86" fill-rule="nonzero" node-id="263" stroke="none" target-height="12.200012" target-width="34.69998" target-x="331.1" target-y="694.5"/><path d="M 755.60 699.30 L 756.50 702.50 L 738.10 702.50 L 740.40 701.10 L 741.30 699.60 L 741.50 700.30 L 742.20 700.80 L 755.60 699.30 Z" fill="#d5bcce" fill-rule="nonzero" node-id="265" stroke="none" target-height="3.2000122" target-width="18.400024" target-x="738.1" target-y="699.3"/></svg>
