<svg t="1741150908905" class="icon" viewBox="0 0 1024 1024" version="1.1" xmlns="http://www.w3.org/2000/svg" p-id="23961" width="200" height="200"><path d="M922.88 164.522667a42.666667 42.666667 0 0 0-35.84-8.533334 116.906667 116.906667 0 0 1-93.866667-19.626666 42.666667 42.666667 0 0 0-50.346666 0 116.906667 116.906667 0 0 1-93.866667 19.626666 42.666667 42.666667 0 0 0-51.626667 41.813334v141.226666a197.12 197.12 0 0 0 78.506667 157.866667l66.986667 49.493333a42.666667 42.666667 0 0 0 50.346666 0l66.986667-49.493333a197.12 197.12 0 0 0 78.506667-157.866667v-141.226666a42.666667 42.666667 0 0 0-15.786667-33.28zM853.333333 339.029333a111.36 111.36 0 0 1-42.666666 89.173334l-42.666667 29.866666-42.666667-30.72a111.36 111.36 0 0 1-42.666666-89.173333v-93.44a199.253333 199.253333 0 0 0 85.333333-23.04 199.253333 199.253333 0 0 0 85.333333 23.04z m42.666667 256a42.666667 42.666667 0 0 0-42.666667 42.666667v128a42.666667 42.666667 0 0 1-42.666666 42.666667H213.333333a42.666667 42.666667 0 0 1-42.666666-42.666667v-407.04l250.88 250.88a127.744 127.744 0 0 0 181.76-0.853333l-29.866667-30.293334-31.573333-29.013333a42.666667 42.666667 0 0 1-59.733334 0l-251.306666-250.88H469.333333a42.666667 42.666667 0 0 0 0-85.333333H213.333333a128 128 0 0 0-128 128v426.666666a128 128 0 0 0 128 128h597.333334a128 128 0 0 0 128-128v-128a42.666667 42.666667 0 0 0-42.666667-42.666666z" fill="#0070FF" p-id="23962"></path></svg>
