<svg t="1740155585955" class="icon" viewBox="0 0 1201 1024" version="1.1" xmlns="http://www.w3.org/2000/svg" p-id="9128" width="200" height="200"><path d="M875.2 734.4c-1.6 0-4.8 0-6.4-1.6l-12.8-4.8 3.2-6.4 12.8 4.8h4.8l-1.6 8z m16-9.6l-6.4-3.2 4.8-11.2 6.4 3.2-4.8 11.2z m-48-4.8l-12.8-4.8 3.2-6.4 12.8 4.8-3.2 6.4z m-25.6-11.2l-11.2-4.8 3.2-6.4 12.8 4.8-4.8 6.4z m84.8-9.6l-6.4-1.6 4.8-12.8 6.4 3.2-4.8 11.2z m-108.8-1.6l-12.8-4.8 3.2-6.4 12.8 4.8-3.2 6.4z m-25.6-11.2l-12.8-4.8 3.2-6.4 12.8 4.8-3.2 6.4z m145.6-11.2l-6.4-3.2 4.8-12.8 6.4 3.2-4.8 12.8z m-171.2 0l-12.8-4.8 3.2-6.4 12.8 4.8-3.2 6.4z m-24-12.8l-12.8-4.8 3.2-6.4 12.8 4.8-3.2 6.4z m-25.6-11.2l-12.8-4.8 3.2-6.4 12.8 4.8-3.2 6.4z m232-1.6l-6.4-3.2 4.8-12.8 6.4 3.2-4.8 12.8zM667.2 640l-11.2-4.8 3.2-6.4 12.8 4.8-4.8 6.4z m-24-11.2l-12.8-4.8 3.2-6.4 12.8 4.8-3.2 6.4z m292.8-3.2l-6.4-3.2 4.8-12.8 6.4 3.2-4.8 12.8z m-318.4-9.6l-12.8-4.8 3.2-6.4 12.8 4.8-3.2 6.4z m-25.6-11.2l-3.2-1.6c-4.8-1.6-6.4-4.8-9.6-9.6l6.4-3.2c0 1.6 3.2 4.8 4.8 4.8l3.2 1.6c1.6 1.6-1.6 8-1.6 8z m356.8-4.8l-6.4-3.2 4.8-12.8 6.4 3.2-4.8 12.8z m-360-19.2l-6.4-3.2 4.8-12.8 6.4 3.2-4.8 12.8zM960 576l-6.4-3.2 6.4-12.8 6.4 3.2-6.4 12.8z m-360-19.2l-6.4-3.2 4.8-12.8 6.4 3.2-4.8 12.8z m371.2-6.4l-6.4-3.2 4.8-12.8 6.4 3.2-4.8 12.8z m-360-19.2l-4.8-3.2 4.8-12.8 6.4 3.2-6.4 12.8z m371.2-6.4l-6.4-3.2 4.8-12.8 6.4 3.2-4.8 12.8z m-360-19.2l-6.4-3.2 4.8-12.8 6.4 3.2-4.8 12.8z m372.8-4.8l-6.4-3.2 4.8-12.8 6.4 3.2-4.8 12.8z m-360-19.2l-6.4-3.2 4.8-12.8 6.4 3.2-4.8 12.8z m371.2-6.4l-6.4-3.2 4.8-12.8 6.4 3.2-4.8 12.8z m-360-19.2l-6.4-3.2 4.8-12.8 6.4 3.2-4.8 12.8z m371.2-6.4l-6.4-3.2 4.8-12.8 6.4 3.2-4.8 12.8z m-360-19.2l-6.4-3.2 4.8-12.8 6.4 3.2-4.8 12.8z m371.2-4.8l-6.4-3.2 4.8-12.8 6.4 3.2-4.8 12.8z m-360-19.2l-6.4-3.2 4.8-12.8 6.4 3.2-4.8 12.8z m372.8-6.4l-6.4-3.2 4.8-12.8 6.4 1.6v1.6c0 1.6-4.8 12.8-4.8 12.8z m-360-19.2l-6.4-3.2 4.8-12.8 6.4 3.2-4.8 12.8z m358.4-6.4c0-1.6-3.2-3.2-4.8-3.2l-6.4-3.2 3.2-6.4 6.4 3.2c3.2 1.6 4.8 3.2 6.4 4.8 0 1.6-4.8 4.8-4.8 4.8z m-24-11.2l-12.8-4.8 3.2-6.4 12.8 4.8-3.2 6.4z m-323.2-8l-6.4-3.2 4.8-12.8 6.4 3.2-4.8 12.8z m297.6-4.8l-12.8-4.8 3.2-6.4 12.8 4.8-3.2 6.4z m-24-11.2l-12.8-4.8 3.2-6.4 12.8 4.8-3.2 6.4zM704 331.2l-6.4-3.2 4.8-12.8 6.4 3.2-4.8 12.8z m236.8-3.2l-12.8-4.8 3.2-6.4 12.8 4.8-3.2 6.4z m-24-11.2l-12.8-4.8 3.2-6.4 12.8 4.8-3.2 6.4z m-200-11.2l-6.4-1.6 4.8-12.8 6.4 3.2-4.8 11.2z m174.4 0l-12.8-4.8 3.2-6.4 12.8 4.8-3.2 6.4z m-25.6-12.8l-11.2-4.8 3.2-6.4 12.8 4.8-4.8 6.4z m-24-11.2l-12.8-4.8 3.2-6.4 12.8 4.8-3.2 6.4z m-115.2 0l-6.4-3.2 4.8-12.8 6.4 3.2-4.8 12.8z m89.6-11.2l-12.8-4.8 3.2-6.4 12.8 4.8-3.2 6.4z m-24-11.2l-12.8-4.8 3.2-6.4 12.8 4.8-3.2 6.4z m-52.8-3.2l-6.4-3.2 4.8-8c0-1.6 1.6-3.2 3.2-4.8l4.8 4.8s-1.6 1.6-1.6 3.2l-4.8 8z m27.2-9.6l-9.6-4.8h-1.6l1.6-6.4c1.6 0 3.2 0 4.8 1.6l9.6 4.8c-1.6 0-4.8 4.8-4.8 4.8z" fill="#3D8BFF" p-id="9129"></path><path d="M657.6 489.6l107.2-62.4c12.8-8 30.4 1.6 30.4 16l1.6 67.2c0 4.8 3.2 8 8 8l35.2-9.6c9.6 0 17.6 6.4 19.2 16l8 62.4c0 4.8-3.2 6.4-6.4 4.8l-200-96c-4.8 0-4.8-4.8-3.2-6.4z" fill="#77AFF2" p-id="9130"></path><path d="M880 480c11.2 8 25.6 4.8 32-4.8 8-11.2 4.8-25.6-4.8-32-11.2-8-25.6-4.8-32 4.8-8 9.6-6.4 25.6 4.8 32z" fill="#70A5E5" p-id="9131"></path><path d="M782.4 713.6l-420.8 75.2c-8 1.6-14.4-3.2-16-11.2L254.4 272c-1.6-8 3.2-14.4 11.2-16l420.8-75.2c8-1.6 14.4 3.2 16 11.2l91.2 505.6c1.6 6.4-3.2 14.4-11.2 16z" fill="#FFFFFF" p-id="9132"></path><path d="M360 792c-3.2 0-6.4-1.6-9.6-3.2-3.2-3.2-6.4-6.4-6.4-11.2L251.2 272c0-4.8 0-9.6 3.2-12.8 3.2-3.2 6.4-6.4 11.2-6.4L686.4 176c9.6-1.6 19.2 4.8 19.2 14.4l91.2 505.6c1.6 9.6-4.8 19.2-14.4 19.2l-420.8 75.2c0 1.6-1.6 1.6-1.6 1.6z m329.6-608l-422.4 75.2c-3.2 0-4.8 1.6-6.4 4.8-1.6 1.6-1.6 4.8-1.6 8l91.2 505.6c0 3.2 1.6 4.8 4.8 6.4 1.6 1.6 4.8 1.6 8 1.6L784 710.4c4.8 0 9.6-6.4 8-11.2L699.2 192c-1.6-4.8-4.8-8-9.6-8z" fill="#3D8BFF" p-id="9133"></path><path d="M393.6 620.8c-3.2 0-4.8-1.6-6.4-3.2-1.6-3.2-1.6-4.8-1.6-8l64-147.2c4.8-9.6 12.8-16 22.4-17.6s19.2 3.2 25.6 11.2l52.8 68.8c1.6 3.2 6.4 3.2 9.6 1.6l28.8-35.2c11.2-8 27.2-6.4 36.8 3.2l54.4 59.2c3.2 3.2 3.2 6.4 1.6 9.6-1.6 3.2-4.8 6.4-8 6.4l-280 51.2c1.6 0 1.6 0 0 0z m-1.6-9.6c0 1.6 0 1.6 1.6 1.6l281.6-51.2c1.6 0 1.6-1.6 1.6-1.6v-3.2l-54.4-59.2c-8-8-19.2-8-27.2-1.6l-28.8 35.2c-6.4 4.8-14.4 3.2-19.2-3.2l-52.8-68.8c-4.8-6.4-12.8-9.6-19.2-8-8 0-14.4 4.8-17.6 12.8 0 1.6-65.6 147.2-65.6 147.2zM616 435.2c-19.2 0-33.6-14.4-33.6-33.6s14.4-33.6 33.6-33.6 33.6 14.4 33.6 33.6-16 33.6-33.6 33.6z m0-60.8c-14.4 0-27.2 11.2-27.2 27.2 0 14.4 11.2 27.2 27.2 27.2 14.4 0 27.2-11.2 27.2-27.2-1.6-16-12.8-27.2-27.2-27.2z" fill="#3D8BFF" p-id="9134"></path><path d="M1025.6 196.8h-54.4c-3.2 0-8-3.2-8-8v-1.6c0-3.2 3.2-8 8-8h54.4c3.2 0 8 3.2 8 8v1.6c0 4.8-4.8 8-8 8zM302.4 844.8v-33.6c0-3.2 1.6-4.8 4.8-4.8h1.6c3.2 0 4.8 1.6 4.8 4.8v33.6c0 3.2-1.6 4.8-4.8 4.8h-1.6c-3.2 0-4.8-3.2-4.8-4.8z" fill="#3D8BFF" p-id="9135"></path><path d="M990.4 220.8V158.4c0-4.8 3.2-9.6 8-9.6h1.6c4.8 0 8 3.2 8 9.6v59.2c0 4.8-3.2 9.6-8 9.6h-1.6c-6.4 1.6-8-3.2-8-6.4zM945.6 806.4c0-1.6 0-1.6 0 0l-3.2-1.6H937.6L907.2 848c-3.2 3.2-1.6 9.6 3.2 11.2 1.6 1.6 3.2 1.6 4.8 1.6 3.2 0 6.4-1.6 8-4.8l17.6-30.4 17.6 30.4c1.6 3.2 4.8 4.8 8 4.8 1.6 0 3.2 0 4.8-1.6 3.2-3.2 4.8-8 3.2-11.2l-28.8-41.6zM248 220.8c1.6 1.6 3.2 1.6 4.8 1.6 3.2 0 6.4-1.6 9.6-4.8l24-35.2 24 35.2c1.6 3.2 4.8 4.8 9.6 4.8 1.6 0 3.2 0 4.8-1.6 4.8-3.2 6.4-8 3.2-12.8l-32-48H288l-44.8 48c-1.6 4.8 0 11.2 4.8 12.8zM136 489.6c-22.4 0-41.6 19.2-41.6 41.6 0 22.4 19.2 41.6 41.6 41.6s41.6-19.2 41.6-41.6c0-22.4-17.6-41.6-41.6-41.6z m0 64c-11.2 0-20.8-9.6-20.8-20.8S124.8 512 136 512s20.8 9.6 20.8 20.8c1.6 11.2-8 20.8-20.8 20.8zM1075.2 558.4c-11.2 0-20.8 9.6-20.8 20.8s9.6 20.8 20.8 20.8c11.2 0 20.8-9.6 20.8-20.8 0-12.8-9.6-20.8-20.8-20.8z m0 30.4c-6.4 0-11.2-4.8-11.2-11.2s4.8-11.2 11.2-11.2 11.2 4.8 11.2 11.2c-1.6 6.4-6.4 11.2-11.2 11.2zM324.8 832h-33.6c-3.2 0-4.8-1.6-4.8-4.8v-1.6c0-3.2 1.6-4.8 4.8-4.8h33.6c3.2 0 4.8 1.6 4.8 4.8v1.6c1.6 3.2-1.6 4.8-4.8 4.8z" fill="#3D8BFF" p-id="9136"></path></svg>
