<svg t="1733760985657" class="icon" viewBox="0 0 1356 1024" version="1.1" xmlns="http://www.w3.org/2000/svg" p-id="39990" width="200" height="200"><path d="M329.2288 806.4c0 28.16 23.04 51.0336 51.2 50.8416l537.984-3.8272c28.16-0.2048 63.0784-3.0976 77.5936-6.4512 14.5152-3.3408 26.5088-29.12 26.624-57.28l2.2144-493.1456c0.128-28.16-22.8096-51.2-50.9696-51.2H380.4288c-28.16 0-51.2 23.04-51.2 51.2V806.4z" fill="#EEEEEE" p-id="39991"></path><path d="M971.9552 870.2848H343.2704a74.3424 74.3424 0 0 1-74.24-74.2528V261.312c0-40.9344 33.3056-74.24 74.24-74.24h628.672a74.3424 74.3424 0 0 1 74.2528 74.24V796.032a74.3296 74.3296 0 0 1-74.24 74.2528zM343.2704 212.672a48.704 48.704 0 0 0-48.64 48.64V796.032a48.704 48.704 0 0 0 48.64 48.6528h628.672a48.704 48.704 0 0 0 48.6528-48.6528V261.312c0-26.816-21.824-48.64-48.6528-48.64H343.2704z" fill="#CCCCCC" p-id="39992"></path><path d="M883.0848 444.3264c-36.3776 0-65.9712-29.5936-65.9712-65.9712s29.5936-65.9712 65.9712-65.9712 65.9584 29.5936 65.9584 65.9712-29.5808 65.9712-65.9584 65.9712z m0-112.7296c-25.792 0-46.7712 20.9792-46.7712 46.7712s20.992 46.7712 46.7712 46.7712 46.7584-20.9792 46.7584-46.7712-20.9664-46.7712-46.7584-46.7712zM391.8464 856.0128a9.6 9.6 0 0 1-8.1664-14.6304L621.8112 455.04a28.4544 28.4544 0 0 1 46.0288-3.2256l199.9232 241.2288a9.6 9.6 0 1 1-14.784 12.2496L653.056 464.064a9.1648 9.1648 0 0 0-14.8864 1.0496L400.0256 851.456a9.6 9.6 0 0 1-8.1792 4.5568z m590.5536 0a9.6 9.6 0 0 1-7.3856-3.4688l-71.0016-85.6576a9.5744 9.5744 0 0 1 1.2672-13.5168 9.5872 9.5872 0 0 1 13.5168 1.2672l71.0016 85.6576a9.5744 9.5744 0 0 1-7.3984 15.7184z m-90.6368-109.3632a9.5744 9.5744 0 0 1-7.3856-3.4688l-14.6688-17.7152a9.5744 9.5744 0 0 1 1.2672-13.5168 9.5872 9.5872 0 0 1 13.5168 1.2672l14.6688 17.7152a9.5744 9.5744 0 0 1-7.3984 15.7184z" fill="#CCCCCC" p-id="39993"></path><path d="M293.4656 587.5328a9.6 9.6 0 0 1-8.6272-13.7856c3.3408-6.8992 17.792-30.2464 104.2816-152.7936a35.264 35.264 0 0 1 55.5264-2.56l118.848 139.1232a9.6 9.6 0 0 1-14.6048 12.48l-118.848-139.1232a16.0256 16.0256 0 0 0-25.2288 1.1648c-79.0144 111.9232-99.456 143.3856-102.6944 150.0928a9.6 9.6 0 0 1-8.6528 5.4016zM1343.4112 998.6048h-93.7984a9.6 9.6 0 0 1 0-19.2h93.7984a9.6 9.6 0 0 1 0 19.2z m-121.6768 0H688.6528a9.6384 9.6384 0 0 1-6.144-2.2272l-31.3344-26.0864a28.7488 28.7488 0 0 0-37.2352 0.3328l-29.7344 25.6512a9.6256 9.6256 0 0 1-6.272 2.3296h-171.136a9.6 9.6 0 0 1 0-19.2h167.5648l27.0336-23.3216a47.872 47.872 0 0 1 62.0544-0.5504l28.672 23.872h529.6128a9.6 9.6 0 0 1 0 19.2z m-864 0h-210.048a9.6 9.6 0 0 1 0-19.2h210.048a9.6 9.6 0 0 1 0 19.2z m-241.5104 0H28.1856a9.6 9.6 0 0 1 0-19.2H116.224a9.6 9.6 0 0 1 0 19.2z" fill="#CCCCCC" p-id="39994"></path><path d="M610.5216 168.96a6.4 6.4 0 0 1-5.76-3.5968l-13.9008-28.5184a6.4 6.4 0 1 1 11.4944-5.6064l13.9008 28.5184a6.4 6.4 0 0 1-5.7344 9.2032z m-51.8912 0a6.4 6.4 0 0 1-5.7472-9.2032l13.9008-28.5184a6.3872 6.3872 0 1 1 11.4944 5.6064l-13.9008 28.5184a6.3744 6.3744 0 0 1-5.7472 3.5968z m84.0576-41.5232a6.272 6.272 0 0 1-1.4464-0.1664l-30.912-7.1296a6.4 6.4 0 0 1 2.88-12.48l30.912 7.1296a6.4 6.4 0 0 1-1.4336 12.6464z m-116.2368 0a6.4 6.4 0 0 1-1.4336-12.6464l30.912-7.1296a6.4 6.4 0 1 1 2.88 12.48l-30.912 7.1296a6.272 6.272 0 0 1-1.4464 0.1664z m80.0128-32.0384a6.4 6.4 0 0 1-4.032-11.3792l24.6528-19.968a6.4 6.4 0 0 1 8.0512 9.9456l-24.6528 19.968a6.3616 6.3616 0 0 1-4.0192 1.4336z m-43.7888 0a6.4256 6.4256 0 0 1-4.0192-1.4208l-24.6528-19.968a6.4 6.4 0 1 1 8.0512-9.9456l24.6528 19.968a6.4 6.4 0 0 1-4.032 11.3664z m21.9008-11.2384a6.4 6.4 0 0 1-6.4-6.4V46.0288a6.4 6.4 0 0 1 12.8 0v31.7312a6.4 6.4 0 0 1-6.4 6.4z" fill="#B9B9B8" p-id="39995"></path><path d="M842.9312 56.7808c-13.888 0-25.1904-11.3024-25.1904-25.1904S829.0432 6.4 842.9312 6.4s25.1904 11.3024 25.1904 25.1904-11.3152 25.1904-25.1904 25.1904z m0-37.5808c-6.8224 0-12.3904 5.5552-12.3904 12.3904s5.568 12.3904 12.3904 12.3904 12.3904-5.5552 12.3904-12.3904-5.568-12.3904-12.3904-12.3904z" fill="#DADADA" p-id="39996"></path><path d="M119.5392 836.5312a25.216 25.216 0 0 1-25.1904-25.1904c0-13.9008 11.3024-25.2032 25.1904-25.2032s25.1904 11.3024 25.1904 25.2032a25.216 25.216 0 0 1-25.1904 25.1904z m0-37.5936a12.416 12.416 0 0 0 0 24.7936 12.416 12.416 0 0 0 0-24.7936z" fill="#EDEDED" p-id="39997"></path><path d="M44.3904 376.192A25.216 25.216 0 0 1 19.2 351.0016c0-13.888 11.3024-25.1904 25.1904-25.1904s25.1904 11.3024 25.1904 25.1904a25.216 25.216 0 0 1-25.1904 25.1904z m0-37.5808a12.4032 12.4032 0 1 0 0.0256 24.8064 12.4032 12.4032 0 0 0-0.0256-24.8064z" fill="#F6F6F6" p-id="39998"></path><path d="M1168.0768 368.4352c-17.0496 0-30.9248-13.4016-30.9248-29.8752 0-16.4864 13.8752-29.888 30.9248-29.888 10.112 0 19.6096 4.7872 25.3824 12.8128a6.4 6.4 0 1 1-10.368 7.488 18.4704 18.4704 0 0 0-15.0144-7.5008c-9.9968 0-18.1248 7.6672-18.1248 17.088s8.128 17.0752 18.1248 17.0752c7.2064 0 13.7344-4.0192 16.6272-10.2528a6.4 6.4 0 0 1 11.6224 5.376c-4.9792 10.7392-16.064 17.6768-28.2496 17.6768z" fill="#B9B9B8" p-id="39999"></path><path d="M158.9504 308.7744a6.4 6.4 0 0 1-6.4-6.4v-78.0416a6.4 6.4 0 0 1 12.8 0v78.0416a6.4 6.4 0 0 1-6.4 6.4z" fill="#DADADA" p-id="40000"></path><path d="M197.9776 266.944H119.936a6.4 6.4 0 0 1 0-12.8h78.0416a6.4 6.4 0 0 1 0 12.8z" fill="#DADADA" p-id="40001"></path><path d="M1239.3216 596.8a6.4 6.4 0 0 1-6.4-6.4v-78.0544a6.4 6.4 0 0 1 12.8 0v78.0544a6.4 6.4 0 0 1-6.4 6.4z" fill="#B4B4B4" p-id="40002"></path><path d="M1278.3488 558.1696h-78.0544a6.4 6.4 0 0 1 0-12.8h78.0544a6.4 6.4 0 0 1 0 12.8z" fill="#B4B4B4" p-id="40003"></path><path d="M85.2992 628.8768a6.4 6.4 0 0 1-4.608-10.8544l54.2208-56.1536a6.4 6.4 0 0 1 9.216 8.896l-54.2208 56.1536a6.3744 6.3744 0 0 1-4.608 1.9584z" fill="#B9B9B8" p-id="40004"></path><path d="M140.2112 628.1856a6.3616 6.3616 0 0 1-4.4416-1.8048L79.616 572.1728a6.4 6.4 0 0 1 8.8832-9.2032l56.1408 54.208a6.4 6.4 0 0 1-4.4288 11.008z" fill="#B9B9B8" p-id="40005"></path><path d="M1118.1696 177.5872a6.4 6.4 0 0 1-4.5312-10.9184l55.1936-55.1936a6.4 6.4 0 0 1 9.0496 9.0496l-55.1936 55.1936a6.3744 6.3744 0 0 1-4.5184 1.8688z" fill="#EDEDED" p-id="40006"></path><path d="M1173.0688 177.8688a6.4256 6.4256 0 0 1-4.5312-1.8688L1113.344 120.8064a6.4 6.4 0 0 1 9.0496-9.0496L1177.6 166.9376a6.4 6.4 0 0 1-4.5312 10.9312z" fill="#EDEDED" p-id="40007"></path></svg>
