<svg t="1740818066970" class="icon" viewBox="0 0 1025 1024" version="1.1" xmlns="http://www.w3.org/2000/svg" p-id="26154" width="200" height="200"><path d="M512.00123469 860.48385406a348.48407156 348.48407156 0 1 1 348.48407156-348.48407156 348.48407156 348.48407156 0 0 1-348.48407156 348.48407156zM80.31659094 294.19723719A23.95828031 23.95828031 0 0 1 32.83563594 294.19723719V215.78832125a204.7343925 204.7343925 0 0 1 19.16662406-106.72324688A136.34439281 136.34439281 0 0 1 109.06652656 52.00080781 204.7343925 204.7343925 0 0 1 215.78977437 32.83418375H294.19869031a23.95828031 23.95828031 0 0 1 0 47.480955H215.78977437a162.04509375 162.04509375 0 0 0-84.07178249 13.93936219 87.12101812 87.12101812 0 0 0-37.02643313 37.02643312 162.04509375 162.04509375 0 0 0-14.37496781 84.50738719z m863.3692875 0V215.78832125a162.04509375 162.04509375 0 0 0-13.93936313-84.0717825 87.12101812 87.12101812 0 0 0-37.02643219-37.02643219 162.04509375 162.04509375 0 0 0-84.0717825-13.93936312H729.80378A23.95828031 23.95828031 0 1 1 729.80378 32.83418375h78.40891594a204.7343925 204.7343925 0 0 1 106.72324687 19.16662406 136.34439281 136.34439281 0 0 1 56.62866188 56.62866188A204.7343925 204.7343925 0 0 1 991.16683344 215.78832125V294.19723719a23.95828031 23.95828031 0 0 1-47.480955 0zM80.31659094 729.80232688v78.40891593a162.04509375 162.04509375 0 0 0 13.93936312 84.0717825 87.12101812 87.12101812 0 0 0 37.02643219 37.02643219 162.04509375 162.04509375 0 0 0 84.0717825 13.93936312H294.19869031A23.95828031 23.95828031 0 0 1 294.19869031 991.16538031H215.78977437a204.7343925 204.7343925 0 0 1-106.72324781-19.16662406 136.34439281 136.34439281 0 0 1-56.62866093-56.62866094A204.7343925 204.7343925 0 0 1 32.83563594 808.21124281V729.80232688a23.95828031 23.95828031 0 1 1 47.480955-1e-8z m862.93368281-1e-8a23.95828031 23.95828031 0 0 1 47.91655969 0v78.40891594a204.7343925 204.7343925 0 0 1-19.16662407 106.72324688 136.34439281 136.34439281 0 0 1-56.62866187 56.62866187 204.7343925 204.7343925 0 0 1-107.15885156 19.60222875H729.80378a23.95828031 23.95828031 0 0 1 0-47.48095406h78.40891594a162.04509375 162.04509375 0 0 0 84.07178156-13.93936313 87.12101812 87.12101812 0 0 0 37.02643312-37.02643312 162.04509375 162.04509375 0 0 0 13.93936313-84.07178156zM367.38034531 405.27653562a33.54159188 33.54159188 0 0 0-33.54159187 33.54159188v66.64757812a33.54159188 33.54159188 0 1 0 66.64757812 0V438.8181275a33.54159188 33.54159188 0 0 0-33.10598625-33.54159188z m289.67738438 0a33.54159188 33.54159188 0 0 0-33.54159188 33.54159188v66.64757812a33.54159188 33.54159188 0 1 0 66.64757907 0V438.8181275a33.54159188 33.54159188 0 0 0-33.54159282-33.54159188z m-298.82509125 239.58279844a261.36305344 261.36305344 0 0 0 151.59057094 54.01503188 261.36305344 261.36305344 0 0 0 156.81783187-56.19305719 23.95828031 23.95828031 0 0 0-30.05675062-37.02643219 212.13967875 212.13967875 0 0 1-127.19668594 47.91655969 212.57528344 212.57528344 0 0 1-122.84063531-43.56050906 23.95828031 23.95828031 0 0 0-28.74993657 37.8976425z" fill="#40D19E" p-id="26155"></path></svg>
