<svg t="1733393188492" class="icon" viewBox="0 0 1089 1024" version="1.1" xmlns="http://www.w3.org/2000/svg" p-id="28883" width="200" height="200"><path d="M32.628594 863.170688C16.851704 625.805116 30.306304 391.05104 79.527611 158.550188c14.563947-54.20689 67.726238-104.222436 115.596472-109.587873 184.237813-19.506365 368.475627-23.965333 552.71344-13.376903 47.883184 2.917969 96.116007 52.786754 105.543292 109.337514a2391.284402 2391.284402 0 0 1-9.535198 112.225269" fill="#F2C84B" p-id="28884"></path><path d="M626.86698 252.343905c116.835315 1.044598 233.670629 4.584147 350.505944 10.610013 56.870184 3.306456 98.951962 49.454398 89.244103 103.005176-29.352353 157.389043-82.488745 322.711855-144.888395 493.123847-21.440167 58.19104-92.377898 110.904413-156.193366 114.146121-213.957071 10.756774-427.914142 5.244575-641.871213-16.540914-63.828418-6.923702-103.18647-57.064427-84.8283-110.68427 52.670208-155.040855 118.971993-317.49318 186.400391-483.398722 23.861736-57.737805 77.891649-106.812349 119.977743-107.956228 42.457315-1.083447 77.196688-1.58848 77.196688-1.592796" fill="#FFE287" p-id="28885"></path><path d="M540.53653 511.784174m-80.42113 0a80.421131 80.421131 0 1 0 160.842261 0 80.421131 80.421131 0 1 0-160.842261 0Z" opacity=".4" p-id="28886"></path><path d="M683.163067 873.206603c55.229905 0 114.957627-36.781088 132.737383-81.73767l88.903098-224.813125c17.771123-44.952265-2.874804-57.370901-45.888951-27.578262l-203.019003 140.580504c-43.005514 29.784005-99.931812 33.478949-126.495692 8.201393-26.559563-25.277556-81.767886-19.868953-122.684202 12.038781l-147.871112 115.298633c-40.916317 31.903418-29.196958 58.001113 26.037264 58.001113l398.281215 0.008633z" opacity=".4" p-id="28887"></path></svg>
