<svg t="1733731565547" class="icon" viewBox="0 0 1024 1024" version="1.1" xmlns="http://www.w3.org/2000/svg" p-id="14899" width="200" height="200"><path d="M235.466 195.356v249.398H39.548v-179.51c0-38.59 31.296-69.888 69.888-69.888h35.726z" fill="#BED8FB" p-id="14900"></path><path d="M984.44 393.056v548.778c0 45.39-36.756 82.166-82.126 82.166H227.34c-29.072 0-54.6-15.102-69.208-37.87a81.72 81.72 0 0 1-10.714-25.136l-0.308-46.976-1.916-279.756V82.166C145.194 36.778 181.972 0 227.34 0h364.066c32.718 0 138.662 90.348 232.326 185.494 85.486 86.844 160.708 177.686 160.708 207.562z" fill="#DDEAFB" p-id="14901"></path><path d="M984.452 393.056v201.03c0-0.226-0.02-0.454-0.02-0.7C978.25 346.72 777.324 335.306 711.62 269.6l112.124-84.104c85.464 86.842 160.708 177.684 160.708 207.56z" fill="#CBE2FF" p-id="14902"></path><path d="M591.386 0H390.356c0.226 0 0.454 0.02 0.7 0.02 246.666 6.182 258.08 207.108 323.786 272.812l84.104-112.124C712.102 75.244 621.26 0 591.386 0z" fill="#CBE2FF" p-id="14903"></path><path d="M984.45 393.066v34.754c0-73.172-59.336-132.506-132.506-132.506h-80.648c-45.368 0-82.162-36.794-82.162-82.162V132.506C689.134 59.334 629.8 0 556.628 0h34.754c62.58 0 122.616 24.866 166.866 69.114l157.086 157.086a236.008 236.008 0 0 1 69.116 166.866zM701.41 693.93v184.278c0 59.606-48.316 107.922-107.922 107.922H158.132a81.72 81.72 0 0 1-10.714-25.136l-0.308-46.976-1.916-279.756v-48.254h448.294c59.606 0 107.922 48.316 107.922 107.922z" fill="#BED8FB" p-id="14904"></path><path d="M771.298 443.052v375.384c0 59.606-48.316 107.922-107.922 107.922H109.448c-2.08 0-4.12-0.082-6.16-0.288-35.706-3.09-63.726-33.068-63.726-69.6V265.244c0 19.286 7.83 36.756 20.48 49.408 11.27 11.29 26.394 18.75 43.246 20.192 2.04 0.206 4.08 0.288 6.16 0.288h553.928c59.608-0.002 107.922 48.314 107.922 107.92z" fill="#617881" p-id="14905"></path><path d="M668.278 492.9v275.676c0 5.068-0.68 9.972-1.978 14.608-6.388 23.158-27.608 40.156-52.786 40.156H192.438a49.648 49.648 0 0 1-39.106-18.956 49.52 49.52 0 0 1-10.756-30.906V487.996c0-27.526 22.314-49.84 49.86-49.84h421.076c30.248 0 54.766 24.52 54.766 54.744z" fill="#80B4FB" p-id="14906"></path><path d="M277.946 558.042m-53.742 0a53.742 53.742 0 1 0 107.484 0 53.742 53.742 0 1 0-107.484 0Z" fill="#F1D333" p-id="14907"></path><path d="M411.228 823.342H192.438a49.648 49.648 0 0 1-39.106-18.956l119.11-114.844z" fill="#EAB14D" p-id="14908"></path><path d="M666.3 783.186c-6.388 23.158-27.608 40.156-52.786 40.156H314.06l196.93-189.904z" fill="#F1D333" p-id="14909"></path><path d="M103.288 334.842v591.228c-35.706-3.09-63.726-33.068-63.726-69.6V265.244c0 19.286 7.83 36.756 20.48 49.408 11.27 11.29 26.392 18.748 43.246 20.19z" fill="#475959" p-id="14910"></path></svg>
