<svg t="1741144027158" class="icon" viewBox="0 0 1032 1024" version="1.1" xmlns="http://www.w3.org/2000/svg" p-id="10401" width="200" height="200"><path d="M779.491772 953.616478H254.137244a177.907534 177.907534 0 0 1-177.678272-177.678271V249.437367a177.907534 177.907534 0 0 1 177.678272-177.678272H779.491772a177.907534 177.907534 0 0 1 177.678272 177.678272v526.50084A177.907534 177.907534 0 0 1 779.491772 953.616478zM254.137244 152.000896a97.551103 97.551103 0 0 0-97.436472 97.436471v526.50084a97.551103 97.551103 0 0 0 97.436472 97.436471H779.491772a97.551103 97.551103 0 0 0 97.436472-97.436471V249.437367a97.551103 97.551103 0 0 0-97.436472-97.436471z" fill="#FDD345" p-id="10402"></path><path d="M483.858054 751.407142h-66.944587L285.431546 608.118213h-1.146311v143.288929h-47.801187v-441.3299h47.801187v279.699988h1.146311l125.177208-136.41106h62.588604L334.837569 597.113624zM581.638419 708.305832h-1.146311v43.10131h-47.686556v-441.3299h47.686556v195.675361h1.146311a112.911676 112.911676 0 0 1 103.168029-59.378932 109.243479 109.243479 0 0 1 89.756185 40.006269q32.440613 40.006269 32.440613 107.294749 0 74.854136-36.338072 119.789545a121.165118 121.165118 0 0 1-99.499832 44.935408 98.009627 98.009627 0 0 1-89.526923-50.09381z m-1.146311-120.248069v41.611105a88.609874 88.609874 0 0 0 23.957909 62.703235A85.629464 85.629464 0 0 0 733.639315 685.03571q24.645696-33.1284 24.645696-91.704914a120.133438 120.133438 0 0 0-22.926229-77.949177 76.115079 76.115079 0 0 0-62.244711-28.199261 84.597783 84.597783 0 0 0-67.28848 28.657785 106.377701 106.377701 0 0 0-25.333483 72.21762z" fill="#FDD345" p-id="10403"></path></svg>
