<svg t="1739851505226" class="icon" viewBox="0 0 1024 1024" version="1.1" xmlns="http://www.w3.org/2000/svg" p-id="1585" width="200" height="200"><path d="M880.64 174.08H455.68l-10.24-40.96c-5.12-20.48-20.48-30.72-40.96-30.72H143.36c-25.6 0-40.96 20.48-40.96 40.96v737.28c0 20.48 15.36 40.96 40.96 40.96h737.28c20.48 0 40.96-20.48 40.96-40.96v-665.6c0-20.48-20.48-40.96-40.96-40.96z" fill="#FFAA16" p-id="1586"></path><path d="M839.68 870.4H179.2c-20.48 0-40.96-20.48-40.96-40.96V276.48c0-20.48 15.36-40.96 40.96-40.96h660.48c20.48 0 40.96 20.48 40.96 40.96v552.96c0 20.48-20.48 40.96-40.96 40.96z" fill="#FFFFFF" p-id="1587"></path><path d="M880.64 312.32H143.36c-25.6 0-40.96 20.48-40.96 40.96v527.36c0 20.48 15.36 40.96 40.96 40.96h737.28c20.48 0 40.96-20.48 40.96-40.96V353.28c0-20.48-20.48-40.96-40.96-40.96z" fill="#FFD969" p-id="1588"></path></svg>
