<svg t="1740817807671" class="icon" viewBox="0 0 1024 1024" version="1.1" xmlns="http://www.w3.org/2000/svg" p-id="17787" width="200" height="200"><path d="M179.63369 398.281703m39.346378 0l655.467064 0q39.346378 0 39.346378 39.346378l0 445.696191q0 39.346378-39.346378 39.346378l-655.467064 0q-39.346378 0-39.346378-39.346378l0-445.696191q0-39.346378 39.346378-39.346378Z" fill="#9FD6FF" p-id="17788"></path><path d="M249.57006 330.333682l332.169081 122.81882-6.38566 179.677969 82.975354 118.574458 299.323077-237.225392 32.578342 41.105302-301.770276 239.175505 117.044959 167.250784-42.940702 30.092905-214.435848-306.358775-352.243764 258.370724-30.972367-42.290665 357.749962-262.423898 5.315012-149.929201L231.407252 379.507095l18.162808-49.173413z m170.539208 120.295145l32.578342 41.105303L121.856841 753.890366l-32.540104-41.105303 330.792531-262.194473z" fill="#FFFFFF" p-id="17789"></path><path d="M542.966326 119.951008v577.577297l165.950709-240.666767a209.312024 209.312024 0 0 0-165.912472-336.872292z" fill="#F53F59" p-id="17790"></path><path d="M691.901352 329.224795c0-115.553697-66.686184-209.273786-148.935026-209.273787a209.312024 209.312024 0 0 0-165.912472 336.872293l165.950709 240.705004 118.039134-240.666767c19.34817-35.331441 30.857655-79.572218 30.857655-127.598506z" fill="#FF5B73" p-id="17791"></path><path d="M542.966326 180.328006v297.870052a148.935026 148.935026 0 0 0 0-297.870052z" fill="#E7EAF1" p-id="17792"></path><path d="M631.524354 329.224795c0-82.210605-39.652278-148.896789-88.558028-148.896789a148.935026 148.935026 0 0 0 0 297.870052c48.943988 0 88.558028-66.686184 88.558028-148.935026z" fill="#FFFFFF" p-id="17793"></path></svg>
