<svg t="1740826228484" class="icon" viewBox="0 0 1024 1024" version="1.1" xmlns="http://www.w3.org/2000/svg" p-id="36192" width="200" height="200"><path d="M898.6102261333333 841.3955296l13.425482666666666 24.449658666666668c2.510456533333333 4.6934613333333335 6.4398656 8.513720533333334 11.133325866666667 11.133326933333333l24.449658666666668 13.4254816c1.9647050666666668 1.0915029333333335 1.9647050666666668 3.8202591999999997 0 4.911762133333333L923.1690346666667 908.7412416000001c-4.6934613333333335 2.510456533333333-8.513720533333334 6.4398656-11.133325866666667 11.133325866666667l-13.425482666666666 24.449658666666668c-1.0915029333333335 1.9647050666666668-3.8202591999999997 1.9647050666666668-4.911762133333333 0l-13.4254816-24.449658666666668c-2.510456533333333-4.6934613333333335-6.4398656-8.513720533333334-11.133326933333333-11.133325866666667l-24.449658666666668-13.425482666666666c-1.9647050666666668-1.0915029333333335-1.9647050666666668-3.8202591999999997 0-4.911762133333333l24.449658666666668-13.4254816c4.6934613333333335-2.510456533333333 8.513720533333334-6.4398656 11.133326933333333-11.133326933333333L893.6984640000001 841.3955296c1.0915029333333335-1.855554133333333 3.8202591999999997-1.855554133333333 4.911762133333333 0z" fill="#DEE3FF" p-id="36193"></path><path d="M127.24532800000003 588.4943744l10.6967264 19.53789653333333c2.073854933333333 3.7111093333333334 5.130061866666667 6.8764661333333335 8.8411712 8.8411712l19.53789653333333 10.696725333333333c1.5281034666666666 0.8732021333333333 1.5281034666666666 3.0562069333333333 0 3.929409066666666l-19.53789653333333 10.6967264c-3.7111093333333334 2.073854933333333-6.8764661333333335 5.130061866666667-8.8411712 8.8411712l-10.6967264 19.53789653333333c-0.8732021333333333 1.5281034666666666-3.0562069333333333 1.5281034666666666-3.929409066666666 0l-10.696725333333333-19.53789653333333c-2.073854933333333-3.7111093333333334-5.130061866666667-6.8764661333333335-8.8411712-8.8411712l-19.5378976-10.6967264c-1.5281034666666666-0.8732021333333333-1.5281034666666666-3.0562069333333333 0-3.929409066666666l19.5378976-10.696725333333333c3.7111093333333334-2.073854933333333 6.8764661333333335-5.130061866666667 8.8411712-8.8411712l10.696725333333333-19.53789653333333c0.8732021333333333-1.5281034666666666 3.1653578666666666-1.5281034666666666 3.929409066666666 0zM262.3733514666667 81.38225920000012l18.773845333333334 34.27318186666666c3.6019584 6.549015466666665 8.950321066666667 12.006529066666667 15.499337599999997 15.499337599999997l34.27318186666666 18.773844266666668c2.7287562666666663 1.5281034666666666 2.7287562666666663 5.348362666666667 0 6.8764672L296.64653440000006 175.46978453333335c-6.549015466666665 3.6019584-12.006529066666667 8.950321066666667-15.499337599999997 15.499337599999997l-18.773845333333334 34.27318186666666c-1.5281034666666666 2.7287562666666663-5.348362666666667 2.7287562666666663-6.8764661333333335 0l-18.773844266666668-34.27318186666666c-3.6019584-6.549015466666665-8.950321066666667-12.006529066666667-15.499337599999997-15.499337599999997l-34.27318186666666-18.773845333333334c-2.7287562666666663-1.5281034666666666-2.7287562666666663-5.348362666666667 0-6.8764661333333335l34.27318186666666-18.773845333333334c6.549015466666665-3.6019584 12.006529066666667-8.950321066666667 15.499337599999997-15.499336533333333l18.773844266666668-34.27318186666666c1.5281034666666666-2.6196064000000003 5.348362666666667-2.6196064000000003 6.8764661333333335 0.10914986666666666z" fill="#919AFF" p-id="36194"></path><path d="M644.7267178666666 253.40307093333334H415.2928682666667c-116.35417919999999 0-210.7691552 94.30582613333333-210.7691552 210.7691552v229.4338496c0 116.35417919999999 94.30582613333333 210.7691552 210.7691552 210.7691552h229.4338496c116.35417919999999 0 210.7691552-94.30582613333333 210.7691552-210.7691552V464.06307626666666c0-116.35417919999999-94.414976-210.66000426666665-210.7691552-210.6600053333333z" fill="#DEE3FF" p-id="36195"></path><path d="M636.8678986666667 539.5950570666665L431.9928586666667 763.6805439999999h411.27818453333333L638.5051530666666 539.5950570666665c-0.4366005333333333-0.4366005333333333-1.2006528-0.4366005333333333-1.6372544 0z" fill="#919AFF" p-id="36196"></path><path d="M641.4522101333333 544.5068181333332c-3.929409066666666-1.5281034666666666-8.513720533333334-0.6549013333333333-11.569927466666666 2.6196064000000003L432.10200853333333 763.5713930666666h99.76333866666667l105.54830293333333-216.3358176c1.0915029333333335-1.3098026666666667 2.510456533333333-2.073854933333333 4.03856-2.7287573333333333z" fill="#7C8BF2" p-id="36197"></path><path d="M481.3287765333333 694.8067285333333l-93.10517333333334-101.94634453333333c-4.147709866666666-4.584311466666666-11.4607776-4.584311466666666-15.608487466666665 0L216.7485429333334 763.6805439999999c29.143119999999996 81.86269653333333 107.18555626666667 140.5855370666667 199.09007680000002 140.585536h228.4514976c91.90452053333334 0 169.9469568-58.722840533333326 199.09007680000002-140.585536H637.4136501333332c-59.4868928 0-116.1358784-24.995410133333333-156.08487359999998-68.87381546666667z" fill="#B3BCFF" p-id="36198"></path><path d="M712.8364810666667 375.65136426666675c-3.3836576 0-6.658166399999999 0.5457514666666667-9.8235232 1.3098026666666667 18.555544533333332 4.475160533333334 32.41762773333333 21.066 32.41762773333333 41.04049813333334s-13.8620832 36.5653376-32.41762773333333 41.0404992c3.1653578666666666 0.7640522666666667 6.4398656 1.3098026666666667 9.8235232 1.3098026666666667 23.358155733333334 0 42.24115093333333-18.8829952 42.24115093333333-42.24115093333333 0.10914986666666666-23.57645653333333-18.8829952-42.45945173333334-42.24115093333333-42.45945173333334z" fill="#919AFF" p-id="36199"></path></svg>
