<svg t="1742913020264" class="icon" viewBox="0 0 1024 1024" version="1.1" xmlns="http://www.w3.org/2000/svg" p-id="9473" width="200" height="200"><path d="M280.746667 513.621333a82.602667 82.602667 0 1 1-0.512-165.12h0.512a82.602667 82.602667 0 0 1 0 165.12z m710.229333 33.024v99.072h-743.253333a49.493333 49.493333 0 1 1 0-98.986666h194.901333l52.906667-66.133334h429.397333c36.522667 0 66.048 29.610667 66.048 66.048z m8.533333-263.168h-73.472v73.557334a24.490667 24.490667 0 0 1-48.981333 0v-73.557334h-73.557333a24.490667 24.490667 0 1 1 0-48.981333h73.557333v-73.472a24.490667 24.490667 0 0 1 48.981333 0v73.472h73.472a24.490667 24.490667 0 0 1 0 48.981333zM42.666667 0a42.666667 42.666667 0 0 1 42.666666 42.666667V938.666667H0V42.666667A42.666667 42.666667 0 0 1 42.666667 0zM85.333333 688.554667h938.666667v85.333333H85.333333z" fill="#2A375F" p-id="9474"></path><path d="M981.333333 688.554667a42.666667 42.666667 0 0 1 42.666667 42.666666v213.333334h-85.333333v-213.333334a42.666667 42.666667 0 0 1 42.666666-42.666666z" fill="#2A375F" p-id="9475"></path></svg>
