<svg t="1733417025409" class="icon" viewBox="0 0 1024 1024" version="1.1" xmlns="http://www.w3.org/2000/svg" p-id="48933" width="200" height="200"><path d="M512 512m-512 0a512 512 0 1 0 1024 0 512 512 0 1 0-1024 0Z" fill="#66BF81" p-id="48934"></path><path d="M423.563636 466.618182c0-10.472727 6.981818-20.945455 18.618182-23.272727 48.872727-13.963636 69.818182-64 69.818182-130.327273v-11.636364c0-34.909091 25.6-65.163636 60.509091-68.654545 39.563636-3.490909 73.309091 27.927273 73.309091 66.327272 0 32.581818-1.163636 84.945455-9.309091 121.018182h62.836364c9.309091 0 16.290909 1.163636 24.436363 3.490909 50.036364 12.8 79.127273 65.163636 66.327273 115.2-11.636364 43.054545-69.818182 188.509091-72.145455 195.490909 0 1.163636-1.163636 1.163636-1.163636 1.163637-11.636364 19.781818-32.581818 32.581818-54.690909 32.581818-1.163636-1.163636-2.327273-1.163636-3.490909-1.163636H446.836364c-13.963636 0-24.436364-10.472727-24.436364-24.436364V466.618182z m233.890909 300.218182M377.018182 766.836364h-67.490909c-30.254545 0-53.527273-23.272727-53.527273-53.527273V499.2c0-30.254545 23.272727-53.527273 53.527273-53.527273h66.327272c8.145455 0 12.8 5.818182 12.8 12.8v294.4c1.163636 8.145455-4.654545 13.963636-11.636363 13.963637z m-67.490909-294.4" fill="#FFFFFF" p-id="48935"></path></svg>
