<svg t="1740715601761" class="icon" viewBox="0 0 1024 1024" version="1.1" xmlns="http://www.w3.org/2000/svg" p-id="40902" width="200" height="200"><path d="M375.332095 389.692009V239.398216C375.332095 156.157148 436.640855 88.436725 512.006633 88.436725c78.222284 0 136.674537 71.461296 136.674537 135.352409v165.902875h88.436725V223.789134C737.117895 104.576428 631.926832 0 512.006633 0 387.881267 0 286.89537 107.393138 286.89537 239.398216v150.293793h88.436725z" fill="#B0B5B5" p-id="40903"></path><path d="M511.997789 286.278524C308.61543 286.278524 143.141473 451.752481 143.141473 655.139262s165.473957 368.860738 368.856316 368.860738c203.391203 0 368.860738-165.473957 368.860738-368.860738s-165.460691-368.860738-368.860738-368.860738z" fill="#4E6070" p-id="40904"></path><path d="M562.711829 725.813471c0 27.999067-22.706129 50.71404-50.71404 50.71404-28.012333 0-50.71404-22.714973-50.71404-50.71404v-154.167322c0-28.007911 22.701707-50.71404 50.71404-50.71404 28.007911 0 50.71404 22.706129 50.71404 50.71404v154.167322z" fill="#00CCC6" p-id="40905"></path></svg>
