<svg t="1741152058412" class="icon" viewBox="0 0 1024 1024" version="1.1" xmlns="http://www.w3.org/2000/svg" p-id="43893" width="200" height="200"><path d="M793.144889 220.302222q-8.049778 0.398222-16.213333 0.398222a353.735111 353.735111 0 0 1-241.009778-94.378666 47.530667 47.530667 0 0 0-64.256 0 353.735111 353.735111 0 0 1-241.009778 94.378666c-3.413333 0-6.798222 0-10.183111-0.170666a48.355556 48.355556 0 0 0-50.119111 48.355555v295.310223c0 178.232889 136.533333 230.883556 313.656889 324.266666a48.981333 48.981333 0 0 0 45.653333 0c25.6-13.454222 50.062222-26.026667 73.585778-38.257778a145.351111 145.351111 0 0 1-11.690667-35.413333 28.444444 28.444444 0 0 0 0-55.523555 146.176 146.176 0 0 1 47.786667-82.773334 28.444444 28.444444 0 0 0 48.042666-27.790222 147.143111 147.143111 0 0 1 95.544889 0 28.444444 28.444444 0 0 0 31.544889 36.494222 243.911111 243.911111 0 0 0 28.842667-121.002666V268.657778a48.184889 48.184889 0 0 0-50.176-48.355556z m-231.054222 239.985778a66.417778 66.417778 0 0 1-18.517334 18.545778v135.736889a36.750222 36.750222 0 0 1-73.500444 0v-135.736889a66.389333 66.389333 0 1 1 92.017778-18.545778z" fill="#2172F6" p-id="43894"></path><path d="M773.006222 903.480889a23.978667 23.978667 0 0 1 40.448-23.409778 122.88 122.88 0 0 0 40.220445-69.660444 23.978667 23.978667 0 0 1 0-46.734223 122.908444 122.908444 0 0 0-40.220445-69.660444 23.978667 23.978667 0 0 1-40.448-23.409778 123.790222 123.790222 0 0 0-80.384 0 23.978667 23.978667 0 0 1-40.448 23.409778 123.050667 123.050667 0 0 0-40.220444 69.660444 23.978667 23.978667 0 0 1 0 46.734223 123.079111 123.079111 0 0 0 40.220444 69.660444 23.978667 23.978667 0 0 1 40.448 23.409778 123.221333 123.221333 0 0 0 80.384 0z m-92.928-116.423111a52.736 52.736 0 1 1 52.764445 52.764444 52.764444 52.764444 0 0 1-52.764445-52.764444z" fill="#2172F6" p-id="43895"></path></svg>
