<svg t="1732507570486" class="icon" viewBox="0 0 1086 1024" version="1.1" xmlns="http://www.w3.org/2000/svg" p-id="10030" width="200" height="200"><path d="M289.190083 761.776309l460.870523 207.44022 306.06281-602.239119-376.480441-171.552617" fill="#FFFEED" p-id="10031"></path><path d="M750.051791 986.851791c-2.424242 0-4.879339-0.502479-7.228651-1.560331l-300.068319-135.065565a17.626446 17.626446 0 0 1-8.841873-23.312396 17.613223 17.613223 0 0 1 23.312396-8.841874l284.738292 128.158678 290.106887-570.842975L767.735537 254.942149a17.630854 17.630854 0 0 1 14.620386-32.088155l281.07989 128.079339a17.630854 17.630854 0 0 1 8.405509 24.030854l-306.06281 602.239119a17.630854 17.630854 0 0 1-15.726721 9.648485z" fill="#E4E4F5" p-id="10032"></path><path d="M97.85124 69.804959h548.055096v657.062259H97.85124z" fill="#DBEAFF" p-id="10033"></path><path d="M645.906336 744.498072H97.85124a17.630854 17.630854 0 0 1-17.630854-17.630854V69.804959a17.630854 17.630854 0 0 1 17.630854-17.630854h548.055096a17.630854 17.630854 0 0 1 17.630854 17.630854v657.062259a17.630854 17.630854 0 0 1-17.630854 17.630854z m-530.424242-35.261708h512.793388V87.435813H115.482094v621.800551z" fill="#6E6E96" p-id="10034"></path><path d="M645.906336 726.86281L272.141047 353.097521 97.85124 527.391736v199.471074z" fill="#DFE2E8" p-id="10035"></path><path d="M455.920661 260.817631m-75.534986 0a75.534986 75.534986 0 1 0 151.069972 0 75.534986 75.534986 0 1 0-151.069972 0Z" fill="#FFCFCF" p-id="10036"></path><path d="M455.920661 353.983471c-51.371901 0-93.170248-41.793939-93.170248-93.16584 0-51.371901 41.793939-93.16584 93.170248-93.16584 51.371901 0 93.16584 41.793939 93.16584 93.16584 0 51.371901-41.793939 93.16584-93.16584 93.16584z m0-151.069972c-31.929477 0-57.90854 25.974656-57.90854 57.904132s25.979063 57.904132 57.90854 57.904132 57.904132-25.979063 57.904132-57.904132-25.974656-57.904132-57.904132-57.904132z" fill="#6E6E96" p-id="10037"></path><path d="M280.418733 365.518457l-174.294215 264.070524v-89.780717z" fill="#FFFFFF" opacity=".52" p-id="10038"></path><path d="M272.141047 353.097521l190.585124 366.188429h183.180165z" fill="#6E6E96" opacity=".15" p-id="10039"></path><path d="M645.906336 744.493664H97.85124a17.630854 17.630854 0 0 1-17.630854-17.630854v-199.471074c0-4.676584 1.855647-9.159229 5.161432-12.465014L259.671625 340.628099a17.630854 17.630854 0 0 1 24.938843 0l373.760882 373.769697a17.617631 17.617631 0 0 1 3.821487 19.208816 17.622039 17.622039 0 0 1-16.286501 10.887052z m-530.424242-35.261708h487.858953L272.141047 378.031956 115.482094 534.699725v174.532231z" fill="#6E6E96" p-id="10040"></path></svg>
