<svg t="1733480492069" class="icon" viewBox="0 0 1024 1024" version="1.1" xmlns="http://www.w3.org/2000/svg" p-id="86870" width="200" height="200"><path d="M446.250667 837.717333c0 1.578667 0.213333 5.205333 0.554666 11.264 0.341333 6.058667 0.426667 11.050667 0.213334 14.933334-0.213333 3.84-0.682667 8.362667-1.664 13.226666a19.242667 19.242667 0 0 1-5.76 11.008 16.512 16.512 0 0 1-11.477334 3.626667H248.192c-44.672 0-82.858667-15.872-114.645333-47.530667a155.648 155.648 0 0 1-47.530667-114.517333V333.397333c0-44.672 15.872-82.858667 47.530667-114.602666 31.786667-31.786667 69.845333-47.573333 114.645333-47.573334h180.181333c4.821333 0 9.130667 1.792 12.672 5.333334a17.450667 17.450667 0 0 1 5.290667 12.672c0 1.536 0.213333 5.162667 0.554667 11.221333 0.341333 6.101333 0.426667 11.050667 0.256 14.933333-0.256 3.84-0.682667 8.362667-1.706667 13.226667a19.285333 19.285333 0 0 1-5.717333 11.008 16.512 16.512 0 0 1-11.477334 3.669333h-180.053333a87.04 87.04 0 0 0-63.573333 26.368c-17.621333 17.621333-26.325333 38.826667-26.325334 63.530667v396.202667c0 24.746667 8.704 45.909333 26.368 63.573333 17.621333 17.621333 38.826667 26.325333 63.573334 26.325333h175.616c1.194667 0 3.285333 0.256 6.485333 0.554667a17.664 17.664 0 0 1 6.528 1.706667c1.194667 0.64 2.645333 1.706667 4.522667 3.072 1.877333 1.28 3.2 2.986667 3.84 5.077333 0.682667 2.56 1.024 5.077333 1.024 8.021333z m522.410666-306.261333a34.645333 34.645333 0 0 1-10.709333 25.386667l-306.176 306.261333a34.986667 34.986667 0 0 1-25.386667 10.666667 34.730667 34.730667 0 0 1-25.386666-10.666667 34.773333 34.773333 0 0 1-10.666667-25.386667v-162.048H338.218667a34.730667 34.730667 0 0 1-25.386667-10.709333 34.773333 34.773333 0 0 1-10.666667-25.386667V423.552c0-9.685333 3.498667-18.176 10.666667-25.386667a34.56 34.56 0 0 1 25.386667-10.666666h252.117333V225.28c0-9.685333 3.541333-18.176 10.666667-25.344a34.986667 34.986667 0 0 1 25.429333-10.709333c9.685333 0 18.176 3.541333 25.344 10.666666l306.304 306.304a34.816 34.816 0 0 1 10.581333 25.258667z" fill="#FE4444" p-id="86871"></path></svg>
