<svg t="1742131739959" class="icon" viewBox="0 0 1024 1024" version="1.1" xmlns="http://www.w3.org/2000/svg" p-id="21495" width="200" height="200"><path d="M293.12 912.725333h512V298.666667h-57.6c-92.458667 233.216-153.898667 349.824-184.32 349.824-52.224 0-108.458667-116.608-168.661333-349.824H293.077333v614.058666z" fill="#E7E8FF" p-id="21496"></path><path d="M452.096 907.776a28.714667 28.714667 0 0 1-20.48-8.704 29.653333 29.653333 0 0 1 0-41.472l181.248-181.248a29.44 29.44 0 0 1 36.352-4.096l78.848 50.688 113.152-86.528a29.312 29.312 0 0 1 40.96 5.632c9.728 12.8 7.168 31.232-5.632 40.96l-129.024 98.816a29.226667 29.226667 0 0 1-33.792 1.536l-76.288-49.152-164.864 164.864a28.714667 28.714667 0 0 1-20.48 8.704zM563.2 385.536a29.184 29.184 0 0 1-29.184-29.184v-58.88a29.184 29.184 0 1 1 58.368 0V355.84a29.610667 29.610667 0 0 1-29.184 29.696z m258.048 522.24H305.152a73.216 73.216 0 0 1-73.216-73.216V305.664c0-40.448 32.768-73.216 73.216-73.216H348.16a29.184 29.184 0 1 1 0 58.368H305.152a14.848 14.848 0 0 0-14.848 14.848V834.56c0 8.192 6.656 14.848 14.848 14.848h515.584a14.848 14.848 0 0 0 14.848-14.848V305.664a14.848 14.848 0 0 0-14.848-14.848h-36.864a29.184 29.184 0 1 1 0-58.368h36.864c40.448 0 73.216 32.768 73.216 73.216V834.56a72.448 72.448 0 0 1-72.704 73.216zM142.336 848.384a29.184 29.184 0 0 1-29.184-29.184V321.024c0-16.384 13.312-29.184 29.184-29.184 15.872 0 29.184 13.312 29.184 29.184V819.2a28.544 28.544 0 0 1-29.184 29.184zM695.808 414.72a34.474667 34.474667 0 0 1-15.36-4.096 29.184 29.184 0 0 1-9.728-40.448 125.653333 125.653333 0 0 0-107.52-190.464c-69.12 0-125.44 56.32-125.44 125.44 0 22.528 6.144 44.032 16.896 63.488a28.928 28.928 0 0 1-10.752 39.936 28.928 28.928 0 0 1-39.936-10.752 180.48 180.48 0 0 1-25.088-92.16 184.533333 184.533333 0 0 1 184.32-184.32 184.533333 184.533333 0 0 1 184.32 184.32 183.04 183.04 0 0 1-26.624 95.232 29.098667 29.098667 0 0 1-25.088 13.824zM563.2 648.704a29.226667 29.226667 0 0 1-25.6-14.848L408.064 404.48a28.970667 28.970667 0 0 1 11.264-39.936 28.970667 28.970667 0 0 1 39.936 11.264l129.536 229.376a28.970667 28.970667 0 0 1-25.6 43.52z m0 0a28.416 28.416 0 0 1-14.336-3.584 29.354667 29.354667 0 0 1-10.752-39.936l130.56-229.376a29.354667 29.354667 0 0 1 39.936-10.752 29.354667 29.354667 0 0 1 10.752 39.936l-130.56 228.864a29.226667 29.226667 0 0 1-25.6 14.848z" fill="#595959" p-id="21497"></path></svg>
