<svg t="1735790957970" class="icon" viewBox="0 0 1024 1024" version="1.1" xmlns="http://www.w3.org/2000/svg" p-id="7635" width="200" height="200"><path d="M512 0c282.331429 0 512 229.668571 512 512s-229.668571 512-512 512-512-229.668571-512-512 229.668571-512 512-512z m256 438.857143a73.142857 73.142857 0 1 0-0.073143 146.212571A73.142857 73.142857 0 0 0 768 438.857143zM512 438.857143a73.142857 73.142857 0 1 0 0 146.285714 73.142857 73.142857 0 0 0 0-146.285714zM256 438.857143a73.142857 73.142857 0 1 0 0 146.285714 73.142857 73.142857 0 0 0 0-146.285714z" fill="#536076" p-id="7636"></path></svg>
