<svg t="1735358313214" class="icon" viewBox="0 0 1166 1024" version="1.1" xmlns="http://www.w3.org/2000/svg" p-id="4000" width="200" height="200"><path d="M842.731517 407.355404a109.993623 109.993623 0 0 0 0-155.693942c-42.970688-42.897198-112.576274-42.844705-155.504967 0.094487-42.918195 42.949691-42.918195 112.555276 0 155.504967 42.918195 42.939192 112.523781 42.981187 155.504967 0.094488zM619.699683 768.076115l3.370044-4.304418-4.28342 4.304418-36.556056-46.918154-173.97197-223.934712a54.529625 54.529625 0 0 0-87.442673 0L72.818151 797.325159V146.549679a68.849688 68.849688 0 0 1 64.293304-73.12261h391.754514l31.49574-73.427069H145.636302C65.049202 0.503932 0 65.962578 0 146.549679v731.205101c0.167977 80.5871 65.364159 145.909265 145.940761 146.24522h294.758133l204.911285-201.394261-25.910496-54.529624z" fill="#A9A9A9" p-id="4001"></path><path d="M1020.650953 0H698.155572l-38.057353 73.427069h360.552734a78.602869 78.602869 0 0 1 72.818151 73.12261v648.045849l-175.189805-223.934712a57.920666 57.920666 0 0 0-95.67356-7.328009l-120.450208 121.048628 67.148918 75.474292-143.904037 264.144273h395.250541c80.461117-0.503932 145.468325-65.784102 145.636302-146.24522V146.549679C1166.287255 65.962578 1101.238053 0.503932 1020.650953 0z" fill="#A9A9A9" p-id="4002"></path></svg>
