<svg t="1740817174614" class="icon" viewBox="0 0 1024 1024" version="1.1" xmlns="http://www.w3.org/2000/svg" p-id="4307" width="200" height="200"><path d="M204.8 59.733333A42.666667 42.666667 0 0 0 128 85.333333v341.333334a42.666667 42.666667 0 0 0 85.333333 0V213.333333l179.2 238.933334A42.666667 42.666667 0 0 0 469.333333 426.666667V85.333333a42.666667 42.666667 0 1 0-85.333333 0v213.333334L204.8 59.733333zM640 42.666667a85.333333 85.333333 0 0 0-85.333333 85.333333v85.333333a85.333333 85.333333 0 0 0 85.333333 85.333334h170.666667v85.333333h-213.333334a42.666667 42.666667 0 0 0 0 85.333333h213.333334a85.333333 85.333333 0 0 0 85.333333-85.333333V298.666667a85.333333 85.333333 0 0 0-85.333333-85.333334h-170.666667V128h213.333333a42.666667 42.666667 0 1 0 0-85.333333h-213.333333zM128 597.333333a42.666667 42.666667 0 0 1 42.666667-42.666666h256a42.666667 42.666667 0 1 1 0 85.333333H213.333333v85.333333h213.333334a42.666667 42.666667 0 1 1 0 85.333334H213.333333v128a42.666667 42.666667 0 0 1-85.333333 0v-341.333334zM640 597.333333a42.666667 42.666667 0 1 0-85.333333 0v341.333334a42.666667 42.666667 0 0 0 79.232 21.973333L725.333333 808.277333l91.392 152.32A42.666667 42.666667 0 0 0 896 938.666667v-341.333334a42.666667 42.666667 0 1 0-85.333333 0v187.306667l-48.725334-81.237333a42.666667 42.666667 0 0 0-73.216 0L640 784.64V597.333333z" p-id="4308"></path></svg>
