<svg t="1740246256617" class="icon" viewBox="0 0 1024 1024" version="1.1" xmlns="http://www.w3.org/2000/svg" p-id="19370" width="200" height="200"><path d="M622.08 162.816c-164.352 0-302.08 113.152-339.456 265.728-3.584 0-6.656-0.512-10.24-0.512-119.296 0-216.064 96.768-216.064 216.064 0 57.344 22.528 112.128 63.488 152.576 40.448 40.448 95.744 63.488 153.088 63.488s112.64-23.04 153.088-63.488c33.792-33.792 52.736-79.36 58.368-129.536l-78.336-6.144c-17.92-2.048-23.552-15.872-12.8-30.208l132.608-164.352c10.752-14.336 25.088-12.8 32.256 4.096l75.264 183.808c7.168 16.384-2.048 28.16-19.456 26.112l-58.368-5.12c-6.656 60.928-33.792 114.688-72.192 157.184 44.032 18.944 91.136 28.672 138.752 28.672 193.024 0 349.184-156.672 349.184-349.184s-156.16-349.184-349.184-349.184z" fill="#999999" p-id="19371"></path></svg>
