<svg t="1733800047141" class="icon" viewBox="0 0 1024 1024" version="1.1" xmlns="http://www.w3.org/2000/svg" p-id="39002" width="200" height="200"><path d="M737.882353 584.282353c0 48.188235-39.152941 84.329412-84.329412 84.329412h-286.117647c-48.188235 0-84.329412-39.152941-84.329412-84.329412v-150.588235c0-48.188235 39.152941-84.329412 84.329412-84.329412 12.047059 0 21.082353 9.035294 21.082353 21.082353 0 12.047059-9.035294 21.082353-21.082353 21.082353-24.094118 0-42.164706 18.070588-42.164706 42.164706v150.588235c0 24.094118 18.070588 42.164706 42.164706 42.164706h286.117647c24.094118 0 42.164706-18.070588 42.164706-42.164706v-150.588235c0-24.094118-18.070588-42.164706-42.164706-42.164706-12.047059 0-21.082353-9.035294-21.082353-21.082353 0-12.047059 9.035294-21.082353 21.082353-21.082353 48.188235 0 84.329412 39.152941 84.329412 84.329412v150.588235z m-307.2-87.341177c0 18.070588-15.058824 33.129412-33.129412 33.129412-18.070588 0-33.129412-15.058824-33.129412-33.129412 0-18.070588 15.058824-33.129412 33.129412-33.129411 21.082353 3.011765 33.129412 15.058824 33.129412 33.129411z m78.305882-30.117647c18.070588 0 33.129412 15.058824 33.129412 33.129412 0 18.070588-15.058824 33.129412-33.129412 33.129412s-33.129412-15.058824-33.129411-33.129412c3.011765-21.082353 18.070588-33.129412 33.129411-33.129412z m51.2-189.741176c18.070588 0 33.129412 15.058824 33.129412 33.129412s-15.058824 33.129412-33.129412 33.129411-33.129412-15.058824-33.129411-33.129411 18.070588-33.129412 33.129411-33.129412zM508.988235 30.117647C243.952941 30.117647 27.105882 246.964706 27.105882 512s216.847059 481.882353 481.882353 481.882353 481.882353-216.847059 481.882353-481.882353-213.835294-481.882353-481.882353-481.882353z" fill="#7B9CFF" p-id="39003"></path></svg>
