<svg t="1740824489351" class="icon" viewBox="0 0 1024 1024" version="1.1" xmlns="http://www.w3.org/2000/svg" p-id="29190" width="200" height="200"><path d="M641.07 786.68l-20.36 1.63q-54.27 4.34-108.71 4.35-54.74 0-109.37-4.35l-20.35-1.63a159.13 159.13 0 0 1-146-146l-1.63-20.35q-4.35-54.43-4.35-109t4.35-109l1.63-20.36a159.15 159.15 0 0 1 146-146l20.35-1.62q54.44-4.35 109-4.35t109 4.35l20.44 1.65A159.15 159.15 0 0 1 787 381.93l1.63 20.36q4.35 54.43 4.35 109t-4.35 109L787 640.72a159.13 159.13 0 0 1-145.93 145.96z" fill="#CAE0FF" p-id="29191"></path><path d="M622 725.3a90.65 90.65 0 1 1 90.65-90.65A90.75 90.75 0 0 1 622 725.3z m0-126.3a35.65 35.65 0 1 0 35.65 35.65A35.69 35.69 0 0 0 622 599z" fill="#1A5F8E" p-id="29192"></path><path d="M751.83 662.46h-65.66a27.5 27.5 0 0 1 0-55h65.66a27.5 27.5 0 0 1 0 55zM552.31 662.26H275.17a27.5 27.5 0 0 1 0-55h277.14a27.5 27.5 0 0 1 0 55zM405 480.3a90.65 90.65 0 1 1 90.65-90.65A90.76 90.76 0 0 1 405 480.3z m0-126.3a35.65 35.65 0 1 0 35.65 35.65A35.69 35.69 0 0 0 405 354z" fill="#1A5F8E" p-id="29193"></path><path d="M340.83 416.84h-65.66a27.5 27.5 0 0 1 0-55h65.66a27.5 27.5 0 0 1 0 55zM751.83 417H474.69a27.5 27.5 0 0 1 0-55h277.14a27.5 27.5 0 0 1 0 55z" fill="#1A5F8E" p-id="29194"></path><path d="M513.56 913.5c-49.36 0-99.35-2-148.56-5.92a273.28 273.28 0 0 1-250.65-250.66c-3.93-49.21-5.93-99.19-5.93-148.55s2-99.35 5.93-148.56A273.28 273.28 0 0 1 365 109.15c49.21-3.93 99.19-5.92 148.56-5.92s99.35 2 148.56 5.92A273.31 273.31 0 0 1 912.77 359.8c3.93 49.22 5.92 99.2 5.92 148.57s-2 99.34-5.92 148.55a273.31 273.31 0 0 1-250.65 250.66c-49.07 3.91-98.9 5.91-148.11 5.92z m144.18-60.75l2.19 27.41-2.19-27.41a218.28 218.28 0 0 0 200.2-200.21c3.82-47.75 5.75-96.26 5.75-144.17s-1.93-96.42-5.75-144.18A218.28 218.28 0 0 0 657.74 164c-47.76-3.81-96.27-5.75-144.18-5.75s-96.42 1.94-144.18 5.75a218.3 218.3 0 0 0-200.21 200.19c-3.81 47.75-5.75 96.26-5.75 144.18s1.94 96.42 5.75 144.17a218.3 218.3 0 0 0 200.21 200.21c47.91 3.83 96.55 5.75 144.61 5.75 47.77-0.01 96.13-1.95 143.75-5.75z" fill="#1A5F8E" p-id="29195"></path></svg>
