<svg t="1733480134293" class="icon" viewBox="0 0 1024 1024" version="1.1" xmlns="http://www.w3.org/2000/svg" p-id="81195" width="200" height="200"><path d="M332.100265 328.251268m-38.063325 34.890835a51.635134 51.635134 0 1 0 76.12665-69.78167 51.635134 51.635134 0 1 0-76.12665 69.78167Z" fill="#1AC3B6" p-id="81196"></path><path d="M556.783712 328.252893m-38.063325 34.890835a51.635134 51.635134 0 1 0 76.126651-69.78167 51.635134 51.635134 0 1 0-76.126651 69.78167Z" fill="#1AC3B6" p-id="81197"></path><path d="M511.987638 1024C229.669419 1024 0 794.293496 0 512S229.669419 0 511.987638 0s512.012362 229.694143 512.012362 512-229.681781 512-512.012362 512z m0-921.286011c-225.664204 0-409.273649 183.609445-409.273649 409.286011s183.609445 409.286011 409.273649 409.286011 409.298373-183.609445 409.298373-409.286011S737.664204 102.713989 511.987638 102.713989z" fill="#06E4D3" p-id="81198"></path><path d="M511.987638 846.892849V744.178859c128.018543 0 232.178859-104.160317 232.17886-232.178859h102.713989c0 184.635472-150.232652 334.892849-334.892849 334.892849z" fill="#1AC3B6" p-id="81199"></path></svg>
