<svg t="1741151722442" class="icon" viewBox="0 0 1024 1024" version="1.1" xmlns="http://www.w3.org/2000/svg" p-id="31745" width="200" height="200"><path d="M511.982392 0s-225.676102 228.353615-424.237072 153.000747v484.927368a649.870673 649.870673 0 0 0 424.237072 386.071885 649.870673 649.870673 0 0 0 424.237071-386.071885v-484.927368c-198.60347 75.352868-424.237071-153.000747-424.237071-153.000747z" fill="#3388FF" p-id="31746"></path><path d="M332.971518 266.2213m62.092803 0l233.836142 0q62.092803 0 62.092803 62.092803l0 345.824189q0 62.092803-62.092803 62.092803l-233.836142 0q-62.092803 0-62.092803-62.092803l0-345.824189q0-62.092803 62.092803-62.092803Z" fill="#FFFFFF" p-id="31747"></path><path d="M509.049877 614.127999m-37.697684 0a37.697684 37.697684 0 1 0 75.395368 0 37.697684 37.697684 0 1 0-75.395368 0Z" fill="#3388FF" p-id="31748"></path><path d="M403.649363 316.966548m22.56761 0l165.623309 0q22.56761 0 22.56761 22.56761l0 0q0 22.56761-22.56761 22.56761l-165.623309 0q-22.56761 0-22.56761-22.56761l0 0q0-22.56761 22.56761-22.56761Z" fill="#3388FF" p-id="31749"></path></svg>
