<svg t="1741802223847" class="icon" viewBox="0 0 1024 1024" version="1.1" xmlns="http://www.w3.org/2000/svg" p-id="7367" width="200" height="200"><path d="M974.138979 369.303113C945.574097 244.841843 863.960149 142.824408 754.801494 88.755168V46.92802c0-21.423661-17.342964-38.766625-38.766625-39.7868-21.423661 0-38.766625 18.363138-38.766625 39.7868v13.262266c-109.158655-27.544707-223.418182-27.544707-331.556662 0V46.92802c0-21.423661-17.342964-38.766625-38.766626-39.7868-21.423661 0-38.766625 18.363138-38.766625 39.7868v41.827148C161.060025 142.824408 79.446077 244.841843 50.881196 369.303113 26.397011 476.42142 26.397011 586.600249 50.881196 693.718555c35.706102 154.046326 153.026152 275.447073 302.99178 311.153176 104.057783 25.504359 212.196264 25.504359 316.254048 0C821.112827 969.165629 938.432877 848.785056 974.138979 693.718555c24.484184-107.118306 24.484184-217.297136 0-324.415442zM430.386052 469.280199H216.14944c-17.342964 0-30.60523-14.282441-30.605231-30.60523 0-17.342964 13.262267-30.60523 30.605231-30.605231h214.236612c17.342964 0 30.60523 13.262267 30.605231 30.605231 0 16.32279-13.262267 30.60523-30.605231 30.60523z m367.262765 0H583.412204c-17.342964 0-30.60523-14.282441-30.60523-30.60523 0-17.342964 13.262267-30.60523 30.60523-30.605231h214.236613c17.342964 0 30.60523 13.262267 30.60523 30.605231 0 16.32279-13.262267 30.60523-30.60523 30.60523z" fill="#363853" p-id="7368"></path></svg>
