<svg t="1733761095875" class="icon" viewBox="0 0 1024 1024" version="1.1" xmlns="http://www.w3.org/2000/svg"
     p-id="50680" width="200" height="200">
    <path d="M471.87259 871.430008a41.629505 41.629505 0 0 0 41.629506 41.629506 40.98575 40.98575 0 0 0 38.625314-41.629506 40.55658 40.55658 0 0 0-39.912825-40.98575h-1.072925a40.98575 40.98575 0 0 0-39.26907 40.98575z"
          fill="#B8BDCC" p-id="50681"></path>
    <path d="M738.601844 55.792121a77.036044 77.036044 0 0 1 77.036044 77.036043v758.343672a77.036044 77.036044 0 0 1-77.036044 77.036043H285.398156a77.036044 77.036044 0 0 1-77.036044-77.036043V132.828164A77.036044 77.036044 0 0 1 285.398156 55.792121h453.203688m0-55.792121H285.398156A132.828164 132.828164 0 0 0 152.569992 132.828164v758.343672a132.828164 132.828164 0 0 0 132.828164 132.828164h453.203688a132.828164 132.828164 0 0 0 132.828164-132.828164V132.828164A132.828164 132.828164 0 0 0 738.601844 0z"
          fill="#B8BDCC" p-id="50682"></path>
    <path d="M713.49539 793.964795H310.50461a39.483655 39.483655 0 0 1-41.629505-36.694049v-519.295893a39.26907 39.26907 0 0 1 41.629505-36.479463h402.99078a39.26907 39.26907 0 0 1 41.629505 36.479463v518.437553A39.483655 39.483655 0 0 1 713.49539 793.964795z"
          fill="#E3E5EB" p-id="50683"></path>
    <path d="M425.736798 103.430008m25.964795 0l120.596814 0q25.964795 0 25.964795 25.964795l0 0q0 25.964795-25.964795 25.964795l-120.596814 0q-25.964795 0-25.964795-25.964795l0 0q0-25.964795 25.964795-25.964795Z"
          fill="#B8BDCC" p-id="50684"></path>
</svg>
