<svg t="1740731044915" class="icon" viewBox="0 0 1024 1024" version="1.1" xmlns="http://www.w3.org/2000/svg" p-id="54228" width="200" height="200"><path d="M424.228571 58.514286a43.885714 43.885714 0 0 1 43.885715 43.885714v336.457143a43.885714 43.885714 0 0 1-43.885715 43.885714H87.771429a43.885714 43.885714 0 0 1-43.885715-43.885714V102.4a43.885714 43.885714 0 0 1 43.885715-43.885714h336.457142z m-38.034285 81.92H125.805714v260.388571h260.388572V140.434286zM424.228571 526.628571a43.885714 43.885714 0 0 1 43.885715 43.885715v336.457143a43.885714 43.885714 0 0 1-43.885715 43.885714H87.771429a43.885714 43.885714 0 0 1-43.885715-43.885714V570.514286a43.885714 43.885714 0 0 1 43.885715-43.885715h336.457142z m-38.034285 81.92H125.805714v260.388572h260.388572V608.548571zM936.228571 58.514286a43.885714 43.885714 0 0 1 43.885715 43.885714v336.457143a43.885714 43.885714 0 0 1-43.885715 43.885714H599.771429a43.885714 43.885714 0 0 1-43.885715-43.885714V102.4a43.885714 43.885714 0 0 1 43.885715-43.885714h336.457142z m-38.034285 81.92H637.805714v260.388571h260.388572V140.434286z" fill="#FFAA3C" p-id="54229"></path><path d="M775.314286 526.628571a43.885714 43.885714 0 0 1 43.885714 43.885715v131.642514h73.142857V570.514286a43.885714 43.885714 0 1 1 87.771429 0v175.542857a43.885714 43.885714 0 0 1-43.885715 43.885714l-0.438857-0.014628L775.314286 789.942857a43.885714 43.885714 0 0 1-43.885715-43.885714v-131.671772h-87.771428V906.971429a43.885714 43.885714 0 1 1-87.771429 0V570.514286a43.885714 43.885714 0 0 1 43.885715-43.885715h175.542857z" fill="#FFAA3C" p-id="54230"></path><path d="M307.2 307.2v-73.142857a14.628571 14.628571 0 0 0-14.628571-14.628572h-73.142858a14.628571 14.628571 0 0 0-14.628571 14.628572v73.142857a14.628571 14.628571 0 0 0 14.628571 14.628571h73.142858a14.628571 14.628571 0 0 0 14.628571-14.628571zM307.2 775.314286v-73.142857a14.628571 14.628571 0 0 0-14.628571-14.628572h-73.142858a14.628571 14.628571 0 0 0-14.628571 14.628572v73.142857a14.628571 14.628571 0 0 0 14.628571 14.628571h73.142858a14.628571 14.628571 0 0 0 14.628571-14.628571zM819.2 307.2v-73.142857a14.628571 14.628571 0 0 0-14.628571-14.628572h-73.142858a14.628571 14.628571 0 0 0-14.628571 14.628572v73.142857a14.628571 14.628571 0 0 0 14.628571 14.628571h73.142858a14.628571 14.628571 0 0 0 14.628571-14.628571z" fill="#FFAA3C" p-id="54231"></path><path d="M980.114286 906.971429a43.885714 43.885714 0 0 1-43.885715 43.885714H731.428571a43.885714 43.885714 0 1 1 0-87.771429h204.8a43.885714 43.885714 0 0 1 43.885715 43.885715z" fill="#FFAA3C" p-id="54232"></path></svg>
