<svg t="1733290267453" class="icon" viewBox="0 0 1024 1024" version="1.1" xmlns="http://www.w3.org/2000/svg" p-id="71598" width="200" height="200"><path d="M192 320h640v512a128 128 0 0 1-128 128H320a128 128 0 0 1-128-128V320z" fill="#3EBF87" fill-opacity=".15" p-id="71599"></path><path d="M53.312 298.688a32 32 0 0 1 32-32h853.376a32 32 0 0 1 0 64H85.312a32 32 0 0 1-32-32z m310.016-221.504A471.424 471.424 0 0 1 512 53.312c50.88 0 101.376 8.064 148.672 23.872a409.728 409.728 0 0 1 127.36 68.544 32 32 0 0 1-40.128 49.92c-32.128-25.472-63.232 7.616-107.52 7.616-51.2 0-84.8-0.832-128.384-0.768-44.16 0-86.272 0.768-128.448 0.768-46.592 0-75.392-33.152-107.52-7.68a32 32 0 1 1-40.064-49.856 409.664 409.664 0 0 1 127.36-68.544z" fill="#3EBF87" p-id="71600"></path><path d="M138.688 266.688h746.624V599.68c0 78.4 0 140.48-6.528 189.12-6.72 50.048-20.864 90.496-52.8 122.432-32 31.936-72.448 46.08-122.432 52.8-48.64 6.592-110.72 6.592-189.12 6.592h-4.864c-78.4 0-140.48 0-189.12-6.528-49.984-6.72-90.496-20.928-122.432-52.864l22.656-22.592 22.592-22.656c18.048 18.048 42.816 28.864 85.76 34.624 43.84 5.952 101.632 6.016 182.976 6.016s139.136-0.064 183.04-6.016c42.88-5.76 67.648-16.576 85.696-34.624 18.048-18.048 28.864-42.752 34.624-85.76 5.888-43.776 5.952-101.632 5.952-182.976V330.688H202.688v266.624c0 81.344 0 139.2 5.952 183.04 5.76 42.88 16.64 67.648 34.624 85.696l-22.592 22.656-22.656 22.592c-31.936-31.936-46.08-72.384-52.8-122.432-6.528-48.64-6.528-110.72-6.528-189.12V266.688z" fill="#3EBF87" p-id="71601"></path><path d="M352 810.688a32 32 0 0 1 32-32h256a32 32 0 0 1 0 64H384a32 32 0 0 1-32-32z" fill="#3EBF87" p-id="71602"></path></svg>
