<svg t="1733762218316" class="icon" viewBox="0 0 1024 1024" version="1.1" xmlns="http://www.w3.org/2000/svg" p-id="53040" width="200" height="200"><path d="M514.5 511.5m-434.5 0a434.5 434.5 0 1 0 869 0 434.5 434.5 0 1 0-869 0Z" fill="#DB3131" p-id="53041"></path><path d="M453.13 319c14.68-0.64 39.84-1.5 68.42-1.5 28.21 0 53.61 0.87 68.42 1.51a13 13 0 0 0 13.59-13 82 82 0 0 0-82-82 82 82 0 0 0-82 82A13 13 0 0 0 453.13 319zM750.24 371l-61-4.87c-51.18-4.09-121.36-5.93-168.19-5.9-46.66 0-116.49 1.84-167.3 5.9L292.86 371a31.38 31.38 0 1 0 5 62.57l40-3.2a38.64 38.64 0 0 0-0.28 5.92c2.28 74.62 14.47 236.63 15.5 249.25l2 24.2c3.09 37.81 33.75 67.84 72.36 70.87l24.71 1.93c21.46 1.68 49.6 2.52 71.12 2.51s49.39-0.84 70.73-2.51l25.1-1.92c39.34-3 70.36-34 72.62-72.61l1.28-22.52c1-12.62 13.22-174.63 15.5-249.26a38.08 38.08 0 0 0-0.25-5.67l37 3c0.85 0.07 1.7 0.1 2.54 0.1a31.38 31.38 0 0 0 2.45-62.66zM459.83 716c-0.8 0.06-1.6 0.1-2.39 0.1a27.47 27.47 0 0 1-27.33-25.1c-1.16-13.46-8.79-164.6-8.79-189.52a27.46 27.46 0 0 1 54.92 0c0 24.21 7.66 173.94 8.59 184.8a27.47 27.47 0 0 1-25 29.72z m155.45-25A27.47 27.47 0 0 1 588 716.08c-0.79 0-1.59 0-2.39-0.1a27.46 27.46 0 0 1-25-29.72c1.6-18.63 8.59-168.89 8.59-184.8a27.46 27.46 0 0 1 54.92 0c-0.05 19.45-7.36 172.33-8.84 189.54z" fill="#FFFFFF" p-id="53042"></path></svg>
