<svg t="1733748093314" class="icon" viewBox="0 0 1024 1024" version="1.1" xmlns="http://www.w3.org/2000/svg" p-id="3982" width="200" height="200"><path d="M170.666667 0h682.666666c93.866667 0 170.666667 76.8 170.666667 170.666667v682.666666c0 93.866667-76.8 170.666667-170.666667 170.666667H170.666667c-93.866667 0-170.666667-76.8-170.666667-170.666667V170.666667c0-93.866667 76.8-170.666667 170.666667-170.666667z" fill="#32B84C" opacity=".2" p-id="3983"></path><path d="M200.533333 72.533333h622.933334c72.533333 0 128 55.466667 128 128v622.933334c0 72.533333-55.466667 128-128 128H200.533333c-72.533333 0-128-55.466667-128-128V200.533333c0-68.266667 59.733333-128 128-128z" fill="#32B84C" opacity=".3" p-id="3984"></path><path d="M230.4 145.066667h558.933333c46.933333 0 85.333333 38.4 85.333334 85.333333v558.933333c0 46.933333-38.4 85.333333-85.333334 85.333334H230.4c-46.933333 0-85.333333-38.4-85.333333-85.333334V230.4c0-46.933333 38.4-85.333333 85.333333-85.333333z" fill="#32B84C" opacity=".38" p-id="3985"></path><path d="M669.866667 537.6l-234.666667 149.333333c-29.866667 21.333333-68.266667-8.533333-68.266667-42.666666V341.333333c0-34.133333 38.4-64 68.266667-42.666666l234.666667 149.333333c34.133333 21.333333 34.133333 68.266667 0 89.6" fill="#26AE40" p-id="3986"></path></svg>
