<svg t="1733799474807" class="icon" viewBox="0 0 1024 1024" version="1.1" xmlns="http://www.w3.org/2000/svg" p-id="32161" width="200" height="200"><path d="M826.026667 314.026667l-114.346667-114.346667c-29.013333-29.013333-68.266667-44.373333-109.226667-44.373333H256c-56.32 0-102.4 46.08-102.4 102.4v512c0 56.32 46.08 102.4 102.4 102.4h512c56.32 0 102.4-46.08 102.4-102.4V421.546667c0-40.96-15.36-78.506667-44.373333-107.52zM204.8 409.6h460.8v307.2H204.8V409.6z m614.4 358.4c0 29.013333-22.186667 51.2-51.2 51.2H256c-29.013333 0-51.2-22.186667-51.2-51.2h494.933333c10.24 0 17.066667-6.826667 17.066667-17.066667V375.466667c0-10.24-6.826667-17.066667-17.066667-17.066667H204.8v-102.4c0-29.013333 22.186667-51.2 51.2-51.2h346.453333c27.306667 0 52.906667 10.24 71.68 30.72l114.346667 114.346667c18.773333 18.773333 30.72 44.373333 30.72 71.68V768z" fill="#335056" p-id="32162"></path><path d="M256 256h204.8v51.2H256zM563.2 512h51.2v102.4h-51.2z" fill="#335056" p-id="32163"></path><path d="M204.8 409.6v307.2h460.8V409.6H204.8z m409.6 204.8h-51.2v-102.4h51.2v102.4z" fill="#78BDCC" p-id="32164"></path></svg>
