<svg t="1742575445234" class="icon" viewBox="0 0 1024 1024" version="1.1" xmlns="http://www.w3.org/2000/svg" p-id="13779" width="200" height="200"><path d="M832 64H192c-19.2 0-32 12.8-32 32v128c0 19.2 12.8 32 32 32s32-12.8 32-32V128h576v96c0 19.2 12.8 32 32 32s32-12.8 32-32V96c0-19.2-12.8-32-32-32zM192 960h640c19.2 0 32-12.8 32-32V800c0-19.2-12.8-32-32-32s-32 12.8-32 32v96H224v-96c0-19.2-12.8-32-32-32s-32 12.8-32 32v128c0 19.2 12.8 32 32 32z" fill="#333333" p-id="13780"></path><path d="M416 320H224c-19.2 0-32 12.8-32 32v320c0 19.2 12.8 32 32 32h192c19.2 0 32-12.8 32-32V352c0-19.2-12.8-32-32-32z m-32 320H256V384h128v256zM800 320H608c-19.2 0-32 12.8-32 32v320c0 19.2 12.8 32 32 32h192c19.2 0 32-12.8 32-32V352c0-19.2-12.8-32-32-32z m-32 320H640V384h128v256z" fill="#00D1C6" p-id="13781"></path></svg>