<svg t="1740817678701" class="icon" viewBox="0 0 1024 1024" version="1.1" xmlns="http://www.w3.org/2000/svg" p-id="11225" width="200" height="200"><path d="M113.777778 170.666667h796.444444v682.666666H113.777778z" fill="#FCCF2A" p-id="11226"></path><path d="M133.404444 848.042667a28.444444 28.444444 0 0 1-41.358222-39.025778l215.779556-228.864a28.444444 28.444444 0 0 1 41.528889 0.227555l136.533333 147.569778a28.444444 28.444444 0 1 1-41.699556 38.627556l-115.882666-125.212445-194.901334 206.677334z" fill="#333333" p-id="11227"></path><path d="M434.688 863.914667a28.444444 28.444444 0 0 1-46.08-33.28l273.92-379.619556a28.444444 28.444444 0 0 1 45.852444-0.398222l225.507556 302.136889a28.444444 28.444444 0 1 1-45.568 34.019555l-202.296889-271.075555-251.335111 348.16zM325.006222 464.782222a85.333333 85.333333 0 1 1 0-170.666666 85.333333 85.333333 0 0 1 0 170.666666z m0-56.888889a28.444444 28.444444 0 1 0 0-56.888889 28.444444 28.444444 0 0 0 0 56.888889z" fill="#333333" p-id="11228"></path><path d="M143.36 203.776v768a28.444444 28.444444 0 0 1-56.888889 0v-796.444444a28.444444 28.444444 0 0 1 28.444445-28.444445h879.274666a28.444444 28.444444 0 0 1 0 56.888889H143.36z" fill="#333333" p-id="11229"></path><path d="M882.915556 829.553778v-768a28.444444 28.444444 0 0 1 56.888888 0v796.444444a28.444444 28.444444 0 0 1-28.444444 28.444445H28.558222a28.444444 28.444444 0 1 1 0-56.888889H882.915556z" fill="#333333" p-id="11230"></path></svg>
