<svg t="1733334941458" class="icon" viewBox="0 0 1024 1024" version="1.1" xmlns="http://www.w3.org/2000/svg" p-id="75998" width="200" height="200"><path d="M511.744 510.72m-450.816 0a450.816 450.816 0 1 0 901.632 0 450.816 450.816 0 1 0-901.632 0Z" fill="#59ADF8" p-id="75999"></path><path d="M818.6368 766.208l-89.4976-92.7232c39.424-51.3024 62.9248-115.5072 62.9248-185.2416 0-168.0896-136.2432-304.3328-304.3328-304.3328S183.3984 320.1536 183.3984 488.2432s136.2432 304.3328 304.3328 304.3328c72.4992 0 139.008-25.4464 191.2832-67.7888l88.0128 91.2384a35.74784 35.74784 0 0 0 25.8048 10.9568c8.96 0 17.92-3.328 24.8832-10.0352 14.2336-13.824 14.6432-36.5056 0.9216-50.7392z m-329.0624-79.9232h-1.1776c-117.76 0-175.2576-89.6-189.2352-137.1136a30.7712 30.7712 0 0 1 20.8384-38.144c16.2304-4.7616 33.2288 4.5056 38.0928 20.6848 1.28 4.1472 29.9008 93.1328 130.304 93.1328h1.024c16.896 0 30.6176 13.6704 30.72 30.5664 0.1024 16.9472-13.6192 30.7712-30.5664 30.8736z" fill="#FFFFFF" p-id="76000"></path></svg>
