<svg t="1741143907669" class="icon" viewBox="0 0 1024 1024" version="1.1" xmlns="http://www.w3.org/2000/svg" p-id="5846" width="200" height="200"><path d="M758.8352 945.2032H272.5376c-107.264 0-194.2016-86.9376-194.2016-194.2016V264.7552c0-107.264 86.9376-194.2016 194.2016-194.2016h486.2464c107.264 0 194.2016 86.9376 194.2016 194.2016v486.2464c0.0512 107.264-86.8864 194.2016-194.1504 194.2016z" fill="#4FE8CB" p-id="5847"></path><path d="M722.7392 623.1552c-57.344 0-104.0384 46.6432-104.0384 103.9872s46.6432 103.9872 104.0384 103.9872c57.344 0 103.9872-46.6432 103.9872-103.9872s-46.6432-103.9872-103.9872-103.9872z m0 156.8256c-29.1328 0-52.8384-23.7056-52.8384-52.7872s23.7056-52.7872 52.8384-52.7872 52.7872 23.7056 52.7872 52.7872-23.6544 52.7872-52.7872 52.7872zM595.8656 631.3472L457.472 556.032c4.3008-12.4928 6.7072-25.9072 6.7072-39.8848 0-13.6704-2.2528-26.7776-6.4-39.0144l190.5664-105.2672c18.8928 19.4048 45.2608 31.5392 74.4448 31.5392 22.1696 0 43.3152-6.8608 61.1328-19.8656a25.62048 25.62048 0 0 0 5.632-35.7888 25.66656 25.66656 0 0 0-35.7888-5.632 52.27008 52.27008 0 0 1-31.0272 10.0864c-29.1328 0-52.8384-23.7056-52.8384-52.7872s23.7056-52.7872 52.8384-52.7872 52.7872 23.7056 52.7872 52.7872c0 14.1312 11.4688 25.6 25.6 25.6s25.6-11.4688 25.6-25.6c0-57.344-46.6432-103.9872-103.9872-103.9872s-104.0384 46.6432-104.0384 103.9872c0 9.7792 1.4336 19.2 3.9936 28.16L431.616 433.0496c-22.4256-24.3712-54.5792-39.6288-90.2144-39.6288-67.6864 0-122.7264 55.04-122.7264 122.7264s55.04 122.7264 122.7264 122.7264c35.328 0 67.1744-15.0016 89.6-38.9632l140.4416 76.3904c3.8912 2.0992 8.0896 3.1232 12.1856 3.1232 9.0624 0 17.8688-4.8128 22.528-13.3632 6.7584-12.3904 2.1504-27.9552-10.2912-34.7136z m-254.464-43.6736c-39.4752 0-71.5264-32.1024-71.5264-71.5264 0-39.424 32.1024-71.5264 71.5264-71.5264 39.424 0 71.5264 32.1024 71.5264 71.5264 0 39.424-32.1024 71.5264-71.5264 71.5264z" fill="#F7F8F8" p-id="5848"></path></svg>
