<svg t="1733416536479" class="icon" viewBox="0 0 1024 1024" version="1.1" xmlns="http://www.w3.org/2000/svg" p-id="35442" width="200" height="200"><path d="M511.390476 14.628571c282.453333 0 511.414857 223.085714 511.414857 498.322286 0 275.21219-228.961524 498.297905-511.414857 498.297905C228.961524 1011.248762 0 788.163048 0 512.950857 0 237.738667 228.937143 14.628571 511.390476 14.628571z" fill="#3BD1CA" p-id="35443"></path><path d="M507.782095 291.230476L369.152 377.904762h-69.168762a70.217143 70.217143 0 0 0-49.200762 19.651048 66.535619 66.535619 0 0 0-20.382476 47.811047v135.216762c-0.024381 17.944381 7.314286 35.157333 20.358095 47.835429 13.06819 12.678095 30.793143 19.72419 49.225143 19.602285h69.168762l138.630095 86.625524c19.577905 8.289524 34.791619-0.560762 34.791619-19.334095v-404.72381c0-18.822095-15.555048-27.428571-34.791619-19.358476z m116.809143 108.909714a17.67619 17.67619 0 0 0-24.015238-0.292571 16.579048 16.579048 0 0 0-1.29219 23.356952c3.218286 3.388952 8.752762 10.849524 14.384761 22.113524 9.752381 19.260952 15.60381 41.837714 15.60381 67.657143 0.24381 23.405714-5.12 46.567619-15.60381 67.632762-5.656381 11.288381-11.166476 18.748952-14.384761 22.113524a16.579048 16.579048 0 0 0-4.632381 16.822857 17.188571 17.188571 0 0 0 13.043809 11.873524 17.65181 17.65181 0 0 0 16.920381-5.607619c5.461333-5.656381 12.970667-15.798857 20.236191-30.281143 11.971048-23.722667 19.114667-51.346286 19.114666-82.578286a181.394286 181.394286 0 0 0-19.114666-82.553905c-7.314286-14.433524-14.799238-24.600381-20.260572-30.232381z m106.349714-20.870095c-13.994667-23.113143-28.135619-39.107048-38.058666-47.737905a17.578667 17.578667 0 0 0-24.502857 1.389715 16.505905 16.505905 0 0 0 1.414095 23.82019c1.633524 1.438476 4.900571 4.583619 9.264762 9.532953 7.509333 8.43581 14.994286 18.529524 22.040381 30.110476a222.110476 222.110476 0 0 1 32.231619 116.589714 222.061714 222.061714 0 0 1-54.296381 146.700191c-4.388571 4.949333-7.631238 8.094476-9.264762 9.532952a16.62781 16.62781 0 0 0-1.438476 23.844571c6.38781 6.948571 17.310476 7.582476 24.502857 1.414096 9.947429-8.630857 24.064-24.600381 38.083047-47.737905a254.537143 254.537143 0 0 0 37.059048-133.729524 254.439619 254.439619 0 0 0-37.034667-133.729524z" fill="#FFFFFF" p-id="35444"></path></svg>
