<svg t="1735134309122" class="icon" viewBox="0 0 1024 1024" version="1.1" xmlns="http://www.w3.org/2000/svg" p-id="8818" width="200" height="200"><path d="M512 1024c282.760533 0 512-229.239467 512-512 0-282.760533-229.239467-512-512-512C229.239467 0 0 229.239467 0 512c0 282.760533 229.239467 512 512 512z m103.8336-680.618667c4.983467 5.597867 23.722667 25.2928 5.802667 37.5808-17.885867 12.288-33.450667-10.171733-39.150934-16.554666l-47.4112-51.541334v249.070934s0 30.651733-23.2448 31.095466c-23.278933 0.477867-23.278933-32.938667-23.278933-32.938666V312.900267l-47.377067 51.5072c-5.7344 6.382933-29.354667 22.493867-39.594666 10.308266-10.24-12.219733 0.443733-25.736533 5.461333-31.300266l81.5104-93.184a31.163733 31.163733 0 0 1 46.523733 0.034133l80.759467 93.149867z m104.721067 373.691734v-157.4912c0-17.408-1.365333-31.505067 15.940266-31.505067 17.271467 0 15.36 14.097067 15.36 31.505067v157.4912a31.402667 31.402667 0 0 1-31.300266 31.505066H304.5376a31.402667 31.402667 0 0 1-31.300267-31.505066v-157.4912c0-17.408 0.341333-31.505067 17.6128-31.505067 17.3056 0 17.169067 14.097067 17.169067 31.505067v157.4912H720.554667z" fill="#8FD2C7" p-id="8819"></path></svg>
