<svg t="1734341153983" class="icon" viewBox="0 0 1024 1024" version="1.1" xmlns="http://www.w3.org/2000/svg" p-id="33694" width="200" height="200"><path d="M512 58.181818C260.654545 58.181818 58.181818 260.654545 58.181818 512S260.654545 965.818182 512 965.818182 965.818182 763.345455 965.818182 512 763.345455 58.181818 512 58.181818zM546.909091 768c0 18.618182-16.290909 34.909091-34.909091 34.909091s-34.909091-16.290909-34.909091-34.909091V395.636364c0-18.618182 16.290909-34.909091 34.909091-34.909091s34.909091 16.290909 34.909091 34.909091v372.363636zM512 325.818182c-25.6 0-46.545455-20.945455-46.545455-46.545455s20.945455-46.545455 46.545455-46.545454 46.545455 20.945455 46.545455 46.545454-20.945455 46.545455-46.545455 46.545455z" fill="#A8ABB0" p-id="33695"></path></svg>
