<svg t="1740249125892" class="icon" viewBox="0 0 1024 1024" version="1.1" xmlns="http://www.w3.org/2000/svg" p-id="27758" width="200" height="200"><path d="M512 512m-512 0a512 512 0 1 0 1024 0 512 512 0 1 0-1024 0Z" fill="#EFEFF4" p-id="27759"></path><path d="M512 814.545455a302.545455 302.545455 0 0 1-213.934545-516.48 302.545455 302.545455 0 1 1 427.86909 427.86909A300.555636 300.555636 0 0 1 512 814.545455z m0-186.379637a49.850182 49.850182 0 1 0 49.838545 49.838546 49.896727 49.896727 0 0 0-49.838545-49.838546z m-19.362909-281.530182a46.289455 46.289455 0 0 0-45.975273 51.549091l19.374546 169.157818a46.277818 46.277818 0 0 0 91.927272 0l19.362909-169.169454a46.277818 46.277818 0 0 0-45.975272-51.549091z" fill="#D2D2D8" p-id="27760"></path></svg>
