<svg t="1740245876441" class="icon" viewBox="0 0 1024 1024" version="1.1" xmlns="http://www.w3.org/2000/svg" p-id="6099" width="200" height="200"><path d="M887.36 749.312c-18.176 18.048-50.752 38.528-104.128 40.32-24.704 0.896-53.504 0.96-66.688 0.96H429.696l205.696-199.808c9.472-9.216 30.72-29.568 49.152-46.08 40.32-36.288 76.544-43.584 102.208-43.328 40.192 0.384 76.8 16.768 102.848 43.264 55.936 57.152 54.592 148.48-2.24 204.672m68.736-269.696A236.16 236.16 0 0 0 787.2 408.32c-57.472 0-106.88 19.776-150.08 54.912-18.816 15.36-38.528 33.664-63.36 57.728-12.288 12.032-369.792 358.912-369.792 358.912 18.752 2.624 44.48 3.456 67.456 3.584 21.568 0.128 432.32 0.128 449.472 0.128 34.624 0 57.152-0.064 81.28-1.856 55.552-4.032 107.968-24.384 150.336-65.984a237.504 237.504 0 0 0 3.648-336.192z" fill="#00A3FF" p-id="6100"></path><path d="M379.328 457.28c-42.048-31.424-89.088-49.024-142.4-48.96a237.568 237.568 0 0 0-165.376 407.488c37.76 37.12 83.52 57.28 132.352 64.064l92.032-89.28c-14.848-0.064-36.224-0.256-55.168-0.896-53.376-1.856-85.888-22.336-104.128-40.32A145.024 145.024 0 0 1 134.4 544.64c26.112-26.496 62.72-42.88 102.848-43.264 25.216-0.128 59.392 7.168 98.048 39.232 18.432 15.296 59.392 51.2 77.312 67.456 0.896 0.832 2.048 0.896 3.072 0l63.36-61.824c1.152-1.024 1.088-2.496 0-3.456-30.528-27.52-73.728-66.112-99.712-85.504" fill="#00C8DC" p-id="6101"></path><path d="M811.968 354.688A318.336 318.336 0 0 0 512 142.656a318.72 318.72 0 0 0-314.368 268.992 236.608 236.608 0 0 1 92.992 3.008l0.96 0.192A225.28 225.28 0 0 1 512 235.776c89.984 0 168.896 54.272 204.48 131.136 0.576 1.216 1.536 1.6 2.496 1.344 26.752-7.36 58.88-11.648 89.792-9.344 3.072 0.192 4.224-1.472 3.2-4.224" fill="#006EFF" p-id="6102"></path></svg>
