<svg t="1730718997526" class="icon" viewBox="0 0 1024 1024" version="1.1" xmlns="http://www.w3.org/2000/svg" p-id="10455" width="200" height="200"><path d="M593.92 125.013333c25.173333 30.293333 64.426667 44.8 103.253333 37.973334 67.413333-11.946667 129.28 40.533333 129.28 109.653333 0 39.68 20.906667 76.373333 55.04 96.426667 59.306667 34.56 73.386667 114.773333 29.44 168.106666a113.066667 113.066667 0 0 0-19.2 109.653334c23.466667 64.853333-17.066667 135.68-84.48 147.626666-38.826667 6.826667-70.826667 34.133333-84.053333 71.68-23.466667 64.853333-98.986667 93.013333-158.293333 58.453334-34.133333-19.626667-75.946667-19.626667-110.08 0-59.306667 34.56-134.826667 6.826667-158.293334-58.453334a112.170667 112.170667 0 0 0-84.053333-71.68C145.066667 782.506667 104.96 711.68 128 646.826667c13.226667-37.12 5.973333-78.933333-19.2-109.653334-43.946667-52.906667-29.866667-133.12 29.44-168.106666a111.786667 111.786667 0 0 0 55.04-96.426667c0-69.12 61.866667-121.6 129.28-109.653333 38.826667 6.826667 78.08-7.68 103.253333-37.973334a109.312 109.312 0 0 1 168.533334 0z" fill="#E2961B" p-id="10456"></path><path d="M473.173333 661.333333c-32.853333 0-65.28-12.373333-90.453333-37.546666l-75.946667-75.946667c-17.066667-17.066667-17.066667-45.226667 0-62.293333 17.066667-17.066667 45.226667-17.066667 62.293334 0l75.946666 75.946666c15.36 15.36 40.96 15.36 56.32 0l153.6-153.6c17.066667-17.066667 45.226667-17.066667 62.293334 0 17.066667 17.066667 17.066667 45.226667 0 62.293334l-153.6 153.6a128 128 0 0 1-90.453334 37.546666z" fill="#FFFFFF" p-id="10457"></path></svg>
